g glod
v 0.3891504 -0.3265364 0
v 0.08821303 -0.5002824 0
v 0.2539997 -0.4399411 0
v 0.508 0 0
v 0.3891506 0.3265361 0
v -0.4773639 -0.1737461 0
v -0.2540002 -0.4399408 0
v -0.08821349 -0.5002823 0
v -0.3891506 -0.326536 0
v -0.254 0.4399409 0
v -0.4773638 0.1737463 0
v -0.508 7.670587E-08 0
v -0.3891506 0.3265361 0
v 0.08821324 0.5002823 0
v -0.08821333 0.5002823 0
v 0.254 0.4399409 0
v 0.4773638 0.1737462 0
v 0.4773637 -0.1737466 0
v 0.508 0 0
v 0.4773638 0.1737462 0.1016
v 0.4773638 0.1737462 0
v 0.508 0 0.1016
v 0.3891506 0.3265361 0.1016
v 0.3891506 0.3265361 0
v 0.254 0.4399409 0.1016
v 0.254 0.4399409 0
v 0.08821324 0.5002823 0.1016
v 0.08821324 0.5002823 0
v -0.08821333 0.5002823 0.1016
v -0.08821333 0.5002823 0
v -0.254 0.4399409 0.1016
v -0.254 0.4399409 0
v -0.3891506 0.3265361 0.1016
v -0.3891506 0.3265361 0
v -0.4773638 0.1737463 0.1016
v -0.4773638 0.1737463 0
v -0.508 7.670587E-08 0.1016
v -0.508 7.670587E-08 0
v -0.4773639 -0.1737461 0.1016
v -0.4773639 -0.1737461 0
v -0.3891506 -0.326536 0.1016
v -0.3891506 -0.326536 0
v -0.2540002 -0.4399408 0.1016
v -0.2540002 -0.4399408 0
v -0.08821349 -0.5002823 0.1016
v -0.08821349 -0.5002823 0
v 0.08821303 -0.5002824 0.1016
v 0.08821303 -0.5002824 0
v 0.2539997 -0.4399411 0.1016
v 0.2539997 -0.4399411 0
v 0.3891504 -0.3265364 0.1016
v 0.3891504 -0.3265364 0
v 0.4773637 -0.1737466 0.1016
v 0.4773637 -0.1737466 0
v 0.508 0 0.1016
v 0.3891506 0.3265361 0.1016
v 0.4773638 0.1737462 0.1016
v 0.3891504 -0.3265364 0.1016
v 0.08821303 -0.5002824 0.1016
v -0.254 0.4399409 0.1016
v 0.08821324 0.5002823 0.1016
v 0.254 0.4399409 0.1016
v -0.08821333 0.5002823 0.1016
v -0.4773639 -0.1737461 0.1016
v -0.4773638 0.1737463 0.1016
v -0.3891506 0.3265361 0.1016
v -0.508 7.670587E-08 0.1016
v -0.2540002 -0.4399408 0.1016
v -0.3891506 -0.326536 0.1016
v -0.08821349 -0.5002823 0.1016
v 0.2539997 -0.4399411 0.1016
v 0.4773637 -0.1737466 0.1016
vt 0.7760749 0.2647716
vt 0.5625809 0.1396094
vt 0.680195 0.1830778
vt 0.8603905 0.4999999
vt 0.7760752 0.7352282
vt 0.1613436 0.3748379
vt 0.3198045 0.1830781
vt 0.4374186 0.1396096
vt 0.2239247 0.2647719
vt 0.3198048 0.8169222
vt 0.1613438 0.6251625
vt 0.1396095 0.5000002
vt 0.2239249 0.7352283
vt 0.5625812 0.8603905
vt 0.4374189 0.8603906
vt 0.6801953 0.8169221
vt 0.8386563 0.6251622
vt 0.8386562 0.3748374
vt 0.8603905 0.4999999
vt 0.8386563 0.6251622
vt 0.8386563 0.6251622
vt 0.8603905 0.4999999
vt 0.7760752 0.7352282
vt 0.7760752 0.7352282
vt 0.6801953 0.8169221
vt 0.6801953 0.8169221
vt 0.5625812 0.8603905
vt 0.5625812 0.8603905
vt 0.4374189 0.8603906
vt 0.4374189 0.8603906
vt 0.3198048 0.8169222
vt 0.3198048 0.8169222
vt 0.2239249 0.7352283
vt 0.2239249 0.7352283
vt 0.1613438 0.6251625
vt 0.1613438 0.6251625
vt 0.1396095 0.5000002
vt 0.1396095 0.5000002
vt 0.1613436 0.3748379
vt 0.1613436 0.3748379
vt 0.2239247 0.2647719
vt 0.2239247 0.2647719
vt 0.3198045 0.1830781
vt 0.3198045 0.1830781
vt 0.4374186 0.1396096
vt 0.4374186 0.1396096
vt 0.5625809 0.1396094
vt 0.5625809 0.1396094
vt 0.680195 0.1830778
vt 0.680195 0.1830778
vt 0.7760749 0.2647716
vt 0.7760749 0.2647716
vt 0.8386562 0.3748374
vt 0.8386562 0.3748374
vt 0.8603905 0.4999999
vt 0.7760752 0.7352282
vt 0.8386563 0.6251622
vt 0.7760749 0.2647716
vt 0.5625809 0.1396094
vt 0.3198048 0.8169222
vt 0.5625812 0.8603905
vt 0.6801953 0.8169221
vt 0.4374189 0.8603906
vt 0.1613436 0.3748379
vt 0.1613438 0.6251625
vt 0.2239249 0.7352283
vt 0.1396095 0.5000002
vt 0.3198045 0.1830781
vt 0.2239247 0.2647719
vt 0.4374186 0.1396096
vt 0.680195 0.1830778
vt 0.8386562 0.3748374
vn 0 0 -1
vn 0 0 -1
vn 0 0 -1
vn 0 0 -1
vn 0 0 -1
vn 0 0 -1
vn 0 0 -1
vn 0 0 -1
vn 0 0 -1
vn 0 0 -1
vn 0 0 -1
vn 0 0 -1
vn 0 0 -1
vn 0 0 -1
vn 0 0 -1
vn 0 0 -1
vn 0 0 -1
vn 0 0 -1
vn 1 0 0
vn 0.9396926 0.3420202 0
vn 0.9396926 0.3420202 0
vn 1 0 0
vn 0.7660444 0.6427876 0
vn 0.7660444 0.6427876 0
vn 0.4999999 0.8660254 0
vn 0.4999999 0.8660254 0
vn 0.1736481 0.9848077 0
vn 0.1736481 0.9848077 0
vn -0.1736483 0.9848077 0
vn -0.1736484 0.9848077 0
vn -0.5000001 0.8660253 0
vn -0.5000001 0.8660253 0
vn -0.7660444 0.6427876 0
vn -0.7660444 0.6427876 0
vn -0.9396926 0.3420202 0
vn -0.9396926 0.3420202 0
vn -1 0 0
vn -1 0 0
vn -0.9396926 -0.3420199 0
vn -0.9396926 -0.3420199 0
vn -0.7660446 -0.6427874 0
vn -0.7660445 -0.6427875 0
vn -0.5000004 -0.8660253 0
vn -0.5000003 -0.8660253 0
vn -0.1736487 -0.9848076 0
vn -0.1736487 -0.9848076 0
vn 0.1736477 -0.9848078 0
vn 0.1736476 -0.9848078 0
vn 0.4999995 -0.8660257 0
vn 0.4999995 -0.8660257 0
vn 0.766044 -0.6427881 0
vn 0.7660441 -0.6427881 0
vn 0.9396926 -0.3420206 0
vn 0.9396926 -0.3420206 0
vn 0 0 1
vn 0 0 1
vn 0 0 1
vn 0 0 1
vn 0 0 1
vn 0 0 1
vn 0 0 1
vn 0 0 1
vn 0 0 1
vn 0 0 1
vn 0 0 1
vn 0 0 1
vn 0 0 1
vn 0 0 1
vn 0 0 1
vn 0 0 1
vn 0 0 1
vn 0 0 1
g glod_0
f 3/3/3 2/2/2 1/1/1
f 2/2/2 4/4/4 1/1/1
f 5/5/5 4/4/4 2/2/2
f 6/6/6 5/5/5 2/2/2
f 7/7/7 6/6/6 2/2/2
f 8/8/8 7/7/7 2/2/2
f 9/9/9 6/6/6 7/7/7
f 10/10/10 5/5/5 6/6/6
f 11/11/11 10/10/10 6/6/6
f 12/12/12 11/11/11 6/6/6
f 13/13/13 10/10/10 11/11/11
f 14/14/14 5/5/5 10/10/10
f 15/15/15 14/14/14 10/10/10
f 16/16/16 5/5/5 14/14/14
f 17/17/17 4/4/4 5/5/5
f 1/1/1 4/4/4 18/18/18
f 21/21/21 20/20/20 19/19/19
f 22/22/22 19/19/19 20/20/20
f 20/20/20 21/21/21 23/23/23
f 24/24/24 23/23/23 21/21/21
f 23/23/23 24/24/24 25/25/25
f 26/26/26 25/25/25 24/24/24
f 25/25/25 26/26/26 27/27/27
f 28/28/28 27/27/27 26/26/26
f 27/27/27 28/28/28 29/29/29
f 30/30/30 29/29/29 28/28/28
f 29/29/29 30/30/30 31/31/31
f 32/32/32 31/31/31 30/30/30
f 31/31/31 32/32/32 33/33/33
f 34/34/34 33/33/33 32/32/32
f 33/33/33 34/34/34 35/35/35
f 36/36/36 35/35/35 34/34/34
f 35/35/35 36/36/36 37/37/37
f 38/38/38 37/37/37 36/36/36
f 37/37/37 38/38/38 39/39/39
f 40/40/40 39/39/39 38/38/38
f 39/39/39 40/40/40 41/41/41
f 42/42/42 41/41/41 40/40/40
f 41/41/41 42/42/42 43/43/43
f 44/44/44 43/43/43 42/42/42
f 43/43/43 44/44/44 45/45/45
f 46/46/46 45/45/45 44/44/44
f 45/45/45 46/46/46 47/47/47
f 48/48/48 47/47/47 46/46/46
f 47/47/47 48/48/48 49/49/49
f 50/50/50 49/49/49 48/48/48
f 49/49/49 50/50/50 51/51/51
f 52/52/52 51/51/51 50/50/50
f 51/51/51 52/52/52 53/53/53
f 54/54/54 53/53/53 52/52/52
f 53/53/53 54/54/54 22/22/22
f 19/19/19 22/22/22 54/54/54
f 57/57/57 56/56/56 55/55/55
f 56/56/56 58/58/58 55/55/55
f 59/59/59 58/58/58 56/56/56
f 60/60/60 59/59/59 56/56/56
f 61/61/61 60/60/60 56/56/56
f 62/62/62 61/61/61 56/56/56
f 63/63/63 60/60/60 61/61/61
f 64/64/64 59/59/59 60/60/60
f 65/65/65 64/64/64 60/60/60
f 66/66/66 65/65/65 60/60/60
f 67/67/67 64/64/64 65/65/65
f 68/68/68 59/59/59 64/64/64
f 69/69/69 68/68/68 64/64/64
f 70/70/70 59/59/59 68/68/68
f 71/71/71 58/58/58 59/59/59
f 55/55/55 58/58/58 72/72/72
