g Item_5
v -0.4608295 -0.01553362 0.3924229
v 0.4608295 -0.01553362 0.3924229
v 0.4608295 -0.1202099 0.5107332
v -0.4608295 -0.1202099 0.5107332
v -0.4608295 0.006051664 0.2092039
v 0.4608295 0.006051664 0.2092039
v 0.4608295 -0.194861 0.5107332
v -0.4608295 -0.194861 0.5107332
v -0.4608295 -0.07626503 0.1554311
v 0.4608295 -0.07626503 0.1554311
v 0.4608295 0.006051664 0.2092039
v -0.4608295 0.006051664 0.2092039
v -0.4156774 -0.2218856 0.4667848
v 0.4156774 -0.2218856 0.4667848
v 0.4156774 -0.2218856 0.199379
v -0.4156774 -0.2218856 0.199379
v 0.4608295 -0.07626503 0.1554311
v 0.4608295 -0.1202099 0.5107332
v 0.4608295 -0.01553362 0.3924229
v 0.4608295 0.006051664 0.2092039
v 0.4608295 -0.194861 0.5107332
v 0.4608295 -0.194861 0.1554311
v -0.4608295 0.006051664 0.2092039
v -0.4608295 -0.01553362 0.3924229
v -0.4608295 -0.1202099 0.5107332
v -0.4608295 -0.07626503 0.1554311
v -0.4608295 -0.194861 0.1554311
v -0.4608295 -0.194861 0.5107332
v -0.4608295 -0.07626503 0.1554311
v -0.4608295 -0.194861 0.1554311
v 0.4608295 -0.194861 0.1554311
v 0.4608295 -0.07626503 0.1554311
v -0.4608295 -0.194861 0.5107332
v -0.4156774 -0.194861 0.4667848
v -0.4156774 -0.194861 0.199379
v -0.4608295 -0.194861 0.1554311
v 0.4156774 -0.194861 0.199379
v 0.4608295 -0.194861 0.1554311
v 0.4156774 -0.194861 0.4667848
v 0.4608295 -0.194861 0.5107332
v -0.4156774 -0.194861 0.4667848
v -0.4156774 -0.2218856 0.4667848
v -0.4156774 -0.2218856 0.199379
v -0.4156774 -0.194861 0.199379
v -0.4156774 -0.194861 0.199379
v -0.4156774 -0.2218856 0.199379
v 0.4156774 -0.2218856 0.199379
v 0.4156774 -0.194861 0.199379
v 0.4156774 -0.194861 0.199379
v 0.4156774 -0.2218856 0.199379
v 0.4156774 -0.2218856 0.4667848
v 0.4156774 -0.194861 0.4667848
v 0.4156774 -0.194861 0.4667848
v 0.4156774 -0.2218856 0.4667848
v -0.4156774 -0.2218856 0.4667848
v -0.4156774 -0.194861 0.4667848
v -0.2120749 -0.1341124 0.269997
v -0.2120749 -0.02588986 0.3709055
v 0.2120749 -0.02588986 0.3709055
v 0.2120749 -0.1341124 0.269997
v -0.2120749 -0.02588986 0.3709055
v -0.2120749 0.1261362 0.2328715
v 0.2120749 0.1261362 0.2328715
v 0.2120749 -0.02588986 0.3709055
v -0.2120749 0.1250616 0.1695653
v -0.2120749 0.02798369 0.08725641
v 0.2120749 0.02798369 0.08725641
v 0.2120749 0.1250616 0.1695653
v 0.2120749 0.1261362 0.2328715
v -0.2120749 0.1261362 0.2328715
v -0.2120749 -0.03292473 0.09760997
v -0.2120749 -0.1341124 0.269997
v 0.2120749 -0.1341124 0.269997
v 0.2120749 -0.03292473 0.09760997
v 0.2120749 -0.03292473 0.09760997
v 0.2120749 -0.1341124 0.269997
v 0.2120749 -0.02588986 0.3709055
v 0.2120749 0.02798369 0.08725641
v 0.2120749 0.1261362 0.2328715
v 0.2120749 0.1250616 0.1695653
v -0.2120749 -0.02588986 0.3709055
v -0.2120749 -0.1341124 0.269997
v -0.2120749 -0.03292473 0.09760997
v -0.2120749 0.02798369 0.08725641
v -0.2120749 0.1261362 0.2328715
v -0.2120749 0.1250616 0.1695653
v -0.2120749 -0.03292473 0.09760997
v 0.2120749 -0.03292473 0.09760997
v 0.2120749 0.02798369 0.08725641
v -0.2120749 0.02798369 0.08725641
v 0.05097618 0.5492581 -0.4274735
v 0.03150503 0.5292577 -0.4453124
v 0.03150503 0.02026428 0.1253522
v 0.05097618 0.04026437 0.143191
v 1.907349E-08 0.01262502 0.1185386
v 1.907349E-08 0.5216184 -0.4521262
v -0.03150503 0.02026428 0.1253522
v -0.03150503 0.5292577 -0.4453124
v -0.05097616 0.04026437 0.143191
v -0.05097616 0.5492581 -0.4274735
v -0.05097616 0.06498595 0.165241
v -0.05097616 0.5739794 -0.4054236
v 0.05097618 0.5739794 -0.4054236
v 0.05097618 0.06498595 0.165241
v -0.05097616 0.5739794 -0.4054236
v -0.03150503 0.5939794 -0.387585
v -0.03150503 0.084986 0.1830797
v -0.05097616 0.06498595 0.165241
v 1.907349E-08 0.0926255 0.1898935
v 1.907349E-08 0.6016188 -0.3807712
v 0.03150503 0.084986 0.1830797
v 0.03150503 0.5939794 -0.387585
v 0.05097618 0.06498595 0.165241
v 0.05097618 0.5739794 -0.4054236
v 0.06429148 0.3638524 -0.2261035
v 0.03973419 0.3386283 -0.2486022
v 0.03973419 0.193988 -0.0864367
v 0.06429148 0.2192124 -0.06393846
v 1.907349E-08 0.1843531 -0.09503048
v 1.907349E-08 0.3289934 -0.2571955
v -0.03973417 0.193988 -0.0864367
v -0.03973417 0.3386283 -0.2486022
v -0.06429145 0.2192124 -0.06393846
v -0.06429145 0.3638524 -0.2261035
v -0.06429145 0.2503913 -0.036129
v -0.06429145 0.3950315 -0.198294
v 0.06429148 0.3950315 -0.198294
v 0.06429148 0.2503913 -0.036129
v -0.06429145 0.3950315 -0.198294
v -0.03973417 0.4202557 -0.1757959
v -0.03973417 0.2756157 -0.01363073
v -0.06429145 0.2503913 -0.036129
v 1.907349E-08 0.2852505 -0.005037002
v 1.907349E-08 0.4298905 -0.1672022
v 0.03973419 0.2756157 -0.01363073
v 0.03973419 0.4202557 -0.1757959
v 0.06429148 0.2503913 -0.036129
v 0.06429148 0.3950315 -0.198294
v 0.03973419 0.193988 -0.0864367
v 1.907349E-08 0.2348019 -0.05003372
v 0.06429148 0.2192124 -0.06393846
v 1.907349E-08 0.1843531 -0.09503048
v -0.03973417 0.193988 -0.0864367
v -0.06429145 0.2192124 -0.06393846
v -0.06429145 0.2503913 -0.036129
v -0.03973417 0.2756157 -0.01363073
v 1.907349E-08 0.2852505 -0.005037002
v 0.03973419 0.2756157 -0.01363073
v 0.06429148 0.2503913 -0.036129
v 1.907349E-08 0.3794419 -0.2121989
v 0.03973419 0.3386283 -0.2486022
v 0.06429148 0.3638524 -0.2261035
v 1.907349E-08 0.3289934 -0.2571955
v -0.03973417 0.3386283 -0.2486022
v -0.06429145 0.3638524 -0.2261035
v -0.06429145 0.3950315 -0.198294
v -0.03973417 0.4202557 -0.1757959
v 1.907349E-08 0.4298905 -0.1672022
v 0.03973419 0.4202557 -0.1757959
v 0.06429148 0.3950315 -0.198294
v 0.0746368 0.5835934 -0.4750087
v 0.04612806 0.5543102 -0.5011272
v 0.04612806 0.4383908 -0.3711625
v 0.0746368 0.467674 -0.3450438
v 1.907349E-08 0.4272055 -0.381139
v 1.907349E-08 0.5431251 -0.5111036
v -0.04612804 0.4383908 -0.3711625
v -0.04612804 0.5543102 -0.5011272
v -0.07463679 0.467674 -0.3450438
v -0.07463679 0.5835934 -0.4750087
v -0.07463679 0.5038701 -0.3127595
v -0.07463679 0.6197894 -0.4427241
v 0.0746368 0.6197894 -0.4427241
v 0.0746368 0.5038701 -0.3127595
v -0.07463679 0.6197894 -0.4427241
v -0.04612804 0.6490727 -0.4166055
v -0.04612804 0.5331534 -0.2866409
v -0.07463679 0.5038701 -0.3127595
v 1.907349E-08 0.5443384 -0.2766645
v 1.907349E-08 0.660258 -0.406629
v 0.04612806 0.5331534 -0.2866409
v 0.04612806 0.6490727 -0.4166055
v 0.0746368 0.5038701 -0.3127595
v 0.0746368 0.6197894 -0.4427241
v 0.04612806 0.4383908 -0.3711625
v 1.907349E-08 0.485772 -0.3289016
v 0.0746368 0.467674 -0.3450438
v 1.907349E-08 0.4272055 -0.381139
v -0.04612804 0.4383908 -0.3711625
v -0.07463679 0.467674 -0.3450438
v -0.07463679 0.5038701 -0.3127595
v -0.04612804 0.5331534 -0.2866409
v 1.907349E-08 0.5443384 -0.2766645
v 0.04612806 0.5331534 -0.2866409
v 0.0746368 0.5038701 -0.3127595
v 1.907349E-08 0.6016915 -0.4588662
v 0.04612806 0.5543102 -0.5011272
v 0.0746368 0.5835934 -0.4750087
v 1.907349E-08 0.5431251 -0.5111036
v -0.04612804 0.5543102 -0.5011272
v -0.07463679 0.5835934 -0.4750087
v -0.07463679 0.6197894 -0.4427241
v -0.04612804 0.6490727 -0.4166055
v 1.907349E-08 0.660258 -0.406629
v 0.04612806 0.6490727 -0.4166055
v 0.0746368 0.6197894 -0.4427241
vt 0.4381078 0.1882101
vt 0.4381292 0.1882101
vt 0.4381292 0.1882071
vt 0.4381078 0.1882071
vt 0.4381078 0.1882108
vt 0.4381292 0.1882108
vt 0.4381292 0.188205
vt 0.4381078 0.188205
vt 0.4381078 0.1882084
vt 0.4381292 0.1882084
vt 0.4381292 0.1882108
vt 0.4381078 0.1882108
vt 0.9572898 0.6389961
vt 0.9563548 0.6389961
vt 0.9563548 0.6389961
vt 0.9572898 0.6389961
vt 0.4381292 0.1882084
vt 0.4381292 0.1882071
vt 0.4381292 0.1882101
vt 0.4381292 0.1882108
vt 0.4381292 0.188205
vt 0.4381292 0.188205
vt 0.4381078 0.1882108
vt 0.4381078 0.1882101
vt 0.4381078 0.1882071
vt 0.4381078 0.1882084
vt 0.4381078 0.188205
vt 0.4381078 0.188205
vt 0.4381078 0.1882084
vt 0.4381078 0.188205
vt 0.4381292 0.188205
vt 0.4381292 0.1882084
vt 0.4381078 0.188205
vt 0.4381089 0.188205
vt 0.4381089 0.188205
vt 0.4381078 0.188205
vt 0.4381281 0.188205
vt 0.4381292 0.188205
vt 0.4381281 0.188205
vt 0.4381292 0.188205
vt 0.951574 0.6350512
vt 0.9514991 0.6350512
vt 0.9514991 0.6357921
vt 0.951574 0.6357921
vt 0.9572898 0.6390697
vt 0.9572898 0.6389961
vt 0.9563548 0.6389961
vt 0.9563548 0.6390697
vt 0.9563548 0.6390697
vt 0.9563548 0.6389961
vt 0.9563548 0.6389961
vt 0.9563548 0.6390697
vt 0.9563548 0.6390697
vt 0.9563548 0.6389961
vt 0.9572898 0.6389961
vt 0.9572898 0.6390697
vt 0.957845 0.7856603
vt 0.957845 0.7867046
vt 0.9614065 0.7867046
vt 0.9614065 0.7856603
vt 0.957845 0.7867046
vt 0.957845 0.7881716
vt 0.9614065 0.7881716
vt 0.9614065 0.7867046
vt 0.957845 0.7881613
vt 0.957845 0.7872245
vt 0.9614065 0.7872245
vt 0.9614065 0.7881613
vt 0.9614065 0.7881716
vt 0.957845 0.7881716
vt 0.957845 0.7866367
vt 0.957845 0.7856603
vt 0.9614065 0.7856603
vt 0.9614065 0.7866367
vt 0.9614065 0.7866367
vt 0.9614065 0.7856603
vt 0.9614065 0.7867046
vt 0.9614065 0.7872245
vt 0.9614065 0.7881716
vt 0.9614065 0.7881613
vt 0.957845 0.7867046
vt 0.957845 0.7856603
vt 0.957845 0.7866367
vt 0.957845 0.7872245
vt 0.957845 0.7881716
vt 0.957845 0.7881613
vt 0.957845 0.7866367
vt 0.9614065 0.7866367
vt 0.9614065 0.7872245
vt 0.957845 0.7872245
vt 0.9516613 0.2928565
vt 0.9516268 0.2928129
vt 0.9516268 0.2917021
vt 0.9516613 0.2917458
vt 0.951571 0.2916855
vt 0.951571 0.2927962
vt 0.9515153 0.2917021
vt 0.9515153 0.2928129
vt 0.9514808 0.2917458
vt 0.9514808 0.2928565
vt 0.9514808 0.2917997
vt 0.9514808 0.2929105
vt 0.9516613 0.2929105
vt 0.9516613 0.2917997
vt 0.9514808 0.2929105
vt 0.9515153 0.2929541
vt 0.9515153 0.2918434
vt 0.9514808 0.2917997
vt 0.951571 0.29186
vt 0.951571 0.2929708
vt 0.9516268 0.2918434
vt 0.9516268 0.2929541
vt 0.9516613 0.2917997
vt 0.9516613 0.2929105
vt 0.9521266 0.7822706
vt 0.952126 0.7822699
vt 0.952126 0.7822658
vt 0.9521266 0.7822665
vt 0.9521251 0.7822655
vt 0.9521251 0.7822697
vt 0.9521242 0.7822658
vt 0.9521242 0.7822699
vt 0.9521236 0.7822665
vt 0.9521236 0.7822706
vt 0.9521236 0.7822674
vt 0.9521236 0.7822715
vt 0.9521266 0.7822715
vt 0.9521266 0.7822674
vt 0.9521236 0.7822715
vt 0.9521242 0.7822723
vt 0.9521242 0.7822681
vt 0.9521236 0.7822674
vt 0.9521251 0.7822684
vt 0.9521251 0.7822725
vt 0.952126 0.7822681
vt 0.952126 0.7822723
vt 0.9521266 0.7822674
vt 0.9521266 0.7822715
vt 0.952126 0.7822658
vt 0.9521251 0.782267
vt 0.9521266 0.7822665
vt 0.9521251 0.7822655
vt 0.9521242 0.7822658
vt 0.9521236 0.7822665
vt 0.9521236 0.7822674
vt 0.9521242 0.7822681
vt 0.9521251 0.7822684
vt 0.952126 0.7822681
vt 0.9521266 0.7822674
vt 0.9521251 0.7822711
vt 0.952126 0.7822699
vt 0.9521266 0.7822706
vt 0.9521251 0.7822697
vt 0.9521242 0.7822699
vt 0.9521236 0.7822706
vt 0.9521236 0.7822715
vt 0.9521242 0.7822723
vt 0.9521251 0.7822725
vt 0.952126 0.7822723
vt 0.9521266 0.7822715
vt 0.4381202 0.1882273
vt 0.4381196 0.1882265
vt 0.4381196 0.1882231
vt 0.4381202 0.188224
vt 0.4381185 0.1882228
vt 0.4381185 0.1882262
vt 0.4381174 0.1882231
vt 0.4381174 0.1882265
vt 0.4381168 0.188224
vt 0.4381168 0.1882273
vt 0.4381168 0.188225
vt 0.4381168 0.1882283
vt 0.4381202 0.1882283
vt 0.4381202 0.188225
vt 0.4381168 0.1882283
vt 0.4381174 0.1882291
vt 0.4381174 0.1882259
vt 0.4381168 0.188225
vt 0.4381185 0.1882262
vt 0.4381185 0.1882295
vt 0.4381196 0.1882259
vt 0.4381196 0.1882291
vt 0.4381202 0.188225
vt 0.4381202 0.1882283
vt 0.4381196 0.1882231
vt 0.4381185 0.1882245
vt 0.4381202 0.188224
vt 0.4381185 0.1882228
vt 0.4381174 0.1882231
vt 0.4381168 0.188224
vt 0.4381168 0.188225
vt 0.4381174 0.1882259
vt 0.4381185 0.1882262
vt 0.4381196 0.1882259
vt 0.4381202 0.188225
vt 0.4381185 0.1882278
vt 0.4381196 0.1882265
vt 0.4381202 0.1882273
vt 0.4381185 0.1882262
vt 0.4381174 0.1882265
vt 0.4381168 0.1882273
vt 0.4381168 0.1882283
vt 0.4381174 0.1882291
vt 0.4381185 0.1882295
vt 0.4381196 0.1882291
vt 0.4381202 0.1882283
vn 0 0.9223974 0.3862422
vn 0 0.9223974 0.3862422
vn 0 0.5506936 0.8347074
vn 0 0.5506936 0.8347074
vn 0 0.9931317 0.1170022
vn 0 0.9931317 0.1170022
vn 0 0 1
vn 0 0 1
vn 0 0.5468962 -0.8372005
vn 0 0.5468962 -0.8372005
vn 0 0.5468962 -0.8372005
vn 0 0.5468962 -0.8372005
vn 0 -1 0
vn 0 -1 0
vn 0 -1 0
vn 0 -1 0
vn 1 0 0
vn 1 0 0
vn 1 0 0
vn 1 0 0
vn 1 0 0
vn 1 0 0
vn -1 -2.530728E-07 0
vn -1 -2.530728E-07 0
vn -1 -2.530728E-07 0
vn -1 -2.530728E-07 0
vn -1 0 0
vn -1 0 0
vn 0 0 -1
vn 0 0 -1
vn 0 0 -1
vn 0 0 -1
vn 0 -1 0
vn 0 -1 0
vn 0 -1 0
vn 0 -1 0
vn 0 -1 -2.178655E-07
vn 0 -1 -2.178655E-07
vn 0 -1 0
vn 0 -1 0
vn -1 0 0
vn -1 0 0
vn -1 0 0
vn -1 0 0
vn 0 0 -1
vn 0 0 -1
vn 0 0 -1
vn 0 0 -1
vn 1 0 0
vn 1 0 0
vn 1 0 0
vn 1 0 0
vn 0 0 1
vn 0 0 1
vn 0 0 1
vn 0 0 1
vn 0 -0.6819601 0.7313893
vn 0 -0.6819601 0.7313893
vn 0 -0.6819601 0.7313893
vn 0 -0.6819601 0.7313893
vn 0 0.6722154 0.7403557
vn 0 0.8001024 0.5998634
vn 0 0.8001024 0.5998634
vn 0 0.6722154 0.7403557
vn 0 0.829212 -0.5589342
vn 0 0.646702 -0.7627428
vn 0 0.646702 -0.7627428
vn 0 0.829212 -0.5589342
vn 0 0.8001024 0.5998634
vn 0 0.8001024 0.5998634
vn 0 -0.8624071 -0.5062154
vn 0 -0.8624071 -0.5062154
vn 0 -0.8624071 -0.5062154
vn 0 -0.8624071 -0.5062154
vn 1 0 0
vn 1 0 0
vn 1 0 0
vn 1 0 0
vn 1 0 0
vn 1 0 0
vn -1 0 0
vn -1 0 0
vn -1 0 0
vn -1 0 0
vn -1 0 0
vn -1 0 0
vn 0 -0.1675818 -0.9858581
vn 0 -0.1675818 -0.9858581
vn 0 -0.1675818 -0.9858581
vn 0 -0.1675818 -0.9858581
vn 0.9510567 -0.2306131 -0.205691
vn 0.5877846 -0.6037543 -0.5385072
vn 0.5877846 -0.6037543 -0.5385071
vn 0.9510567 -0.230613 -0.2056909
vn 0 -0.746281 -0.665631
vn 0 -0.746281 -0.6656309
vn -0.5877845 -0.6037544 -0.5385072
vn -0.5877845 -0.6037544 -0.5385072
vn -0.9510568 -0.2306128 -0.2056908
vn -0.9510568 -0.2306129 -0.2056909
vn -0.9510564 0.230614 0.2056917
vn -0.9510565 0.2306135 0.2056912
vn 0.9510565 0.2306136 0.2056914
vn 0.9510562 0.2306142 0.2056919
vn -0.9510565 0.2306135 0.2056912
vn -0.5877849 0.6037542 0.5385069
vn -0.5877848 0.6037543 0.538507
vn -0.9510564 0.230614 0.2056917
vn 0 0.746281 0.6656309
vn 0 0.746281 0.665631
vn 0.587785 0.6037542 0.5385069
vn 0.5877849 0.6037542 0.5385069
vn 0.9510562 0.2306142 0.2056919
vn 0.9510565 0.2306136 0.2056914
vn 0.9510559 -0.2306149 -0.2056926
vn 0.5877854 -0.6037538 -0.5385069
vn 0.5877856 -0.6037537 -0.5385068
vn 0.951056 -0.2306146 -0.2056923
vn 0 -0.7462808 -0.6656312
vn 0 -0.7462808 -0.6656314
vn -0.5877854 -0.6037538 -0.5385068
vn -0.5877852 -0.6037539 -0.538507
vn -0.951056 -0.2306148 -0.2056924
vn -0.9510559 -0.230615 -0.2056926
vn -0.951056 0.2306146 0.2056925
vn -0.9510557 0.2306151 0.2056929
vn 0.9510557 0.2306151 0.2056929
vn 0.9510559 0.2306147 0.2056925
vn -0.9510557 0.2306151 0.2056929
vn -0.5877851 0.6037542 0.5385069
vn -0.587785 0.6037542 0.5385069
vn -0.951056 0.2306146 0.2056925
vn 0 0.7462813 0.6656307
vn 0 0.7462813 0.6656307
vn 0.5877851 0.6037541 0.5385067
vn 0.5877852 0.6037541 0.5385068
vn 0.9510559 0.2306147 0.2056925
vn 0.9510557 0.2306151 0.2056929
vn -1.13616E-06 -0.6656289 0.746283
vn 0 -0.6656303 0.7462817
vn 1.065138E-07 -0.6656297 0.7462822
vn 0 -0.66563 0.7462819
vn 1.171663E-06 -0.6656287 0.7462831
vn 0 -0.6656297 0.7462822
vn 1.437946E-06 -0.665631 0.746281
vn 1.065135E-07 -0.6656309 0.7462812
vn 0 -0.6656318 0.7462803
vn -1.597703E-07 -0.6656308 0.7462812
vn -1.473451E-06 -0.6656309 0.7462811
vn 0 0.6656321 -0.74628
vn -8.521183E-07 0.6656342 -0.7462783
vn 1.988264E-06 0.6656333 -0.746279
vn 0 0.6656316 -0.7462806
vn 8.521166E-07 0.665634 -0.7462784
vn -1.917253E-06 0.6656331 -0.7462791
vn -2.130293E-07 0.6656306 -0.7462814
vn 5.680789E-07 0.6656313 -0.7462807
vn 0 0.6656312 -0.7462808
vn -4.970692E-07 0.6656315 -0.7462806
vn 3.550488E-07 0.6656308 -0.7462813
vn 0.9510561 -0.2306146 -0.2056918
vn 0.5877853 -0.6037543 -0.5385064
vn 0.5877854 -0.6037542 -0.5385064
vn 0.9510565 -0.230614 -0.2056912
vn 0 -0.746281 -0.665631
vn 0 -0.746281 -0.6656311
vn -0.5877853 -0.6037543 -0.5385065
vn -0.5877852 -0.6037543 -0.5385066
vn -0.9510564 -0.2306141 -0.2056913
vn -0.9510561 -0.2306148 -0.2056919
vn -0.9510565 0.2306136 0.2056911
vn -0.9510565 0.2306135 0.2056911
vn 0.9510565 0.2306134 0.205691
vn 0.9510565 0.2306135 0.2056911
vn -0.9510565 0.2306135 0.2056911
vn -0.5877858 0.6037537 0.5385065
vn -0.5877856 0.6037538 0.5385066
vn -0.9510565 0.2306136 0.2056911
vn 0 0.7462808 0.6656312
vn 0 0.7462808 0.6656312
vn 0.5877856 0.6037539 0.5385067
vn 0.5877857 0.6037537 0.5385065
vn 0.9510565 0.2306135 0.2056911
vn 0.9510565 0.2306134 0.205691
vn 4.215096E-07 -0.6656321 0.7462801
vn 0 -0.6656308 0.7462813
vn 7.376433E-07 -0.6656307 0.7462813
vn 0 -0.6656322 0.74628
vn -4.21509E-07 -0.6656317 0.7462804
vn -7.376424E-07 -0.6656302 0.7462819
vn -1.159152E-06 -0.6656291 0.7462827
vn -2.529061E-06 -0.6656303 0.7462816
vn 0 -0.6656312 0.7462808
vn 2.423684E-06 -0.6656303 0.7462816
vn 1.053776E-06 -0.6656294 0.7462825
vn 0 0.6656315 -0.7462806
vn -2.107551E-06 0.6656321 -0.7462801
vn -1.686042E-06 0.665633 -0.7462792
vn 0 0.6656319 -0.7462802
vn 2.107551E-06 0.665632 -0.7462801
vn 1.686041E-06 0.6656331 -0.7462791
vn 0 0.6656317 -0.7462804
vn -4.215092E-07 0.6656297 -0.7462822
vn 0 0.6656301 -0.7462819
vn 6.322639E-07 0.6656297 -0.7462822
vn 2.107533E-07 0.6656316 -0.7462806
g Item_5_0
f 3/3/3 2/2/2 1/1/1
f 4/4/4 3/3/3 1/1/1
f 5/5/5 1/1/1 2/2/2
f 6/6/6 5/5/5 2/2/2
f 3/3/3 4/4/4 7/7/7
f 4/4/4 8/8/8 7/7/7
f 11/11/11 10/10/10 9/9/9
f 12/12/12 11/11/11 9/9/9
f 15/15/15 14/14/14 13/13/13
f 16/16/16 15/15/15 13/13/13
f 19/19/19 18/18/18 17/17/17
f 20/20/20 19/19/19 17/17/17
f 18/18/18 21/21/21 17/17/17
f 21/21/21 22/22/22 17/17/17
f 25/25/25 24/24/24 23/23/23
f 26/26/26 25/25/25 23/23/23
f 26/26/26 27/27/27 25/25/25
f 27/27/27 28/28/28 25/25/25
f 31/31/31 30/30/30 29/29/29
f 32/32/32 31/31/31 29/29/29
f 35/35/35 34/34/34 33/33/33
f 36/36/36 35/35/35 33/33/33
f 37/37/37 35/35/35 36/36/36
f 38/38/38 37/37/37 36/36/36
f 39/39/39 37/37/37 38/38/38
f 40/40/40 39/39/39 38/38/38
f 34/34/34 39/39/39 40/40/40
f 33/33/33 34/34/34 40/40/40
f 43/43/43 42/42/42 41/41/41
f 44/44/44 43/43/43 41/41/41
f 47/47/47 46/46/46 45/45/45
f 48/48/48 47/47/47 45/45/45
f 51/51/51 50/50/50 49/49/49
f 52/52/52 51/51/51 49/49/49
f 55/55/55 54/54/54 53/53/53
f 56/56/56 55/55/55 53/53/53
f 59/59/59 58/58/58 57/57/57
f 60/60/60 59/59/59 57/57/57
f 63/63/63 62/62/62 61/61/61
f 64/64/64 63/63/63 61/61/61
f 67/67/67 66/66/66 65/65/65
f 68/68/68 67/67/67 65/65/65
f 69/69/69 68/68/68 65/65/65
f 70/70/70 69/69/69 65/65/65
f 73/73/73 72/72/72 71/71/71
f 74/74/74 73/73/73 71/71/71
f 77/77/77 76/76/76 75/75/75
f 75/75/75 78/78/78 77/77/77
f 78/78/78 79/79/79 77/77/77
f 78/78/78 80/80/80 79/79/79
f 83/83/83 82/82/82 81/81/81
f 81/81/81 84/84/84 83/83/83
f 81/81/81 85/85/85 84/84/84
f 85/85/85 86/86/86 84/84/84
f 89/89/89 88/88/88 87/87/87
f 90/90/90 89/89/89 87/87/87
f 93/93/93 92/92/92 91/91/91
f 94/94/94 93/93/93 91/91/91
f 93/93/93 95/95/95 92/92/92
f 95/95/95 96/96/96 92/92/92
f 95/95/95 97/97/97 96/96/96
f 97/97/97 98/98/98 96/96/96
f 97/97/97 99/99/99 98/98/98
f 99/99/99 100/100/100 98/98/98
f 99/99/99 101/101/101 100/100/100
f 101/101/101 102/102/102 100/100/100
f 94/94/94 91/91/91 103/103/103
f 104/104/104 94/94/94 103/103/103
f 107/107/107 106/106/106 105/105/105
f 108/108/108 107/107/107 105/105/105
f 107/107/107 109/109/109 106/106/106
f 109/109/109 110/110/110 106/106/106
f 109/109/109 111/111/111 110/110/110
f 111/111/111 112/112/112 110/110/110
f 111/111/111 113/113/113 112/112/112
f 113/113/113 114/114/114 112/112/112
f 117/117/117 116/116/116 115/115/115
f 118/118/118 117/117/117 115/115/115
f 117/117/117 119/119/119 116/116/116
f 119/119/119 120/120/120 116/116/116
f 119/119/119 121/121/121 120/120/120
f 121/121/121 122/122/122 120/120/120
f 121/121/121 123/123/123 122/122/122
f 123/123/123 124/124/124 122/122/122
f 123/123/123 125/125/125 124/124/124
f 125/125/125 126/126/126 124/124/124
f 118/118/118 115/115/115 127/127/127
f 128/128/128 118/118/118 127/127/127
f 131/131/131 130/130/130 129/129/129
f 132/132/132 131/131/131 129/129/129
f 131/131/131 133/133/133 130/130/130
f 133/133/133 134/134/134 130/130/130
f 133/133/133 135/135/135 134/134/134
f 135/135/135 136/136/136 134/134/134
f 135/135/135 137/137/137 136/136/136
f 137/137/137 138/138/138 136/136/136
f 141/141/141 140/140/140 139/139/139
f 139/139/139 140/140/140 142/142/142
f 142/142/142 140/140/140 143/143/143
f 143/143/143 140/140/140 144/144/144
f 144/144/144 140/140/140 145/145/145
f 145/145/145 140/140/140 146/146/146
f 146/146/146 140/140/140 147/147/147
f 147/147/147 140/140/140 148/148/148
f 148/148/148 140/140/140 149/149/149
f 149/149/149 140/140/140 141/141/141
f 152/152/152 151/151/151 150/150/150
f 151/151/151 153/153/153 150/150/150
f 153/153/153 154/154/154 150/150/150
f 154/154/154 155/155/155 150/150/150
f 155/155/155 156/156/156 150/150/150
f 156/156/156 157/157/157 150/150/150
f 157/157/157 158/158/158 150/150/150
f 158/158/158 159/159/159 150/150/150
f 159/159/159 160/160/160 150/150/150
f 160/160/160 152/152/152 150/150/150
f 163/163/163 162/162/162 161/161/161
f 164/164/164 163/163/163 161/161/161
f 163/163/163 165/165/165 162/162/162
f 165/165/165 166/166/166 162/162/162
f 165/165/165 167/167/167 166/166/166
f 167/167/167 168/168/168 166/166/166
f 167/167/167 169/169/169 168/168/168
f 169/169/169 170/170/170 168/168/168
f 169/169/169 171/171/171 170/170/170
f 171/171/171 172/172/172 170/170/170
f 164/164/164 161/161/161 173/173/173
f 174/174/174 164/164/164 173/173/173
f 177/177/177 176/176/176 175/175/175
f 178/178/178 177/177/177 175/175/175
f 177/177/177 179/179/179 176/176/176
f 179/179/179 180/180/180 176/176/176
f 179/179/179 181/181/181 180/180/180
f 181/181/181 182/182/182 180/180/180
f 181/181/181 183/183/183 182/182/182
f 183/183/183 184/184/184 182/182/182
f 187/187/187 186/186/186 185/185/185
f 185/185/185 186/186/186 188/188/188
f 188/188/188 186/186/186 189/189/189
f 189/189/189 186/186/186 190/190/190
f 190/190/190 186/186/186 191/191/191
f 191/191/191 186/186/186 192/192/192
f 192/192/192 186/186/186 193/193/193
f 193/193/193 186/186/186 194/194/194
f 194/194/194 186/186/186 195/195/195
f 195/195/195 186/186/186 187/187/187
f 198/198/198 197/197/197 196/196/196
f 197/197/197 199/199/199 196/196/196
f 199/199/199 200/200/200 196/196/196
f 200/200/200 201/201/201 196/196/196
f 201/201/201 202/202/202 196/196/196
f 202/202/202 203/203/203 196/196/196
f 203/203/203 204/204/204 196/196/196
f 204/204/204 205/205/205 196/196/196
f 205/205/205 206/206/206 196/196/196
f 206/206/206 198/198/198 196/196/196
