g Kiwi_Half_Bottom
v 0.2289951 -0.2229245 -0.1322109
v 0.3118337 -0.1129217 -0.1800374
v 0.1800371 -0.1129219 -0.3118342
v 0.1322106 -0.2229244 -0.2289954
v 4.409651E-17 -0.1129217 -0.3600753
v 3.238225E-17 -0.2229244 -0.2644212
v -0.1800371 -0.1129219 -0.3118342
v -0.1322106 -0.2229244 -0.2289954
v -0.3118337 -0.1129217 -0.1800374
v -0.2289951 -0.2229245 -0.1322109
v -0.3600753 -0.1129221 -2.748935E-07
v -0.2644212 -0.2229244 -1.374468E-07
v -0.3118337 -0.1129219 0.1800371
v -0.2289951 -0.2229242 0.1322106
v -0.1800371 -0.1129221 0.3118337
v -0.1322106 -0.2229245 0.2289951
v -4.409644E-17 -0.1129221 0.3600748
v -3.238221E-17 -0.2229245 0.2644208
v 5.113658E-17 0.02568864 -0.4175619
v -0.2087811 0.02568837 -0.3616194
v -0.3616191 0.02568837 -0.2087813
v -0.4175616 0.02568837 -2.748935E-07
v -0.3616191 0.0256883 0.2087809
v -0.2087811 0.02568851 0.361619
v -5.113654E-17 0.02568851 0.4175616
v -0.2161851 0.1793404 -0.3744437
v 5.295007E-17 0.1793404 -0.4323701
v 0.2087811 0.02568837 -0.3616194
v 0.3616191 0.02568837 -0.2087813
v 0.3600753 -0.1129221 -2.748935E-07
v 0.2644212 -0.2229244 -1.374468E-07
v 0.2289951 -0.2229242 0.1322106
v 0.3118337 -0.1129219 0.1800371
v 0.1322106 -0.2229245 0.2289951
v 0.1800371 -0.1129221 0.3118337
v -3.238221E-17 -0.2229245 0.2644208
v -4.409644E-17 -0.1129221 0.3600748
v 0.2087811 0.02568851 0.361619
v -5.113654E-17 0.02568851 0.4175616
v 0.3616191 0.0256883 0.2087809
v 0.4175616 0.02568837 -2.748935E-07
v 0.2161851 0.1793404 0.3744433
v -5.295005E-17 0.1793404 0.43237
v 0.3744434 0.1793404 0.2161848
v 0.4323701 0.1793404 -2.748935E-07
v 0.3744434 0.1793404 -0.2161853
v 0.2161851 0.1793404 -0.3744437
v 0.1488086 -0.2773279 -0.08591522
v 0.08591522 -0.2773278 -0.1488098
v 0.06121164 -0.3105683 -0.03534086
v 0.03534031 -0.3105683 -0.06121219
v 1.683237E-23 -0.3178858 -1.374468E-07
v 0.08591522 -0.2773278 -0.1488098
v 2.104316E-17 -0.2773277 -0.1718304
v 0.03534031 -0.3105683 -0.06121219
v 8.656013E-18 -0.3105682 -0.07068172
v 1.683237E-23 -0.3178858 -1.374468E-07
v 2.104316E-17 -0.2773277 -0.1718304
v -0.08591522 -0.2773278 -0.1488098
v 8.656013E-18 -0.3105682 -0.07068172
v -0.03534031 -0.3105683 -0.06121219
v 1.683237E-23 -0.3178858 -1.374468E-07
v -0.08591522 -0.2773278 -0.1488098
v -0.1488086 -0.2773279 -0.08591522
v -0.03534031 -0.3105683 -0.06121219
v -0.06121164 -0.3105683 -0.03534072
v 1.683237E-23 -0.3178858 -1.374468E-07
v -0.1488086 -0.2773279 -0.08591522
v -0.1718299 -0.2773278 -1.374468E-07
v -0.06121164 -0.3105683 -0.03534072
v -0.07068117 -0.3105683 -1.374468E-07
v 1.683237E-23 -0.3178858 -1.374468E-07
v -0.1718299 -0.2773278 -1.374468E-07
v -0.1488086 -0.2773277 0.08591495
v -0.07068117 -0.3105683 -1.374468E-07
v -0.06121164 -0.3105683 0.03534045
v 1.683237E-23 -0.3178858 -1.374468E-07
v -0.1488086 -0.2773277 0.08591495
v -0.08591522 -0.2773279 0.1488091
v -0.06121164 -0.3105683 0.03534045
v -0.03534031 -0.3105682 0.06121164
v 1.683237E-23 -0.3178858 -1.374468E-07
v -0.08591522 -0.2773279 0.1488091
v -2.104313E-17 -0.2773279 0.1718302
v -0.03534031 -0.3105682 0.06121164
v -8.65598E-18 -0.3105683 0.07068145
v 1.683237E-23 -0.3178858 -1.374468E-07
v -0.3744434 0.1793404 -0.2161853
v -0.4323701 0.1793404 -2.748935E-07
v -0.3744434 0.1793404 0.2161848
v -0.2161851 0.1793404 0.3744433
v -5.295005E-17 0.1793404 0.43237
v 0.08591522 -0.2773279 0.1488091
v -2.104313E-17 -0.2773279 0.1718302
v -8.65598E-18 -0.3105683 0.07068145
v 0.03534031 -0.3105682 0.06121164
v 1.683237E-23 -0.3178858 -1.374468E-07
v 0.08591522 -0.2773279 0.1488091
v 0.1488086 -0.2773277 0.08591495
v 0.03534031 -0.3105682 0.06121164
v 0.06121164 -0.3105683 0.03534045
v 1.683237E-23 -0.3178858 -1.374468E-07
v 0.1488086 -0.2773277 0.08591495
v 0.1718299 -0.2773279 -1.374468E-07
v 0.06121164 -0.3105683 0.03534045
v 0.07068117 -0.3105683 -1.374468E-07
v 1.683237E-23 -0.3178858 -1.374468E-07
v 0.1488086 -0.2773279 -0.08591522
v 0.1718299 -0.2773279 -1.374468E-07
v 0.07068117 -0.3105683 -1.374468E-07
v 0.06121164 -0.3105683 -0.03534086
v 1.683237E-23 -0.3178858 -1.374468E-07
v -0.2161851 0.1793404 -0.3744437
v 2.665126E-23 0.1793404 -2.17624E-07
v -0.3744434 0.1793404 -0.2161853
v 5.295007E-17 0.1793404 -0.4323701
v 0.2161851 0.1793404 -0.3744437
v 0.3744434 0.1793404 -0.2161853
v 0.4323701 0.1793404 -2.748935E-07
v 0.3744434 0.1793404 0.2161848
v 0.2161851 0.1793404 0.3744433
v -5.295005E-17 0.1793404 0.43237
v -0.2161851 0.1793404 0.3744433
v -0.3744434 0.1793404 0.2161848
v -0.4323701 0.1793404 -2.748935E-07
vt 0.4651378 0.6563023
vt 0.4651378 0.6733215
vt 0.4814628 0.673322
vt 0.4814628 0.6563059
vt 0.4977877 0.6733201
vt 0.4977877 0.6563077
vt 0.5141125 0.6733224
vt 0.5141125 0.6563058
vt 0.5304375 0.6733209
vt 0.5304375 0.6563028
vt 0.5467622 0.6733195
vt 0.5467623 0.6562943
vt 0.5630871 0.6733183
vt 0.5630871 0.6562856
vt 0.579412 0.6733155
vt 0.579412 0.6562766
vt 0.5957369 0.6733182
vt 0.5957369 0.6562731
vt 0.4977877 0.687529
vt 0.5141125 0.6875276
vt 0.5304375 0.6875305
vt 0.5467622 0.6875302
vt 0.5630871 0.68753
vt 0.579412 0.6875311
vt 0.5957369 0.6875336
vt 0.5141125 0.7009672
vt 0.4977877 0.7009643
vt 0.4814628 0.6875281
vt 0.4651378 0.6875296
vt 0.448813 0.6733187
vt 0.4488129 0.6562946
vt 0.4324881 0.6562852
vt 0.4324881 0.6733189
vt 0.4161631 0.6562768
vt 0.4161631 0.6733151
vt 0.3998383 0.6562731
vt 0.3998383 0.6733183
vt 0.4161631 0.6875317
vt 0.3998383 0.6875334
vt 0.4324881 0.687529
vt 0.448813 0.6875312
vt 0.4161631 0.7009646
vt 0.3998383 0.700966
vt 0.4324881 0.7009674
vt 0.448813 0.7009646
vt 0.4651378 0.700966
vt 0.4814628 0.7009665
vt 0.4671785 0.6407771
vt 0.4794222 0.6407791
vt 0.4692191 0.6211168
vt 0.4773816 0.6211166
vt 0.4733003 0.6031583
vt 0.4835034 0.6407853
vt 0.495747 0.6407852
vt 0.485544 0.621129
vt 0.4937065 0.6211295
vt 0.4896252 0.6031752
vt 0.4998283 0.6407852
vt 0.5120719 0.6407854
vt 0.5018688 0.6211296
vt 0.5100313 0.621129
vt 0.5059501 0.6031753
vt 0.5161531 0.6407792
vt 0.5283967 0.6407772
vt 0.5181937 0.6211166
vt 0.5263561 0.6211169
vt 0.522275 0.6031584
vt 0.532478 0.6407664
vt 0.5447217 0.6407644
vt 0.5345186 0.6210923
vt 0.542681 0.6210921
vt 0.5385998 0.6031249
vt 0.5488029 0.6407483
vt 0.5610466 0.6407476
vt 0.5508435 0.6210577
vt 0.559006 0.6210573
vt 0.5549247 0.6030784
vt 0.5651277 0.6407281
vt 0.5773714 0.6407269
vt 0.5671684 0.6210217
vt 0.5753309 0.6210223
vt 0.5712495 0.6030315
vt 0.5814526 0.6407118
vt 0.5936962 0.640712
vt 0.5834932 0.621007
vt 0.5916557 0.6210068
vt 0.5875745 0.6030164
vt 0.5304375 0.700965
vt 0.5467622 0.7009658
vt 0.5630871 0.7009662
vt 0.579412 0.7009653
vt 0.5957369 0.7009659
vt 0.4141225 0.6407118
vt 0.4018789 0.6407121
vt 0.4039195 0.6210069
vt 0.4120819 0.6210071
vt 0.4080007 0.6030167
vt 0.4182037 0.6407267
vt 0.4304474 0.6407279
vt 0.4202443 0.6210221
vt 0.4284068 0.6210216
vt 0.4243255 0.6030311
vt 0.4345286 0.6407476
vt 0.4467723 0.6407481
vt 0.4365692 0.6210572
vt 0.4447316 0.6210577
vt 0.4406505 0.6030784
vt 0.4630972 0.6407664
vt 0.4508535 0.6407644
vt 0.4528942 0.621092
vt 0.4610565 0.6210923
vt 0.4569753 0.6031249
vt 0.349044 0.6149319
vt 0.3000694 0.6997585
vt 0.384896 0.6507839
vt 0.3000694 0.6018093
vt 0.2510947 0.6149319
vt 0.2152428 0.6507839
vt 0.2021201 0.6997585
vt 0.2152428 0.7487332
vt 0.2510947 0.7845851
vt 0.3000694 0.7977079
vt 0.349044 0.7845851
vt 0.384896 0.7487332
vt 0.3980187 0.6997585
vn 0.5987637 -0.7224784 -0.3456976
vn 0.751371 -0.4972477 -0.4338047
vn 0.433804 -0.497248 -0.7513711
vn 0.3456974 -0.7224783 -0.598764
vn 0 -0.4972472 -0.867609
vn 0 -0.7224789 -0.6913931
vn -0.4338041 -0.497248 -0.7513711
vn -0.3456974 -0.7224783 -0.5987641
vn -0.751371 -0.4972476 -0.4338047
vn -0.5987637 -0.7224784 -0.3456976
vn -0.8676088 -0.4972475 0
vn -0.6913919 -0.7224798 1.835446E-07
vn -0.751371 -0.4972476 0.4338047
vn -0.5987637 -0.7224787 0.3456972
vn -0.4338042 -0.4972477 0.7513711
vn -0.3456974 -0.7224787 0.5987636
vn 0 -0.4972472 0.867609
vn 0 -0.7224789 0.691393
vn 0 -0.2278157 -0.9737042
vn -0.4868521 -0.2278166 -0.8432525
vn -0.8432524 -0.2278167 -0.4868522
vn -0.9737041 -0.2278162 0
vn -0.8432524 -0.2278166 0.4868521
vn -0.4868523 -0.2278167 0.8432523
vn 0 -0.2278165 0.9737041
vn -0.4976935 -0.09593042 -0.8620317
vn 0 -0.09593072 -0.9953881
vn 0.4868521 -0.2278166 -0.8432524
vn 0.8432523 -0.2278167 -0.4868522
vn 0.8676088 -0.4972474 -1.011157E-07
vn 0.6913921 -0.7224798 2.075465E-07
vn 0.5987637 -0.7224787 0.3456972
vn 0.751371 -0.4972476 0.4338048
vn 0.3456974 -0.7224787 0.5987636
vn 0.4338042 -0.4972477 0.7513712
vn 0 -0.7224789 0.691393
vn 0 -0.4972472 0.867609
vn 0.4868522 -0.2278166 0.8432524
vn 0 -0.2278165 0.9737041
vn 0.8432524 -0.2278165 0.4868522
vn 0.9737042 -0.2278162 0
vn 0.4976939 -0.09593047 0.8620313
vn 0 -0.09593118 0.995388
vn 0.8620317 -0.09593054 0.4976932
vn 0.995388 -0.09593144 0
vn 0.8620315 -0.09593084 -0.4976936
vn 0.4976935 -0.09593048 -0.8620317
vn 0.3919595 -0.8917159 -0.2262975
vn 0.2262983 -0.8917155 -0.39196
vn 0.2487222 -0.9578708 -0.1435995
vn 0.1435994 -0.957871 -0.2487214
vn -1.437599E-07 -1 0
vn 0.2262983 -0.8917155 -0.39196
vn 0 -0.891715 -0.4525971
vn 0.1435994 -0.957871 -0.2487214
vn 0 -0.9578707 -0.2871998
vn -1.437599E-07 -1 0
vn 0 -0.891715 -0.4525971
vn -0.2262983 -0.8917155 -0.39196
vn 0 -0.9578707 -0.2871998
vn -0.1435994 -0.957871 -0.2487214
vn -1.437599E-07 -1 0
vn -0.2262983 -0.8917155 -0.39196
vn -0.3919594 -0.8917159 -0.2262973
vn -0.1435994 -0.957871 -0.2487214
vn -0.2487224 -0.9578709 -0.143599
vn -1.437599E-07 -1 0
vn -0.3919594 -0.8917159 -0.2262973
vn -0.4525955 -0.8917159 7.900708E-07
vn -0.2487224 -0.9578709 -0.143599
vn -0.2871999 -0.9578707 8.343116E-07
vn -1.437599E-07 -1 0
vn -0.4525955 -0.8917159 7.900708E-07
vn -0.3919599 -0.8917157 0.2262975
vn -0.2871999 -0.9578707 8.343116E-07
vn -0.2487226 -0.9578707 0.1435998
vn -1.437599E-07 -1 0
vn -0.3919599 -0.8917157 0.2262975
vn -0.2262993 -0.8917158 0.3919587
vn -0.2487226 -0.9578707 0.1435998
vn -0.1436007 -0.957871 0.2487207
vn -1.437599E-07 -1 0
vn -0.2262993 -0.8917158 0.3919587
vn 0 -0.8917155 0.4525962
vn -0.1436007 -0.957871 0.2487207
vn 0 -0.957871 0.2871989
vn -1.437599E-07 -1 0
vn -0.8620315 -0.09593079 -0.4976936
vn -0.995388 -0.09593149 0
vn -0.8620318 -0.09593065 0.4976932
vn -0.4976939 -0.09593052 0.8620313
vn 0 -0.09593118 0.995388
vn 0.2262992 -0.8917157 0.3919587
vn 0 -0.8917155 0.4525962
vn 0 -0.957871 0.2871989
vn 0.1436007 -0.957871 0.2487209
vn -1.437599E-07 -1 0
vn 0.2262992 -0.8917157 0.3919587
vn 0.3919599 -0.8917155 0.2262978
vn 0.1436007 -0.957871 0.2487209
vn 0.2487224 -0.9578705 0.1436004
vn -1.437599E-07 -1 0
vn 0.3919599 -0.8917155 0.2262978
vn 0.4525956 -0.8917159 7.348578E-07
vn 0.2487224 -0.9578705 0.1436004
vn 0.2871996 -0.9578708 6.894658E-07
vn -1.437599E-07 -1 0
vn 0.3919595 -0.8917159 -0.2262975
vn 0.4525956 -0.8917159 7.348578E-07
vn 0.2871996 -0.9578708 6.894658E-07
vn 0.2487222 -0.9578708 -0.1435995
vn -1.437599E-07 -1 0
vn 0 1 0
vn 0 1 0
vn 0 1 0
vn 0 1 0
vn 0 1 0
vn 0 1 0
vn 0 1 0
vn 0 1 0
vn 0 1 0
vn 0 1 0
vn 0 1 0
vn 0 1 0
vn 0 1 0
g Kiwi_Half_Bottom_0
f 3/3/3 2/2/2 1/1/1
f 4/4/4 3/3/3 1/1/1
f 5/5/5 3/3/3 4/4/4
f 6/6/6 5/5/5 4/4/4
f 7/7/7 5/5/5 6/6/6
f 8/8/8 7/7/7 6/6/6
f 9/9/9 7/7/7 8/8/8
f 10/10/10 9/9/9 8/8/8
f 11/11/11 9/9/9 10/10/10
f 12/12/12 11/11/11 10/10/10
f 13/13/13 11/11/11 12/12/12
f 14/14/14 13/13/13 12/12/12
f 15/15/15 13/13/13 14/14/14
f 16/16/16 15/15/15 14/14/14
f 17/17/17 15/15/15 16/16/16
f 18/18/18 17/17/17 16/16/16
f 5/5/5 19/19/19 3/3/3
f 20/20/20 19/19/19 5/5/5
f 7/7/7 20/20/20 5/5/5
f 21/21/21 20/20/20 7/7/7
f 9/9/9 21/21/21 7/7/7
f 22/22/22 21/21/21 9/9/9
f 11/11/11 22/22/22 9/9/9
f 23/23/23 22/22/22 11/11/11
f 13/13/13 23/23/23 11/11/11
f 24/24/24 23/23/23 13/13/13
f 15/15/15 24/24/24 13/13/13
f 25/25/25 24/24/24 15/15/15
f 17/17/17 25/25/25 15/15/15
f 20/20/20 26/26/26 19/19/19
f 26/26/26 27/27/27 19/19/19
f 19/19/19 27/27/27 28/28/28
f 19/19/19 28/28/28 3/3/3
f 3/3/3 28/28/28 2/2/2
f 28/28/28 29/29/29 2/2/2
f 2/2/2 29/29/29 30/30/30
f 2/2/2 30/30/30 31/31/31
f 31/31/31 30/30/30 32/32/32
f 30/30/30 33/33/33 32/32/32
f 32/32/32 33/33/33 34/34/34
f 33/33/33 35/35/35 34/34/34
f 34/34/34 35/35/35 36/36/36
f 35/35/35 37/37/37 36/36/36
f 1/1/1 2/2/2 31/31/31
f 35/35/35 38/38/38 37/37/37
f 38/38/38 39/39/39 37/37/37
f 40/40/40 38/38/38 35/35/35
f 33/33/33 40/40/40 35/35/35
f 41/41/41 40/40/40 33/33/33
f 30/30/30 41/41/41 33/33/33
f 29/29/29 41/41/41 30/30/30
f 38/38/38 42/42/42 39/39/39
f 42/42/42 43/43/43 39/39/39
f 44/44/44 42/42/42 38/38/38
f 40/40/40 44/44/44 38/38/38
f 45/45/45 44/44/44 40/40/40
f 41/41/41 45/45/45 40/40/40
f 46/46/46 45/45/45 41/41/41
f 29/29/29 46/46/46 41/41/41
f 47/47/47 46/46/46 29/29/29
f 28/28/28 47/47/47 29/29/29
f 27/27/27 47/47/47 28/28/28
f 1/1/1 48/48/48 4/4/4
f 48/48/48 49/49/49 4/4/4
f 48/48/48 50/50/50 49/49/49
f 50/50/50 51/51/51 49/49/49
f 50/50/50 52/52/52 51/51/51
f 4/4/4 53/53/53 6/6/6
f 53/53/53 54/54/54 6/6/6
f 53/53/53 55/55/55 54/54/54
f 55/55/55 56/56/56 54/54/54
f 55/55/55 57/57/57 56/56/56
f 6/6/6 58/58/58 8/8/8
f 58/58/58 59/59/59 8/8/8
f 58/58/58 60/60/60 59/59/59
f 60/60/60 61/61/61 59/59/59
f 60/60/60 62/62/62 61/61/61
f 8/8/8 63/63/63 10/10/10
f 63/63/63 64/64/64 10/10/10
f 63/63/63 65/65/65 64/64/64
f 65/65/65 66/66/66 64/64/64
f 65/65/65 67/67/67 66/66/66
f 10/10/10 68/68/68 12/12/12
f 68/68/68 69/69/69 12/12/12
f 68/68/68 70/70/70 69/69/69
f 70/70/70 71/71/71 69/69/69
f 70/70/70 72/72/72 71/71/71
f 12/12/12 73/73/73 14/14/14
f 73/73/73 74/74/74 14/14/14
f 73/73/73 75/75/75 74/74/74
f 75/75/75 76/76/76 74/74/74
f 75/75/75 77/77/77 76/76/76
f 14/14/14 78/78/78 16/16/16
f 78/78/78 79/79/79 16/16/16
f 78/78/78 80/80/80 79/79/79
f 80/80/80 81/81/81 79/79/79
f 80/80/80 82/82/82 81/81/81
f 16/16/16 83/83/83 18/18/18
f 83/83/83 84/84/84 18/18/18
f 83/83/83 85/85/85 84/84/84
f 85/85/85 86/86/86 84/84/84
f 85/85/85 87/87/87 86/86/86
f 88/88/88 26/26/26 20/20/20
f 21/21/21 88/88/88 20/20/20
f 89/89/89 88/88/88 21/21/21
f 22/22/22 89/89/89 21/21/21
f 90/90/90 89/89/89 22/22/22
f 23/23/23 90/90/90 22/22/22
f 91/91/91 90/90/90 23/23/23
f 24/24/24 91/91/91 23/23/23
f 92/92/92 91/91/91 24/24/24
f 25/25/25 92/92/92 24/24/24
f 94/94/94 93/93/93 34/34/34
f 36/36/36 94/94/94 34/34/34
f 94/94/94 95/95/95 93/93/93
f 95/95/95 96/96/96 93/93/93
f 95/95/95 97/97/97 96/96/96
f 34/34/34 98/98/98 32/32/32
f 98/98/98 99/99/99 32/32/32
f 98/98/98 100/100/100 99/99/99
f 100/100/100 101/101/101 99/99/99
f 100/100/100 102/102/102 101/101/101
f 32/32/32 103/103/103 31/31/31
f 103/103/103 104/104/104 31/31/31
f 103/103/103 105/105/105 104/104/104
f 105/105/105 106/106/106 104/104/104
f 105/105/105 107/107/107 106/106/106
f 108/108/108 1/1/1 31/31/31
f 109/109/109 108/108/108 31/31/31
f 109/109/109 110/110/110 108/108/108
f 110/110/110 111/111/111 108/108/108
f 110/110/110 112/112/112 111/111/111
f 115/115/115 114/114/114 113/113/113
f 113/113/113 114/114/114 116/116/116
f 116/116/116 114/114/114 117/117/117
f 117/117/117 114/114/114 118/118/118
f 118/118/118 114/114/114 119/119/119
f 119/119/119 114/114/114 120/120/120
f 120/120/120 114/114/114 121/121/121
f 121/121/121 114/114/114 122/122/122
f 122/122/122 114/114/114 123/123/123
f 123/123/123 114/114/114 124/124/124
f 124/124/124 114/114/114 125/125/125
f 125/125/125 114/114/114 115/115/115
