g meger3d_Char_sundries_C2_83
v 0 -0.2680795 -0.3224445
v 0 -0.460185 -0.2104607
v 0.1822655 -0.460185 -0.1052301
v 0.279246 -0.2680795 -0.1612221
v 0.1822655 -0.460185 -0.1052301
v 0.1822655 -0.460185 0.1052301
v 0.279246 -0.2680795 0.1612221
v 0.279246 -0.2680795 -0.1612221
v 0.1822655 -0.460185 0.1052301
v 0 -0.460185 0.2104607
v 0 -0.2680795 0.3224445
v 0.279246 -0.2680795 0.1612221
v 0 -0.04962621 -0.268357
v 0 -0.2680795 -0.3224445
v 0.279246 -0.2680795 -0.1612221
v 0.2324051 -0.04962621 -0.1341785
v 0.279246 -0.2680795 -0.1612221
v 0.279246 -0.2680795 0.1612221
v 0.2324051 -0.04962621 0.1341785
v 0.2324051 -0.04962621 -0.1341785
v 0.279246 -0.2680795 0.1612221
v 0 -0.2680795 0.3224445
v 0 -0.04962621 0.268357
v 0.2324051 -0.04962621 0.1341785
v 0.1822655 -0.460185 -0.1052301
v 0 -0.460185 -0.2104607
v 0 -0.5360527 0
v 0.1822655 -0.460185 0.1052301
v 0.1822655 -0.460185 -0.1052301
v 0 -0.5360527 0
v 0 -0.5360527 0
v 0 -0.460185 0.2104607
v 0.1822655 -0.460185 0.1052301
v 0 0.1310922 -0.1168225
v 0 -0.04962621 -0.268357
v 0.2324051 -0.04962621 -0.1341785
v 0.1011716 0.1310922 -0.05841123
v 0.2324051 -0.04962621 -0.1341785
v 0.2324051 -0.04962621 0.1341785
v 0.1011716 0.1310922 0.05841123
v 0.1011716 0.1310922 -0.05841123
v 0.2324051 -0.04962621 0.1341785
v 0 -0.04962621 0.268357
v 0 0.1310922 0.1168225
v 0.1011716 0.1310922 0.05841123
v 0.09370688 0.2413817 -0.05410154
v 0 0.2413817 -0.1082035
v 0 0.1310922 -0.1168225
v 0.1011716 0.1310922 -0.05841123
v 0.09370688 0.2413817 0.05410154
v 0.09370688 0.2413817 -0.05410154
v 0.1011716 0.1310922 -0.05841123
v 0.1011716 0.1310922 0.05841123
v 0 0.2413817 0.1082035
v 0.09370688 0.2413817 0.05410154
v 0.1011716 0.1310922 0.05841123
v 0 0.1310922 0.1168225
v 0.1578114 0.2413817 -0.09111194
v 0 0.2413817 -0.1822239
v 0 0.2413817 -0.1082035
v 0.09370688 0.2413817 -0.05410154
v 0.1578114 0.2413817 0.09111194
v 0.09370688 0.2413817 -0.05410154
v 0.09370688 0.2413817 0.05410154
v 0 0.2413817 0.1822239
v 0 0.2413817 0.1082035
v 0.1578114 0.3573862 -0.09111194
v 0 0.3573862 -0.1822239
v 0 0.2413817 -0.1822239
v 0.1578114 0.2413817 -0.09111194
v 0.1578114 0.3573862 0.09111194
v 0.1578114 0.3573862 -0.09111194
v 0.1578114 0.2413817 -0.09111194
v 0.1578114 0.2413817 0.09111194
v 0 0.3573862 0.1822239
v 0.1578114 0.3573862 0.09111194
v 0.1578114 0.2413817 0.09111194
v 0 0.2413817 0.1822239
v 0 0.3573862 0
v 0 0.3573862 -0.1822239
v 0.1578114 0.3573862 -0.09111194
v 0.1578114 0.3573862 0.09111194
v 0 0.3573862 0.1822239
v -0.1822655 -0.460185 -0.1052301
v 0 -0.5360527 0
v 0 -0.460185 -0.2104607
v -0.1822655 -0.460185 0.1052301
v 0 -0.5360527 0
v -0.1822655 -0.460185 -0.1052301
v 0 -0.5360527 0
v -0.1822655 -0.460185 0.1052301
v 0 -0.460185 0.2104607
v 0 -0.2680795 -0.3224445
v -0.279246 -0.2680795 -0.1612221
v -0.1822655 -0.460185 -0.1052301
v 0 -0.460185 -0.2104607
v -0.1822655 -0.460185 -0.1052301
v -0.279246 -0.2680795 -0.1612221
v -0.279246 -0.2680795 0.1612221
v -0.1822655 -0.460185 0.1052301
v -0.1822655 -0.460185 0.1052301
v -0.279246 -0.2680795 0.1612221
v 0 -0.2680795 0.3224445
v 0 -0.460185 0.2104607
v 0 -0.04962621 -0.268357
v -0.2324051 -0.04962621 -0.1341785
v -0.279246 -0.2680795 -0.1612221
v 0 -0.2680795 -0.3224445
v -0.279246 -0.2680795 -0.1612221
v -0.2324051 -0.04962621 -0.1341785
v -0.2324051 -0.04962621 0.1341785
v -0.279246 -0.2680795 0.1612221
v -0.279246 -0.2680795 0.1612221
v -0.2324051 -0.04962621 0.1341785
v 0 -0.04962621 0.268357
v 0 -0.2680795 0.3224445
v 0 0.1310922 -0.1168225
v -0.1011716 0.1310922 -0.05841123
v -0.2324051 -0.04962621 -0.1341785
v 0 -0.04962621 -0.268357
v -0.2324051 -0.04962621 -0.1341785
v -0.1011716 0.1310922 -0.05841123
v -0.1011716 0.1310922 0.05841123
v -0.2324051 -0.04962621 0.1341785
v -0.2324051 -0.04962621 0.1341785
v -0.1011716 0.1310922 0.05841123
v 0 0.1310922 0.1168225
v 0 -0.04962621 0.268357
v 0 0.2413817 -0.1082035
v -0.09370688 0.2413817 -0.05410154
v -0.1011716 0.1310922 -0.05841123
v 0 0.1310922 -0.1168225
v -0.09370688 0.2413817 -0.05410154
v -0.09370688 0.2413817 0.05410154
v -0.1011716 0.1310922 0.05841123
v -0.1011716 0.1310922 -0.05841123
v -0.09370688 0.2413817 0.05410154
v 0 0.2413817 0.1082035
v 0 0.1310922 0.1168225
v -0.1011716 0.1310922 0.05841123
v 0 0.2413817 -0.1822239
v -0.1578114 0.2413817 -0.09111194
v -0.09370688 0.2413817 -0.05410154
v 0 0.2413817 -0.1082035
v -0.1578114 0.2413817 0.09111194
v -0.09370688 0.2413817 0.05410154
v -0.09370688 0.2413817 -0.05410154
v 0 0.2413817 0.1082035
v 0 0.2413817 0.1822239
v 0 0.3573862 -0.1822239
v -0.1578114 0.3573862 -0.09111194
v -0.1578114 0.2413817 -0.09111194
v 0 0.2413817 -0.1822239
v -0.1578114 0.3573862 -0.09111194
v -0.1578114 0.3573862 0.09111194
v -0.1578114 0.2413817 0.09111194
v -0.1578114 0.2413817 -0.09111194
v -0.1578114 0.3573862 0.09111194
v 0 0.3573862 0.1822239
v 0 0.2413817 0.1822239
v -0.1578114 0.2413817 0.09111194
v 0 0.3573862 0
v -0.1578114 0.3573862 -0.09111194
v 0 0.3573862 -0.1822239
v -0.1578114 0.3573862 0.09111194
v 0 0.3573862 0.1822239
v 0.102671 0.3124496 0
v 0.1602615 0.5360531 0
v 0.04952453 0.5360531 -0.1524184
v 0.03172683 0.3124496 -0.09764642
v 0.04952453 0.5360531 -0.1524184
v -0.1296556 0.5360531 -0.09419964
v -0.08306327 0.3124496 -0.0603485
v 0.03172683 0.3124496 -0.09764642
v -0.1296556 0.5360531 -0.09419964
v -0.1296556 0.5360531 0.09419964
v -0.08306327 0.3124496 0.0603485
v -0.08306327 0.3124496 -0.0603485
v -0.1296556 0.5360531 0.09419964
v 0.04952453 0.5360531 0.152418
v 0.03172683 0.3124496 0.09764642
v -0.08306327 0.3124496 0.0603485
v 0.04952453 0.5360531 0.152418
v 0.1602615 0.5360531 0
v 0.102671 0.3124496 0
v 0.03172683 0.3124496 0.09764642
v 0.1602615 0.5360531 0
v 0 0.5360531 0
v 0.04952453 0.5360531 -0.1524184
v -0.1296556 0.5360531 -0.09419964
v 0.04952453 0.5360531 0.152418
v 0 0.5360531 0
v -0.1296556 0.5360531 0.09419964
vt 0.1476502 0.4900051
vt 0.1476502 0.4899979
vt 0.1476433 0.4899979
vt 0.1476397 0.4900051
vt 0.1476292 0.4900202
vt 0.1476372 0.4900202
vt 0.1476393 0.490013
vt 0.1476271 0.490013
vt 0.1476152 0.4899977
vt 0.1476221 0.4899977
vt 0.1476221 0.4899904
vt 0.1476115 0.4899904
vt 0.1476502 0.4900134
vt 0.1476502 0.4900051
vt 0.1476397 0.4900051
vt 0.1476415 0.4900134
vt 0.1476271 0.490013
vt 0.1476393 0.490013
vt 0.1476383 0.4900047
vt 0.1476281 0.4900047
vt 0.1476115 0.4899904
vt 0.1476221 0.4899904
vt 0.1476221 0.4899822
vt 0.1476133 0.4899822
vt 0.1476454 0.4899938
vt 0.1476523 0.4899977
vt 0.1476523 0.4899898
vt 0.1476454 0.4899858
vt 0.1476454 0.4899938
vt 0.1476523 0.4899898
vt 0.1476523 0.4899898
vt 0.1476523 0.4899818
vt 0.1476454 0.4899858
vt 0.1476502 0.4900202
vt 0.1476502 0.4900134
vt 0.1476415 0.4900134
vt 0.1476464 0.4900202
vt 0.1476281 0.4900047
vt 0.1476383 0.4900047
vt 0.1476354 0.4899979
vt 0.147631 0.4899979
vt 0.1476133 0.4899822
vt 0.1476221 0.4899822
vt 0.1476221 0.4899754
vt 0.1476183 0.4899754
vt 0.1275588 0.5190163
vt 0.1150602 0.5228133
vt 0.1100119 0.5109243
vt 0.1252783 0.506077
vt 0.1412084 0.5190766
vt 0.1275588 0.5190163
vt 0.1252783 0.506077
vt 0.1436052 0.5061572
vt 0.1536732 0.5229857
vt 0.1412084 0.5190766
vt 0.1436052 0.5061572
vt 0.158826 0.51114
vt 0.01769675 0.4769018
vt 0.01769747 0.4769014
vt 0.01769747 0.4769017
vt 0.01769704 0.476902
vt 0.01769675 0.4769027
vt 0.01769704 0.476902
vt 0.01769704 0.4769025
vt 0.01769747 0.4769031
vt 0.01769747 0.4769027
vt 0.01769733 0.4769035
vt 0.01769827 0.476903
vt 0.01769827 0.4769035
vt 0.01769777 0.4769038
vt 0.01769733 0.4769046
vt 0.01769733 0.4769035
vt 0.01769777 0.4769038
vt 0.01769777 0.4769044
vt 0.01769827 0.4769052
vt 0.01769733 0.4769046
vt 0.01769777 0.4769044
vt 0.01769827 0.4769047
vt 0.01769567 0.4769026
vt 0.01769567 0.4769017
vt 0.01769639 0.4769022
vt 0.01769639 0.476903
vt 0.01769567 0.4769034
vt 0.1476592 0.4899938
vt 0.1476523 0.4899898
vt 0.1476523 0.4899977
vt 0.1476592 0.4899858
vt 0.1476523 0.4899898
vt 0.1476592 0.4899938
vt 0.1476523 0.4899898
vt 0.1476592 0.4899858
vt 0.1476523 0.4899818
vt 0.1476502 0.4900051
vt 0.1476608 0.4900051
vt 0.1476571 0.4899979
vt 0.1476502 0.4899979
vt 0.147643 0.4899977
vt 0.1476451 0.4899904
vt 0.147633 0.4899904
vt 0.147635 0.4899977
vt 0.147629 0.4899977
vt 0.1476327 0.4899904
vt 0.1476221 0.4899904
vt 0.1476221 0.4899977
vt 0.1476502 0.4900134
vt 0.147659 0.4900134
vt 0.1476608 0.4900051
vt 0.1476502 0.4900051
vt 0.1476451 0.4899904
vt 0.1476441 0.4899822
vt 0.147634 0.4899822
vt 0.147633 0.4899904
vt 0.1476327 0.4899904
vt 0.1476309 0.4899822
vt 0.1476221 0.4899822
vt 0.1476221 0.4899904
vt 0.1476502 0.4900202
vt 0.1476541 0.4900202
vt 0.147659 0.4900134
vt 0.1476502 0.4900134
vt 0.1476441 0.4899822
vt 0.1476412 0.4899754
vt 0.1476368 0.4899754
vt 0.147634 0.4899822
vt 0.1476309 0.4899822
vt 0.1476259 0.4899754
vt 0.1476221 0.4899754
vt 0.1476221 0.4899822
vt 0.1150602 0.5228133
vt 0.1275588 0.5190163
vt 0.1252783 0.506077
vt 0.1100119 0.5109243
vt 0.1275588 0.5190163
vt 0.1412084 0.5190766
vt 0.1436052 0.5061572
vt 0.1252783 0.506077
vt 0.1412084 0.5190766
vt 0.1536732 0.5229857
vt 0.158826 0.51114
vt 0.1436052 0.5061572
vt 0.01769747 0.4769014
vt 0.01769675 0.4769018
vt 0.01769704 0.476902
vt 0.01769747 0.4769017
vt 0.01769675 0.4769027
vt 0.01769704 0.4769025
vt 0.01769704 0.476902
vt 0.01769747 0.4769027
vt 0.01769747 0.4769031
vt 0.01769827 0.476903
vt 0.01769733 0.4769035
vt 0.01769777 0.4769038
vt 0.01769827 0.4769035
vt 0.01769733 0.4769035
vt 0.01769733 0.4769046
vt 0.01769777 0.4769044
vt 0.01769777 0.4769038
vt 0.01769733 0.4769046
vt 0.01769827 0.4769052
vt 0.01769827 0.4769047
vt 0.01769777 0.4769044
vt 0.01769567 0.4769026
vt 0.01769639 0.4769022
vt 0.01769567 0.4769017
vt 0.01769639 0.476903
vt 0.01769567 0.4769034
vt 0.1246178 0.5660161
vt 0.1246175 0.5660172
vt 0.1246184 0.5660173
vt 0.1246184 0.5660162
vt 0.1246184 0.5660173
vt 0.1246193 0.5660172
vt 0.1246191 0.5660161
vt 0.1246184 0.5660162
vt 0.1246193 0.5660172
vt 0.1246202 0.5660169
vt 0.1246197 0.5660159
vt 0.1246191 0.5660161
vt 0.1246202 0.5660169
vt 0.1246166 0.5660169
vt 0.1246172 0.566016
vt 0.1246197 0.5660159
vt 0.1246166 0.5660169
vt 0.1246175 0.5660172
vt 0.1246178 0.5660161
vt 0.1246172 0.566016
vt 0.1246133 0.5660154
vt 0.1246141 0.5660154
vt 0.1246138 0.5660146
vt 0.1246147 0.5660149
vt 0.1246138 0.5660161
vt 0.1246141 0.5660154
vt 0.1246147 0.5660158
vn 0.4463468 -0.4506604 -0.7730975
vn 0.4463468 -0.4506603 -0.7730976
vn 0.4463468 -0.4506604 -0.7730976
vn 0.4463468 -0.4506604 -0.7730976
vn 0.892696 -0.4506593 0
vn 0.892696 -0.4506593 0
vn 0.8926961 -0.4506593 0
vn 0.8926961 -0.4506593 0
vn 0.4463468 -0.4506604 0.7730976
vn 0.4463468 -0.4506603 0.7730976
vn 0.4463468 -0.4506603 0.7730976
vn 0.4463468 -0.4506604 0.7730976
vn 0.4888864 0.2096558 -0.8467789
vn 0.4888864 0.2096558 -0.8467789
vn 0.4888864 0.2096558 -0.8467789
vn 0.4888864 0.2096558 -0.8467789
vn 0.9777754 0.2096552 0
vn 0.9777754 0.2096552 0
vn 0.9777754 0.2096552 0
vn 0.9777754 0.2096552 0
vn 0.4888864 0.2096558 0.8467789
vn 0.4888864 0.2096558 0.8467789
vn 0.4888864 0.2096558 0.8467789
vn 0.4888864 0.2096558 0.8467789
vn 0.1921435 -0.9232131 -0.3328037
vn 0.1921435 -0.9232131 -0.3328037
vn 0.1921435 -0.9232131 -0.3328037
vn 0.3842866 -0.9232138 0
vn 0.3842866 -0.9232138 0
vn 0.3842866 -0.9232138 0
vn 0.1921435 -0.9232131 0.3328037
vn 0.1921435 -0.9232131 0.3328037
vn 0.1921435 -0.9232131 0.3328037
vn 0.4045781 0.5875897 -0.7007531
vn 0.4045781 0.5875897 -0.7007531
vn 0.4045782 0.5875896 -0.7007532
vn 0.4045782 0.5875896 -0.7007532
vn 0.8091579 0.5875912 0
vn 0.8091579 0.5875912 0
vn 0.8091579 0.5875912 0
vn 0.8091579 0.5875912 0
vn 0.4045782 0.5875896 0.7007532
vn 0.4045781 0.5875897 0.7007532
vn 0.4045781 0.5875896 0.7007532
vn 0.4045782 0.5875896 0.7007532
vn 0.4988588 0.06752627 -0.8640487
vn 0.4988589 0.0675263 -0.8640487
vn 0.4988589 0.06752627 -0.8640487
vn 0.4988588 0.06752627 -0.8640487
vn 0.9977173 0.06752899 0
vn 0.9977173 0.06752899 0
vn 0.9977173 0.06752899 0
vn 0.9977173 0.06752899 0
vn 0.4988589 0.0675263 0.8640487
vn 0.4988588 0.06752627 0.8640487
vn 0.4988588 0.06752627 0.8640487
vn 0.4988589 0.06752627 0.8640487
vn 0 -1 4.455584E-07
vn 0 -1 4.455584E-07
vn 0 -1 4.455584E-07
vn 0 -1 4.455584E-07
vn 0 -1 0
vn 0 -1 0
vn 0 -1 0
vn 0 -1 -4.455584E-07
vn 0 -1 -4.455584E-07
vn 0.4999979 0 -0.8660266
vn 0.4999979 0 -0.8660266
vn 0.4999979 0 -0.8660266
vn 0.4999979 0 -0.8660266
vn 1 0 0
vn 1 0 0
vn 1 0 0
vn 1 0 0
vn 0.4999979 0 0.8660266
vn 0.4999979 0 0.8660266
vn 0.4999979 0 0.8660266
vn 0.4999979 0 0.8660266
vn 0 1 0
vn 0 1 0
vn 0 1 0
vn 0 1 0
vn 0 1 0
vn -0.1921435 -0.9232131 -0.3328037
vn -0.1921435 -0.9232131 -0.3328037
vn -0.1921435 -0.9232131 -0.3328037
vn -0.3842866 -0.9232138 0
vn -0.3842866 -0.9232138 0
vn -0.3842866 -0.9232138 0
vn -0.1921435 -0.9232131 0.3328037
vn -0.1921435 -0.9232131 0.3328037
vn -0.1921435 -0.9232131 0.3328037
vn -0.4463468 -0.4506603 -0.7730976
vn -0.4463468 -0.4506603 -0.7730976
vn -0.4463468 -0.4506603 -0.7730976
vn -0.4463468 -0.4506603 -0.7730976
vn -0.8926961 -0.4506593 0
vn -0.8926961 -0.4506592 0
vn -0.8926961 -0.4506592 0
vn -0.8926961 -0.4506593 0
vn -0.4463468 -0.4506603 0.7730976
vn -0.4463468 -0.4506604 0.7730976
vn -0.4463468 -0.4506603 0.7730976
vn -0.4463468 -0.4506603 0.7730976
vn -0.4888864 0.2096557 -0.8467789
vn -0.4888864 0.2096557 -0.8467789
vn -0.4888864 0.2096557 -0.8467789
vn -0.4888864 0.2096557 -0.8467789
vn -0.9777754 0.2096552 0
vn -0.9777754 0.2096552 0
vn -0.9777754 0.2096552 0
vn -0.9777754 0.2096552 0
vn -0.4888864 0.2096558 0.8467789
vn -0.4888864 0.2096558 0.8467789
vn -0.4888864 0.2096558 0.8467789
vn -0.4888864 0.2096558 0.8467789
vn -0.4045782 0.5875897 -0.7007531
vn -0.4045782 0.5875896 -0.7007532
vn -0.4045782 0.5875896 -0.7007532
vn -0.4045782 0.5875896 -0.7007532
vn -0.8091579 0.5875913 0
vn -0.8091579 0.5875913 0
vn -0.8091579 0.5875913 0
vn -0.8091579 0.5875913 0
vn -0.4045782 0.5875896 0.7007532
vn -0.4045782 0.5875896 0.7007532
vn -0.4045782 0.5875897 0.7007531
vn -0.4045782 0.5875896 0.7007532
vn -0.4988589 0.0675263 -0.8640487
vn -0.4988588 0.06752627 -0.8640487
vn -0.4988588 0.06752627 -0.8640487
vn -0.4988589 0.06752627 -0.8640487
vn -0.9977173 0.06752899 0
vn -0.9977173 0.06752899 0
vn -0.9977173 0.06752899 0
vn -0.9977173 0.06752899 0
vn -0.4988588 0.06752627 0.8640487
vn -0.4988589 0.0675263 0.8640487
vn -0.4988589 0.06752627 0.8640487
vn -0.4988588 0.06752627 0.8640487
vn 0 -1 4.455584E-07
vn 0 -1 4.455584E-07
vn 0 -1 4.455584E-07
vn 0 -1 4.455584E-07
vn 0 -1 0
vn 0 -1 0
vn 0 -1 0
vn 0 -1 -4.455584E-07
vn 0 -1 -4.455584E-07
vn -0.4999979 0 -0.8660266
vn -0.4999979 0 -0.8660266
vn -0.4999979 0 -0.8660266
vn -0.4999979 0 -0.8660266
vn -1 0 0
vn -1 0 0
vn -1 0 0
vn -1 0 0
vn -0.4999979 0 0.8660266
vn -0.4999979 0 0.8660266
vn -0.4999979 0 0.8660266
vn -0.4999979 0 0.8660266
vn 0 1 0
vn 0 1 0
vn 0 1 0
vn 0 1 0
vn 0 1 0
vn 0.7920083 -0.2039887 -0.5754228
vn 0.7920083 -0.2039887 -0.5754228
vn 0.7920083 -0.2039887 -0.5754228
vn 0.7920083 -0.2039887 -0.5754228
vn -0.3025192 -0.2039868 -0.9310593
vn -0.3025192 -0.2039868 -0.9310593
vn -0.3025192 -0.2039868 -0.9310593
vn -0.3025192 -0.2039868 -0.9310593
vn -0.9789732 -0.203989 0
vn -0.9789732 -0.203989 0
vn -0.9789732 -0.203989 0
vn -0.9789732 -0.203989 0
vn -0.3025181 -0.203986 0.9310598
vn -0.3025181 -0.203986 0.93106
vn -0.3025182 -0.203986 0.9310598
vn -0.3025182 -0.203986 0.9310598
vn 0.7920079 -0.2039882 0.5754235
vn 0.7920079 -0.2039882 0.5754235
vn 0.792008 -0.2039882 0.5754235
vn 0.792008 -0.2039882 0.5754235
vn 0 1 -6.791895E-07
vn 0 1 -6.791895E-07
vn 0 1 -6.791895E-07
vn 0 1 3.395907E-07
vn 0 1 -3.395915E-07
vn 0 1 0
vn 0 1 0
g meger3d_Char_sundries_C2_83_0
f 3/3/3 2/2/2 1/1/1
f 4/4/4 3/3/3 1/1/1
f 7/7/7 6/6/6 5/5/5
f 8/8/8 7/7/7 5/5/5
f 11/11/11 10/10/10 9/9/9
f 12/12/12 11/11/11 9/9/9
f 15/15/15 14/14/14 13/13/13
f 16/16/16 15/15/15 13/13/13
f 19/19/19 18/18/18 17/17/17
f 20/20/20 19/19/19 17/17/17
f 23/23/23 22/22/22 21/21/21
f 24/24/24 23/23/23 21/21/21
f 27/27/27 26/26/26 25/25/25
f 30/30/30 29/29/29 28/28/28
f 33/33/33 32/32/32 31/31/31
f 36/36/36 35/35/35 34/34/34
f 37/37/37 36/36/36 34/34/34
f 40/40/40 39/39/39 38/38/38
f 41/41/41 40/40/40 38/38/38
f 44/44/44 43/43/43 42/42/42
f 45/45/45 44/44/44 42/42/42
f 48/48/48 47/47/47 46/46/46
f 49/49/49 48/48/48 46/46/46
f 52/52/52 51/51/51 50/50/50
f 53/53/53 52/52/52 50/50/50
f 56/56/56 55/55/55 54/54/54
f 57/57/57 56/56/56 54/54/54
f 60/60/60 59/59/59 58/58/58
f 61/61/61 60/60/60 58/58/58
f 63/63/63 58/58/58 62/62/62
f 64/64/64 63/63/63 62/62/62
f 64/64/64 62/62/62 65/65/65
f 66/66/66 64/64/64 65/65/65
f 69/69/69 68/68/68 67/67/67
f 70/70/70 69/69/69 67/67/67
f 73/73/73 72/72/72 71/71/71
f 74/74/74 73/73/73 71/71/71
f 77/77/77 76/76/76 75/75/75
f 78/78/78 77/77/77 75/75/75
f 81/81/81 80/80/80 79/79/79
f 82/82/82 81/81/81 79/79/79
f 83/83/83 82/82/82 79/79/79
f 86/86/86 85/85/85 84/84/84
f 89/89/89 88/88/88 87/87/87
f 92/92/92 91/91/91 90/90/90
f 95/95/95 94/94/94 93/93/93
f 96/96/96 95/95/95 93/93/93
f 99/99/99 98/98/98 97/97/97
f 100/100/100 99/99/99 97/97/97
f 103/103/103 102/102/102 101/101/101
f 104/104/104 103/103/103 101/101/101
f 107/107/107 106/106/106 105/105/105
f 108/108/108 107/107/107 105/105/105
f 111/111/111 110/110/110 109/109/109
f 112/112/112 111/111/111 109/109/109
f 115/115/115 114/114/114 113/113/113
f 116/116/116 115/115/115 113/113/113
f 119/119/119 118/118/118 117/117/117
f 120/120/120 119/119/119 117/117/117
f 123/123/123 122/122/122 121/121/121
f 124/124/124 123/123/123 121/121/121
f 127/127/127 126/126/126 125/125/125
f 128/128/128 127/127/127 125/125/125
f 131/131/131 130/130/130 129/129/129
f 132/132/132 131/131/131 129/129/129
f 135/135/135 134/134/134 133/133/133
f 136/136/136 135/135/135 133/133/133
f 139/139/139 138/138/138 137/137/137
f 140/140/140 139/139/139 137/137/137
f 143/143/143 142/142/142 141/141/141
f 144/144/144 143/143/143 141/141/141
f 146/146/146 145/145/145 142/142/142
f 147/147/147 146/146/146 142/142/142
f 146/146/146 148/148/148 145/145/145
f 148/148/148 149/149/149 145/145/145
f 152/152/152 151/151/151 150/150/150
f 153/153/153 152/152/152 150/150/150
f 156/156/156 155/155/155 154/154/154
f 157/157/157 156/156/156 154/154/154
f 160/160/160 159/159/159 158/158/158
f 161/161/161 160/160/160 158/158/158
f 164/164/164 163/163/163 162/162/162
f 163/163/163 165/165/165 162/162/162
f 165/165/165 166/166/166 162/162/162
f 169/169/169 168/168/168 167/167/167
f 170/170/170 169/169/169 167/167/167
f 173/173/173 172/172/172 171/171/171
f 174/174/174 173/173/173 171/171/171
f 177/177/177 176/176/176 175/175/175
f 178/178/178 177/177/177 175/175/175
f 181/181/181 180/180/180 179/179/179
f 182/182/182 181/181/181 179/179/179
f 185/185/185 184/184/184 183/183/183
f 186/186/186 185/185/185 183/183/183
f 189/189/189 188/188/188 187/187/187
f 189/189/189 190/190/190 188/188/188
f 191/191/191 187/187/187 188/188/188
f 190/190/190 193/193/193 192/192/192
f 193/193/193 191/191/191 192/192/192
