g meger3d_Char_sundries_C2_8
v 0.04861168 0.3309222 -0.02013564
v 0 0.3459466 0
v 0.03720585 0.3309222 -0.03720579
v 0.02013554 0.3309222 -0.04861138
v 0 0.3309222 -0.05261713
v -0.02013617 0.3309222 -0.04861138
v -0.03720616 0.3309222 -0.03720579
v -0.04861262 0.3309222 -0.02013564
v -0.0526177 0.3309222 0
v -0.04861262 0.3309222 0.02013564
v -0.03720616 0.3309222 0.03720579
v -0.02013617 0.3309222 0.04861138
v 0 0.3309222 0.05261713
v 0.02013554 0.3309222 0.04861138
v 0.03720585 0.3309222 0.03720579
v 0.04861168 0.3309222 0.02013564
v 0.05261707 0.3309222 0
v 0.1812939 0.170055 -0.07509434
v 0.1387563 0.170055 -0.1387563
v 0.07509422 0.170055 -0.1812939
v 0 0.170055 -0.1962314
v -0.07509485 0.170055 -0.1812939
v -0.1387569 0.170055 -0.1387563
v -0.1812942 0.170055 -0.07509434
v -0.1962319 0.170055 0
v -0.1812942 0.170055 0.07509434
v -0.1387572 0.170055 0.1387563
v -0.07509485 0.170055 0.1812939
v 0 0.170055 0.1962314
v 0.07509391 0.170055 0.1812939
v 0.1387563 0.170055 0.1387563
v 0.1812939 0.170055 0.07509434
v 0.1962313 0.170055 0
v 0.27269 -0.02231146 -0.1129516
v 0.1812939 0.170055 -0.07509434
v 0.1387563 0.170055 -0.1387563
v 0.2087082 -0.02231146 -0.2087077
v 0.07509422 0.170055 -0.1812939
v 0.1129522 -0.02231146 -0.2726897
v 0 0.170055 -0.1962314
v 0 -0.02231146 -0.2951575
v -0.07509485 0.170055 -0.1812939
v -0.1129525 -0.02231146 -0.2726897
v -0.1387569 0.170055 -0.1387563
v -0.2087085 -0.02231146 -0.2087077
v -0.1812942 0.170055 -0.07509434
v -0.2726909 -0.02231146 -0.1129521
v -0.1962319 0.170055 0
v -0.2951583 -0.02231146 0
v -0.1812942 0.170055 0.07509434
v -0.2726909 -0.02231146 0.1129516
v -0.1387572 0.170055 0.1387563
v -0.2087088 -0.02231146 0.2087077
v -0.07509485 0.170055 0.1812939
v -0.1129525 -0.02231146 0.2726897
v 0 0.170055 0.1962314
v 0 -0.02231146 0.2951575
v 0.07509391 0.170055 0.1812939
v 0.1129515 -0.02231146 0.2726897
v 0.1387563 0.170055 0.1387563
v 0.2087082 -0.02231146 0.2087077
v 0.1812939 0.170055 0.07509434
v 0.27269 -0.02231146 0.1129521
v 0.1962313 0.170055 0
v 0.2951577 -0.02231146 0
v 0.3262281 -0.2231306 -0.1351282
v 0.27269 -0.02231146 -0.1129516
v 0.2087082 -0.02231146 -0.2087077
v 0.2496847 -0.2231306 -0.2496844
v 0.1129522 -0.02231146 -0.2726897
v 0.135128 -0.2231306 -0.3262286
v 0 -0.02231146 -0.2951575
v 0 -0.2231306 -0.3531072
v -0.1129525 -0.02231146 -0.2726897
v -0.1351287 -0.2231306 -0.3262286
v -0.2087085 -0.02231146 -0.2087077
v -0.2496853 -0.2231306 -0.2496844
v -0.2726909 -0.02231146 -0.1129521
v -0.326229 -0.2231306 -0.1351282
v -0.2951583 -0.02231146 0
v -0.3531076 -0.2231306 0
v -0.2726909 -0.02231146 0.1129516
v -0.3262293 -0.2231306 0.1351282
v -0.2087088 -0.02231146 0.2087077
v -0.2496853 -0.2231306 0.2496844
v -0.1129525 -0.02231146 0.2726897
v -0.1351287 -0.2231306 0.3262286
v 0 -0.02231146 0.2951575
v 0 -0.2231306 0.3531072
v 0.1129515 -0.02231146 0.2726897
v 0.135128 -0.2231306 0.3262286
v 0.2087082 -0.02231146 0.2087077
v 0.2496847 -0.2231306 0.2496844
v 0.27269 -0.02231146 0.1129521
v 0.3262281 -0.2231306 0.1351282
v 0.2951577 -0.02231146 0
v 0.3531072 -0.2231306 0
v 0.3102058 -0.2567597 -0.1284913
v 0.2374215 -0.2567597 -0.2374212
v 0.3357648 -0.2567597 0
v 0.1284917 -0.2567597 -0.310206
v 0 -0.2567597 -0.3357648
v -0.128492 -0.2567597 -0.3102064
v -0.2374219 -0.2567597 -0.2374216
v -0.3102065 -0.2567597 -0.1284917
v -0.3357655 -0.2567597 0
v -0.3102065 -0.2567597 0.1284913
v -0.2374219 -0.2567597 0.2374212
v -0.128492 -0.2567597 0.310206
v 0 -0.2567597 0.3357648
v 0.1284914 -0.2567597 0.310206
v 0.2374215 -0.2567597 0.2374216
v 0.3102058 -0.2567597 0.1284917
v 0.3102058 -0.2567597 -0.1284913
v 0.2374215 -0.2567597 -0.2374212
v 0.2058042 -0.2765061 -0.2058042
v 0.2688967 -0.2765061 -0.1113805
v 0.3357648 -0.2567597 0
v 0.2910513 -0.2765061 0
v 0.1113797 -0.2765061 -0.2688962
v 0.1284917 -0.2567597 -0.310206
v 0.3102058 -0.2567597 0.1284917
v 0.2688967 -0.2765061 0.1113805
v 0 -0.2765061 -0.2910514
v 0 -0.2567597 -0.3357648
v -0.1113813 -0.2765061 -0.2688966
v -0.128492 -0.2567597 -0.3102064
v -0.2058046 -0.2765061 -0.2058047
v -0.2374219 -0.2567597 -0.2374216
v -0.268897 -0.2765061 -0.1113805
v -0.3102065 -0.2567597 -0.1284917
v -0.2910519 -0.2765061 0
v -0.3357655 -0.2567597 0
v -0.268897 -0.2765061 0.1113805
v -0.3102065 -0.2567597 0.1284913
v -0.2058052 -0.2765061 0.2058042
v -0.2374219 -0.2567597 0.2374212
v -0.1113813 -0.2765061 0.2688966
v -0.128492 -0.2567597 0.310206
v 0 -0.2765061 0.2910514
v 0 -0.2567597 0.3357648
v 0.1113797 -0.2765061 0.2688966
v 0.1284914 -0.2567597 0.310206
v 0.2058042 -0.2765061 0.2058042
v 0.2374215 -0.2567597 0.2374216
v 0 -0.2765061 0
vt 0.2151698 0.3250373
vt 0.2184231 0.3263858
vt 0.2159329 0.323895
vt 0.2170752 0.3231322
vt 0.2184231 0.3228636
vt 0.2197707 0.3231322
vt 0.220913 0.323895
vt 0.2216762 0.3250373
vt 0.2219445 0.3263865
vt 0.2216767 0.3277341
vt 0.220913 0.3288759
vt 0.2197707 0.3296388
vt 0.2184231 0.3299066
vt 0.2170752 0.3296388
vt 0.2159321 0.3288759
vt 0.2151693 0.3277336
vt 0.2149014 0.3263858
vt 0.2007352 0.3190583
vt 0.2048861 0.3128469
vt 0.2110967 0.3086973
vt 0.2184231 0.3072399
vt 0.2257492 0.3086973
vt 0.2319598 0.3128475
vt 0.236111 0.3190592
vt 0.2375681 0.3263858
vt 0.236111 0.3337126
vt 0.2319605 0.3399234
vt 0.2257497 0.3440737
vt 0.2184231 0.3455311
vt 0.2110962 0.3440737
vt 0.2048854 0.3399234
vt 0.2007357 0.3337126
vt 0.1992778 0.3263858
vt 0.3039776 0.3420882
vt 0.3183123 0.3480245
vt 0.3213166 0.3435277
vt 0.3103451 0.3325567
vt 0.3258129 0.3405234
vt 0.3198744 0.3261887
vt 0.3311164 0.3394684
vt 0.3311159 0.3239526
vt 0.3364201 0.3405234
vt 0.3423577 0.3261887
vt 0.3409163 0.3435277
vt 0.3518878 0.3325567
vt 0.3439204 0.3480245
vt 0.3582553 0.3420873
vt 0.3449756 0.3533276
vt 0.360491 0.3533288
vt 0.3439204 0.3586324
vt 0.3582553 0.3645701
vt 0.3409163 0.3631287
vt 0.3518878 0.3741003
vt 0.3364201 0.3661329
vt 0.3423577 0.3804674
vt 0.3311164 0.367188
vt 0.3311164 0.3827035
vt 0.3258129 0.3661329
vt 0.3198751 0.3804674
vt 0.3213166 0.3631287
vt 0.3103451 0.3741003
vt 0.3183123 0.3586324
vt 0.3039776 0.3645701
vt 0.3172565 0.3533281
vt 0.3017418 0.3533288
vt 0.2468772 0.2846816
vt 0.2602543 0.2902223
vt 0.2648017 0.2834164
vt 0.254563 0.2731783
vt 0.2716071 0.278869
vt 0.2660661 0.2654926
vt 0.2796359 0.2772718
vt 0.2796351 0.2627928
vt 0.2876636 0.278869
vt 0.293205 0.2654926
vt 0.2944697 0.2834164
vt 0.3047077 0.2731783
vt 0.2990162 0.2902223
vt 0.3123934 0.2846816
vt 0.3006137 0.2982506
vt 0.3150924 0.2982514
vt 0.2990162 0.3062789
vt 0.3123934 0.3118196
vt 0.2944691 0.3130843
vt 0.3047069 0.3233229
vt 0.2876628 0.3176322
vt 0.2932036 0.3310089
vt 0.2796351 0.3192289
vt 0.2796351 0.3337085
vt 0.2716076 0.3176322
vt 0.2660669 0.3310089
vt 0.2648017 0.3130843
vt 0.2545636 0.3233229
vt 0.2602543 0.3062789
vt 0.2468772 0.3118196
vt 0.2586568 0.2982506
vt 0.2441781 0.2982514
vt 0.2447526 0.2838021
vt 0.2529372 0.2715527
vt 0.2418793 0.2982514
vt 0.2651862 0.2633681
vt 0.2796351 0.2604934
vt 0.2940846 0.2633681
vt 0.3063332 0.2715527
vt 0.3145179 0.2838021
vt 0.3173918 0.2982514
vt 0.3145179 0.3126999
vt 0.3063332 0.3249485
vt 0.2940838 0.3331335
vt 0.2796351 0.3360072
vt 0.2651867 0.3331335
vt 0.2529372 0.3249485
vt 0.2447526 0.3126999
vt 0.2371521 0.266483
vt 0.2317503 0.2583991
vt 0.2292195 0.260929
vt 0.2338462 0.2678523
vt 0.2390492 0.2760189
vt 0.2354704 0.2760189
vt 0.2222963 0.2563026
vt 0.2236659 0.2529964
vt 0.2371521 0.2855548
vt 0.2338462 0.2841852
vt 0.2141298 0.2546784
vt 0.2141298 0.2510997
vt 0.2059637 0.2563031
vt 0.204594 0.2529964
vt 0.19904 0.260929
vt 0.1965101 0.2583991
vt 0.1944136 0.2678523
vt 0.1911075 0.266483
vt 0.1927894 0.2760189
vt 0.1892108 0.2760189
vt 0.1944136 0.2841852
vt 0.1911075 0.2855548
vt 0.19904 0.2911085
vt 0.1965101 0.2936388
vt 0.2059637 0.2957357
vt 0.204594 0.2990411
vt 0.2141291 0.2973594
vt 0.2141298 0.3009381
vt 0.2222963 0.2957351
vt 0.2236659 0.299042
vt 0.2292195 0.2911085
vt 0.2317497 0.2936388
vt 0.2141298 0.2760189
vn 0.6751971 0.682561 -0.2796775
vn 5.55843E-07 1 1.262992E-07
vn 0.5167726 0.6825609 -0.5167753
vn 0.279678 0.6825613 -0.6751965
vn 1.574088E-07 0.6825619 -0.7308278
vn -0.2796766 0.6825616 -0.6751968
vn -0.516772 0.6825612 -0.5167754
vn -0.6751968 0.6825606 -0.2796788
vn -0.7308286 0.6825612 0
vn -0.6751972 0.6825606 0.2796777
vn -0.5167717 0.6825617 0.5167752
vn -0.2796763 0.6825616 0.6751969
vn 1.502541E-07 0.6825619 0.7308278
vn 0.2796781 0.6825611 0.6751966
vn 0.5167722 0.6825609 0.5167758
vn 0.6751971 0.682561 0.2796774
vn 0.7308283 0.6825613 0
vn 0.7866244 0.5244577 -0.3258316
vn 0.602056 0.5244579 -0.6020567
vn 0.3258317 0.5244573 -0.7866246
vn 0 0.5244575 -0.8514367
vn -0.3258308 0.5244573 -0.786625
vn -0.6020557 0.5244578 -0.6020574
vn -0.7866237 0.5244583 -0.3258321
vn -0.8514363 0.5244581 0
vn -0.7866243 0.5244582 0.3258311
vn -0.602056 0.5244578 0.602057
vn -0.3258304 0.5244573 0.7866251
vn 0 0.5244575 0.8514367
vn 0.3258318 0.524457 0.7866247
vn 0.6020548 0.5244579 0.6020582
vn 0.7866243 0.5244579 0.3258313
vn 0.8514363 0.5244579 0
vn 0.8640676 0.3539611 -0.3579085
vn 0.7866244 0.5244577 -0.3258316
vn 0.602056 0.5244579 -0.6020567
vn 0.6613291 0.3539616 -0.6613282
vn 0.3258317 0.5244573 -0.7866246
vn 0.3579092 0.3539616 -0.8640673
vn 0 0.5244575 -0.8514367
vn 0 0.3539616 -0.9352599
vn -0.3258308 0.5244573 -0.786625
vn -0.3579083 0.3539617 -0.8640676
vn -0.6020557 0.5244578 -0.6020574
vn -0.6613279 0.3539618 -0.6613293
vn -0.7866237 0.5244583 -0.3258321
vn -0.8640674 0.3539615 -0.357909
vn -0.8514363 0.5244581 0
vn -0.93526 0.3539614 -3.676064E-07
vn -0.7866243 0.5244582 0.3258311
vn -0.8640676 0.3539617 0.357908
vn -0.602056 0.5244578 0.602057
vn -0.6613282 0.3539619 0.661329
vn -0.3258304 0.5244573 0.7866251
vn -0.357908 0.3539616 0.8640677
vn 0 0.5244575 0.8514367
vn 0 0.3539616 0.9352599
vn 0.3258318 0.524457 0.7866247
vn 0.3579089 0.3539617 0.8640673
vn 0.6020548 0.5244579 0.6020582
vn 0.6613278 0.3539618 0.6613294
vn 0.7866243 0.5244579 0.3258313
vn 0.8640676 0.3539611 0.3579088
vn 0.8514363 0.5244579 0
vn 0.9352601 0.3539611 0
vn 0.9108894 0.1671018 -0.3773029
vn 0.8640676 0.3539611 -0.3579085
vn 0.6613291 0.3539616 -0.6613282
vn 0.6971651 0.1671023 -0.697164
vn 0.3579092 0.3539616 -0.8640673
vn 0.3773024 0.167103 -0.9108894
vn 0 0.3539616 -0.9352599
vn 0 0.1671039 -0.9859393
vn -0.3579083 0.3539617 -0.8640676
vn -0.377302 0.1671042 -0.9108894
vn -0.6613279 0.3539618 -0.6613293
vn -0.6971641 0.1671029 -0.6971648
vn -0.8640674 0.3539615 -0.357909
vn -0.9108896 0.1671017 -0.3773025
vn -0.93526 0.3539614 -3.676064E-07
vn -0.9859397 0.1671016 -5.691309E-07
vn -0.8640676 0.3539617 0.357908
vn -0.9108897 0.1671014 0.3773024
vn -0.6613282 0.3539619 0.661329
vn -0.6971642 0.1671016 0.6971652
vn -0.357908 0.3539616 0.8640677
vn -0.3773019 0.1671029 0.9108897
vn 0 0.3539616 0.9352599
vn 0 0.1671035 0.9859394
vn 0.3579089 0.3539617 0.8640673
vn 0.3773027 0.1671036 0.9108892
vn 0.6613278 0.3539618 0.6613294
vn 0.6971641 0.1671031 0.6971648
vn 0.8640676 0.3539611 0.3579088
vn 0.9108894 0.167102 0.3773026
vn 0.9352601 0.3539611 0
vn 0.9859396 0.1671022 0
vn 0.6350925 -0.726261 -0.2630639
vn 0.4860778 -0.7262626 -0.486077
vn 0.6874202 -0.7262599 0
vn 0.2630645 -0.7262633 -0.6350895
vn 7.233288E-07 -0.726262 -0.687418
vn -0.2630632 -0.7262609 -0.6350928
vn -0.486078 -0.7262618 -0.4860781
vn -0.635091 -0.7262621 -0.2630643
vn -0.6874189 -0.7262611 -2.466853E-07
vn -0.6350908 -0.7262625 0.2630634
vn -0.4860777 -0.7262623 0.4860778
vn -0.2630638 -0.7262616 0.6350918
vn 0 -0.7262614 0.6874186
vn 0.2630639 -0.7262625 0.6350908
vn 0.4860776 -0.726262 0.4860784
vn 0.6350924 -0.7262608 0.2630646
vn 0.6350925 -0.726261 -0.2630639
vn 0.4860778 -0.7262626 -0.486077
vn 0.09178226 -0.9915401 -0.0917827
vn 0.1199201 -0.9915401 -0.04967267
vn 0.6874202 -0.7262599 0
vn 0.1298 -0.9915401 0
vn 0.04967211 -0.9915403 -0.1199194
vn 0.2630645 -0.7262633 -0.6350895
vn 0.6350924 -0.7262608 0.2630646
vn 0.1199201 -0.9915401 0.04967248
vn 2.841122E-07 -0.9915401 -0.1298002
vn 7.233288E-07 -0.726262 -0.687418
vn -0.04967239 -0.9915401 -0.1199198
vn -0.2630632 -0.7262609 -0.6350928
vn -0.09178241 -0.9915403 -0.0917823
vn -0.486078 -0.7262618 -0.4860781
vn -0.1199195 -0.9915401 -0.04967245
vn -0.635091 -0.7262621 -0.2630643
vn -0.1297999 -0.9915403 0
vn -0.6874189 -0.7262611 -2.466853E-07
vn -0.1199197 -0.9915401 0.04967239
vn -0.6350908 -0.7262625 0.2630634
vn -0.09178278 -0.9915401 0.09178237
vn -0.4860777 -0.7262623 0.4860778
vn -0.04967251 -0.9915401 0.1199199
vn -0.2630638 -0.7262616 0.6350918
vn 0 -0.9915401 0.1298001
vn 0 -0.7262614 0.6874186
vn 0.04967217 -0.9915401 0.1199198
vn 0.2630639 -0.7262625 0.6350908
vn 0.09178212 -0.9915403 0.09178255
vn 0.4860776 -0.726262 0.4860784
vn 0 -1 0
g meger3d_Char_sundries_C2_8_0
f 3/3/3 2/2/2 1/1/1
f 4/4/4 2/2/2 3/3/3
f 5/5/5 2/2/2 4/4/4
f 6/6/6 2/2/2 5/5/5
f 7/7/7 2/2/2 6/6/6
f 8/8/8 2/2/2 7/7/7
f 9/9/9 2/2/2 8/8/8
f 10/10/10 2/2/2 9/9/9
f 11/11/11 2/2/2 10/10/10
f 12/12/12 2/2/2 11/11/11
f 13/13/13 2/2/2 12/12/12
f 14/14/14 2/2/2 13/13/13
f 15/15/15 2/2/2 14/14/14
f 16/16/16 2/2/2 15/15/15
f 17/17/17 2/2/2 16/16/16
f 1/1/1 2/2/2 17/17/17
f 3/3/3 1/1/1 18/18/18
f 19/19/19 3/3/3 18/18/18
f 4/4/4 3/3/3 19/19/19
f 20/20/20 4/4/4 19/19/19
f 5/5/5 4/4/4 20/20/20
f 21/21/21 5/5/5 20/20/20
f 6/6/6 5/5/5 21/21/21
f 22/22/22 6/6/6 21/21/21
f 7/7/7 6/6/6 22/22/22
f 23/23/23 7/7/7 22/22/22
f 8/8/8 7/7/7 23/23/23
f 24/24/24 8/8/8 23/23/23
f 9/9/9 8/8/8 24/24/24
f 25/25/25 9/9/9 24/24/24
f 10/10/10 9/9/9 25/25/25
f 26/26/26 10/10/10 25/25/25
f 11/11/11 10/10/10 26/26/26
f 27/27/27 11/11/11 26/26/26
f 12/12/12 11/11/11 27/27/27
f 28/28/28 12/12/12 27/27/27
f 13/13/13 12/12/12 28/28/28
f 29/29/29 13/13/13 28/28/28
f 14/14/14 13/13/13 29/29/29
f 30/30/30 14/14/14 29/29/29
f 15/15/15 14/14/14 30/30/30
f 31/31/31 15/15/15 30/30/30
f 16/16/16 15/15/15 31/31/31
f 32/32/32 16/16/16 31/31/31
f 17/17/17 16/16/16 32/32/32
f 33/33/33 17/17/17 32/32/32
f 1/1/1 17/17/17 33/33/33
f 18/18/18 1/1/1 33/33/33
f 36/36/36 35/35/35 34/34/34
f 37/37/37 36/36/36 34/34/34
f 38/38/38 36/36/36 37/37/37
f 39/39/39 38/38/38 37/37/37
f 40/40/40 38/38/38 39/39/39
f 41/41/41 40/40/40 39/39/39
f 42/42/42 40/40/40 41/41/41
f 43/43/43 42/42/42 41/41/41
f 44/44/44 42/42/42 43/43/43
f 45/45/45 44/44/44 43/43/43
f 46/46/46 44/44/44 45/45/45
f 47/47/47 46/46/46 45/45/45
f 48/48/48 46/46/46 47/47/47
f 49/49/49 48/48/48 47/47/47
f 50/50/50 48/48/48 49/49/49
f 51/51/51 50/50/50 49/49/49
f 52/52/52 50/50/50 51/51/51
f 53/53/53 52/52/52 51/51/51
f 54/54/54 52/52/52 53/53/53
f 55/55/55 54/54/54 53/53/53
f 56/56/56 54/54/54 55/55/55
f 57/57/57 56/56/56 55/55/55
f 58/58/58 56/56/56 57/57/57
f 59/59/59 58/58/58 57/57/57
f 60/60/60 58/58/58 59/59/59
f 61/61/61 60/60/60 59/59/59
f 62/62/62 60/60/60 61/61/61
f 63/63/63 62/62/62 61/61/61
f 64/64/64 62/62/62 63/63/63
f 65/65/65 64/64/64 63/63/63
f 35/35/35 64/64/64 65/65/65
f 34/34/34 35/35/35 65/65/65
f 68/68/68 67/67/67 66/66/66
f 69/69/69 68/68/68 66/66/66
f 70/70/70 68/68/68 69/69/69
f 71/71/71 70/70/70 69/69/69
f 72/72/72 70/70/70 71/71/71
f 73/73/73 72/72/72 71/71/71
f 74/74/74 72/72/72 73/73/73
f 75/75/75 74/74/74 73/73/73
f 76/76/76 74/74/74 75/75/75
f 77/77/77 76/76/76 75/75/75
f 78/78/78 76/76/76 77/77/77
f 79/79/79 78/78/78 77/77/77
f 80/80/80 78/78/78 79/79/79
f 81/81/81 80/80/80 79/79/79
f 82/82/82 80/80/80 81/81/81
f 83/83/83 82/82/82 81/81/81
f 84/84/84 82/82/82 83/83/83
f 85/85/85 84/84/84 83/83/83
f 86/86/86 84/84/84 85/85/85
f 87/87/87 86/86/86 85/85/85
f 88/88/88 86/86/86 87/87/87
f 89/89/89 88/88/88 87/87/87
f 90/90/90 88/88/88 89/89/89
f 91/91/91 90/90/90 89/89/89
f 92/92/92 90/90/90 91/91/91
f 93/93/93 92/92/92 91/91/91
f 94/94/94 92/92/92 93/93/93
f 95/95/95 94/94/94 93/93/93
f 96/96/96 94/94/94 95/95/95
f 97/97/97 96/96/96 95/95/95
f 67/67/67 96/96/96 97/97/97
f 66/66/66 67/67/67 97/97/97
f 66/66/66 97/97/97 98/98/98
f 98/98/98 99/99/99 66/66/66
f 99/99/99 69/69/69 66/66/66
f 97/97/97 100/100/100 98/98/98
f 100/100/100 97/97/97 95/95/95
f 99/99/99 101/101/101 69/69/69
f 101/101/101 71/71/71 69/69/69
f 101/101/101 102/102/102 71/71/71
f 102/102/102 73/73/73 71/71/71
f 102/102/102 103/103/103 73/73/73
f 103/103/103 75/75/75 73/73/73
f 103/103/103 104/104/104 75/75/75
f 104/104/104 77/77/77 75/75/75
f 104/104/104 105/105/105 77/77/77
f 105/105/105 79/79/79 77/77/77
f 105/105/105 106/106/106 79/79/79
f 106/106/106 81/81/81 79/79/79
f 106/106/106 107/107/107 81/81/81
f 107/107/107 83/83/83 81/81/81
f 107/107/107 108/108/108 83/83/83
f 108/108/108 85/85/85 83/83/83
f 108/108/108 109/109/109 85/85/85
f 109/109/109 87/87/87 85/85/85
f 109/109/109 110/110/110 87/87/87
f 110/110/110 89/89/89 87/87/87
f 110/110/110 111/111/111 89/89/89
f 111/111/111 91/91/91 89/89/89
f 111/111/111 112/112/112 91/91/91
f 112/112/112 93/93/93 91/91/91
f 112/112/112 113/113/113 93/93/93
f 113/113/113 95/95/95 93/93/93
f 113/113/113 100/100/100 95/95/95
f 116/116/116 115/115/115 114/114/114
f 117/117/117 116/116/116 114/114/114
f 114/114/114 118/118/118 117/117/117
f 118/118/118 119/119/119 117/117/117
f 116/116/116 120/120/120 115/115/115
f 120/120/120 121/121/121 115/115/115
f 118/118/118 122/122/122 119/119/119
f 122/122/122 123/123/123 119/119/119
f 120/120/120 124/124/124 121/121/121
f 124/124/124 125/125/125 121/121/121
f 124/124/124 126/126/126 125/125/125
f 126/126/126 127/127/127 125/125/125
f 126/126/126 128/128/128 127/127/127
f 128/128/128 129/129/129 127/127/127
f 128/128/128 130/130/130 129/129/129
f 130/130/130 131/131/131 129/129/129
f 130/130/130 132/132/132 131/131/131
f 132/132/132 133/133/133 131/131/131
f 132/132/132 134/134/134 133/133/133
f 134/134/134 135/135/135 133/133/133
f 134/134/134 136/136/136 135/135/135
f 136/136/136 137/137/137 135/135/135
f 136/136/136 138/138/138 137/137/137
f 138/138/138 139/139/139 137/137/137
f 138/138/138 140/140/140 139/139/139
f 140/140/140 141/141/141 139/139/139
f 140/140/140 142/142/142 141/141/141
f 142/142/142 143/143/143 141/141/141
f 142/142/142 144/144/144 143/143/143
f 144/144/144 145/145/145 143/143/143
f 144/144/144 123/123/123 145/145/145
f 123/123/123 122/122/122 145/145/145
f 132/132/132 146/146/146 134/134/134
f 134/134/134 146/146/146 136/136/136
f 136/136/136 146/146/146 138/138/138
f 138/138/138 146/146/146 140/140/140
f 140/140/140 146/146/146 142/142/142
f 142/142/142 146/146/146 144/144/144
f 144/144/144 146/146/146 123/123/123
f 130/130/130 146/146/146 132/132/132
f 128/128/128 146/146/146 130/130/130
f 126/126/126 146/146/146 128/128/128
f 124/124/124 146/146/146 126/126/126
f 120/120/120 146/146/146 124/124/124
f 116/116/116 146/146/146 120/120/120
f 117/117/117 146/146/146 116/116/116
f 123/123/123 146/146/146 119/119/119
f 119/119/119 146/146/146 117/117/117
