g meger3d_Char_furniture1_C1_2
v 0.1790031 -0.2246146 -0.3491771
v -0.1790032 0.3672882 0.1935865
v 0.4251426 0.153843 -0.002138824
v -0.4251426 -0.01116937 -0.1534518
v 0.2410311 -0.2465291 -0.3692723
v 0.4871705 0.1319285 -0.02223402
v -0.2410311 0.3892027 0.2136817
v -0.4871705 0.01074513 -0.1333566
v 0.4251426 0.153843 -0.002138824
v -0.1790032 0.3871768 0.1718972
v 0.4251426 0.1737316 -0.02382802
v -0.1790032 0.3672882 0.1935865
v 0.4871705 0.1319285 -0.02223402
v 0.4871705 0.1518171 -0.04392325
v 0.4871705 0.2147976 -0.1126057
v 0.4251426 0.2367121 -0.09251051
v -0.2410311 0.3892027 0.2136817
v -0.2410311 0.4090913 0.1919924
v -0.2410311 0.4720718 0.12331
v -0.1790032 0.4501573 0.1032148
v 0.2410311 -0.2465291 -0.3692723
v 0.4871705 0.1518171 -0.04392325
v 0.2410311 -0.2266405 -0.3909615
v 0.4871705 0.1319285 -0.02223402
v 0.241031 -0.16366 -0.459644
v 0.4871705 0.2147976 -0.1126057
v -0.4251426 -0.01116937 -0.1534518
v 0.1790031 -0.204726 -0.3708663
v -0.4251426 0.008719201 -0.175141
v 0.1790031 -0.2246146 -0.3491771
v -0.4871705 0.01074513 -0.1333566
v -0.4871705 0.03063372 -0.1550458
v -0.4251426 0.07169972 -0.2438235
v 0.1790031 -0.1417455 -0.4395488
v 0.241031 -0.16366 -0.459644
v 0.2410311 -0.2266405 -0.3909615
v -0.4871705 0.09361424 -0.2237283
v 0.2410311 -0.2465291 -0.3692723
v -0.2410311 0.3892027 0.2136817
v -0.4871705 0.03063372 -0.1550458
v -0.2410311 0.4090913 0.1919924
v -0.4871705 0.01074513 -0.1333566
v -0.2410311 0.4720718 0.12331
v -0.4871705 0.09361424 -0.2237283
v 0.2271866 -0.06765986 -0.3716137
v -0.3769592 0.08280484 -0.1072059
v -0.3769592 0.1457853 -0.1758884
v 0.2271866 -0.1306404 -0.3029312
v -0.1790032 0.4501573 0.1032148
v -0.3769592 0.08280484 -0.1072059
v -0.1790032 0.3871768 0.1718972
v -0.3769592 0.1457853 -0.1758884
v -0.1790032 0.3871768 0.1718972
v 0.2271866 -0.1306404 -0.3029312
v 0.4251426 0.1737316 -0.02382802
v -0.3769592 0.08280484 -0.1072059
v 0.4251426 0.1737316 -0.02382802
v 0.2271866 -0.06765986 -0.3716137
v 0.4251426 0.2367121 -0.09251051
v 0.2271866 -0.1306404 -0.3029312
v -0.2610536 0.4993561 0.1509306
v 0.2610535 -0.193536 -0.4844382
v -0.5299404 0.0859228 -0.2281797
v 0.5299402 0.2198973 -0.1053279
v -0.2610536 0.5391464 0.1075378
v 0.2610535 -0.1537457 -0.5278309
v 0.5299402 0.2596876 -0.1487207
v -0.5299404 0.1257131 -0.2715724
v -0.2610536 0.4993561 0.1509306
v 0.5299402 0.2596876 -0.1487207
v 0.5299402 0.2198973 -0.1053279
v -0.2610536 0.5391464 0.1075378
v 0.5299402 0.2198973 -0.1053279
v 0.2610535 -0.1537457 -0.5278309
v 0.2610535 -0.193536 -0.4844382
v 0.5299402 0.2596876 -0.1487207
v 0.2610535 -0.193536 -0.4844382
v -0.5299404 0.1257131 -0.2715724
v -0.5299404 0.0859228 -0.2281797
v 0.2610535 -0.1537457 -0.5278309
v -0.5299404 0.0859228 -0.2281797
v -0.2610536 0.5391464 0.1075378
v -0.2610536 0.4993561 0.1509306
v -0.5299404 0.1257131 -0.2715724
v -0.4667025 -0.199471 0.203938
v -0.4270355 -0.2825416 0.1277639
v -0.5032234 -0.2556244 0.1524464
v -0.3905148 -0.2263882 0.1792554
v -0.4667025 -0.199471 0.203938
v -0.3905148 0.1192222 -0.1976449
v -0.3905148 -0.2263882 0.1792554
v -0.4667026 0.1461394 -0.1729624
v -0.3905148 -0.2263882 0.1792554
v -0.4270356 0.06306878 -0.2491365
v -0.4270355 -0.2825416 0.1277639
v -0.3905148 0.1192222 -0.1976449
v -0.4270355 -0.2825416 0.1277639
v -0.5032234 0.089986 -0.2244539
v -0.5032234 -0.2556244 0.1524464
v -0.4270356 0.06306878 -0.2491365
v -0.5032234 -0.2556244 0.1524464
v -0.4667026 0.1461394 -0.1729624
v -0.4667025 -0.199471 0.203938
v -0.5032234 0.089986 -0.2244539
v -0.1724303 0.1089328 0.4867383
v -0.2851389 0.07969663 0.4599294
v -0.2486181 0.13585 0.5114209
v -0.2089511 0.05277944 0.4352468
v -0.1724303 0.1089328 0.4867383
v -0.2089511 0.3983898 0.05834639
v -0.2089511 0.05277944 0.4352468
v -0.1724304 0.4545432 0.109838
v -0.2089511 0.05277944 0.4352468
v -0.285139 0.4253071 0.08302898
v -0.2851389 0.07969663 0.4599294
v -0.2089511 0.3983898 0.05834639
v -0.2851389 0.07969663 0.4599294
v -0.2486182 0.4814605 0.1345205
v -0.2486181 0.13585 0.5114209
v -0.285139 0.4253071 0.08302898
v -0.2486181 0.13585 0.5114209
v -0.1724304 0.4545432 0.109838
v -0.1724303 0.1089328 0.4867383
v -0.2486182 0.4814605 0.1345205
v 0.4667029 -0.1859296 0.2163551
v 0.4270359 -0.102859 0.2925293
v 0.5032237 -0.1297762 0.2678467
v 0.3905151 -0.1590124 0.2410377
v 0.4667029 -0.1859296 0.2163551
v 0.390515 0.186598 -0.1358627
v 0.3905151 -0.1590124 0.2410377
v 0.4667028 0.1596808 -0.1605453
v 0.3905151 -0.1590124 0.2410377
v 0.4270358 0.2427514 -0.08437113
v 0.4270359 -0.102859 0.2925293
v 0.390515 0.186598 -0.1358627
v 0.4270359 -0.102859 0.2925293
v 0.5032237 0.2158342 -0.1090537
v 0.5032237 -0.1297762 0.2678467
v 0.4270358 0.2427514 -0.08437113
v 0.5032237 -0.1297762 0.2678467
v 0.4667028 0.1596808 -0.1605453
v 0.4667029 -0.1859296 0.2163551
v 0.5032237 0.2158342 -0.1090537
v 0.1724305 -0.4943333 -0.06644526
v 0.2851391 -0.4650972 -0.0396363
v 0.2486183 -0.5212505 -0.09112785
v 0.2089513 -0.43818 -0.0149537
v 0.1724305 -0.4943333 -0.06644526
v 0.2089512 -0.09256959 -0.3918541
v 0.2089513 -0.43818 -0.0149537
v 0.1724304 -0.148723 -0.4433457
v 0.2089513 -0.43818 -0.0149537
v 0.285139 -0.1194868 -0.4165367
v 0.2851391 -0.4650972 -0.0396363
v 0.2089512 -0.09256959 -0.3918541
v 0.2851391 -0.4650972 -0.0396363
v 0.2486182 -0.1756402 -0.4680282
v 0.2486183 -0.5212505 -0.09112785
v 0.285139 -0.1194868 -0.4165367
v 0.2486183 -0.5212505 -0.09112785
v 0.1724304 -0.148723 -0.4433457
v 0.1724305 -0.4943333 -0.06644526
v 0.2486182 -0.1756402 -0.4680282
vt 0.5735762 0.7365558
vt 0.6108322 0.7037315
vt 0.5735835 0.7037315
vt 0.6108249 0.736564
vt 0.5702298 0.7365551
vt 0.5702369 0.7037315
vt 0.6141788 0.7037315
vt 0.6141715 0.7365648
vt 0.5735835 0.7037315
vt 0.6108325 0.7022998
vt 0.5735837 0.7022998
vt 0.6108322 0.7037315
vt 0.5702369 0.7037315
vt 0.5702372 0.7022998
vt 0.5702382 0.6977661
vt 0.5735847 0.6977661
vt 0.6141788 0.7037315
vt 0.614179 0.7022998
vt 0.6141798 0.6977661
vt 0.6108332 0.6977661
vt 0.5702298 0.7365551
vt 0.5688052 0.7037315
vt 0.5687981 0.7365547
vt 0.5702369 0.7037315
vt 0.5642644 0.7365538
vt 0.5642716 0.7037315
vt 0.6108249 0.736564
vt 0.573576 0.7379875
vt 0.6108247 0.7379957
vt 0.5735762 0.7365558
vt 0.6141715 0.7365648
vt 0.6141713 0.7379965
vt 0.6108236 0.7425252
vt 0.573575 0.7425252
vt 0.5702285 0.7425252
vt 0.5702294 0.7379868
vt 0.6141702 0.7425252
vt 0.5702298 0.7365551
vt 0.6141788 0.7037315
vt 0.6156032 0.7365651
vt 0.6156105 0.7037315
vt 0.6141715 0.7365648
vt 0.6201441 0.7037315
vt 0.620137 0.7365661
vt 0.5127146 0.7083544
vt 0.5499634 0.712888
vt 0.5499634 0.7083544
vt 0.5127146 0.712888
vt 0.5544971 0.7432337
vt 0.5499634 0.712888
vt 0.5499634 0.7432337
vt 0.554497 0.712888
vt 0.5499634 0.7432337
vt 0.5127146 0.712888
vt 0.5127146 0.7432337
vt 0.5499634 0.712888
vt 0.5127146 0.7432337
vt 0.5081809 0.712888
vt 0.5081809 0.7432337
vt 0.5127146 0.712888
vt 0.6143152 0.6541778
vt 0.5690979 0.687959
vt 0.6143152 0.687959
vt 0.5690979 0.6541778
vt 0.557548 0.6999469
vt 0.5123308 0.6661657
vt 0.5123308 0.6999469
vt 0.557548 0.6661656
vt 0.557548 0.7028112
vt 0.5123308 0.6999469
vt 0.5123308 0.7028112
vt 0.557548 0.6999469
vt 0.5094665 0.6999469
vt 0.5123308 0.6661657
vt 0.5094665 0.6661657
vt 0.5123308 0.6999469
vt 0.5123308 0.6633013
vt 0.557548 0.6661656
vt 0.557548 0.6633013
vt 0.5123308 0.6661657
vt 0.5604124 0.6661656
vt 0.557548 0.6999469
vt 0.5604124 0.6999469
vt 0.557548 0.6661656
vt 0.5639784 0.6317663
vt 0.5705657 0.6383444
vt 0.5705748 0.6317663
vt 0.5639784 0.6383444
vt 0.5639784 0.6317663
vt 0.5268638 0.6383444
vt 0.5639784 0.6383444
vt 0.5268638 0.6317663
vt 0.5639784 0.6383444
vt 0.5268638 0.6449179
vt 0.5639784 0.6449179
vt 0.5268638 0.6383444
vt 0.5639784 0.6449179
vt 0.5268638 0.6514961
vt 0.5639784 0.6514961
vt 0.5268638 0.6449179
vt 0.5639784 0.6514961
vt 0.5268638 0.6580741
vt 0.5639784 0.6580741
vt 0.5268638 0.6514961
vt 0.5639784 0.6317663
vt 0.5705657 0.6383444
vt 0.5705748 0.6317663
vt 0.5639784 0.6383444
vt 0.5639784 0.6317663
vt 0.5268638 0.6383444
vt 0.5639784 0.6383444
vt 0.5268638 0.6317663
vt 0.5639784 0.6383444
vt 0.5268638 0.6449179
vt 0.5639784 0.6449179
vt 0.5268638 0.6383444
vt 0.5639784 0.6449179
vt 0.5268638 0.6514961
vt 0.5639784 0.6514961
vt 0.5268638 0.6449179
vt 0.5639784 0.6514961
vt 0.5268638 0.6580741
vt 0.5639784 0.6580741
vt 0.5268638 0.6514961
vt 0.5639784 0.6317663
vt 0.5705657 0.6383444
vt 0.5705748 0.6317663
vt 0.5639784 0.6383444
vt 0.5639784 0.6317663
vt 0.5268638 0.6383444
vt 0.5639784 0.6383444
vt 0.5268638 0.6317663
vt 0.5639784 0.6383444
vt 0.5268638 0.6449179
vt 0.5639784 0.6449179
vt 0.5268638 0.6383444
vt 0.5639784 0.6449179
vt 0.5268638 0.6514961
vt 0.5639784 0.6514961
vt 0.5268638 0.6449179
vt 0.5639784 0.6514961
vt 0.5268638 0.6580741
vt 0.5639784 0.6580741
vt 0.5268638 0.6514961
vt 0.5639784 0.6317663
vt 0.5705657 0.6383444
vt 0.5705748 0.6317663
vt 0.5639784 0.6383444
vt 0.5639784 0.6317663
vt 0.5268638 0.6383444
vt 0.5639784 0.6383444
vt 0.5268638 0.6317663
vt 0.5639784 0.6383444
vt 0.5268638 0.6449179
vt 0.5639784 0.6449179
vt 0.5268638 0.6383444
vt 0.5639784 0.6449179
vt 0.5268638 0.6514961
vt 0.5639784 0.6514961
vt 0.5268638 0.6449179
vt 0.5639784 0.6514961
vt 0.5268638 0.6580741
vt 0.5639784 0.6580741
vt 0.5268638 0.6514961
vn 2.156844E-07 -0.6758505 0.7370388
vn 2.156844E-07 -0.6758505 0.7370388
vn 2.156844E-07 -0.6758505 0.7370388
vn 2.156844E-07 -0.6758505 0.7370388
vn 2.156844E-07 -0.6758505 0.7370388
vn 2.156844E-07 -0.6758505 0.7370388
vn 2.156844E-07 -0.6758505 0.7370388
vn 2.156844E-07 -0.6758505 0.7370388
vn 0.432256 0.6646255 0.6094487
vn 0.4322561 0.6646255 0.6094487
vn 0.4322561 0.6646255 0.6094487
vn 0.4322561 0.6646255 0.6094487
vn 0.4322561 0.6646255 0.6094487
vn 0.4322561 0.6646255 0.6094487
vn 0.432256 0.6646255 0.6094487
vn 0.4322561 0.6646255 0.6094487
vn 0.432256 0.6646255 0.6094487
vn 0.4322561 0.6646255 0.6094487
vn 0.4322561 0.6646255 0.6094487
vn 0.4322561 0.6646255 0.6094487
vn 0.901751 -0.3185893 -0.2921405
vn 0.9017509 -0.3185893 -0.2921405
vn 0.9017509 -0.3185893 -0.2921405
vn 0.9017509 -0.3185893 -0.2921405
vn 0.9017509 -0.3185893 -0.2921405
vn 0.9017509 -0.3185893 -0.2921405
vn -0.432256 -0.6646255 -0.6094487
vn -0.4322561 -0.6646255 -0.6094487
vn -0.4322561 -0.6646255 -0.6094487
vn -0.4322561 -0.6646255 -0.6094487
vn -0.4322561 -0.6646255 -0.6094487
vn -0.4322561 -0.6646255 -0.6094487
vn -0.432256 -0.6646255 -0.6094487
vn -0.4322561 -0.6646255 -0.6094487
vn -0.4322561 -0.6646255 -0.6094487
vn -0.4322561 -0.6646255 -0.6094487
vn -0.432256 -0.6646255 -0.6094487
vn -0.432256 -0.6646255 -0.6094487
vn -0.901751 0.3185893 0.2921405
vn -0.9017509 0.3185893 0.2921405
vn -0.9017509 0.3185893 0.2921405
vn -0.9017509 0.3185893 0.2921405
vn -0.9017509 0.3185893 0.2921405
vn -0.9017509 0.3185893 0.2921405
vn 0.4322561 0.6646255 0.6094487
vn 0.4322561 0.6646255 0.6094487
vn 0.4322561 0.6646255 0.6094487
vn 0.4322561 0.6646255 0.6094487
vn 0.9017509 -0.3185893 -0.2921405
vn 0.9017509 -0.3185893 -0.2921405
vn 0.9017509 -0.3185893 -0.2921405
vn 0.9017509 -0.3185893 -0.2921405
vn -2.031422E-07 0.6758504 -0.7370388
vn -2.031422E-07 0.6758504 -0.7370388
vn -2.031422E-07 0.6758505 -0.7370388
vn -2.031422E-07 0.6758505 -0.7370388
vn -0.9017509 0.3185893 0.2921405
vn -0.9017509 0.3185893 0.2921405
vn -0.9017509 0.3185893 0.2921405
vn -0.9017509 0.3185893 0.2921405
vn 2.156844E-07 -0.6758505 0.7370388
vn 2.156844E-07 -0.6758505 0.7370388
vn 2.156844E-07 -0.6758505 0.7370388
vn 2.156844E-07 -0.6758505 0.7370388
vn -2.156844E-07 0.6758505 -0.7370388
vn -2.156844E-07 0.6758505 -0.7370388
vn -2.156844E-07 0.6758505 -0.7370388
vn -2.156844E-07 0.6758505 -0.7370388
vn 0.4322561 0.6646255 0.6094487
vn 0.4322561 0.6646255 0.6094487
vn 0.4322561 0.6646255 0.6094487
vn 0.4322561 0.6646255 0.6094487
vn 0.901751 -0.3185893 -0.2921405
vn 0.901751 -0.3185893 -0.2921405
vn 0.9017509 -0.3185893 -0.2921405
vn 0.9017509 -0.3185893 -0.2921405
vn -0.4322561 -0.6646255 -0.6094487
vn -0.4322561 -0.6646255 -0.6094487
vn -0.4322561 -0.6646255 -0.6094487
vn -0.4322561 -0.6646255 -0.6094487
vn -0.901751 0.3185893 0.2921405
vn -0.901751 0.3185893 0.2921405
vn -0.9017509 0.3185893 0.2921405
vn -0.9017509 0.3185893 0.2921405
vn 2.156844E-07 -0.6758505 0.7370388
vn 2.156844E-07 -0.6758505 0.7370388
vn 2.156844E-07 -0.6758505 0.7370388
vn 2.156844E-07 -0.6758505 0.7370388
vn 0.4322561 0.6646255 0.6094487
vn 0.4322561 0.6646255 0.6094487
vn 0.4322561 0.6646255 0.6094487
vn 0.4322561 0.6646255 0.6094487
vn 0.9017509 -0.3185893 -0.2921405
vn 0.9017509 -0.3185893 -0.2921405
vn 0.9017509 -0.3185893 -0.2921405
vn 0.9017509 -0.3185893 -0.2921405
vn -0.4322561 -0.6646255 -0.6094487
vn -0.4322561 -0.6646255 -0.6094487
vn -0.4322561 -0.6646255 -0.6094487
vn -0.4322561 -0.6646255 -0.6094487
vn -0.9017509 0.3185893 0.2921405
vn -0.9017509 0.3185893 0.2921405
vn -0.9017509 0.3185893 0.2921405
vn -0.9017509 0.3185893 0.2921405
vn 2.156844E-07 -0.6758504 0.7370388
vn 2.156844E-07 -0.6758504 0.7370388
vn 2.156844E-07 -0.6758505 0.7370388
vn 2.156844E-07 -0.6758505 0.7370388
vn 0.9017509 -0.3185893 -0.2921405
vn 0.9017509 -0.3185893 -0.2921405
vn 0.9017509 -0.3185893 -0.2921405
vn 0.9017509 -0.3185893 -0.2921405
vn -0.4322561 -0.6646255 -0.6094487
vn -0.4322561 -0.6646255 -0.6094487
vn -0.4322561 -0.6646255 -0.6094487
vn -0.4322561 -0.6646255 -0.6094487
vn -0.9017509 0.3185893 0.2921405
vn -0.9017509 0.3185893 0.2921405
vn -0.9017509 0.3185893 0.2921405
vn -0.9017509 0.3185893 0.2921405
vn 0.4322561 0.6646255 0.6094487
vn 0.4322561 0.6646255 0.6094487
vn 0.4322561 0.6646255 0.6094487
vn 0.4322561 0.6646255 0.6094487
vn 2.156844E-07 -0.6758504 0.7370388
vn 2.156844E-07 -0.6758504 0.7370388
vn 2.156844E-07 -0.6758505 0.7370388
vn 2.156844E-07 -0.6758505 0.7370388
vn -0.4322561 -0.6646255 -0.6094487
vn -0.4322561 -0.6646255 -0.6094487
vn -0.4322561 -0.6646255 -0.6094487
vn -0.4322561 -0.6646255 -0.6094487
vn -0.9017509 0.3185893 0.2921405
vn -0.9017509 0.3185893 0.2921405
vn -0.9017509 0.3185893 0.2921405
vn -0.9017509 0.3185893 0.2921405
vn 0.4322561 0.6646255 0.6094487
vn 0.4322561 0.6646255 0.6094487
vn 0.4322561 0.6646255 0.6094487
vn 0.4322561 0.6646255 0.6094487
vn 0.9017509 -0.3185893 -0.2921405
vn 0.9017509 -0.3185893 -0.2921405
vn 0.9017509 -0.3185893 -0.2921405
vn 0.9017509 -0.3185893 -0.2921405
vn 2.156844E-07 -0.6758505 0.7370388
vn 2.156844E-07 -0.6758505 0.7370388
vn 2.156844E-07 -0.6758505 0.7370388
vn 2.156844E-07 -0.6758505 0.7370388
vn -0.9017509 0.3185893 0.2921405
vn -0.9017509 0.3185893 0.2921405
vn -0.9017509 0.3185893 0.2921405
vn -0.9017509 0.3185893 0.2921405
vn 0.4322561 0.6646255 0.6094487
vn 0.4322561 0.6646255 0.6094487
vn 0.4322561 0.6646255 0.6094487
vn 0.4322561 0.6646255 0.6094487
vn 0.9017509 -0.3185893 -0.2921405
vn 0.9017509 -0.3185893 -0.2921405
vn 0.9017509 -0.3185893 -0.2921405
vn 0.9017509 -0.3185893 -0.2921405
vn -0.4322561 -0.6646255 -0.6094487
vn -0.4322561 -0.6646255 -0.6094487
vn -0.4322561 -0.6646255 -0.6094487
vn -0.4322561 -0.6646255 -0.6094487
g meger3d_Char_furniture1_C1_2_0
f 3/3/3 2/2/2 1/1/1
f 4/4/4 1/1/1 2/2/2
f 1/1/1 5/5/5 3/3/3
f 6/6/6 3/3/3 5/5/5
f 2/2/2 7/7/7 4/4/4
f 8/8/8 4/4/4 7/7/7
f 11/11/11 10/10/10 9/9/9
f 12/12/12 9/9/9 10/10/10
f 9/9/9 13/13/13 11/11/11
f 14/14/14 11/11/11 13/13/13
f 14/14/14 15/15/15 11/11/11
f 16/16/16 11/11/11 15/15/15
f 12/12/12 10/10/10 17/17/17
f 18/18/18 17/17/17 10/10/10
f 18/18/18 10/10/10 19/19/19
f 20/20/20 19/19/19 10/10/10
f 23/23/23 22/22/22 21/21/21
f 24/24/24 21/21/21 22/22/22
f 23/23/23 25/25/25 22/22/22
f 26/26/26 22/22/22 25/25/25
f 29/29/29 28/28/28 27/27/27
f 30/30/30 27/27/27 28/28/28
f 27/27/27 31/31/31 29/29/29
f 32/32/32 29/29/29 31/31/31
f 29/29/29 33/33/33 28/28/28
f 34/34/34 28/28/28 33/33/33
f 34/34/34 35/35/35 28/28/28
f 36/36/36 28/28/28 35/35/35
f 33/33/33 29/29/29 37/37/37
f 32/32/32 37/37/37 29/29/29
f 30/30/30 28/28/28 38/38/38
f 36/36/36 38/38/38 28/28/28
f 41/41/41 40/40/40 39/39/39
f 42/42/42 39/39/39 40/40/40
f 41/41/41 43/43/43 40/40/40
f 44/44/44 40/40/40 43/43/43
f 47/47/47 46/46/46 45/45/45
f 48/48/48 45/45/45 46/46/46
f 51/51/51 50/50/50 49/49/49
f 52/52/52 49/49/49 50/50/50
f 55/55/55 54/54/54 53/53/53
f 56/56/56 53/53/53 54/54/54
f 59/59/59 58/58/58 57/57/57
f 60/60/60 57/57/57 58/58/58
f 63/63/63 62/62/62 61/61/61
f 64/64/64 61/61/61 62/62/62
f 67/67/67 66/66/66 65/65/65
f 68/68/68 65/65/65 66/66/66
f 71/71/71 70/70/70 69/69/69
f 72/72/72 69/69/69 70/70/70
f 75/75/75 74/74/74 73/73/73
f 76/76/76 73/73/73 74/74/74
f 79/79/79 78/78/78 77/77/77
f 80/80/80 77/77/77 78/78/78
f 83/83/83 82/82/82 81/81/81
f 84/84/84 81/81/81 82/82/82
f 87/87/87 86/86/86 85/85/85
f 88/88/88 85/85/85 86/86/86
f 91/91/91 90/90/90 89/89/89
f 92/92/92 89/89/89 90/90/90
f 95/95/95 94/94/94 93/93/93
f 96/96/96 93/93/93 94/94/94
f 99/99/99 98/98/98 97/97/97
f 100/100/100 97/97/97 98/98/98
f 103/103/103 102/102/102 101/101/101
f 104/104/104 101/101/101 102/102/102
f 107/107/107 106/106/106 105/105/105
f 108/108/108 105/105/105 106/106/106
f 111/111/111 110/110/110 109/109/109
f 112/112/112 109/109/109 110/110/110
f 115/115/115 114/114/114 113/113/113
f 116/116/116 113/113/113 114/114/114
f 119/119/119 118/118/118 117/117/117
f 120/120/120 117/117/117 118/118/118
f 123/123/123 122/122/122 121/121/121
f 124/124/124 121/121/121 122/122/122
f 127/127/127 126/126/126 125/125/125
f 128/128/128 125/125/125 126/126/126
f 131/131/131 130/130/130 129/129/129
f 132/132/132 129/129/129 130/130/130
f 135/135/135 134/134/134 133/133/133
f 136/136/136 133/133/133 134/134/134
f 139/139/139 138/138/138 137/137/137
f 140/140/140 137/137/137 138/138/138
f 143/143/143 142/142/142 141/141/141
f 144/144/144 141/141/141 142/142/142
f 147/147/147 146/146/146 145/145/145
f 148/148/148 145/145/145 146/146/146
f 151/151/151 150/150/150 149/149/149
f 152/152/152 149/149/149 150/150/150
f 155/155/155 154/154/154 153/153/153
f 156/156/156 153/153/153 154/154/154
f 159/159/159 158/158/158 157/157/157
f 160/160/160 157/157/157 158/158/158
f 163/163/163 162/162/162 161/161/161
f 164/164/164 161/161/161 162/162/162
