g meger3d_Char_sundries_C2_1
v 0.03180809 -0.06084212 0.01045279
v 0.1036932 -0.01010657 0.0903515
v 0.1155058 -0.01702918 -0.05455903
v 0.03100962 -0.06213671 -0.01369464
v 0.0007727895 -0.05776363 0.04226838
v 0.01290337 -0.008409401 0.1389287
v -0.002469701 -0.06324416 -0.03305394
v 0.01115066 -0.02006135 -0.1225583
v -0.1189291 -0.01836219 -0.05309507
v -0.03341627 -0.06198872 -0.008390924
v -0.1115445 -0.008790535 0.09114843
v -0.03653188 -0.06033286 0.02265252
v 0.1382569 0.07489195 -0.07012419
v 0.1255312 0.08493356 0.09488399
v 0.01753289 0.07384758 -0.1486018
v -0.1319188 0.08081583 -0.06869113
v -0.1223368 0.09341217 0.09724384
v 0.02050203 0.09055291 0.1523709
v 0.1125162 0.2048574 0.07219205
v 0.1221995 0.1946289 -0.06232546
v 0.1503848 0.2878111 0.08472542
v 0.1617005 0.2747378 -0.08829948
v 0.02199059 0.196056 -0.1272958
v 0.02906167 0.2766578 -0.1737599
v -0.1011035 0.2064988 -0.06138304
v -0.1320599 0.2903555 -0.0870854
v -0.09218773 0.2183741 0.07549375
v -0.1187099 0.3058355 0.09244771
v 0.02533287 0.2129271 0.1211146
v 0.03479885 0.2987282 0.1522627
v -0.08957646 0.315133 0.07997788
v 0.03844748 0.3088946 0.124294
v 0.03479885 0.2987282 0.1522627
v -0.1187099 0.3058355 0.09244771
v -0.1320599 0.2903555 -0.0870854
v -0.1076648 0.301884 -0.07976714
v 0.0295655 0.2911495 -0.1474525
v 0.02906167 0.2766578 -0.1737599
v 0.1617005 0.2747378 -0.08829948
v 0.1345799 0.2896813 -0.07797602
v 0.1503848 0.2878111 0.08472542
v 0.1273572 0.3006587 0.07375157
v -0.0952606 0.0106932 0.08604775
v -0.0008387978 -0.03262926 0.002307607
v 0.01670947 0.01088199 0.124143
v 0.09136535 0.009663963 0.08658861
v 0.1004869 0.003367668 -0.05105722
v 0.01198882 0.0007818788 -0.1105065
v -0.1073948 0.001658162 -0.05217939
v 0.03180809 -0.06084212 0.01045279
v 0.01885328 -0.1617206 0.0191481
v 0.0005976537 -0.159443 0.04090292
v 0.0007727895 -0.05776363 0.04226838
v -0.02411506 -0.1596255 0.02678353
v -0.03653188 -0.06033286 0.02265252
v -0.02207112 -0.160482 0.007300706
v -0.03341627 -0.06198872 -0.008390924
v -0.002688135 -0.1619087 -0.00820444
v -0.002469701 -0.06324416 -0.03305394
v 0.01834117 -0.1622987 0.004041938
v 0.03100962 -0.06213671 -0.01369464
v -0.006208775 -0.2536874 0.04905687
v 0.02244567 -0.2572624 0.01491177
v -0.04499229 -0.2539741 0.02689319
v -0.04179129 -0.2553182 -0.00368574
v -0.0113714 -0.2575574 -0.02802227
v 0.02164526 -0.2581699 -0.008800504
v 0.01670947 0.01088199 0.124143
v 0.02833277 0.2227595 0.09955754
v -0.06974177 0.2275436 0.06576554
v -0.0952606 0.0106932 0.08604775
v -0.08227264 0.2173708 -0.05600857
v -0.1073948 0.001658162 -0.05217939
v 0.02258992 0.2091893 -0.10743
v 0.01198882 0.0007818788 -0.1105065
v 0.1017159 0.208107 -0.05465842
v 0.1004869 0.003367668 -0.05105722
v 0.09515295 0.2167363 0.06360582
v 0.09136535 0.009663963 0.08658861
v 0.03844748 0.3088946 0.124294
v -0.08957646 0.315133 0.07997788
v -0.1076648 0.301884 -0.07976714
v 0.0295655 0.2911495 -0.1474525
v 0.1345799 0.2896813 -0.07797602
v 0.1273572 0.3006587 0.07375157
v 0.02244567 -0.2572624 0.01491177
v 0.1206329 -0.2868489 0.03585492
v 0.02375135 -0.2744322 0.142441
v -0.006208775 -0.2536874 0.04905687
v -0.1122296 -0.2748882 0.0923513
v -0.04499229 -0.2539741 0.02689319
v -0.1398308 -0.2789655 -0.03955225
v -0.04179129 -0.2553182 -0.00368574
v -0.01648449 -0.2880453 -0.1382312
v -0.0113714 -0.2575574 -0.02802227
v 0.1173733 -0.2905285 -0.06029638
v 0.02164526 -0.2581699 -0.008800504
v 0.1206329 -0.2868489 0.03585492
v 0.1195982 -0.3117068 0.03684983
v 0.02271666 -0.2992901 0.1434359
v 0.02375135 -0.2744322 0.142441
v -0.1132643 -0.299746 0.0933462
v -0.1122296 -0.2748882 0.0923513
v -0.1408654 -0.3038234 -0.03855734
v -0.1398308 -0.2789655 -0.03955225
v -0.01751919 -0.3129031 -0.1372363
v -0.01648449 -0.2880453 -0.1382312
v 0.1163386 -0.3153864 -0.05930147
v 0.1173733 -0.2905285 -0.06029638
v 0.1163386 -0.3153864 -0.05930147
v -0.01751919 -0.3129031 -0.1372363
v -0.1408654 -0.3038234 -0.03855734
v 0.1195982 -0.3117068 0.03684983
v -0.1132643 -0.299746 0.0933462
v 0.02271666 -0.2992901 0.1434359
vt 0.5221461 0.8420872
vt 0.5221461 0.8082712
vt 0.5221461 0.8079071
vt 0.5221461 0.8422464
vt 0.5221461 0.8440986
vt 0.5221461 0.8148818
vt 0.5221461 0.8448098
vt 0.5221461 0.8158378
vt 0.5221461 0.8253891
vt 0.5221461 0.8470027
vt 0.5221461 0.8240414
vt 0.5221461 0.847105
vt 0.5221461 0.7796204
vt 0.5221461 0.7797439
vt 0.5221461 0.7885244
vt 0.5221461 0.7989469
vt 0.5221461 0.7971421
vt 0.5221461 0.7869914
vt 0.5221461 0.8070204
vt 0.5221461 0.8071951
vt 0.5221461 0.7555876
vt 0.5221461 0.7558876
vt 0.5221461 0.8143343
vt 0.5221461 0.7653345
vt 0.5221461 0.8224018
vt 0.5221461 0.775892
vt 0.5221461 0.8206751
vt 0.5221461 0.773515
vt 0.5221461 0.8126642
vt 0.5221461 0.7630506
vt 0.5221461 0.7703172
vt 0.5221461 0.7616146
vt 0.5221461 0.7465771
vt 0.5221461 0.7570418
vt 0.5221461 0.7594185
vt 0.5221461 0.7728336
vt 0.5221461 0.7637497
vt 0.5221461 0.7488611
vt 0.5221461 0.7394142
vt 0.5221461 0.756268
vt 0.5221461 0.7391142
vt 0.5221461 0.7558588
vt 0.5221461 0.8511628
vt 0.5221461 0.8487986
vt 0.5221461 0.8429296
vt 0.5221461 0.8374788
vt 0.5221461 0.8372574
vt 0.5221461 0.8439814
vt 0.5221461 0.8528128
vt 0.5221461 0.8272612
vt 0.5221461 0.8162603
vt 0.5221461 0.8173974
vt 0.5221461 0.8292726
vt 0.5221461 0.8192199
vt 0.5221461 0.832279
vt 0.5221461 0.8191293
vt 0.5221461 0.8321767
vt 0.5221461 0.8178263
vt 0.5221461 0.8299838
vt 0.5221461 0.8163354
vt 0.5221461 0.8274202
vt 0.5221461 0.8513374
vt 0.5221461 0.8495525
vt 0.5221461 0.854198
vt 0.5221461 0.8540556
vt 0.5221461 0.8520104
vt 0.5221461 0.8496704
vt 0.5221461 0.8429296
vt 0.5221461 0.8187373
vt 0.5221461 0.8254035
vt 0.5221461 0.8511628
vt 0.5221461 0.8272368
vt 0.5221461 0.8528128
vt 0.5221461 0.8202938
vt 0.5221461 0.8439814
vt 0.5221461 0.8146542
vt 0.5221461 0.8372574
vt 0.5221461 0.8143964
vt 0.5221461 0.8374788
vt 0.5221461 0.778088
vt 0.5221461 0.7867906
vt 0.5221461 0.7893071
vt 0.5221461 0.7802231
vt 0.5221461 0.7727414
vt 0.5221461 0.7723322
vt 0.5221461 0.8404922
vt 0.5221461 0.8027512
vt 0.5221461 0.8087341
vt 0.5221461 0.842277
vt 0.5221461 0.8187507
vt 0.5221461 0.8451377
vt 0.5221461 0.8210105
vt 0.5221461 0.8449953
vt 0.5221461 0.8127179
vt 0.5221461 0.8429501
vt 0.5221461 0.8032292
vt 0.5221461 0.8406101
vt 0.5221461 0.8266376
vt 0.5221461 0.840156
vt 0.5221461 0.846139
vt 0.5221461 0.8326205
vt 0.5221461 0.8561556
vt 0.5221461 0.8426371
vt 0.5221461 0.8584153
vt 0.5221461 0.8448969
vt 0.5221461 0.8501226
vt 0.5221461 0.8366042
vt 0.5221461 0.840634
vt 0.5221461 0.8271157
vt 0.5221461 0.8463997
vt 0.5221461 0.8558883
vt 0.5221461 0.8641809
vt 0.5221461 0.8459216
vt 0.5221461 0.8619213
vt 0.5221461 0.8519046
vn 0.4082603 -0.889973 0.2031541
vn 0.6758353 -0.5559223 0.4839392
vn 0.7352293 -0.5893502 -0.3348197
vn 0.398461 -0.900378 -0.1747807
vn 0.02817162 -0.8982326 0.4386166
vn 0.04508118 -0.5307887 0.8463043
vn -0.01967558 -0.9062562 -0.4222709
vn 0.02570901 -0.589507 -0.807354
vn -0.7460058 -0.5469317 -0.3799225
vn -0.394514 -0.8993879 -0.1883086
vn -0.686842 -0.5057353 0.5219961
vn -0.3699906 -0.8945338 0.2508312
vn 0.8927984 -0.06946573 -0.4450681
vn 0.8392876 -0.01184123 0.5435585
vn 0.04525594 -0.05122613 -0.9976612
vn -0.8699204 0.02214513 -0.4926947
vn -0.8074315 0.08228279 0.5841953
vn 0.07151815 0.05507187 0.9959177
vn 0.8288395 -0.1363375 0.5426207
vn 0.8841308 -0.204777 -0.4199751
vn 0.7513492 -0.4225182 0.5069051
vn 0.775657 -0.5065174 -0.3765587
vn 0.02687214 -0.1912076 -0.9811817
vn 0.01302336 -0.5004442 -0.8656708
vn -0.8767412 -0.1081501 -0.4686453
vn -0.8142022 -0.4198486 -0.4010011
vn -0.8012457 -0.04938756 0.5962937
vn -0.7503186 -0.3421105 0.5656699
vn 0.06147643 -0.05660081 0.9965024
vn 0.04994251 -0.3399723 0.9391084
vn -0.2192902 0.9561646 0.1940648
vn 0.1224227 0.9176037 0.3781747
vn 0.07532853 0.9228123 0.3778134
vn -0.2662568 0.9561159 0.1222688
vn -0.3009587 0.9197392 -0.2519992
vn -0.2828109 0.9106904 -0.3010994
vn 0.06433087 0.8669622 -0.4942045
vn 0.05189893 0.8670055 -0.4955886
vn 0.4121224 0.8799866 -0.2361752
vn 0.402504 0.8781398 -0.2585749
vn 0.4123545 0.8990574 0.1471718
vn 0.3949808 0.8998079 0.1852993
vn 0.2278138 0.9455837 -0.2323191
vn -0.003895222 0.9997308 -0.02287173
vn -0.02033415 0.9424747 -0.3336586
vn -0.241205 0.9471654 -0.2114187
vn -0.2863799 0.9529806 0.0990678
vn -0.03219204 0.9593273 0.2804547
vn 0.260656 0.960762 0.09484101
vn 0.9371864 -0.08465823 0.3384003
vn 0.9332085 -0.03002476 0.3580787
vn 0.1867278 0.02124698 0.9821818
vn 0.1607574 -0.02536104 0.986668
vn -0.8690836 0.05411551 0.4916961
vn -0.8826456 -0.08795438 0.4617367
vn -0.8815516 0.03094275 -0.4710725
vn -0.8643456 -0.1738027 -0.4719104
vn -0.06084249 -0.0170502 -0.9980018
vn -0.0689817 -0.2435251 -0.9674384
vn 0.8732736 -0.04977554 -0.4846808
vn 0.839147 -0.1963722 -0.5072182
vn 0.1622622 0.07340819 0.9840133
vn 0.9538206 0.02258855 0.2995263
vn -0.892284 0.1979422 0.4057686
vn -0.8414392 0.2315191 -0.4882407
vn -0.07155176 0.208595 -0.9753812
vn 0.8368858 0.1008912 -0.5379992
vn -0.06418484 -0.1144333 -0.9913552
vn -0.06872669 0.08893191 -0.9936638
vn 0.7782289 0.07931335 -0.6229519
vn 0.7871288 -0.146668 -0.5990967
vn 0.8741236 0.1499975 0.4619617
vn 0.8703038 -0.09527308 0.4832127
vn -0.05306516 0.2346444 0.9706318
vn -0.04832528 -0.01161611 0.9987642
vn -0.8754582 0.2435605 0.4174341
vn -0.8923264 0.0145841 0.4511551
vn -0.822401 0.1747642 -0.5414001
vn -0.8273608 -0.04503626 -0.5598623
vn -0.06916938 0.2767499 -0.9584493
vn 0.7466606 0.2725422 -0.6068102
vn 0.8310901 0.3641455 0.4203419
vn -0.03881333 0.4413855 0.8964777
vn -0.8043488 0.4401949 0.399063
vn -0.7756231 0.3630534 -0.5163342
vn 0.2801374 0.9588603 0.0459329
vn 0.2835167 0.9585358 0.02876562
vn 0.09788349 0.9792646 0.1773686
vn 0.07194229 0.98013 0.1848501
vn -0.1770228 0.9761906 0.1253586
vn -0.1916007 0.9758529 0.1048826
vn -0.1988193 0.9714607 -0.1293636
vn -0.1956239 0.971172 -0.1362212
vn 0.02546506 0.9631839 -0.2676346
vn 0.01680167 0.9634641 -0.2673101
vn 0.2402423 0.9581794 -0.1554853
vn 0.2368031 0.9579962 -0.1617636
vn 0.9367644 -0.02502135 0.3490651
vn 0.9392624 -0.02539773 0.3422589
vn 0.2378831 0.02895595 0.9708622
vn 0.2378357 0.02895838 0.9708736
vn -0.759555 0.05754723 0.6478924
vn -0.7531251 0.0575782 0.655353
vn -0.940512 0.02558836 -0.3387955
vn -0.9404569 0.02557992 -0.3389492
vn -0.0747131 -0.036775 -0.9965267
vn -0.07478816 -0.03677166 -0.9965212
vn 0.8573399 -0.05616562 -0.5116773
vn 0.8572421 -0.0561681 -0.5118409
vn -0.03930831 -0.9980087 0.04933054
vn -0.03930831 -0.9980087 0.04933055
vn -0.03930831 -0.9980087 0.04933054
vn -0.03930831 -0.9980087 0.04933054
vn -0.03930831 -0.9980087 0.04933054
vn -0.03930831 -0.9980087 0.04933054
g meger3d_Char_sundries_C2_1_0
f 3/3/3 2/2/2 1/1/1
f 4/4/4 3/3/3 1/1/1
f 1/1/1 2/2/2 5/5/5
f 2/2/2 6/6/6 5/5/5
f 4/4/4 7/7/7 3/3/3
f 7/7/7 8/8/8 3/3/3
f 9/9/9 8/8/8 7/7/7
f 10/10/10 9/9/9 7/7/7
f 9/9/9 10/10/10 11/11/11
f 10/10/10 12/12/12 11/11/11
f 12/12/12 5/5/5 6/6/6
f 11/11/11 12/12/12 6/6/6
f 3/3/3 13/13/13 2/2/2
f 13/13/13 14/14/14 2/2/2
f 2/2/2 14/14/14 6/6/6
f 15/15/15 13/13/13 3/3/3
f 8/8/8 15/15/15 3/3/3
f 16/16/16 15/15/15 8/8/8
f 9/9/9 16/16/16 8/8/8
f 17/17/17 16/16/16 9/9/9
f 11/11/11 17/17/17 9/9/9
f 18/18/18 17/17/17 11/11/11
f 6/6/6 18/18/18 11/11/11
f 14/14/14 18/18/18 6/6/6
f 19/19/19 14/14/14 13/13/13
f 20/20/20 19/19/19 13/13/13
f 20/20/20 13/13/13 15/15/15
f 21/21/21 19/19/19 20/20/20
f 22/22/22 21/21/21 20/20/20
f 22/22/22 20/20/20 23/23/23
f 23/23/23 20/20/20 15/15/15
f 23/23/23 15/15/15 16/16/16
f 24/24/24 22/22/22 23/23/23
f 24/24/24 23/23/23 25/25/25
f 25/25/25 23/23/23 16/16/16
f 25/25/25 16/16/16 17/17/17
f 26/26/26 24/24/24 25/25/25
f 26/26/26 25/25/25 27/27/27
f 27/27/27 25/25/25 17/17/17
f 27/27/27 17/17/17 18/18/18
f 28/28/28 26/26/26 27/27/27
f 28/28/28 27/27/27 29/29/29
f 29/29/29 27/27/27 18/18/18
f 29/29/29 18/18/18 14/14/14
f 19/19/19 29/29/29 14/14/14
f 30/30/30 28/28/28 29/29/29
f 30/30/30 29/29/29 19/19/19
f 21/21/21 30/30/30 19/19/19
f 33/33/33 32/32/32 31/31/31
f 34/34/34 33/33/33 31/31/31
f 34/34/34 31/31/31 35/35/35
f 31/31/31 36/36/36 35/35/35
f 36/36/36 37/37/37 35/35/35
f 37/37/37 38/38/38 35/35/35
f 38/38/38 37/37/37 39/39/39
f 37/37/37 40/40/40 39/39/39
f 39/39/39 40/40/40 41/41/41
f 32/32/32 33/33/33 41/41/41
f 40/40/40 42/42/42 41/41/41
f 42/42/42 32/32/32 41/41/41
f 45/45/45 44/44/44 43/43/43
f 46/46/46 44/44/44 45/45/45
f 47/47/47 44/44/44 46/46/46
f 48/48/48 44/44/44 47/47/47
f 49/49/49 44/44/44 48/48/48
f 43/43/43 44/44/44 49/49/49
f 52/52/52 51/51/51 50/50/50
f 53/53/53 52/52/52 50/50/50
f 54/54/54 52/52/52 53/53/53
f 55/55/55 54/54/54 53/53/53
f 56/56/56 54/54/54 55/55/55
f 57/57/57 56/56/56 55/55/55
f 58/58/58 56/56/56 57/57/57
f 59/59/59 58/58/58 57/57/57
f 60/60/60 58/58/58 59/59/59
f 61/61/61 60/60/60 59/59/59
f 51/51/51 60/60/60 61/61/61
f 50/50/50 51/51/51 61/61/61
f 52/52/52 62/62/62 51/51/51
f 62/62/62 63/63/63 51/51/51
f 51/51/51 63/63/63 60/60/60
f 64/64/64 62/62/62 52/52/52
f 54/54/54 64/64/64 52/52/52
f 65/65/65 64/64/64 54/54/54
f 56/56/56 65/65/65 54/54/54
f 66/66/66 65/65/65 56/56/56
f 58/58/58 66/66/66 56/56/56
f 67/67/67 66/66/66 58/58/58
f 60/60/60 67/67/67 58/58/58
f 63/63/63 67/67/67 60/60/60
f 70/70/70 69/69/69 68/68/68
f 71/71/71 70/70/70 68/68/68
f 72/72/72 70/70/70 71/71/71
f 73/73/73 72/72/72 71/71/71
f 74/74/74 72/72/72 73/73/73
f 75/75/75 74/74/74 73/73/73
f 76/76/76 74/74/74 75/75/75
f 77/77/77 76/76/76 75/75/75
f 78/78/78 76/76/76 77/77/77
f 79/79/79 78/78/78 77/77/77
f 69/69/69 78/78/78 79/79/79
f 68/68/68 69/69/69 79/79/79
f 80/80/80 69/69/69 70/70/70
f 81/81/81 80/80/80 70/70/70
f 81/81/81 70/70/70 72/72/72
f 82/82/82 81/81/81 72/72/72
f 82/82/82 72/72/72 74/74/74
f 83/83/83 82/82/82 74/74/74
f 83/83/83 74/74/74 76/76/76
f 84/84/84 83/83/83 76/76/76
f 84/84/84 76/76/76 78/78/78
f 85/85/85 84/84/84 78/78/78
f 85/85/85 78/78/78 69/69/69
f 80/80/80 85/85/85 69/69/69
f 88/88/88 87/87/87 86/86/86
f 89/89/89 88/88/88 86/86/86
f 90/90/90 88/88/88 89/89/89
f 91/91/91 90/90/90 89/89/89
f 92/92/92 90/90/90 91/91/91
f 93/93/93 92/92/92 91/91/91
f 94/94/94 92/92/92 93/93/93
f 95/95/95 94/94/94 93/93/93
f 96/96/96 94/94/94 95/95/95
f 97/97/97 96/96/96 95/95/95
f 87/87/87 96/96/96 97/97/97
f 86/86/86 87/87/87 97/97/97
f 100/100/100 99/99/99 98/98/98
f 101/101/101 100/100/100 98/98/98
f 102/102/102 100/100/100 101/101/101
f 103/103/103 102/102/102 101/101/101
f 104/104/104 102/102/102 103/103/103
f 105/105/105 104/104/104 103/103/103
f 106/106/106 104/104/104 105/105/105
f 107/107/107 106/106/106 105/105/105
f 108/108/108 106/106/106 107/107/107
f 109/109/109 108/108/108 107/107/107
f 99/99/99 108/108/108 109/109/109
f 98/98/98 99/99/99 109/109/109
f 112/112/112 111/111/111 110/110/110
f 110/110/110 113/113/113 112/112/112
f 113/113/113 114/114/114 112/112/112
f 113/113/113 115/115/115 114/114/114
