g meger3d_Char_sundries_C3_173
v 0.3837025 -0.1987493 -0.05693011
v 0.310422 0.02678505 -0.1005128
v 0.310422 0.02678505 0.1005128
v 0.3837025 -0.1987493 0.05693011
v 0.310422 0.02678505 -0.1005128
v 0.1185707 0.166173 -0.1243235
v 0.1185707 0.166173 0.1243235
v 0.310422 0.02678505 0.1005128
v 0.1185707 0.166173 -0.1243235
v -0.1185707 0.166173 -0.1243235
v -0.1185707 0.166173 0.1243235
v 0.1185707 0.166173 0.1243235
v 0.310422 -0.4242846 -0.03370801
v 0.3837025 -0.1987493 -0.05693011
v 0.3837025 -0.1987493 0.05693011
v 0.310422 -0.4242846 0.03370801
v 0.310422 0.02678505 0.1005128
v 0.3449132 0.05184418 0.1029383
v 0.4263363 -0.1987493 0.058206
v 0.3837025 -0.1987493 0.05693011
v 0.1185707 0.166173 0.1243235
v 0.1317457 0.2067202 0.1241039
v 0.3449132 0.05184418 0.1029383
v 0.310422 0.02678505 0.1005128
v 0.1185707 0.166173 0.1243235
v -0.1185707 0.166173 0.1243235
v -0.1317457 0.2067202 0.1241039
v 0.1317457 0.2067202 0.1241039
v 0.3837025 -0.1987493 0.05693011
v 0.4263363 -0.1987493 0.058206
v 0.3449137 -0.449344 0.0329039
v 0.310422 -0.4242846 0.03370801
v 0.3449132 0.05184418 0.1029383
v 0.3449132 0.05184418 -0.1029383
v 0.4263363 -0.1987493 -0.058206
v 0.4263363 -0.1987493 0.058206
v 0.1317457 0.2067202 0.1241039
v 0.1317457 0.2067202 -0.1241039
v 0.3449132 0.05184418 -0.1029383
v 0.3449132 0.05184418 0.1029383
v 0.1317457 0.2067202 0.1241039
v -0.1317457 0.2067202 0.1241039
v -0.1317457 0.2067202 -0.1241039
v 0.1317457 0.2067202 -0.1241039
v 0.4263363 -0.1987493 0.058206
v 0.4263363 -0.1987493 -0.058206
v 0.3449137 -0.449344 -0.0329039
v 0.3449137 -0.449344 0.0329039
v 0.3449132 0.05184418 -0.1029383
v 0.310422 0.02678505 -0.1005128
v 0.3837025 -0.1987493 -0.05693011
v 0.4263363 -0.1987493 -0.058206
v 0.1317457 0.2067202 -0.1241039
v 0.1185707 0.166173 -0.1243235
v 0.310422 0.02678505 -0.1005128
v 0.3449132 0.05184418 -0.1029383
v 0.1317457 0.2067202 -0.1241039
v -0.1317457 0.2067202 -0.1241039
v -0.1185707 0.166173 -0.1243235
v 0.1185707 0.166173 -0.1243235
v 0.4263363 -0.1987493 -0.058206
v 0.3837025 -0.1987493 -0.05693011
v 0.310422 -0.4242846 -0.03370801
v 0.3449137 -0.449344 -0.0329039
v 0.310422 -0.4242846 0.03370801
v 0.3449137 -0.449344 0.0329039
v 0.3449137 -0.449344 -0.0329039
v 0.310422 -0.4242846 -0.03370801
v 0.3785661 0.2136879 -0.04189142
v 0.3009681 0.2318026 -0.06778332
v 0.2186352 0.1327102 -0.08638725
v 0.3010277 0.073341 -0.05338998
v 0.3009681 0.2318026 -0.06778332
v 0.2530099 0.2429972 0
v 0.1677138 0.1694027 0
v 0.2186352 0.1327102 -0.08638725
v 0.2530099 0.2429972 0
v 0.3009681 0.2318026 0.06778332
v 0.2186352 0.1327102 0.08638725
v 0.1677138 0.1694027 0
v 0.3009681 0.2318026 0.06778332
v 0.3785661 0.2136879 0.04189142
v 0.3010277 0.073341 0.05338998
v 0.2186352 0.1327102 0.08638725
v 0.3785661 0.2136879 0.04189142
v 0.3785661 0.2136879 -0.04189142
v 0.3010277 0.073341 -0.05338998
v 0.3010277 0.073341 0.05338998
v 0.2610819 0.4447392 0
v 0.2592453 0.4433158 -0.007148552
v 0.2658875 0.4484647 -0.004417871
v 0.25514 0.4401338 0
v 0.2610819 0.4447392 0
v 0.2592453 0.4433158 0.007148552
v 0.25514 0.4401338 0
v 0.2658875 0.4484647 0.004417871
v 0.2610819 0.4447392 0
v 0.2658875 0.4484647 -0.004417871
v 0.2658875 0.4484647 0.004417871
v 0.2592453 0.4433158 -0.007148552
v 0.3009681 0.2318026 -0.06778332
v 0.3785661 0.2136879 -0.04189142
v 0.2658875 0.4484647 -0.004417871
v 0.25514 0.4401338 0
v 0.2530099 0.2429972 0
v 0.3009681 0.2318026 -0.06778332
v 0.2592453 0.4433158 -0.007148552
v 0.2592453 0.4433158 0.007148552
v 0.3009681 0.2318026 0.06778332
v 0.2530099 0.2429972 0
v 0.25514 0.4401338 0
v 0.2658875 0.4484647 0.004417871
v 0.3785661 0.2136879 0.04189142
v 0.3009681 0.2318026 0.06778332
v 0.2592453 0.4433158 0.007148552
v 0.2658875 0.4484647 -0.004417871
v 0.3785661 0.2136879 -0.04189142
v 0.3785661 0.2136879 0.04189142
v 0.2658875 0.4484647 0.004417871
v -0.310422 0.02678505 -0.1005128
v -0.3837025 -0.1987493 -0.05693011
v -0.3837025 -0.1987493 0.05693011
v -0.310422 0.02678505 0.1005128
v -0.1185707 0.166173 -0.1243235
v -0.310422 0.02678505 -0.1005128
v -0.310422 0.02678505 0.1005128
v -0.1185707 0.166173 0.1243235
v -0.3837025 -0.1987493 -0.05693011
v -0.310422 -0.4242846 -0.03370801
v -0.310422 -0.4242846 0.03370801
v -0.3837025 -0.1987493 0.05693011
v -0.3837025 -0.1987493 0.05693011
v -0.4263363 -0.1987493 0.058206
v -0.3449132 0.05184418 0.1029383
v -0.310422 0.02678505 0.1005128
v -0.310422 0.02678505 0.1005128
v -0.3449132 0.05184418 0.1029383
v -0.1317457 0.2067202 0.1241039
v -0.1185707 0.166173 0.1243235
v -0.310422 -0.4242846 0.03370801
v -0.3449137 -0.449344 0.0329039
v -0.4263363 -0.1987493 0.058206
v -0.3837025 -0.1987493 0.05693011
v -0.4263363 -0.1987493 0.058206
v -0.4263363 -0.1987493 -0.058206
v -0.3449132 0.05184418 -0.1029383
v -0.3449132 0.05184418 0.1029383
v -0.3449132 0.05184418 0.1029383
v -0.3449132 0.05184418 -0.1029383
v -0.1317457 0.2067202 -0.1241039
v -0.1317457 0.2067202 0.1241039
v -0.3449137 -0.449344 0.0329039
v -0.3449137 -0.449344 -0.0329039
v -0.4263363 -0.1987493 -0.058206
v -0.4263363 -0.1987493 0.058206
v -0.4263363 -0.1987493 -0.058206
v -0.3837025 -0.1987493 -0.05693011
v -0.310422 0.02678505 -0.1005128
v -0.3449132 0.05184418 -0.1029383
v -0.3449132 0.05184418 -0.1029383
v -0.310422 0.02678505 -0.1005128
v -0.1185707 0.166173 -0.1243235
v -0.1317457 0.2067202 -0.1241039
v -0.3449137 -0.449344 -0.0329039
v -0.310422 -0.4242846 -0.03370801
v -0.3837025 -0.1987493 -0.05693011
v -0.4263363 -0.1987493 -0.058206
v -0.310422 -0.4242846 0.03370801
v -0.310422 -0.4242846 -0.03370801
v -0.3449137 -0.449344 -0.0329039
v -0.3449137 -0.449344 0.0329039
v -0.3009681 0.2318026 -0.06778332
v -0.3785661 0.2136879 -0.04189142
v -0.3010277 0.073341 -0.05338998
v -0.2186352 0.1327102 -0.08638725
v -0.2530099 0.2429972 0
v -0.3009681 0.2318026 -0.06778332
v -0.2186352 0.1327102 -0.08638725
v -0.1677138 0.1694027 0
v -0.3009681 0.2318026 0.06778332
v -0.2530099 0.2429972 0
v -0.1677138 0.1694027 0
v -0.2186352 0.1327102 0.08638725
v -0.3785661 0.2136879 0.04189142
v -0.3009681 0.2318026 0.06778332
v -0.2186352 0.1327102 0.08638725
v -0.3010277 0.073341 0.05338998
v -0.3785661 0.2136879 -0.04189142
v -0.3785661 0.2136879 0.04189142
v -0.3010277 0.073341 0.05338998
v -0.3010277 0.073341 -0.05338998
v -0.2610819 0.4447392 0
v -0.2658875 0.4484647 -0.004417871
v -0.2592453 0.4433158 -0.007148552
v -0.25514 0.4401338 0
v -0.2610819 0.4447392 0
v -0.25514 0.4401338 0
v -0.2592453 0.4433158 0.007148552
v -0.2658875 0.4484647 0.004417871
v -0.2610819 0.4447392 0
v -0.2658875 0.4484647 0.004417871
v -0.2658875 0.4484647 -0.004417871
v -0.2658875 0.4484647 -0.004417871
v -0.3785661 0.2136879 -0.04189142
v -0.3009681 0.2318026 -0.06778332
v -0.2592453 0.4433158 -0.007148552
v -0.2592453 0.4433158 -0.007148552
v -0.3009681 0.2318026 -0.06778332
v -0.2530099 0.2429972 0
v -0.25514 0.4401338 0
v -0.25514 0.4401338 0
v -0.2530099 0.2429972 0
v -0.3009681 0.2318026 0.06778332
v -0.2592453 0.4433158 0.007148552
v -0.2592453 0.4433158 0.007148552
v -0.3009681 0.2318026 0.06778332
v -0.3785661 0.2136879 0.04189142
v -0.2658875 0.4484647 0.004417871
v -0.2658875 0.4484647 0.004417871
v -0.3785661 0.2136879 0.04189142
v -0.3785661 0.2136879 -0.04189142
v -0.2658875 0.4484647 -0.004417871
vt 0.7095245 0.19916
vt 0.6914024 0.1958738
vt 0.6914048 0.2110444
vt 0.7095245 0.2077532
vt 0.6914024 0.1958738
vt 0.6732821 0.1940792
vt 0.6732821 0.2128435
vt 0.6914048 0.2110444
vt 0.6732821 0.1940792
vt 0.6732821 0.1940792
vt 0.6732821 0.2128435
vt 0.6732821 0.2128435
vt 0.7276448 0.2009175
vt 0.7095245 0.19916
vt 0.7095245 0.2077532
vt 0.727643 0.2060047
vt 0.6180477 0.2038244
vt 0.6180363 0.2039061
vt 0.6185484 0.2039905
vt 0.6185606 0.2039081
vt 0.6175287 0.2037834
vt 0.6175261 0.2038659
vt 0.6180363 0.2039061
vt 0.6180477 0.2038244
vt 0.6175287 0.2037834
vt 0.6175287 0.2037834
vt 0.6175261 0.2038659
vt 0.6175261 0.2038659
vt 0.6185606 0.2039081
vt 0.6185484 0.2039905
vt 0.6190664 0.2040349
vt 0.6190543 0.2039496
vt 0.6180363 0.2039061
vt 0.618038 0.2043108
vt 0.6185499 0.20422
vt 0.6185484 0.2039905
vt 0.6175261 0.2038659
vt 0.6175268 0.2043543
vt 0.618038 0.2043108
vt 0.6180363 0.2039061
vt 0.6175261 0.2038659
vt 0.6175261 0.2038659
vt 0.6175268 0.2043543
vt 0.6175268 0.2043543
vt 0.6185484 0.2039905
vt 0.6185499 0.20422
vt 0.6190675 0.2041665
vt 0.6190664 0.2040349
vt 0.618038 0.2043108
vt 0.6180502 0.2043923
vt 0.6185633 0.2043022
vt 0.6185499 0.20422
vt 0.6175268 0.2043543
vt 0.6175296 0.2044369
vt 0.6180502 0.2043923
vt 0.618038 0.2043108
vt 0.6175268 0.2043543
vt 0.6175268 0.2043543
vt 0.6175296 0.2044369
vt 0.6175296 0.2044369
vt 0.6185499 0.20422
vt 0.6185633 0.2043022
vt 0.6190569 0.204252
vt 0.6190675 0.2041665
vt 0.6191507 0.2040336
vt 0.6190664 0.2040349
vt 0.6190675 0.2041665
vt 0.6191518 0.2041663
vt 0.672778 0.1752988
vt 0.6731855 0.1754383
vt 0.6735873 0.1748469
vt 0.6729624 0.1744642
vt 0.6731855 0.1754383
vt 0.6735864 0.1757059
vt 0.6740406 0.1752874
vt 0.6735873 0.1748469
vt 0.6715952 0.1757328
vt 0.6719891 0.1754546
vt 0.671572 0.1748738
vt 0.6711304 0.1753261
vt 0.6719891 0.1754546
vt 0.6723929 0.175304
vt 0.6721865 0.1744746
vt 0.671572 0.1748738
vt 0.6723929 0.175304
vt 0.672778 0.1752988
vt 0.6729624 0.1744642
vt 0.6721865 0.1744746
vt 0.672608 0.1768033
vt 0.6726457 0.1768231
vt 0.672663 0.176775
vt 0.6726094 0.176845
vt 0.672608 0.1768033
vt 0.6725716 0.1768253
vt 0.6726094 0.176845
vt 0.6725513 0.1767768
vt 0.672608 0.1768033
vt 0.672663 0.176775
vt 0.6725513 0.1767768
vt 0.6728438 0.1767181
vt 0.6731855 0.1754383
vt 0.672778 0.1752988
vt 0.672663 0.176775
vt 0.6729288 0.1767015
vt 0.6735864 0.1757059
vt 0.6731855 0.1754383
vt 0.6728438 0.1767181
vt 0.6723672 0.1767247
vt 0.6719891 0.1754546
vt 0.6715952 0.1757328
vt 0.6722813 0.1767103
vt 0.6725513 0.1767768
vt 0.6723929 0.175304
vt 0.6719891 0.1754546
vt 0.6723672 0.1767247
vt 0.672663 0.176775
vt 0.672778 0.1752988
vt 0.6723929 0.175304
vt 0.6725513 0.1767768
vt 0.6914024 0.1958738
vt 0.7095245 0.19916
vt 0.7095245 0.2077532
vt 0.6914048 0.2110444
vt 0.6732821 0.1940792
vt 0.6914024 0.1958738
vt 0.6914048 0.2110444
vt 0.6732821 0.2128435
vt 0.7095245 0.19916
vt 0.7276448 0.2009175
vt 0.727643 0.2060047
vt 0.7095245 0.2077532
vt 0.6185606 0.2039081
vt 0.6185484 0.2039905
vt 0.6180363 0.2039061
vt 0.6180477 0.2038244
vt 0.6180477 0.2038244
vt 0.6180363 0.2039061
vt 0.6175261 0.2038659
vt 0.6175287 0.2037834
vt 0.6190543 0.2039496
vt 0.6190664 0.2040349
vt 0.6185484 0.2039905
vt 0.6185606 0.2039081
vt 0.6185484 0.2039905
vt 0.6185499 0.20422
vt 0.618038 0.2043108
vt 0.6180363 0.2039061
vt 0.6180363 0.2039061
vt 0.618038 0.2043108
vt 0.6175268 0.2043543
vt 0.6175261 0.2038659
vt 0.6190664 0.2040349
vt 0.6190675 0.2041665
vt 0.6185499 0.20422
vt 0.6185484 0.2039905
vt 0.6185499 0.20422
vt 0.6185633 0.2043022
vt 0.6180502 0.2043923
vt 0.618038 0.2043108
vt 0.618038 0.2043108
vt 0.6180502 0.2043923
vt 0.6175296 0.2044369
vt 0.6175268 0.2043543
vt 0.6190675 0.2041665
vt 0.6190569 0.204252
vt 0.6185633 0.2043022
vt 0.6185499 0.20422
vt 0.6191507 0.2040336
vt 0.6191518 0.2041663
vt 0.6190675 0.2041665
vt 0.6190664 0.2040349
vt 0.6731855 0.1754383
vt 0.672778 0.1752988
vt 0.6729624 0.1744642
vt 0.6735873 0.1748469
vt 0.6735864 0.1757059
vt 0.6731855 0.1754383
vt 0.6735873 0.1748469
vt 0.6740406 0.1752874
vt 0.6719891 0.1754546
vt 0.6715952 0.1757328
vt 0.6711304 0.1753261
vt 0.671572 0.1748738
vt 0.6723929 0.175304
vt 0.6719891 0.1754546
vt 0.671572 0.1748738
vt 0.6721865 0.1744746
vt 0.672778 0.1752988
vt 0.6723929 0.175304
vt 0.6721865 0.1744746
vt 0.6729624 0.1744642
vt 0.672608 0.1768033
vt 0.672663 0.176775
vt 0.6726457 0.1768231
vt 0.6726094 0.176845
vt 0.672608 0.1768033
vt 0.6726094 0.176845
vt 0.6725716 0.1768253
vt 0.6725513 0.1767768
vt 0.672608 0.1768033
vt 0.6725513 0.1767768
vt 0.672663 0.176775
vt 0.672663 0.176775
vt 0.672778 0.1752988
vt 0.6731855 0.1754383
vt 0.6728438 0.1767181
vt 0.6728438 0.1767181
vt 0.6731855 0.1754383
vt 0.6735864 0.1757059
vt 0.6729288 0.1767015
vt 0.6722813 0.1767103
vt 0.6715952 0.1757328
vt 0.6719891 0.1754546
vt 0.6723672 0.1767247
vt 0.6723672 0.1767247
vt 0.6719891 0.1754546
vt 0.6723929 0.175304
vt 0.6725513 0.1767768
vt 0.6725513 0.1767768
vt 0.6723929 0.175304
vt 0.672778 0.1752988
vt 0.672663 0.176775
vn -0.9510567 -0.3090165 0
vn -0.9510567 -0.3090166 0
vn -0.9510567 -0.3090166 0
vn -0.9510567 -0.3090165 0
vn -0.5877846 -0.8090175 0
vn -0.5877846 -0.8090174 0
vn -0.5877846 -0.8090174 0
vn -0.5877846 -0.8090175 0
vn 0 -1 0
vn 0 -1 0
vn 0 -1 0
vn 0 -1 0
vn -0.951057 0.3090153 0
vn -0.9510571 0.3090153 0
vn -0.9510571 0.3090153 0
vn -0.951057 0.3090153 0
vn 0.01092335 -0.1789321 0.9838008
vn 0.01092335 -0.1789321 0.9838008
vn 0.01092335 -0.1789321 0.9838008
vn 0.01092335 -0.1789321 0.9838008
vn 0.05644442 -0.07448506 0.9956234
vn 0.05644442 -0.07448506 0.9956234
vn 0.05644441 -0.07448506 0.9956234
vn 0.05644442 -0.07448506 0.9956234
vn 0 0.005416922 0.9999853
vn 0 0.005416922 0.9999853
vn 0 0.005416922 0.9999853
vn 0 0.005416922 0.9999853
vn -0.03531826 -0.08996114 0.9953188
vn -0.03531826 -0.08996115 0.9953188
vn -0.03531826 -0.08996115 0.9953188
vn -0.03531826 -0.08996114 0.9953188
vn 0.951056 0.3090183 0
vn 0.951056 0.3090183 0
vn 0.951056 0.3090184 0
vn 0.951056 0.3090184 0
vn 0.5877873 0.8090155 0
vn 0.5877873 0.8090155 0
vn 0.5877873 0.8090155 0
vn 0.5877873 0.8090155 0
vn 0 1 0
vn 0 1 0
vn 0 1 0
vn 0 1 0
vn 0.951057 -0.3090154 0
vn 0.951057 -0.3090154 0
vn 0.951057 -0.3090154 0
vn 0.951057 -0.3090154 0
vn 0.01092335 -0.1789322 -0.9838007
vn 0.01092335 -0.1789322 -0.9838007
vn 0.01092335 -0.1789322 -0.9838007
vn 0.01092335 -0.1789322 -0.9838007
vn 0.05644442 -0.07448506 -0.9956234
vn 0.05644442 -0.07448506 -0.9956234
vn 0.05644442 -0.07448506 -0.9956234
vn 0.05644441 -0.07448506 -0.9956234
vn 0 0.005416922 -0.9999853
vn 0 0.005416922 -0.9999853
vn 0 0.005416922 -0.9999853
vn 0 0.005416922 -0.9999853
vn -0.03531827 -0.08996112 -0.9953188
vn -0.03531827 -0.08996111 -0.9953188
vn -0.03531827 -0.08996111 -0.9953188
vn -0.03531827 -0.08996112 -0.9953188
vn -0.5877821 -0.8090193 0
vn -0.587782 -0.8090194 0
vn -0.587782 -0.8090194 0
vn -0.5877821 -0.8090193 0
vn 0.3072114 -0.08597026 -0.9477502
vn 0.3072114 -0.08597025 -0.9477502
vn 0.3072114 -0.08597025 -0.9477502
vn 0.3072114 -0.08597024 -0.9477501
vn -0.5671389 0.6101315 -0.5532568
vn -0.5671389 0.6101315 -0.5532568
vn -0.5671389 0.6101315 -0.5532568
vn -0.5671389 0.6101315 -0.5532568
vn -0.5671389 0.6101315 0.5532568
vn -0.5671389 0.6101315 0.5532568
vn -0.5671389 0.6101314 0.5532567
vn -0.5671389 0.6101315 0.5532568
vn 0.3072114 -0.08597019 0.9477501
vn 0.3072114 -0.08597019 0.9477501
vn 0.3072114 -0.08597019 0.9477501
vn 0.3072114 -0.08597019 0.9477501
vn 0.875299 -0.4835822 0
vn 0.875299 -0.4835822 0
vn 0.875299 -0.4835822 0
vn 0.875299 -0.4835822 0
vn -0.6126717 0.7903376 3.377058E-05
vn -0.6126717 0.7903376 3.377058E-05
vn -0.6126717 0.7903376 3.377058E-05
vn -0.6126074 0.7903874 0
vn -0.6126075 0.7903874 -4.823671E-06
vn -0.6126075 0.7903874 -4.823671E-06
vn -0.6126074 0.7903874 -4.82367E-06
vn -0.6126717 0.7903376 -3.377058E-05
vn -0.6126901 0.7903233 0
vn -0.6126901 0.7903233 0
vn -0.6126901 0.7903233 0
vn 0.3484301 0.3146439 -0.8829473
vn 0.34843 0.3146439 -0.8829471
vn 0.3484301 0.3146439 -0.8829473
vn 0.3484301 0.3146439 -0.8829473
vn -0.8209581 0.005178862 -0.570965
vn -0.8209581 0.005178863 -0.570965
vn -0.8209581 0.005178863 -0.570965
vn -0.8209581 0.005178863 -0.570965
vn -0.820958 0.005178975 0.5709651
vn -0.8209581 0.005178976 0.570965
vn -0.8209581 0.005178976 0.570965
vn -0.8209581 0.005178976 0.570965
vn 0.3484301 0.314644 0.8829471
vn 0.3484301 0.314644 0.882947
vn 0.3484301 0.314644 0.8829471
vn 0.3484301 0.314644 0.8829471
vn 0.9015444 0.4326867 0
vn 0.9015444 0.4326867 0
vn 0.9015444 0.4326867 0
vn 0.9015444 0.4326867 0
vn 0.9510565 -0.3090166 0
vn 0.9510565 -0.3090167 0
vn 0.9510565 -0.3090167 0
vn 0.9510565 -0.3090166 0
vn 0.5877846 -0.8090174 0
vn 0.5877846 -0.8090175 0
vn 0.5877846 -0.8090175 0
vn 0.5877846 -0.8090174 0
vn 0.9510571 0.3090153 0
vn 0.951057 0.3090153 0
vn 0.951057 0.3090153 0
vn 0.9510571 0.3090153 0
vn -0.01092337 -0.1789321 0.9838008
vn -0.01092337 -0.1789321 0.9838008
vn -0.01092337 -0.1789321 0.9838008
vn -0.01092337 -0.1789321 0.9838008
vn -0.05644438 -0.07448504 0.9956234
vn -0.05644438 -0.07448505 0.9956234
vn -0.05644438 -0.07448504 0.9956234
vn -0.05644438 -0.07448506 0.9956234
vn 0.03531827 -0.0899611 0.9953188
vn 0.03531828 -0.0899611 0.9953188
vn 0.03531828 -0.08996111 0.9953188
vn 0.03531828 -0.0899611 0.9953188
vn -0.951056 0.3090185 0
vn -0.951056 0.3090185 0
vn -0.951056 0.3090185 0
vn -0.951056 0.3090185 0
vn -0.5877873 0.8090155 0
vn -0.5877873 0.8090155 0
vn -0.5877873 0.8090155 0
vn -0.5877873 0.8090155 0
vn -0.951057 -0.3090154 0
vn -0.951057 -0.3090154 0
vn -0.951057 -0.3090154 0
vn -0.951057 -0.3090154 0
vn -0.01092337 -0.1789321 -0.9838008
vn -0.01092337 -0.1789321 -0.9838008
vn -0.01092337 -0.1789321 -0.9838008
vn -0.01092337 -0.1789321 -0.9838008
vn -0.05644448 -0.07448505 -0.9956234
vn -0.05644448 -0.07448506 -0.9956234
vn -0.05644449 -0.07448506 -0.9956234
vn -0.05644448 -0.07448504 -0.9956234
vn 0.03531827 -0.08996116 -0.9953188
vn 0.03531827 -0.08996114 -0.9953188
vn 0.03531827 -0.08996115 -0.9953188
vn 0.03531827 -0.08996116 -0.9953188
vn 0.5877822 -0.8090193 0
vn 0.5877822 -0.8090193 0
vn 0.5877822 -0.8090193 0
vn 0.5877822 -0.8090193 0
vn -0.3072114 -0.08597019 -0.9477501
vn -0.3072114 -0.08597019 -0.9477501
vn -0.3072114 -0.08597019 -0.9477501
vn -0.3072114 -0.08597019 -0.9477501
vn 0.5671389 0.6101315 -0.5532568
vn 0.5671389 0.6101315 -0.5532568
vn 0.5671389 0.6101314 -0.5532567
vn 0.5671389 0.6101315 -0.5532568
vn 0.5671389 0.6101315 0.5532568
vn 0.5671389 0.6101315 0.5532568
vn 0.5671389 0.6101315 0.5532568
vn 0.5671389 0.6101315 0.5532568
vn -0.3072114 -0.08597026 0.9477502
vn -0.3072114 -0.08597025 0.9477502
vn -0.3072114 -0.08597025 0.9477502
vn -0.3072114 -0.08597024 0.9477501
vn -0.875299 -0.4835822 0
vn -0.875299 -0.4835822 0
vn -0.875299 -0.4835822 0
vn -0.875299 -0.4835822 0
vn 0.6126717 0.7903376 3.377058E-05
vn 0.6126717 0.7903376 3.377058E-05
vn 0.6126717 0.7903376 3.377058E-05
vn 0.6126074 0.7903874 4.82367E-06
vn 0.6126075 0.7903874 0
vn 0.6126074 0.7903874 0
vn 0.6126075 0.7903874 0
vn 0.6126717 0.7903376 -3.377058E-05
vn 0.6126901 0.7903233 0
vn 0.6126901 0.7903233 0
vn 0.6126901 0.7903233 0
vn -0.3484301 0.314644 -0.8829471
vn -0.3484301 0.314644 -0.882947
vn -0.3484301 0.314644 -0.8829471
vn -0.3484301 0.314644 -0.8829471
vn 0.820958 0.005178975 -0.5709651
vn 0.8209581 0.005178976 -0.570965
vn 0.8209581 0.005178976 -0.570965
vn 0.8209581 0.005178976 -0.570965
vn 0.8209581 0.005178862 0.570965
vn 0.8209581 0.005178863 0.570965
vn 0.8209581 0.005178863 0.570965
vn 0.8209581 0.005178863 0.570965
vn -0.3484301 0.3146439 0.8829473
vn -0.34843 0.3146439 0.8829471
vn -0.3484301 0.3146439 0.8829473
vn -0.3484301 0.3146439 0.8829473
vn -0.9015444 0.4326867 0
vn -0.9015444 0.4326867 0
vn -0.9015444 0.4326867 0
vn -0.9015444 0.4326867 0
g meger3d_Char_sundries_C3_173_0
f 3/3/3 2/2/2 1/1/1
f 4/4/4 3/3/3 1/1/1
f 7/7/7 6/6/6 5/5/5
f 8/8/8 7/7/7 5/5/5
f 11/11/11 10/10/10 9/9/9
f 12/12/12 11/11/11 9/9/9
f 15/15/15 14/14/14 13/13/13
f 16/16/16 15/15/15 13/13/13
f 19/19/19 18/18/18 17/17/17
f 20/20/20 19/19/19 17/17/17
f 23/23/23 22/22/22 21/21/21
f 24/24/24 23/23/23 21/21/21
f 27/27/27 26/26/26 25/25/25
f 28/28/28 27/27/27 25/25/25
f 31/31/31 30/30/30 29/29/29
f 32/32/32 31/31/31 29/29/29
f 35/35/35 34/34/34 33/33/33
f 36/36/36 35/35/35 33/33/33
f 39/39/39 38/38/38 37/37/37
f 40/40/40 39/39/39 37/37/37
f 43/43/43 42/42/42 41/41/41
f 44/44/44 43/43/43 41/41/41
f 47/47/47 46/46/46 45/45/45
f 48/48/48 47/47/47 45/45/45
f 51/51/51 50/50/50 49/49/49
f 52/52/52 51/51/51 49/49/49
f 55/55/55 54/54/54 53/53/53
f 56/56/56 55/55/55 53/53/53
f 59/59/59 58/58/58 57/57/57
f 60/60/60 59/59/59 57/57/57
f 63/63/63 62/62/62 61/61/61
f 64/64/64 63/63/63 61/61/61
f 67/67/67 66/66/66 65/65/65
f 68/68/68 67/67/67 65/65/65
f 71/71/71 70/70/70 69/69/69
f 72/72/72 71/71/71 69/69/69
f 75/75/75 74/74/74 73/73/73
f 76/76/76 75/75/75 73/73/73
f 79/79/79 78/78/78 77/77/77
f 80/80/80 79/79/79 77/77/77
f 83/83/83 82/82/82 81/81/81
f 84/84/84 83/83/83 81/81/81
f 87/87/87 86/86/86 85/85/85
f 88/88/88 87/87/87 85/85/85
f 91/91/91 90/90/90 89/89/89
f 90/90/90 92/92/92 89/89/89
f 95/95/95 94/94/94 93/93/93
f 94/94/94 96/96/96 93/93/93
f 99/99/99 98/98/98 97/97/97
f 102/102/102 101/101/101 100/100/100
f 103/103/103 102/102/102 100/100/100
f 106/106/106 105/105/105 104/104/104
f 107/107/107 106/106/106 104/104/104
f 110/110/110 109/109/109 108/108/108
f 111/111/111 110/110/110 108/108/108
f 114/114/114 113/113/113 112/112/112
f 115/115/115 114/114/114 112/112/112
f 118/118/118 117/117/117 116/116/116
f 119/119/119 118/118/118 116/116/116
f 122/122/122 121/121/121 120/120/120
f 123/123/123 122/122/122 120/120/120
f 126/126/126 125/125/125 124/124/124
f 127/127/127 126/126/126 124/124/124
f 130/130/130 129/129/129 128/128/128
f 131/131/131 130/130/130 128/128/128
f 134/134/134 133/133/133 132/132/132
f 135/135/135 134/134/134 132/132/132
f 138/138/138 137/137/137 136/136/136
f 139/139/139 138/138/138 136/136/136
f 142/142/142 141/141/141 140/140/140
f 143/143/143 142/142/142 140/140/140
f 146/146/146 145/145/145 144/144/144
f 147/147/147 146/146/146 144/144/144
f 150/150/150 149/149/149 148/148/148
f 151/151/151 150/150/150 148/148/148
f 154/154/154 153/153/153 152/152/152
f 155/155/155 154/154/154 152/152/152
f 158/158/158 157/157/157 156/156/156
f 159/159/159 158/158/158 156/156/156
f 162/162/162 161/161/161 160/160/160
f 163/163/163 162/162/162 160/160/160
f 166/166/166 165/165/165 164/164/164
f 167/167/167 166/166/166 164/164/164
f 170/170/170 169/169/169 168/168/168
f 171/171/171 170/170/170 168/168/168
f 174/174/174 173/173/173 172/172/172
f 175/175/175 174/174/174 172/172/172
f 178/178/178 177/177/177 176/176/176
f 179/179/179 178/178/178 176/176/176
f 182/182/182 181/181/181 180/180/180
f 183/183/183 182/182/182 180/180/180
f 186/186/186 185/185/185 184/184/184
f 187/187/187 186/186/186 184/184/184
f 190/190/190 189/189/189 188/188/188
f 191/191/191 190/190/190 188/188/188
f 194/194/194 193/193/193 192/192/192
f 195/195/195 194/194/194 192/192/192
f 198/198/198 197/197/197 196/196/196
f 199/199/199 198/198/198 196/196/196
f 202/202/202 201/201/201 200/200/200
f 205/205/205 204/204/204 203/203/203
f 206/206/206 205/205/205 203/203/203
f 209/209/209 208/208/208 207/207/207
f 210/210/210 209/209/209 207/207/207
f 213/213/213 212/212/212 211/211/211
f 214/214/214 213/213/213 211/211/211
f 217/217/217 216/216/216 215/215/215
f 218/218/218 217/217/217 215/215/215
f 221/221/221 220/220/220 219/219/219
f 222/222/222 221/221/221 219/219/219
