g meger3d_Char_sundries_C8_6
v 0.1534201 0.06354858 -0.184587
v 0.2834817 0.1174225 -0.141277
v 0.2169681 0.2169675 -0.141277
v 0.1174222 0.1174225 -0.184587
v 0.1174222 0.2834823 -0.141277
v 0.06354827 0.1534195 -0.184587
v 0 0.3068405 -0.141277
v 0 0.1660596 -0.184587
v -0.1174219 0.2834823 -0.141277
v -0.06354797 0.1534195 -0.184587
v -0.2169681 0.2169696 -0.141277
v -0.1174219 0.1174225 -0.184587
v -0.283483 0.1174225 -0.141277
v -0.1534201 0.06354858 -0.184587
v -0.3068399 -6.103515E-07 -0.141277
v -0.1660599 -6.103515E-07 -0.184587
v -0.283483 -0.1174225 -0.141277
v -0.1534201 -0.06354766 -0.184587
v -0.2169681 -0.2169675 -0.141277
v -0.1174219 -0.1174225 -0.184587
v -0.1174219 -0.2834827 -0.141277
v -0.06354797 -0.1534204 -0.184587
v 0 -0.3068387 -0.141277
v 0 -0.1660605 -0.184587
v 0.1174222 -0.2834836 -0.141277
v 0.06354827 -0.1534204 -0.184587
v 0.2169681 -0.2169675 -0.141277
v 0.1174222 -0.1174225 -0.184587
v 0.2834817 -0.1174225 -0.141277
v 0.1534201 -0.06354766 -0.184587
v 0.3068399 -6.103515E-07 -0.141277
v 0.1660611 -6.103515E-07 -0.184587
v -0.1534201 -0.3703885 -0.084325
v 0 -0.4009055 -0.084325
v 0.1534201 -0.3703885 -0.084325
v 0.2834817 -0.2834836 -0.084325
v 0.3703879 -0.1534204 -0.084325
v 0.4009048 -6.103515E-07 -0.084325
v 0.3703879 0.1534195 -0.084325
v 0.2834817 0.2834823 -0.084325
v 0.1534201 0.3703885 -0.084325
v 0 0.4009045 -0.084325
v -0.1534201 0.3703885 -0.084325
v -0.283483 0.2834823 -0.084325
v -0.3703879 0.1534195 -0.084325
v -0.4009048 -6.103515E-07 -0.084325
v -0.3703879 -0.1534186 -0.084325
v -0.283483 -0.2834827 -0.084325
v -0.1660599 0.4009045 0
v 0 0.4339364 0
v -0.306839 0.3068405 0
v -0.4009048 0.1660596 0
v -0.4339359 -6.103515E-07 0
v -0.4009048 -0.1660605 0
v -0.3068399 -0.3068387 0
v -0.1660599 -0.4009055 0
v 0 -0.4339364 0
v 0.1660599 -0.4009055 0
v 0.3068399 -0.3068387 0
v 0.4009048 -0.1660605 0
v 0.4339359 -6.103515E-07 0
v 0.4009048 0.1660596 0
v 0.3068399 0.3068405 0
v 0.1660611 0.4009045 0
v 0.4009048 0.1660596 0
v 0.3703879 0.1534195 0.084325
v 0.2834817 0.2834823 0.084325
v 0.3068399 0.3068405 0
v 0.1534201 0.3703885 0.084325
v 0.1660611 0.4009045 0
v 0 0.4009045 0.084325
v 0 0.4339364 0
v -0.1534201 0.3703885 0.084325
v -0.1660599 0.4009045 0
v -0.283483 0.2834823 0.084325
v -0.306839 0.3068405 0
v -0.3703879 0.1534195 0.084325
v -0.4009048 0.1660596 0
v -0.4009048 -6.103515E-07 0.084325
v -0.4339359 -6.103515E-07 0
v -0.3703879 -0.1534186 0.084325
v -0.4009048 -0.1660605 0
v -0.283483 -0.2834827 0.084325
v -0.3068399 -0.3068387 0
v -0.1534201 -0.3703885 0.084325
v -0.1660599 -0.4009055 0
v 0 -0.4009055 0.084325
v 0 -0.4339364 0
v 0.1534201 -0.3703885 0.084325
v 0.1660599 -0.4009055 0
v 0.2834817 -0.2834836 0.084325
v 0.3068399 -0.3068387 0
v 0.3703879 -0.1534204 0.084325
v 0.4009048 -0.1660605 0
v 0.4009048 -6.103515E-07 0.084325
v 0.4339359 -6.103515E-07 0
v -0.1174219 -0.2834836 0.141277
v 0 -0.3068387 0.141277
v 0.1174222 -0.2834836 0.141277
v 0.2169681 -0.2169675 0.141277
v 0.2834817 -0.1174225 0.141277
v 0.3068399 -6.103515E-07 0.141277
v 0.2834817 0.1174225 0.141277
v 0.2169681 0.2169675 0.141277
v 0.1174222 0.2834823 0.141277
v 0 0.3068405 0.141277
v -0.1174219 0.2834823 0.141277
v -0.2169681 0.2169696 0.141277
v -0.283483 0.1174225 0.141277
v -0.3068399 -6.103515E-07 0.141277
v -0.283483 -0.1174225 0.141277
v -0.2169681 -0.2169675 0.141277
v -0.06354797 0.1534195 0.184587
v 0 0.1660596 0.184587
v -0.1174219 0.1174225 0.184587
v -0.1534201 0.06354858 0.184587
v -0.1660599 -6.103515E-07 0.184587
v -0.1534201 -0.06354766 0.184587
v -0.1174219 -0.1174225 0.184587
v -0.06354797 -0.1534204 0.184587
v 0 -0.1660605 0.184587
v 0.06354827 -0.1534204 0.184587
v 0.1174222 -0.1174225 0.184587
v 0.1534201 -0.06354766 0.184587
v 0.1660611 -6.103515E-07 0.184587
v 0.1534201 0.06354858 0.184587
v 0.1174222 0.1174225 0.184587
v 0.06354827 0.1534195 0.184587
v 0 -6.103515E-07 0.199796
v 0 -6.103515E-07 -0.199796
vt 0.720584 0.346718
vt 0.737477 0.353709
vt 0.728838 0.366627
vt 0.71591 0.353709
vt 0.71591 0.375259
vt 0.708913 0.358381
vt 0.700659 0.378289
vt 0.700659 0.36002
vt 0.68541 0.375259
vt 0.692407 0.358381
vt 0.672481 0.366627
vt 0.68541 0.353709
vt 0.663842 0.353709
vt 0.680734 0.346718
vt 0.660809 0.33847
vt 0.679093 0.33847
vt 0.663842 0.323233
vt 0.680734 0.330224
vt 0.672481 0.310315
vt 0.68541 0.323233
vt 0.68541 0.301683
vt 0.692407 0.318562
vt 0.700659 0.298653
vt 0.700659 0.316922
vt 0.71591 0.301683
vt 0.708913 0.318562
vt 0.728838 0.310315
vt 0.71591 0.323233
vt 0.737477 0.323233
vt 0.720584 0.330224
vt 0.740509 0.33847
vt 0.722226 0.33847
vt 0.680734 0.290405
vt 0.700659 0.286446
vt 0.720584 0.290405
vt 0.737477 0.301683
vt 0.748763 0.318562
vt 0.752726 0.33847
vt 0.748763 0.358381
vt 0.737477 0.375259
vt 0.720584 0.386536
vt 0.700659 0.390496
vt 0.680734 0.386536
vt 0.663842 0.375259
vt 0.652556 0.358381
vt 0.648593 0.33847
vt 0.652556 0.318562
vt 0.663842 0.301683
vt 0.679093 0.390496
vt 0.700659 0.394782
vt 0.660809 0.378289
vt 0.648593 0.36002
vt 0.644303 0.33847
vt 0.648593 0.316922
vt 0.660809 0.298653
vt 0.679093 0.286446
vt 0.700659 0.28216
vt 0.722226 0.286446
vt 0.740509 0.298653
vt 0.752726 0.316922
vt 0.757017 0.33847
vt 0.752726 0.36002
vt 0.740509 0.378289
vt 0.722226 0.390496
vt 0.752726 0.36002
vt 0.748763 0.358381
vt 0.737477 0.375259
vt 0.740509 0.378289
vt 0.720584 0.386536
vt 0.722226 0.390496
vt 0.700659 0.390496
vt 0.700659 0.394782
vt 0.680734 0.386536
vt 0.679093 0.390496
vt 0.663842 0.375259
vt 0.660809 0.378289
vt 0.652556 0.358381
vt 0.648593 0.36002
vt 0.648593 0.33847
vt 0.644303 0.33847
vt 0.652556 0.318562
vt 0.648593 0.316922
vt 0.663842 0.301683
vt 0.660809 0.298653
vt 0.680734 0.290405
vt 0.679093 0.286446
vt 0.700659 0.286446
vt 0.700659 0.28216
vt 0.720584 0.290405
vt 0.722226 0.286446
vt 0.737477 0.301683
vt 0.740509 0.298653
vt 0.748763 0.318562
vt 0.752726 0.316922
vt 0.752726 0.33847
vt 0.757017 0.33847
vt 0.68541 0.301683
vt 0.700659 0.298653
vt 0.71591 0.301683
vt 0.728838 0.310315
vt 0.737477 0.323233
vt 0.740509 0.33847
vt 0.737477 0.353709
vt 0.728838 0.366627
vt 0.71591 0.375259
vt 0.700659 0.378289
vt 0.68541 0.375259
vt 0.672481 0.366627
vt 0.663842 0.353709
vt 0.660809 0.33847
vt 0.663842 0.323233
vt 0.672481 0.310315
vt 0.692407 0.358381
vt 0.700659 0.36002
vt 0.68541 0.353709
vt 0.680734 0.346718
vt 0.679093 0.33847
vt 0.680734 0.330224
vt 0.68541 0.323233
vt 0.692407 0.318562
vt 0.700659 0.316922
vt 0.708913 0.318562
vt 0.71591 0.323233
vt 0.720584 0.330224
vt 0.722226 0.33847
vt 0.720584 0.346718
vt 0.71591 0.353709
vt 0.708913 0.358381
vt 0.700659 0.33847
vt 0.700659 0.33847
vn 0.2280965 0.09448169 -0.9690434
vn 0.3953688 0.1637687 -0.9038049
vn 0.302603 0.3026019 -0.903805
vn 0.174577 0.174578 -0.9690436
vn 0.1637682 0.3953677 -0.9038054
vn 0.09448081 0.2280959 -0.9690437
vn 0 0.4279447 -0.9038049
vn 0 0.246888 -0.969044
vn -0.1637662 0.3953685 -0.9038056
vn -0.09447964 0.228096 -0.9690438
vn -0.3026016 0.3026033 -0.9038051
vn -0.1745756 0.1745774 -0.9690439
vn -0.3953694 0.1637669 -0.903805
vn -0.2280961 0.09448015 -0.9690437
vn -0.4279451 0 -0.9038048
vn -0.2468888 0 -0.9690438
vn -0.3953689 -0.1637688 -0.9038049
vn -0.2280957 -0.09448104 -0.9690437
vn -0.302602 -0.3026013 -0.9038056
vn -0.1745772 -0.1745775 -0.9690436
vn -0.163767 -0.395368 -0.9038057
vn -0.09448111 -0.2280971 -0.9690433
vn -8.691833E-07 -0.4279436 -0.9038054
vn -5.736014E-07 -0.2468905 -0.9690433
vn 0.1637669 -0.3953686 -0.9038054
vn 0.09448081 -0.2280965 -0.9690436
vn 0.3026029 -0.3026001 -0.9038057
vn 0.1745783 -0.1745767 -0.9690436
vn 0.395368 -0.1637689 -0.9038053
vn 0.2280962 -0.09448209 -0.9690434
vn 0.4279453 0 -0.9038047
vn 0.2468903 0 -0.9690434
vn -0.2980044 -0.7194422 -0.6273725
vn -4.23858E-07 -0.7787195 -0.6273723
vn 0.2980043 -0.7194433 -0.6273713
vn 0.550637 -0.5506388 -0.6273721
vn 0.7194428 -0.2980043 -0.6273719
vn 0.7787203 0 -0.6273714
vn 0.7194431 0.2980028 -0.6273722
vn 0.5506371 0.5506349 -0.6273754
vn 0.2980027 0.7194431 -0.6273723
vn 0 0.778721 -0.6273704
vn -0.2980032 0.7194452 -0.6273698
vn -0.5506403 0.5506372 -0.6273707
vn -0.7194454 0.2980027 -0.6273696
vn -0.7787217 0 -0.6273694
vn -0.7194443 -0.2980021 -0.6273713
vn -0.5506387 -0.5506371 -0.6273721
vn -0.3826814 0.9238803 0
vn 0 1 0
vn -0.7071062 0.7071072 0
vn -0.9238805 0.382681 0
vn -1 0 0
vn -0.9238792 -0.3826841 0
vn -0.707109 -0.7071045 0
vn -0.3826835 -0.9238794 0
vn 0 -1 0
vn 0.3826831 -0.9238797 0
vn 0.7071093 -0.7071043 0
vn 0.9238797 -0.3826831 0
vn 1 0 0
vn 0.9238803 0.3826815 0
vn 0.7071087 0.7071049 0
vn 0.3826831 0.9238797 0
vn 0.9238803 0.3826815 0
vn 0.7194431 0.2980028 0.6273722
vn 0.5506371 0.5506349 0.6273754
vn 0.7071087 0.7071049 0
vn 0.2980027 0.7194431 0.6273723
vn 0.3826831 0.9238797 0
vn 0 0.778721 0.6273704
vn 0 1 0
vn -0.2980032 0.7194452 0.6273698
vn -0.3826814 0.9238803 0
vn -0.5506404 0.5506371 0.6273706
vn -0.7071062 0.7071072 0
vn -0.7194454 0.2980027 0.6273696
vn -0.9238805 0.382681 0
vn -0.7787217 0 0.6273694
vn -1 0 0
vn -0.7194443 -0.2980022 0.6273712
vn -0.9238792 -0.3826841 0
vn -0.5506393 -0.5506372 0.6273716
vn -0.707109 -0.7071045 0
vn -0.2980048 -0.719443 0.6273714
vn -0.3826835 -0.9238794 0
vn 0 -0.7787201 0.6273714
vn 0 -1 0
vn 0.2980043 -0.7194433 0.6273713
vn 0.3826831 -0.9238797 0
vn 0.5506371 -0.5506389 0.6273721
vn 0.7071093 -0.7071043 0
vn 0.7194428 -0.2980043 0.6273719
vn 0.9238797 -0.3826831 0
vn 0.7787203 0 0.6273713
vn 1 0 0
vn -0.163767 -0.3953685 0.9038053
vn 0 -0.4279436 0.9038054
vn 0.1637669 -0.3953686 0.9038054
vn 0.3026029 -0.3026001 0.9038057
vn 0.395368 -0.1637689 0.9038053
vn 0.4279453 0 0.9038047
vn 0.3953688 0.1637687 0.9038049
vn 0.302603 0.3026018 0.9038051
vn 0.1637683 0.3953676 0.9038056
vn 0 0.4279447 0.9038049
vn -0.1637663 0.3953685 0.9038056
vn -0.3026015 0.3026032 0.9038051
vn -0.3953693 0.1637669 0.903805
vn -0.4279452 0 0.9038048
vn -0.3953689 -0.1637688 0.9038049
vn -0.3026026 -0.3026009 0.9038056
vn -0.09447967 0.2280959 0.9690438
vn 0 0.246888 0.969044
vn -0.1745756 0.1745774 0.9690439
vn -0.228096 0.09448016 0.9690437
vn -0.2468888 0 0.9690438
vn -0.2280956 -0.09448104 0.9690437
vn -0.1745775 -0.1745771 0.9690436
vn -0.09448096 -0.2280964 0.9690436
vn 0 -0.2468902 0.9690434
vn 0.09448081 -0.2280965 0.9690436
vn 0.1745783 -0.1745767 0.9690436
vn 0.2280962 -0.09448209 0.9690434
vn 0.2468904 0 0.9690434
vn 0.2280965 0.0944817 0.9690434
vn 0.1745771 0.174578 0.9690436
vn 0.09448083 0.2280959 0.9690437
vn 0 -1.727858E-07 1
vn 0 -1.729664E-07 -1
g meger3d_Char_sundries_C8_6_0
f 3/3/3 2/2/2 1/1/1
f 4/4/4 3/3/3 1/1/1
f 5/5/5 3/3/3 4/4/4
f 6/6/6 5/5/5 4/4/4
f 7/7/7 5/5/5 6/6/6
f 8/8/8 7/7/7 6/6/6
f 9/9/9 7/7/7 8/8/8
f 10/10/10 9/9/9 8/8/8
f 11/11/11 9/9/9 10/10/10
f 12/12/12 11/11/11 10/10/10
f 13/13/13 11/11/11 12/12/12
f 14/14/14 13/13/13 12/12/12
f 15/15/15 13/13/13 14/14/14
f 16/16/16 15/15/15 14/14/14
f 17/17/17 15/15/15 16/16/16
f 18/18/18 17/17/17 16/16/16
f 19/19/19 17/17/17 18/18/18
f 20/20/20 19/19/19 18/18/18
f 21/21/21 19/19/19 20/20/20
f 22/22/22 21/21/21 20/20/20
f 23/23/23 21/21/21 22/22/22
f 24/24/24 23/23/23 22/22/22
f 25/25/25 23/23/23 24/24/24
f 26/26/26 25/25/25 24/24/24
f 27/27/27 25/25/25 26/26/26
f 28/28/28 27/27/27 26/26/26
f 29/29/29 27/27/27 28/28/28
f 30/30/30 29/29/29 28/28/28
f 31/31/31 29/29/29 30/30/30
f 32/32/32 31/31/31 30/30/30
f 2/2/2 31/31/31 32/32/32
f 1/1/1 2/2/2 32/32/32
f 21/21/21 33/33/33 19/19/19
f 34/34/34 33/33/33 21/21/21
f 23/23/23 34/34/34 21/21/21
f 35/35/35 34/34/34 23/23/23
f 25/25/25 35/35/35 23/23/23
f 36/36/36 35/35/35 25/25/25
f 27/27/27 36/36/36 25/25/25
f 37/37/37 36/36/36 27/27/27
f 29/29/29 37/37/37 27/27/27
f 38/38/38 37/37/37 29/29/29
f 31/31/31 38/38/38 29/29/29
f 39/39/39 38/38/38 31/31/31
f 2/2/2 39/39/39 31/31/31
f 40/40/40 39/39/39 2/2/2
f 3/3/3 40/40/40 2/2/2
f 41/41/41 40/40/40 3/3/3
f 5/5/5 41/41/41 3/3/3
f 42/42/42 41/41/41 5/5/5
f 7/7/7 42/42/42 5/5/5
f 43/43/43 42/42/42 7/7/7
f 9/9/9 43/43/43 7/7/7
f 44/44/44 43/43/43 9/9/9
f 11/11/11 44/44/44 9/9/9
f 45/45/45 44/44/44 11/11/11
f 13/13/13 45/45/45 11/11/11
f 46/46/46 45/45/45 13/13/13
f 15/15/15 46/46/46 13/13/13
f 47/47/47 46/46/46 15/15/15
f 17/17/17 47/47/47 15/15/15
f 48/48/48 47/47/47 17/17/17
f 19/19/19 48/48/48 17/17/17
f 33/33/33 48/48/48 19/19/19
f 43/43/43 49/49/49 42/42/42
f 49/49/49 50/50/50 42/42/42
f 51/51/51 49/49/49 43/43/43
f 44/44/44 51/51/51 43/43/43
f 52/52/52 51/51/51 44/44/44
f 45/45/45 52/52/52 44/44/44
f 53/53/53 52/52/52 45/45/45
f 46/46/46 53/53/53 45/45/45
f 54/54/54 53/53/53 46/46/46
f 47/47/47 54/54/54 46/46/46
f 55/55/55 54/54/54 47/47/47
f 48/48/48 55/55/55 47/47/47
f 56/56/56 55/55/55 48/48/48
f 33/33/33 56/56/56 48/48/48
f 57/57/57 56/56/56 33/33/33
f 34/34/34 57/57/57 33/33/33
f 58/58/58 57/57/57 34/34/34
f 35/35/35 58/58/58 34/34/34
f 59/59/59 58/58/58 35/35/35
f 36/36/36 59/59/59 35/35/35
f 60/60/60 59/59/59 36/36/36
f 37/37/37 60/60/60 36/36/36
f 61/61/61 60/60/60 37/37/37
f 38/38/38 61/61/61 37/37/37
f 62/62/62 61/61/61 38/38/38
f 39/39/39 62/62/62 38/38/38
f 63/63/63 62/62/62 39/39/39
f 40/40/40 63/63/63 39/39/39
f 64/64/64 63/63/63 40/40/40
f 41/41/41 64/64/64 40/40/40
f 50/50/50 64/64/64 41/41/41
f 42/42/42 50/50/50 41/41/41
f 67/67/67 66/66/66 65/65/65
f 68/68/68 67/67/67 65/65/65
f 69/69/69 67/67/67 68/68/68
f 70/70/70 69/69/69 68/68/68
f 71/71/71 69/69/69 70/70/70
f 72/72/72 71/71/71 70/70/70
f 73/73/73 71/71/71 72/72/72
f 74/74/74 73/73/73 72/72/72
f 75/75/75 73/73/73 74/74/74
f 76/76/76 75/75/75 74/74/74
f 77/77/77 75/75/75 76/76/76
f 78/78/78 77/77/77 76/76/76
f 79/79/79 77/77/77 78/78/78
f 80/80/80 79/79/79 78/78/78
f 81/81/81 79/79/79 80/80/80
f 82/82/82 81/81/81 80/80/80
f 83/83/83 81/81/81 82/82/82
f 84/84/84 83/83/83 82/82/82
f 85/85/85 83/83/83 84/84/84
f 86/86/86 85/85/85 84/84/84
f 87/87/87 85/85/85 86/86/86
f 88/88/88 87/87/87 86/86/86
f 89/89/89 87/87/87 88/88/88
f 90/90/90 89/89/89 88/88/88
f 91/91/91 89/89/89 90/90/90
f 92/92/92 91/91/91 90/90/90
f 93/93/93 91/91/91 92/92/92
f 94/94/94 93/93/93 92/92/92
f 95/95/95 93/93/93 94/94/94
f 96/96/96 95/95/95 94/94/94
f 66/66/66 95/95/95 96/96/96
f 65/65/65 66/66/66 96/96/96
f 85/85/85 97/97/97 83/83/83
f 98/98/98 97/97/97 85/85/85
f 87/87/87 98/98/98 85/85/85
f 99/99/99 98/98/98 87/87/87
f 89/89/89 99/99/99 87/87/87
f 100/100/100 99/99/99 89/89/89
f 91/91/91 100/100/100 89/89/89
f 101/101/101 100/100/100 91/91/91
f 93/93/93 101/101/101 91/91/91
f 102/102/102 101/101/101 93/93/93
f 95/95/95 102/102/102 93/93/93
f 103/103/103 102/102/102 95/95/95
f 66/66/66 103/103/103 95/95/95
f 104/104/104 103/103/103 66/66/66
f 67/67/67 104/104/104 66/66/66
f 105/105/105 104/104/104 67/67/67
f 69/69/69 105/105/105 67/67/67
f 106/106/106 105/105/105 69/69/69
f 71/71/71 106/106/106 69/69/69
f 107/107/107 106/106/106 71/71/71
f 73/73/73 107/107/107 71/71/71
f 108/108/108 107/107/107 73/73/73
f 75/75/75 108/108/108 73/73/73
f 109/109/109 108/108/108 75/75/75
f 77/77/77 109/109/109 75/75/75
f 110/110/110 109/109/109 77/77/77
f 79/79/79 110/110/110 77/77/77
f 111/111/111 110/110/110 79/79/79
f 81/81/81 111/111/111 79/79/79
f 112/112/112 111/111/111 81/81/81
f 83/83/83 112/112/112 81/81/81
f 97/97/97 112/112/112 83/83/83
f 107/107/107 113/113/113 106/106/106
f 113/113/113 114/114/114 106/106/106
f 115/115/115 113/113/113 107/107/107
f 108/108/108 115/115/115 107/107/107
f 116/116/116 115/115/115 108/108/108
f 109/109/109 116/116/116 108/108/108
f 117/117/117 116/116/116 109/109/109
f 110/110/110 117/117/117 109/109/109
f 118/118/118 117/117/117 110/110/110
f 111/111/111 118/118/118 110/110/110
f 119/119/119 118/118/118 111/111/111
f 112/112/112 119/119/119 111/111/111
f 120/120/120 119/119/119 112/112/112
f 97/97/97 120/120/120 112/112/112
f 121/121/121 120/120/120 97/97/97
f 98/98/98 121/121/121 97/97/97
f 122/122/122 121/121/121 98/98/98
f 99/99/99 122/122/122 98/98/98
f 123/123/123 122/122/122 99/99/99
f 100/100/100 123/123/123 99/99/99
f 124/124/124 123/123/123 100/100/100
f 101/101/101 124/124/124 100/100/100
f 125/125/125 124/124/124 101/101/101
f 102/102/102 125/125/125 101/101/101
f 126/126/126 125/125/125 102/102/102
f 103/103/103 126/126/126 102/102/102
f 127/127/127 126/126/126 103/103/103
f 104/104/104 127/127/127 103/103/103
f 128/128/128 127/127/127 104/104/104
f 105/105/105 128/128/128 104/104/104
f 114/114/114 128/128/128 105/105/105
f 106/106/106 114/114/114 105/105/105
f 127/127/127 129/129/129 126/126/126
f 128/128/128 129/129/129 127/127/127
f 114/114/114 129/129/129 128/128/128
f 124/124/124 129/129/129 123/123/123
f 125/125/125 129/129/129 124/124/124
f 126/126/126 129/129/129 125/125/125
f 113/113/113 129/129/129 114/114/114
f 115/115/115 129/129/129 113/113/113
f 116/116/116 129/129/129 115/115/115
f 117/117/117 129/129/129 116/116/116
f 118/118/118 129/129/129 117/117/117
f 119/119/119 129/129/129 118/118/118
f 120/120/120 129/129/129 119/119/119
f 121/121/121 129/129/129 120/120/120
f 122/122/122 129/129/129 121/121/121
f 123/123/123 129/129/129 122/122/122
f 1/1/1 130/130/130 4/4/4
f 4/4/4 130/130/130 6/6/6
f 6/6/6 130/130/130 8/8/8
f 8/8/8 130/130/130 10/10/10
f 10/10/10 130/130/130 12/12/12
f 12/12/12 130/130/130 14/14/14
f 14/14/14 130/130/130 16/16/16
f 16/16/16 130/130/130 18/18/18
f 18/18/18 130/130/130 20/20/20
f 20/20/20 130/130/130 22/22/22
f 22/22/22 130/130/130 24/24/24
f 24/24/24 130/130/130 26/26/26
f 26/26/26 130/130/130 28/28/28
f 28/28/28 130/130/130 30/30/30
f 30/30/30 130/130/130 32/32/32
f 32/32/32 130/130/130 1/1/1
