g meger3d_Char_outdoor_C1_1
v 0.1472519 -0.2016471 -0.1069848
v 0.1472519 -0.1123519 -0.1069848
v 0.05624523 -0.1123519 -0.1731049
v 0.05624523 -0.2016471 -0.1731049
v -0.05624419 -0.1123519 -0.1731049
v -0.05624419 -0.2016471 -0.1731049
v -0.1472508 -0.1123519 -0.1069847
v -0.1472508 -0.2016471 -0.1069847
v -0.1820119 -0.1123519 1.084884E-08
v -0.1820119 -0.2016471 1.084884E-08
v 0.1820136 -0.2016471 0
v 0.1820136 -0.1123519 0
v -0.1820119 -0.2016471 1.084884E-08
v -0.1820119 -0.1123519 1.084884E-08
v -0.1472508 -0.1123519 0.1069847
v -0.1472508 -0.2016471 0.1069847
v -0.05624419 -0.1123519 0.1731049
v -0.05624419 -0.2016471 0.1731049
v 0.05624523 -0.1123519 0.1731049
v 0.05624523 -0.2016471 0.1731049
v 0.1472519 -0.1123519 0.1069847
v 0.1472519 -0.2016471 0.1069847
v 0.1820136 -0.1123519 0
v 0.1820136 -0.2016471 0
v 0.1472519 -0.1123519 -0.1069848
v 1.388651E-06 -0.005643131 -1.069694E-08
v 0.05624523 -0.1123519 -0.1731049
v -0.05624419 -0.1123519 -0.1731049
v -0.1472508 -0.1123519 -0.1069847
v -0.1820119 -0.1123519 1.084884E-08
v 0.1820136 -0.1123519 0
v -0.1820119 -0.1123519 1.084884E-08
v 1.388651E-06 -0.005643131 -1.069694E-08
v -0.1472508 -0.1123519 0.1069847
v -0.05624419 -0.1123519 0.1731049
v 0.05624523 -0.1123519 0.1731049
v 0.1472519 -0.1123519 0.1069847
v 0.1820136 -0.1123519 0
v -0.1472508 -0.2599392 -0.1069847
v -0.1472508 -0.2016471 -0.1069847
v -0.1820119 -0.2016471 1.084884E-08
v -0.1820119 -0.2599392 1.084884E-08
v -0.1472508 -0.2016471 0.1069847
v -0.1472508 -0.2599392 0.1069847
v -0.05624419 -0.2016471 0.1731049
v -0.05624419 -0.2599392 0.1731049
v 0.05624523 -0.2016471 0.1731049
v 0.05624523 -0.2599392 0.1731049
v 0.1472519 -0.2016471 0.1069847
v 0.1472519 -0.2599392 0.1069847
v 0.1820136 -0.2016471 0
v 0.1820136 -0.2599392 0
v -0.05624419 -0.2599392 -0.1731049
v -0.05624419 -0.2016471 -0.1731049
v 0.05624523 -0.2599392 -0.1731049
v 0.05624523 -0.2016471 -0.1731049
v 0.1472519 -0.2599392 -0.1069848
v 0.1472519 -0.2016471 -0.1069848
v 0.1820136 -0.2599392 0
v 0.1820136 -0.2016471 0
v 0.1820136 -0.2599392 0
v 0.1224148 -0.2599392 4.584237E-09
v 0.09903582 -0.2599392 0.07195318
v 0.1472519 -0.2599392 0.1069847
v 0.03782929 -0.2599392 0.1164227
v 0.05624523 -0.2599392 0.1731049
v -0.03782686 -0.2599392 0.1164227
v -0.05624419 -0.2599392 0.1731049
v -0.09903477 -0.2599392 0.07195319
v -0.1472508 -0.2599392 0.1069847
v -0.1224138 -0.2599392 1.188068E-08
v -0.1820119 -0.2599392 1.084884E-08
v -0.09903477 -0.2599392 -0.07195316
v -0.1472508 -0.2599392 -0.1069847
v -0.03782686 -0.2599392 -0.1164227
v -0.05624419 -0.2599392 -0.1731049
v 0.03782929 -0.2599392 -0.1164227
v 0.05624523 -0.2599392 -0.1731049
v 0.09903582 -0.2599392 -0.07195319
v 0.1472519 -0.2599392 -0.1069848
v 0.09903582 -0.2599392 0.07195318
v 1.388651E-06 -0.282386 3.292984E-10
v 0.03782929 -0.2599392 0.1164227
v -0.03782686 -0.2599392 0.1164227
v -0.09903477 -0.2599392 0.07195319
v -0.1224138 -0.2599392 1.188068E-08
v -0.09903477 -0.2599392 -0.07195316
v -0.03782686 -0.2599392 -0.1164227
v 0.03782929 -0.2599392 -0.1164227
v 0.09903582 -0.2599392 -0.07195319
v 0.1224148 -0.2599392 4.584237E-09
v 0.08808144 0.400204 -0.06399471
v 0.08808144 0.4910607 -0.06399471
v 0.03364528 0.4910607 -0.1035456
v 0.03364528 0.400204 -0.1035456
v -0.0336425 0.4910607 -0.1035456
v -0.0336425 0.400204 -0.1035456
v -0.08808041 0.4910607 -0.06399469
v -0.08808041 0.400204 -0.06399469
v -0.1088741 0.4910607 6.489412E-09
v -0.1088741 0.400204 6.489412E-09
v 0.1088751 0.400204 0
v 0.1088751 0.4910607 0
v -0.1088741 0.400204 6.489412E-09
v -0.1088741 0.4910607 6.489412E-09
v -0.08808041 0.4910607 0.0639947
v -0.08808041 0.400204 0.0639947
v -0.0336425 0.4910607 0.1035456
v -0.0336425 0.400204 0.1035456
v 0.03364528 0.4910607 0.1035456
v 0.03364528 0.400204 0.1035456
v 0.08808144 0.4910607 0.06399469
v 0.08808144 0.400204 0.06399469
v 0.1088751 0.4910607 0
v 0.1088751 0.400204 0
v 0.08808144 0.4910607 -0.06399471
v 1.388651E-06 0.4910607 -3.893647E-10
v 0.03364528 0.4910607 -0.1035456
v -0.0336425 0.4910607 -0.1035456
v -0.08808041 0.4910607 -0.06399469
v -0.1088741 0.4910607 6.489412E-09
v -0.08808041 0.4910607 0.0639947
v -0.0336425 0.4910607 0.1035456
v 0.03364528 0.4910607 0.1035456
v 0.08808144 0.4910607 0.06399469
v 0.1088751 0.4910607 0
v -0.08808041 -0.09577145 -0.06399469
v -0.08808041 0.400204 -0.06399469
v -0.1088741 0.400204 6.489412E-09
v -0.1088741 -0.09577145 6.489412E-09
v -0.1088741 -0.09577145 6.489412E-09
v -0.1088741 0.400204 6.489412E-09
v -0.08808041 0.400204 0.0639947
v -0.08808041 -0.09577145 0.0639947
v -0.08808041 -0.09577145 0.0639947
v -0.08808041 0.400204 0.0639947
v -0.0336425 0.400204 0.1035456
v -0.0336425 -0.09577145 0.1035456
v -0.0336425 -0.09577145 0.1035456
v -0.0336425 0.400204 0.1035456
v 0.03364528 0.400204 0.1035456
v 0.03364528 -0.09577145 0.1035456
v 0.03364528 -0.09577145 0.1035456
v 0.03364528 0.400204 0.1035456
v 0.08808144 0.400204 0.06399469
v 0.08808144 -0.09577145 0.06399469
v 0.08808144 -0.09577145 0.06399469
v 0.08808144 0.400204 0.06399469
v 0.1088751 0.400204 0
v 0.1088751 -0.09577145 0
v 0.1088751 -0.09577145 0
v 0.1088751 0.400204 0
v 0.08808144 0.400204 -0.06399471
v 0.08808144 -0.09577145 -0.06399471
v 0.08808144 -0.09577145 -0.06399471
v 0.08808144 0.400204 -0.06399471
v 0.03364528 0.400204 -0.1035456
v 0.03364528 -0.09577145 -0.1035456
v 0.03364528 -0.09577145 -0.1035456
v 0.03364528 0.400204 -0.1035456
v -0.0336425 0.400204 -0.1035456
v -0.0336425 -0.09577145 -0.1035456
v -0.0336425 -0.09577145 -0.1035456
v -0.0336425 0.400204 -0.1035456
v -0.08808041 0.400204 -0.06399469
v -0.08808041 -0.09577145 -0.06399469
v -0.1181773 0.124285 0.03766852
v -0.1181773 0.2787814 0.03766852
v -0.08552043 0.2787814 0.03766852
v -0.08552043 0.124285 0.03766852
v -0.1181773 0.2787814 0.03766852
v -0.1181773 0.2787814 -0.03766852
v -0.08552043 0.2787814 -0.03766852
v -0.08552043 0.2787814 0.03766852
v -0.1181773 0.2787814 -0.03766852
v -0.1181773 0.124285 -0.03766852
v -0.08552043 0.124285 -0.03766852
v -0.08552043 0.2787814 -0.03766852
v -0.1181773 0.124285 -0.03766852
v -0.1181773 0.124285 0.03766852
v -0.08552043 0.124285 0.03766852
v -0.08552043 0.124285 -0.03766852
v -0.1181773 0.124285 -0.03766852
v -0.1181773 0.2787814 -0.03766852
v -0.1181773 0.2787814 0.03766852
v -0.1181773 0.124285 0.03766852
v -0.1366874 0.1490519 0.02101208
v -0.1366874 0.2540145 0.02101208
v -0.1145009 0.2540145 0.02101208
v -0.1145009 0.1490519 0.02101208
v -0.1366874 0.2540145 0.02101208
v -0.1366874 0.2540145 -0.02101208
v -0.1145009 0.2540145 -0.02101208
v -0.1145009 0.2540145 0.02101208
v -0.1366874 0.2540145 -0.02101208
v -0.1366874 0.1490519 -0.02101208
v -0.1145009 0.1490519 -0.02101208
v -0.1145009 0.2540145 -0.02101208
v -0.1366874 0.1490519 -0.02101208
v -0.1366874 0.1490519 0.02101208
v -0.1145009 0.1490519 0.02101208
v -0.1145009 0.1490519 -0.02101208
v -0.1366874 0.1490519 -0.02101208
v -0.1366874 0.2540145 -0.02101208
v -0.1366874 0.2540145 0.02101208
v -0.1366874 0.1490519 0.02101208
v -0.03035591 0.4766948 0.03035688
v -0.03035591 0.5374086 0.03035688
v 0.03035695 0.5374086 0.03035688
v 0.03035695 0.4766948 0.03035688
v -0.03035591 0.5374086 0.03035688
v -0.03035591 0.5374086 -0.03035688
v 0.03035695 0.5374086 -0.03035688
v 0.03035695 0.5374086 0.03035688
v -0.03035591 0.5374086 -0.03035688
v -0.03035591 0.4766948 -0.03035688
v 0.03035695 0.4766948 -0.03035688
v 0.03035695 0.5374086 -0.03035688
v -0.03035591 0.4766948 -0.03035688
v -0.03035591 0.4766948 0.03035688
v 0.03035695 0.4766948 0.03035688
v 0.03035695 0.4766948 -0.03035688
v 0.03035695 0.4766948 0.03035688
v 0.03035695 0.5374086 0.03035688
v 0.03035695 0.5374086 -0.03035688
v 0.03035695 0.4766948 -0.03035688
v -0.03035591 0.4766948 -0.03035688
v -0.03035591 0.5374086 -0.03035688
v -0.03035591 0.5374086 0.03035688
v -0.03035591 0.4766948 0.03035688
vt 0.956531 0.09844176
vt 0.956531 0.09865671
vt 0.9564772 0.09865671
vt 0.9564772 0.09844176
vt 0.9564108 0.09865671
vt 0.9564108 0.09844176
vt 0.9563571 0.09865671
vt 0.9563571 0.09844176
vt 0.9563366 0.09865671
vt 0.9563366 0.09844176
vt 0.9565515 0.09844176
vt 0.9565515 0.09865671
vt 0.9563366 0.09844176
vt 0.9563366 0.09865671
vt 0.9563571 0.09865671
vt 0.9563571 0.09844176
vt 0.9564108 0.09865671
vt 0.9564108 0.09844176
vt 0.9564772 0.09865671
vt 0.9564772 0.09844176
vt 0.956531 0.09865671
vt 0.956531 0.09844176
vt 0.9565515 0.09865671
vt 0.9565515 0.09844176
vt 0.952783 0.1022089
vt 0.9527779 0.1022117
vt 0.9527799 0.1022089
vt 0.9527758 0.1022089
vt 0.9527725 0.1022089
vt 0.9527713 0.1022089
vt 0.9527843 0.1022089
vt 0.9527713 0.1022089
vt 0.9527779 0.1022117
vt 0.9527725 0.1022089
vt 0.9527758 0.1022089
vt 0.9527799 0.1022089
vt 0.952783 0.1022089
vt 0.9527843 0.1022089
vt 0.9509448 0.5293298
vt 0.9509448 0.5293297
vt 0.9509448 0.5293297
vt 0.9509448 0.5293298
vt 0.9509448 0.5293297
vt 0.9509448 0.5293298
vt 0.9509448 0.5293297
vt 0.9509448 0.5293298
vt 0.9509447 0.5293297
vt 0.9509447 0.5293298
vt 0.9509446 0.5293297
vt 0.9509446 0.5293298
vt 0.9509445 0.5293297
vt 0.9509445 0.5293298
vt 0.9509448 0.5293298
vt 0.9509448 0.5293297
vt 0.9509447 0.5293298
vt 0.9509447 0.5293297
vt 0.9509446 0.5293298
vt 0.9509446 0.5293297
vt 0.9509445 0.5293298
vt 0.9509445 0.5293297
vt 0.9509445 0.5293298
vt 0.9509447 0.5293298
vt 0.9509447 0.5293298
vt 0.9509446 0.5293298
vt 0.9509447 0.5293298
vt 0.9509447 0.5293298
vt 0.9509447 0.5293298
vt 0.9509448 0.5293298
vt 0.9509448 0.5293298
vt 0.9509448 0.5293298
vt 0.9509448 0.5293298
vt 0.9509448 0.5293298
vt 0.9509448 0.5293298
vt 0.9509448 0.5293298
vt 0.9509447 0.5293298
vt 0.9509448 0.5293298
vt 0.9509447 0.5293298
vt 0.9509447 0.5293298
vt 0.9509447 0.5293298
vt 0.9509446 0.5293298
vt 0.7895673 0.7378403
vt 0.7896311 0.7378867
vt 0.7896067 0.7378116
vt 0.7896556 0.7378116
vt 0.789695 0.7378403
vt 0.78971 0.7378867
vt 0.789695 0.737933
vt 0.7896556 0.7379617
vt 0.7896067 0.7379617
vt 0.7895673 0.737933
vt 0.7895522 0.7378867
vt 0.9491622 0.2488022
vt 0.9491622 0.2488842
vt 0.9491312 0.2488842
vt 0.9491312 0.2488022
vt 0.9490929 0.2488842
vt 0.9490929 0.2488022
vt 0.9490619 0.2488842
vt 0.9490619 0.2488022
vt 0.9490501 0.2488842
vt 0.9490501 0.2488022
vt 0.9491739 0.2488022
vt 0.9491739 0.2488842
vt 0.9490501 0.2488022
vt 0.9490501 0.2488842
vt 0.9490619 0.2488842
vt 0.9490619 0.2488022
vt 0.9490929 0.2488842
vt 0.9490929 0.2488022
vt 0.9491312 0.2488842
vt 0.9491312 0.2488022
vt 0.9491622 0.2488842
vt 0.9491622 0.2488022
vt 0.9491739 0.2488842
vt 0.9491739 0.2488022
vt 0.9491622 0.2488842
vt 0.9491121 0.2488842
vt 0.9491312 0.2488842
vt 0.9490929 0.2488842
vt 0.9490619 0.2488842
vt 0.9490501 0.2488842
vt 0.9490619 0.2488842
vt 0.9490929 0.2488842
vt 0.9491312 0.2488842
vt 0.9491622 0.2488842
vt 0.9491739 0.2488842
vt 0.9527746 0.1022094
vt 0.9527746 0.102222
vt 0.9527739 0.102222
vt 0.9527739 0.1022094
vt 0.9527739 0.1022094
vt 0.9527739 0.102222
vt 0.9527746 0.102222
vt 0.9527746 0.1022094
vt 0.9527746 0.1022094
vt 0.9527746 0.102222
vt 0.9527766 0.102222
vt 0.9527766 0.1022094
vt 0.9527766 0.1022094
vt 0.9527766 0.102222
vt 0.9527791 0.102222
vt 0.9527791 0.1022094
vt 0.9527791 0.1022094
vt 0.9527791 0.102222
vt 0.952781 0.102222
vt 0.952781 0.1022094
vt 0.952781 0.1022094
vt 0.952781 0.102222
vt 0.9527817 0.102222
vt 0.9527817 0.1022094
vt 0.9527817 0.1022094
vt 0.9527817 0.102222
vt 0.952781 0.102222
vt 0.952781 0.1022094
vt 0.952781 0.1022094
vt 0.952781 0.102222
vt 0.9527791 0.102222
vt 0.9527791 0.1022094
vt 0.9527791 0.1022094
vt 0.9527791 0.102222
vt 0.9527766 0.102222
vt 0.9527766 0.1022094
vt 0.9527766 0.1022094
vt 0.9527766 0.102222
vt 0.9527746 0.102222
vt 0.9527746 0.1022094
vt 0.9542623 0.2488105
vt 0.9542623 0.2488374
vt 0.9542891 0.2488374
vt 0.9542891 0.2488105
vt 0.9542623 0.2488374
vt 0.9542623 0.2488641
vt 0.9542891 0.2488641
vt 0.9542891 0.2488374
vt 0.9542623 0.2488641
vt 0.9542623 0.248891
vt 0.9542891 0.248891
vt 0.9542891 0.2488641
vt 0.9542623 0.248891
vt 0.9542623 0.2489177
vt 0.9542891 0.2489177
vt 0.9542891 0.248891
vt 0.9542354 0.2488105
vt 0.9542354 0.2488374
vt 0.9542623 0.2488374
vt 0.9542623 0.2488105
vt 0.3493365 0.4798402
vt 0.3493365 0.479838
vt 0.3493343 0.479838
vt 0.3493343 0.4798402
vt 0.3493365 0.479838
vt 0.3493365 0.4798358
vt 0.3493343 0.4798358
vt 0.3493343 0.479838
vt 0.3493365 0.4798358
vt 0.3493365 0.4798336
vt 0.3493343 0.4798336
vt 0.3493343 0.4798358
vt 0.3493365 0.4798336
vt 0.3493365 0.4798314
vt 0.3493343 0.4798314
vt 0.3493343 0.4798336
vt 0.3493387 0.4798402
vt 0.3493387 0.479838
vt 0.3493365 0.479838
vt 0.3493365 0.4798402
vt 0.9490947 0.2488713
vt 0.9490947 0.248926
vt 0.9491294 0.248926
vt 0.9491294 0.2488713
vt 0.9490947 0.248926
vt 0.9490947 0.248926
vt 0.9491294 0.248926
vt 0.9491294 0.248926
vt 0.9490947 0.248926
vt 0.9490947 0.2488713
vt 0.9491294 0.2488713
vt 0.9491294 0.248926
vt 0.9490947 0.2488713
vt 0.9490947 0.2488713
vt 0.9491294 0.2488713
vt 0.9491294 0.2488713
vt 0.9491294 0.2488713
vt 0.9491294 0.248926
vt 0.9491294 0.248926
vt 0.9491294 0.2488713
vt 0.9490947 0.2488713
vt 0.9490947 0.248926
vt 0.9490947 0.248926
vt 0.9490947 0.2488713
vn 0.8090163 0 -0.5877861
vn 0.8090163 0 -0.5877861
vn 0.3090183 0 -0.9510561
vn 0.3090182 0 -0.9510561
vn -0.3090185 0 -0.951056
vn -0.3090184 0 -0.951056
vn -0.8090179 0 -0.587784
vn -0.8090179 0 -0.5877841
vn -1 0 0
vn -1 0 0
vn 1 0 0
vn 1 0 0
vn -1 0 0
vn -1 0 0
vn -0.8090178 0 0.5877841
vn -0.8090178 0 0.5877841
vn -0.3090182 1.12296E-07 0.9510561
vn -0.3090182 0 0.9510561
vn 0.3090185 1.99655E-07 0.951056
vn 0.3090185 0 0.951056
vn 0.8090163 0 0.5877862
vn 0.8090163 0 0.5877862
vn 1 0 0
vn 1 0 0
vn 0.4091694 0.8626732 -0.2972801
vn 1.161567E-06 1 0
vn 0.1562885 0.8626739 -0.4810067
vn -0.1562892 0.8626746 -0.4810054
vn -0.409168 0.8626748 -0.297277
vn -0.5057595 0.8626745 0
vn 0.5057617 0.8626732 0
vn -0.5057595 0.8626745 0
vn 1.161567E-06 1 0
vn -0.4091679 0.8626748 0.297277
vn -0.156289 0.8626747 0.4810054
vn 0.1562885 0.8626739 0.4810068
vn 0.4091694 0.8626732 0.2972801
vn 0.5057617 0.8626732 0
vn -0.8090179 0 -0.5877841
vn -0.8090179 0 -0.5877841
vn -1 0 0
vn -1 0 0
vn -0.8090178 0 0.5877841
vn -0.8090178 0 0.5877841
vn -0.3090182 0 0.9510561
vn -0.3090183 -1.720213E-07 0.9510561
vn 0.3090185 0 0.951056
vn 0.3090186 -3.058428E-07 0.951056
vn 0.8090163 0 0.5877862
vn 0.8090163 -1.338208E-07 0.5877863
vn 1 0 0
vn 1 0 0
vn -0.3090185 0 -0.951056
vn -0.3090184 0 -0.951056
vn 0.3090183 0 -0.9510561
vn 0.3090182 0 -0.9510561
vn 0.8090163 0 -0.5877862
vn 0.8090163 0 -0.5877861
vn 1 0 0
vn 1 0 0
vn 0 -1 0
vn 0 -1 0
vn 0 -1 1.430803E-07
vn 0 -1 1.430816E-07
vn 0 -1 1.430823E-07
vn 0 -1 1.430784E-07
vn 0 -1 1.073094E-07
vn 0 -1 1.0731E-07
vn 0 -1 1.788505E-07
vn 0 -1 1.788509E-07
vn 0 -1 0
vn 0 -1 0
vn 0 -1 -2.146203E-07
vn 0 -1 -2.146223E-07
vn 0 -1 -1.788488E-07
vn 0 -1 -1.7885E-07
vn 0 -1 -1.073125E-07
vn 0 -1 -1.073077E-07
vn 0 -1 0
vn 0 -1 0
vn 0.145916 -0.9836003 0.1060136
vn 2.68196E-07 -1 0
vn 0.05573473 -0.9836004 0.1715335
vn -0.05573446 -0.9836004 0.1715336
vn -0.1459139 -0.9836007 0.1060136
vn -0.1803596 -0.9836007 0
vn -0.1459139 -0.9836006 -0.1060137
vn -0.05573451 -0.9836004 -0.1715336
vn 0.05573467 -0.9836004 -0.1715334
vn 0.145916 -0.9836003 -0.1060136
vn 0.1803621 -0.9836003 0
vn 0.8090187 0 -0.5877829
vn 0.8090187 0 -0.5877829
vn 0.3090197 0 -0.9510556
vn 0.3090197 0 -0.9510556
vn -0.3090159 0 -0.9510569
vn -0.3090159 0 -0.9510569
vn -0.8090123 0 -0.5877917
vn -0.8090123 0 -0.5877917
vn -1 0 0
vn -1 0 0
vn 1 0 0
vn 1 0 0
vn -1 0 0
vn -1 0 0
vn -0.8090122 0 0.5877918
vn -0.8090122 0 0.5877918
vn -0.3090158 0 0.9510569
vn -0.3090158 0 0.9510569
vn 0.3090199 0 0.9510556
vn 0.3090199 0 0.9510556
vn 0.8090187 0 0.5877829
vn 0.8090187 0 0.5877829
vn 1 0 0
vn 1 0 0
vn 0 1 0
vn 0 1 0
vn 0 1 0
vn 0 1 4.380081E-07
vn 0 1 -4.38002E-07
vn 0 1 -8.760038E-07
vn 0 1 0
vn 0 1 0
vn 0 1 -4.380081E-07
vn 0 1 0
vn 0 1 -8.760181E-07
vn -0.9510542 0 -0.3090241
vn -0.9510542 0 -0.3090241
vn -0.9510542 0 -0.3090241
vn -0.9510542 0 -0.3090241
vn -0.9510542 0 0.3090242
vn -0.9510542 0 0.3090242
vn -0.9510542 0 0.3090242
vn -0.9510542 0 0.3090242
vn -0.58778 0 0.8090208
vn -0.58778 0 0.8090208
vn -0.58778 0 0.8090208
vn -0.58778 0 0.8090208
vn 1.828873E-07 0 1
vn 1.828873E-07 0 1
vn 1.828873E-07 0 1
vn 1.828873E-07 0 1
vn 0.5877922 0 0.8090119
vn 0.5877922 0 0.8090119
vn 0.5877922 0 0.8090119
vn 0.5877922 0 0.8090119
vn 0.9510542 0 0.3090241
vn 0.9510542 0 0.3090241
vn 0.9510542 0 0.3090241
vn 0.9510542 0 0.3090241
vn 0.9510543 0 -0.309024
vn 0.9510543 0 -0.309024
vn 0.9510543 0 -0.309024
vn 0.9510543 0 -0.309024
vn 0.5877922 0 -0.809012
vn 0.5877922 0 -0.809012
vn 0.5877922 0 -0.809012
vn 0.5877922 0 -0.809012
vn 0 0 -1
vn 0 0 -1
vn 0 0 -1
vn 0 0 -1
vn -0.58778 0 -0.8090208
vn -0.58778 0 -0.8090208
vn -0.58778 0 -0.8090208
vn -0.58778 0 -0.8090208
vn 0 0 1
vn 0 0 1
vn 0 0 1
vn 0 0 1
vn 0 1 0
vn 0 1 0
vn 0 1 0
vn 0 1 0
vn 0 0 -1
vn 0 0 -1
vn 0 0 -1
vn 0 0 -1
vn 0 -1 0
vn 0 -1 0
vn 0 -1 0
vn 0 -1 0
vn -1 0 0
vn -1 0 0
vn -1 0 0
vn -1 0 0
vn 0 0 1
vn 0 0 1
vn 0 0 1
vn 0 0 1
vn 0 1 0
vn 0 1 0
vn 0 1 0
vn 0 1 0
vn 0 0 -1
vn 0 0 -1
vn 0 0 -1
vn 0 0 -1
vn 0 -1 0
vn 0 -1 0
vn 0 -1 0
vn 0 -1 0
vn -1 0 0
vn -1 0 0
vn -1 0 0
vn -1 0 0
vn 0 0 1
vn 0 0 1
vn 0 0 1
vn 0 0 1
vn 0 1 0
vn 0 1 0
vn 0 1 0
vn 0 1 0
vn 0 0 -1
vn 0 0 -1
vn 0 0 -1
vn 0 0 -1
vn 0 -1 0
vn 0 -1 0
vn 0 -1 0
vn 0 -1 0
vn 1 0 0
vn 1 0 0
vn 1 0 0
vn 1 0 0
vn -1 0 0
vn -1 0 0
vn -1 0 0
vn -1 0 0
g meger3d_Char_outdoor_C1_1_0
f 3/3/3 2/2/2 1/1/1
f 4/4/4 3/3/3 1/1/1
f 5/5/5 3/3/3 4/4/4
f 6/6/6 5/5/5 4/4/4
f 7/7/7 5/5/5 6/6/6
f 8/8/8 7/7/7 6/6/6
f 9/9/9 7/7/7 8/8/8
f 10/10/10 9/9/9 8/8/8
f 1/1/1 2/2/2 11/11/11
f 2/2/2 12/12/12 11/11/11
f 15/15/15 14/14/14 13/13/13
f 16/16/16 15/15/15 13/13/13
f 17/17/17 15/15/15 16/16/16
f 18/18/18 17/17/17 16/16/16
f 19/19/19 17/17/17 18/18/18
f 20/20/20 19/19/19 18/18/18
f 21/21/21 19/19/19 20/20/20
f 22/22/22 21/21/21 20/20/20
f 23/23/23 21/21/21 22/22/22
f 24/24/24 23/23/23 22/22/22
f 27/27/27 26/26/26 25/25/25
f 28/28/28 26/26/26 27/27/27
f 29/29/29 26/26/26 28/28/28
f 30/30/30 26/26/26 29/29/29
f 25/25/25 26/26/26 31/31/31
f 34/34/34 33/33/33 32/32/32
f 35/35/35 33/33/33 34/34/34
f 36/36/36 33/33/33 35/35/35
f 37/37/37 33/33/33 36/36/36
f 38/38/38 33/33/33 37/37/37
f 41/41/41 40/40/40 39/39/39
f 42/42/42 41/41/41 39/39/39
f 43/43/43 41/41/41 42/42/42
f 44/44/44 43/43/43 42/42/42
f 45/45/45 43/43/43 44/44/44
f 46/46/46 45/45/45 44/44/44
f 47/47/47 45/45/45 46/46/46
f 48/48/48 47/47/47 46/46/46
f 49/49/49 47/47/47 48/48/48
f 50/50/50 49/49/49 48/48/48
f 51/51/51 49/49/49 50/50/50
f 52/52/52 51/51/51 50/50/50
f 39/39/39 40/40/40 53/53/53
f 40/40/40 54/54/54 53/53/53
f 53/53/53 54/54/54 55/55/55
f 54/54/54 56/56/56 55/55/55
f 55/55/55 56/56/56 57/57/57
f 56/56/56 58/58/58 57/57/57
f 57/57/57 58/58/58 59/59/59
f 58/58/58 60/60/60 59/59/59
f 63/63/63 62/62/62 61/61/61
f 64/64/64 63/63/63 61/61/61
f 65/65/65 63/63/63 64/64/64
f 66/66/66 65/65/65 64/64/64
f 67/67/67 65/65/65 66/66/66
f 68/68/68 67/67/67 66/66/66
f 69/69/69 67/67/67 68/68/68
f 70/70/70 69/69/69 68/68/68
f 71/71/71 69/69/69 70/70/70
f 72/72/72 71/71/71 70/70/70
f 73/73/73 71/71/71 72/72/72
f 74/74/74 73/73/73 72/72/72
f 75/75/75 73/73/73 74/74/74
f 76/76/76 75/75/75 74/74/74
f 77/77/77 75/75/75 76/76/76
f 78/78/78 77/77/77 76/76/76
f 79/79/79 77/77/77 78/78/78
f 80/80/80 79/79/79 78/78/78
f 62/62/62 79/79/79 80/80/80
f 61/61/61 62/62/62 80/80/80
f 83/83/83 82/82/82 81/81/81
f 84/84/84 82/82/82 83/83/83
f 85/85/85 82/82/82 84/84/84
f 86/86/86 82/82/82 85/85/85
f 87/87/87 82/82/82 86/86/86
f 88/88/88 82/82/82 87/87/87
f 89/89/89 82/82/82 88/88/88
f 90/90/90 82/82/82 89/89/89
f 91/91/91 82/82/82 90/90/90
f 81/81/81 82/82/82 91/91/91
f 94/94/94 93/93/93 92/92/92
f 95/95/95 94/94/94 92/92/92
f 96/96/96 94/94/94 95/95/95
f 97/97/97 96/96/96 95/95/95
f 98/98/98 96/96/96 97/97/97
f 99/99/99 98/98/98 97/97/97
f 100/100/100 98/98/98 99/99/99
f 101/101/101 100/100/100 99/99/99
f 92/92/92 93/93/93 102/102/102
f 93/93/93 103/103/103 102/102/102
f 106/106/106 105/105/105 104/104/104
f 107/107/107 106/106/106 104/104/104
f 108/108/108 106/106/106 107/107/107
f 109/109/109 108/108/108 107/107/107
f 110/110/110 108/108/108 109/109/109
f 111/111/111 110/110/110 109/109/109
f 112/112/112 110/110/110 111/111/111
f 113/113/113 112/112/112 111/111/111
f 114/114/114 112/112/112 113/113/113
f 115/115/115 114/114/114 113/113/113
f 118/118/118 117/117/117 116/116/116
f 119/119/119 117/117/117 118/118/118
f 120/120/120 117/117/117 119/119/119
f 121/121/121 117/117/117 120/120/120
f 122/122/122 117/117/117 121/121/121
f 123/123/123 117/117/117 122/122/122
f 124/124/124 117/117/117 123/123/123
f 125/125/125 117/117/117 124/124/124
f 126/126/126 117/117/117 125/125/125
f 116/116/116 117/117/117 126/126/126
f 129/129/129 128/128/128 127/127/127
f 130/130/130 129/129/129 127/127/127
f 133/133/133 132/132/132 131/131/131
f 134/134/134 133/133/133 131/131/131
f 137/137/137 136/136/136 135/135/135
f 138/138/138 137/137/137 135/135/135
f 141/141/141 140/140/140 139/139/139
f 142/142/142 141/141/141 139/139/139
f 145/145/145 144/144/144 143/143/143
f 146/146/146 145/145/145 143/143/143
f 149/149/149 148/148/148 147/147/147
f 150/150/150 149/149/149 147/147/147
f 153/153/153 152/152/152 151/151/151
f 154/154/154 153/153/153 151/151/151
f 157/157/157 156/156/156 155/155/155
f 158/158/158 157/157/157 155/155/155
f 161/161/161 160/160/160 159/159/159
f 162/162/162 161/161/161 159/159/159
f 165/165/165 164/164/164 163/163/163
f 166/166/166 165/165/165 163/163/163
f 169/169/169 168/168/168 167/167/167
f 170/170/170 169/169/169 167/167/167
f 173/173/173 172/172/172 171/171/171
f 174/174/174 173/173/173 171/171/171
f 177/177/177 176/176/176 175/175/175
f 178/178/178 177/177/177 175/175/175
f 181/181/181 180/180/180 179/179/179
f 182/182/182 181/181/181 179/179/179
f 185/185/185 184/184/184 183/183/183
f 186/186/186 185/185/185 183/183/183
f 189/189/189 188/188/188 187/187/187
f 190/190/190 189/189/189 187/187/187
f 193/193/193 192/192/192 191/191/191
f 194/194/194 193/193/193 191/191/191
f 197/197/197 196/196/196 195/195/195
f 198/198/198 197/197/197 195/195/195
f 201/201/201 200/200/200 199/199/199
f 202/202/202 201/201/201 199/199/199
f 205/205/205 204/204/204 203/203/203
f 206/206/206 205/205/205 203/203/203
f 209/209/209 208/208/208 207/207/207
f 210/210/210 209/209/209 207/207/207
f 213/213/213 212/212/212 211/211/211
f 214/214/214 213/213/213 211/211/211
f 217/217/217 216/216/216 215/215/215
f 218/218/218 217/217/217 215/215/215
f 221/221/221 220/220/220 219/219/219
f 222/222/222 221/221/221 219/219/219
f 225/225/225 224/224/224 223/223/223
f 226/226/226 225/225/225 223/223/223
f 229/229/229 228/228/228 227/227/227
f 230/230/230 229/229/229 227/227/227
