g meger3d_Char_sundries_C2_2
v 0.293943 -0.3429831 -0.213562
v 0.3223231 0.2644309 -0.2341813
v 0.2341814 0.2644309 -0.3223231
v 0.2135621 -0.3429831 -0.2939429
v 0.1231165 0.2644309 -0.3789136
v 0.1122764 -0.3429831 -0.3455507
v -3.814697E-08 0.2644309 -0.3984132
v -3.814697E-08 -0.3429831 -0.3633335
v -0.1231165 0.2644309 -0.3789136
v -0.1122762 -0.3429831 -0.3455506
v -0.2341814 0.2644309 -0.3223231
v -0.2135621 -0.3429831 -0.2939429
v -0.3223231 0.2644309 -0.2341813
v -0.2939428 -0.3429831 -0.2135619
v -0.3223231 0.2644309 -0.2341813
v -0.01297573 0.2644309 0.3918921
v -0.01183344 -0.3429831 0.3573865
v -0.2939428 -0.3429831 -0.2135619
v -0.01183344 -0.3429831 0.3573865
v -0.01297573 0.2644309 0.3918921
v -3.814697E-08 0.2644309 0.3984132
v -3.814697E-08 -0.3429831 0.3633334
v 0.01297577 0.2644309 0.3918921
v 0.01183367 -0.3429831 0.3573865
v 0.01297577 0.2644309 0.3918921
v 0.3223231 0.2644309 -0.2341813
v 0.293943 -0.3429831 -0.213562
v 0.01183367 -0.3429831 0.3573865
v 0.2135621 -0.3429831 -0.2939429
v -3.814697E-08 -0.3429831 5.722046E-08
v 0.293943 -0.3429831 -0.213562
v 0.1122764 -0.3429831 -0.3455507
v -3.814697E-08 -0.3429831 -0.3633335
v -0.1122762 -0.3429831 -0.3455506
v -0.2135621 -0.3429831 -0.2939429
v -0.2939428 -0.3429831 -0.2135619
v -0.01183344 -0.3429831 0.3573865
v -3.814697E-08 -0.3429831 0.3633334
v 0.01183367 -0.3429831 0.3573865
v 0.3223231 0.2644309 -0.2341813
v -3.814697E-08 0.2644309 5.722046E-08
v 0.2341814 0.2644309 -0.3223231
v 0.1231165 0.2644309 -0.3789136
v -3.814697E-08 0.2644309 -0.3984132
v -0.1231165 0.2644309 -0.3789136
v -0.2341814 0.2644309 -0.3223231
v -0.3223231 0.2644309 -0.2341813
v -0.01297573 0.2644309 0.3918921
v -3.814697E-08 0.2644309 0.3984132
v 0.01297577 0.2644309 0.3918921
v 0.0004146576 0.2413412 -0.01520454
v 0.02426376 0.2615396 -0.04245894
v -0.04070154 0.285834 -0.04398304
v -0.03709303 0.2553684 -0.01608434
v -0.07279043 0.3027911 0.01514226
v -0.05561964 0.2651584 0.01805136
v -0.03991413 0.2954532 0.07579166
v -0.03663843 0.2609216 0.05306755
v 0.02505106 0.2711581 0.07731566
v 0.0008691597 0.2468951 0.05394746
v 0.05713997 0.2542014 0.01819026
v 0.01939577 0.2371048 0.01981136
v 0.02426376 0.2615396 -0.04245894
v 0.0004146576 0.2413412 -0.01520454
v -0.03173554 0.3243497 -0.05645984
v 0.04327976 0.2962967 -0.05470004
v -0.06878864 0.3439304 0.01181216
v -0.03082643 0.3354571 0.08184405
v 0.04418896 0.3074036 0.08360386
v 0.08124196 0.2878235 0.01533166
v 0.04327976 0.2962967 -0.05470004
v -0.01259773 0.3605957 -0.05017174
v 0.05236747 0.3363003 -0.04864764
v -0.04468664 0.3775528 0.008953556
v -0.01181034 0.3702145 0.06960296
v 0.05315487 0.3459195 0.07112695
v 0.08524377 0.3289624 0.01200156
v 0.05236747 0.3363003 -0.04864764
v 0.01158417 0.3848584 -0.02680354
v 0.04909177 0.3708328 -0.02592344
v -0.006942444 0.3946494 0.007332457
v 0.01203867 0.3904123 0.04234846
v 0.04954636 0.3763855 0.04322836
v 0.06807297 0.3665957 0.009092256
v 0.04909177 0.3708328 -0.02592344
v 0.03433056 0.3906384 0.007383257
v 0.03433056 0.3906384 0.007383257
v 0.03433056 0.3906384 0.007383257
v 0.03433056 0.3906384 0.007383257
v 0.03433056 0.3906384 0.007383257
v 0.03433056 0.3906384 0.007383257
v -0.02187714 0.2411157 0.01976056
v -0.02187714 0.2411157 0.01976056
v -0.02187714 0.2411157 0.01976056
v -0.02187714 0.2411157 0.01976056
v -0.02187714 0.2411157 0.01976056
v -0.02187714 0.2411157 0.01976056
v -0.08031954 0.2577847 -0.1762381
v -0.05647043 0.2779825 -0.2034926
v -0.1214356 0.3022775 -0.2050166
v -0.1178271 0.2718115 -0.177118
v -0.1535245 0.319234 -0.1458913
v -0.1363537 0.2816015 -0.1429818
v -0.1206481 0.3118964 -0.08524174
v -0.1173726 0.2773648 -0.107966
v -0.05568304 0.2876013 -0.08371784
v -0.07986494 0.263338 -0.1070861
v -0.02359413 0.2706439 -0.1428431
v -0.06133844 0.253548 -0.1412221
v -0.05647043 0.2779825 -0.2034926
v -0.08031954 0.2577847 -0.1762381
v -0.1124697 0.3407938 -0.2174935
v -0.03745434 0.3127396 -0.2157337
v -0.1495228 0.3603735 -0.1492213
v -0.1115605 0.3519003 -0.07918954
v -0.03654524 0.3238467 -0.07742974
v 0.0005079651 0.3042664 -0.1457018
v -0.03745434 0.3127396 -0.2157337
v -0.09333183 0.3770389 -0.2112053
v -0.02836664 0.3527441 -0.2096811
v -0.1254205 0.393996 -0.1520799
v -0.09254444 0.386658 -0.09143054
v -0.02757933 0.3623624 -0.08990654
v 0.004509659 0.3454056 -0.1490319
v -0.02836664 0.3527441 -0.2096811
v -0.06915002 0.4013016 -0.1878371
v -0.03164234 0.3872751 -0.1869572
v -0.08767654 0.4110928 -0.153701
v -0.06869543 0.4068555 -0.1186851
v -0.03118774 0.3928287 -0.1178052
v -0.01266123 0.3830383 -0.1519412
v -0.03164234 0.3872751 -0.1869572
v -0.04640364 0.4070816 -0.1536501
v -0.04640364 0.4070816 -0.1536501
v -0.04640364 0.4070816 -0.1536501
v -0.04640364 0.4070816 -0.1536501
v -0.04640364 0.4070816 -0.1536501
v -0.04640364 0.4070816 -0.1536501
v -0.1026112 0.2575583 -0.1412729
v -0.1026112 0.2575583 -0.1412729
v -0.1026112 0.2575583 -0.1412729
v -0.1026112 0.2575583 -0.1412729
v -0.1026112 0.2575583 -0.1412729
v -0.1026112 0.2575583 -0.1412729
v 0.1041547 0.2187375 -0.137472
v 0.06608886 0.2307248 -0.1487343
v 0.08024576 0.2515625 -0.08409374
v 0.1123282 0.2307684 -0.1001517
v 0.139928 0.2841983 -0.07045604
v 0.1467857 0.2496109 -0.09227794
v 0.1854533 0.2959964 -0.1214589
v 0.1730697 0.2564221 -0.1217245
v 0.1712963 0.2751584 -0.1860997
v 0.1648962 0.2443912 -0.1590448
v 0.1116141 0.2425223 -0.1997373
v 0.1304387 0.2255487 -0.1669185
v 0.06608886 0.2307248 -0.1487343
v 0.1041547 0.2187375 -0.137472
v 0.05566167 0.2849539 -0.08371454
v 0.03931467 0.2608929 -0.1583551
v 0.1245769 0.3226388 -0.06796714
v 0.1771448 0.3362619 -0.1268602
v 0.1607979 0.3122012 -0.2015008
v 0.09188276 0.2745157 -0.2172483
v 0.03931467 0.2608929 -0.1583551
v 0.04516317 0.3219965 -0.09911574
v 0.03100626 0.3011588 -0.1637563
v 0.1048454 0.3546323 -0.08547794
v 0.1503707 0.3664303 -0.136481
v 0.1362138 0.3455929 -0.2011216
v 0.07653146 0.3129565 -0.2147593
v 0.03100626 0.3011588 -0.1637563
v 0.05156326 0.3527637 -0.1261705
v 0.04338976 0.3407327 -0.1634908
v 0.08602076 0.3716061 -0.1182968
v 0.1123049 0.3784173 -0.1477434
v 0.1041315 0.3663867 -0.1850636
v 0.06967377 0.3475448 -0.1929374
v 0.04338976 0.3407327 -0.1634908
v 0.07314716 0.3690115 -0.1576297
v 0.07314716 0.3690115 -0.1576297
v 0.07314716 0.3690115 -0.1576297
v 0.07314716 0.3690115 -0.1576297
v 0.07314716 0.3690115 -0.1576297
v 0.07314716 0.3690115 -0.1576297
v 0.1433123 0.2281436 -0.1275857
v 0.1433123 0.2281436 -0.1275857
v 0.1433123 0.2281436 -0.1275857
v 0.1433123 0.2281436 -0.1275857
v 0.1433123 0.2281436 -0.1275857
v 0.1433123 0.2281436 -0.1275857
vt 0.485293 0.750172
vt 0.481539 0.855772
vt 0.493198 0.855772
vt 0.495927 0.750172
vt 0.507892 0.855772
vt 0.509325 0.750172
vt 0.524178 0.855772
vt 0.524178 0.750172
vt 0.540466 0.855772
vt 0.539031 0.750172
vt 0.555158 0.855772
vt 0.55243 0.750172
vt 0.566819 0.855772
vt 0.563064 0.750172
vt 0.306605 0.855773
vt 0.389723 0.855773
vt 0.385143 0.750173
vt 0.309343 0.750173
vt 0.39118 0.750173
vt 0.391027 0.855773
vt 0.392751 0.855773
vt 0.392751 0.750173
vt 0.394473 0.855773
vt 0.394322 0.750173
vt 0.395738 0.855773
vt 0.478857 0.855773
vt 0.476119 0.750173
vt 0.400319 0.750173
vt 0.840608 0.753399
vt 0.811573 0.793359
vt 0.851535 0.764326
vt 0.826838 0.746383
vt 0.811573 0.743965
vt 0.79631 0.746383
vt 0.78254 0.753399
vt 0.771611 0.764326
vt 0.809965 0.841947
vt 0.811573 0.842755
vt 0.813181 0.841947
vt 0.798897 0.838059
vt 0.755078 0.806222
vt 0.786915 0.850041
vt 0.771816 0.857735
vt 0.755078 0.860387
vt 0.73834 0.857735
vt 0.72324 0.850041
vt 0.711259 0.838059
vt 0.753314 0.752945
vt 0.755078 0.752058
vt 0.756842 0.752945
vt 0.851765 0.315643
vt 0.851765 0.331003
vt 0.867125 0.331003
vt 0.867125 0.315643
vt 0.882486 0.331003
vt 0.882486 0.315643
vt 0.897846 0.331003
vt 0.897846 0.315643
vt 0.913208 0.331003
vt 0.913208 0.315643
vt 0.928568 0.331003
vt 0.928568 0.315643
vt 0.943929 0.331003
vt 0.943929 0.315643
vt 0.867125 0.346363
vt 0.851765 0.346363
vt 0.882486 0.346363
vt 0.897846 0.346363
vt 0.913208 0.346363
vt 0.928568 0.346363
vt 0.943929 0.346363
vt 0.867125 0.361723
vt 0.851765 0.361723
vt 0.882486 0.361723
vt 0.897846 0.361723
vt 0.913208 0.361723
vt 0.928568 0.361723
vt 0.943929 0.361723
vt 0.867125 0.377085
vt 0.851765 0.377085
vt 0.882486 0.377085
vt 0.897846 0.377085
vt 0.913208 0.377085
vt 0.928568 0.377085
vt 0.943929 0.377085
vt 0.859445 0.392444
vt 0.874807 0.392444
vt 0.890166 0.392444
vt 0.905528 0.392444
vt 0.920888 0.392444
vt 0.936248 0.392444
vt 0.859445 0.300283
vt 0.874807 0.300283
vt 0.890166 0.300283
vt 0.905528 0.300283
vt 0.920888 0.300283
vt 0.936248 0.300283
vt 0.851765 0.315643
vt 0.851765 0.331003
vt 0.867125 0.331003
vt 0.867125 0.315643
vt 0.882486 0.331003
vt 0.882486 0.315643
vt 0.897846 0.331003
vt 0.897846 0.315643
vt 0.913208 0.331003
vt 0.913208 0.315643
vt 0.928568 0.331003
vt 0.928568 0.315643
vt 0.943929 0.331003
vt 0.943929 0.315643
vt 0.867125 0.346363
vt 0.851765 0.346363
vt 0.882486 0.346363
vt 0.897846 0.346363
vt 0.913208 0.346363
vt 0.928568 0.346363
vt 0.943929 0.346363
vt 0.867125 0.361723
vt 0.851765 0.361723
vt 0.882486 0.361723
vt 0.897846 0.361723
vt 0.913208 0.361723
vt 0.928568 0.361723
vt 0.943929 0.361723
vt 0.867125 0.377085
vt 0.851765 0.377085
vt 0.882486 0.377085
vt 0.897846 0.377085
vt 0.913208 0.377085
vt 0.928568 0.377085
vt 0.943929 0.377085
vt 0.859445 0.392444
vt 0.874807 0.392444
vt 0.890166 0.392444
vt 0.905528 0.392444
vt 0.920888 0.392444
vt 0.936248 0.392444
vt 0.859445 0.300283
vt 0.874807 0.300283
vt 0.890166 0.300283
vt 0.905528 0.300283
vt 0.920888 0.300283
vt 0.936248 0.300283
vt 0.851765 0.315643
vt 0.851765 0.331003
vt 0.867125 0.331003
vt 0.867125 0.315643
vt 0.882486 0.331003
vt 0.882486 0.315643
vt 0.897846 0.331003
vt 0.897846 0.315643
vt 0.913208 0.331003
vt 0.913208 0.315643
vt 0.928568 0.331003
vt 0.928568 0.315643
vt 0.943929 0.331003
vt 0.943929 0.315643
vt 0.867125 0.346363
vt 0.851765 0.346363
vt 0.882486 0.346363
vt 0.897846 0.346363
vt 0.913208 0.346363
vt 0.928568 0.346363
vt 0.943929 0.346363
vt 0.867125 0.361723
vt 0.851765 0.361723
vt 0.882486 0.361723
vt 0.897846 0.361723
vt 0.913208 0.361723
vt 0.928568 0.361723
vt 0.943929 0.361723
vt 0.867125 0.377085
vt 0.851765 0.377085
vt 0.882486 0.377085
vt 0.897846 0.377085
vt 0.913208 0.377085
vt 0.928568 0.377085
vt 0.943929 0.377085
vt 0.859445 0.392444
vt 0.874807 0.392444
vt 0.890166 0.392444
vt 0.905528 0.392444
vt 0.920888 0.392444
vt 0.936248 0.392444
vt 0.859445 0.300283
vt 0.874807 0.300283
vt 0.890166 0.300283
vt 0.905528 0.300283
vt 0.920888 0.300283
vt 0.936248 0.300283
vn 0.9535285 -0.03439008 0.2993338
vn 0.9558523 -0.03475491 0.2917847
vn 0.5868078 -0.05765651 -0.8076709
vn 0.5868078 -0.05765652 -0.807671
vn 0.308503 -0.0576565 -0.9494744
vn 0.308503 -0.05765651 -0.9494744
vn -3.410909E-07 -0.05765657 -0.9983365
vn -3.439401E-07 -0.05765658 -0.9983365
vn -0.3085031 -0.05765666 -0.9494744
vn -0.308503 -0.05765666 -0.9494744
vn -0.5868079 -0.05765669 -0.8076708
vn -0.5868079 -0.05765669 -0.8076708
vn -0.9558523 -0.03475518 0.2917849
vn -0.9535284 -0.03439033 0.2993339
vn -0.9558523 -0.03475518 0.2917849
vn -0.8904031 -0.02748474 0.4543423
vn -0.8909218 -0.02742808 0.4533277
vn -0.9535284 -0.03439033 0.2993339
vn -0.8909218 -0.02742808 0.4533277
vn -0.8904031 -0.02748474 0.4543423
vn 1.635824E-06 -0.05765647 0.9983365
vn 1.582769E-06 -0.05765647 0.9983365
vn 0.890403 -0.0274845 0.4543425
vn 0.8909217 -0.02742784 0.4533279
vn 0.890403 -0.0274845 0.4543425
vn 0.9558523 -0.03475491 0.2917847
vn 0.9535285 -0.03439008 0.2993338
vn 0.8909217 -0.02742784 0.4533279
vn 0 -1 0
vn 0 -1 0
vn 0 -1 0
vn 0 -1 0
vn 0 -1 0
vn 0 -1 -1.49619E-07
vn 0 -1 -1.496192E-07
vn 0 -1 0
vn 0 -1 0
vn 0 -1 0
vn 0 -1 0
vn 0 1 0
vn 0 1 0
vn 0 1 0
vn 0 1 1.244314E-07
vn 0 1 0
vn 0 1 0
vn 0 1 0
vn 0 1 0
vn 0 1 0
vn 0 1 0
vn 0 1 0
vn 0.02943297 -0.8714073 -0.4896765
vn 0.2693972 -0.6181518 -0.7384534
vn -0.5780982 -0.3012142 -0.7583354
vn -0.5735517 -0.6459118 -0.503822
vn -0.9967102 -0.08000287 0.01297818
vn -0.8713915 -0.4885238 0.04496087
vn -0.5678275 -0.1757318 0.8041705
vn -0.5662463 -0.5566331 0.6078854
vn 0.279668 -0.4926705 0.8240519
vn 0.03673765 -0.7821294 0.622032
vn 0.6982791 -0.7138801 0.0527403
vn 0.3345777 -0.9395169 0.07325071
vn 0.2693972 -0.6181518 -0.7384534
vn 0.02943297 -0.8714073 -0.4896765
vn -0.4738839 0.1057712 -0.8742119
vn 0.4625339 -0.2444211 -0.8522444
vn -0.9364196 0.3501936 -0.02196872
vn -0.4625355 0.2444212 0.8522437
vn 0.4738843 -0.1057731 0.8742115
vn 0.9364192 -0.3501948 0.0219684
vn 0.4625339 -0.2444211 -0.8522444
vn -0.27967 0.4926672 -0.8240532
vn 0.567826 0.1757309 -0.8041718
vn -0.6982805 0.7138785 -0.05274219
vn -0.2693964 0.6181508 0.7384545
vn 0.5780988 0.3012132 0.7583353
vn 0.9967101 0.08000328 -0.01297741
vn 0.567826 0.1757309 -0.8041718
vn -0.03673588 0.782125 -0.6220379
vn 0.5662465 0.5566298 -0.6078882
vn -0.3345714 0.939519 -0.07325271
vn -0.02942926 0.8714072 0.4896769
vn 0.5735553 0.6459087 0.5038217
vn 0.8713944 0.4885183 -0.04496261
vn 0.5662465 0.5566298 -0.6078882
vn 0.3508171 0.9332522 -0.07725117
vn 0.3508171 0.9332522 -0.07725117
vn 0.3508171 0.9332522 -0.07725117
vn 0.3508171 0.9332522 -0.07725117
vn 0.3508171 0.9332522 -0.07725117
vn 0.3508171 0.9332522 -0.07725117
vn -0.3508216 -0.9332502 0.07725523
vn -0.3508216 -0.9332502 0.07725523
vn -0.3508216 -0.9332502 0.07725523
vn -0.3508216 -0.9332502 0.07725523
vn -0.3508216 -0.9332502 0.07725523
vn -0.3508216 -0.9332502 0.07725523
vn 0.02942698 -0.8714077 -0.489676
vn 0.2693938 -0.6181519 -0.7384545
vn -0.5780988 -0.3012126 -0.7583355
vn -0.573553 -0.6459112 -0.5038211
vn -0.9967101 -0.0800046 0.01297612
vn -0.8713914 -0.4885238 0.04496244
vn -0.567826 -0.1757309 0.8041718
vn -0.5662451 -0.5566317 0.6078879
vn 0.2796681 -0.4926687 0.824053
vn 0.03673505 -0.7821289 0.6220329
vn 0.6982774 -0.7138817 0.05274159
vn 0.3345712 -0.9395192 0.07325075
vn 0.2693938 -0.6181519 -0.7384545
vn 0.02942698 -0.8714077 -0.489676
vn -0.4738847 0.1057752 -0.874211
vn 0.4625356 -0.2444207 -0.8522437
vn -0.9364199 0.350193 -0.02196582
vn -0.4625368 0.2444217 0.8522427
vn 0.4738845 -0.1057718 0.8742115
vn 0.9364198 -0.3501932 0.02196623
vn 0.4625356 -0.2444207 -0.8522437
vn -0.2796669 0.4926699 -0.8240526
vn 0.5678277 0.1757333 -0.8041701
vn -0.6982791 0.7138802 -0.05273887
vn -0.2693966 0.6181508 0.7384545
vn 0.5780987 0.3012123 0.7583356
vn 0.9967101 0.08000366 -0.01297823
vn 0.5678277 0.1757333 -0.8041701
vn -0.03673712 0.7821283 -0.6220336
vn 0.5662466 0.5566348 -0.6078835
vn -0.3345721 0.9395187 -0.07325354
vn -0.02942652 0.8714066 0.4896782
vn 0.5735562 0.6459091 0.5038201
vn 0.8713925 0.4885222 -0.04495767
vn 0.5662466 0.5566348 -0.6078835
vn 0.3508264 0.9332482 -0.07725664
vn 0.3508264 0.9332482 -0.07725664
vn 0.3508264 0.9332482 -0.07725664
vn 0.3508264 0.9332482 -0.07725664
vn 0.3508264 0.9332482 -0.07725664
vn 0.3508264 0.9332482 -0.07725664
vn -0.3508211 -0.9332506 0.0772511
vn -0.3508211 -0.9332506 0.0772511
vn -0.3508211 -0.9332506 0.0772511
vn -0.3508211 -0.9332506 0.0772511
vn -0.3508211 -0.9332506 0.0772511
vn -0.3508211 -0.9332506 0.0772511
vn -0.2188895 -0.9756034 0.0168922
vn -0.5923073 -0.7997117 -0.09814912
vn -0.4076234 -0.5278755 0.7451112
vn -0.08748668 -0.7821956 0.6168598
vn 0.3709504 -0.1021286 0.9230198
vn 0.4664613 -0.4792818 0.7434399
vn 0.9648457 0.05178133 0.2576654
vn 0.8890101 -0.3697768 0.2700484
vn 0.7801617 -0.2200558 -0.5855964
vn 0.7576117 -0.5631842 -0.3299212
vn 0.001587313 -0.645802 -0.7635033
vn 0.2036614 -0.8661002 -0.4565003
vn -0.5923073 -0.7997117 -0.09814912
vn -0.2188895 -0.9756034 0.0168922
vn -0.65621 -0.1700595 0.7351654
vn -0.8602703 -0.4704176 -0.1965764
vn 0.2040602 0.3003609 0.9317418
vn 0.8602705 0.4704173 0.1965765
vn 0.6562101 0.1700597 -0.7351653
vn -0.2040584 -0.3003601 -0.9317425
vn -0.8602703 -0.4704176 -0.1965764
vn -0.7801623 0.2200549 0.585596
vn -0.9648454 -0.05178107 -0.2576665
vn -0.001587008 0.6458 0.763505
vn 0.5923077 0.7997108 0.09815361
vn 0.4076241 0.5278747 -0.7451113
vn -0.3709513 0.1021272 -0.9230196
vn -0.9648454 -0.05178107 -0.2576665
vn -0.7576104 0.5631844 0.3299237
vn -0.8890109 0.3697737 -0.27005
vn -0.203661 0.866099 0.4565027
vn 0.2188861 0.9756044 -0.01688642
vn 0.08748568 0.7821951 -0.6168607
vn -0.4664606 0.4792816 -0.7434404
vn -0.8890109 0.3697737 -0.27005
vn -0.4379368 0.8792312 -0.1875199
vn -0.4379368 0.8792312 -0.1875199
vn -0.4379368 0.8792312 -0.1875199
vn -0.4379368 0.8792312 -0.1875199
vn -0.4379368 0.8792312 -0.1875199
vn -0.4379368 0.8792312 -0.1875199
vn 0.437937 -0.8792295 0.1875271
vn 0.437937 -0.8792295 0.1875271
vn 0.437937 -0.8792295 0.1875271
vn 0.437937 -0.8792295 0.1875271
vn 0.437937 -0.8792295 0.1875271
vn 0.437937 -0.8792295 0.1875271
g meger3d_Char_sundries_C2_2_0
f 3/3/3 2/2/2 1/1/1
f 4/4/4 3/3/3 1/1/1
f 5/5/5 3/3/3 4/4/4
f 6/6/6 5/5/5 4/4/4
f 7/7/7 5/5/5 6/6/6
f 8/8/8 7/7/7 6/6/6
f 9/9/9 7/7/7 8/8/8
f 10/10/10 9/9/9 8/8/8
f 11/11/11 9/9/9 10/10/10
f 12/12/12 11/11/11 10/10/10
f 13/13/13 11/11/11 12/12/12
f 14/14/14 13/13/13 12/12/12
f 17/17/17 16/16/16 15/15/15
f 18/18/18 17/17/17 15/15/15
f 21/21/21 20/20/20 19/19/19
f 22/22/22 21/21/21 19/19/19
f 23/23/23 21/21/21 22/22/22
f 24/24/24 23/23/23 22/22/22
f 27/27/27 26/26/26 25/25/25
f 28/28/28 27/27/27 25/25/25
f 31/31/31 30/30/30 29/29/29
f 29/29/29 30/30/30 32/32/32
f 32/32/32 30/30/30 33/33/33
f 33/33/33 30/30/30 34/34/34
f 34/34/34 30/30/30 35/35/35
f 35/35/35 30/30/30 36/36/36
f 36/36/36 30/30/30 37/37/37
f 37/37/37 30/30/30 38/38/38
f 38/38/38 30/30/30 39/39/39
f 39/39/39 30/30/30 31/31/31
f 42/42/42 41/41/41 40/40/40
f 43/43/43 41/41/41 42/42/42
f 44/44/44 41/41/41 43/43/43
f 45/45/45 41/41/41 44/44/44
f 46/46/46 41/41/41 45/45/45
f 47/47/47 41/41/41 46/46/46
f 47/47/47 48/48/48 41/41/41
f 49/49/49 41/41/41 48/48/48
f 50/50/50 41/41/41 49/49/49
f 50/50/50 40/40/40 41/41/41
f 53/53/53 52/52/52 51/51/51
f 54/54/54 53/53/53 51/51/51
f 55/55/55 53/53/53 54/54/54
f 56/56/56 55/55/55 54/54/54
f 57/57/57 55/55/55 56/56/56
f 58/58/58 57/57/57 56/56/56
f 59/59/59 57/57/57 58/58/58
f 60/60/60 59/59/59 58/58/58
f 61/61/61 59/59/59 60/60/60
f 62/62/62 61/61/61 60/60/60
f 63/63/63 61/61/61 62/62/62
f 64/64/64 63/63/63 62/62/62
f 53/53/53 65/65/65 52/52/52
f 65/65/65 66/66/66 52/52/52
f 67/67/67 65/65/65 53/53/53
f 55/55/55 67/67/67 53/53/53
f 68/68/68 67/67/67 55/55/55
f 57/57/57 68/68/68 55/55/55
f 69/69/69 68/68/68 57/57/57
f 59/59/59 69/69/69 57/57/57
f 70/70/70 69/69/69 59/59/59
f 61/61/61 70/70/70 59/59/59
f 71/71/71 70/70/70 61/61/61
f 63/63/63 71/71/71 61/61/61
f 65/65/65 72/72/72 66/66/66
f 72/72/72 73/73/73 66/66/66
f 74/74/74 72/72/72 65/65/65
f 67/67/67 74/74/74 65/65/65
f 75/75/75 74/74/74 67/67/67
f 68/68/68 75/75/75 67/67/67
f 76/76/76 75/75/75 68/68/68
f 69/69/69 76/76/76 68/68/68
f 77/77/77 76/76/76 69/69/69
f 70/70/70 77/77/77 69/69/69
f 78/78/78 77/77/77 70/70/70
f 71/71/71 78/78/78 70/70/70
f 72/72/72 79/79/79 73/73/73
f 79/79/79 80/80/80 73/73/73
f 81/81/81 79/79/79 72/72/72
f 74/74/74 81/81/81 72/72/72
f 82/82/82 81/81/81 74/74/74
f 75/75/75 82/82/82 74/74/74
f 83/83/83 82/82/82 75/75/75
f 76/76/76 83/83/83 75/75/75
f 84/84/84 83/83/83 76/76/76
f 77/77/77 84/84/84 76/76/76
f 85/85/85 84/84/84 77/77/77
f 78/78/78 85/85/85 77/77/77
f 79/79/79 86/86/86 80/80/80
f 81/81/81 87/87/87 79/79/79
f 82/82/82 88/88/88 81/81/81
f 83/83/83 89/89/89 82/82/82
f 84/84/84 90/90/90 83/83/83
f 85/85/85 91/91/91 84/84/84
f 51/51/51 92/92/92 54/54/54
f 54/54/54 93/93/93 56/56/56
f 56/56/56 94/94/94 58/58/58
f 58/58/58 95/95/95 60/60/60
f 60/60/60 96/96/96 62/62/62
f 62/62/62 97/97/97 64/64/64
f 100/100/100 99/99/99 98/98/98
f 101/101/101 100/100/100 98/98/98
f 102/102/102 100/100/100 101/101/101
f 103/103/103 102/102/102 101/101/101
f 104/104/104 102/102/102 103/103/103
f 105/105/105 104/104/104 103/103/103
f 106/106/106 104/104/104 105/105/105
f 107/107/107 106/106/106 105/105/105
f 108/108/108 106/106/106 107/107/107
f 109/109/109 108/108/108 107/107/107
f 110/110/110 108/108/108 109/109/109
f 111/111/111 110/110/110 109/109/109
f 100/100/100 112/112/112 99/99/99
f 112/112/112 113/113/113 99/99/99
f 114/114/114 112/112/112 100/100/100
f 102/102/102 114/114/114 100/100/100
f 115/115/115 114/114/114 102/102/102
f 104/104/104 115/115/115 102/102/102
f 116/116/116 115/115/115 104/104/104
f 106/106/106 116/116/116 104/104/104
f 117/117/117 116/116/116 106/106/106
f 108/108/108 117/117/117 106/106/106
f 118/118/118 117/117/117 108/108/108
f 110/110/110 118/118/118 108/108/108
f 112/112/112 119/119/119 113/113/113
f 119/119/119 120/120/120 113/113/113
f 121/121/121 119/119/119 112/112/112
f 114/114/114 121/121/121 112/112/112
f 122/122/122 121/121/121 114/114/114
f 115/115/115 122/122/122 114/114/114
f 123/123/123 122/122/122 115/115/115
f 116/116/116 123/123/123 115/115/115
f 124/124/124 123/123/123 116/116/116
f 117/117/117 124/124/124 116/116/116
f 125/125/125 124/124/124 117/117/117
f 118/118/118 125/125/125 117/117/117
f 119/119/119 126/126/126 120/120/120
f 126/126/126 127/127/127 120/120/120
f 128/128/128 126/126/126 119/119/119
f 121/121/121 128/128/128 119/119/119
f 129/129/129 128/128/128 121/121/121
f 122/122/122 129/129/129 121/121/121
f 130/130/130 129/129/129 122/122/122
f 123/123/123 130/130/130 122/122/122
f 131/131/131 130/130/130 123/123/123
f 124/124/124 131/131/131 123/123/123
f 132/132/132 131/131/131 124/124/124
f 125/125/125 132/132/132 124/124/124
f 126/126/126 133/133/133 127/127/127
f 128/128/128 134/134/134 126/126/126
f 129/129/129 135/135/135 128/128/128
f 130/130/130 136/136/136 129/129/129
f 131/131/131 137/137/137 130/130/130
f 132/132/132 138/138/138 131/131/131
f 98/98/98 139/139/139 101/101/101
f 101/101/101 140/140/140 103/103/103
f 103/103/103 141/141/141 105/105/105
f 105/105/105 142/142/142 107/107/107
f 107/107/107 143/143/143 109/109/109
f 109/109/109 144/144/144 111/111/111
f 147/147/147 146/146/146 145/145/145
f 148/148/148 147/147/147 145/145/145
f 149/149/149 147/147/147 148/148/148
f 150/150/150 149/149/149 148/148/148
f 151/151/151 149/149/149 150/150/150
f 152/152/152 151/151/151 150/150/150
f 153/153/153 151/151/151 152/152/152
f 154/154/154 153/153/153 152/152/152
f 155/155/155 153/153/153 154/154/154
f 156/156/156 155/155/155 154/154/154
f 157/157/157 155/155/155 156/156/156
f 158/158/158 157/157/157 156/156/156
f 147/147/147 159/159/159 146/146/146
f 159/159/159 160/160/160 146/146/146
f 161/161/161 159/159/159 147/147/147
f 149/149/149 161/161/161 147/147/147
f 162/162/162 161/161/161 149/149/149
f 151/151/151 162/162/162 149/149/149
f 163/163/163 162/162/162 151/151/151
f 153/153/153 163/163/163 151/151/151
f 164/164/164 163/163/163 153/153/153
f 155/155/155 164/164/164 153/153/153
f 165/165/165 164/164/164 155/155/155
f 157/157/157 165/165/165 155/155/155
f 159/159/159 166/166/166 160/160/160
f 166/166/166 167/167/167 160/160/160
f 168/168/168 166/166/166 159/159/159
f 161/161/161 168/168/168 159/159/159
f 169/169/169 168/168/168 161/161/161
f 162/162/162 169/169/169 161/161/161
f 170/170/170 169/169/169 162/162/162
f 163/163/163 170/170/170 162/162/162
f 171/171/171 170/170/170 163/163/163
f 164/164/164 171/171/171 163/163/163
f 172/172/172 171/171/171 164/164/164
f 165/165/165 172/172/172 164/164/164
f 166/166/166 173/173/173 167/167/167
f 173/173/173 174/174/174 167/167/167
f 175/175/175 173/173/173 166/166/166
f 168/168/168 175/175/175 166/166/166
f 176/176/176 175/175/175 168/168/168
f 169/169/169 176/176/176 168/168/168
f 177/177/177 176/176/176 169/169/169
f 170/170/170 177/177/177 169/169/169
f 178/178/178 177/177/177 170/170/170
f 171/171/171 178/178/178 170/170/170
f 179/179/179 178/178/178 171/171/171
f 172/172/172 179/179/179 171/171/171
f 173/173/173 180/180/180 174/174/174
f 175/175/175 181/181/181 173/173/173
f 176/176/176 182/182/182 175/175/175
f 177/177/177 183/183/183 176/176/176
f 178/178/178 184/184/184 177/177/177
f 179/179/179 185/185/185 178/178/178
f 145/145/145 186/186/186 148/148/148
f 148/148/148 187/187/187 150/150/150
f 150/150/150 188/188/188 152/152/152
f 152/152/152 189/189/189 154/154/154
f 154/154/154 190/190/190 156/156/156
f 156/156/156 191/191/191 158/158/158
