g meger3d_Char3_sundries_C1_7
v 0.01331638 0.02722916 0.02933232
v -0.09229432 -0.02171648 -0.005412511
v -0.06004859 0.07304551 0.03383687
v -0.1893344 0.09646971 0.02830504
v -0.2394182 0.0231029 -0.01519265
v -0.3577499 0.1907772 -0.02500788
v 0.01704107 0.02005951 -0.04587352
v -0.09229432 -0.02171648 -0.005412511
v 0.004386549 -0.06818742 -0.04481324
v -0.1131479 -0.1442645 0.002980407
v -0.03223975 -0.1558266 -0.03019035
v -0.07858671 -0.3386077 0.02749511
v -0.09229432 -0.02171648 -0.005412511
v -0.0004200101 -0.06038646 0.03015381
v -0.03606596 -0.1452295 0.04469796
v -0.1131479 -0.1442645 0.002980407
v -0.07858671 -0.3386077 0.02749511
v 0.01331638 0.02722916 0.02933232
v -0.1885295 0.098774 -0.04723621
v -0.2394182 0.0231029 -0.01519265
v -0.09229432 -0.02171648 -0.005412511
v -0.05884141 0.06647006 -0.04131936
v -0.3577499 0.1907772 -0.02500788
v 0.01704107 0.02005951 -0.04587352
v -0.0004200101 -0.06038646 0.03015381
v -0.03223975 -0.1558266 -0.03019035
v -0.03606596 -0.1452295 0.04469796
v 0.004386549 -0.06818742 -0.04481324
v -0.07858671 -0.3386077 0.02749511
v 0.01704107 0.02005951 -0.04587352
v 0.01331638 0.02722916 0.02933232
v -0.1893344 0.09646971 0.02830504
v -0.05884141 0.06647006 -0.04131936
v -0.06004859 0.07304551 0.03383687
v 0.01331638 0.02722916 0.02933232
v 0.01704107 0.02005951 -0.04587352
v -0.1893344 0.09646971 0.02830504
v -0.1885295 0.098774 -0.04723621
v -0.05884141 0.06647006 -0.04131936
v -0.3577499 0.1907772 -0.02500788
v 0.05870412 0.0131037 0.03151434
v 0.1648818 -0.05304072 0.01504493
v 0.0656452 -0.07464378 0.03799449
v 0.1195395 -0.1653808 0.05343036
v 0.2026358 -0.1677572 0.01838133
v 0.06344271 0.01916058 -0.04386287
v 0.1648818 -0.05304072 0.01504493
v 0.1502573 0.05266237 -0.03012982
v 0.3404912 0.0637412 -0.01723891
v 0.3659603 0.01097934 0.02161662
v 0.1648818 -0.05304072 0.01504493
v 0.1486741 0.05100708 0.04535456
v 0.3390346 0.05552757 0.05852329
v 0.3659603 0.01097934 0.02161662
v 0.05870412 0.0131037 0.03151434
v 0.1241496 -0.1592568 -0.02212382
v 0.2026358 -0.1677572 0.01838133
v 0.1648818 -0.05304072 0.01504493
v 0.07105438 -0.06791662 -0.03755412
v 0.06344271 0.01916058 -0.04386287
v 0.1486741 0.05100708 0.04535456
v 0.3404912 0.0637412 -0.01723891
v 0.3390346 0.05552757 0.05852329
v 0.1502573 0.05266237 -0.03012982
v 0.05870412 0.0131037 0.03151434
v 0.06344271 0.01916058 -0.04386287
v 0.0656452 -0.07464378 0.03799449
v 0.1195395 -0.1653808 0.05343036
v 0.1241496 -0.1592568 -0.02212382
v 0.07105438 -0.06791662 -0.03755412
v 0.1214419 -0.3242463 0.005324438
v 0.05870412 0.0131037 0.03151434
v 0.06344271 0.01916058 -0.04386287
v 0.3390346 0.05552757 0.05852329
v 0.3404912 0.0637412 -0.01723891
v 0.3659603 0.01097934 0.02161662
v 0.2026358 -0.1677572 0.01838133
v 0.1214419 -0.3242463 0.005324438
v 0.1195395 -0.1653808 0.05343036
v 0.1241496 -0.1592568 -0.02212382
v 0.1214419 -0.3242463 0.005324438
v 0.2026358 -0.1677572 0.01838133
v 0.04697366 0.05892632 0.03215383
v 0.0423352 0.1919417 -0.009860262
v 0.1201906 0.1066011 0.04279344
v 0.1608283 0.2120083 0.03909306
v 0.1272334 0.2790732 -0.00265744
v 0.3304471 0.3303058 0.02701454
v 0.04687893 0.05917652 -0.04337967
v 0.0423352 0.1919417 -0.009860262
v -0.02062417 0.118877 -0.03969338
v -0.06598983 0.2025735 -0.04384157
v -0.03300073 0.2718962 -0.01504099
v -0.2203209 0.3210277 -0.0338195
v 0.0423352 0.1919417 -0.009860262
v -0.02186587 0.1296489 0.03528686
v -0.07739205 0.2067593 0.03102277
v -0.03300073 0.2718962 -0.01504099
v -0.2203209 0.3210277 -0.0338195
v 0.04697366 0.05892632 0.03215383
v 0.1743741 0.2104715 -0.03579925
v 0.1272334 0.2790732 -0.00265744
v 0.0423352 0.1919417 -0.009860262
v 0.1221338 0.1138864 -0.03291145
v 0.3304471 0.3303058 0.02701454
v 0.04687893 0.05917652 -0.04337967
v -0.02186587 0.1296489 0.03528686
v -0.06598983 0.2025735 -0.04384157
v -0.07739205 0.2067593 0.03102277
v -0.2203209 0.3210277 -0.0338195
v -0.02186587 0.1296489 0.03528686
v -0.02062417 0.118877 -0.03969338
v -0.06598983 0.2025735 -0.04384157
v 0.04697366 0.05892632 0.03215383
v 0.1608283 0.2120083 0.03909306
v 0.1221338 0.1138864 -0.03291145
v 0.1201906 0.1066011 0.04279344
v 0.04697366 0.05892632 0.03215383
v 0.04687893 0.05917652 -0.04337967
v 0.1608283 0.2120083 0.03909306
v 0.1743741 0.2104715 -0.03579925
v 0.1221338 0.1138864 -0.03291145
v 0.3304471 0.3303058 0.02701454
v 0.04697366 0.05892632 0.03215383
v 0.04687893 0.05917652 -0.04337967
v -0.02062417 0.118877 -0.03969338
v 0.0504697 0.1257585 -0.01743512
v -0.03416666 0.0924713 -0.01644786
v -0.04779863 -0.001503914 -0.01852008
v 0.1266236 0.07568868 -0.005796488
v 0.1172488 -0.0191962 -0.007571831
v 0.0345998 -0.06477994 -0.01947611
v 0.04942837 0.1253096 0.008690161
v -0.03399416 0.09625643 0.009547787
v -0.03416666 0.0924713 -0.01644786
v -0.03416666 0.0924713 -0.01644786
v 0.0504697 0.1257585 -0.01743512
v 0.04942837 0.1253096 0.008690161
v 0.04942837 0.1253096 0.008690161
v 0.1266236 0.07568868 -0.005796488
v 0.1265243 0.07289376 0.0204626
v 0.0504697 0.1257585 -0.01743512
v 0.03263995 -0.06483103 0.006597357
v 0.1153367 -0.02176744 0.01860836
v 0.1172488 -0.0191962 -0.007571831
v 0.0345998 -0.06477994 -0.01947611
v 0.03263995 -0.06483103 0.006597357
v -0.04779863 -0.001503914 -0.01852008
v -0.04942079 0.002286108 0.007406479
v 0.03263995 -0.06483103 0.006597357
v 0.0345998 -0.06477994 -0.01947611
v -0.04779863 -0.001503914 -0.01852008
v 0.1265243 0.07289376 0.0204626
v 0.1172488 -0.0191962 -0.007571831
v 0.1153367 -0.02176744 0.01860836
v 0.1265243 0.07289376 0.0204626
v 0.1266236 0.07568868 -0.005796488
v 0.1172488 -0.0191962 -0.007571831
v -0.04942079 0.002286108 0.007406479
v -0.03416666 0.0924713 -0.01644786
v -0.03399416 0.09625643 0.009547787
v -0.04942079 0.002286108 0.007406479
v -0.04779863 -0.001503914 -0.01852008
v -0.03416666 0.0924713 -0.01644786
v -0.04942079 0.002286108 0.007406479
v -0.03399416 0.09625643 0.009547787
v 0.04942837 0.1253096 0.008690161
v 0.1265243 0.07289376 0.0204626
v 0.1153367 -0.02176744 0.01860836
v 0.03263995 -0.06483103 0.006597357
vt 0.9869546 0.1984158
vt 0.9855845 0.1839971
vt 0.9859761 0.1958539
vt 0.9842747 0.194755
vt 0.9836371 0.1816455
vt 0.9820011 0.1718298
vt 0.9869676 0.1986568
vt 0.9855845 0.1839971
vt 0.9868492 0.2040004
vt 0.9853809 0.1914427
vt 0.9864248 0.2094004
vt 0.9859458 0.203108
vt 0.9855845 0.2091519
vt 0.9868215 0.2288785
vt 0.9864085 0.2341075
vt 0.9853809 0.2165975
vt 0.9859458 0.2282628
vt 0.9869546 0.2235706
vt 0.9842446 0.2195872
vt 0.9836371 0.2068003
vt 0.9855845 0.2091519
vt 0.985956 0.2212203
vt 0.9820011 0.1969846
vt 0.9869676 0.2238116
vt 0.1499669 0.1693305
vt 0.1495703 0.1750072
vt 0.149554 0.1745595
vt 0.1499946 0.1696073
vt 0.1490913 0.1862593
vt 0.1501131 0.1642637
vt 0.1501 0.1640226
vt 0.1474201 0.1603618
vt 0.1491015 0.1616723
vt 0.1491215 0.1614607
vt 0.1501 0.1640226
vt 0.1501131 0.1642637
vt 0.1474201 0.1603618
vt 0.14739 0.1600392
vt 0.1491015 0.1616723
vt 0.1451465 0.1549811
vt 0.987555 0.1991573
vt 0.9889659 0.1852869
vt 0.9876947 0.2044349
vt 0.9884531 0.2097964
vt 0.9895198 0.1921025
vt 0.9875743 0.1985995
vt 0.9889659 0.1852869
vt 0.9886963 0.1963995
vt 0.9911784 0.1952876
vt 0.9915584 0.1809474
vt 0.9889659 0.2104417
vt 0.988716 0.2218396
vt 0.9912033 0.2211226
vt 0.9915584 0.2061022
vt 0.987555 0.2243121
vt 0.9884706 0.2343893
vt 0.9895198 0.2172573
vt 0.9889659 0.2104417
vt 0.9877224 0.2289895
vt 0.9875743 0.2237543
vt 0.1518614 0.1622916
vt 0.1543239 0.1608944
vt 0.1543488 0.1615746
vt 0.1518417 0.1620063
vt 0.1507005 0.1647641
vt 0.1507197 0.1642064
vt 0.1508403 0.1700417
vt 0.1515985 0.1754033
vt 0.1516161 0.1748413
vt 0.1508678 0.1694415
vt 0.1516812 0.1848409
vt 0.1507005 0.1647641
vt 0.1507197 0.1642064
vt 0.1543488 0.1615746
vt 0.1543239 0.1608944
vt 0.1547039 0.1640987
vt 0.9895198 0.1921025
vt 0.9885358 0.2016897
vt 0.9884531 0.2097964
vt 0.9884706 0.2343893
vt 0.9885358 0.2268445
vt 0.9895198 0.2172573
vt 0.9873785 0.1964313
vt 0.9872266 0.1707942
vt 0.9883142 0.1934052
vt 0.9887872 0.1869525
vt 0.9882922 0.1653567
vt 0.9909315 0.1618368
vt 0.9873377 0.1962345
vt 0.9872266 0.1707942
vt 0.986428 0.1928206
vt 0.9857905 0.1878885
vt 0.9861996 0.16616
vt 0.9837209 0.1636278
vt 0.9872266 0.195949
vt 0.9864453 0.2175109
vt 0.9856787 0.2130003
vt 0.9861996 0.1913148
vt 0.9837209 0.1887826
vt 0.9873785 0.2215861
vt 0.9889256 0.2119856
vt 0.9882922 0.1905115
vt 0.9872266 0.195949
vt 0.988296 0.2179345
vt 0.9909315 0.1869916
vt 0.9873377 0.2213893
vt 0.1495908 0.157963
vt 0.1489359 0.1534954
vt 0.1488241 0.1534523
vt 0.1468664 0.1467791
vt 0.1495908 0.157963
vt 0.1495734 0.1584274
vt 0.1489359 0.1534954
vt 0.1505239 0.1620381
vt 0.1519326 0.1525594
vt 0.1514415 0.1583865
vt 0.1514595 0.159012
vt 0.1505239 0.1620381
vt 0.1504831 0.1618414
vt 0.1519326 0.1525594
vt 0.152071 0.1524376
vt 0.1514415 0.1583865
vt 0.1540769 0.144988
vt 0.1505239 0.1620381
vt 0.1504831 0.1618414
vt 0.1495734 0.1584274
vt 0.1486691 0.171187
vt 0.1475831 0.1734041
vt 0.1474532 0.1790873
vt 0.1496946 0.1740368
vt 0.1496209 0.1797648
vt 0.1485605 0.1826858
vt 0.1529919 0.1731187
vt 0.1519195 0.1750776
vt 0.1519057 0.1752433
vt 0.1519057 0.1752433
vt 0.1529917 0.1730262
vt 0.1529919 0.1731187
vt 0.1529919 0.1731187
vt 0.1540171 0.1758759
vt 0.154031 0.1761076
vt 0.1529917 0.1730262
vt 0.1528711 0.1845956
vt 0.1539335 0.1818265
vt 0.1539434 0.181604
vt 0.1528831 0.1845249
vt 0.1528711 0.1845956
vt 0.1517758 0.1809265
vt 0.1517662 0.1807649
vt 0.1528711 0.1845956
vt 0.1528831 0.1845249
vt 0.1517758 0.1809265
vt 0.154031 0.1761076
vt 0.1539434 0.181604
vt 0.1539335 0.1818265
vt 0.154031 0.1761076
vt 0.1540171 0.1758759
vt 0.1539434 0.181604
vt 0.1517662 0.1807649
vt 0.1519057 0.1752433
vt 0.1519195 0.1750776
vt 0.1517662 0.1807649
vt 0.1517758 0.1809265
vt 0.1519057 0.1752433
vt 0.1474437 0.1789258
vt 0.147597 0.1732385
vt 0.1486694 0.1712796
vt 0.1497084 0.1742685
vt 0.149611 0.1799874
vt 0.1485486 0.1827565
vn -0.1513649 -0.3338521 0.9303932
vn -0.1465721 -0.3647528 0.9194955
vn -0.1477506 -0.3572865 0.9222343
vn -0.2575873 -0.3253732 0.9098248
vn -0.2817638 -0.3129541 0.907011
vn -0.4123928 -0.2395845 0.8789377
vn -0.3603426 0.04047559 -0.9319415
vn -0.3714874 0.01595807 -0.9283008
vn -0.3699748 0.01932198 -0.9288409
vn -0.3876166 -0.08501621 -0.9178919
vn -0.3868276 -0.07698685 -0.9189327
vn -0.3952482 -0.1838159 -0.8999949
vn -0.3576852 0.1493228 0.9218265
vn -0.355302 0.1382649 0.9244692
vn -0.4160095 0.127239 0.9004146
vn -0.4218383 0.1178628 0.8989776
vn -0.4755525 0.02634479 0.8792928
vn -0.3376185 0.06173839 0.9392562
vn -0.1362037 -0.3069296 -0.9419357
vn -0.1454466 -0.3009705 -0.9424766
vn -0.1092714 -0.3393176 -0.9343036
vn -0.1391416 -0.3279406 -0.9343953
vn -0.2490449 -0.2308163 -0.9405852
vn -0.2328772 -0.289662 -0.9283664
vn 0.9616528 -0.2606697 0.08529476
vn 0.9490204 -0.3018802 0.09071109
vn 0.9493535 -0.3008675 0.09059104
vn 0.9616712 -0.2606045 0.0852866
vn 0.9719315 -0.2209106 0.08091827
vn 0.9865609 -0.147292 0.07072943
vn 0.9865609 -0.147292 0.07072943
vn 0.3351086 0.9421793 0.0004484041
vn 0.3769894 0.9251741 -0.0439521
vn 0.3667493 0.929336 -0.04277293
vn 0.522043 0.8507602 -0.06064783
vn 0.522043 0.8507602 -0.06064783
vn 0.3351086 0.9421793 0.0004484041
vn 0.3466605 0.9379863 0.002873309
vn 0.3769894 0.9251741 -0.0439521
vn 0.4806399 0.8763395 0.03185285
vn 0.2061536 0.08827633 0.9745296
vn 0.2548501 0.1714121 0.9516666
vn 0.2402154 0.1461526 0.9596541
vn 0.3237336 0.01322295 0.9460558
vn 0.330812 -0.02178747 0.9434452
vn 0.2752053 -0.3453677 -0.8972085
vn 0.1792672 -0.4084032 -0.8950251
vn 0.2012698 -0.394556 -0.8965579
vn 0.1284849 -0.4390332 -0.8892365
vn 0.128485 -0.4390332 -0.8892365
vn 0.005102277 -0.3607998 0.9326293
vn 0.0001094659 -0.3493201 0.9370034
vn 0.02501513 -0.4059729 0.9135426
vn 0.02501513 -0.4059729 0.9135426
vn -0.02798188 -0.2835858 0.9585385
vn 0.4613333 0.01676208 -0.8870685
vn 0.4583218 -0.01560711 -0.8886493
vn 0.4756686 0.0849184 -0.8755161
vn 0.4825027 0.04349657 -0.8748138
vn 0.4913256 -0.0201372 -0.8707432
vn -0.2062378 0.9772559 0.04936402
vn -0.04525195 0.9969144 0.06413963
vn -0.04525195 0.9969144 0.06413962
vn -0.2237118 0.9734899 0.04764904
vn -0.3785397 0.9250513 0.03142671
vn -0.3785397 0.9250515 0.03142671
vn -0.9381929 -0.3339305 -0.09101885
vn -0.9597132 -0.268211 -0.0837467
vn -0.9491038 -0.3028968 -0.08634599
vn -0.9540536 -0.2863835 -0.08812571
vn -0.9981547 0.006334269 -0.06039086
vn -0.9933385 -0.08811925 -0.07425302
vn -0.9933385 -0.08811926 -0.07425302
vn 0.8778565 0.4740328 0.06827008
vn 0.8778565 0.4740328 0.06827007
vn 0.8778565 0.4740328 0.06827008
vn 0.330812 -0.02178747 0.9434452
vn 0.3682413 -0.2654065 0.8910431
vn 0.3237336 0.01322295 0.9460558
vn 0.4613333 0.01676208 -0.8870685
vn 0.4398525 -0.1544002 -0.8846979
vn 0.4583218 -0.01560711 -0.8886493
vn -0.3119767 0.2762498 0.9090415
vn -0.3783954 0.2568571 0.8892927
vn -0.3547989 0.2639657 0.8969058
vn -0.3415488 0.3199477 0.8837295
vn -0.3226223 0.339933 0.8833801
vn -0.2349926 0.4261375 0.8736047
vn 0.1660728 0.2467303 -0.9547482
vn 0.2674191 0.1976798 -0.9430852
vn 0.2298698 0.216345 -0.9488702
vn 0.2585209 0.2272032 -0.9389066
vn 0.2401564 0.2448839 -0.9393384
vn 0.1740921 0.3060108 -0.935975
vn 0.3417829 0.3229803 0.8825351
vn 0.3420145 0.3145811 0.8854744
vn 0.2284665 0.4313376 0.8727834
vn 0.2056705 0.448779 0.8696534
vn 0.06029942 0.5486213 0.8338937
vn 0.3424687 0.2938166 0.8924051
vn -0.1196746 0.295791 -0.9477266
vn -0.1023852 0.3155328 -0.9433749
vn -0.1597504 0.2025328 -0.9661574
vn -0.1246024 0.2151019 -0.96861
vn 0.01847895 0.4451944 -0.8952432
vn -0.04202113 0.2432219 -0.96906
vn -0.7800428 -0.6256251 0.01124435
vn -0.7509815 -0.6595182 -0.032596
vn -0.7439959 -0.6673434 -0.03350982
vn -0.6101299 -0.7908026 -0.04871156
vn -0.7800428 -0.6256251 0.01124435
vn -0.7683594 -0.6398192 0.01597279
vn -0.7509815 -0.6595182 -0.032596
vn -0.6893525 -0.723009 0.04528907
vn 0.7816545 -0.6155763 0.1004087
vn 0.7717029 -0.6355246 0.02414567
vn 0.7620808 -0.6471426 0.02095917
vn 0.5706323 -0.8205053 -0.03390776
vn 0.5706323 -0.8205053 -0.03390776
vn 0.7816545 -0.6155763 0.1004087
vn 0.7715328 -0.6279978 0.1017648
vn 0.7717029 -0.6355246 0.02414567
vn 0.5736405 -0.810213 0.1203801
vn -0.6893525 -0.723009 0.04528907
vn -0.6893525 -0.723009 0.04528907
vn -0.7683594 -0.6398192 0.01597279
vn 0.06195904 -0.0393406 -0.997303
vn 0.06195904 -0.0393406 -0.997303
vn 0.06692295 0.006800808 -0.997735
vn 0.06691882 0.006761803 -0.9977355
vn 0.07146145 0.0501977 -0.9961795
vn 0.07146145 0.0501977 -0.9961795
vn -0.3476697 0.935315 -0.0656637
vn -0.3476696 0.935315 -0.06566369
vn -0.3476696 0.935315 -0.06566369
vn -0.3476696 0.935315 -0.06566369
vn -0.3476696 0.935315 -0.0656637
vn -0.3476697 0.935315 -0.0656637
vn 0.5480437 0.8340298 0.06357985
vn 0.5480437 0.8340298 0.06357986
vn 0.5480437 0.8340298 0.06357985
vn 0.5480437 0.8340299 0.06357986
vn 0.4735121 -0.8807402 -0.009113308
vn 0.4735121 -0.8807402 -0.009113308
vn 0.4735121 -0.8807402 -0.009113308
vn 0.4735121 -0.8807402 -0.009113308
vn -0.6211315 -0.7835892 0.01355558
vn -0.6211315 -0.7835892 0.01355558
vn -0.6211315 -0.7835892 0.01355558
vn -0.6211315 -0.7835892 0.01355558
vn -0.6211315 -0.7835892 0.01355558
vn -0.6211315 -0.7835892 0.01355558
vn 0.9937483 -0.1083213 0.02703115
vn 0.9937483 -0.1083213 0.02703115
vn 0.9937483 -0.1083213 0.02703115
vn 0.9937483 -0.1083213 0.02703115
vn 0.9937483 -0.1083213 0.02703115
vn 0.9937483 -0.1083213 0.02703115
vn -0.9868529 0.1536996 -0.04997652
vn -0.9868529 0.1536996 -0.04997652
vn -0.9868529 0.1536996 -0.04997652
vn -0.9868529 0.1536996 -0.04997652
vn -0.9868529 0.1536996 -0.04997652
vn -0.9868529 0.1536996 -0.04997652
vn -0.06868515 -0.005784989 0.9976216
vn -0.06206897 0.03946614 0.9972913
vn -0.06206898 0.03946614 0.9972913
vn -0.06885541 -0.006962391 0.9976024
vn -0.07490087 -0.04920997 0.995976
vn -0.07490087 -0.04920999 0.995976
g meger3d_Char3_sundries_C1_7_0
f 3/3/3 2/2/2 1/1/1
f 2/2/2 3/3/3 4/4/4
f 4/4/4 5/5/5 2/2/2
f 4/4/4 6/6/6 5/5/5
f 9/9/9 8/8/8 7/7/7
f 10/10/10 8/8/8 9/9/9
f 9/9/9 11/11/11 10/10/10
f 11/11/11 12/12/12 10/10/10
f 15/15/15 14/14/14 13/13/13
f 13/13/13 16/16/16 15/15/15
f 16/16/16 17/17/17 15/15/15
f 14/14/14 18/18/18 13/13/13
f 21/21/21 20/20/20 19/19/19
f 19/19/19 22/22/22 21/21/21
f 20/20/20 23/23/23 19/19/19
f 22/22/22 24/24/24 21/21/21
f 27/27/27 26/26/26 25/25/25
f 26/26/26 28/28/28 25/25/25
f 27/27/27 29/29/29 26/26/26
f 25/25/25 28/28/28 30/30/30
f 30/30/30 31/31/31 25/25/25
f 34/34/34 33/33/33 32/32/32
f 33/33/33 34/34/34 35/35/35
f 35/35/35 36/36/36 33/33/33
f 39/39/39 38/38/38 37/37/37
f 38/38/38 40/40/40 37/37/37
f 43/43/43 42/42/42 41/41/41
f 42/42/42 43/43/43 44/44/44
f 44/44/44 45/45/45 42/42/42
f 48/48/48 47/47/47 46/46/46
f 48/48/48 49/49/49 47/47/47
f 47/47/47 49/49/49 50/50/50
f 53/53/53 52/52/52 51/51/51
f 51/51/51 54/54/54 53/53/53
f 52/52/52 55/55/55 51/51/51
f 58/58/58 57/57/57 56/56/56
f 56/56/56 59/59/59 58/58/58
f 59/59/59 60/60/60 58/58/58
f 63/63/63 62/62/62 61/61/61
f 62/62/62 64/64/64 61/61/61
f 61/61/61 64/64/64 65/65/65
f 64/64/64 66/66/66 65/65/65
f 69/69/69 68/68/68 67/67/67
f 67/67/67 70/70/70 69/69/69
f 69/69/69 71/71/71 68/68/68
f 70/70/70 67/67/67 72/72/72
f 72/72/72 73/73/73 70/70/70
f 76/76/76 75/75/75 74/74/74
f 79/79/79 78/78/78 77/77/77
f 82/82/82 81/81/81 80/80/80
f 85/85/85 84/84/84 83/83/83
f 84/84/84 85/85/85 86/86/86
f 86/86/86 87/87/87 84/84/84
f 86/86/86 88/88/88 87/87/87
f 91/91/91 90/90/90 89/89/89
f 91/91/91 92/92/92 90/90/90
f 90/90/90 92/92/92 93/93/93
f 92/92/92 94/94/94 93/93/93
f 97/97/97 96/96/96 95/95/95
f 95/95/95 98/98/98 97/97/97
f 98/98/98 99/99/99 97/97/97
f 96/96/96 100/100/100 95/95/95
f 103/103/103 102/102/102 101/101/101
f 101/101/101 104/104/104 103/103/103
f 102/102/102 105/105/105 101/101/101
f 104/104/104 106/106/106 103/103/103
f 109/109/109 108/108/108 107/107/107
f 109/109/109 110/110/110 108/108/108
f 113/113/113 112/112/112 111/111/111
f 111/111/111 112/112/112 114/114/114
f 117/117/117 116/116/116 115/115/115
f 116/116/116 117/117/117 118/118/118
f 118/118/118 119/119/119 116/116/116
f 122/122/122 121/121/121 120/120/120
f 121/121/121 123/123/123 120/120/120
f 126/126/126 125/125/125 124/124/124
f 129/129/129 128/128/128 127/127/127
f 127/127/127 130/130/130 129/129/129
f 129/129/129 130/130/130 131/131/131
f 131/131/131 132/132/132 129/129/129
f 135/135/135 134/134/134 133/133/133
f 138/138/138 137/137/137 136/136/136
f 141/141/141 140/140/140 139/139/139
f 140/140/140 142/142/142 139/139/139
f 145/145/145 144/144/144 143/143/143
f 143/143/143 146/146/146 145/145/145
f 149/149/149 148/148/148 147/147/147
f 152/152/152 151/151/151 150/150/150
f 155/155/155 154/154/154 153/153/153
f 158/158/158 157/157/157 156/156/156
f 161/161/161 160/160/160 159/159/159
f 164/164/164 163/163/163 162/162/162
f 167/167/167 166/166/166 165/165/165
f 165/165/165 168/168/168 167/167/167
f 169/169/169 168/168/168 165/165/165
f 165/165/165 170/170/170 169/169/169
