g meger3d_Char_sundries_C5_7
v 0.04195389 -0.2208601 -0.04193672
v 0.03881668 -0.4715324 -0.03879982
v 0.05489296 -0.4715324 7.629394E-08
v 0.05931877 -0.2208601 7.629394E-08
v 7.629394E-08 -0.2208601 -0.05931877
v 7.629394E-08 -0.4715324 -0.05487579
v -0.04193687 -0.2208601 -0.04193672
v -0.03879967 -0.4715324 -0.03879982
v -0.059319 -0.2208601 7.629394E-08
v -0.05487594 -0.4715324 7.629394E-08
v 0.03881668 -0.4715324 0.03881683
v 0.04195389 -0.2208601 0.04195404
v 7.629394E-08 -0.4715324 0.0548928
v 7.629394E-08 -0.2208601 0.05931877
v -0.03879967 -0.4715324 0.03881683
v -0.04193687 -0.2208601 0.04195404
v -0.05487594 -0.4715324 7.629394E-08
v -0.059319 -0.2208601 7.629394E-08
v 7.629394E-08 0.09708396 -0.06391441
v 0.0451931 0.09708396 -0.04519295
v 7.629394E-08 0.106411 -0.06966339
v 0.04926307 0.106411 -0.04926277
v 0.06391441 0.09708396 7.629394E-08
v 0.06966323 0.106411 7.629394E-08
v -0.04926307 0.106411 -0.04926277
v -0.0451931 0.09708396 -0.04519295
v -0.06966323 0.106411 7.629394E-08
v -0.06389778 0.09708396 7.629394E-08
v 0.0451931 0.09708396 0.04519295
v 0.04926307 0.106411 0.04926277
v 7.629394E-08 0.09708396 0.06391441
v 7.629394E-08 0.106411 0.06966339
v -0.0451931 0.09708396 0.04519295
v -0.04926307 0.106411 0.04926277
v -0.06389778 0.09708396 7.629394E-08
v -0.06966323 0.106411 7.629394E-08
v -0.06398246 0.2532501 7.629394E-08
v -0.04524383 0.2532501 0.04437904
v -0.06048912 0.3848434 7.629394E-08
v -0.04276802 0.3848434 0.04278503
v 7.629394E-08 0.2532501 0.06276123
v 7.629394E-08 0.3848434 0.06050598
v 0.04524368 0.2532501 0.04437904
v 0.04278503 0.3848434 0.04278503
v 0.06398232 0.2532501 7.629394E-08
v 0.06050613 0.3848434 7.629394E-08
v 0.04524368 0.2532501 -0.04436211
v 0.04278503 0.3848434 -0.04276787
v 7.629394E-08 0.2532501 -0.06274429
v 7.629394E-08 0.3848434 -0.06048881
v -0.04524383 0.2532501 -0.04436211
v -0.04276802 0.3848434 -0.04276787
v -0.06398246 0.2532501 7.629394E-08
v -0.06048912 0.3848434 7.629394E-08
v 0.03043961 0.4397866 -0.03043961
v 0.0430561 0.4397866 7.629394E-08
v 7.629394E-08 0.4397866 -0.04303917
v -0.03043945 0.4397866 -0.03043961
v -0.04303932 0.4397866 7.629394E-08
v 0.03043961 0.4397866 0.03043961
v 7.629394E-08 0.4715323 7.629394E-08
v 7.629394E-08 0.4397866 0.04305626
v -0.03043945 0.4397866 0.03043961
v -0.04303932 0.4397866 7.629394E-08
v 7.629394E-08 -0.4715324 0.0548928
v 0.05489296 -0.4715324 7.629394E-08
v -0.05487594 -0.4715324 7.629394E-08
v -0.03879967 -0.4715324 0.03881683
v 7.629394E-08 -0.4715324 -0.05487579
v -0.03879967 -0.4715324 -0.03879982
v 0.03881668 -0.4715324 -0.03879982
v 0.03881668 -0.4715324 0.03881683
vt 0.22618 0.054535
vt 0.225723 0.005946
vt 0.217574 0.005963
vt 0.217327 0.054545
vt 0.23503 0.054412
vt 0.233872 0.005812
vt 0.243862 0.054166
vt 0.242014 0.005563
vt 0.252667 0.053782
vt 0.250149 0.0052
vt 0.20942 0.005867
vt 0.208478 0.054446
vt 0.201271 0.005656
vt 0.199643 0.054237
vt 0.193131 0.00533
vt 0.190834 0.053906
vt 0.184995 0.004892
vt 0.182041 0.053444
vt 0.236627 0.115957
vt 0.226859 0.1158
vt 0.236699 0.117978
vt 0.226877 0.117778
vt 0.217075 0.115719
vt 0.217053 0.117686
vt 0.24657 0.118197
vt 0.246353 0.116095
vt 0.256738 0.118331
vt 0.255939 0.115983
vt 0.207298 0.115742
vt 0.207243 0.117725
vt 0.197552 0.115838
vt 0.197457 0.117868
vt 0.187861 0.115907
vt 0.187656 0.118027
vt 0.178297 0.115732
vt 0.177634 0.118115
vt 0.179704 0.149064
vt 0.188855 0.147524
vt 0.187125 0.177619
vt 0.194808 0.173587
vt 0.198193 0.146072
vt 0.20219 0.170348
vt 0.207641 0.145052
vt 0.209663 0.168291
vt 0.217035 0.144687
vt 0.217196 0.167609
vt 0.226437 0.145042
vt 0.224682 0.168457
vt 0.235903 0.146053
vt 0.23194 0.170682
vt 0.245277 0.147515
vt 0.238988 0.173984
vt 0.254473 0.14914
vt 0.246185 0.177866
vt 0.221947 0.178096
vt 0.216864 0.177394
vt 0.226704 0.180153
vt 0.230923 0.183478
vt 0.234311 0.188329
vt 0.211712 0.17803
vt 0.216822 0.187723
vt 0.206942 0.180057
vt 0.202746 0.183281
vt 0.199588 0.187825
vt 0.010691 0.017184
vt 0.021183 0.041113
vt 0.034618 0.006697
vt 0.02048 0.006986
vt 0.045108 0.030618
vt 0.044815 0.016486
vt 0.035317 0.040821
vt 0.010981 0.031321
vn 0.7070009 -0.01581142 -0.707036
vn 0.7069435 -0.01769135 -0.7070487
vn 0.9998438 -0.01767394 -3.344241E-07
vn 0.9998752 -0.01579608 0
vn 0 -0.01582693 -0.9998747
vn -3.105319E-07 -0.01770898 -0.9998431
vn -0.7070451 -0.01582128 -0.7069914
vn -0.7069946 -0.0177073 -0.7069972
vn -0.9998749 -0.01581123 0
vn -0.9998431 -0.01770963 -3.105313E-07
vn 0.7069958 -0.01767602 0.7069968
vn 0.7070183 -0.0157943 0.7070189
vn -3.105372E-07 -0.01767433 0.9998438
vn 0 -0.01579602 0.9998752
vn -0.7070468 -0.017692 0.7069453
vn -0.7070626 -0.01580415 0.7069743
vn -0.9998431 -0.01770963 -3.105313E-07
vn -0.9998749 -0.01581123 0
vn 0 -0.03538059 -0.999374
vn 0.7066589 -0.03536842 -0.7066699
vn 0 0.01075113 -0.9999422
vn 0.7032616 0.007883661 -0.7108875
vn 0.9993749 -0.03535347 0
vn 0.9999877 0.004954359 0
vn -0.7032627 0.00786046 -0.7108866
vn -0.7067107 -0.035391 -0.7066169
vn -0.999988 0.00491826 0
vn -0.9993737 -0.03538615 0
vn 0.7066649 -0.03535036 0.7066647
vn 0.7033176 0.0078202 0.7108328
vn 0 -0.03535338 0.9993749
vn 0 0.01064285 0.9999434
vn -0.7067167 -0.03537292 0.7066118
vn -0.7033188 0.007796993 0.7108319
vn -0.9993737 -0.03538615 0
vn -0.999988 0.00491826 0
vn -0.999445 0.03331244 -1.152441E-07
vn -0.7041208 0.03336951 0.7092958
vn -0.9953732 0.09608409 1.084549E-06
vn -0.7008264 0.09336542 0.7071954
vn 0 0.03342339 0.9994412
vn 1.118177E-06 0.09067738 0.9958804
vn 0.7040936 0.0333339 0.7093244
vn 0.7007872 0.09333442 0.7072383
vn 0.9994469 0.03325418 -1.536568E-07
vn 0.9953783 0.09603199 1.005414E-06
vn 0.7040316 0.03337229 -0.7093842
vn 0.7006978 0.09331137 -0.70733
vn 0 0.03348755 -0.9994391
vn 1.145741E-06 0.09063482 -0.9958842
vn -0.7040588 0.03340789 -0.7093555
vn -0.7007369 0.09334234 -0.7072871
vn -0.999445 0.03331244 -1.152441E-07
vn -0.9953732 0.09608409 1.084549E-06
vn 0.6385019 0.42928 -0.6387753
vn 0.9031365 0.4293535 0
vn 0 0.4292187 -0.9032007
vn -0.6386639 0.429199 -0.6386679
vn -0.9031993 0.4292215 0
vn 0.6386115 0.4293616 0.6386109
vn 1.301794E-05 1 1.338479E-05
vn 0 0.429352 0.9031373
vn -0.6387734 0.4292807 0.6385034
vn -0.9031993 0.4292215 0
vn 0 -1 8.391843E-07
vn 0 -1 8.391842E-07
vn 0 -1 8.391843E-07
vn 0 -1 8.391842E-07
vn 0 -1 -4.197367E-07
vn 0 -1 -4.197367E-07
vn 0 -1 4.892057E-06
vn 0 -1 -2.444745E-06
g meger3d_Char_sundries_C5_7_0
f 3/3/3 2/2/2 1/1/1
f 4/4/4 3/3/3 1/1/1
f 1/1/1 2/2/2 5/5/5
f 2/2/2 6/6/6 5/5/5
f 5/5/5 6/6/6 7/7/7
f 6/6/6 8/8/8 7/7/7
f 7/7/7 8/8/8 9/9/9
f 8/8/8 10/10/10 9/9/9
f 11/11/11 3/3/3 4/4/4
f 12/12/12 11/11/11 4/4/4
f 13/13/13 11/11/11 12/12/12
f 14/14/14 13/13/13 12/12/12
f 15/15/15 13/13/13 14/14/14
f 16/16/16 15/15/15 14/14/14
f 17/17/17 15/15/15 16/16/16
f 18/18/18 17/17/17 16/16/16
f 5/5/5 7/7/7 19/19/19
f 5/5/5 19/19/19 20/20/20
f 20/20/20 19/19/19 21/21/21
f 22/22/22 20/20/20 21/21/21
f 23/23/23 20/20/20 22/22/22
f 24/24/24 23/23/23 22/22/22
f 21/21/21 19/19/19 25/25/25
f 19/19/19 26/26/26 25/25/25
f 25/25/25 26/26/26 27/27/27
f 26/26/26 28/28/28 27/27/27
f 29/29/29 23/23/23 24/24/24
f 30/30/30 29/29/29 24/24/24
f 31/31/31 29/29/29 30/30/30
f 32/32/32 31/31/31 30/30/30
f 33/33/33 31/31/31 32/32/32
f 34/34/34 33/33/33 32/32/32
f 35/35/35 33/33/33 34/34/34
f 36/36/36 35/35/35 34/34/34
f 9/9/9 28/28/28 26/26/26
f 7/7/7 9/9/9 26/26/26
f 7/7/7 26/26/26 19/19/19
f 16/16/16 33/33/33 35/35/35
f 18/18/18 16/16/16 35/35/35
f 14/14/14 31/31/31 33/33/33
f 16/16/16 14/14/14 33/33/33
f 12/12/12 29/29/29 31/31/31
f 14/14/14 12/12/12 31/31/31
f 12/12/12 4/4/4 29/29/29
f 4/4/4 23/23/23 29/29/29
f 4/4/4 1/1/1 23/23/23
f 1/1/1 20/20/20 23/23/23
f 1/1/1 5/5/5 20/20/20
f 36/36/36 34/34/34 37/37/37
f 34/34/34 38/38/38 37/37/37
f 39/39/39 37/37/37 38/38/38
f 40/40/40 39/39/39 38/38/38
f 40/40/40 38/38/38 41/41/41
f 42/42/42 40/40/40 41/41/41
f 42/42/42 41/41/41 43/43/43
f 44/44/44 42/42/42 43/43/43
f 44/44/44 43/43/43 45/45/45
f 46/46/46 44/44/44 45/45/45
f 46/46/46 45/45/45 47/47/47
f 48/48/48 46/46/46 47/47/47
f 48/48/48 47/47/47 49/49/49
f 50/50/50 48/48/48 49/49/49
f 50/50/50 49/49/49 51/51/51
f 52/52/52 50/50/50 51/51/51
f 52/52/52 51/51/51 53/53/53
f 54/54/54 52/52/52 53/53/53
f 46/46/46 48/48/48 55/55/55
f 56/56/56 46/46/46 55/55/55
f 48/48/48 50/50/50 57/57/57
f 55/55/55 48/48/48 57/57/57
f 50/50/50 52/52/52 58/58/58
f 57/57/57 50/50/50 58/58/58
f 52/52/52 54/54/54 59/59/59
f 58/58/58 52/52/52 59/59/59
f 60/60/60 44/44/44 46/46/46
f 56/56/56 60/60/60 46/46/46
f 22/22/22 47/47/47 45/45/45
f 21/21/21 49/49/49 47/47/47
f 22/22/22 21/21/21 47/47/47
f 25/25/25 51/51/51 49/49/49
f 21/21/21 25/25/25 49/49/49
f 27/27/27 53/53/53 51/51/51
f 25/25/25 27/27/27 51/51/51
f 61/61/61 56/56/56 55/55/55
f 61/61/61 55/55/55 57/57/57
f 61/61/61 57/57/57 58/58/58
f 61/61/61 58/58/58 59/59/59
f 61/61/61 60/60/60 56/56/56
f 61/61/61 62/62/62 60/60/60
f 62/62/62 42/42/42 60/60/60
f 40/40/40 42/42/42 62/62/62
f 63/63/63 40/40/40 62/62/62
f 61/61/61 63/63/63 62/62/62
f 39/39/39 40/40/40 63/63/63
f 64/64/64 39/39/39 63/63/63
f 61/61/61 64/64/64 63/63/63
f 42/42/42 44/44/44 60/60/60
f 24/24/24 22/22/22 45/45/45
f 24/24/24 45/45/45 43/43/43
f 30/30/30 24/24/24 43/43/43
f 30/30/30 43/43/43 41/41/41
f 32/32/32 30/30/30 41/41/41
f 32/32/32 41/41/41 38/38/38
f 34/34/34 32/32/32 38/38/38
f 67/67/67 66/66/66 65/65/65
f 68/68/68 67/67/67 65/65/65
f 66/66/66 67/67/67 69/69/69
f 67/67/67 70/70/70 69/69/69
f 71/71/71 66/66/66 69/69/69
f 65/65/65 66/66/66 72/72/72
