g meger3d_Char_outdoor_C2_1
v 0.1472515 -0.2016469 -0.1069848
v 0.1472515 -0.1123518 -0.1069848
v 0.05624488 -0.1123519 -0.1731049
v 0.05624488 -0.2016471 -0.1731049
v -0.05624523 -0.1123519 -0.1731049
v -0.05624523 -0.2016471 -0.1731049
v -0.1472519 -0.1123519 -0.1069847
v -0.1472519 -0.2016471 -0.1069847
v -0.1820133 -0.1123519 1.084884E-08
v -0.1820133 -0.2016471 1.084884E-08
v 0.1820133 -0.2016469 0
v 0.1820133 -0.1123518 0
v -0.1820133 -0.2016471 1.084884E-08
v -0.1820133 -0.1123519 1.084884E-08
v -0.1472519 -0.1123519 0.1069847
v -0.1472519 -0.2016471 0.1069847
v -0.05624523 -0.1123519 0.1731049
v -0.05624523 -0.2016471 0.1731049
v 0.05624488 -0.1123519 0.1731049
v 0.05624488 -0.2016471 0.1731049
v 0.1472515 -0.1123518 0.1069847
v 0.1472515 -0.2016469 0.1069847
v 0.1820133 -0.1123518 0
v 0.1820133 -0.2016469 0
v 0.1472515 -0.1123518 -0.1069848
v 0 -0.005643304 -1.069694E-08
v 0.05624488 -0.1123519 -0.1731049
v -0.05624523 -0.1123519 -0.1731049
v -0.1472519 -0.1123519 -0.1069847
v -0.1820133 -0.1123519 1.084884E-08
v -0.1472519 -0.1123519 0.1069847
v -0.05624523 -0.1123519 0.1731049
v 0.05624488 -0.1123519 0.1731049
v 0.1472515 -0.1123518 0.1069847
v 0.1820133 -0.1123518 0
v -0.1472519 -0.2599393 -0.1069847
v -0.1472519 -0.2016471 -0.1069847
v -0.1820133 -0.2016471 1.084884E-08
v -0.1820133 -0.2599393 1.084884E-08
v -0.1472519 -0.2016471 0.1069847
v -0.1472519 -0.2599393 0.1069847
v -0.05624523 -0.2016471 0.1731049
v -0.05624523 -0.2599393 0.1731049
v 0.05624488 -0.2016471 0.1731049
v 0.05624488 -0.2599393 0.1731049
v 0.1472515 -0.2016469 0.1069847
v 0.1472515 -0.259939 0.1069847
v 0.1820133 -0.2016469 0
v 0.1820133 -0.259939 0
v 0.1472515 -0.2016469 -0.1069848
v 0.1472515 -0.259939 -0.1069848
v 0.05624488 -0.2016471 -0.1731049
v 0.05624488 -0.2599393 -0.1731049
v -0.05624523 -0.2016471 -0.1731049
v -0.05624523 -0.2599393 -0.1731049
v 0.1820133 -0.259939 0
v 0.1224141 -0.259939 4.584237E-09
v 0.09903513 -0.2599393 0.07195318
v 0.1472515 -0.259939 0.1069847
v 0.1472515 -0.259939 -0.1069848
v 0.1224141 -0.259939 4.584237E-09
v 0.09903513 -0.2599393 -0.07195319
v 0.1472515 -0.259939 0.1069847
v 0.09903513 -0.2599393 0.07195318
v 0.0378279 -0.2599393 0.1164227
v 0.05624488 -0.2599393 0.1731049
v -0.03782859 -0.2599393 0.1164227
v -0.05624523 -0.2599393 0.1731049
v -0.09903513 -0.2599393 0.07195319
v -0.1472519 -0.2599393 0.1069847
v -0.1224141 -0.2599393 1.188068E-08
v -0.1820133 -0.2599393 1.084884E-08
v -0.09903513 -0.2599393 -0.07195316
v -0.1472519 -0.2599393 -0.1069847
v -0.03782859 -0.2599393 -0.1164227
v -0.05624523 -0.2599393 -0.1731049
v 0.0378279 -0.2599393 -0.1164227
v 0.05624488 -0.2599393 -0.1731049
v 0.09903513 -0.2599393 -0.07195319
v 0.1472515 -0.259939 -0.1069848
v 0.09903513 -0.2599393 0.07195318
v 0 -0.282386 3.292984E-10
v 0.0378279 -0.2599393 0.1164227
v -0.03782859 -0.2599393 0.1164227
v -0.09903513 -0.2599393 0.07195319
v -0.1224141 -0.2599393 1.188068E-08
v 0.1224141 -0.259939 4.584237E-09
v -0.1224141 -0.2599393 1.188068E-08
v 0 -0.282386 3.292984E-10
v -0.09903513 -0.2599393 -0.07195316
v -0.03782859 -0.2599393 -0.1164227
v 0.0378279 -0.2599393 -0.1164227
v 0.09903513 -0.2599393 -0.07195319
v 0.1224141 -0.259939 4.584237E-09
v 0.0880811 0.4002037 -0.06399471
v 0.0880811 0.4910607 -0.06399471
v 0.03364389 0.4910607 -0.1035456
v 0.03364389 0.4002037 -0.1035456
v -0.03364389 0.4910607 -0.1035456
v -0.03364389 0.4002037 -0.1035456
v -0.0880811 0.4910607 -0.06399469
v -0.0880811 0.4002037 -0.06399469
v -0.1088744 0.4910607 6.489412E-09
v -0.1088744 0.4002037 6.489412E-09
v -0.0880811 0.4910607 0.0639947
v -0.0880811 0.4002037 0.0639947
v -0.03364389 0.4910607 0.1035456
v -0.03364389 0.4002037 0.1035456
v 0.03364389 0.4910607 0.1035456
v 0.03364389 0.4002037 0.1035456
v 0.0880811 0.4910607 0.06399469
v 0.0880811 0.4002037 0.06399469
v 0.0880811 0.4002037 0.06399469
v 0.0880811 0.4910607 0.06399469
v 0.1088741 0.4910609 0
v 0.1088741 0.400204 0
v 0.1088741 0.400204 0
v 0.1088741 0.4910609 0
v 0.0880811 0.4910607 -0.06399471
v 0.0880811 0.4002037 -0.06399471
v 0.0880811 0.4910607 -0.06399471
v 0 0.4910607 -3.893647E-10
v 0.03364389 0.4910607 -0.1035456
v -0.03364389 0.4910607 -0.1035456
v -0.0880811 0.4910607 -0.06399469
v -0.1088744 0.4910607 6.489412E-09
v -0.0880811 0.4910607 0.0639947
v -0.03364389 0.4910607 0.1035456
v 0.03364389 0.4910607 0.1035456
v 0.0880811 0.4910607 0.06399469
v 0.1088741 0.4910609 0
v -0.0880811 -0.09577128 -0.06399469
v -0.0880811 0.4002037 -0.06399469
v -0.1088744 0.4002037 6.489412E-09
v -0.1088744 -0.09577128 6.489412E-09
v -0.1088744 -0.09577128 6.489412E-09
v -0.1088744 0.4002037 6.489412E-09
v -0.0880811 0.4002037 0.0639947
v -0.0880811 -0.09577128 0.0639947
v -0.0880811 -0.09577128 0.0639947
v -0.0880811 0.4002037 0.0639947
v -0.03364389 0.4002037 0.1035456
v -0.03364389 -0.09577128 0.1035456
v -0.03364389 -0.09577128 0.1035456
v -0.03364389 0.4002037 0.1035456
v 0.03364389 0.4002037 0.1035456
v 0.03364389 -0.09577128 0.1035456
v 0.03364389 -0.09577128 0.1035456
v 0.03364389 0.4002037 0.1035456
v 0.0880811 0.4002037 0.06399469
v 0.0880811 -0.09577128 0.06399469
v 0.0880811 -0.09577128 0.06399469
v 0.0880811 0.4002037 0.06399469
v 0.1088741 0.400204 0
v 0.1088741 -0.0957711 0
v 0.1088741 -0.0957711 0
v 0.1088741 0.400204 0
v 0.0880811 0.4002037 -0.06399471
v 0.0880811 -0.09577128 -0.06399471
v 0.0880811 -0.09577128 -0.06399471
v 0.0880811 0.4002037 -0.06399471
v 0.03364389 0.4002037 -0.1035456
v 0.03364389 -0.09577128 -0.1035456
v 0.03364389 -0.09577128 -0.1035456
v 0.03364389 0.4002037 -0.1035456
v -0.03364389 0.4002037 -0.1035456
v -0.03364389 -0.09577128 -0.1035456
v -0.03364389 -0.09577128 -0.1035456
v -0.03364389 0.4002037 -0.1035456
v -0.0880811 0.4002037 -0.06399469
v -0.0880811 -0.09577128 -0.06399469
v -0.1181787 0.124285 0.03766852
v -0.1181787 0.2787814 0.03766852
v -0.08552147 0.2787814 0.03766852
v -0.08552147 0.124285 0.03766852
v -0.1181787 0.2787814 0.03766852
v -0.1181787 0.2787814 -0.03766852
v -0.08552147 0.2787814 -0.03766852
v -0.08552147 0.2787814 0.03766852
v -0.1181787 0.2787814 -0.03766852
v -0.1181787 0.124285 -0.03766852
v -0.08552147 0.124285 -0.03766852
v -0.08552147 0.2787814 -0.03766852
v -0.1181787 0.124285 -0.03766852
v -0.1181787 0.124285 0.03766852
v -0.08552147 0.124285 0.03766852
v -0.08552147 0.124285 -0.03766852
v -0.1181787 0.124285 -0.03766852
v -0.1181787 0.2787814 -0.03766852
v -0.1181787 0.2787814 0.03766852
v -0.1181787 0.124285 0.03766852
v -0.1366887 0.1490519 0.02101208
v -0.1366887 0.2540145 0.02101208
v -0.1145019 0.2540145 0.02101208
v -0.1145019 0.1490519 0.02101208
v -0.1366887 0.2540145 0.02101208
v -0.1366887 0.2540145 -0.02101208
v -0.1145019 0.2540145 -0.02101208
v -0.1145019 0.2540145 0.02101208
v -0.1366887 0.2540145 -0.02101208
v -0.1366887 0.1490519 -0.02101208
v -0.1145019 0.1490519 -0.02101208
v -0.1145019 0.2540145 -0.02101208
v -0.1366887 0.1490519 -0.02101208
v -0.1366887 0.1490519 0.02101208
v -0.1145019 0.1490519 0.02101208
v -0.1145019 0.1490519 -0.02101208
v -0.1366887 0.1490519 -0.02101208
v -0.1366887 0.2540145 -0.02101208
v -0.1366887 0.2540145 0.02101208
v -0.1366887 0.1490519 0.02101208
v -0.03035695 0.4766949 0.03035688
v -0.03035695 0.5374088 0.03035688
v 0.03035661 0.5374088 0.03035688
v 0.03035661 0.4766949 0.03035688
v -0.03035695 0.5374088 0.03035688
v -0.03035695 0.5374088 -0.03035688
v 0.03035661 0.5374088 -0.03035688
v 0.03035661 0.5374088 0.03035688
v -0.03035695 0.5374088 -0.03035688
v -0.03035695 0.4766949 -0.03035688
v 0.03035661 0.4766949 -0.03035688
v 0.03035661 0.5374088 -0.03035688
v -0.03035695 0.4766949 -0.03035688
v -0.03035695 0.4766949 0.03035688
v 0.03035661 0.4766949 0.03035688
v 0.03035661 0.4766949 -0.03035688
v 0.03035661 0.4766949 0.03035688
v 0.03035661 0.5374088 0.03035688
v 0.03035661 0.5374088 -0.03035688
v 0.03035661 0.4766949 -0.03035688
v -0.03035695 0.4766949 -0.03035688
v -0.03035695 0.5374088 -0.03035688
v -0.03035695 0.5374088 0.03035688
v -0.03035695 0.4766949 0.03035688
vt 0.2635391 0.7236269
vt 0.2635391 0.7236301
vt 0.2635328 0.7236301
vt 0.2635328 0.7236269
vt 0.2635252 0.7236301
vt 0.2635252 0.7236269
vt 0.263519 0.7236301
vt 0.263519 0.7236269
vt 0.2635166 0.7236301
vt 0.2635166 0.7236269
vt 0.2635414 0.7236269
vt 0.2635414 0.7236301
vt 0.2635166 0.7236269
vt 0.2635166 0.7236301
vt 0.263519 0.7236301
vt 0.263519 0.7236269
vt 0.2635252 0.7236301
vt 0.2635252 0.7236269
vt 0.2635328 0.7236301
vt 0.2635328 0.7236269
vt 0.2635391 0.7236301
vt 0.2635391 0.7236269
vt 0.2635414 0.7236301
vt 0.2635414 0.7236269
vt 0.2690282 0.9362798
vt 0.2690283 0.9362798
vt 0.2690283 0.9362798
vt 0.2690284 0.9362798
vt 0.2690284 0.9362798
vt 0.2690285 0.9362798
vt 0.2690284 0.9362798
vt 0.2690284 0.9362798
vt 0.2690283 0.9362798
vt 0.2690282 0.9362798
vt 0.2690282 0.9362798
vt 0.2690284 0.9362798
vt 0.2690284 0.9362798
vt 0.2690285 0.9362798
vt 0.2690285 0.9362798
vt 0.2690284 0.9362798
vt 0.2690284 0.9362798
vt 0.2690284 0.9362798
vt 0.2690284 0.9362798
vt 0.2690283 0.9362798
vt 0.2690283 0.9362798
vt 0.2690282 0.9362798
vt 0.2690282 0.9362798
vt 0.2690282 0.9362798
vt 0.2690282 0.9362798
vt 0.2690282 0.9362798
vt 0.2690282 0.9362798
vt 0.2690283 0.9362798
vt 0.2690283 0.9362798
vt 0.2690284 0.9362798
vt 0.2690284 0.9362798
vt 0.2652688 0.932695
vt 0.2652993 0.932695
vt 0.2653114 0.9327067
vt 0.2652866 0.932695
vt 0.2652866 0.932695
vt 0.2652993 0.932695
vt 0.2653114 0.9327067
vt 0.2652866 0.932695
vt 0.2653114 0.9327067
vt 0.2653427 0.9327067
vt 0.2653333 0.9327067
vt 0.2653815 0.9327067
vt 0.2653909 0.9327067
vt 0.2654129 0.9327067
vt 0.2654376 0.9327067
vt 0.2654248 0.9327067
vt 0.2654555 0.9327067
vt 0.2654129 0.9327067
vt 0.2654376 0.9327067
vt 0.2653815 0.9327067
vt 0.2653909 0.9327067
vt 0.2653427 0.9327067
vt 0.2653333 0.9327067
vt 0.2653114 0.9327067
vt 0.2652866 0.932695
vt 0.7822577 0.7290878
vt 0.7822987 0.7291893
vt 0.7822831 0.7290878
vt 0.7823144 0.7290878
vt 0.7823398 0.7290878
vt 0.7823495 0.7290878
vt 0.7822479 0.7290878
vt 0.7823495 0.7290878
vt 0.7822987 0.7291893
vt 0.7823398 0.7290878
vt 0.7823144 0.7290878
vt 0.7822831 0.7290878
vt 0.7822577 0.7290878
vt 0.7822479 0.7290878
vt 0.2690283 0.9362797
vt 0.2690283 0.9362796
vt 0.2690283 0.9362796
vt 0.2690283 0.9362797
vt 0.2690283 0.9362796
vt 0.2690283 0.9362797
vt 0.2690284 0.9362796
vt 0.2690284 0.9362797
vt 0.2690284 0.9362796
vt 0.2690284 0.9362797
vt 0.2690284 0.9362796
vt 0.2690284 0.9362797
vt 0.2690283 0.9362796
vt 0.2690283 0.9362797
vt 0.2690283 0.9362796
vt 0.2690283 0.9362797
vt 0.2690283 0.9362796
vt 0.2690283 0.9362797
vt 0.2690283 0.9362797
vt 0.2690283 0.9362796
vt 0.2690283 0.9362796
vt 0.2690283 0.9362797
vt 0.2690283 0.9362797
vt 0.2690283 0.9362796
vt 0.2690283 0.9362796
vt 0.2690283 0.9362797
vt 0.263535 0.7236517
vt 0.263529 0.7236517
vt 0.2635313 0.7236517
vt 0.2635267 0.7236517
vt 0.263523 0.7236517
vt 0.2635216 0.7236517
vt 0.263523 0.7236517
vt 0.2635267 0.7236517
vt 0.2635313 0.7236517
vt 0.263535 0.7236517
vt 0.2635365 0.7236517
vt 0.263523 0.7236307
vt 0.263523 0.7236485
vt 0.2635216 0.7236485
vt 0.2635216 0.7236307
vt 0.2635216 0.7236307
vt 0.2635216 0.7236485
vt 0.263523 0.7236485
vt 0.263523 0.7236307
vt 0.263523 0.7236307
vt 0.263523 0.7236485
vt 0.2635267 0.7236485
vt 0.2635267 0.7236307
vt 0.2635267 0.7236307
vt 0.2635267 0.7236485
vt 0.2635313 0.7236485
vt 0.2635313 0.7236307
vt 0.2635313 0.7236307
vt 0.2635313 0.7236485
vt 0.263535 0.7236485
vt 0.263535 0.7236307
vt 0.263535 0.7236307
vt 0.263535 0.7236485
vt 0.2635365 0.7236485
vt 0.2635365 0.7236307
vt 0.2635365 0.7236307
vt 0.2635365 0.7236485
vt 0.263535 0.7236485
vt 0.263535 0.7236307
vt 0.263535 0.7236307
vt 0.263535 0.7236485
vt 0.2635313 0.7236485
vt 0.2635313 0.7236307
vt 0.2635313 0.7236307
vt 0.2635313 0.7236485
vt 0.2635267 0.7236485
vt 0.2635267 0.7236307
vt 0.2635267 0.7236307
vt 0.2635267 0.7236485
vt 0.263523 0.7236485
vt 0.263523 0.7236307
vt 0.274179 0.9306959
vt 0.274179 0.9307382
vt 0.2742214 0.9307382
vt 0.2742214 0.9306959
vt 0.274179 0.9307382
vt 0.274179 0.9307805
vt 0.2742214 0.9307805
vt 0.2742214 0.9307382
vt 0.274179 0.9307805
vt 0.274179 0.9308228
vt 0.2742214 0.9308228
vt 0.2742214 0.9307805
vt 0.274179 0.9308228
vt 0.274179 0.9308651
vt 0.2742214 0.9308651
vt 0.2742214 0.9308228
vt 0.2741367 0.9306959
vt 0.2741367 0.9307382
vt 0.274179 0.9307382
vt 0.274179 0.9306959
vt 0.3566689 0.4742721
vt 0.3566689 0.4743043
vt 0.3567011 0.4743043
vt 0.3567011 0.4742721
vt 0.3566689 0.4743043
vt 0.3566689 0.4743365
vt 0.3567011 0.4743365
vt 0.3567011 0.4743043
vt 0.3566689 0.4743365
vt 0.3566689 0.4743687
vt 0.3567011 0.4743687
vt 0.3567011 0.4743365
vt 0.3566689 0.4743687
vt 0.3566689 0.4744009
vt 0.3567011 0.4744009
vt 0.3567011 0.4743687
vt 0.3566367 0.4742721
vt 0.3566367 0.4743043
vt 0.3566689 0.4743043
vt 0.3566689 0.4742721
vt 0.2653195 0.9287977
vt 0.2653195 0.9288726
vt 0.2654047 0.9288726
vt 0.2654047 0.9287977
vt 0.2653195 0.9288726
vt 0.2653195 0.9289473
vt 0.2654047 0.9289473
vt 0.2654047 0.9288726
vt 0.2653195 0.9289473
vt 0.2653195 0.9290223
vt 0.2654047 0.9290223
vt 0.2654047 0.9289473
vt 0.2653195 0.9290223
vt 0.2653195 0.9290971
vt 0.2654047 0.9290971
vt 0.2654047 0.9290223
vt 0.2654047 0.9287977
vt 0.2654047 0.9288726
vt 0.2654899 0.9288726
vt 0.2654899 0.9287977
vt 0.2652342 0.9287977
vt 0.2652342 0.9288726
vt 0.2653195 0.9288726
vt 0.2653195 0.9287977
vn 0.8090163 0 -0.5877863
vn 0.8090163 0 -0.587786
vn 0.3090174 0 -0.9510565
vn 0.3090171 0 -0.9510565
vn -0.3090175 0 -0.9510564
vn -0.3090175 0 -0.9510564
vn -0.8090171 0 -0.5877851
vn -0.8090171 0 -0.587785
vn -1 0 0
vn -1 0 0
vn 1 0 0
vn 1 0 0
vn -1 0 0
vn -1 0 0
vn -0.8090171 0 0.5877851
vn -0.8090171 0 0.5877852
vn -0.3090173 1.122963E-07 0.9510565
vn -0.3090172 0 0.9510565
vn 0.3090177 1.996557E-07 0.9510564
vn 0.3090173 0 0.9510565
vn 0.8090163 0 0.5877861
vn 0.8090163 0 0.5877863
vn 1 0 0
vn 1 0 0
vn 0.4091667 0.8626748 -0.2972786
vn -2.214228E-07 1 0
vn 0.1562875 0.8626748 -0.4810058
vn -0.1562884 0.8626748 -0.4810053
vn -0.4091676 0.8626748 -0.2972776
vn -0.505759 0.8626748 0
vn -0.4091675 0.8626748 0.2972776
vn -0.1562882 0.8626748 0.4810053
vn 0.1562875 0.8626747 0.4810058
vn 0.4091668 0.8626748 0.2972786
vn 0.5057583 0.8626751 0
vn -0.8090171 0 -0.5877851
vn -0.8090171 0 -0.587785
vn -1 0 0
vn -1 0 0
vn -0.8090171 0 0.5877852
vn -0.8090171 0 0.5877852
vn -0.3090172 0 0.9510565
vn -0.3090172 -1.720213E-07 0.9510565
vn 0.3090173 0 0.9510565
vn 0.3090171 -3.058433E-07 0.9510565
vn 0.8090163 0 0.5877863
vn 0.809016 -1.338219E-07 0.5877865
vn 1 0 0
vn 1 0 0
vn 0.8090163 0 -0.5877863
vn 0.8090162 0 -0.5877864
vn 0.3090171 0 -0.9510565
vn 0.3090168 0 -0.9510565
vn -0.3090175 0 -0.9510564
vn -0.3090175 0 -0.9510564
vn 3.444155E-06 -1 0
vn 3.444155E-06 -1 0
vn 3.350263E-06 -1 4.292377E-07
vn 3.350263E-06 -1 4.292411E-07
vn 3.350263E-06 -1 -4.650119E-07
vn 3.444155E-06 -1 0
vn 3.350264E-06 -1 -4.650072E-07
vn 3.350263E-06 -1 4.292411E-07
vn 3.350263E-06 -1 4.292377E-07
vn 1.628185E-06 -1 3.219301E-07
vn 1.628179E-06 -1 3.219262E-07
vn 0 -1 -4.292372E-07
vn 0 -1 -4.292415E-07
vn 0 -1 0
vn 0 -1 0
vn 0 -1 0
vn 0 -1 0
vn 0 -1 1.430796E-07
vn 0 -1 1.430799E-07
vn 0 -1 5.365474E-07
vn 0 -1 5.365505E-07
vn 1.628185E-06 -1 -4.292399E-07
vn 1.628179E-06 -1 -4.292356E-07
vn 3.350264E-06 -1 -4.650072E-07
vn 3.350263E-06 -1 -4.650119E-07
vn 0.1459154 -0.9836007 0.1060113
vn 7.555071E-07 -1 0
vn 0.05573403 -0.9836007 0.1715327
vn -0.05573427 -0.9836007 0.1715323
vn -0.1459143 -0.9836007 0.1060122
vn -0.1803598 -0.9836007 0
vn 0.1803624 -0.9836003 3.375604E-07
vn -0.1803598 -0.9836007 0
vn 7.555071E-07 -1 0
vn -0.1459144 -0.9836007 -0.1060124
vn -0.0557343 -0.9836007 -0.1715324
vn 0.05573399 -0.9836007 -0.1715327
vn 0.1459154 -0.9836007 -0.1060109
vn 0.1803624 -0.9836003 3.375604E-07
vn 0.8090171 0 -0.5877851
vn 0.8090175 0 -0.5877845
vn 0.3090174 0 -0.9510565
vn 0.3090174 0 -0.9510565
vn -0.3090176 0 -0.9510564
vn -0.3090176 0 -0.9510564
vn -0.8090162 0 -0.5877863
vn -0.8090162 0 -0.5877863
vn -1 0 0
vn -1 0 0
vn -0.8090161 0 0.5877864
vn -0.8090161 0 0.5877864
vn -0.3090174 0 0.9510564
vn -0.3090174 0 0.9510564
vn 0.3090175 0 0.9510564
vn 0.3090175 0 0.9510564
vn 0.8090175 0 0.5877845
vn 0.8090171 0 0.5877851
vn 0.8090171 0 0.5877851
vn 0.8090175 0 0.5877845
vn 1 0 0
vn 1 0 0
vn 1 0 0
vn 1 0 0
vn 0.8090175 0 -0.5877845
vn 0.8090171 0 -0.5877851
vn 0 1 0
vn 0 1 0
vn 0 1 0
vn 0 1 0
vn 0 1 -4.380064E-07
vn 0 1 0
vn 0 1 0
vn 0 1 0
vn 0 1 0
vn 0 1 4.380065E-07
vn -1.751885E-06 1 1.75203E-06
vn -0.9510557 0 -0.3090194
vn -0.9510557 0 -0.3090194
vn -0.9510557 0 -0.3090194
vn -0.9510557 0 -0.3090194
vn -0.9510557 0 0.3090194
vn -0.9510557 0 0.3090194
vn -0.9510557 0 0.3090194
vn -0.9510557 0 0.3090194
vn -0.5877849 0 0.8090173
vn -0.5877849 0 0.8090173
vn -0.5877849 0 0.8090173
vn -0.5877849 0 0.8090173
vn 1.828875E-07 0 1
vn 1.828875E-07 0 1
vn 1.828875E-07 0 1
vn 1.828875E-07 0 1
vn 0.5877848 0 0.8090174
vn 0.5877848 0 0.8090174
vn 0.5877848 0 0.8090174
vn 0.5877848 0 0.8090174
vn 0.9510572 0 0.3090148
vn 0.9510572 0 0.3090148
vn 0.9510572 0 0.3090148
vn 0.9510572 0 0.3090147
vn 0.9510573 0 -0.3090146
vn 0.9510573 0 -0.3090147
vn 0.9510573 0 -0.3090147
vn 0.9510573 0 -0.3090146
vn 0.5877847 0 -0.8090174
vn 0.5877847 0 -0.8090174
vn 0.5877847 0 -0.8090174
vn 0.5877847 0 -0.8090174
vn 0 0 -1
vn 0 0 -1
vn 0 0 -1
vn 0 0 -1
vn -0.5877849 0 -0.8090172
vn -0.5877849 0 -0.8090172
vn -0.5877849 0 -0.8090172
vn -0.5877849 0 -0.8090172
vn 0 0 1
vn 0 0 1
vn 0 0 1
vn 0 0 1
vn 0 1 0
vn 0 1 0
vn 0 1 0
vn 0 1 0
vn 0 0 -1
vn 0 0 -1
vn 0 0 -1
vn 0 0 -1
vn 0 -1 0
vn 0 -1 0
vn 0 -1 0
vn 0 -1 0
vn -1 0 0
vn -1 0 0
vn -1 0 0
vn -1 0 0
vn 0 0 1
vn 0 0 1
vn 0 0 1
vn 0 0 1
vn 0 1 0
vn 0 1 0
vn 0 1 0
vn 0 1 0
vn 0 0 -1
vn 0 0 -1
vn 0 0 -1
vn 0 0 -1
vn 0 -1 0
vn 0 -1 0
vn 0 -1 0
vn 0 -1 0
vn -1 0 0
vn -1 0 0
vn -1 0 0
vn -1 0 0
vn 0 0 1
vn 0 0 1
vn 0 0 1
vn 0 0 1
vn 0 1 0
vn 0 1 0
vn 0 1 0
vn 0 1 0
vn 0 0 -1
vn 0 0 -1
vn 0 0 -1
vn 0 0 -1
vn 0 -1 0
vn 0 -1 0
vn 0 -1 0
vn 0 -1 0
vn 1 0 0
vn 1 0 0
vn 1 0 0
vn 1 0 0
vn -1 0 0
vn -1 0 0
vn -1 0 0
vn -1 0 0
g meger3d_Char_outdoor_C2_1_0
f 3/3/3 2/2/2 1/1/1
f 4/4/4 3/3/3 1/1/1
f 5/5/5 3/3/3 4/4/4
f 6/6/6 5/5/5 4/4/4
f 7/7/7 5/5/5 6/6/6
f 8/8/8 7/7/7 6/6/6
f 9/9/9 7/7/7 8/8/8
f 10/10/10 9/9/9 8/8/8
f 1/1/1 2/2/2 11/11/11
f 2/2/2 12/12/12 11/11/11
f 15/15/15 14/14/14 13/13/13
f 16/16/16 15/15/15 13/13/13
f 17/17/17 15/15/15 16/16/16
f 18/18/18 17/17/17 16/16/16
f 19/19/19 17/17/17 18/18/18
f 20/20/20 19/19/19 18/18/18
f 21/21/21 19/19/19 20/20/20
f 22/22/22 21/21/21 20/20/20
f 23/23/23 21/21/21 22/22/22
f 24/24/24 23/23/23 22/22/22
f 27/27/27 26/26/26 25/25/25
f 28/28/28 26/26/26 27/27/27
f 29/29/29 26/26/26 28/28/28
f 30/30/30 26/26/26 29/29/29
f 31/31/31 26/26/26 30/30/30
f 32/32/32 26/26/26 31/31/31
f 33/33/33 26/26/26 32/32/32
f 34/34/34 26/26/26 33/33/33
f 35/35/35 26/26/26 34/34/34
f 25/25/25 26/26/26 35/35/35
f 38/38/38 37/37/37 36/36/36
f 39/39/39 38/38/38 36/36/36
f 40/40/40 38/38/38 39/39/39
f 41/41/41 40/40/40 39/39/39
f 42/42/42 40/40/40 41/41/41
f 43/43/43 42/42/42 41/41/41
f 44/44/44 42/42/42 43/43/43
f 45/45/45 44/44/44 43/43/43
f 46/46/46 44/44/44 45/45/45
f 47/47/47 46/46/46 45/45/45
f 48/48/48 46/46/46 47/47/47
f 49/49/49 48/48/48 47/47/47
f 50/50/50 48/48/48 49/49/49
f 51/51/51 50/50/50 49/49/49
f 52/52/52 50/50/50 51/51/51
f 53/53/53 52/52/52 51/51/51
f 54/54/54 52/52/52 53/53/53
f 55/55/55 54/54/54 53/53/53
f 37/37/37 54/54/54 55/55/55
f 36/36/36 37/37/37 55/55/55
f 58/58/58 57/57/57 56/56/56
f 59/59/59 58/58/58 56/56/56
f 56/56/56 61/61/61 60/60/60
f 61/61/61 62/62/62 60/60/60
f 65/65/65 64/64/64 63/63/63
f 66/66/66 65/65/65 63/63/63
f 67/67/67 65/65/65 66/66/66
f 68/68/68 67/67/67 66/66/66
f 69/69/69 67/67/67 68/68/68
f 70/70/70 69/69/69 68/68/68
f 71/71/71 69/69/69 70/70/70
f 72/72/72 71/71/71 70/70/70
f 73/73/73 71/71/71 72/72/72
f 74/74/74 73/73/73 72/72/72
f 75/75/75 73/73/73 74/74/74
f 76/76/76 75/75/75 74/74/74
f 77/77/77 75/75/75 76/76/76
f 78/78/78 77/77/77 76/76/76
f 79/79/79 77/77/77 78/78/78
f 80/80/80 79/79/79 78/78/78
f 83/83/83 82/82/82 81/81/81
f 84/84/84 82/82/82 83/83/83
f 85/85/85 82/82/82 84/84/84
f 86/86/86 82/82/82 85/85/85
f 81/81/81 82/82/82 87/87/87
f 90/90/90 89/89/89 88/88/88
f 91/91/91 89/89/89 90/90/90
f 92/92/92 89/89/89 91/91/91
f 93/93/93 89/89/89 92/92/92
f 94/94/94 89/89/89 93/93/93
f 97/97/97 96/96/96 95/95/95
f 98/98/98 97/97/97 95/95/95
f 99/99/99 97/97/97 98/98/98
f 100/100/100 99/99/99 98/98/98
f 101/101/101 99/99/99 100/100/100
f 102/102/102 101/101/101 100/100/100
f 103/103/103 101/101/101 102/102/102
f 104/104/104 103/103/103 102/102/102
f 105/105/105 103/103/103 104/104/104
f 106/106/106 105/105/105 104/104/104
f 107/107/107 105/105/105 106/106/106
f 108/108/108 107/107/107 106/106/106
f 109/109/109 107/107/107 108/108/108
f 110/110/110 109/109/109 108/108/108
f 111/111/111 109/109/109 110/110/110
f 112/112/112 111/111/111 110/110/110
f 115/115/115 114/114/114 113/113/113
f 116/116/116 115/115/115 113/113/113
f 119/119/119 118/118/118 117/117/117
f 120/120/120 119/119/119 117/117/117
f 123/123/123 122/122/122 121/121/121
f 124/124/124 122/122/122 123/123/123
f 125/125/125 122/122/122 124/124/124
f 126/126/126 122/122/122 125/125/125
f 127/127/127 122/122/122 126/126/126
f 128/128/128 122/122/122 127/127/127
f 129/129/129 122/122/122 128/128/128
f 130/130/130 122/122/122 129/129/129
f 131/131/131 122/122/122 130/130/130
f 121/121/121 122/122/122 131/131/131
f 134/134/134 133/133/133 132/132/132
f 135/135/135 134/134/134 132/132/132
f 138/138/138 137/137/137 136/136/136
f 139/139/139 138/138/138 136/136/136
f 142/142/142 141/141/141 140/140/140
f 143/143/143 142/142/142 140/140/140
f 146/146/146 145/145/145 144/144/144
f 147/147/147 146/146/146 144/144/144
f 150/150/150 149/149/149 148/148/148
f 151/151/151 150/150/150 148/148/148
f 154/154/154 153/153/153 152/152/152
f 155/155/155 154/154/154 152/152/152
f 158/158/158 157/157/157 156/156/156
f 159/159/159 158/158/158 156/156/156
f 162/162/162 161/161/161 160/160/160
f 163/163/163 162/162/162 160/160/160
f 166/166/166 165/165/165 164/164/164
f 167/167/167 166/166/166 164/164/164
f 170/170/170 169/169/169 168/168/168
f 171/171/171 170/170/170 168/168/168
f 174/174/174 173/173/173 172/172/172
f 175/175/175 174/174/174 172/172/172
f 178/178/178 177/177/177 176/176/176
f 179/179/179 178/178/178 176/176/176
f 182/182/182 181/181/181 180/180/180
f 183/183/183 182/182/182 180/180/180
f 186/186/186 185/185/185 184/184/184
f 187/187/187 186/186/186 184/184/184
f 190/190/190 189/189/189 188/188/188
f 191/191/191 190/190/190 188/188/188
f 194/194/194 193/193/193 192/192/192
f 195/195/195 194/194/194 192/192/192
f 198/198/198 197/197/197 196/196/196
f 199/199/199 198/198/198 196/196/196
f 202/202/202 201/201/201 200/200/200
f 203/203/203 202/202/202 200/200/200
f 206/206/206 205/205/205 204/204/204
f 207/207/207 206/206/206 204/204/204
f 210/210/210 209/209/209 208/208/208
f 211/211/211 210/210/210 208/208/208
f 214/214/214 213/213/213 212/212/212
f 215/215/215 214/214/214 212/212/212
f 218/218/218 217/217/217 216/216/216
f 219/219/219 218/218/218 216/216/216
f 222/222/222 221/221/221 220/220/220
f 223/223/223 222/222/222 220/220/220
f 226/226/226 225/225/225 224/224/224
f 227/227/227 226/226/226 224/224/224
f 230/230/230 229/229/229 228/228/228
f 231/231/231 230/230/230 228/228/228
f 234/234/234 233/233/233 232/232/232
f 235/235/235 234/234/234 232/232/232
