g meger3d_Char_sundries_C2_3
v 0.2939432 -0.343894 -0.213562
v 0.3223232 0.2635193 -0.2341813
v 0.2341816 0.2635193 -0.3223231
v 0.2135621 -0.343894 -0.2939429
v 0.1231165 0.2635193 -0.3789136
v 0.1122762 -0.343894 -0.3455507
v 3.814697E-08 0.2635193 -0.3984132
v 3.814697E-08 -0.343894 -0.3633335
v -0.1231165 0.2635193 -0.3789136
v -0.1122763 -0.343894 -0.3455506
v -0.2341815 0.2635193 -0.3223231
v -0.2135622 -0.343894 -0.2939429
v -0.3223231 0.2635193 -0.2341813
v -0.293943 -0.343894 -0.2135619
v -0.3223231 0.2635193 -0.2341813
v -0.01297588 0.2635193 0.3918921
v -0.01183338 -0.343894 0.3573865
v -0.293943 -0.343894 -0.2135619
v -0.01183338 -0.343894 0.3573865
v -0.01297588 0.2635193 0.3918921
v 3.814697E-08 0.2635193 0.3984132
v 3.814697E-08 -0.343894 0.3633334
v 0.01297573 0.2635193 0.3918921
v 0.01183342 -0.343894 0.3573865
v 0.01297573 0.2635193 0.3918921
v 0.3223232 0.2635193 -0.2341813
v 0.2939432 -0.343894 -0.213562
v 0.01183342 -0.343894 0.3573865
v 0.2135621 -0.343894 -0.2939429
v 3.814697E-08 -0.343894 5.722046E-08
v 0.2939432 -0.343894 -0.213562
v 0.1122762 -0.343894 -0.3455507
v 3.814697E-08 -0.343894 -0.3633335
v -0.1122763 -0.343894 -0.3455506
v -0.2135622 -0.343894 -0.2939429
v -0.293943 -0.343894 -0.2135619
v -0.01183338 -0.343894 0.3573865
v 3.814697E-08 -0.343894 0.3633334
v 0.01183342 -0.343894 0.3573865
v 0.3223232 0.2635193 -0.2341813
v 3.814697E-08 0.2635193 5.722046E-08
v 0.2341816 0.2635193 -0.3223231
v 0.1231165 0.2635193 -0.3789136
v 3.814697E-08 0.2635193 -0.3984132
v -0.1231165 0.2635193 -0.3789136
v -0.2341815 0.2635193 -0.3223231
v -0.3223231 0.2635193 -0.2341813
v -0.01297588 0.2635193 0.3918921
v 3.814697E-08 0.2635193 0.3984132
v 0.01297573 0.2635193 0.3918921
v 0.1514352 0.2679297 -0.2288878
v 0.08772258 0.268374 -0.3112048
v 0.09033169 0.2476797 -0.3091859
v 0.151631 0.2474133 -0.2280488
v -0.006942177 0.2479108 -0.3403029
v -0.01180077 0.2687164 -0.3428156
v -0.1015672 0.2478641 -0.3093641
v -0.1074062 0.2686468 -0.3114708
v -0.1577294 0.2475897 -0.2282207
v -0.16296 0.2682324 -0.2291822
v -0.1555692 0.247363 -0.1280296
v -0.1591041 0.2678272 -0.1275718
v -0.09633358 0.2473123 -0.04710344
v -0.09783966 0.267641 -0.04550494
v -0.001256065 0.2473123 -0.01621084
v -0.001256065 0.2676071 -0.01419454
v 0.09382129 0.2473123 -0.04710344
v 0.0950066 0.2676071 -0.04547215
v 0.1525825 0.2473123 -0.1279811
v 0.1538687 0.2676727 -0.1274226
v 0.151631 0.2474133 -0.2280488
v 0.1514352 0.2679297 -0.2288878
v -0.1124786 0.2891629 -0.3104788
v -0.01826626 0.2892542 -0.34146
v 0.08116634 0.2887958 -0.3101224
v 0.1459473 0.2881625 -0.2286295
v -0.001987076 0.2875412 -0.01628554
v -0.09814899 0.2876553 -0.04728884
v -0.1602068 0.2880023 -0.1285034
v -0.1658661 0.2885971 -0.2290521
v 0.1189087 0.3258801 -0.2249607
v 0.05662411 0.3268561 -0.2988693
v -0.03358429 0.3277353 -0.3285982
v -0.1130885 0.3282782 -0.3041918
v -0.159157 0.3273688 -0.2299113
v -0.1554382 0.3256897 -0.1349511
v -0.09659847 0.3249286 -0.06089114
v -0.008116989 0.3246436 -0.03274564
v 0.09291729 0.2875595 -0.04719574
v 0.1500759 0.287728 -0.1282372
v 0.1459473 0.2881625 -0.2286295
v 0.07723072 0.3246881 -0.06065744
v 0.1264034 0.3250909 -0.1340101
v 0.1189087 0.3258801 -0.2249607
v -0.1007902 0.3690442 -0.300531
v -0.03962059 0.3683942 -0.3186566
v 0.02312523 0.3663196 -0.2880928
v 0.06850421 0.36453 -0.2249343
v 0.04005302 0.3630688 -0.09397364
v -0.02737427 0.3630017 -0.07179154
v -0.09739677 0.3636453 -0.09560304
v -0.1380908 0.3656641 -0.1607476
v -0.1381136 0.3679324 -0.2400538
v 0.02365883 0.4111081 -0.2518866
v 0.003534126 0.4204919 -0.2976533
v -0.03517197 0.4246176 -0.3174552
v -0.07790978 0.4204959 -0.3033879
v -0.1058821 0.4134592 -0.262756
v -0.1069511 0.4115726 -0.2124704
v -0.08350727 0.4101663 -0.1695786
v -0.04449669 0.4090445 -0.150345
v -0.00440567 0.4086587 -0.1623022
v 0.07699482 0.3636084 -0.1523995
v 0.06850421 0.36453 -0.2249343
v 0.0214677 0.4091659 -0.2009163
v 0.02365883 0.4111081 -0.2518866
v -0.03314209 0.4582956 -0.3063162
v -0.005543861 0.4559344 -0.2943442
v 0.008600311 0.4482507 -0.264481
v -0.04453579 0.4313925 -0.1916726
v -0.07163147 0.4335797 -0.203962
v -0.08662636 0.4397775 -0.2331378
v -0.08339489 0.4484573 -0.2683849
v -0.06300529 0.4555267 -0.2963144
v -0.02348469 0.4967013 -0.2865319
v -0.02348469 0.4967013 -0.2865319
v -0.02348469 0.4967013 -0.2865319
v -0.02348469 0.4967013 -0.2865319
v -0.02348469 0.4967013 -0.2865319
v -0.01594158 0.4324539 -0.2006998
v 0.004183921 0.4383542 -0.2283601
v 0.008600311 0.4482507 -0.264481
v -0.02348469 0.4967013 -0.2865319
v -0.02348469 0.4967013 -0.2865319
v -0.02348469 0.4967013 -0.2865319
v -0.02348469 0.4967013 -0.2865319
v -0.02348469 0.4967013 -0.2865319
vt 0.485293 0.634702
vt 0.481539 0.740302
vt 0.493198 0.740302
vt 0.495927 0.634702
vt 0.507892 0.740302
vt 0.509325 0.634702
vt 0.524178 0.740302
vt 0.524178 0.634702
vt 0.540466 0.740302
vt 0.539031 0.634702
vt 0.555158 0.740302
vt 0.55243 0.634702
vt 0.566819 0.740302
vt 0.563064 0.634702
vt 0.306605 0.740303
vt 0.389723 0.740303
vt 0.385143 0.634702
vt 0.309343 0.634702
vt 0.39118 0.634702
vt 0.391027 0.740303
vt 0.392751 0.740303
vt 0.392751 0.634702
vt 0.394473 0.740303
vt 0.394322 0.634702
vt 0.395738 0.740303
vt 0.478857 0.740303
vt 0.476119 0.634702
vt 0.400319 0.634702
vt 0.840608 0.626405
vt 0.811573 0.666365
vt 0.851535 0.637332
vt 0.826838 0.619388
vt 0.811573 0.616971
vt 0.79631 0.619388
vt 0.78254 0.626405
vt 0.771611 0.637332
vt 0.809965 0.714953
vt 0.811573 0.715761
vt 0.813181 0.714953
vt 0.798897 0.711064
vt 0.755078 0.679228
vt 0.786915 0.723047
vt 0.771816 0.730741
vt 0.755078 0.733393
vt 0.73834 0.730741
vt 0.72324 0.723047
vt 0.711259 0.711064
vt 0.753314 0.62595
vt 0.755078 0.625064
vt 0.756842 0.62595
vt 0.857801 0.239888
vt 0.867878 0.239888
vt 0.867878 0.23485
vt 0.857801 0.23485
vt 0.877955 0.23485
vt 0.877955 0.239888
vt 0.888033 0.23485
vt 0.888033 0.239888
vt 0.89811 0.23485
vt 0.89811 0.239888
vt 0.908188 0.23485
vt 0.908188 0.239888
vt 0.918267 0.23485
vt 0.918267 0.239888
vt 0.928345 0.23485
vt 0.928345 0.239888
vt 0.938422 0.23485
vt 0.938422 0.239888
vt 0.948499 0.23485
vt 0.948499 0.239888
vt 0.958577 0.23485
vt 0.958577 0.239888
vt 0.888033 0.244928
vt 0.877955 0.244928
vt 0.867878 0.244928
vt 0.857801 0.244928
vt 0.928345 0.244928
vt 0.918267 0.244928
vt 0.908188 0.244928
vt 0.89811 0.244928
vt 0.857801 0.255005
vt 0.867878 0.255005
vt 0.877955 0.255005
vt 0.888033 0.255005
vt 0.89811 0.255005
vt 0.908188 0.255005
vt 0.918267 0.255005
vt 0.928345 0.255005
vt 0.938422 0.244928
vt 0.948499 0.244928
vt 0.958577 0.244928
vt 0.938422 0.255005
vt 0.948499 0.255005
vt 0.958577 0.255005
vt 0.888033 0.265083
vt 0.877955 0.265083
vt 0.867878 0.265083
vt 0.857801 0.265083
vt 0.938422 0.265083
vt 0.928345 0.265083
vt 0.918267 0.265083
vt 0.908188 0.265083
vt 0.89811 0.265083
vt 0.857801 0.27516
vt 0.867878 0.27516
vt 0.877955 0.27516
vt 0.888033 0.27516
vt 0.89811 0.27516
vt 0.908188 0.27516
vt 0.918267 0.27516
vt 0.928345 0.27516
vt 0.938422 0.27516
vt 0.948499 0.265083
vt 0.958577 0.265083
vt 0.948499 0.27516
vt 0.958577 0.27516
vt 0.877955 0.2802
vt 0.867878 0.2802
vt 0.857801 0.2802
vt 0.928345 0.2802
vt 0.918267 0.2802
vt 0.908188 0.2802
vt 0.89811 0.2802
vt 0.888033 0.2802
vt 0.860319 0.290277
vt 0.890552 0.290277
vt 0.900631 0.290277
vt 0.910709 0.290277
vt 0.920786 0.290277
vt 0.938422 0.2802
vt 0.948499 0.2802
vt 0.958577 0.2802
vt 0.940941 0.290277
vt 0.951018 0.290277
vt 0.880474 0.290277
vt 0.870397 0.290277
vt 0.930863 0.290277
vn 0.9535284 -0.03439018 0.299334
vn 0.9558522 -0.03475502 0.291785
vn 0.5868074 -0.05765661 -0.8076712
vn 0.5868075 -0.0576566 -0.8076712
vn 0.3085029 -0.05765663 -0.9494744
vn 0.3085029 -0.05765663 -0.9494745
vn -3.410914E-07 -0.05765664 -0.9983365
vn -3.506845E-07 -0.05765664 -0.9983365
vn -0.3085029 -0.05765671 -0.9494745
vn -0.3085029 -0.0576567 -0.9494745
vn -0.5868077 -0.05765669 -0.807671
vn -0.5868078 -0.05765668 -0.807671
vn -0.9558522 -0.03475523 0.2917849
vn -0.9535284 -0.03439039 0.2993339
vn -0.9558522 -0.03475523 0.2917849
vn -0.890403 -0.02748482 0.4543425
vn -0.8909217 -0.02742816 0.453328
vn -0.9535284 -0.03439039 0.2993339
vn -0.8909217 -0.02742816 0.453328
vn -0.890403 -0.02748482 0.4543425
vn 1.586756E-06 -0.05765661 0.9983365
vn 1.677742E-06 -0.0576566 0.9983365
vn 0.8904029 -0.0274846 0.4543425
vn 0.8909217 -0.02742794 0.453328
vn 0.8904029 -0.0274846 0.4543425
vn 0.9558522 -0.03475502 0.291785
vn 0.9535284 -0.03439018 0.299334
vn 0.8909217 -0.02742794 0.453328
vn 0 -1 0
vn 0 -1 0
vn 0 -1 0
vn 0 -1 0
vn 0 -1 0
vn 0 -1 1.49619E-07
vn 0 -1 1.49619E-07
vn 0 -1 0
vn 0 -1 0
vn 0 -1 0
vn 0 -1 0
vn 0 1 0
vn 0 1 0
vn 0 1 0
vn 0 1 0
vn 0 1 0
vn 0 1 0
vn 0 1 -1.244313E-07
vn 0 1 -1.056673E-07
vn 0 1 0
vn 0 1 0
vn 0 1 0
vn 0.9350256 0.118742 -0.3341069
vn 0.5739945 0.095475 -0.8132741
vn 0.5988034 -0.01667605 -0.8007223
vn 0.9457318 -0.008063261 -0.3248482
vn 0.04385426 -0.1119723 -0.9927431
vn 0.008398442 -0.02424533 -0.9996707
vn -0.5581401 -0.2263605 -0.7982736
vn -0.5872962 -0.1593273 -0.7935352
vn -0.9300352 -0.2425875 -0.2760178
vn -0.9452801 -0.1843241 -0.2692027
vn -0.9285136 -0.1756619 0.3271169
vn -0.9363641 -0.1096358 0.3334702
vn -0.5794438 -0.1174838 0.8065001
vn -0.5794389 -0.03326204 0.8143367
vn -0.0002277902 -0.09968682 0.9950188
vn 0.003233176 0.001020438 0.9999943
vn 0.5864168 -0.09181811 0.8047887
vn 0.5927355 0.02344885 0.8050558
vn 0.9533361 -0.05637963 0.2966001
vn 0.9540968 0.07089354 0.2909868
vn 0.9457318 -0.008063261 -0.3248482
vn 0.9350256 0.118742 -0.3341069
vn -0.6092131 0.0573436 -0.7909305
vn 0.03312007 0.2427505 -0.9695233
vn 0.5341483 0.4077022 -0.7405838
vn 0.8314421 0.4615039 -0.3093835
vn 0.01551301 0.2996874 0.9539113
vn -0.550824 0.2128954 0.807012
vn -0.9292154 0.1127804 0.3519083
vn -0.9689535 0.04250787 -0.2435617
vn 0.696685 0.6656299 -0.2675198
vn 0.4908434 0.5506718 -0.6751543
vn 0.01055253 0.3057098 -0.9520662
vn -0.6280409 0.1972504 -0.7527661
vn -0.9394313 0.2647164 -0.2177022
vn -0.8750259 0.3512218 0.3331259
vn -0.5013989 0.4565404 0.7349626
vn 0.01176534 0.5699689 0.821582
vn 0.5622716 0.3678558 0.7406299
vn 0.8675325 0.4327599 0.2451658
vn 0.8314421 0.4615039 -0.3093835
vn 0.4590414 0.6474153 0.6083868
vn 0.7028265 0.6845828 0.1933428
vn 0.696685 0.6656299 -0.2675198
vn -0.6101782 0.2462111 -0.7530356
vn 0.05318233 0.1775012 -0.9826826
vn 0.5851508 0.426589 -0.6896523
vn 0.6624454 0.7165866 -0.2183337
vn 0.3295719 0.8258504 0.4575516
vn -0.01951109 0.7862931 0.6175455
vn -0.432455 0.7108527 0.5546811
vn -0.7572655 0.6050481 0.2458979
vn -0.8700505 0.442679 -0.216904
vn 0.8326227 0.503839 -0.2299689
vn 0.6633924 0.1713649 -0.7283849
vn 0.08712534 0.1124561 -0.9898297
vn -0.5623572 0.2464922 -0.7893009
vn -0.841849 0.4637022 -0.2761714
vn -0.723815 0.6688704 0.1694238
vn -0.3997201 0.8086003 0.4317284
vn -0.03307076 0.8646274 0.501324
vn 0.2959091 0.866759 0.4014558
vn 0.5544422 0.8167705 0.1596239
vn 0.6624454 0.7165866 -0.2183337
vn 0.5941074 0.7862039 0.1700585
vn 0.8326227 0.503839 -0.2299689
vn 0.0378878 0.3492918 -0.9362477
vn 0.7082406 0.311926 -0.6333225
vn 0.8928128 0.443818 -0.0768822
vn -0.02923156 0.854158 0.5191914
vn -0.3541117 0.8189611 0.4515613
vn -0.641109 0.7328198 0.2279348
vn -0.7630404 0.6243539 -0.1671871
vn -0.5753698 0.4931833 -0.6524721
vn 0.06376921 0.9976431 0.0253325
vn 0.06376921 0.9976431 0.0253325
vn 0.06376921 0.9976431 0.0253325
vn 0.06376921 0.9976431 0.0253325
vn 0.06376921 0.9976431 0.0253325
vn 0.3072658 0.8125378 0.4953485
vn 0.6800566 0.6575419 0.3242864
vn 0.8928128 0.443818 -0.0768822
vn 0.06376921 0.9976431 0.0253325
vn 0.06376921 0.9976431 0.0253325
vn 0.06376921 0.9976431 0.0253325
vn 0.06376921 0.9976431 0.0253325
vn 0.06376921 0.9976431 0.0253325
g meger3d_Char_sundries_C2_3_0
f 3/3/3 2/2/2 1/1/1
f 4/4/4 3/3/3 1/1/1
f 5/5/5 3/3/3 4/4/4
f 6/6/6 5/5/5 4/4/4
f 7/7/7 5/5/5 6/6/6
f 8/8/8 7/7/7 6/6/6
f 9/9/9 7/7/7 8/8/8
f 10/10/10 9/9/9 8/8/8
f 11/11/11 9/9/9 10/10/10
f 12/12/12 11/11/11 10/10/10
f 13/13/13 11/11/11 12/12/12
f 14/14/14 13/13/13 12/12/12
f 17/17/17 16/16/16 15/15/15
f 18/18/18 17/17/17 15/15/15
f 21/21/21 20/20/20 19/19/19
f 22/22/22 21/21/21 19/19/19
f 23/23/23 21/21/21 22/22/22
f 24/24/24 23/23/23 22/22/22
f 27/27/27 26/26/26 25/25/25
f 28/28/28 27/27/27 25/25/25
f 31/31/31 30/30/30 29/29/29
f 29/29/29 30/30/30 32/32/32
f 32/32/32 30/30/30 33/33/33
f 33/33/33 30/30/30 34/34/34
f 34/34/34 30/30/30 35/35/35
f 35/35/35 30/30/30 36/36/36
f 36/36/36 30/30/30 37/37/37
f 37/37/37 30/30/30 38/38/38
f 38/38/38 30/30/30 39/39/39
f 39/39/39 30/30/30 31/31/31
f 42/42/42 41/41/41 40/40/40
f 43/43/43 41/41/41 42/42/42
f 44/44/44 41/41/41 43/43/43
f 45/45/45 41/41/41 44/44/44
f 46/46/46 41/41/41 45/45/45
f 47/47/47 41/41/41 46/46/46
f 47/47/47 48/48/48 41/41/41
f 49/49/49 41/41/41 48/48/48
f 50/50/50 41/41/41 49/49/49
f 50/50/50 40/40/40 41/41/41
f 53/53/53 52/52/52 51/51/51
f 54/54/54 53/53/53 51/51/51
f 53/53/53 55/55/55 52/52/52
f 55/55/55 56/56/56 52/52/52
f 55/55/55 57/57/57 56/56/56
f 57/57/57 58/58/58 56/56/56
f 57/57/57 59/59/59 58/58/58
f 59/59/59 60/60/60 58/58/58
f 59/59/59 61/61/61 60/60/60
f 61/61/61 62/62/62 60/60/60
f 61/61/61 63/63/63 62/62/62
f 63/63/63 64/64/64 62/62/62
f 63/63/63 65/65/65 64/64/64
f 65/65/65 66/66/66 64/64/64
f 65/65/65 67/67/67 66/66/66
f 67/67/67 68/68/68 66/66/66
f 67/67/67 69/69/69 68/68/68
f 69/69/69 70/70/70 68/68/68
f 69/69/69 71/71/71 70/70/70
f 71/71/71 72/72/72 70/70/70
f 58/58/58 60/60/60 73/73/73
f 58/58/58 73/73/73 74/74/74
f 56/56/56 58/58/58 74/74/74
f 56/56/56 74/74/74 75/75/75
f 52/52/52 56/56/56 75/75/75
f 52/52/52 75/75/75 76/76/76
f 51/51/51 52/52/52 76/76/76
f 66/66/66 68/68/68 77/77/77
f 66/66/66 77/77/77 78/78/78
f 64/64/64 66/66/66 78/78/78
f 64/64/64 78/78/78 79/79/79
f 62/62/62 64/64/64 79/79/79
f 62/62/62 79/79/79 80/80/80
f 60/60/60 80/80/80 73/73/73
f 60/60/60 62/62/62 80/80/80
f 76/76/76 75/75/75 81/81/81
f 75/75/75 82/82/82 81/81/81
f 75/75/75 74/74/74 82/82/82
f 74/74/74 83/83/83 82/82/82
f 74/74/74 73/73/73 83/83/83
f 73/73/73 84/84/84 83/83/83
f 73/73/73 80/80/80 84/84/84
f 80/80/80 85/85/85 84/84/84
f 80/80/80 79/79/79 85/85/85
f 79/79/79 86/86/86 85/85/85
f 79/79/79 78/78/78 86/86/86
f 78/78/78 87/87/87 86/86/86
f 78/78/78 77/77/77 87/87/87
f 77/77/77 88/88/88 87/87/87
f 77/77/77 89/89/89 88/88/88
f 68/68/68 89/89/89 77/77/77
f 68/68/68 70/70/70 89/89/89
f 70/70/70 90/90/90 89/89/89
f 70/70/70 72/72/72 90/90/90
f 72/72/72 91/91/91 90/90/90
f 89/89/89 92/92/92 88/88/88
f 89/89/89 90/90/90 92/92/92
f 90/90/90 93/93/93 92/92/92
f 90/90/90 91/91/91 93/93/93
f 91/91/91 94/94/94 93/93/93
f 84/84/84 85/85/85 95/95/95
f 84/84/84 95/95/95 96/96/96
f 83/83/83 84/84/84 96/96/96
f 83/83/83 96/96/96 97/97/97
f 82/82/82 83/83/83 97/97/97
f 82/82/82 97/97/97 98/98/98
f 81/81/81 82/82/82 98/98/98
f 92/92/92 93/93/93 99/99/99
f 92/92/92 99/99/99 100/100/100
f 88/88/88 92/92/92 100/100/100
f 88/88/88 100/100/100 101/101/101
f 87/87/87 88/88/88 101/101/101
f 87/87/87 101/101/101 102/102/102
f 86/86/86 87/87/87 102/102/102
f 86/86/86 102/102/102 103/103/103
f 85/85/85 103/103/103 95/95/95
f 85/85/85 86/86/86 103/103/103
f 98/98/98 97/97/97 104/104/104
f 97/97/97 105/105/105 104/104/104
f 97/97/97 96/96/96 105/105/105
f 96/96/96 106/106/106 105/105/105
f 96/96/96 95/95/95 106/106/106
f 95/95/95 107/107/107 106/106/106
f 95/95/95 103/103/103 107/107/107
f 103/103/103 108/108/108 107/107/107
f 103/103/103 102/102/102 108/108/108
f 102/102/102 109/109/109 108/108/108
f 102/102/102 101/101/101 109/109/109
f 101/101/101 110/110/110 109/109/109
f 101/101/101 100/100/100 110/110/110
f 100/100/100 111/111/111 110/110/110
f 100/100/100 99/99/99 111/111/111
f 99/99/99 112/112/112 111/111/111
f 99/99/99 113/113/113 112/112/112
f 93/93/93 113/113/113 99/99/99
f 93/93/93 94/94/94 113/113/113
f 94/94/94 114/114/114 113/113/113
f 113/113/113 115/115/115 112/112/112
f 113/113/113 114/114/114 115/115/115
f 114/114/114 116/116/116 115/115/115
f 106/106/106 107/107/107 117/117/117
f 106/106/106 117/117/117 118/118/118
f 105/105/105 106/106/106 118/118/118
f 105/105/105 118/118/118 119/119/119
f 104/104/104 105/105/105 119/119/119
f 111/111/111 112/112/112 120/120/120
f 111/111/111 120/120/120 121/121/121
f 110/110/110 111/111/111 121/121/121
f 110/110/110 121/121/121 122/122/122
f 109/109/109 110/110/110 122/122/122
f 109/109/109 122/122/122 123/123/123
f 108/108/108 109/109/109 123/123/123
f 108/108/108 123/123/123 124/124/124
f 107/107/107 124/124/124 117/117/117
f 107/107/107 108/108/108 124/124/124
f 119/119/119 118/118/118 125/125/125
f 124/124/124 123/123/123 126/126/126
f 123/123/123 122/122/122 127/127/127
f 122/122/122 121/121/121 128/128/128
f 121/121/121 120/120/120 129/129/129
f 112/112/112 130/130/130 120/120/120
f 112/112/112 115/115/115 130/130/130
f 115/115/115 131/131/131 130/130/130
f 115/115/115 116/116/116 131/131/131
f 116/116/116 132/132/132 131/131/131
f 130/130/130 131/131/131 133/133/133
f 131/131/131 132/132/132 134/134/134
f 117/117/117 124/124/124 135/135/135
f 118/118/118 117/117/117 136/136/136
f 120/120/120 130/130/130 137/137/137
