g meger3d_Char_sundries_C1_8
v 0.2936264 -0.3430249 -0.2133321
v 0.321976 0.2637329 -0.2339292
v 0.2339291 0.2637329 -0.3219759
v 0.2133319 -0.3430249 -0.2936262
v 0.1229831 0.2637329 -0.3785053
v 0.1121545 -0.3430249 -0.3451785
v -6.103515E-07 0.2637329 -0.397984
v -6.103515E-07 -0.3430249 -0.362942
v -0.122984 0.2637329 -0.3785053
v -0.1121555 -0.3430249 -0.3451785
v -0.2339294 0.2637329 -0.3219759
v -0.2133325 -0.3430249 -0.2936262
v -0.321976 0.2637329 -0.2339291
v -0.293627 -0.3430249 -0.213332
v -0.321976 0.2637329 -0.2339291
v -0.01296204 0.2637329 0.3914697
v -0.01182098 -0.3430249 0.3570013
v -0.293627 -0.3430249 -0.213332
v -0.01182098 -0.3430249 0.3570013
v -0.01296204 0.2637329 0.3914697
v -6.103515E-07 0.2637329 0.397984
v -6.103515E-07 -0.3430249 0.362942
v 0.01296173 0.2637329 0.3914697
v 0.01182068 -0.3430249 0.3570013
v 0.01296173 0.2637329 0.3914697
v 0.321976 0.2637329 -0.2339292
v 0.2936264 -0.3430249 -0.2133321
v 0.01182068 -0.3430249 0.3570013
v 0.2133319 -0.3430249 -0.2936262
v -6.103515E-07 -0.3430249 3.814697E-08
v 0.2936264 -0.3430249 -0.2133321
v 0.1121545 -0.3430249 -0.3451785
v -6.103515E-07 -0.3430249 -0.362942
v -0.1121555 -0.3430249 -0.3451785
v -0.2133325 -0.3430249 -0.2936262
v -0.293627 -0.3430249 -0.213332
v -0.01182098 -0.3430249 0.3570013
v -6.103515E-07 -0.3430249 0.362942
v 0.01182068 -0.3430249 0.3570013
v 0.321976 0.2637329 -0.2339292
v -6.103515E-07 0.2637329 3.814697E-08
v 0.2339291 0.2637329 -0.3219759
v 0.1229831 0.2637329 -0.3785053
v -6.103515E-07 0.2637329 -0.397984
v -0.122984 0.2637329 -0.3785053
v -0.2339294 0.2637329 -0.3219759
v -0.321976 0.2637329 -0.2339291
v -0.01296204 0.2637329 0.3914697
v -6.103515E-07 0.2637329 0.397984
v 0.01296173 0.2637329 0.3914697
vt 0.195647 0.037946
vt 0.191892 0.143546
vt 0.203553 0.143546
vt 0.206281 0.037946
vt 0.218245 0.143546
vt 0.219679 0.037946
vt 0.234532 0.143546
vt 0.234532 0.037946
vt 0.25082 0.143546
vt 0.249385 0.037946
vt 0.265513 0.143546
vt 0.262784 0.037946
vt 0.277173 0.143546
vt 0.273418 0.037946
vt 0.016959 0.143546
vt 0.100078 0.143546
vt 0.095496 0.037946
vt 0.019696 0.037946
vt 0.101534 0.037946
vt 0.101382 0.143546
vt 0.103105 0.143546
vt 0.103105 0.037946
vt 0.104827 0.143546
vt 0.104676 0.037946
vt 0.106092 0.143546
vt 0.189211 0.143546
vt 0.186473 0.037946
vt 0.110674 0.037946
vt 0.717 0.025299
vt 0.687965 0.06526
vt 0.727927 0.036226
vt 0.70323 0.018284
vt 0.687965 0.015866
vt 0.672702 0.018284
vt 0.658932 0.025299
vt 0.648005 0.036226
vt 0.686357 0.113848
vt 0.687965 0.114656
vt 0.689575 0.113848
vt 0.675289 0.109959
vt 0.63147 0.078123
vt 0.663308 0.121942
vt 0.648208 0.129636
vt 0.63147 0.132286
vt 0.614732 0.129636
vt 0.599633 0.121942
vt 0.587651 0.108135
vt 0.629706 0.024845
vt 0.63147 0.023958
vt 0.633234 0.024845
vn 0.9535284 -0.03439034 0.299334
vn 0.9558522 -0.03475518 0.2917849
vn 0.5868058 -0.05765681 -0.8076724
vn 0.5868057 -0.0576568 -0.8076724
vn 0.3085023 -0.05765678 -0.9494746
vn 0.3085023 -0.05765678 -0.9494746
vn 0 -0.05765677 -0.9983365
vn 0 -0.05765678 -0.9983365
vn -0.3085032 -0.05765672 -0.9494743
vn -0.3085032 -0.05765672 -0.9494743
vn -0.5868071 -0.05765647 -0.8076714
vn -0.5868072 -0.05765648 -0.8076714
vn -0.9558522 -0.03475467 0.2917851
vn -0.9535284 -0.03438983 0.2993342
vn -0.9558522 -0.03475467 0.2917851
vn -0.8904031 -0.02748425 0.4543422
vn -0.8909219 -0.02742759 0.4533276
vn -0.9535284 -0.03438983 0.2993342
vn -0.8909219 -0.02742759 0.4533276
vn -0.8904031 -0.02748425 0.4543422
vn 2.459025E-07 -0.05765666 0.9983365
vn -2.220651E-07 -0.05765666 0.9983365
vn 0.8904027 -0.02748476 0.4543433
vn 0.8909214 -0.0274281 0.4533286
vn 0.8904027 -0.02748476 0.4543433
vn 0.9558522 -0.03475518 0.2917849
vn 0.9535284 -0.03439034 0.299334
vn 0.8909214 -0.0274281 0.4533286
vn 0 -1 0
vn 0 -1 0
vn 0 -1 0
vn 0 -1 0
vn 0 -1 0
vn 0 -1 1.499419E-07
vn 0 -1 1.499416E-07
vn 0 -1 0
vn 0 -1 0
vn 0 -1 0
vn 0 -1 0
vn 0 1 0
vn 0 1 0
vn 0 1 0
vn 0 1 0
vn 0 1 0
vn 0 1 0
vn 0 1 0
vn 0 1 0
vn 0 1 0
vn 0 1 0
vn 0 1 0
g meger3d_Char_sundries_C1_8_0
f 3/3/3 2/2/2 1/1/1
f 4/4/4 3/3/3 1/1/1
f 5/5/5 3/3/3 4/4/4
f 6/6/6 5/5/5 4/4/4
f 7/7/7 5/5/5 6/6/6
f 8/8/8 7/7/7 6/6/6
f 9/9/9 7/7/7 8/8/8
f 10/10/10 9/9/9 8/8/8
f 11/11/11 9/9/9 10/10/10
f 12/12/12 11/11/11 10/10/10
f 13/13/13 11/11/11 12/12/12
f 14/14/14 13/13/13 12/12/12
f 17/17/17 16/16/16 15/15/15
f 18/18/18 17/17/17 15/15/15
f 21/21/21 20/20/20 19/19/19
f 22/22/22 21/21/21 19/19/19
f 23/23/23 21/21/21 22/22/22
f 24/24/24 23/23/23 22/22/22
f 27/27/27 26/26/26 25/25/25
f 28/28/28 27/27/27 25/25/25
f 31/31/31 30/30/30 29/29/29
f 29/29/29 30/30/30 32/32/32
f 32/32/32 30/30/30 33/33/33
f 33/33/33 30/30/30 34/34/34
f 34/34/34 30/30/30 35/35/35
f 35/35/35 30/30/30 36/36/36
f 36/36/36 30/30/30 37/37/37
f 37/37/37 30/30/30 38/38/38
f 38/38/38 30/30/30 39/39/39
f 39/39/39 30/30/30 31/31/31
f 42/42/42 41/41/41 40/40/40
f 43/43/43 41/41/41 42/42/42
f 44/44/44 41/41/41 43/43/43
f 45/45/45 41/41/41 44/44/44
f 46/46/46 41/41/41 45/45/45
f 47/47/47 41/41/41 46/46/46
f 47/47/47 48/48/48 41/41/41
f 49/49/49 41/41/41 48/48/48
f 50/50/50 41/41/41 49/49/49
f 50/50/50 40/40/40 41/41/41
