g meger3d_Char_sundries_C2_84
v -0.105231 -0.460185 -0.1822638
v 0 -0.5360527 0
v 0.105231 -0.460185 -0.1822638
v 0.1612224 -0.2680795 -0.2792451
v -0.1612224 -0.2680795 -0.2792451
v -0.105231 -0.460185 -0.1822638
v 0.105231 -0.460185 -0.1822638
v 0.1612224 -0.2680795 -0.2792451
v 0.105231 -0.460185 -0.1822638
v 0.2104608 -0.460185 0
v 0.3224442 -0.2680795 0
v 0.2104608 -0.460185 0
v 0.105231 -0.460185 0.1822638
v 0.1612224 -0.2680795 0.2792451
v 0.3224442 -0.2680795 0
v 0.1341794 -0.04962621 -0.232404
v -0.1341794 -0.04962621 -0.232404
v -0.1612224 -0.2680795 -0.2792451
v 0.1612224 -0.2680795 -0.2792451
v 0.1341794 -0.04962621 -0.232404
v 0.1612224 -0.2680795 -0.2792451
v 0.3224442 -0.2680795 0
v 0.2683582 -0.04962621 0
v 0.3224442 -0.2680795 0
v 0.1612224 -0.2680795 0.2792451
v 0.1341794 -0.04962621 0.232404
v 0.2683582 -0.04962621 0
v 0.05841146 0.1310922 -0.1011713
v -0.05841146 0.1310922 -0.1011713
v -0.1341794 -0.04962621 -0.232404
v 0.1341794 -0.04962621 -0.232404
v 0.2104608 -0.460185 0
v 0.105231 -0.460185 -0.1822638
v 0 -0.5360527 0
v 0 -0.5360527 0
v 0.105231 -0.460185 0.1822638
v 0.2104608 -0.460185 0
v 0.05841146 0.1310922 -0.1011713
v 0.1341794 -0.04962621 -0.232404
v 0.2683582 -0.04962621 0
v 0.1168229 0.1310922 0
v 0.2683582 -0.04962621 0
v 0.1341794 -0.04962621 0.232404
v 0.05841146 0.1310922 0.1011713
v 0.1168229 0.1310922 0
v 0.05410231 0.2413817 -0.0937069
v -0.05410231 0.2413817 -0.0937069
v -0.05841146 0.1310922 -0.1011713
v 0.05841146 0.1310922 -0.1011713
v 0.108204 0.2413817 0
v 0.05410231 0.2413817 -0.0937069
v 0.05841146 0.1310922 -0.1011713
v 0.1168229 0.1310922 0
v 0.05410231 0.2413817 0.0937069
v 0.108204 0.2413817 0
v 0.1168229 0.1310922 0
v 0.05841146 0.1310922 0.1011713
v 0.09111235 0.2413817 -0.1578102
v -0.09111235 0.2413817 -0.1578102
v -0.05410231 0.2413817 -0.0937069
v 0.05410231 0.2413817 -0.0937069
v 0.1822241 0.2413817 0
v 0.108204 0.2413817 0
v 0.09111235 0.2413817 0.1578102
v 0.05410231 0.2413817 0.0937069
v 0.09111235 0.3573862 -0.1578102
v -0.09111235 0.3573862 -0.1578102
v -0.09111235 0.2413817 -0.1578102
v 0.09111235 0.2413817 -0.1578102
v 0.1822241 0.3573862 0
v 0.09111235 0.3573862 -0.1578102
v 0.09111235 0.2413817 -0.1578102
v 0.1822241 0.2413817 0
v 0.09111235 0.3573862 0.1578102
v 0.1822241 0.3573862 0
v 0.1822241 0.2413817 0
v 0.09111235 0.2413817 0.1578102
v 0 0.3573862 0
v -0.09111235 0.3573862 -0.1578102
v 0.09111235 0.3573862 -0.1578102
v -0.1822241 0.3573862 0
v -0.09111235 0.3573862 0.1578102
v 0.09111235 0.3573862 0.1578102
v 0 0.3573862 0
v 0.09111235 0.3573862 -0.1578102
v 0.1822241 0.3573862 0
v 0.09111235 0.3573862 0.1578102
v -0.2104608 -0.460185 0
v 0 -0.5360527 0
v -0.105231 -0.460185 -0.1822638
v -0.105231 -0.460185 0.1822638
v 0 -0.5360527 0
v -0.2104608 -0.460185 0
v 0 -0.5360527 0
v -0.105231 -0.460185 0.1822638
v 0.105231 -0.460185 0.1822638
v -0.105231 -0.460185 -0.1822638
v -0.1612224 -0.2680795 -0.2792451
v -0.3224442 -0.2680795 0
v -0.2104608 -0.460185 0
v -0.2104608 -0.460185 0
v -0.3224442 -0.2680795 0
v -0.1612224 -0.2680795 0.2792451
v -0.105231 -0.460185 0.1822638
v -0.105231 -0.460185 0.1822638
v -0.1612224 -0.2680795 0.2792451
v 0.1612224 -0.2680795 0.2792451
v 0.105231 -0.460185 0.1822638
v -0.1612224 -0.2680795 -0.2792451
v -0.1341794 -0.04962621 -0.232404
v -0.2683582 -0.04962621 0
v -0.3224442 -0.2680795 0
v -0.3224442 -0.2680795 0
v -0.2683582 -0.04962621 0
v -0.1341794 -0.04962621 0.232404
v -0.1612224 -0.2680795 0.2792451
v -0.1612224 -0.2680795 0.2792451
v -0.1341794 -0.04962621 0.232404
v 0.1341794 -0.04962621 0.232404
v 0.1612224 -0.2680795 0.2792451
v -0.1341794 -0.04962621 -0.232404
v -0.05841146 0.1310922 -0.1011713
v -0.1168229 0.1310922 0
v -0.2683582 -0.04962621 0
v -0.2683582 -0.04962621 0
v -0.1168229 0.1310922 0
v -0.05841146 0.1310922 0.1011713
v -0.1341794 -0.04962621 0.232404
v -0.1341794 -0.04962621 0.232404
v -0.05841146 0.1310922 0.1011713
v 0.05841146 0.1310922 0.1011713
v 0.1341794 -0.04962621 0.232404
v -0.05410231 0.2413817 -0.0937069
v -0.108204 0.2413817 0
v -0.1168229 0.1310922 0
v -0.05841146 0.1310922 -0.1011713
v -0.108204 0.2413817 0
v -0.05410231 0.2413817 0.0937069
v -0.05841146 0.1310922 0.1011713
v -0.1168229 0.1310922 0
v 0.05410231 0.2413817 0.0937069
v 0.05841146 0.1310922 0.1011713
v -0.05841146 0.1310922 0.1011713
v -0.05410231 0.2413817 0.0937069
v -0.09111235 0.2413817 -0.1578102
v -0.1822241 0.2413817 0
v -0.108204 0.2413817 0
v -0.05410231 0.2413817 -0.0937069
v -0.05410231 0.2413817 0.0937069
v -0.09111235 0.2413817 0.1578102
v 0.09111235 0.2413817 0.1578102
v 0.05410231 0.2413817 0.0937069
v -0.05410231 0.2413817 0.0937069
v -0.09111235 0.2413817 0.1578102
v -0.09111235 0.3573862 -0.1578102
v -0.1822241 0.3573862 0
v -0.1822241 0.2413817 0
v -0.09111235 0.2413817 -0.1578102
v -0.1822241 0.3573862 0
v -0.09111235 0.3573862 0.1578102
v -0.09111235 0.2413817 0.1578102
v -0.1822241 0.2413817 0
v 0.09111235 0.3573862 0.1578102
v 0.09111235 0.2413817 0.1578102
v -0.09111235 0.2413817 0.1578102
v -0.09111235 0.3573862 0.1578102
v 0.129655 0.5360531 -0.09419964
v -0.0495239 0.5360531 -0.1524184
v -0.03172809 0.3124496 -0.09764642
v 0.08306327 0.3124496 -0.06034891
v -0.0495239 0.5360531 -0.1524184
v -0.1602628 0.5360531 0
v -0.1026729 0.3124496 0
v -0.03172809 0.3124496 -0.09764642
v -0.1602628 0.5360531 0
v -0.0495239 0.5360531 0.1524184
v -0.03172809 0.3124496 0.09764642
v -0.1026729 0.3124496 0
v -0.0495239 0.5360531 0.1524184
v 0.129655 0.5360531 0.09419964
v 0.08306327 0.3124496 0.0603485
v -0.03172809 0.3124496 0.09764642
v 0.129655 0.5360531 0.09419964
v 0.129655 0.5360531 -0.09419964
v 0.08306327 0.3124496 -0.06034891
v 0.08306327 0.3124496 0.0603485
v 0 0.5360531 0
v -0.0495239 0.5360531 -0.1524184
v 0.129655 0.5360531 -0.09419964
v -0.1602628 0.5360531 0
v -0.0495239 0.5360531 0.1524184
v 0.129655 0.5360531 0.09419964
vt 0.252711 0.4405914
vt 0.2527114 0.4405912
vt 0.252711 0.4405909
vt 0.2527116 0.4405903
vt 0.2527109 0.4405903
vt 0.252711 0.4405907
vt 0.2527114 0.4405907
vt 0.2527128 0.4405898
vt 0.2527126 0.4405894
vt 0.2527122 0.4405894
vt 0.2527122 0.4405898
vt 0.2527122 0.4405894
vt 0.2527118 0.4405894
vt 0.2527116 0.4405898
vt 0.2527122 0.4405898
vt 0.2527115 0.4405898
vt 0.2527109 0.4405898
vt 0.2527109 0.4405903
vt 0.2527116 0.4405903
vt 0.2527127 0.4405903
vt 0.2527128 0.4405898
vt 0.2527122 0.4405898
vt 0.2527122 0.4405903
vt 0.2527122 0.4405898
vt 0.2527116 0.4405898
vt 0.2527117 0.4405903
vt 0.2527122 0.4405903
vt 0.2527114 0.4405894
vt 0.2527111 0.4405894
vt 0.2527109 0.4405898
vt 0.2527115 0.4405898
vt 0.2527114 0.4405907
vt 0.252711 0.4405909
vt 0.2527114 0.4405912
vt 0.2527114 0.4405912
vt 0.2527118 0.4405909
vt 0.2527114 0.4405907
vt 0.2527124 0.4405907
vt 0.2527127 0.4405903
vt 0.2527122 0.4405903
vt 0.2527122 0.4405907
vt 0.2527122 0.4405903
vt 0.2527117 0.4405903
vt 0.252712 0.4405907
vt 0.2527122 0.4405907
vt 0.241568 0.4677332
vt 0.241568 0.4677332
vt 0.2373217 0.4550835
vt 0.2373217 0.4550835
vt 0.254802 0.4658752
vt 0.241568 0.4677332
vt 0.2373217 0.4550835
vt 0.2548613 0.4528496
vt 0.2680226 0.4678516
vt 0.254802 0.4658752
vt 0.2548613 0.4528496
vt 0.2723808 0.4552388
vt 0.05560629 0.3717428
vt 0.05560629 0.3717428
vt 0.05561119 0.3717514
vt 0.05561119 0.3717514
vt 0.05559422 0.3717638
vt 0.05560403 0.3717638
vt 0.05560629 0.3717847
vt 0.05561119 0.3717762
vt 0.05555778 0.3716891
vt 0.05555778 0.3716891
vt 0.05556521 0.371702
vt 0.05556521 0.371702
vt 0.05554191 0.3717166
vt 0.05555778 0.3716891
vt 0.05556521 0.371702
vt 0.05555676 0.3717166
vt 0.05555778 0.3717442
vt 0.05554191 0.3717166
vt 0.05555676 0.3717166
vt 0.05556521 0.3717313
vt 0.05558009 0.3717162
vt 0.05559217 0.3716953
vt 0.05559217 0.3716953
vt 0.05560424 0.3717162
vt 0.05559217 0.3717371
vt 0.05559217 0.3717371
vt 0.05558009 0.3717162
vt 0.05559217 0.3716953
vt 0.05560424 0.3717162
vt 0.05559217 0.3717371
vt 0.2527114 0.4405916
vt 0.2527114 0.4405912
vt 0.252711 0.4405914
vt 0.2527118 0.4405914
vt 0.2527114 0.4405912
vt 0.2527114 0.4405916
vt 0.2527114 0.4405912
vt 0.2527118 0.4405914
vt 0.2527118 0.4405909
vt 0.2527127 0.4405907
vt 0.2527125 0.4405911
vt 0.2527131 0.4405911
vt 0.2527131 0.4405907
vt 0.2527131 0.4405907
vt 0.2527131 0.4405911
vt 0.2527137 0.4405911
vt 0.2527136 0.4405907
vt 0.2527119 0.4405907
vt 0.2527118 0.4405911
vt 0.2527125 0.4405911
vt 0.2527124 0.4405907
vt 0.2527125 0.4405911
vt 0.2527126 0.4405916
vt 0.2527131 0.4405916
vt 0.2527131 0.4405911
vt 0.2527131 0.4405911
vt 0.2527131 0.4405916
vt 0.2527137 0.4405916
vt 0.2527137 0.4405911
vt 0.2527118 0.4405911
vt 0.2527118 0.4405916
vt 0.2527124 0.4405916
vt 0.2527125 0.4405911
vt 0.2527126 0.4405916
vt 0.2527129 0.440592
vt 0.2527131 0.440592
vt 0.2527131 0.4405916
vt 0.2527131 0.4405916
vt 0.2527131 0.440592
vt 0.2527133 0.440592
vt 0.2527137 0.4405916
vt 0.2527118 0.4405916
vt 0.252712 0.440592
vt 0.2527123 0.440592
vt 0.2527124 0.4405916
vt 0.241568 0.4677332
vt 0.254802 0.4658752
vt 0.2548613 0.4528496
vt 0.2373217 0.4550835
vt 0.254802 0.4658752
vt 0.2680226 0.4678516
vt 0.2723808 0.4552388
vt 0.2548613 0.4528496
vt 0.2680226 0.4678516
vt 0.2723808 0.4552388
vt 0.2723808 0.4552388
vt 0.2680226 0.4678516
vt 0.05560629 0.3717428
vt 0.05559422 0.3717638
vt 0.05560403 0.3717638
vt 0.05561119 0.3717514
vt 0.05561119 0.3717762
vt 0.05560629 0.3717847
vt 0.05560629 0.3717847
vt 0.05561119 0.3717762
vt 0.05561119 0.3717762
vt 0.05560629 0.3717847
vt 0.05555778 0.3716891
vt 0.05554191 0.3717166
vt 0.05555676 0.3717166
vt 0.05556521 0.371702
vt 0.05554191 0.3717166
vt 0.05555778 0.3717442
vt 0.05556521 0.3717313
vt 0.05555676 0.3717166
vt 0.05555778 0.3717442
vt 0.05556521 0.3717313
vt 0.05556521 0.3717313
vt 0.05555778 0.3717442
vt 0.2335469 0.5083791
vt 0.233535 0.5083793
vt 0.233537 0.5083934
vt 0.2335455 0.5083933
vt 0.233535 0.5083793
vt 0.2335235 0.5083823
vt 0.2335289 0.5083954
vt 0.233537 0.5083934
vt 0.2335235 0.5083823
vt 0.233513 0.5083883
vt 0.233522 0.5083994
vt 0.2335289 0.5083954
vt 0.2335693 0.5083874
vt 0.2335586 0.5083817
vt 0.2335536 0.508395
vt 0.2335606 0.5083988
vt 0.2335586 0.5083817
vt 0.2335469 0.5083791
vt 0.2335455 0.5083933
vt 0.2335536 0.508395
vt 0.2370208 0.5067447
vt 0.2370153 0.5067617
vt 0.2370352 0.5067552
vt 0.237003 0.5067447
vt 0.2370153 0.5067278
vt 0.2370352 0.5067343
vn 0 -0.9232125 -0.3842898
vn 0 -0.9232125 -0.3842897
vn 0 -0.9232125 -0.3842898
vn 0 -0.4506623 -0.8926945
vn 0 -0.4506623 -0.8926945
vn 0 -0.4506623 -0.8926945
vn 0 -0.4506623 -0.8926945
vn 0.7730979 -0.4506595 -0.446347
vn 0.7730979 -0.4506595 -0.446347
vn 0.7730979 -0.4506596 -0.446347
vn 0.7730979 -0.4506595 -0.446347
vn 0.7730979 -0.4506596 0.446347
vn 0.7730979 -0.4506595 0.446347
vn 0.7730979 -0.4506595 0.446347
vn 0.7730979 -0.4506595 0.446347
vn 0 0.2096561 -0.9777752
vn 0 0.2096561 -0.9777752
vn 0 0.2096561 -0.9777752
vn 0 0.2096561 -0.9777752
vn 0.846779 0.209652 -0.4888878
vn 0.846779 0.209652 -0.4888878
vn 0.846779 0.209652 -0.4888878
vn 0.846779 0.209652 -0.4888878
vn 0.846779 0.209652 0.4888878
vn 0.846779 0.209652 0.4888878
vn 0.846779 0.209652 0.4888878
vn 0.846779 0.209652 0.4888878
vn 0 0.5875891 -0.8091595
vn 0 0.5875891 -0.8091595
vn 0 0.5875891 -0.8091595
vn 0 0.5875891 -0.8091595
vn 0.3328036 -0.9232131 -0.1921439
vn 0.3328036 -0.9232131 -0.1921439
vn 0.3328037 -0.9232131 -0.1921439
vn 0.3328037 -0.9232131 0.1921439
vn 0.3328036 -0.9232131 0.1921439
vn 0.3328036 -0.9232131 0.1921439
vn 0.700751 0.5875911 -0.4045797
vn 0.7007511 0.5875911 -0.4045797
vn 0.7007511 0.5875911 -0.4045796
vn 0.7007511 0.5875911 -0.4045797
vn 0.7007511 0.5875911 0.4045796
vn 0.7007511 0.5875911 0.4045797
vn 0.700751 0.5875911 0.4045797
vn 0.7007511 0.5875911 0.4045797
vn 0 0.06752589 -0.9977175
vn 0 0.06752589 -0.9977175
vn 0 0.06752589 -0.9977175
vn 0 0.06752589 -0.9977175
vn 0.8640486 0.06752316 -0.4988593
vn 0.8640486 0.06752317 -0.4988593
vn 0.8640486 0.06752316 -0.4988593
vn 0.8640486 0.06752316 -0.4988593
vn 0.8640486 0.06752315 0.4988594
vn 0.8640486 0.06752316 0.4988593
vn 0.8640486 0.06752316 0.4988593
vn 0.8640486 0.06752316 0.4988593
vn 0 -1 0
vn 0 -1 0
vn 0 -1 0
vn 0 -1 0
vn 0 -1 0
vn 0 -1 0
vn 0 -1 0
vn 0 -1 0
vn 0 0 -1
vn 0 0 -1
vn 0 0 -1
vn 0 0 -1
vn 0.8660256 0 -0.4999997
vn 0.8660256 0 -0.4999997
vn 0.8660256 0 -0.4999997
vn 0.8660256 0 -0.4999997
vn 0.8660256 0 0.4999997
vn 0.8660256 0 0.4999997
vn 0.8660256 0 0.4999997
vn 0.8660256 0 0.4999997
vn 0 1 0
vn 0 1 0
vn 0 1 0
vn 0 1 -2.884608E-07
vn 0 1 1.442304E-07
vn 0 1 0
vn 0 1 -1.442304E-07
vn 0 1 -1.442304E-07
vn 0 1 -1.442304E-07
vn 0 1 2.884608E-07
vn -0.3328036 -0.9232131 -0.1921437
vn -0.3328036 -0.9232131 -0.1921437
vn -0.3328036 -0.9232131 -0.1921437
vn -0.3328036 -0.9232131 0.1921439
vn -0.3328037 -0.9232131 0.1921439
vn -0.3328036 -0.9232131 0.1921439
vn 0 -0.9232125 0.3842897
vn 0 -0.9232125 0.3842898
vn 0 -0.9232125 0.3842898
vn -0.7730979 -0.4506596 -0.4463471
vn -0.7730979 -0.4506595 -0.4463471
vn -0.7730979 -0.4506595 -0.4463471
vn -0.7730979 -0.4506595 -0.4463471
vn -0.7730979 -0.4506596 0.446347
vn -0.7730979 -0.4506596 0.446347
vn -0.7730979 -0.4506596 0.446347
vn -0.7730979 -0.4506595 0.446347
vn 0 -0.4506624 0.8926945
vn 0 -0.4506623 0.8926945
vn 0 -0.4506623 0.8926945
vn 0 -0.4506624 0.8926945
vn -0.846779 0.209652 -0.4888878
vn -0.846779 0.209652 -0.4888878
vn -0.846779 0.209652 -0.4888878
vn -0.846779 0.209652 -0.4888878
vn -0.846779 0.209652 0.4888878
vn -0.846779 0.209652 0.4888878
vn -0.846779 0.209652 0.4888878
vn -0.846779 0.209652 0.4888878
vn 0 0.2096561 0.9777752
vn 0 0.2096561 0.9777752
vn 0 0.2096561 0.9777752
vn 0 0.2096561 0.9777752
vn -0.7007511 0.5875911 -0.4045797
vn -0.700751 0.5875911 -0.4045797
vn -0.7007511 0.5875911 -0.4045797
vn -0.7007511 0.5875911 -0.4045796
vn -0.7007511 0.5875911 0.4045796
vn -0.7007511 0.5875911 0.4045797
vn -0.700751 0.5875911 0.4045797
vn -0.7007511 0.5875911 0.4045797
vn 0 0.5875891 0.8091595
vn 0 0.5875891 0.8091595
vn 0 0.5875891 0.8091595
vn 0 0.5875891 0.8091595
vn -0.8640486 0.06752315 -0.4988594
vn -0.8640486 0.06752316 -0.4988593
vn -0.8640486 0.06752316 -0.4988593
vn -0.8640486 0.06752316 -0.4988593
vn -0.8640486 0.06752316 0.4988593
vn -0.8640486 0.06752317 0.4988593
vn -0.8640486 0.06752316 0.4988593
vn -0.8640486 0.06752316 0.4988593
vn 0 0.06752589 0.9977175
vn 0 0.06752589 0.9977175
vn 0 0.06752589 0.9977175
vn 0 0.06752589 0.9977175
vn 0 -1 0
vn 0 -1 0
vn 0 -1 0
vn 0 -1 0
vn 0 -1 0
vn 0 -1 0
vn 0 -1 -1.113901E-07
vn 0 -1 -1.113901E-07
vn 0 -1 -1.113901E-07
vn 0 -1 -1.113901E-07
vn -0.8660256 0 -0.4999997
vn -0.8660256 0 -0.4999997
vn -0.8660256 0 -0.4999997
vn -0.8660256 0 -0.4999997
vn -0.8660256 0 0.4999997
vn -0.8660256 0 0.4999997
vn -0.8660256 0 0.4999997
vn -0.8660256 0 0.4999997
vn 0 0 1
vn 0 0 1
vn 0 0 1
vn 0 0 1
vn 0.302518 -0.2039868 -0.9310597
vn 0.302518 -0.2039868 -0.9310597
vn 0.302518 -0.2039868 -0.9310597
vn 0.3025181 -0.2039868 -0.9310597
vn -0.7920052 -0.2039844 -0.5754286
vn -0.7920052 -0.2039845 -0.5754286
vn -0.7920052 -0.2039845 -0.5754287
vn -0.7920052 -0.2039845 -0.5754286
vn -0.7920052 -0.2039845 0.5754286
vn -0.7920052 -0.2039844 0.5754286
vn -0.7920052 -0.2039845 0.5754286
vn -0.7920052 -0.2039845 0.5754287
vn 0.3025192 -0.2039876 0.9310592
vn 0.3025192 -0.2039876 0.9310591
vn 0.3025192 -0.2039876 0.9310591
vn 0.3025191 -0.2039876 0.9310592
vn 0.9789737 -0.2039864 0
vn 0.9789737 -0.2039864 0
vn 0.9789737 -0.2039864 0
vn 0.9789737 -0.2039864 0
vn 0 1 1.697965E-07
vn 0 1 1.697964E-07
vn 0 1 1.697964E-07
vn 0 1 0
vn 0 1 1.697961E-07
vn 0 1 0
g meger3d_Char_sundries_C2_84_0
f 3/3/3 2/2/2 1/1/1
f 6/6/6 5/5/5 4/4/4
f 7/7/7 6/6/6 4/4/4
f 10/10/10 9/9/9 8/8/8
f 11/11/11 10/10/10 8/8/8
f 14/14/14 13/13/13 12/12/12
f 15/15/15 14/14/14 12/12/12
f 18/18/18 17/17/17 16/16/16
f 19/19/19 18/18/18 16/16/16
f 22/22/22 21/21/21 20/20/20
f 23/23/23 22/22/22 20/20/20
f 26/26/26 25/25/25 24/24/24
f 27/27/27 26/26/26 24/24/24
f 30/30/30 29/29/29 28/28/28
f 31/31/31 30/30/30 28/28/28
f 34/34/34 33/33/33 32/32/32
f 37/37/37 36/36/36 35/35/35
f 40/40/40 39/39/39 38/38/38
f 41/41/41 40/40/40 38/38/38
f 44/44/44 43/43/43 42/42/42
f 45/45/45 44/44/44 42/42/42
f 48/48/48 47/47/47 46/46/46
f 49/49/49 48/48/48 46/46/46
f 52/52/52 51/51/51 50/50/50
f 53/53/53 52/52/52 50/50/50
f 56/56/56 55/55/55 54/54/54
f 57/57/57 56/56/56 54/54/54
f 60/60/60 59/59/59 58/58/58
f 61/61/61 60/60/60 58/58/58
f 61/61/61 58/58/58 62/62/62
f 63/63/63 61/61/61 62/62/62
f 63/63/63 62/62/62 64/64/64
f 65/65/65 63/63/63 64/64/64
f 68/68/68 67/67/67 66/66/66
f 69/69/69 68/68/68 66/66/66
f 72/72/72 71/71/71 70/70/70
f 73/73/73 72/72/72 70/70/70
f 76/76/76 75/75/75 74/74/74
f 77/77/77 76/76/76 74/74/74
f 80/80/80 79/79/79 78/78/78
f 79/79/79 81/81/81 78/78/78
f 81/81/81 82/82/82 78/78/78
f 82/82/82 83/83/83 78/78/78
f 86/86/86 85/85/85 84/84/84
f 87/87/87 86/86/86 84/84/84
f 90/90/90 89/89/89 88/88/88
f 93/93/93 92/92/92 91/91/91
f 96/96/96 95/95/95 94/94/94
f 99/99/99 98/98/98 97/97/97
f 100/100/100 99/99/99 97/97/97
f 103/103/103 102/102/102 101/101/101
f 104/104/104 103/103/103 101/101/101
f 107/107/107 106/106/106 105/105/105
f 108/108/108 107/107/107 105/105/105
f 111/111/111 110/110/110 109/109/109
f 112/112/112 111/111/111 109/109/109
f 115/115/115 114/114/114 113/113/113
f 116/116/116 115/115/115 113/113/113
f 119/119/119 118/118/118 117/117/117
f 120/120/120 119/119/119 117/117/117
f 123/123/123 122/122/122 121/121/121
f 124/124/124 123/123/123 121/121/121
f 127/127/127 126/126/126 125/125/125
f 128/128/128 127/127/127 125/125/125
f 131/131/131 130/130/130 129/129/129
f 132/132/132 131/131/131 129/129/129
f 135/135/135 134/134/134 133/133/133
f 136/136/136 135/135/135 133/133/133
f 139/139/139 138/138/138 137/137/137
f 140/140/140 139/139/139 137/137/137
f 143/143/143 142/142/142 141/141/141
f 144/144/144 143/143/143 141/141/141
f 147/147/147 146/146/146 145/145/145
f 148/148/148 147/147/147 145/145/145
f 147/147/147 149/149/149 146/146/146
f 149/149/149 150/150/150 146/146/146
f 153/153/153 152/152/152 151/151/151
f 154/154/154 153/153/153 151/151/151
f 157/157/157 156/156/156 155/155/155
f 158/158/158 157/157/157 155/155/155
f 161/161/161 160/160/160 159/159/159
f 162/162/162 161/161/161 159/159/159
f 165/165/165 164/164/164 163/163/163
f 166/166/166 165/165/165 163/163/163
f 169/169/169 168/168/168 167/167/167
f 170/170/170 169/169/169 167/167/167
f 173/173/173 172/172/172 171/171/171
f 174/174/174 173/173/173 171/171/171
f 177/177/177 176/176/176 175/175/175
f 178/178/178 177/177/177 175/175/175
f 181/181/181 180/180/180 179/179/179
f 182/182/182 181/181/181 179/179/179
f 185/185/185 184/184/184 183/183/183
f 186/186/186 185/185/185 183/183/183
f 189/189/189 188/188/188 187/187/187
f 188/188/188 190/190/190 187/187/187
f 190/190/190 191/191/191 187/187/187
f 191/191/191 192/192/192 187/187/187
f 192/192/192 189/189/189 187/187/187
