g meger3d_Char_sundries_C1_4
v 0.2936264 -0.3430249 -0.2133321
v 0.321976 0.2637329 -0.2339292
v 0.2339291 0.2637329 -0.3219759
v 0.2133321 -0.3430249 -0.2936262
v 0.1229837 0.2637329 -0.3785053
v 0.1121553 -0.3430249 -0.3451785
v 0 0.2637329 -0.397984
v 0 -0.3430249 -0.362942
v -0.1229839 0.2637329 -0.3785053
v -0.1121552 -0.3430249 -0.3451785
v -0.2339294 0.2637329 -0.3219759
v -0.2133321 -0.3430249 -0.2936262
v -0.321976 0.2637329 -0.2339291
v -0.2936264 -0.3430249 -0.213332
v -0.321976 0.2637329 -0.2339291
v -0.01296204 0.2637329 0.3914697
v -0.01182098 -0.3430249 0.3570013
v -0.2936264 -0.3430249 -0.213332
v -0.01182098 -0.3430249 0.3570013
v -0.01296204 0.2637329 0.3914697
v -3.051758E-07 0.2637329 0.397984
v 0 -0.3430249 0.362942
v 0.01296173 0.2637329 0.3914697
v 0.01182068 -0.3430249 0.3570013
v 0.01296173 0.2637329 0.3914697
v 0.321976 0.2637329 -0.2339292
v 0.2936264 -0.3430249 -0.2133321
v 0.01182068 -0.3430249 0.3570013
v 0.2133321 -0.3430249 -0.2936262
v 0 -0.3430249 3.814697E-08
v 0.2936264 -0.3430249 -0.2133321
v 0.1121553 -0.3430249 -0.3451785
v 0 -0.3430249 -0.362942
v -0.1121552 -0.3430249 -0.3451785
v -0.2133321 -0.3430249 -0.2936262
v -0.2936264 -0.3430249 -0.213332
v -0.01182098 -0.3430249 0.3570013
v 0 -0.3430249 0.362942
v 0.01182068 -0.3430249 0.3570013
v 0.321976 0.2637329 -0.2339292
v 0 0.2637329 3.814697E-08
v 0.2339291 0.2637329 -0.3219759
v 0.1229837 0.2637329 -0.3785053
v 0 0.2637329 -0.397984
v -0.1229839 0.2637329 -0.3785053
v -0.2339294 0.2637329 -0.3219759
v -0.321976 0.2637329 -0.2339291
v -0.01296204 0.2637329 0.3914697
v -3.051758E-07 0.2637329 0.397984
v 0.01296173 0.2637329 0.3914697
vt 0.193214 0.513426
vt 0.189459 0.619027
vt 0.20112 0.619027
vt 0.203848 0.513426
vt 0.215812 0.619027
vt 0.217246 0.513426
vt 0.232099 0.619027
vt 0.232099 0.513426
vt 0.248386 0.619027
vt 0.246952 0.513426
vt 0.26308 0.619027
vt 0.260352 0.513426
vt 0.27474 0.619027
vt 0.270985 0.513426
vt 0.014526 0.619027
vt 0.097644 0.619027
vt 0.093064 0.513427
vt 0.017263 0.513427
vt 0.0991 0.513427
vt 0.098949 0.619027
vt 0.100671 0.619027
vt 0.100671 0.513427
vt 0.102394 0.619027
vt 0.102242 0.513427
vt 0.10366 0.619027
vt 0.186779 0.619027
vt 0.184042 0.513427
vt 0.10824 0.513427
vt 0.717 0.511264
vt 0.687965 0.551225
vt 0.727927 0.52219
vt 0.70323 0.504247
vt 0.687965 0.501829
vt 0.672702 0.504247
vt 0.658932 0.511264
vt 0.648005 0.52219
vt 0.686357 0.599811
vt 0.687965 0.600619
vt 0.689575 0.599811
vt 0.675289 0.595924
vt 0.63147 0.564086
vt 0.663308 0.607906
vt 0.648208 0.615599
vt 0.63147 0.618251
vt 0.614732 0.615599
vt 0.599633 0.607906
vt 0.587651 0.594099
vt 0.629706 0.510809
vt 0.63147 0.509922
vt 0.633234 0.510809
vn 0.9535284 -0.03439033 0.2993341
vn 0.9558522 -0.03475517 0.291785
vn 0.586807 -0.05765671 -0.8076714
vn 0.5868071 -0.05765671 -0.8076714
vn 0.3085029 -0.05765673 -0.9494744
vn 0.3085029 -0.05765674 -0.9494744
vn 0 -0.05765676 -0.9983365
vn 0 -0.05765677 -0.9983365
vn -0.3085028 -0.05765683 -0.9494744
vn -0.3085028 -0.05765682 -0.9494745
vn -0.5868073 -0.05765686 -0.8076712
vn -0.5868074 -0.05765687 -0.8076713
vn -0.9558523 -0.03475519 0.2917848
vn -0.9535285 -0.03439035 0.2993338
vn -0.9558523 -0.03475519 0.2917848
vn -0.890403 -0.02748474 0.4543423
vn -0.8909218 -0.02742808 0.4533278
vn -0.9535285 -0.03439035 0.2993338
vn -0.8909218 -0.02742808 0.4533278
vn -0.890403 -0.02748474 0.4543423
vn 0 -0.05765666 0.9983365
vn 2.220651E-07 -0.05765666 0.9983365
vn 0.8904029 -0.02748472 0.4543427
vn 0.8909217 -0.02742806 0.4533281
vn 0.8904029 -0.02748472 0.4543427
vn 0.9558522 -0.03475517 0.291785
vn 0.9535284 -0.03439033 0.2993341
vn 0.8909217 -0.02742806 0.4533281
vn 0 -1 0
vn 0 -1 0
vn 0 -1 0
vn 0 -1 0
vn 0 -1 0
vn 0 -1 0
vn 0 -1 0
vn 0 -1 0
vn 0 -1 0
vn 0 -1 0
vn 0 -1 0
vn 0 1 0
vn 0 1 0
vn 0 1 0
vn 0 1 0
vn 0 1 0
vn 0 1 0
vn 0 1 0
vn 0 1 0
vn 0 1 0
vn 0 1 0
vn 0 1 0
g meger3d_Char_sundries_C1_4_0
f 3/3/3 2/2/2 1/1/1
f 4/4/4 3/3/3 1/1/1
f 5/5/5 3/3/3 4/4/4
f 6/6/6 5/5/5 4/4/4
f 7/7/7 5/5/5 6/6/6
f 8/8/8 7/7/7 6/6/6
f 9/9/9 7/7/7 8/8/8
f 10/10/10 9/9/9 8/8/8
f 11/11/11 9/9/9 10/10/10
f 12/12/12 11/11/11 10/10/10
f 13/13/13 11/11/11 12/12/12
f 14/14/14 13/13/13 12/12/12
f 17/17/17 16/16/16 15/15/15
f 18/18/18 17/17/17 15/15/15
f 21/21/21 20/20/20 19/19/19
f 22/22/22 21/21/21 19/19/19
f 23/23/23 21/21/21 22/22/22
f 24/24/24 23/23/23 22/22/22
f 27/27/27 26/26/26 25/25/25
f 28/28/28 27/27/27 25/25/25
f 31/31/31 30/30/30 29/29/29
f 29/29/29 30/30/30 32/32/32
f 32/32/32 30/30/30 33/33/33
f 33/33/33 30/30/30 34/34/34
f 34/34/34 30/30/30 35/35/35
f 35/35/35 30/30/30 36/36/36
f 36/36/36 30/30/30 37/37/37
f 37/37/37 30/30/30 38/38/38
f 38/38/38 30/30/30 39/39/39
f 39/39/39 30/30/30 31/31/31
f 42/42/42 41/41/41 40/40/40
f 43/43/43 41/41/41 42/42/42
f 44/44/44 41/41/41 43/43/43
f 45/45/45 41/41/41 44/44/44
f 46/46/46 41/41/41 45/45/45
f 47/47/47 41/41/41 46/46/46
f 47/47/47 48/48/48 41/41/41
f 49/49/49 41/41/41 48/48/48
f 50/50/50 41/41/41 49/49/49
f 50/50/50 40/40/40 41/41/41
