g meger3d_Char_sundries_C5_2
v 7.629394E-07 -0.4386465 -0.1591544
v 7.629394E-07 -0.2414832 -0.1591544
v -0.07957653 -0.2414832 -0.137831
v -0.07957676 -0.4386465 -0.1378313
v -0.1378313 -0.2414832 -0.07957626
v -0.1378313 -0.4386465 -0.07957626
v -0.1591532 -0.2414832 -7.629394E-07
v -0.1591532 -0.4386465 -7.629394E-07
v -0.1378311 -0.2414832 0.07957687
v -0.1378311 -0.4386465 0.07957687
v -0.07957637 -0.2414832 0.1378306
v -0.0795771 -0.4386465 0.1378309
v 1.525879E-07 -0.2414832 0.1591526
v 1.525879E-07 -0.4386465 0.1591526
v 0.07957607 -0.2414832 0.1378311
v 0.07957607 -0.4386465 0.1378311
v 0.1378312 -0.2414832 0.07957672
v 0.1378312 -0.4386465 0.07957672
v 0.1591544 -0.2414832 -7.629394E-07
v 0.1591544 -0.4386465 -7.629394E-07
v 0.1378311 -0.2414832 -0.07957687
v 0.1378311 -0.4386465 -0.07957687
v 0.07957689 -0.2414832 -0.1378311
v 0.07957689 -0.4386465 -0.1378311
v 7.629394E-07 -0.2414832 -0.1591544
v 7.629394E-07 -0.4386465 -0.1591544
v 7.629394E-07 -0.2414832 -0.1591544
v 2.098083E-07 -0.2415622 -8.392334E-07
v -0.07957653 -0.2414832 -0.137831
v -0.1378313 -0.2414832 -0.07957626
v -0.1591532 -0.2414832 -7.629394E-07
v -0.1378311 -0.2414832 0.07957687
v -0.07957637 -0.2414832 0.1378306
v 1.525879E-07 -0.2414832 0.1591526
v 0.07957607 -0.2414832 0.1378311
v 0.1378312 -0.2414832 0.07957672
v 0.1591544 -0.2414832 -7.629394E-07
v 0.1378311 -0.2414832 -0.07957687
v 0.07957689 -0.2414832 -0.1378311
v -0.07957676 -0.4386465 -0.1378313
v 2.098083E-07 -0.4376883 -8.392334E-07
v 7.629394E-07 -0.4386465 -0.1591544
v -0.1378313 -0.4386465 -0.07957626
v -0.1591532 -0.4386465 -7.629394E-07
v -0.1378311 -0.4386465 0.07957687
v -0.0795771 -0.4386465 0.1378309
v 1.525879E-07 -0.4386465 0.1591526
v 0.07957607 -0.4386465 0.1378311
v 0.1378312 -0.4386465 0.07957672
v 0.1591544 -0.4386465 -7.629394E-07
v 0.1378311 -0.4386465 -0.07957687
v 0.07957689 -0.4386465 -0.1378311
v 2.479553E-07 -0.2526563 -0.1356446
v 2.479553E-07 -0.2052978 -0.1356446
v -0.06782228 -0.2052978 -0.1174715
v -0.06782228 -0.2526563 -0.1174715
v -0.1174703 -0.2052978 -0.06782219
v -0.1174703 -0.2526563 -0.06782219
v -0.1356439 -0.2052978 -5.340576E-07
v -0.1356439 -0.2526563 -5.340576E-07
v -0.1174709 -0.2052978 0.06782051
v -0.1174709 -0.2526563 0.06782051
v -0.06782213 -0.2052978 0.1174709
v -0.06782213 -0.2526563 0.1174709
v 9.536743E-08 -0.2052978 0.1356435
v 9.536743E-08 -0.2526563 0.1356435
v 0.06782219 -0.2052978 0.1174703
v 0.06782219 -0.2526563 0.1174703
v 0.1174714 -0.2052978 0.06782112
v 0.1174714 -0.2526575 0.06782112
v 0.1356442 -0.2052978 -6.866455E-07
v 0.1356442 -0.2526563 -6.866455E-07
v 0.1174714 -0.2052978 -0.06782264
v 0.1174714 -0.2526575 -0.06782264
v 0.06782243 -0.2052978 -0.1174716
v 0.06782243 -0.2526563 -0.1174716
v 2.479553E-07 -0.2052978 -0.1356446
v 2.479553E-07 -0.2526563 -0.1356446
v 2.479553E-07 -0.2052978 -0.1356446
v 2.098083E-07 -0.2052978 -8.392334E-07
v -0.06782228 -0.2052978 -0.1174715
v -0.1174703 -0.2052978 -0.06782219
v -0.1356439 -0.2052978 -5.340576E-07
v -0.1174709 -0.2052978 0.06782051
v -0.06782213 -0.2052978 0.1174709
v 9.536743E-08 -0.2052978 0.1356435
v 0.06782219 -0.2052978 0.1174703
v 0.1174714 -0.2052978 0.06782112
v 0.1356442 -0.2052978 -6.866455E-07
v 0.1174714 -0.2052978 -0.06782264
v 0.06782243 -0.2052978 -0.1174716
v 4.577637E-07 -0.2052978 -0.1258643
v 4.577637E-07 0.1927002 -0.1258643
v -0.06293117 0.1927002 -0.109001
v -0.06293117 -0.2052978 -0.109001
v -0.1090002 0.1927002 -0.06293198
v -0.1090002 -0.2052978 -0.06293198
v -0.1258624 0.1927002 -2.288818E-07
v -0.1258624 -0.2052978 -2.288818E-07
v -0.1090003 0.1927002 0.06293014
v -0.1090003 -0.2052978 0.06293014
v -0.06293099 0.1927002 0.1089995
v -0.06293099 -0.2052978 0.1089995
v 2.479553E-07 0.1927002 0.1258624
v 2.479553E-07 -0.2052978 0.1258624
v 0.06293154 0.1927002 0.1089998
v 0.06293154 -0.2052978 0.1089998
v 0.1090006 0.1927002 0.06293076
v 0.1090006 -0.2052978 0.06293076
v 0.1258629 0.1927002 -2.288818E-07
v 0.1258629 -0.2052978 -2.288818E-07
v 0.1090008 0.1927002 -0.06293228
v 0.1090008 -0.2052978 -0.06293228
v 0.0629319 0.1927002 -0.1090012
v 0.0629319 -0.2052978 -0.1090012
v 4.577637E-07 0.1927002 -0.1258643
v 4.577637E-07 -0.2052978 -0.1258643
v 4.577637E-07 0.1927002 -0.1258643
v 2.098083E-07 0.203869 -8.392334E-07
v -0.06293117 0.1927002 -0.109001
v -0.1090002 0.1927002 -0.06293198
v -0.1258624 0.1927002 -2.288818E-07
v -0.1090003 0.1927002 0.06293014
v -0.06293099 0.1927002 0.1089995
v 2.479553E-07 0.1927002 0.1258624
v 0.06293154 0.1927002 0.1089998
v 0.1090006 0.1927002 0.06293076
v 0.1258629 0.1927002 -2.288818E-07
v 0.1090008 0.1927002 -0.06293228
v 0.0629319 0.1927002 -0.1090012
v -9.536743E-08 0.1877637 -0.101369
v 5.722046E-07 0.5080667 -0.1010844
v -0.050396 0.4967203 -0.08755989
v -0.05054571 0.1877637 -0.08778717
v -0.08743126 0.4657126 -0.05058952
v -0.08754697 0.1877637 -0.05068481
v -0.1010906 0.4232754 -2.288818E-07
v -0.1010906 0.1877637 -2.288818E-07
v -0.08754732 0.3807477 0.05070053
v -0.08754717 0.1877637 0.05068398
v -0.05054586 0.3496155 0.0878157
v -0.05054459 0.1877637 0.08778725
v -2.479553E-07 0.3382202 0.1014011
v 0 0.1877637 0.101368
v 0.05054565 0.3496155 0.08781517
v 0.05054565 0.1877637 0.08778725
v 0.08754732 0.3807477 0.05070084
v 0.08754774 0.1877637 0.05068398
v 0.1010919 0.4232754 -1.144409E-06
v 0.1010911 0.1877637 -3.051758E-07
v 0.08743252 0.4657114 -0.05058945
v 0.08754753 0.1877637 -0.05068512
v 0.05039825 0.4967203 -0.08755958
v 0.05054529 0.1877637 -0.08778763
v 5.722046E-07 0.5080667 -0.1010844
v -9.536743E-08 0.1877637 -0.101369
v 1.182556E-06 0.5080472 -0.08977912
v 2.479553E-07 0.4305691 0.002572556
v -0.04428753 0.4972925 -0.07695747
v -0.07865828 0.4686975 -0.04287826
v -0.09088146 0.4304831 0.002669144
v -0.07753074 0.3915979 0.04901474
v -0.04405148 0.3630807 0.08296348
v -3.051758E-07 0.3526123 0.09544395
v 0.04405148 0.3630807 0.08296364
v 0.07753132 0.3915979 0.04901466
v 0.09088213 0.4304831 0.002669373
v 0.07865994 0.4686975 -0.04287804
v 0.04428871 0.4972925 -0.07695778
v -0.050396 0.4967203 -0.08755989
v 5.722046E-07 0.5080667 -0.1010844
v -0.08743126 0.4657126 -0.05058952
v -0.1010906 0.4232754 -2.288818E-07
v -0.08754732 0.3807477 0.05070053
v -0.05054586 0.3496155 0.0878157
v -2.479553E-07 0.3382202 0.1014011
v 0.05054565 0.3496155 0.08781517
v 0.08754732 0.3807477 0.05070084
v 0.1010919 0.4232754 -1.144409E-06
v 0.08743252 0.4657114 -0.05058945
v 0.05039825 0.4967203 -0.08755958
vt 0.210081 0.992408
vt 0.210081 0.95232
vt 0.193331 0.95232
vt 0.193332 0.992408
vt 0.176579 0.952322
vt 0.17658 0.992408
vt 0.159829 0.952322
vt 0.159829 0.99241
vt 0.143077 0.952323
vt 0.143077 0.99241
vt 0.126324 0.952323
vt 0.126326 0.992411
vt 0.109572 0.952324
vt 0.109575 0.992412
vt 0.092821 0.952327
vt 0.092822 0.992415
vt 0.076068 0.952328
vt 0.07607 0.992416
vt 0.059317 0.952328
vt 0.059317 0.992416
vt 0.042564 0.952328
vt 0.042564 0.992416
vt 0.025814 0.952328
vt 0.025814 0.992416
vt 0.009062 0.952328
vt 0.009062 0.992416
vt 0.173141 0.884585
vt 0.164542 0.915782
vt 0.187588 0.893064
vt 0.195859 0.90763
vt 0.195739 0.924381
vt 0.187261 0.938827
vt 0.172693 0.947099
vt 0.155943 0.946979
vt 0.141497 0.938501
vt 0.133224 0.923933
vt 0.133344 0.907184
vt 0.141824 0.892737
vt 0.156389 0.884465
vt 0.202494 0.846732
vt 0.191504 0.865665
vt 0.191556 0.843774
vt 0.210489 0.854764
vt 0.213396 0.865716
vt 0.210437 0.876655
vt 0.202407 0.884649
vt 0.191453 0.887557
vt 0.180515 0.884598
vt 0.17252 0.876568
vt 0.169614 0.865615
vt 0.172572 0.854676
vt 0.180603 0.846682
vt 0.545256 0.913119
vt 0.545261 0.922749
vt 0.559538 0.922739
vt 0.559532 0.91311
vt 0.573813 0.92273
vt 0.57381 0.913102
vt 0.588088 0.92273
vt 0.588088 0.913101
vt 0.602365 0.922729
vt 0.602365 0.9131
vt 0.616644 0.922726
vt 0.616639 0.913097
vt 0.630923 0.92271
vt 0.630913 0.91308
vt 0.645199 0.922693
vt 0.645192 0.913064
vt 0.659473 0.92269
vt 0.659473 0.913061
vt 0.673749 0.922689
vt 0.673749 0.91306
vt 0.688026 0.922688
vt 0.688026 0.913058
vt 0.702302 0.922686
vt 0.702302 0.913057
vt 0.716579 0.922685
vt 0.716579 0.913056
vt 0.07249 0.91097
vt 0.067019 0.930819
vt 0.081683 0.916365
vt 0.086944 0.925634
vt 0.086869 0.93629
vt 0.081473 0.945482
vt 0.072206 0.950743
vt 0.061549 0.950667
vt 0.052358 0.945272
vt 0.047095 0.936006
vt 0.047171 0.925348
vt 0.052567 0.916158
vt 0.061834 0.910894
vt 0.983888 0.974636
vt 0.983889 0.893715
vt 0.970642 0.893715
vt 0.970642 0.974636
vt 0.957395 0.893715
vt 0.957395 0.974635
vt 0.944148 0.893715
vt 0.944148 0.974635
vt 0.930899 0.893714
vt 0.930899 0.974633
vt 0.91765 0.893712
vt 0.917649 0.974632
vt 0.904402 0.893711
vt 0.904399 0.974632
vt 0.891152 0.89371
vt 0.891151 0.974631
vt 0.877903 0.89371
vt 0.877902 0.974629
vt 0.864655 0.893709
vt 0.864655 0.974628
vt 0.851406 0.893709
vt 0.851406 0.974627
vt 0.838159 0.893707
vt 0.838159 0.974627
vt 0.824913 0.893707
vt 0.824913 0.974627
vt 0.339278 0.959317
vt 0.361546 0.972037
vt 0.348596 0.949903
vt 0.3614 0.946394
vt 0.374267 0.94977
vt 0.383711 0.959138
vt 0.387192 0.971948
vt 0.383816 0.984758
vt 0.374498 0.994174
vt 0.361694 0.997682
vt 0.348827 0.994306
vt 0.339383 0.984938
vt 0.335902 0.972127
vt 0.131078 0.877174
vt 0.130987 0.9423
vt 0.120379 0.93998
vt 0.120435 0.877161
vt 0.10975 0.933668
vt 0.109775 0.877153
vt 0.0991 0.925037
vt 0.099102 0.877152
vt 0.088431 0.91639
vt 0.088435 0.877151
vt 0.077775 0.910058
vt 0.07778 0.877148
vt 0.067135 0.907741
vt 0.067135 0.877148
vt 0.056496 0.910058
vt 0.05649 0.877148
vt 0.045841 0.91639
vt 0.045836 0.877151
vt 0.03517 0.925037
vt 0.035169 0.877152
vt 0.024522 0.933668
vt 0.024496 0.877152
vt 0.013891 0.93998
vt 0.013836 0.877161
vt 0.003285 0.9423
vt 0.003194 0.877174
vt 0.663169 0.892507
vt 0.663505 0.867118
vt 0.6539 0.888877
vt 0.646772 0.879417
vt 0.644351 0.866846
vt 0.64733 0.854116
vt 0.654518 0.84486
vt 0.663842 0.841556
vt 0.673075 0.845106
vt 0.680015 0.854548
vt 0.682658 0.86735
vt 0.679907 0.879854
vt 0.672531 0.889123
vt 0.652312 0.890883
vt 0.663138 0.894851
vt 0.644464 0.880441
vt 0.641734 0.866268
vt 0.644883 0.852176
vt 0.652976 0.841943
vt 0.663884 0.838292
vt 0.674692 0.84223
vt 0.682514 0.852672
vt 0.68529 0.866843
vt 0.682187 0.880939
vt 0.674066 0.89117
vn 1.857415E-07 3.677417E-07 -1
vn 1.760877E-07 0.3188376 -0.9478094
vn -0.4739075 0.3188396 -0.8208246
vn -0.5000035 7.963083E-07 -0.8660235
vn -0.8208261 0.318839 -0.4739052
vn -0.866025 4.28576E-07 -0.5000007
vn -0.9478084 0.3188404 1.159087E-06
vn -1 0 1.222801E-06
vn -0.8208278 0.3188399 0.4739017
vn -0.8660269 9.482249E-07 0.4999973
vn -0.4738984 0.3188416 0.8208291
vn -0.4999948 1.579304E-06 0.8660284
vn -2.30321E-06 0.3188409 0.9478083
vn -2.430129E-06 6.310768E-07 1
vn 0.4739002 0.3188397 0.8208287
vn 0.4999957 0 0.866028
vn 0.8208237 0.3188399 0.4739088
vn 0.8660226 0 0.5000048
vn 0.947809 0.3188388 -9.098445E-07
vn 1 0 -9.596638E-07
vn 0.8208236 0.3188398 -0.4739091
vn 0.8660225 0 -0.5000051
vn 0.4739093 0.3188393 -0.8208236
vn 0.5000053 0 -0.8660224
vn 1.760877E-07 0.3188376 -0.9478094
vn 1.857415E-07 3.677417E-07 -1
vn 1.760877E-07 0.3188376 -0.9478094
vn 0 1 0
vn -0.4739075 0.3188396 -0.8208246
vn -0.8208261 0.318839 -0.4739052
vn -0.9478084 0.3188404 1.159087E-06
vn -0.8208278 0.3188399 0.4739017
vn -0.4738984 0.3188416 0.8208291
vn -2.30321E-06 0.3188409 0.9478083
vn 0.4739002 0.3188397 0.8208287
vn 0.8208237 0.3188399 0.4739088
vn 0.947809 0.3188388 -9.098445E-07
vn 0.8208236 0.3188398 -0.4739091
vn 0.4739093 0.3188393 -0.8208236
vn 0.003010436 -0.9999819 0.005214273
vn 0 -1 1.01083E-07
vn 0 -0.9999819 0.00602089
vn 0.005214194 -0.9999819 0.003010528
vn 0.006020823 -0.9999819 0
vn 0.00521417 -0.9999819 -0.003010267
vn 0.003010365 -0.9999819 -0.005213857
vn 0 -0.9999819 -0.006020863
vn -0.003010376 -0.9999819 -0.00521431
vn -0.005214153 -0.9999819 -0.003009998
vn -0.006020796 -0.9999819 0
vn -0.005214186 -0.9999819 0.00301028
vn -0.00301045 -0.9999819 0.005214443
vn -1.124676E-06 0 -1
vn -7.223369E-07 0.7664849 -0.6422623
vn -0.3211344 0.766484 -0.5562149
vn -0.5000041 0 -0.866023
vn -0.5562144 0.7664865 -0.3211292
vn -0.8660263 0 -0.4999984
vn -0.6422633 0.7664841 -2.865113E-06
vn -1 0 -4.460964E-06
vn -0.5562137 0.7664875 0.3211281
vn -0.8660269 0 0.4999976
vn -0.3211347 0.7664849 0.5562135
vn -0.5000055 0 0.8660222
vn 2.865065E-06 0.7664865 0.6422604
vn 4.460911E-06 0 1
vn 0.3211334 0.7664842 0.5562152
vn 0.5000041 0 0.8660231
vn 0.5562186 0.7664818 0.3211333
vn 0.8660251 0 0.5000007
vn 0.642266 0.7664818 0
vn 1 0 0
vn 0.5562193 0.7664815 -0.3211329
vn 0.8660258 0 -0.4999995
vn 0.3211328 0.7664834 -0.5562165
vn 0.5000025 0 -0.8660239
vn -7.223369E-07 0.7664849 -0.6422623
vn -1.124676E-06 0 -1
vn -7.223369E-07 0.7664849 -0.6422623
vn 0 1 0
vn -0.3211344 0.766484 -0.5562149
vn -0.5562144 0.7664865 -0.3211292
vn -0.6422633 0.7664841 -2.865113E-06
vn -0.5562137 0.7664875 0.3211281
vn -0.3211347 0.7664849 0.5562135
vn 2.865065E-06 0.7664865 0.6422604
vn 0.3211334 0.7664842 0.5562152
vn 0.5562186 0.7664818 0.3211333
vn 0.642266 0.7664818 0
vn 0.5562193 0.7664815 -0.3211329
vn 0.3211328 0.7664834 -0.5562165
vn -1.813145E-06 0 -1
vn -1.789761E-06 0.129253 -0.9916117
vn -0.4958104 0.1292538 -0.8587582
vn -0.5000047 0 -0.8660228
vn -0.8587621 0.1292531 -0.4958037
vn -0.8660267 0 -0.4999978
vn -0.9916117 0.1292534 -4.255782E-07
vn -1 0 -4.654097E-07
vn -0.8587593 0.1292533 0.4958084
vn -0.8660239 0 0.5000026
vn -0.4958104 0.1292536 0.8587582
vn -0.5000047 0 0.8660226
vn -2.397842E-06 0.1292533 0.9916117
vn -2.424001E-06 0 1
vn 0.4958075 0.1292538 0.8587598
vn 0.5000018 0 0.8660244
vn 0.8587602 0.1292535 0.4958069
vn 0.8660247 0 0.5000012
vn 0.9916117 0.1292536 1.662059E-06
vn 1 0 1.667706E-06
vn 0.8587633 0.1292533 -0.4958014
vn 0.866028 0 -0.4999956
vn 0.4958098 0.129254 -0.8587585
vn 0.5000041 0 -0.8660231
vn -1.789761E-06 0.129253 -0.9916117
vn -1.813145E-06 0 -1
vn -1.789761E-06 0.129253 -0.9916117
vn 0 1 0
vn -0.4958104 0.1292538 -0.8587582
vn -0.8587621 0.1292531 -0.4958037
vn -0.9916117 0.1292534 -4.255782E-07
vn -0.8587593 0.1292533 0.4958084
vn -0.4958104 0.1292536 0.8587582
vn -2.397842E-06 0.1292533 0.9916117
vn 0.4958075 0.1292538 0.8587598
vn 0.8587602 0.1292535 0.4958069
vn 0.9916117 0.1292536 1.662059E-06
vn 0.8587633 0.1292533 -0.4958014
vn 0.4958098 0.129254 -0.8587585
vn -9.942238E-07 0.000877493 -0.9999996
vn -2.280889E-07 0.03498766 -0.9993877
vn -0.443708 0.03587409 -0.8954531
vn -0.4926192 0.0008078712 -0.8702446
vn -0.8141446 0.03609266 -0.5795395
vn -0.8570327 0.0005192806 -0.5152619
vn -0.9943851 0.03501389 -0.09986148
vn -0.9996954 0.0001450368 -0.02467829
vn -0.9063792 0.0339224 0.4211011
vn -0.8789387 -4.914326E-05 0.4769347
vn -0.5492617 0.02886385 0.8351517
vn -0.5158499 -0.0001437396 0.856679
vn 2.294148E-06 0.02513432 0.9996841
vn 2.784438E-06 -0.000196835 1
vn 0.5492571 0.02886619 0.8351547
vn 0.5158465 -0.0001399322 0.856681
vn 0.9063768 0.03392244 0.4211062
vn 0.878937 -4.733461E-05 0.4769378
vn 0.9943855 0.0350117 -0.09985887
vn 0.9996955 0.0001431824 -0.02467259
vn 0.8141438 0.0360902 -0.5795407
vn 0.8570308 0.0005163103 -0.515265
vn 0.4437044 0.03587242 -0.8954549
vn 0.4926147 0.0008062689 -0.8702471
vn -2.280889E-07 0.03498766 -0.9993877
vn -9.942238E-07 0.000877493 -0.9999996
vn 2.580738E-06 0.8563668 0.516368
vn -4.445411E-07 0.7660207 0.6428159
vn -0.09214861 0.8351637 0.542227
vn -0.1455356 0.7980443 0.5847604
vn -0.1617673 0.7580401 0.6318279
vn -0.1403933 0.720055 0.6795664
vn -0.08946247 0.6865402 0.721567
vn 3.055353E-07 0.6680938 0.7440771
vn 0.08946257 0.6865379 0.7215692
vn 0.140398 0.7200531 0.6795675
vn 0.1617771 0.7580374 0.6318287
vn 0.1455442 0.798046 0.584756
vn 0.09215114 0.8351651 0.5422244
vn -0.443708 0.03587409 -0.8954531
vn -2.280889E-07 0.03498766 -0.9993877
vn -0.8141446 0.03609266 -0.5795395
vn -0.9943851 0.03501389 -0.09986148
vn -0.9063792 0.0339224 0.4211011
vn -0.5492617 0.02886385 0.8351517
vn 2.294148E-06 0.02513432 0.9996841
vn 0.5492571 0.02886619 0.8351547
vn 0.9063768 0.03392244 0.4211062
vn 0.9943855 0.0350117 -0.09985887
vn 0.8141438 0.0360902 -0.5795407
vn 0.4437044 0.03587242 -0.8954549
g meger3d_Char_sundries_C5_2_0
f 3/3/3 2/2/2 1/1/1
f 4/4/4 3/3/3 1/1/1
f 5/5/5 3/3/3 4/4/4
f 6/6/6 5/5/5 4/4/4
f 7/7/7 5/5/5 6/6/6
f 8/8/8 7/7/7 6/6/6
f 9/9/9 7/7/7 8/8/8
f 10/10/10 9/9/9 8/8/8
f 11/11/11 9/9/9 10/10/10
f 12/12/12 11/11/11 10/10/10
f 13/13/13 11/11/11 12/12/12
f 14/14/14 13/13/13 12/12/12
f 15/15/15 13/13/13 14/14/14
f 16/16/16 15/15/15 14/14/14
f 17/17/17 15/15/15 16/16/16
f 18/18/18 17/17/17 16/16/16
f 19/19/19 17/17/17 18/18/18
f 20/20/20 19/19/19 18/18/18
f 21/21/21 19/19/19 20/20/20
f 22/22/22 21/21/21 20/20/20
f 23/23/23 21/21/21 22/22/22
f 24/24/24 23/23/23 22/22/22
f 25/25/25 23/23/23 24/24/24
f 26/26/26 25/25/25 24/24/24
f 29/29/29 28/28/28 27/27/27
f 30/30/30 28/28/28 29/29/29
f 31/31/31 28/28/28 30/30/30
f 32/32/32 28/28/28 31/31/31
f 33/33/33 28/28/28 32/32/32
f 34/34/34 28/28/28 33/33/33
f 35/35/35 28/28/28 34/34/34
f 36/36/36 28/28/28 35/35/35
f 37/37/37 28/28/28 36/36/36
f 38/38/38 28/28/28 37/37/37
f 39/39/39 28/28/28 38/38/38
f 27/27/27 28/28/28 39/39/39
f 42/42/42 41/41/41 40/40/40
f 40/40/40 41/41/41 43/43/43
f 43/43/43 41/41/41 44/44/44
f 44/44/44 41/41/41 45/45/45
f 45/45/45 41/41/41 46/46/46
f 46/46/46 41/41/41 47/47/47
f 47/47/47 41/41/41 48/48/48
f 48/48/48 41/41/41 49/49/49
f 49/49/49 41/41/41 50/50/50
f 50/50/50 41/41/41 51/51/51
f 51/51/51 41/41/41 52/52/52
f 52/52/52 41/41/41 42/42/42
f 55/55/55 54/54/54 53/53/53
f 56/56/56 55/55/55 53/53/53
f 57/57/57 55/55/55 56/56/56
f 58/58/58 57/57/57 56/56/56
f 59/59/59 57/57/57 58/58/58
f 60/60/60 59/59/59 58/58/58
f 61/61/61 59/59/59 60/60/60
f 62/62/62 61/61/61 60/60/60
f 63/63/63 61/61/61 62/62/62
f 64/64/64 63/63/63 62/62/62
f 65/65/65 63/63/63 64/64/64
f 66/66/66 65/65/65 64/64/64
f 67/67/67 65/65/65 66/66/66
f 68/68/68 67/67/67 66/66/66
f 69/69/69 67/67/67 68/68/68
f 70/70/70 69/69/69 68/68/68
f 71/71/71 69/69/69 70/70/70
f 72/72/72 71/71/71 70/70/70
f 73/73/73 71/71/71 72/72/72
f 74/74/74 73/73/73 72/72/72
f 75/75/75 73/73/73 74/74/74
f 76/76/76 75/75/75 74/74/74
f 77/77/77 75/75/75 76/76/76
f 78/78/78 77/77/77 76/76/76
f 81/81/81 80/80/80 79/79/79
f 82/82/82 80/80/80 81/81/81
f 83/83/83 80/80/80 82/82/82
f 84/84/84 80/80/80 83/83/83
f 85/85/85 80/80/80 84/84/84
f 86/86/86 80/80/80 85/85/85
f 87/87/87 80/80/80 86/86/86
f 88/88/88 80/80/80 87/87/87
f 89/89/89 80/80/80 88/88/88
f 90/90/90 80/80/80 89/89/89
f 91/91/91 80/80/80 90/90/90
f 79/79/79 80/80/80 91/91/91
f 94/94/94 93/93/93 92/92/92
f 95/95/95 94/94/94 92/92/92
f 96/96/96 94/94/94 95/95/95
f 97/97/97 96/96/96 95/95/95
f 98/98/98 96/96/96 97/97/97
f 99/99/99 98/98/98 97/97/97
f 100/100/100 98/98/98 99/99/99
f 101/101/101 100/100/100 99/99/99
f 102/102/102 100/100/100 101/101/101
f 103/103/103 102/102/102 101/101/101
f 104/104/104 102/102/102 103/103/103
f 105/105/105 104/104/104 103/103/103
f 106/106/106 104/104/104 105/105/105
f 107/107/107 106/106/106 105/105/105
f 108/108/108 106/106/106 107/107/107
f 109/109/109 108/108/108 107/107/107
f 110/110/110 108/108/108 109/109/109
f 111/111/111 110/110/110 109/109/109
f 112/112/112 110/110/110 111/111/111
f 113/113/113 112/112/112 111/111/111
f 114/114/114 112/112/112 113/113/113
f 115/115/115 114/114/114 113/113/113
f 116/116/116 114/114/114 115/115/115
f 117/117/117 116/116/116 115/115/115
f 120/120/120 119/119/119 118/118/118
f 121/121/121 119/119/119 120/120/120
f 122/122/122 119/119/119 121/121/121
f 123/123/123 119/119/119 122/122/122
f 124/124/124 119/119/119 123/123/123
f 125/125/125 119/119/119 124/124/124
f 126/126/126 119/119/119 125/125/125
f 127/127/127 119/119/119 126/126/126
f 128/128/128 119/119/119 127/127/127
f 129/129/129 119/119/119 128/128/128
f 130/130/130 119/119/119 129/129/129
f 118/118/118 119/119/119 130/130/130
f 133/133/133 132/132/132 131/131/131
f 134/134/134 133/133/133 131/131/131
f 135/135/135 133/133/133 134/134/134
f 136/136/136 135/135/135 134/134/134
f 137/137/137 135/135/135 136/136/136
f 138/138/138 137/137/137 136/136/136
f 139/139/139 137/137/137 138/138/138
f 140/140/140 139/139/139 138/138/138
f 141/141/141 139/139/139 140/140/140
f 142/142/142 141/141/141 140/140/140
f 143/143/143 141/141/141 142/142/142
f 144/144/144 143/143/143 142/142/142
f 145/145/145 143/143/143 144/144/144
f 146/146/146 145/145/145 144/144/144
f 147/147/147 145/145/145 146/146/146
f 148/148/148 147/147/147 146/146/146
f 149/149/149 147/147/147 148/148/148
f 150/150/150 149/149/149 148/148/148
f 151/151/151 149/149/149 150/150/150
f 152/152/152 151/151/151 150/150/150
f 153/153/153 151/151/151 152/152/152
f 154/154/154 153/153/153 152/152/152
f 155/155/155 153/153/153 154/154/154
f 156/156/156 155/155/155 154/154/154
f 159/159/159 158/158/158 157/157/157
f 160/160/160 158/158/158 159/159/159
f 161/161/161 158/158/158 160/160/160
f 162/162/162 158/158/158 161/161/161
f 163/163/163 158/158/158 162/162/162
f 164/164/164 158/158/158 163/163/163
f 165/165/165 158/158/158 164/164/164
f 166/166/166 158/158/158 165/165/165
f 167/167/167 158/158/158 166/166/166
f 168/168/168 158/158/158 167/167/167
f 169/169/169 158/158/158 168/168/168
f 157/157/157 158/158/158 169/169/169
f 159/159/159 157/157/157 170/170/170
f 157/157/157 171/171/171 170/170/170
f 157/157/157 169/169/169 171/171/171
f 159/159/159 170/170/170 172/172/172
f 160/160/160 159/159/159 172/172/172
f 160/160/160 172/172/172 173/173/173
f 161/161/161 160/160/160 173/173/173
f 161/161/161 173/173/173 174/174/174
f 162/162/162 161/161/161 174/174/174
f 162/162/162 174/174/174 175/175/175
f 163/163/163 162/162/162 175/175/175
f 163/163/163 175/175/175 176/176/176
f 164/164/164 163/163/163 176/176/176
f 164/164/164 176/176/176 177/177/177
f 165/165/165 164/164/164 177/177/177
f 165/165/165 177/177/177 178/178/178
f 166/166/166 165/165/165 178/178/178
f 166/166/166 178/178/178 179/179/179
f 167/167/167 166/166/166 179/179/179
f 167/167/167 179/179/179 180/180/180
f 168/168/168 167/167/167 180/180/180
f 168/168/168 180/180/180 181/181/181
f 169/169/169 168/168/168 181/181/181
f 169/169/169 181/181/181 171/171/171
