g meger3d_Char_sundries_C9_1
v 0.0544998 0.3794585 0.03146548
v -5.753347E-08 0.3794585 0.06293092
v -1.970816E-08 0.4776412 -8.522557E-08
v 0.05449985 0.3794585 -0.0314655
v 0.0544998 0.3794585 0.03146548
v -1.970816E-08 0.4776412 -8.522557E-08
v 4.284313E-08 0.3794585 -0.06293105
v 0.05449985 0.3794585 -0.0314655
v -1.970816E-08 0.4776412 -8.522557E-08
v -0.05449982 0.3794585 -0.0314656
v 4.284313E-08 0.3794585 -0.06293105
v -1.970816E-08 0.4776412 -8.522557E-08
v -0.05449988 0.3794585 0.03146537
v -0.05449982 0.3794585 -0.0314656
v -1.970816E-08 0.4776412 -8.522557E-08
v -5.753347E-08 0.3794585 0.06293092
v -0.05449988 0.3794585 0.03146537
v -1.970816E-08 0.4776412 -8.522557E-08
v -7.311201E-08 -0.3757894 0.1534903
v 0.1329264 0.2381714 0.07674512
v 0.1329264 -0.3757894 0.07674526
v -1.133615E-07 0.2381713 0.1534902
v 0.1329265 0.2381713 -0.07674508
v 0.1329265 -0.3757894 -0.07674494
v 9.111412E-08 0.2381713 -0.1534903
v 1.313636E-07 -0.3757894 -0.1534901
v -0.1329264 0.2381713 -0.07674523
v -0.1329263 -0.3757895 -0.07674509
v -0.1329265 0.2381713 0.07674494
v -0.1329264 -0.3757894 0.07674509
v -0.1329264 -0.3757894 0.07674509
v -0.1329265 0.2381713 0.07674494
v -0.04490435 -0.4776413 -0.02592549
v 0.04490446 -0.4776413 -0.02592544
v 7.16722E-08 -0.4776413 -0.05185104
v 2.597455E-09 -0.4776413 0.05185124
v 0.04490441 -0.4776413 0.0259257
v -0.04490439 -0.4776413 0.02592565
v 0.1113753 -0.4335873 0.06430271
v -5.205508E-08 -0.4335874 0.1286052
v 0.1329264 -0.3757894 0.07674526
v -7.311201E-08 -0.3757894 0.1534903
v -0.1113753 -0.4335874 0.06430256
v -0.1329264 -0.3757894 0.07674509
v -0.1113752 -0.4335874 -0.06430252
v -0.1329263 -0.3757895 -0.07674509
v 1.192693E-07 -0.4335873 -0.128605
v 1.313636E-07 -0.3757894 -0.1534901
v 0.1113754 -0.4335873 -0.06430239
v 0.1329265 -0.3757894 -0.07674494
v 0.1329264 0.2381714 0.07674512
v -5.690572E-08 0.3794585 0.06293089
v 0.0544998 0.3794585 0.03146543
v -1.133615E-07 0.2381713 0.1534902
v 0.1329265 0.2381713 -0.07674508
v 0.05449983 0.3794585 -0.03146555
v 9.111412E-08 0.2381713 -0.1534903
v 2.692929E-08 0.3794585 -0.06293106
v -0.1329264 0.2381713 -0.07674523
v -0.05449983 0.3794585 -0.0314656
v -0.1329265 0.2381713 0.07674494
v -0.05449986 0.3794585 0.03146537
vt 0.6891786 0.4562635
vt 0.6847641 0.4640805
vt 0.694244 0.4640805
vt 0.6993093 0.4562635
vt 0.6891786 0.4562635
vt 0.694244 0.4640805
vt 0.7042801 0.4640805
vt 0.6993093 0.4562635
vt 0.694244 0.4640805
vt 0.6993093 0.4718974
vt 0.7042801 0.4640805
vt 0.694244 0.4640805
vt 0.6891786 0.4718974
vt 0.6993093 0.4718974
vt 0.694244 0.4640805
vt 0.6847641 0.4640805
vt 0.6891786 0.4718974
vt 0.694244 0.4640805
vt 0.6482815 0.3770227
vt 0.6674014 0.4535024
vt 0.6674014 0.3770227
vt 0.6482815 0.4535024
vt 0.6865213 0.4535024
vt 0.6865213 0.3770227
vt 0.7056413 0.4535024
vt 0.7056413 0.3770227
vt 0.7247611 0.4535024
vt 0.7247612 0.3770227
vt 0.7438811 0.4535024
vt 0.7438811 0.3770227
vt 0.6291615 0.3770227
vt 0.6291616 0.4535024
vt 0.7255952 0.4721507
vt 0.7255952 0.4815564
vt 0.7285131 0.4768615
vt 0.7171359 0.4768615
vt 0.7199889 0.4815564
vt 0.7199889 0.4721507
vt 0.7148409 0.4905261
vt 0.7063018 0.4768615
vt 0.7119801 0.4956565
vt 0.6997938 0.4768612
vt 0.7148409 0.4631892
vt 0.7119801 0.4580603
vt 0.7307546 0.4631892
vt 0.7336167 0.4580603
vt 0.7393249 0.4768615
vt 0.7458385 0.4768612
vt 0.7307546 0.4905261
vt 0.7336167 0.4956565
vt 0.6483052 0.4558433
vt 0.6514817 0.4769104
vt 0.6563596 0.4682729
vt 0.636408 0.4769103
vt 0.6756083 0.4558433
vt 0.6675539 0.4682729
vt 0.6890048 0.4769103
vt 0.6730464 0.4769104
vt 0.6756083 0.4979773
vt 0.6675539 0.4855478
vt 0.6483052 0.4979773
vt 0.6563596 0.4855478
vn 0.437165 0.4853295 0.7571936
vn 0.437165 0.4853295 0.7571936
vn 0.437165 0.4853295 0.7571936
vn 0.8743315 0.4853293 6.776636E-07
vn 0.8743315 0.4853293 6.776636E-07
vn 0.8743315 0.4853294 6.776636E-07
vn 0.4371664 0.4853291 -0.7571929
vn 0.4371664 0.4853291 -0.757193
vn 0.4371664 0.4853291 -0.7571929
vn -0.437165 0.4853291 -0.7571937
vn -0.437165 0.4853291 -0.7571937
vn -0.437165 0.4853291 -0.7571937
vn -0.8743315 0.4853294 -8.831474E-07
vn -0.8743315 0.4853293 -8.831473E-07
vn -0.8743315 0.4853294 -8.831474E-07
vn -0.4371664 0.4853295 0.7571927
vn -0.4371664 0.4853295 0.7571927
vn -0.4371664 0.4853295 0.7571927
vn -6.497215E-07 -0.1902207 0.9817414
vn 0.8363382 0.2595841 0.4828608
vn 0.8502127 -0.1902206 0.4908712
vn -6.892948E-07 0.2595841 0.9657205
vn 0.8363388 0.2595839 -0.4828598
vn 0.8502133 -0.1902208 -0.4908701
vn 5.174119E-07 0.2595837 -0.9657205
vn 5.992471E-07 -0.1902212 -0.9817412
vn -0.8363383 0.2595837 -0.4828609
vn -0.8502126 -0.1902211 -0.4908712
vn -0.8363389 0.2595839 0.4828596
vn -0.8502132 -0.1902209 0.4908702
vn -0.8502132 -0.1902209 0.4908702
vn -0.8363389 0.2595839 0.4828596
vn -0.2888763 -0.9427269 -0.1667829
vn 0.2888766 -0.9427269 -0.1667827
vn 2.714222E-07 -0.9427269 -0.3335657
vn -1.929122E-07 -0.9427267 0.333566
vn 0.2888764 -0.9427267 0.1667833
vn -0.2888764 -0.9427269 0.1667829
vn 0.6803787 -0.6186914 0.3928175
vn -5.125321E-07 -0.6186916 0.785634
vn 0.8502127 -0.1902206 0.4908712
vn -6.497215E-07 -0.1902207 0.9817414
vn -0.6803789 -0.6186919 0.3928165
vn -0.8502132 -0.1902209 0.4908702
vn -0.6803784 -0.618692 -0.3928173
vn -0.8502126 -0.1902211 -0.4908712
vn 5.230709E-07 -0.618692 -0.7856337
vn 5.992471E-07 -0.1902212 -0.9817412
vn 0.6803792 -0.6186917 -0.3928165
vn 0.8502133 -0.1902208 -0.4908701
vn 0.8363382 0.2595841 0.4828608
vn -6.028862E-07 0.5396262 0.8419047
vn 0.7291106 0.5396262 0.4209527
vn -6.892948E-07 0.2595841 0.9657205
vn 0.8363388 0.2595839 -0.4828598
vn 0.7291111 0.5396261 -0.4209521
vn 5.174119E-07 0.2595837 -0.9657205
vn 4.04002E-07 0.5396258 -0.8419049
vn -0.8363383 0.2595837 -0.4828609
vn -0.7291108 0.5396258 -0.420953
vn -0.8363389 0.2595839 0.4828596
vn -0.7291113 0.539626 0.420952
g meger3d_Char_sundries_C9_1_0
f 3/3/3 2/2/2 1/1/1
f 6/6/6 5/5/5 4/4/4
f 9/9/9 8/8/8 7/7/7
f 12/12/12 11/11/11 10/10/10
f 15/15/15 14/14/14 13/13/13
f 18/18/18 17/17/17 16/16/16
f 21/21/21 20/20/20 19/19/19
f 22/22/22 19/19/19 20/20/20
f 20/20/20 21/21/21 23/23/23
f 24/24/24 23/23/23 21/21/21
f 23/23/23 24/24/24 25/25/25
f 26/26/26 25/25/25 24/24/24
f 25/25/25 26/26/26 27/27/27
f 28/28/28 27/27/27 26/26/26
f 27/27/27 28/28/28 29/29/29
f 30/30/30 29/29/29 28/28/28
f 19/19/19 22/22/22 31/31/31
f 32/32/32 31/31/31 22/22/22
f 35/35/35 34/34/34 33/33/33
f 34/34/34 36/36/36 33/33/33
f 37/37/37 36/36/36 34/34/34
f 33/33/33 36/36/36 38/38/38
f 37/37/37 39/39/39 36/36/36
f 40/40/40 36/36/36 39/39/39
f 36/36/36 40/40/40 38/38/38
f 39/39/39 41/41/41 40/40/40
f 42/42/42 40/40/40 41/41/41
f 40/40/40 42/42/42 43/43/43
f 43/43/43 38/38/38 40/40/40
f 38/38/38 43/43/43 33/33/33
f 44/44/44 43/43/43 42/42/42
f 43/43/43 44/44/44 45/45/45
f 45/45/45 33/33/33 43/43/43
f 33/33/33 45/45/45 35/35/35
f 46/46/46 45/45/45 44/44/44
f 45/45/45 46/46/46 47/47/47
f 47/47/47 35/35/35 45/45/45
f 35/35/35 47/47/47 34/34/34
f 48/48/48 47/47/47 46/46/46
f 47/47/47 48/48/48 49/49/49
f 49/49/49 34/34/34 47/47/47
f 39/39/39 37/37/37 49/49/49
f 34/34/34 49/49/49 37/37/37
f 50/50/50 49/49/49 48/48/48
f 41/41/41 39/39/39 50/50/50
f 49/49/49 50/50/50 39/39/39
f 53/53/53 52/52/52 51/51/51
f 54/54/54 51/51/51 52/52/52
f 51/51/51 55/55/55 53/53/53
f 56/56/56 53/53/53 55/55/55
f 55/55/55 57/57/57 56/56/56
f 58/58/58 56/56/56 57/57/57
f 57/57/57 59/59/59 58/58/58
f 60/60/60 58/58/58 59/59/59
f 59/59/59 61/61/61 60/60/60
f 54/54/54 52/52/52 61/61/61
f 62/62/62 60/60/60 61/61/61
f 62/62/62 61/61/61 52/52/52
