g meger3d_Char_sundries_C7_2
v 0.2835498 -0.2633637 -0.4370038
v 0.284982 -0.2459203 -0.451651
v 0.2459695 -0.253222 -0.4505118
v 0.2521205 -0.2715433 -0.4308731
v 0.2488307 -0.2243973 -0.455571
v 0.2795201 -0.2238412 -0.4574493
v 0.2574974 -0.1951727 -0.440791
v 0.2974995 -0.2015119 -0.4463482
v 0.2600152 -0.1598708 -0.4118259
v 0.307525 -0.1672635 -0.4138727
v 0.2460568 -0.1133109 -0.3820013
v 0.2986658 -0.1226134 -0.367074
v 0.2262689 -0.05700973 -0.3727176
v 0.2777197 -0.06730049 -0.3345819
v 0.2117407 0.006722717 -0.3982004
v 0.253194 -0.002176056 -0.3392551
v 0.1964609 0.07830703 -0.4338168
v 0.2294177 0.06765488 -0.3585785
v 0.1726657 0.1586993 -0.4479391
v 0.2079967 0.1378186 -0.3630026
v 0.1417108 0.2482706 -0.4233871
v 0.190684 0.2111194 -0.3397482
v 0.1039734 0.3353854 -0.3416919
v 0.18115 0.2808838 -0.2741464
v 0.06309193 0.3609717 -0.1592036
v 0.1913501 0.2953488 -0.1256705
v 0.02426308 0.2715017 0.1366881
v 0.2285171 0.2075433 0.119896
v -0.003464003 0.08306564 0.4093091
v 0.2743774 0.0347525 0.3418198
v 0.004062433 -0.1977247 0.5515976
v 0.305504 -0.1977247 0.4318257
v 0.3996081 -0.06959449 0.1094315
v 0.4195297 -0.1977247 0.1523053
v 0.3103995 -0.1604312 -0.1301752
v 0.3204738 -0.1977247 -0.1110379
v 0.0336553 -0.1794975 -0.223362
v 0.03574432 -0.1977247 -0.2469743
v 0.03153333 -0.05396141 -0.2261137
v 0.2422281 -0.03805878 -0.1451283
v 0.03360245 0.04856674 -0.2507092
v 0.1738253 0.06053802 -0.1858002
v 0.3151672 0.07573181 0.001506042
v 0.2334952 0.1678836 -0.1365395
v 0.04108957 0.0874887 -0.2740689
v 0.1359573 0.09487656 -0.219507
v 0.1915414 0.1790463 -0.2235362
v 0.1827617 0.1414421 -0.264014
v 0.1903754 0.09337616 -0.2811926
v 0.2124432 0.03744705 -0.2828192
v 0.1587157 0.007367401 -0.2465038
v 0.1338548 0.05386703 -0.2466028
v 0.09412773 -0.002942352 -0.2759695
v 0.0689188 0.04614212 -0.2861902
v 0.1350211 0.07437179 -0.2330348
v 0.05505924 0.06681534 -0.2800751
v 0.1352222 -0.06681968 -0.2651901
v 0.2033203 -0.05685005 -0.2449602
v 0.1861044 -0.1347065 -0.2727334
v 0.2522313 -0.1252376 -0.2643487
v 0.2486645 -0.02931236 -0.2771225
v 0.2848929 -0.09642311 -0.2917486
v 0.2345166 -0.1949767 -0.311315
v 0.2919557 -0.1832885 -0.3176184
v 0.2642961 -0.2410584 -0.3616779
v 0.3129692 -0.2271781 -0.3776684
v 0.3145793 -0.1525037 -0.3413202
v 0.3278006 -0.1960044 -0.3992709
v 0.2643651 -0.2678404 -0.4023483
v 0.3044167 -0.2549168 -0.4183816
v 0.3153076 -0.2273644 -0.4367901
v 0.2521205 -0.2715433 -0.4308731
v 0.2459695 -0.253222 -0.4505118
v 0.2153494 -0.2500203 -0.4347501
v 0.2243686 -0.2668702 -0.4219736
v 0.2221756 -0.227796 -0.4425134
v 0.2488307 -0.2243973 -0.455571
v 0.2188661 -0.2080782 -0.4240475
v 0.2574974 -0.1951727 -0.440791
v 0.2126599 -0.1746201 -0.3959039
v 0.2600152 -0.1598708 -0.4118259
v 0.1895534 -0.1262807 -0.3770883
v 0.2460568 -0.1133109 -0.3820013
v 0.1638369 -0.06790894 -0.3828934
v 0.2262689 -0.05700973 -0.3727176
v 0.150221 -0.004435425 -0.4205905
v 0.2117407 0.006722717 -0.3982004
v 0.1374056 0.06680023 -0.465849
v 0.1964609 0.07830703 -0.4338168
v 0.1108345 0.1488826 -0.4885474
v 0.1726657 0.1586993 -0.4479391
v 0.06973011 0.2390045 -0.4697333
v 0.1417108 0.2482706 -0.4233871
v 0.01057184 0.322279 -0.3907443
v 0.1039734 0.3353854 -0.3416919
v -0.07154194 0.3413934 -0.2176225
v 0.06309193 0.3609717 -0.1592036
v -0.174211 0.2466977 0.05472355
v 0.02426308 0.2715017 0.1366881
v -0.2634929 0.06161987 0.3031208
v -0.003464003 0.08306564 0.4093091
v -0.2770552 -0.1977247 0.4196701
v 0.004062433 -0.1977247 0.5515976
v -0.3796701 -0.1977247 0.1519737
v -0.3538629 -0.02005691 0.07158709
v -0.2719075 -0.1977247 -0.1206546
v -0.2475419 -0.1152441 -0.1479724
v 0.03574432 -0.1977247 -0.2469743
v 0.0336553 -0.1794975 -0.223362
v -0.2468719 0.1418088 -0.09205063
v -0.1306887 0.2416547 -0.2731152
v -0.1708997 0.01889877 -0.2104936
v -0.09075203 0.1217969 -0.2913007
v 0.03153333 -0.05396141 -0.2261137
v 0.03360245 0.04856674 -0.2507092
v -0.0430858 0.2438278 -0.3920404
v -0.03277386 0.1477092 -0.3473788
v 0.01619013 0.1849026 -0.4460629
v 0.007507801 0.1189482 -0.3727179
v 0.04108957 0.0874887 -0.2740689
v 0.04108957 0.0874887 -0.2740689
v 0.05505924 0.06681534 -0.2800751
v 0.05640575 0.1114653 -0.4526883
v 0.03541523 0.06911453 -0.3700269
v 0.08165959 0.03791779 -0.4269449
v 0.0591214 0.00890686 -0.3485071
v 0.0689188 0.04614212 -0.2861902
v 0.09412773 -0.002942352 -0.2759695
v 0.09939545 -0.03078461 -0.385632
v 0.08857528 -0.05673225 -0.3210809
v 0.1236517 -0.09529305 -0.3540994
v 0.1284906 -0.1229854 -0.3083954
v 0.1352222 -0.06681968 -0.2651901
v 0.1861044 -0.1347065 -0.2727334
v 0.1612981 -0.1557838 -0.3525577
v 0.17643 -0.1843923 -0.3251279
v 0.1939259 -0.2049248 -0.3741321
v 0.2128024 -0.2327966 -0.3594229
v 0.2345166 -0.1949767 -0.311315
v 0.2642961 -0.2410584 -0.3616779
v 0.2049452 -0.2356486 -0.4062509
v 0.2221532 -0.2605323 -0.3959988
v 0.2643651 -0.2678404 -0.4023483
v 0.1359573 0.09487656 -0.219507
v 0.04108957 0.0874887 -0.2740689
v -0.2468224 -0.1977247 0.39156
v -0.2770552 -0.1977247 0.4196701
v 0.004062433 -0.1977247 0.5515976
v 0.005391574 -0.1977247 0.5077314
v 0.305504 -0.1977247 0.4318257
v 0.2750346 -0.1977247 0.4010771
v -0.3395901 -0.1977247 0.1521816
v -0.3796701 -0.1977247 0.1519737
v -0.2411227 -0.1977247 -0.09027298
v -0.2719075 -0.1977247 -0.1206546
v 0.03449421 -0.1977247 -0.2021939
v 0.03574432 -0.1977247 -0.2469743
v 0.2900783 -0.1977247 -0.08314011
v 0.3204738 -0.1977247 -0.1110379
v 0.4195297 -0.1977247 0.1523053
v 0.3792184 -0.1977247 0.15175
v -0.1294091 -0.06364609 0.2812012
v -0.2468224 -0.1977247 0.39156
v 0.005391574 -0.1977247 0.5077314
v 0.01009657 -0.06364609 0.3366357
v 0.2750346 -0.1977247 0.4010771
v 0.1567465 -0.06364609 0.2805014
v -0.1832818 -0.06364609 0.1534369
v -0.3395901 -0.1977247 0.1521816
v -0.1219071 -0.06364609 0.02894802
v -0.2411227 -0.1977247 -0.09027298
v 0.03011009 -0.06364609 -0.02753838
v 0.03449421 -0.1977247 -0.2021939
v 0.1723132 -0.06364609 0.02630356
v 0.2900783 -0.1977247 -0.08314011
v 0.3792184 -0.1977247 0.15175
v 0.2220093 -0.06364609 0.149148
v 0.02035918 -0.04203499 0.1551888
vt 0.8824137 0.5069783
vt 0.8833675 0.5061808
vt 0.8814046 0.5043074
vt 0.8802378 0.5063108
vt 0.8837194 0.5033174
vt 0.8844497 0.5054384
vt 0.8867325 0.5036483
vt 0.8858125 0.5063732
vt 0.8899471 0.5053025
vt 0.8879275 0.5077579
vt 0.8937374 0.5072971
vt 0.8910848 0.5101353
vt 0.8979533 0.5086386
vt 0.8951874 0.5125638
vt 0.9029861 0.5082932
vt 0.9006196 0.5133225
vt 0.9083666 0.5063164
vt 0.9069901 0.5126376
vt 0.9139683 0.504363
vt 0.9133236 0.5118383
vt 0.9209166 0.5034568
vt 0.9201666 0.5118698
vt 0.9299585 0.5045686
vt 0.928254 0.5135709
vt 0.9426275 0.5106131
vt 0.938083 0.5214554
vt 0.9634765 0.5232031
vt 0.953386 0.5366757
vt 0.9843458 0.5399516
vt 0.9668726 0.5540774
vt 0.9981993 0.562033
vt 0.973536 0.5722491
vt 0.946892 0.5615562
vt 0.948875 0.5724414
vt 0.9253218 0.5638373
vt 0.9263079 0.5672997
vt 0.9008917 0.5613558
vt 0.9000552 0.5638332
vt 0.9019408 0.5509306
vt 0.9230589 0.551608
vt 0.9007685 0.542359
vt 0.9178372 0.5386424
vt 0.9407532 0.5462682
vt 0.9307783 0.5314953
vt 0.8996106 0.5396717
vt 0.911667 0.5334448
vt 0.922857 0.5242333
vt 0.9168674 0.5225796
vt 0.9104621 0.5215161
vt 0.9039376 0.5198433
vt 0.9004847 0.5259858
vt 0.9054036 0.5303006
vt 0.8971398 0.531327
vt 0.8984762 0.5351265
vt 0.9083784 0.5318111
vt 0.8991132 0.5372441
vt 0.8935263 0.5267775
vt 0.8951932 0.5217754
vt 0.8890516 0.5222656
vt 0.8908379 0.5179704
vt 0.8975599 0.5176916
vt 0.8926871 0.5151842
vt 0.8849481 0.5172991
vt 0.887154 0.5138915
vt 0.8820255 0.5124611
vt 0.8846788 0.5102863
vt 0.8890053 0.511862
vt 0.8863592 0.5089803
vt 0.8804479 0.5090103
vt 0.8833095 0.5081722
vt 0.8847106 0.5074554
vt 0.8713637 0.501788
vt 0.8686699 0.5019553
vt 0.8694996 0.5046587
vt 0.8709853 0.5041624
vt 0.8678067 0.5049373
vt 0.8659738 0.5031253
vt 0.8670901 0.5070761
vt 0.8636555 0.5051627
vt 0.8660678 0.511163
vt 0.8614917 0.5088385
vt 0.864358 0.5169381
vt 0.8595319 0.5137377
vt 0.8611861 0.5228275
vt 0.8567476 0.5185274
vt 0.8562057 0.5280443
vt 0.8525874 0.5233365
vt 0.8512749 0.5332168
vt 0.8476881 0.528769
vt 0.8477635 0.5387354
vt 0.8430437 0.5349001
vt 0.8453904 0.5451481
vt 0.8384364 0.5427449
vt 0.8439605 0.5537069
vt 0.8353606 0.5538788
vt 0.8461946 0.5673232
vt 0.8344218 0.570592
vt 0.8553281 0.5892422
vt 0.8392397 0.5978432
vt 0.8689262 0.6100677
vt 0.8513195 0.6248218
vt 0.8851903 0.6269909
vt 0.8672066 0.6469619
vt 0.8946754 0.6026981
vt 0.8803806 0.5932494
vt 0.8963341 0.575648
vt 0.8887096 0.5724349
vt 0.8963341 0.5451754
vt 0.8936816 0.5457816
vt 0.8666269 0.5783265
vt 0.8553166 0.563005
vt 0.8756752 0.5647543
vt 0.8640754 0.556642
vt 0.8822824 0.5460811
vt 0.8727224 0.5456734
vt 0.8506789 0.5528858
vt 0.8592747 0.5504029
vt 0.850807 0.5457757
vt 0.8588068 0.5453516
vt 0.8686785 0.5446781
vt 0.8686785 0.5446781
vt 0.8689649 0.5424007
vt 0.8530073 0.5400907
vt 0.8608299 0.5406241
vt 0.8568944 0.5349849
vt 0.8643213 0.5356325
vt 0.8692427 0.5401012
vt 0.871728 0.5355453
vt 0.8619629 0.5299769
vt 0.8683613 0.5300198
vt 0.8665752 0.5244696
vt 0.8715796 0.5236223
vt 0.8751079 0.5292333
vt 0.8777361 0.5216402
vt 0.8692835 0.5177899
vt 0.8732202 0.5162015
vt 0.8704029 0.5113307
vt 0.8735385 0.5094596
vt 0.8784266 0.5133244
vt 0.8773209 0.506145
vt 0.8701468 0.5070608
vt 0.8722848 0.5056544
vt 0.8742966 0.5024612
vt 0.911667 0.5334448
vt 0.8996106 0.5396717
vt 0.9460468 0.6401876
vt 0.9473712 0.6437489
vt 0.968514 0.6241295
vt 0.9647871 0.6224995
vt 0.968514 0.5941578
vt 0.9648812 0.595748
vt 0.9220093 0.6397597
vt 0.9206403 0.6431088
vt 0.9046525 0.6229317
vt 0.9010703 0.6245252
vt 0.9045268 0.5957193
vt 0.9007578 0.5940951
vt 0.923299 0.5779327
vt 0.9219835 0.5744017
vt 0.9481823 0.5748245
vt 0.9467998 0.5782093
vt 0.9396023 0.6232885
vt 0.9460468 0.6401876
vt 0.9647871 0.6224995
vt 0.9480408 0.6151292
vt 0.9648812 0.595748
vt 0.9478653 0.6026667
vt 0.9290619 0.6237417
vt 0.9220093 0.6397597
vt 0.9215612 0.6159763
vt 0.9046525 0.6229317
vt 0.9214783 0.6029988
vt 0.9045268 0.5957193
vt 0.9299397 0.594393
vt 0.923299 0.5779327
vt 0.9467998 0.5782093
vt 0.9400171 0.594678
vt 0.9348193 0.6090902
vn 0.3580723 -0.8352445 -0.4173138
vn 0.3447686 -0.4161817 -0.8413842
vn -0.2132444 -0.4708878 -0.8560325
vn -0.0413049 -0.9513186 -0.3054292
vn -0.2666311 0.1824063 -0.9463804
vn 0.1565298 0.1049892 -0.9820772
vn -0.2179339 0.5752254 -0.7884291
vn 0.4004885 0.3912503 -0.8285723
vn -0.09840143 0.5931273 -0.7990728
vn 0.5742548 0.5722176 -0.58549
vn 0.1352607 0.4074614 -0.90315
vn 0.7258412 0.5476081 -0.416269
vn 0.4377379 0.03783603 -0.8983061
vn 0.872983 0.4059826 -0.2703309
vn 0.642101 -0.167202 -0.7481643
vn 0.9437086 0.2840724 -0.1694604
vn 0.7366192 -0.03773507 -0.6752542
vn 0.9642855 0.2537207 -0.07602151
vn 0.7234046 0.2428987 -0.6462864
vn 0.9640257 0.2585675 -0.06162295
vn 0.6085325 0.5503317 -0.5716844
vn 0.9444613 0.2941628 -0.1464965
vn 0.3702962 0.8728706 -0.3177702
vn 0.8388709 0.520844 -0.1581675
vn 0.1322223 0.9863682 0.09795402
vn 0.7105532 0.7030183 0.02965473
vn 0.01746017 0.8993687 0.436842
vn 0.6146432 0.7330974 0.2911735
vn -0.03532258 0.6412713 0.7665008
vn 0.6157168 0.5402812 0.5735757
vn -0.02837172 0.4340574 0.9004384
vn 0.619633 0.3730375 0.690578
vn 0.9562108 0.2889795 -0.04638511
vn 0.9797585 0.1833849 0.08026961
vn 0.6656583 0.1388112 -0.733233
vn 0.7938859 0.08471522 -0.6021366
vn 0.03710705 0.02508755 -0.9989963
vn 0.03950044 0.1041217 -0.9937798
vn 0.09231947 -0.1783643 -0.979624
vn 0.6359639 0.07463107 -0.7681016
vn 0.1544546 -0.4394077 -0.8849093
vn 0.6268837 -0.1726706 -0.759738
vn 0.9011824 0.3739012 -0.2192443
vn 0.9180432 0.1735253 -0.3564905
vn 0.120739 -0.640404 -0.7584885
vn 0.5710788 -0.3859967 -0.7244829
vn 0.9774728 -0.08667228 -0.1924445
vn 0.9412138 -0.1474507 0.303932
vn 0.8157052 0.09843863 0.5700305
vn 0.6932228 0.3349886 0.6381418
vn 0.01502413 0.05542035 0.99835
vn 0.001104151 -0.2196601 0.9755759
vn -0.6710322 -0.2386792 0.7019601
vn -0.7242455 -0.403212 0.5593644
vn 0.2009926 -0.5081323 0.8374984
vn -0.6478276 -0.5929522 0.4782542
vn -0.5079415 -0.2991742 0.8077686
vn 0.1364216 -0.01092658 0.9905906
vn -0.2788289 -0.4961571 0.8222424
vn 0.3463102 -0.2576393 0.9020484
vn 0.7202853 0.3340369 0.6079543
vn 0.8413443 0.1897054 0.5061142
vn -0.0380218 -0.6692411 0.7420719
vn 0.5649976 -0.4364433 0.7002106
vn 0.1442787 -0.7711288 0.6201161
vn 0.7221692 -0.5460975 0.4245577
vn 0.9563427 0.1125044 0.2697248
vn 0.9961318 0.03769402 -0.07937606
vn 0.1575874 -0.9283046 0.3367738
vn 0.6737024 -0.7389863 -0.004938599
vn 0.8403867 -0.1838182 -0.5098637
vn -0.0413049 -0.9513186 -0.3054292
vn -0.2132444 -0.4708878 -0.8560325
vn -0.7718547 -0.3541842 -0.5280094
vn -0.5022563 -0.8521805 -0.1467209
vn -0.6578074 0.1967623 -0.7270311
vn -0.2666311 0.1824063 -0.9463804
vn -0.7074652 0.3827145 -0.594157
vn -0.2179339 0.5752254 -0.7884291
vn -0.5895158 0.2620583 -0.7640658
vn -0.09840143 0.5931273 -0.7990728
vn -0.3457211 -0.01638525 -0.9381943
vn 0.1352607 0.4074614 -0.90315
vn -0.09966289 -0.3380181 -0.9358478
vn 0.4377379 0.03783603 -0.8983061
vn 0.05628622 -0.4848973 -0.8727579
vn 0.642101 -0.167202 -0.7481643
vn 0.1094954 -0.3418522 -0.933353
vn 0.7366192 -0.03773507 -0.6752542
vn 0.06820045 0.003597402 -0.9976652
vn 0.7234046 0.2428987 -0.6462864
vn -0.06048249 0.4144521 -0.9080591
vn 0.6085325 0.5503317 -0.5716844
vn -0.278665 0.7733377 -0.5694686
vn 0.3702962 0.8728706 -0.3177702
vn -0.4784707 0.8714265 -0.1080831
vn 0.1322223 0.9863682 0.09795402
vn -0.5669265 0.7949975 0.2158087
vn 0.01746017 0.8993687 0.436842
vn -0.6627084 0.548811 0.5095331
vn -0.03532258 0.6412713 0.7665008
vn -0.6522002 0.3562462 0.6691215
vn -0.02837172 0.4340574 0.9004384
vn -0.9860007 0.1572092 0.05556885
vn -0.9567292 0.2707211 -0.1066747
vn -0.7504748 0.0221661 -0.6605272
vn -0.6527621 0.01328684 -0.7574463
vn 0.03950044 0.1041217 -0.9937798
vn 0.03710705 0.02508755 -0.9989963
vn -0.879686 0.3716726 -0.2966682
vn -0.8275499 0.3035964 -0.4722186
vn -0.565165 -0.1184365 -0.816432
vn -0.5198568 -0.3543186 -0.7773077
vn 0.09231947 -0.1783643 -0.979624
vn 0.1544546 -0.4394077 -0.8849093
vn -0.7365901 0.1512985 -0.6591995
vn -0.6467832 -0.5240101 -0.5541526
vn -0.6502039 -0.1160084 -0.7508508
vn -0.7978995 -0.5371414 -0.2735605
vn 0.120739 -0.640404 -0.7584885
vn -0.6330648 -0.7118723 0.3040835
vn -0.6478276 -0.5929522 0.4782542
vn -0.5988688 -0.3466721 -0.7219242
vn -0.8747349 -0.4649364 -0.1366493
vn -0.5671234 -0.4951009 -0.6582144
vn -0.9087537 -0.4171405 -0.01267153
vn -0.7242455 -0.403212 0.5593644
vn -0.6710322 -0.2386792 0.7019601
vn -0.5850219 -0.538027 -0.6068577
vn -0.8784238 -0.4569844 0.1397743
vn -0.6690679 -0.4929671 -0.5561761
vn -0.7727034 -0.5682799 0.2828206
vn -0.5079415 -0.2991742 0.8077686
vn -0.2788289 -0.4961571 0.8222424
vn -0.7667789 -0.4109629 -0.4931121
vn -0.6378936 -0.6867127 0.3485935
vn -0.9099126 -0.2923977 -0.2942152
vn -0.5143644 -0.7350211 0.4417841
vn -0.0380218 -0.6692411 0.7420719
vn 0.1442787 -0.7711288 0.6201161
vn -0.9647565 -0.2148919 -0.1518757
vn -0.4985456 -0.8116356 0.3044666
vn 0.1575874 -0.9283046 0.3367738
vn 0.4982065 -0.599621 0.6262946
vn -0.6330648 -0.7118723 0.3040835
vn 0 -1 0
vn 0 -1 0
vn 0 -1 0
vn 0 -1 0
vn 0 -1 0
vn 0 -1 0
vn 0 -1 0
vn 0 -1 0
vn 0 -1 0
vn 0 -1 0
vn 0 -1 0
vn 0 -1 0
vn 0 -1 0
vn 0 -1 0
vn 0 -1 0
vn 0 -1 0
vn 0.3133492 -0.8998693 -0.3033934
vn 0.4594562 -0.7712706 -0.4405015
vn 0.01401134 -0.7810872 -0.6242647
vn 0.007210222 -0.8988394 -0.4382188
vn -0.43571 -0.7781525 -0.4523666
vn -0.2953922 -0.9037747 -0.3097334
vn 0.4522493 -0.8918554 0.00802947
vn 0.6392261 -0.7689736 0.008355013
vn 0.2969997 -0.9040688 0.3073289
vn 0.4377899 -0.7791762 0.4485805
vn -0.005723082 -0.9008579 0.4340764
vn -0.01231475 -0.7834691 0.6213087
vn -0.3147575 -0.899846 0.3020015
vn -0.4594046 -0.7734953 0.4366375
vn -0.6383891 -0.7695894 -0.01383836
vn -0.4512137 -0.8923224 -0.01291449
vn -0.000435647 -0.9999996 -0.0007486613
g meger3d_Char_sundries_C7_2_0
f 3/3/3 2/2/2 1/1/1
f 4/4/4 3/3/3 1/1/1
f 3/3/3 5/5/5 2/2/2
f 5/5/5 6/6/6 2/2/2
f 5/5/5 7/7/7 6/6/6
f 7/7/7 8/8/8 6/6/6
f 6/6/6 8/8/8 2/2/2
f 7/7/7 9/9/9 8/8/8
f 9/9/9 10/10/10 8/8/8
f 9/9/9 11/11/11 10/10/10
f 11/11/11 12/12/12 10/10/10
f 11/11/11 13/13/13 12/12/12
f 13/13/13 14/14/14 12/12/12
f 13/13/13 15/15/15 14/14/14
f 15/15/15 16/16/16 14/14/14
f 15/15/15 17/17/17 16/16/16
f 17/17/17 18/18/18 16/16/16
f 17/17/17 19/19/19 18/18/18
f 19/19/19 20/20/20 18/18/18
f 19/19/19 21/21/21 20/20/20
f 21/21/21 22/22/22 20/20/20
f 21/21/21 23/23/23 22/22/22
f 23/23/23 24/24/24 22/22/22
f 23/23/23 25/25/25 24/24/24
f 25/25/25 26/26/26 24/24/24
f 25/25/25 27/27/27 26/26/26
f 27/27/27 28/28/28 26/26/26
f 27/27/27 29/29/29 28/28/28
f 29/29/29 30/30/30 28/28/28
f 29/29/29 31/31/31 30/30/30
f 31/31/31 32/32/32 30/30/30
f 30/30/30 32/32/32 33/33/33
f 32/32/32 34/34/34 33/33/33
f 33/33/33 34/34/34 35/35/35
f 34/34/34 36/36/36 35/35/35
f 35/35/35 36/36/36 37/37/37
f 36/36/36 38/38/38 37/37/37
f 35/35/35 37/37/37 39/39/39
f 40/40/40 35/35/35 39/39/39
f 33/33/33 35/35/35 40/40/40
f 40/40/40 39/39/39 41/41/41
f 42/42/42 40/40/40 41/41/41
f 43/43/43 40/40/40 42/42/42
f 30/30/30 33/33/33 43/43/43
f 28/28/28 30/30/30 43/43/43
f 43/43/43 33/33/33 40/40/40
f 44/44/44 43/43/43 42/42/42
f 28/28/28 43/43/43 44/44/44
f 26/26/26 28/28/28 44/44/44
f 42/42/42 41/41/41 45/45/45
f 46/46/46 42/42/42 45/45/45
f 44/44/44 42/42/42 46/46/46
f 26/26/26 44/44/44 47/47/47
f 47/47/47 44/44/44 46/46/46
f 24/24/24 26/26/26 47/47/47
f 24/24/24 47/47/47 48/48/48
f 22/22/22 24/24/24 48/48/48
f 22/22/22 48/48/48 49/49/49
f 20/20/20 22/22/22 49/49/49
f 20/20/20 49/49/49 50/50/50
f 50/50/50 49/49/49 51/51/51
f 49/49/49 52/52/52 51/51/51
f 49/49/49 48/48/48 52/52/52
f 51/51/51 52/52/52 53/53/53
f 52/52/52 54/54/54 53/53/53
f 52/52/52 55/55/55 54/54/54
f 48/48/48 55/55/55 52/52/52
f 48/48/48 47/47/47 55/55/55
f 55/55/55 56/56/56 54/54/54
f 18/18/18 20/20/20 50/50/50
f 51/51/51 53/53/53 57/57/57
f 58/58/58 51/51/51 57/57/57
f 50/50/50 51/51/51 58/58/58
f 58/58/58 57/57/57 59/59/59
f 60/60/60 58/58/58 59/59/59
f 61/61/61 58/58/58 60/60/60
f 18/18/18 50/50/50 61/61/61
f 61/61/61 50/50/50 58/58/58
f 62/62/62 61/61/61 60/60/60
f 16/16/16 61/61/61 62/62/62
f 16/16/16 18/18/18 61/61/61
f 14/14/14 16/16/16 62/62/62
f 60/60/60 59/59/59 63/63/63
f 64/64/64 60/60/60 63/63/63
f 62/62/62 60/60/60 64/64/64
f 64/64/64 63/63/63 65/65/65
f 66/66/66 64/64/64 65/65/65
f 67/67/67 64/64/64 66/66/66
f 14/14/14 62/62/62 67/67/67
f 67/67/67 62/62/62 64/64/64
f 68/68/68 67/67/67 66/66/66
f 12/12/12 67/67/67 68/68/68
f 12/12/12 14/14/14 67/67/67
f 10/10/10 12/12/12 68/68/68
f 66/66/66 65/65/65 69/69/69
f 70/70/70 66/66/66 69/69/69
f 68/68/68 66/66/66 70/70/70
f 70/70/70 69/69/69 4/4/4
f 1/1/1 70/70/70 4/4/4
f 71/71/71 70/70/70 1/1/1
f 10/10/10 68/68/68 71/71/71
f 71/71/71 68/68/68 70/70/70
f 2/2/2 71/71/71 1/1/1
f 8/8/8 71/71/71 2/2/2
f 8/8/8 10/10/10 71/71/71
f 74/74/74 73/73/73 72/72/72
f 75/75/75 74/74/74 72/72/72
f 74/74/74 76/76/76 73/73/73
f 76/76/76 77/77/77 73/73/73
f 76/76/76 78/78/78 77/77/77
f 78/78/78 79/79/79 77/77/77
f 78/78/78 80/80/80 79/79/79
f 80/80/80 81/81/81 79/79/79
f 80/80/80 82/82/82 81/81/81
f 82/82/82 83/83/83 81/81/81
f 82/82/82 84/84/84 83/83/83
f 84/84/84 85/85/85 83/83/83
f 84/84/84 86/86/86 85/85/85
f 86/86/86 87/87/87 85/85/85
f 86/86/86 88/88/88 87/87/87
f 88/88/88 89/89/89 87/87/87
f 88/88/88 90/90/90 89/89/89
f 90/90/90 91/91/91 89/89/89
f 90/90/90 92/92/92 91/91/91
f 92/92/92 93/93/93 91/91/91
f 92/92/92 94/94/94 93/93/93
f 94/94/94 95/95/95 93/93/93
f 94/94/94 96/96/96 95/95/95
f 96/96/96 97/97/97 95/95/95
f 96/96/96 98/98/98 97/97/97
f 98/98/98 99/99/99 97/97/97
f 98/98/98 100/100/100 99/99/99
f 100/100/100 101/101/101 99/99/99
f 100/100/100 102/102/102 101/101/101
f 102/102/102 103/103/103 101/101/101
f 104/104/104 102/102/102 100/100/100
f 105/105/105 104/104/104 100/100/100
f 105/105/105 100/100/100 98/98/98
f 106/106/106 104/104/104 105/105/105
f 107/107/107 106/106/106 105/105/105
f 108/108/108 106/106/106 107/107/107
f 109/109/109 108/108/108 107/107/107
f 110/110/110 98/98/98 96/96/96
f 107/107/107 105/105/105 110/110/110
f 110/110/110 105/105/105 98/98/98
f 111/111/111 110/110/110 96/96/96
f 112/112/112 110/110/110 111/111/111
f 112/112/112 107/107/107 110/110/110
f 109/109/109 107/107/107 112/112/112
f 113/113/113 112/112/112 111/111/111
f 114/114/114 112/112/112 113/113/113
f 114/114/114 109/109/109 112/112/112
f 115/115/115 114/114/114 113/113/113
f 113/113/113 111/111/111 116/116/116
f 117/117/117 113/113/113 116/116/116
f 115/115/115 113/113/113 117/117/117
f 117/117/117 116/116/116 118/118/118
f 118/118/118 116/116/116 92/92/92
f 116/116/116 94/94/94 92/92/92
f 116/116/116 111/111/111 94/94/94
f 119/119/119 117/117/117 118/118/118
f 111/111/111 96/96/96 94/94/94
f 120/120/120 115/115/115 117/117/117
f 121/121/121 117/117/117 119/119/119
f 122/122/122 121/121/121 119/119/119
f 119/119/119 118/118/118 123/123/123
f 124/124/124 119/119/119 123/123/123
f 122/122/122 119/119/119 124/124/124
f 124/124/124 123/123/123 125/125/125
f 125/125/125 123/123/123 88/88/88
f 123/123/123 90/90/90 88/88/88
f 118/118/118 92/92/92 90/90/90
f 123/123/123 118/118/118 90/90/90
f 126/126/126 124/124/124 125/125/125
f 127/127/127 124/124/124 126/126/126
f 127/127/127 122/122/122 124/124/124
f 128/128/128 127/127/127 126/126/126
f 126/126/126 125/125/125 129/129/129
f 130/130/130 126/126/126 129/129/129
f 128/128/128 126/126/126 130/130/130
f 130/130/130 129/129/129 131/131/131
f 131/131/131 129/129/129 84/84/84
f 129/129/129 86/86/86 84/84/84
f 125/125/125 88/88/88 86/86/86
f 129/129/129 125/125/125 86/86/86
f 132/132/132 130/130/130 131/131/131
f 133/133/133 130/130/130 132/132/132
f 133/133/133 128/128/128 130/130/130
f 134/134/134 133/133/133 132/132/132
f 132/132/132 131/131/131 135/135/135
f 136/136/136 132/132/132 135/135/135
f 134/134/134 132/132/132 136/136/136
f 136/136/136 135/135/135 137/137/137
f 137/137/137 135/135/135 80/80/80
f 135/135/135 82/82/82 80/80/80
f 131/131/131 84/84/84 82/82/82
f 135/135/135 131/131/131 82/82/82
f 138/138/138 136/136/136 137/137/137
f 139/139/139 136/136/136 138/138/138
f 139/139/139 134/134/134 136/136/136
f 140/140/140 139/139/139 138/138/138
f 138/138/138 137/137/137 141/141/141
f 142/142/142 138/138/138 141/141/141
f 140/140/140 138/138/138 142/142/142
f 142/142/142 141/141/141 74/74/74
f 74/74/74 141/141/141 76/76/76
f 141/141/141 78/78/78 76/76/76
f 137/137/137 80/80/80 78/78/78
f 141/141/141 137/137/137 78/78/78
f 75/75/75 142/142/142 74/74/74
f 143/143/143 142/142/142 75/75/75
f 143/143/143 140/140/140 142/142/142
f 72/72/72 143/143/143 75/75/75
f 47/47/47 144/144/144 55/55/55
f 55/55/55 144/144/144 56/56/56
f 144/144/144 145/145/145 56/56/56
f 148/148/148 147/147/147 146/146/146
f 149/149/149 148/148/148 146/146/146
f 150/150/150 148/148/148 149/149/149
f 151/151/151 150/150/150 149/149/149
f 146/146/146 147/147/147 152/152/152
f 147/147/147 153/153/153 152/152/152
f 152/152/152 153/153/153 154/154/154
f 153/153/153 155/155/155 154/154/154
f 154/154/154 155/155/155 156/156/156
f 155/155/155 157/157/157 156/156/156
f 156/156/156 157/157/157 158/158/158
f 157/157/157 159/159/159 158/158/158
f 160/160/160 150/150/150 151/151/151
f 161/161/161 160/160/160 151/151/151
f 159/159/159 160/160/160 161/161/161
f 158/158/158 159/159/159 161/161/161
f 164/164/164 163/163/163 162/162/162
f 165/165/165 164/164/164 162/162/162
f 166/166/166 164/164/164 165/165/165
f 167/167/167 166/166/166 165/165/165
f 167/167/167 165/165/165 162/162/162
f 162/162/162 163/163/163 168/168/168
f 163/163/163 169/169/169 168/168/168
f 168/168/168 169/169/169 170/170/170
f 169/169/169 171/171/171 170/170/170
f 170/170/170 171/171/171 172/172/172
f 171/171/171 173/173/173 172/172/172
f 172/172/172 173/173/173 174/174/174
f 172/172/172 174/174/174 170/170/170
f 173/173/173 175/175/175 174/174/174
f 176/176/176 166/166/166 167/167/167
f 177/177/177 176/176/176 167/167/167
f 175/175/175 176/176/176 177/177/177
f 174/174/174 175/175/175 177/177/177
f 178/178/178 167/167/167 162/162/162
f 177/177/177 167/167/167 178/178/178
f 174/174/174 177/177/177 178/178/178
f 170/170/170 178/178/178 168/168/168
f 174/174/174 178/178/178 170/170/170
f 178/178/178 162/162/162 168/168/168
