g meger3d_Char2_sundries_C6_3
v -0.00863639 -0.4324818 0.01708878
v -0.1337516 0.03523939 0.2395172
v 0.1539507 0.04725616 0.248415
v -0.00863639 -0.4324818 0.01708878
v 0.2883307 0.01559569 0.004651698
v 0.16632 -0.01887668 -0.238948
v -0.00863639 -0.4324818 0.01708878
v -0.1294847 0.02928007 -0.2441574
v -0.2863139 0.0415936 0.002140465
v -0.00863639 -0.4324818 0.01708878
v 0.1539507 0.04725616 0.248415
v 0.2883307 0.01559569 0.004651698
v -0.006150201 0.4334995 -0.007038638
v -0.1337516 0.03523939 0.2395172
v -0.2863139 0.0415936 0.002140465
v -0.00863639 -0.4324818 0.01708878
v 0.16632 -0.01887668 -0.238948
v -0.1294847 0.02928007 -0.2441574
v 0.1539507 0.04725616 0.248415
v -0.1337516 0.03523939 0.2395172
v -0.006150201 0.4334995 -0.007038638
v 0.16632 -0.01887668 -0.238948
v 0.2883307 0.01559569 0.004651698
v -0.006150201 0.4334995 -0.007038638
v -0.2863139 0.0415936 0.002140465
v -0.1294847 0.02928007 -0.2441574
v -0.006150201 0.4334995 -0.007038638
v 0.2883307 0.01559569 0.004651698
v 0.1539507 0.04725616 0.248415
v -0.006150201 0.4334995 -0.007038638
v -0.2863139 0.0415936 0.002140465
v -0.1337516 0.03523939 0.2395172
v -0.00863639 -0.4324818 0.01708878
v -0.1294847 0.02928007 -0.2441574
v 0.16632 -0.01887668 -0.238948
v -0.006150201 0.4334995 -0.007038638
vt 0.5221461 0.6219853
vt 0.5221461 0.9111262
vt 0.5221461 0.768766
vt 0.5221461 0.6225849
vt 0.5221461 0.9124907
vt 0.5221461 0.7590801
vt 0.5221461 0.6127324
vt 0.5221461 0.904713
vt 0.5221461 0.7633882
vt 0.5221461 0.6238677
vt 0.5221461 0.9207816
vt 0.5221461 0.7731048
vt 0.5221461 0.6448097
vt 0.5221461 0.9063742
vt 0.5221461 0.7708687
vt 0.5221461 0.6194403
vt 0.5221461 0.8880182
vt 0.5221461 0.779694
vt 0.5221461 0.9065233
vt 0.5221461 0.7691334
vt 0.5221461 0.6426072
vt 0.5221461 0.9127191
vt 0.5221461 0.775225
vt 0.5221461 0.6306529
vt 0.5221461 0.9039626
vt 0.5221461 0.7695512
vt 0.5221461 0.6439754
vt 0.5221461 0.8969873
vt 0.5221461 0.7637107
vt 0.5221461 0.6284514
vt 0.5221461 0.9043512
vt 0.5221461 0.7566757
vt 0.5221461 0.6105341
vt 0.5221461 0.8881657
vt 0.5221461 0.8029498
vt 0.5221461 0.642211
vn -0.009869551 -0.4315988 0.9020118
vn -0.03254652 0.03975021 0.9986795
vn -0.03365933 0.0675256 0.9971496
vn 0.7859869 -0.5297655 -0.3187052
vn 0.8924349 0.02477255 -0.4504954
vn 0.8958245 -0.05093183 -0.4414799
vn -0.7594759 -0.4593678 -0.4606273
vn -0.843225 0.0106894 -0.5374544
vn -0.8428037 0.02221458 -0.5377624
vn 0.7413512 -0.4782688 0.470805
vn 0.7413512 -0.4782687 0.470805
vn 0.7413512 -0.4782687 0.470805
vn -0.7121016 0.5201091 0.4715909
vn -0.7121016 0.5201089 0.4715909
vn -0.7121015 0.520109 0.4715909
vn -0.06697778 -0.5045303 -0.8607922
vn -0.06697778 -0.5045303 -0.8607922
vn -0.06697778 -0.5045303 -0.8607922
vn -0.03365933 0.0675256 0.9971496
vn -0.03254652 0.03975021 0.9986795
vn -0.04847451 0.5369391 0.8422273
vn 0.8958245 -0.05093183 -0.4414799
vn 0.8924349 0.02477255 -0.4504954
vn 0.738998 0.508377 -0.44208
vn -0.8428037 0.02221458 -0.5377624
vn -0.843225 0.0106894 -0.5374544
vn -0.7179618 0.5019577 -0.4822544
vn 0.7614722 0.5463382 0.3488192
vn 0.7614722 0.5463381 0.3488191
vn 0.7614722 0.5463382 0.3488191
vn -0.7638028 -0.432264 0.4793257
vn -0.7638028 -0.432264 0.4793258
vn -0.7638028 -0.432264 0.4793258
vn 0.093854 0.482284 -0.8709728
vn 0.093854 0.482284 -0.8709728
vn 0.093854 0.482284 -0.8709728
g meger3d_Char2_sundries_C6_3_0
f 3/3/3 2/2/2 1/1/1
f 6/6/6 5/5/5 4/4/4
f 9/9/9 8/8/8 7/7/7
f 12/12/12 11/11/11 10/10/10
f 15/15/15 14/14/14 13/13/13
f 18/18/18 17/17/17 16/16/16
f 21/21/21 20/20/20 19/19/19
f 24/24/24 23/23/23 22/22/22
f 27/27/27 26/26/26 25/25/25
f 30/30/30 29/29/29 28/28/28
f 33/33/33 32/32/32 31/31/31
f 36/36/36 35/35/35 34/34/34
