g meger3d_Char_sundries_C3_7
v 0.1313112 0.08243851 0.03352425
v -0.01851105 0.12776 0.08148392
v -0.02416061 0.190585 0.03291611
v 0.1235826 0.1606715 -0.04179481
v -0.143362 0.08630706 0.03027466
v -0.1394733 0.1626144 -0.02625099
v 0.1339743 0.005880127 0.2111768
v -0.01630707 0.03703262 0.2333717
v 0.1847055 -0.001171265 -0.161507
v 0.1543417 0.1150981 -0.1837249
v 0.1948108 -0.1032048 -0.01408142
v 0.2273566 -0.1032715 0.1942473
v 0.1605389 -0.004923248 -0.3428607
v 0.1569366 -0.07459808 -0.3186136
v 0.1839664 -0.06878616 -0.1616131
v 0.1431666 0.1130548 -0.3289084
v -0.02823547 0.2540294 0.007638016
v -0.1426532 0.2251866 -0.05806236
v -0.161644 0.1099231 -0.1291309
v -0.1571033 0.2018402 -0.2308058
v -0.1903743 0.3043762 -0.2273045
v -0.1519244 0.3278569 -0.07431801
v 0.02939072 0.1060545 -0.4020228
v 0.02816055 0.196765 -0.3993889
v 0.1521129 0.2007843 -0.3176112
v 0.03135407 0.3143576 -0.397183
v 0.154167 0.3139056 -0.3162511
v -0.08431427 0.30729 -0.3642663
v -0.08331634 0.1975853 -0.3650032
v -0.1571033 0.2018402 -0.2308058
v -0.1903743 0.3043762 -0.2273045
v 0.1507687 0.2142682 -0.1794431
v 0.1864978 0.3123816 -0.1685069
v 0.1023004 0.2326907 -0.05843117
v 0.1045543 0.325395 -0.05829895
v -0.08645172 0.1067744 -0.3730955
v -0.1546976 0.1039772 -0.2441885
v -0.1010434 -0.00375061 -0.3826315
v -0.1604852 0.004824371 -0.2378004
v -0.1087202 -0.07545273 -0.3577686
v -0.1633742 -0.0688533 -0.2025249
v 0.03539474 -0.009310608 -0.4262182
v 0.02836899 -0.0761882 -0.4019179
v -0.03502716 0.3673842 0.02150383
v 0.07943573 0.3514227 -0.02696159
v -0.1333212 0.353952 -0.05121407
v -0.02950333 0.3593294 -0.01254166
v -0.1077177 0.3486433 -0.07039833
v 0.061586 0.3466318 -0.05110138
v 0.08159073 0.3193819 -0.07604141
v 0.1467967 0.3050459 -0.1637449
v 0.1210617 0.3062518 -0.2813247
v 0.02332596 0.3066203 -0.3457229
v -0.06871506 0.3009926 -0.3195257
v -0.153125 0.2986813 -0.2105397
v -0.1604852 0.004824371 -0.2378004
v -0.1546976 0.1039772 -0.2441885
v -0.1659316 0.007152405 -0.1122279
v -0.1818812 -0.1032387 -0.03011452
v -0.1633742 -0.0688533 -0.2025249
v -0.2063519 -0.1033557 0.1714812
v -0.1530991 -0.0003172302 0.1938313
v -0.1980425 -0.1034889 0.3047893
v -0.1548952 -0.01470383 0.3765482
v -0.004360809 0.01919479 0.4125441
v -0.1473209 -0.1034889 0.4115328
v 0.002672424 -0.1031877 0.4420691
v 0.1320738 -0.01463745 0.4042206
v 0.1262077 -0.1032387 0.4226784
v 0.210612 -0.1032548 0.3436969
v 0.185047 -0.1781886 -0.3329612
v 0.181851 -0.07406143 -0.3354698
v 0.03307434 -0.07801483 -0.4315852
v 0.02075974 -0.1801651 -0.4271276
v 0.2181937 -0.1187642 -0.1653169
v 0.2174969 -0.1789761 -0.1646431
v -0.130018 -0.07488266 -0.3790266
v -0.14145 -0.1769159 -0.3745808
v 0.2137909 -0.06614029 -0.1645597
v 0.2183076 -0.09022445 -0.02469757
v 0.225321 -0.1667326 -0.04429695
v 0.2574258 -0.1020657 0.1941086
v 0.2601955 -0.1766313 0.2113695
v 0.2372537 -0.1017474 0.3576132
v 0.2390579 -0.176815 0.3622779
v 0.1411777 -0.1021991 0.4487486
v 0.1423888 -0.1771333 0.4510438
v 0.005075226 -0.1756764 0.4787363
v 0.001890106 -0.1005418 0.4720336
v -0.1611478 -0.1770329 0.4432321
v -0.1664979 -0.1021829 0.4346783
v -0.2313531 -0.1768825 0.3124439
v -0.227117 -0.1018483 0.3123663
v -0.2374914 -0.1781381 0.1719204
v -0.2364233 -0.1029532 0.1705698
v -0.2117618 -0.1019821 -0.03340095
v -0.2136996 -0.1667665 -0.04232445
v -0.1864722 -0.1191157 -0.1926039
v -0.1917859 -0.0752681 -0.2101238
v -0.1917859 -0.0752681 -0.2101238
v -0.1864722 -0.1191157 -0.1926039
v -0.1868076 -0.1771333 -0.2046561
v 0.005075226 -0.1756764 0.4787363
v 0.1423888 -0.1771333 0.4510438
v -0.1611478 -0.1770329 0.4432321
v -0.2313531 -0.1768825 0.3124439
v 0.2390579 -0.176815 0.3622779
v 0.2601955 -0.1766313 0.2113695
v -0.2374914 -0.1781381 0.1719204
v 0.225321 -0.1667326 -0.04429695
v -0.2136996 -0.1667665 -0.04232445
v -0.1864722 -0.1191157 -0.1926039
v 0.2181937 -0.1187642 -0.1653169
v 0.2174969 -0.1789761 -0.1646431
v -0.1868076 -0.1771333 -0.2046561
v -0.1864722 -0.1191157 -0.1926039
v 0.2181937 -0.1187642 -0.1653169
v -0.1868076 -0.1771333 -0.2046561
v 0.2174969 -0.1789761 -0.1646431
v 0.185047 -0.1781886 -0.3329612
v -0.14145 -0.1769159 -0.3745808
v 0.02075974 -0.1801651 -0.4271276
v -0.1087202 -0.07545273 -0.3577686
v -0.1633742 -0.0688533 -0.2025249
v -0.1917859 -0.0752681 -0.2101238
v -0.130018 -0.07488266 -0.3790266
v 0.02836899 -0.0761882 -0.4019179
v 0.03307434 -0.07801483 -0.4315852
v 0.1569366 -0.07459808 -0.3186136
v 0.181851 -0.07406143 -0.3354698
v 0.2137909 -0.06614029 -0.1645597
v 0.1839664 -0.06878616 -0.1616131
v 0.2183076 -0.09022445 -0.02469757
v 0.1948108 -0.1032048 -0.01408142
v 0.2574258 -0.1020657 0.1941086
v 0.2273566 -0.1032715 0.1942473
v 0.210612 -0.1032548 0.3436969
v 0.2372537 -0.1017474 0.3576132
v 0.1411777 -0.1021991 0.4487486
v 0.1262077 -0.1032387 0.4226784
v 0.001890106 -0.1005418 0.4720336
v 0.002672424 -0.1031877 0.4420691
v -0.1473209 -0.1034889 0.4115328
v -0.1664979 -0.1021829 0.4346783
v -0.227117 -0.1018483 0.3123663
v -0.1980425 -0.1034889 0.3047893
v -0.2364233 -0.1029532 0.1705698
v -0.2063519 -0.1033557 0.1714812
v -0.2117618 -0.1019821 -0.03340095
v -0.1818812 -0.1032387 -0.03011452
v -0.1633742 -0.0688533 -0.2025249
v -0.1917859 -0.0752681 -0.2101238
v -0.153125 0.2986813 -0.2105397
v -0.122524 0.3213425 -0.08879135
v 0.1467967 0.3050459 -0.1637449
v 0.09479614 0.1489142 -0.1631338
v 0.07789734 0.1497176 -0.2403734
v 0.1210617 0.3062518 -0.2813247
v 0.0519725 0.1557144 -0.1055209
v 0.08159073 0.3193819 -0.07604141
v 0.0388356 0.1693304 -0.08913726
v 0.061586 0.3466318 -0.05110138
v 0.01370666 0.1499524 -0.282665
v 0.02332596 0.3066203 -0.3457229
v -0.06871506 0.3009926 -0.3195257
v -0.04675629 0.1462506 -0.2654577
v -0.153125 0.2986813 -0.2105397
v -0.1022054 0.1447264 -0.1938711
v -0.08210388 0.1570038 -0.1139059
v -0.122524 0.3213425 -0.08879135
v -0.07238052 0.1706538 -0.10182
v -0.1077177 0.3486433 -0.07039833
v -0.0210054 0.177671 -0.06381485
v -0.02950333 0.3593294 -0.01254166
v -0.004718017 0.1569867 -0.1619762
vt 0.109191 0.081546
vt 0.085583 0.072378
vt 0.080701 0.083568
vt 0.103588 0.096233
vt 0.064903 0.065972
vt 0.060741 0.079115
vt 0.115796 0.05508
vt 0.095127 0.047687
vt 0.133145 0.102649
vt 0.119886 0.112277
vt 0.138523 0.080982
vt 0.135768 0.055557
vt 0.145135 0.124131
vt 0.153102 0.117853
vt 0.14194 0.099033
vt 0.130454 0.130722
vt 0.076684 0.092808
vt 0.057564 0.08866
vt 0.043745 0.076513
vt 0.032829 0.091486
vt 0.034554 0.104929
vt 0.055286 0.102857
vt 0.139384 0.148027
vt 0.128105 0.152911
vt 0.119056 0.134556
vt 0.113018 0.158787
vt 0.105613 0.142097
vt 0.11847 0.17253
vt 0.13311 0.168243
vt 0.138049 0.188944
vt 0.124076 0.195277
vt 0.108157 0.118422
vt 0.096516 0.12608
vt 0.095738 0.103747
vt 0.087476 0.112815
vt 0.145048 0.163942
vt 0.151023 0.183446
vt 0.159828 0.159903
vt 0.165078 0.18043
vt 0.170427 0.158987
vt 0.176386 0.18177
vt 0.154299 0.141736
vt 0.163076 0.138632
vt 0.070914 0.108268
vt 0.082152 0.112723
vt 0.058593 0.105801
vt 0.069712 0.112249
vt 0.058077 0.110067
vt 0.080866 0.116167
vt 0.084871 0.116406
vt 0.09167 0.127553
vt 0.099503 0.143344
vt 0.106881 0.160687
vt 0.113371 0.175945
vt 0.11828 0.195228
vt 0.023911 0.068655
vt 0.027884 0.080692
vt 0.040525 0.063349
vt 0.04295 0.046034
vt 0.024777 0.058159
vt 0.062608 0.031631
vt 0.075328 0.041521
vt 0.072359 0.017452
vt 0.087025 0.019602
vt 0.105221 0.025715
vt 0.08833 0.007422
vt 0.111395 0.009867
vt 0.121669 0.029463
vt 0.128085 0.019065
vt 0.136658 0.035693
vt 0.447165 0.114271
vt 0.434271 0.116899
vt 0.435993 0.138291
vt 0.449243 0.139771
vt 0.433223 0.094149
vt 0.440973 0.092046
vt 0.433935 0.158739
vt 0.446783 0.162419
vt 0.426975 0.096977
vt 0.420037 0.080385
vt 0.429964 0.077197
vt 0.406356 0.054869
vt 0.412977 0.047465
vt 0.393552 0.038839
vt 0.399942 0.031557
vt 0.380434 0.029687
vt 0.385053 0.021103
vt 0.366937 0.014326
vt 0.364048 0.024001
vt 0.344227 0.010762
vt 0.34319 0.020419
vt 0.324247 0.014039
vt 0.326752 0.023279
vt 0.3063 0.020322
vt 0.309953 0.029457
vt 0.285923 0.041026
vt 0.281354 0.033794
vt 0.265615 0.047414
vt 0.266052 0.053566
vt 0.426757 0.179992
vt 0.431899 0.183712
vt 0.439776 0.18455
vt 0.088885 0.174287
vt 0.092643 0.162658
vt 0.079079 0.185412
vt 0.066132 0.185163
vt 0.090021 0.151511
vt 0.079447 0.143455
vt 0.055179 0.179625
vt 0.058497 0.13517
vt 0.03988 0.168643
vt 0.029053 0.159835
vt 0.048296 0.130142
vt 0.043853 0.127335
vt 0.02465 0.157128
vt 0.029053 0.159835
vt 0.048296 0.130142
vt 0.02465 0.157128
vt 0.043853 0.127335
vt 0.029495 0.123153
vt 0.013264 0.146842
vt 0.015642 0.132154
vt 0.430536 0.157846
vt 0.423173 0.178378
vt 0.426757 0.179992
vt 0.433935 0.158739
vt 0.432433 0.138303
vt 0.435993 0.138291
vt 0.430671 0.117674
vt 0.434271 0.116899
vt 0.426975 0.096977
vt 0.423346 0.098537
vt 0.420037 0.080385
vt 0.416325 0.080935
vt 0.406356 0.054869
vt 0.403187 0.057096
vt 0.391061 0.041625
vt 0.393552 0.038839
vt 0.380434 0.029687
vt 0.378455 0.032967
vt 0.364048 0.024001
vt 0.363047 0.027757
vt 0.343333 0.024026
vt 0.34319 0.020419
vt 0.326752 0.023279
vt 0.327838 0.027039
vt 0.309953 0.029457
vt 0.311484 0.033071
vt 0.285923 0.041026
vt 0.287824 0.04447
vt 0.268496 0.056609
vt 0.266052 0.053566
vt 0.037962 0.109196
vt 0.05411 0.10762
vt 0.416476 0.039314
vt 0.431457 0.033358
vt 0.433494 0.024987
vt 0.41835 0.017532
vt 0.435514 0.039893
vt 0.42893 0.055431
vt 0.437072 0.04193
vt 0.433364 0.060775
vt 0.44071 0.020426
vt 0.434763 0.004339
vt 0.452511 0.006397
vt 0.447257 0.022003
vt 0.468412 0.025882
vt 0.452686 0.02987
vt 0.450345 0.038162
vt 0.464812 0.04822
vt 0.449937 0.040192
vt 0.464049 0.053247
vt 0.443987 0.044204
vt 0.450756 0.062898
vt 0.442 0.033668
vn 0.7485895 0.5990888 0.284089
vn 0.0009335061 0.8254533 0.5644697
vn 0.03378679 0.5466603 0.8366725
vn 0.835243 0.3621949 0.4137439
vn -0.8178812 0.5005653 0.2837335
vn -0.8072369 0.2999775 0.5083129
vn 0.619968 0.767611 0.1625207
vn -0.02046568 0.9628487 0.2692651
vn 0.9847487 0.1739773 0.001403114
vn 0.984933 0.1683406 0.03960548
vn 0.9133161 0.404522 0.04707097
vn 0.8454786 0.5326984 0.0373951
vn 0.8464486 0.0472649 -0.5303685
vn 0.8704941 -0.1840544 -0.456469
vn 0.9912788 -0.04234835 -0.1247912
vn 0.8565439 0.1321028 -0.4988802
vn -0.02097861 0.1547075 0.9877375
vn -0.873795 0.01029127 0.4861856
vn -0.9958937 0.07630578 0.04871574
vn -0.9632461 -0.07731852 -0.2572525
vn -0.9822649 0.08803713 -0.165545
vn -0.8827491 0.0471324 0.4674746
vn 0.1770382 0.1349776 -0.9749044
vn 0.1891561 0.02869498 -0.9815277
vn 0.8645251 -0.04515178 -0.5005574
vn 0.1985922 0.3078129 -0.9304904
vn 0.8248715 0.2242298 -0.5189491
vn -0.6195759 0.2399652 -0.747357
vn -0.6487554 -0.007247535 -0.7609624
vn -0.9632461 -0.07731852 -0.2572525
vn -0.9822649 0.08803713 -0.165545
vn 0.9879417 -0.06681608 0.1396668
vn 0.9747787 0.09316003 0.2027994
vn 0.7621464 0.05244796 0.6452768
vn 0.7216989 0.01550099 0.6920334
vn -0.651513 0.1038819 -0.7514914
vn -0.9464033 0.06042981 -0.317284
vn -0.6617109 -0.01074761 -0.7496821
vn -0.9608739 0.02063293 -0.2762165
vn -0.7567118 -0.177784 -0.6291106
vn -0.976278 -0.01552951 -0.2159631
vn 0.1718809 -0.02338962 -0.98484
vn 0.1224306 -0.3364424 -0.9337115
vn -0.1249487 0.2952975 0.9471997
vn 0.5255411 0.1298012 0.840808
vn -0.6050213 0.2264269 0.7633349
vn 0.1080807 0.5367835 -0.8367687
vn 0.4600237 0.4530388 -0.7636321
vn -0.3030444 0.4423216 -0.8441065
vn -0.6418794 0.4220261 -0.6402224
vn -0.8026376 0.5658166 -0.1887441
vn -0.6220761 0.6486747 0.4384547
vn -0.165682 0.6937978 0.7008525
vn 0.4387484 0.6381537 0.6326608
vn 0.7898895 0.6010756 0.1215838
vn -0.9608739 0.02063293 -0.2762165
vn -0.9464033 0.06042981 -0.317284
vn -0.9952087 0.0969623 0.01257199
vn -0.9664069 0.2567614 -0.01145985
vn -0.976278 -0.01552951 -0.2159631
vn -0.9385205 0.3452233 0.0003166303
vn -0.7223832 0.6741934 0.1537066
vn -0.9114027 0.403893 0.07883845
vn -0.4985944 0.7612063 0.414691
vn -0.02586134 0.8731134 0.4868307
vn -0.374402 0.2511372 0.8926104
vn -0.0641335 0.250382 0.9660205
vn 0.4499802 0.7946327 0.4075252
vn 0.2676707 0.2007823 0.9423581
vn 0.7800479 0.6119747 0.130431
vn 0.7862553 -0.02645257 -0.6173353
vn 0.7630135 -0.0270897 -0.6458147
vn 0.1642594 -0.03425337 -0.9858223
vn 0.1052954 -0.03099806 -0.9939576
vn 0.989702 0.04822706 -0.134775
vn 0.9801937 0.01107771 -0.1977307
vn -0.6465335 0.02735786 -0.7623949
vn -0.7123217 0.04284327 -0.7005443
vn 0.9928246 0.08902042 -0.07984214
vn 0.9909273 0.0736333 -0.1124335
vn 0.9914837 0.07474095 -0.1066478
vn 0.9962721 0.06129509 -0.06070216
vn 0.9981076 0.05880087 -0.01799614
vn 0.9064486 0.05154159 0.4191591
vn 0.8981383 0.05152378 0.4366839
vn 0.440066 0.05850152 0.8960578
vn 0.441628 0.05845096 0.8952922
vn -0.03030526 0.07786695 0.9965031
vn -0.04143634 0.0784919 0.9960532
vn -0.5453994 0.06487022 0.8356622
vn -0.5987782 0.05991714 0.7986706
vn -0.9649922 0.02849955 0.2607255
vn -0.9637899 0.02832539 0.265154
vn -0.9986442 0.03117343 -0.04168984
vn -0.9985176 0.03102378 -0.04472225
vn -0.9917753 0.00231798 -0.1279698
vn -0.9917715 0.00226118 -0.1280006
vn -0.9741677 0.002799751 -0.2258083
vn -0.9623939 -0.1343762 -0.2360956
vn -0.9623939 -0.1343762 -0.2360956
vn -0.9741677 0.002799751 -0.2258083
vn -0.9608849 0.08320069 -0.264155
vn -0.001492558 -0.9989789 0.04515494
vn 9.870518E-05 -0.9999987 -0.001630189
vn 9.980354E-05 -0.9999987 -0.001662483
vn 0.0009838189 -0.999997 0.002249371
vn 0.0009984302 -0.9999968 0.002322905
vn 0.002547933 -0.9996886 -0.02482286
vn 0.002635788 -0.9996372 -0.02680453
vn 0.005799711 -0.9899532 -0.1412767
vn 0.005681882 -0.9906332 -0.136431
vn 0.01038364 -0.9433261 -0.3317051
vn 0.01038364 -0.9433261 -0.3317051
vn -0.08270619 -0.09475309 0.9920592
vn -0.0827062 -0.0947531 0.9920592
vn -0.0827062 -0.09475311 0.9920592
vn -0.08270619 -0.09475311 0.9920592
vn -0.00391457 -0.9999875 -0.003120439
vn -0.003914569 -0.9999875 -0.003120439
vn -0.004089951 -0.9999903 -0.001619154
vn -0.004129679 -0.9999907 -0.001279064
vn -0.00844809 -0.9993263 0.03571396
vn -0.04467264 0.998233 -0.03918362
vn -0.1033358 0.9928463 0.05981609
vn -0.1030467 0.9930012 0.05770628
vn -0.04585272 0.998167 -0.03949647
vn 0.001431972 0.9996232 -0.02741223
vn 0.001326108 0.9996221 -0.02745731
vn -0.03609364 0.9989257 -0.02906003
vn -0.03581988 0.9989358 -0.02905685
vn -0.1429956 0.9864858 0.07998701
vn -0.1419839 0.9867527 0.07848302
vn -0.2352104 0.9621965 0.1373095
vn -0.2383739 0.9650061 0.1092748
vn -0.1580611 0.9867874 0.03559618
vn -0.1604729 0.9863648 0.03650811
vn -0.03981176 0.9990608 -0.01710766
vn -0.03966746 0.9990624 -0.01734645
vn -0.01790029 0.9987074 -0.04757207
vn -0.01677341 0.9986601 -0.04895592
vn 0.003075361 0.9976808 -0.06799753
vn 0.003063241 0.9976811 -0.06799175
vn 0.02567763 0.9984488 -0.04940229
vn 0.02639318 0.9984754 -0.04848053
vn 0.04013243 0.9991087 -0.01307974
vn 0.0401625 0.9991071 -0.01311525
vn 0.02989779 0.9995521 0.001312913
vn 0.029906 0.9995518 0.001298463
vn -0.03937503 0.9962513 0.0770252
vn -0.03955447 0.9962295 0.07721612
vn -0.1033358 0.9928463 0.05981609
vn -0.1030467 0.9930012 0.05770628
vn 0.7898895 0.6010756 0.1215838
vn 0.7432514 0.4963541 -0.4485643
vn -0.8026376 0.5658166 -0.1887441
vn -0.8704355 0.4505123 -0.1984459
vn -0.720704 0.5022621 0.4778268
vn -0.6220761 0.6486747 0.4384547
vn -0.6723235 0.4069732 -0.6183478
vn -0.6418794 0.4220261 -0.6402224
vn -0.3904699 0.3715779 -0.8422964
vn -0.3030444 0.4423216 -0.8441065
vn -0.1766615 0.5236017 0.8334458
vn -0.165682 0.6937978 0.7008525
vn 0.4387484 0.6381537 0.6326608
vn 0.5268162 0.5007193 0.6868368
vn 0.7898895 0.6010756 0.1215838
vn 0.8648221 0.4716136 0.1722304
vn 0.8353032 0.4181569 -0.3569501
vn 0.7432514 0.4963541 -0.4485643
vn 0.4997767 0.3787532 -0.778954
vn 0.4600237 0.4530388 -0.7636321
vn 0.1041721 0.3708553 -0.9228296
vn 0.1080807 0.5367835 -0.8367687
vn -0.005297195 0.9950512 -0.09922246
g meger3d_Char_sundries_C3_7_0
f 3/3/3 2/2/2 1/1/1
f 4/4/4 3/3/3 1/1/1
f 5/5/5 2/2/2 3/3/3
f 6/6/6 5/5/5 3/3/3
f 7/7/7 1/1/1 2/2/2
f 8/8/8 7/7/7 2/2/2
f 1/1/1 9/9/9 4/4/4
f 9/9/9 10/10/10 4/4/4
f 11/11/11 1/1/1 7/7/7
f 11/11/11 9/9/9 1/1/1
f 12/12/12 11/11/11 7/7/7
f 9/9/9 13/13/13 10/10/10
f 14/14/14 13/13/13 9/9/9
f 15/15/15 14/14/14 9/9/9
f 9/9/9 11/11/11 15/15/15
f 13/13/13 16/16/16 10/10/10
f 3/3/3 17/17/17 6/6/6
f 17/17/17 18/18/18 6/6/6
f 6/6/6 18/18/18 19/19/19
f 6/6/6 19/19/19 5/5/5
f 18/18/18 20/20/20 19/19/19
f 20/20/20 18/18/18 21/21/21
f 18/18/18 22/22/22 21/21/21
f 23/23/23 16/16/16 13/13/13
f 23/23/23 24/24/24 16/16/16
f 24/24/24 25/25/25 16/16/16
f 10/10/10 16/16/16 25/25/25
f 24/24/24 26/26/26 25/25/25
f 26/26/26 27/27/27 25/25/25
f 28/28/28 26/26/26 24/24/24
f 29/29/29 28/28/28 24/24/24
f 29/29/29 30/30/30 28/28/28
f 30/30/30 31/31/31 28/28/28
f 25/25/25 27/27/27 32/32/32
f 27/27/27 33/33/33 32/32/32
f 34/34/34 32/32/32 33/33/33
f 35/35/35 34/34/34 33/33/33
f 32/32/32 34/34/34 4/4/4
f 4/4/4 34/34/34 3/3/3
f 34/34/34 17/17/17 3/3/3
f 10/10/10 32/32/32 4/4/4
f 32/32/32 10/10/10 25/25/25
f 36/36/36 29/29/29 24/24/24
f 29/29/29 36/36/36 37/37/37
f 30/30/30 29/29/29 37/37/37
f 37/37/37 36/36/36 38/38/38
f 39/39/39 37/37/37 38/38/38
f 38/38/38 40/40/40 39/39/39
f 40/40/40 41/41/41 39/39/39
f 38/38/38 36/36/36 23/23/23
f 42/42/42 38/38/38 23/23/23
f 42/42/42 23/23/23 13/13/13
f 43/43/43 42/42/42 13/13/13
f 38/38/38 42/42/42 43/43/43
f 40/40/40 38/38/38 43/43/43
f 14/14/14 43/43/43 13/13/13
f 23/23/23 36/36/36 24/24/24
f 45/45/45 44/44/44 17/17/17
f 46/46/46 17/17/17 44/44/44
f 44/44/44 47/47/47 46/46/46
f 47/47/47 44/44/44 45/45/45
f 47/47/47 48/48/48 46/46/46
f 46/46/46 48/48/48 22/22/22
f 22/22/22 18/18/18 46/46/46
f 18/18/18 17/17/17 46/46/46
f 45/45/45 17/17/17 34/34/34
f 35/35/35 45/45/45 34/34/34
f 49/49/49 45/45/45 35/35/35
f 49/49/49 47/47/47 45/45/45
f 50/50/50 49/49/49 35/35/35
f 51/51/51 50/50/50 35/35/35
f 33/33/33 51/51/51 35/35/35
f 52/52/52 51/51/51 33/33/33
f 27/27/27 52/52/52 33/33/33
f 53/53/53 52/52/52 27/27/27
f 26/26/26 53/53/53 27/27/27
f 53/53/53 26/26/26 28/28/28
f 54/54/54 53/53/53 28/28/28
f 54/54/54 28/28/28 31/31/31
f 55/55/55 54/54/54 31/31/31
f 19/19/19 57/57/57 56/56/56
f 58/58/58 19/19/19 56/56/56
f 19/19/19 58/58/58 5/5/5
f 58/58/58 59/59/59 5/5/5
f 58/58/58 60/60/60 59/59/59
f 60/60/60 58/58/58 56/56/56
f 5/5/5 59/59/59 61/61/61
f 62/62/62 5/5/5 61/61/61
f 62/62/62 61/61/61 63/63/63
f 64/64/64 62/62/62 63/63/63
f 5/5/5 62/62/62 2/2/2
f 62/62/62 8/8/8 2/2/2
f 62/62/62 64/64/64 8/8/8
f 64/64/64 65/65/65 8/8/8
f 64/64/64 66/66/66 65/65/65
f 66/66/66 64/64/64 63/63/63
f 66/66/66 67/67/67 65/65/65
f 65/65/65 67/67/67 68/68/68
f 8/8/8 65/65/65 68/68/68
f 67/67/67 69/69/69 68/68/68
f 70/70/70 68/68/68 69/69/69
f 7/7/7 8/8/8 68/68/68
f 7/7/7 68/68/68 70/70/70
f 12/12/12 7/7/7 70/70/70
f 73/73/73 72/72/72 71/71/71
f 74/74/74 73/73/73 71/71/71
f 71/71/71 72/72/72 75/75/75
f 76/76/76 71/71/71 75/75/75
f 77/77/77 73/73/73 74/74/74
f 78/78/78 77/77/77 74/74/74
f 79/79/79 75/75/75 72/72/72
f 75/75/75 79/79/79 80/80/80
f 81/81/81 75/75/75 80/80/80
f 80/80/80 82/82/82 81/81/81
f 82/82/82 83/83/83 81/81/81
f 83/83/83 82/82/82 84/84/84
f 85/85/85 83/83/83 84/84/84
f 85/85/85 84/84/84 86/86/86
f 87/87/87 85/85/85 86/86/86
f 87/87/87 86/86/86 88/88/88
f 86/86/86 89/89/89 88/88/88
f 88/88/88 89/89/89 90/90/90
f 89/89/89 91/91/91 90/90/90
f 90/90/90 91/91/91 92/92/92
f 91/91/91 93/93/93 92/92/92
f 92/92/92 93/93/93 94/94/94
f 93/93/93 95/95/95 94/94/94
f 94/94/94 95/95/95 96/96/96
f 97/97/97 94/94/94 96/96/96
f 98/98/98 97/97/97 96/96/96
f 99/99/99 98/98/98 96/96/96
f 19/19/19 20/20/20 57/57/57
f 77/77/77 101/101/101 100/100/100
f 101/101/101 77/77/77 78/78/78
f 102/102/102 101/101/101 78/78/78
f 105/105/105 104/104/104 103/103/103
f 104/104/104 105/105/105 106/106/106
f 107/107/107 104/104/104 106/106/106
f 107/107/107 106/106/106 108/108/108
f 106/106/106 109/109/109 108/108/108
f 110/110/110 108/108/108 109/109/109
f 111/111/111 110/110/110 109/109/109
f 111/111/111 112/112/112 110/110/110
f 112/112/112 113/113/113 110/110/110
f 116/116/116 115/115/115 114/114/114
f 117/117/117 116/116/116 114/114/114
f 120/120/120 119/119/119 118/118/118
f 121/121/121 120/120/120 118/118/118
f 122/122/122 120/120/120 121/121/121
f 125/125/125 124/124/124 123/123/123
f 126/126/126 125/125/125 123/123/123
f 126/126/126 123/123/123 127/127/127
f 128/128/128 126/126/126 127/127/127
f 128/128/128 127/127/127 129/129/129
f 130/130/130 128/128/128 129/129/129
f 131/131/131 130/130/130 129/129/129
f 132/132/132 131/131/131 129/129/129
f 133/133/133 131/131/131 132/132/132
f 134/134/134 133/133/133 132/132/132
f 135/135/135 133/133/133 134/134/134
f 136/136/136 135/135/135 134/134/134
f 135/135/135 136/136/136 137/137/137
f 138/138/138 135/135/135 137/137/137
f 139/139/139 138/138/138 137/137/137
f 140/140/140 139/139/139 137/137/137
f 141/141/141 139/139/139 140/140/140
f 142/142/142 141/141/141 140/140/140
f 141/141/141 142/142/142 143/143/143
f 144/144/144 141/141/141 143/143/143
f 145/145/145 144/144/144 143/143/143
f 146/146/146 145/145/145 143/143/143
f 147/147/147 145/145/145 146/146/146
f 148/148/148 147/147/147 146/146/146
f 149/149/149 147/147/147 148/148/148
f 150/150/150 149/149/149 148/148/148
f 149/149/149 150/150/150 151/151/151
f 152/152/152 149/149/149 151/151/151
f 153/153/153 21/21/21 22/22/22
f 154/154/154 153/153/153 22/22/22
f 48/48/48 154/154/154 22/22/22
f 157/157/157 156/156/156 155/155/155
f 158/158/158 157/157/157 155/155/155
f 156/156/156 159/159/159 155/155/155
f 159/159/159 160/160/160 155/155/155
f 159/159/159 161/161/161 160/160/160
f 161/161/161 162/162/162 160/160/160
f 163/163/163 157/157/157 158/158/158
f 164/164/164 163/163/163 158/158/158
f 163/163/163 164/164/164 165/165/165
f 166/166/166 163/163/163 165/165/165
f 166/166/166 165/165/165 167/167/167
f 168/168/168 166/166/166 167/167/167
f 169/169/169 168/168/168 167/167/167
f 170/170/170 169/169/169 167/167/167
f 171/171/171 169/169/169 170/170/170
f 172/172/172 171/171/171 170/170/170
f 173/173/173 171/171/171 172/172/172
f 161/161/161 173/173/173 162/162/162
f 174/174/174 173/173/173 172/172/172
f 173/173/173 174/174/174 162/162/162
f 173/173/173 175/175/175 171/171/171
f 169/169/169 175/175/175 168/168/168
f 168/168/168 175/175/175 166/166/166
f 166/166/166 175/175/175 163/163/163
f 171/171/171 175/175/175 169/169/169
f 161/161/161 175/175/175 173/173/173
f 159/159/159 175/175/175 161/161/161
f 156/156/156 175/175/175 159/159/159
f 157/157/157 175/175/175 156/156/156
f 163/163/163 175/175/175 157/157/157
