g meger3d_Char_sundries_C9_2
v 0.08200533 0.3486173 0.08018583
v 0.1115806 0.3792749 0.008784926
v 0.1115806 0.3486173 0.008784934
v 0.08200533 0.3792749 0.08018583
v 0.05213679 0.3792749 0.06781387
v 0.06974036 0.3486174 0.07510553
v 0.0521368 0.3486174 0.06781388
v 0.09931558 0.3486173 0.00370461
v 0.08171202 0.3486174 -0.003587016
v 0.08171202 0.3792749 -0.003587021
v 0.08171202 0.3792749 -0.003587021
v 0.05213679 0.3792749 0.06781387
v 0.08200537 0.1024279 0.08018587
v 0.1115806 0.1024279 0.008784967
v 0.06974039 0.1024279 0.07510554
v 0.09931561 0.1024279 0.003704642
v 0.06974036 0.3486174 0.07510553
v 0.08171202 0.3486174 -0.003587016
v 0.0521368 0.3486174 0.06781388
v 0.09931558 0.3486173 0.00370461
v 0.09931561 0.1024279 0.003704642
v 0.06974039 0.1024279 0.07510554
v 0.1115806 0.1024279 0.008784967
v 0.08200537 0.1024279 0.08018587
v -0.01060433 0.04512488 -0.0882813
v -0.07302856 -0.4166217 -0.06242426
v -0.01060426 -0.4166217 -0.08828131
v -0.07302863 0.04512488 -0.06242431
v -0.09888557 -0.4166217 4.447141E-08
v -0.09888563 0.04512488 -1.771558E-08
v -0.07302858 -0.4166216 0.06242434
v -0.07302865 0.04512489 0.06242427
v -0.01060428 -0.4166216 0.08828133
v -0.01060435 0.0451249 0.08828127
v 0.05182003 -0.4166216 0.06242435
v 0.05181996 0.04512491 0.06242429
v 0.05181999 0.0451249 -0.06242429
v 0.05182005 -0.4166216 -0.06242423
v 0.07767694 0.04512491 -2.199869E-09
v 0.07767702 -0.4166216 5.823265E-08
v 0.05181996 0.04512491 0.06242429
v 0.05182003 -0.4166216 0.06242435
v -0.09888557 -0.4166217 4.447141E-08
v -0.01060426 -0.4166217 -0.08828131
v -0.07302856 -0.4166217 -0.06242426
v -0.01060428 -0.4166216 0.08828133
v 0.07767702 -0.4166216 5.823265E-08
v 0.05182005 -0.4166216 -0.06242423
v 0.05182003 -0.4166216 0.06242435
v -0.07302858 -0.4166216 0.06242434
v -0.01060375 0.04512488 -0.1009762
v -0.08200529 0.4166216 -0.07140099
v -0.08200565 0.04512487 -0.07140052
v -0.01060439 0.4166216 -0.1009762
v -0.1115805 0.4166216 -6.808493E-08
v -0.1115805 0.04512488 -1.695337E-08
v -0.08200533 0.4166216 0.07140084
v -0.08200526 0.0451249 0.07140089
v -0.0106044 0.4166216 0.1009761
v -0.01060434 0.04512491 0.1009761
v 0.06079651 0.4166216 0.07140085
v 0.06079652 0.3792749 0.07140086
v 0.06079653 0.3486173 0.07140087
v 0.06079658 0.04512491 0.07140091
v 0.06079661 0.0451249 -0.07140091
v 0.06079654 0.4166216 -0.07140096
v 0.09037179 0.04512491 -1.909681E-09
v 0.09037176 0.3486173 -4.126975E-08
v 0.09037176 0.3792749 -4.535205E-08
v 0.09037176 0.4166216 -5.059571E-08
v -0.09888563 0.04512488 -1.771558E-08
v -0.07302863 0.04512488 -0.06242431
v -0.01060433 0.04512488 -0.0882813
v 0.07767694 0.04512491 -2.199869E-09
v 0.05181996 0.04512491 0.06242429
v 0.06079658 0.04512491 0.07140091
v 0.05181999 0.0451249 -0.06242429
v 0.06079651 0.4166216 0.07140085
v 0.06079653 0.3486173 0.07140087
v 0.06079652 0.3792749 0.07140086
v -0.07302865 0.04512489 0.06242427
v -0.01060435 0.0451249 0.08828127
v 0.05181996 0.04512491 0.06242429
v 0.09037176 0.4166216 -5.059571E-08
v -0.01060439 0.4166216 -0.1009762
v 0.06079654 0.4166216 -0.07140096
v -0.0106044 0.4166216 0.1009761
v -0.1115805 0.4166216 -6.808493E-08
v -0.08200529 0.4166216 -0.07140099
v -0.08200533 0.4166216 0.07140084
v 0.06079651 0.4166216 0.07140085
vt 0.4820806 0.3931645
vt 0.4858934 0.3835336
vt 0.4820737 0.3835365
vt 0.4859 0.393162
vt 0.4859027 0.3971896
vt 0.4820817 0.3948184
vt 0.4820832 0.3971922
vt 0.4820724 0.3818827
vt 0.4820704 0.3795087
vt 0.4858901 0.3795055
vt 0.489921 0.3835308
vt 0.4899278 0.3931591
vt 0.4514108 0.393187
vt 0.4514036 0.3835591
vt 0.451412 0.3948409
vt 0.4514025 0.3819053
vt 0.4640574 0.4817014
vt 0.4616808 0.4720742
vt 0.4616837 0.4817021
vt 0.4640545 0.4720734
vt 0.4947249 0.4720646
vt 0.4947278 0.4816926
vt 0.4963788 0.4720641
vt 0.4963816 0.4816921
vt 0.4043771 0.43703
vt 0.4127947 0.3795055
vt 0.4043771 0.3795055
vt 0.4127947 0.43703
vt 0.4212123 0.3795055
vt 0.4212123 0.43703
vt 0.4296299 0.3795055
vt 0.4296299 0.43703
vt 0.4380474 0.3795055
vt 0.4380474 0.43703
vt 0.446465 0.3795055
vt 0.446465 0.43703
vt 0.3959596 0.43703
vt 0.3959596 0.3795055
vt 0.3875419 0.43703
vt 0.3875419 0.3795055
vt 0.3791244 0.43703
vt 0.3791244 0.3795055
vt 0.4733987 0.4131277
vt 0.4624006 0.4241258
vt 0.4701774 0.4209045
vt 0.4624006 0.4021296
vt 0.4514025 0.4131277
vt 0.4546237 0.4209045
vt 0.4546237 0.4053509
vt 0.4701774 0.4053509
vt 0.4084306 0.4437273
vt 0.4180731 0.4899287
vt 0.4180731 0.4437273
vt 0.4084306 0.4899287
vt 0.4277111 0.4899287
vt 0.4277111 0.4437273
vt 0.4372599 0.4899287
vt 0.4372599 0.4437273
vt 0.4466087 0.4899287
vt 0.4466087 0.4437273
vt 0.4563111 0.4899287
vt 0.4563111 0.4851978
vt 0.4563111 0.4813765
vt 0.4563111 0.4437273
vt 0.3987774 0.4437273
vt 0.3987774 0.4899287
vt 0.3890944 0.4437273
vt 0.3890944 0.4813765
vt 0.3890944 0.4851978
vt 0.3890944 0.4899287
vt 0.4277111 0.442195
vt 0.4180731 0.442195
vt 0.4084306 0.442195
vt 0.3890944 0.442195
vt 0.3793564 0.442195
vt 0.3793564 0.4437273
vt 0.3987774 0.442195
vt 0.3793564 0.4899287
vt 0.3793564 0.4813765
vt 0.3793564 0.4851978
vt 0.4372599 0.442195
vt 0.4466087 0.442195
vt 0.4563111 0.442195
vt 0.4616808 0.4545471
vt 0.4742605 0.4419674
vt 0.4653653 0.4456519
vt 0.4742605 0.4671267
vt 0.48684 0.4545471
vt 0.4831556 0.4456519
vt 0.4831556 0.4634423
vt 0.4653653 0.4634423
vn 0.3826957 1.808068E-07 0.9238744
vn 0.7543694 0.5773118 -0.3124705
vn 0.9238785 0 -0.3826859
vn 0.3124719 0.5772949 0.7543818
vn -0.2705963 0.7071047 0.6532844
vn -0.6247292 -0.3014487 0.720307
vn -0.2705961 -0.7071046 0.6532845
vn 0.06759093 -0.3014425 -0.9510857
vn 0.2706293 -0.7071011 -0.6532747
vn 0.2706291 0.707101 -0.6532748
vn 0.2706291 0.707101 -0.6532748
vn -0.2705963 0.7071047 0.6532844
vn 0.3124368 -0.5773616 0.7543452
vn 0.7543402 -0.5773578 -0.312456
vn -0.7543444 -0.5773482 0.3124638
vn -0.3124676 -0.5773556 -0.7543371
vn -0.6247292 -0.3014487 0.720307
vn 0.2706293 -0.7071011 -0.6532747
vn -0.2705961 -0.7071046 0.6532845
vn 0.06759093 -0.3014425 -0.9510857
vn -0.3124676 -0.5773556 -0.7543371
vn -0.7543444 -0.5773482 0.3124638
vn 0.7543402 -0.5773578 -0.312456
vn 0.3124368 -0.5773616 0.7543452
vn 2.111771E-07 -0.8041884 -0.5943745
vn -0.5490046 -0.6302434 -0.5489875
vn 2.12397E-07 -0.6302471 -0.7763947
vn -0.4202824 -0.8041923 -0.4202825
vn -0.7763946 -0.6302472 0
vn -0.5943745 -0.8041884 0
vn -0.5490047 -0.6302432 0.5489875
vn -0.4202825 -0.8041922 0.4202826
vn 0 -0.6302469 0.7763948
vn 0 -0.8041881 0.5943747
vn 0.5489927 -0.630249 0.5489929
vn 0.4202827 -0.8041921 0.4202828
vn 0.4202828 -0.8041922 -0.4202824
vn 0.5489929 -0.6302492 -0.5489925
vn 0.5943747 -0.8041881 2.349748E-07
vn 0.7763948 -0.6302469 2.171016E-07
vn 0.4202827 -0.8041921 0.4202828
vn 0.5489927 -0.630249 0.5489929
vn -0.7763946 -0.6302472 0
vn 2.12397E-07 -0.6302471 -0.7763947
vn -0.5490046 -0.6302434 -0.5489875
vn 0 -0.6302469 0.7763948
vn 0.7763948 -0.6302469 2.171016E-07
vn 0.5489929 -0.6302492 -0.5489925
vn 0.5489927 -0.630249 0.5489929
vn -0.5490047 -0.6302432 0.5489875
vn 2.123976E-07 -0.6302677 -0.7763777
vn -0.5490524 0.6301602 -0.5490353
vn -0.5489926 -0.6302642 -0.5489756
vn 0 0.630164 -0.7764621
vn -0.7764621 0.6301639 -1.054815E-07
vn -0.7763777 -0.6302678 1.098698E-06
vn -0.5490285 0.6301723 0.5490453
vn -0.5489928 -0.630264 0.5489756
vn -2.123946E-07 0.6301642 0.7764619
vn 0 -0.6302676 0.776378
vn 0.5490401 0.6301665 0.5490403
vn 0.7071066 2.009271E-07 0.7071069
vn 0.7071066 2.009271E-07 0.7071069
vn 0.5489808 -0.6302698 0.548981
vn 0.548981 -0.6302699 -0.5489806
vn 0.5490403 0.6301663 -0.5490403
vn 0.776378 -0.6302676 -3.409326E-07
vn 1 1.509958E-07 2.742133E-07
vn 1 1.509958E-07 2.639448E-07
vn 0.7764618 0.6301642 1.290035E-07
vn -0.5943745 -0.8041884 0
vn -0.4202824 -0.8041923 -0.4202825
vn 2.111771E-07 -0.8041884 -0.5943745
vn 0.5943747 -0.8041881 2.349748E-07
vn 0.4202827 -0.8041921 0.4202828
vn 0.5489808 -0.6302698 0.548981
vn 0.4202828 -0.8041922 -0.4202824
vn 0.5490401 0.6301665 0.5490403
vn 0.7071066 2.009271E-07 0.7071069
vn 0.7071066 2.009271E-07 0.7071069
vn -0.4202825 -0.8041922 0.4202826
vn 0 -0.8041881 0.5943747
vn 0.4202827 -0.8041921 0.4202828
vn 0.7764618 0.6301642 1.290035E-07
vn 0 0.630164 -0.7764621
vn 0.5490403 0.6301663 -0.5490403
vn -2.123946E-07 0.6301642 0.7764619
vn -0.7764621 0.6301639 -1.054815E-07
vn -0.5490524 0.6301602 -0.5490353
vn -0.5490285 0.6301723 0.5490453
vn 0.5490401 0.6301665 0.5490403
g meger3d_Char_sundries_C9_2_0
f 3/3/3 2/2/2 1/1/1
f 4/4/4 1/1/1 2/2/2
f 1/1/1 4/4/4 5/5/5
f 6/6/6 1/1/1 5/5/5
f 7/7/7 6/6/6 5/5/5
f 3/3/3 8/8/8 2/2/2
f 8/8/8 9/9/9 2/2/2
f 9/9/9 10/10/10 2/2/2
f 2/2/2 11/11/11 4/4/4
f 12/12/12 4/4/4 11/11/11
f 1/1/1 13/13/13 3/3/3
f 14/14/14 3/3/3 13/13/13
f 3/3/3 14/14/14 8/8/8
f 13/13/13 1/1/1 15/15/15
f 6/6/6 15/15/15 1/1/1
f 16/16/16 8/8/8 14/14/14
f 19/19/19 18/18/18 17/17/17
f 20/20/20 17/17/17 18/18/18
f 20/20/20 21/21/21 17/17/17
f 22/22/22 17/17/17 21/21/21
f 21/21/21 23/23/23 22/22/22
f 24/24/24 22/22/22 23/23/23
f 27/27/27 26/26/26 25/25/25
f 28/28/28 25/25/25 26/26/26
f 26/26/26 29/29/29 28/28/28
f 30/30/30 28/28/28 29/29/29
f 29/29/29 31/31/31 30/30/30
f 32/32/32 30/30/30 31/31/31
f 31/31/31 33/33/33 32/32/32
f 34/34/34 32/32/32 33/33/33
f 33/33/33 35/35/35 34/34/34
f 36/36/36 34/34/34 35/35/35
f 25/25/25 37/37/37 27/27/27
f 38/38/38 27/27/27 37/37/37
f 37/37/37 39/39/39 38/38/38
f 40/40/40 38/38/38 39/39/39
f 39/39/39 41/41/41 40/40/40
f 42/42/42 40/40/40 41/41/41
f 45/45/45 44/44/44 43/43/43
f 44/44/44 46/46/46 43/43/43
f 47/47/47 46/46/46 44/44/44
f 48/48/48 47/47/47 44/44/44
f 49/49/49 46/46/46 47/47/47
f 46/46/46 50/50/50 43/43/43
f 53/53/53 52/52/52 51/51/51
f 54/54/54 51/51/51 52/52/52
f 52/52/52 53/53/53 55/55/55
f 56/56/56 55/55/55 53/53/53
f 55/55/55 56/56/56 57/57/57
f 58/58/58 57/57/57 56/56/56
f 57/57/57 58/58/58 59/59/59
f 60/60/60 59/59/59 58/58/58
f 59/59/59 60/60/60 61/61/61
f 60/60/60 62/62/62 61/61/61
f 63/63/63 62/62/62 60/60/60
f 64/64/64 63/63/63 60/60/60
f 51/51/51 54/54/54 65/65/65
f 66/66/66 65/65/65 54/54/54
f 67/67/67 65/65/65 66/66/66
f 68/68/68 67/67/67 66/66/66
f 69/69/69 68/68/68 66/66/66
f 70/70/70 69/69/69 66/66/66
f 56/56/56 71/71/71 58/58/58
f 71/71/71 56/56/56 72/72/72
f 53/53/53 72/72/72 56/56/56
f 72/72/72 53/53/53 73/73/73
f 51/51/51 73/73/73 53/53/53
f 67/67/67 74/74/74 65/65/65
f 74/74/74 67/67/67 75/75/75
f 76/76/76 75/75/75 67/67/67
f 77/77/77 65/65/65 74/74/74
f 65/65/65 77/77/77 51/51/51
f 73/73/73 51/51/51 77/77/77
f 70/70/70 78/78/78 69/69/69
f 67/67/67 68/68/68 78/78/78
f 78/78/78 68/68/68 69/69/69
f 76/76/76 67/67/67 79/79/79
f 79/79/79 67/67/67 80/80/80
f 80/80/80 67/67/67 78/78/78
f 81/81/81 58/58/58 71/71/71
f 58/58/58 81/81/81 60/60/60
f 82/82/82 60/60/60 81/81/81
f 60/60/60 82/82/82 64/64/64
f 83/83/83 64/64/64 82/82/82
f 86/86/86 85/85/85 84/84/84
f 85/85/85 87/87/87 84/84/84
f 88/88/88 87/87/87 85/85/85
f 89/89/89 88/88/88 85/85/85
f 90/90/90 87/87/87 88/88/88
f 87/87/87 91/91/91 84/84/84
