g meger3d_Char_workshop_C1_1
v -0.07224333 0.08315336 -0.031185
v -3.079467E-17 0.01091003 -0.031185
v -3.079467E-17 0.1130775 -0.03118502
v 0.07224333 0.08315336 -0.031185
v 0.1021675 0.01091003 -0.031185
v 0.07224333 -0.06133331 -0.03118502
v -3.079467E-17 -0.09125748 -0.031185
v -0.07224333 -0.06133331 -0.03118502
v -0.1021675 0.01091003 -0.031185
v -0.07224333 0.08315334 0.5014473
v 3.443398E-17 0.1130775 0.5014473
v 3.871056E-17 0.07527935 0.5363684
v -0.04551597 0.05642601 0.5363684
v -0.06436931 0.01091001 0.5363684
v -0.1021675 0.01091001 0.5014473
v -0.07224333 0.08315334 0.5014473
v 3.443398E-17 0.1130775 0.5014473
v 0.07224333 0.08315334 0.5014473
v 0.04551597 0.05642601 0.5363684
v 3.871056E-17 0.07527935 0.5363684
v 0.07224333 0.08315334 0.5014473
v 0.1021675 0.01091001 0.5014473
v 0.0643693 0.01091001 0.5363684
v 0.04551597 0.05642601 0.5363684
v 0.04551597 -0.03460596 0.5363684
v 0.07224333 -0.06133331 0.5014473
v -1.556457E-09 -0.05345928 0.5363684
v 3.443398E-17 -0.09125748 0.5014473
v -0.04551597 -0.03460596 0.5363684
v -0.07224333 -0.06133331 0.5014473
v -0.07224333 -0.06133331 0.5014473
v -0.1021675 0.01091001 0.5014473
v -0.06436931 0.01091001 0.5363684
v -0.04551597 -0.03460596 0.5363684
v -0.07224333 0.08315334 0.5014473
v -0.07224333 0.08315336 0.08826906
v -1.616577E-17 0.1130775 0.08826906
v 3.443398E-17 0.1130775 0.5014473
v 3.443398E-17 0.1130775 0.5014473
v -1.616577E-17 0.1130775 0.08826906
v 0.07224333 0.08315336 0.08826906
v 0.07224333 0.08315334 0.5014473
v 0.07224333 0.08315334 0.5014473
v 0.07224333 0.08315336 0.08826906
v 0.1021675 0.01091002 0.08826908
v 0.1021675 0.01091001 0.5014473
v 0.1021675 0.01091001 0.5014473
v 0.1021675 0.01091002 0.08826908
v 0.07224333 -0.06133331 0.08826906
v 0.07224333 -0.06133331 0.5014473
v 0.07224333 -0.06133331 0.5014473
v 0.07224333 -0.06133331 0.08826906
v -1.616577E-17 -0.09125748 0.08826907
v 3.443398E-17 -0.09125748 0.5014473
v 3.443398E-17 -0.09125748 0.5014473
v -1.616577E-17 -0.09125748 0.08826907
v -0.07224333 -0.06133331 0.08826906
v -0.07224333 -0.06133331 0.5014473
v -0.07224333 -0.06133331 0.5014473
v -0.07224333 -0.06133331 0.08826906
v -0.1021675 0.01091002 0.08826908
v -0.1021675 0.01091001 0.5014473
v -0.1021675 0.01091001 0.5014473
v -0.1021675 0.01091002 0.08826908
v -0.07224333 0.08315336 0.08826906
v -0.07224333 0.08315334 0.5014473
v 3.871056E-17 0.07527935 0.5363684
v 3.871056E-17 0.01091001 0.5363684
v -0.04551597 0.05642601 0.5363684
v 0.04551597 0.05642601 0.5363684
v 0.0643693 0.01091001 0.5363684
v 0.04551597 -0.03460596 0.5363684
v -1.556457E-09 -0.05345928 0.5363684
v -0.04551597 -0.03460596 0.5363684
v -0.06436931 0.01091001 0.5363684
v -0.05148462 0.06239465 0.06066741
v -0.07224333 0.08315336 0.02854205
v -2.348022E-17 0.1130775 0.02854202
v -1.9546E-17 0.08372027 0.06066741
v -0.07281024 0.01091002 0.06066741
v -0.1021675 0.01091003 0.02854202
v -0.05148462 -0.04057459 0.06066741
v -0.07224333 -0.06133331 0.02854202
v -1.9546E-17 -0.06190023 0.06066742
v -2.348022E-17 -0.09125748 0.02854202
v 0.05148462 -0.04057459 0.06066741
v 0.07224333 -0.06133331 0.02854202
v 0.07281024 0.01091002 0.06066741
v 0.1021675 0.01091003 0.02854202
v 0.05148462 0.06239465 0.06066741
v 0.07224333 0.08315336 0.02854205
v -0.07224333 0.08315336 0.02854205
v -0.07224333 0.08315336 -0.031185
v -3.079467E-17 0.1130775 -0.03118502
v -2.348022E-17 0.1130775 0.02854202
v -0.1021675 0.01091003 0.02854202
v -0.1021675 0.01091003 -0.031185
v -0.07224333 0.08315336 -0.031185
v -0.07224333 0.08315336 0.02854205
v -0.07224333 -0.06133331 0.02854202
v -0.07224333 -0.06133331 -0.03118502
v -0.1021675 0.01091003 -0.031185
v -0.1021675 0.01091003 0.02854202
v -2.348022E-17 -0.09125748 0.02854202
v -3.079467E-17 -0.09125748 -0.031185
v -0.07224333 -0.06133331 -0.03118502
v -0.07224333 -0.06133331 0.02854202
v 0.07224333 -0.06133331 0.02854202
v 0.07224333 -0.06133331 -0.03118502
v -3.079467E-17 -0.09125748 -0.031185
v -2.348022E-17 -0.09125748 0.02854202
v 0.1021675 0.01091003 0.02854202
v 0.1021675 0.01091003 -0.031185
v 0.07224333 -0.06133331 -0.03118502
v 0.07224333 -0.06133331 0.02854202
v 0.07224333 0.08315336 0.02854205
v 0.07224333 0.08315336 -0.031185
v 0.1021675 0.01091003 -0.031185
v 0.1021675 0.01091003 0.02854202
v -2.348022E-17 0.1130775 0.02854202
v -3.079467E-17 0.1130775 -0.03118502
v 0.07224333 0.08315336 -0.031185
v 0.07224333 0.08315336 0.02854205
v 0.1021675 0.01091002 0.08826908
v 0.07281024 0.01091002 0.06066741
v 0.05148462 -0.04057459 0.06066741
v 0.07224333 -0.06133331 0.08826906
v -1.9546E-17 -0.06190023 0.06066742
v -1.616577E-17 -0.09125748 0.08826907
v -0.05148462 -0.04057459 0.06066741
v -0.07224333 -0.06133331 0.08826906
v -0.07281024 0.01091002 0.06066741
v -0.1021675 0.01091002 0.08826908
v -0.05148462 0.06239465 0.06066741
v -0.07224333 0.08315336 0.08826906
v 0.07224333 0.08315336 0.08826906
v 0.05148462 0.06239465 0.06066741
v -1.616577E-17 0.1130775 0.08826906
v -1.9546E-17 0.08372027 0.06066741
v -0.07224333 0.08315336 0.08826906
v -0.05148462 0.06239465 0.06066741
v -0.01550016 0.03775709 0.01166833
v -0.01550016 0.03775711 -0.4839634
v 0.01550015 0.03775711 -0.4839634
v 0.01550015 0.03775709 0.01166833
v 0.03100032 0.01091003 -0.4839634
v 0.03100032 0.01091003 0.01166833
v 0.01550016 -0.01593704 -0.4839634
v 0.01550016 -0.01593704 0.01166833
v -0.01550016 -0.01593704 -0.4839634
v -0.01550016 -0.01593704 0.01166833
v -0.03100032 0.01091003 -0.4839634
v -0.03100032 0.01091001 0.01166833
v -0.01550016 0.03775711 -0.4839634
v -0.01550016 0.03775709 0.01166833
v -0.02592253 0.02136414 -0.6962122
v 3.237888E-09 0.01091003 -0.6962123
v 0.02592251 0.02136414 -0.6962122
v 0.03454803 0.01091003 -0.6962123
v 0.02592252 0.0004559326 -0.6962123
v -0.0259225 0.0004559326 -0.6962123
v -0.03454803 0.01091003 -0.6962123
v -0.01550016 0.03775711 -0.4839634
v -0.04660407 0.03775711 -0.5127904
v 0.04660402 0.03775711 -0.5127904
v 0.01550015 0.03775711 -0.4839634
v 0.02592251 0.02136414 -0.6962122
v -0.02592253 0.02136414 -0.6962122
v 0.01550015 0.03775711 -0.4839634
v 0.04660402 0.03775711 -0.5127904
v 0.06737627 0.01091003 -0.5127904
v 0.03100032 0.01091003 -0.4839634
v 0.03100032 0.01091003 -0.4839634
v 0.06737627 0.01091003 -0.5127904
v 0.04660404 -0.01593704 -0.5127904
v 0.01550016 -0.01593704 -0.4839634
v 0.01550016 -0.01593704 -0.4839634
v 0.04660404 -0.01593704 -0.5127904
v -0.04660403 -0.01593704 -0.5127904
v -0.01550016 -0.01593704 -0.4839634
v -0.0259225 0.0004559326 -0.6962123
v 0.02592252 0.0004559326 -0.6962123
v -0.01550016 -0.01593704 -0.4839634
v -0.04660403 -0.01593704 -0.5127904
v -0.06737627 0.01091003 -0.5127904
v -0.03100032 0.01091003 -0.4839634
v -0.03100032 0.01091003 -0.4839634
v -0.06737627 0.01091003 -0.5127904
v -0.04660407 0.03775711 -0.5127904
v -0.01550016 0.03775711 -0.4839634
v 0.04660402 0.03775711 -0.5127904
v 0.02592251 0.02136414 -0.6962122
v 0.03454803 0.01091003 -0.6962123
v 0.06737627 0.01091003 -0.5127904
v 0.06737627 0.01091003 -0.5127904
v 0.03454803 0.01091003 -0.6962123
v 0.02592252 0.0004559326 -0.6962123
v 0.04660404 -0.01593704 -0.5127904
v -0.04660403 -0.01593704 -0.5127904
v -0.0259225 0.0004559326 -0.6962123
v -0.03454803 0.01091003 -0.6962123
v -0.06737627 0.01091003 -0.5127904
v -0.06737627 0.01091003 -0.5127904
v -0.03454803 0.01091003 -0.6962123
v -0.02592253 0.02136414 -0.6962122
v -0.04660407 0.03775711 -0.5127904
vt 0.6961424 0.535079
vt 0.6961426 0.5350792
vt 0.6961426 0.5350789
vt 0.6961428 0.535079
vt 0.6961429 0.5350792
vt 0.6961428 0.5350794
vt 0.6961426 0.5350794
vt 0.6961424 0.5350794
vt 0.6961424 0.5350792
vt 0.6961428 0.53508
vt 0.6961427 0.53508
vt 0.6961428 0.53508
vt 0.6961428 0.53508
vt 0.6961424 0.53508
vt 0.6961425 0.53508
vt 0.6961424 0.53508
vt 0.6961427 0.53508
vt 0.6961427 0.53508
vt 0.6961427 0.53508
vt 0.6961427 0.53508
vt 0.6961427 0.53508
vt 0.6961427 0.53508
vt 0.6961427 0.53508
vt 0.6961427 0.53508
vt 0.6961426 0.53508
vt 0.6961426 0.53508
vt 0.6961426 0.53508
vt 0.6961426 0.53508
vt 0.6961426 0.53508
vt 0.6961425 0.53508
vt 0.6961425 0.53508
vt 0.6961425 0.53508
vt 0.6961425 0.53508
vt 0.6961425 0.53508
vt 0.6961428 0.53508
vt 0.6961428 0.5350795
vt 0.6961427 0.5350795
vt 0.6961427 0.53508
vt 0.6961427 0.53508
vt 0.6961427 0.5350795
vt 0.6961427 0.5350795
vt 0.6961427 0.53508
vt 0.6961427 0.53508
vt 0.6961427 0.5350795
vt 0.6961427 0.5350795
vt 0.6961427 0.53508
vt 0.6961427 0.53508
vt 0.6961427 0.5350795
vt 0.6961426 0.5350795
vt 0.6961426 0.53508
vt 0.6961426 0.53508
vt 0.6961426 0.5350795
vt 0.6961426 0.5350795
vt 0.6961426 0.53508
vt 0.6961426 0.53508
vt 0.6961426 0.5350795
vt 0.6961425 0.5350795
vt 0.6961425 0.53508
vt 0.6961425 0.53508
vt 0.6961425 0.5350795
vt 0.6961425 0.5350795
vt 0.6961425 0.53508
vt 0.6961425 0.53508
vt 0.6961425 0.5350795
vt 0.6961424 0.5350795
vt 0.6961424 0.53508
vt 0.6961426 0.5350804
vt 0.6961426 0.5350803
vt 0.6961425 0.5350803
vt 0.6961427 0.5350803
vt 0.6961428 0.5350803
vt 0.6961427 0.5350801
vt 0.6961426 0.5350801
vt 0.6961425 0.5350801
vt 0.6961424 0.5350803
vt 0.6961428 0.5350795
vt 0.6961428 0.5350795
vt 0.6961427 0.5350795
vt 0.6961427 0.5350795
vt 0.6961425 0.5350795
vt 0.6961425 0.5350795
vt 0.6961425 0.5350795
vt 0.6961425 0.5350795
vt 0.6961426 0.5350795
vt 0.6961426 0.5350795
vt 0.6961426 0.5350795
vt 0.6961426 0.5350795
vt 0.6961427 0.5350795
vt 0.6961427 0.5350795
vt 0.6961427 0.5350795
vt 0.6961427 0.5350795
vt 0.6961428 0.5350795
vt 0.6961428 0.5350794
vt 0.6961427 0.5350794
vt 0.6961427 0.5350795
vt 0.6961425 0.5350795
vt 0.6961425 0.5350794
vt 0.6961424 0.5350794
vt 0.6961424 0.5350795
vt 0.6961425 0.5350795
vt 0.6961425 0.5350794
vt 0.6961425 0.5350794
vt 0.6961425 0.5350795
vt 0.6961426 0.5350795
vt 0.6961426 0.5350794
vt 0.6961425 0.5350794
vt 0.6961425 0.5350795
vt 0.6961426 0.5350795
vt 0.6961426 0.5350794
vt 0.6961426 0.5350794
vt 0.6961426 0.5350795
vt 0.6961427 0.5350795
vt 0.6961427 0.5350794
vt 0.6961426 0.5350794
vt 0.6961426 0.5350795
vt 0.6961427 0.5350795
vt 0.6961427 0.5350794
vt 0.6961427 0.5350794
vt 0.6961427 0.5350795
vt 0.6961427 0.5350795
vt 0.6961427 0.5350794
vt 0.6961427 0.5350794
vt 0.6961427 0.5350795
vt 0.6961427 0.5350795
vt 0.6961427 0.5350795
vt 0.6961426 0.5350795
vt 0.6961426 0.5350795
vt 0.6961426 0.5350795
vt 0.6961426 0.5350795
vt 0.6961425 0.5350795
vt 0.6961425 0.5350795
vt 0.6961425 0.5350795
vt 0.6961425 0.5350795
vt 0.6961424 0.5350795
vt 0.6961424 0.5350795
vt 0.6961427 0.5350795
vt 0.6961427 0.5350795
vt 0.6961427 0.5350795
vt 0.6961427 0.5350795
vt 0.6961428 0.5350795
vt 0.6961428 0.5350795
vt 0.9546108 0.1966715
vt 0.9546108 0.1966717
vt 0.9546109 0.1966717
vt 0.9546109 0.1966715
vt 0.9546109 0.1966717
vt 0.9546109 0.1966715
vt 0.9546109 0.1966717
vt 0.9546109 0.1966715
vt 0.9546109 0.1966717
vt 0.9546109 0.1966715
vt 0.9546109 0.1966717
vt 0.9546109 0.1966715
vt 0.9546109 0.1966717
vt 0.9546109 0.1966715
vt 0.9546109 0.1966718
vt 0.9546109 0.1966717
vt 0.9546109 0.1966718
vt 0.9546108 0.1966717
vt 0.9546109 0.1966717
vt 0.9546109 0.1966717
vt 0.9546109 0.1966717
vt 0.9546109 0.1966718
vt 0.9546109 0.1966718
vt 0.9546109 0.1966718
vt 0.9546109 0.1966718
vt 0.9546109 0.1966718
vt 0.9546109 0.1966718
vt 0.9546109 0.1966718
vt 0.9546109 0.1966718
vt 0.9546108 0.1966717
vt 0.9546108 0.1966717
vt 0.9546108 0.1966717
vt 0.9546108 0.1966717
vt 0.9546109 0.1966717
vt 0.9546109 0.1966717
vt 0.9546109 0.1966717
vt 0.9546109 0.1966717
vt 0.9546109 0.1966717
vt 0.9546109 0.1966717
vt 0.9546109 0.1966717
vt 0.9546109 0.1966717
vt 0.9546109 0.1966717
vt 0.9546109 0.1966717
vt 0.9546109 0.1966717
vt 0.9546109 0.1966717
vt 0.9546109 0.1966717
vt 0.9546109 0.1966717
vt 0.9546109 0.1966718
vt 0.9546109 0.1966718
vt 0.9546109 0.1966718
vt 0.9546109 0.1966718
vt 0.9546108 0.1966717
vt 0.9546108 0.1966717
vt 0.9546108 0.1966717
vt 0.9546108 0.1966717
vt 0.9546109 0.1966717
vt 0.9546109 0.1966717
vt 0.9546109 0.1966717
vt 0.9546109 0.1966717
vt 0.9546109 0.1966717
vt 0.9546109 0.1966717
vt 0.9546109 0.1966717
vt 0.9546109 0.1966717
vt 0.9546109 0.1966718
vt 0.9546109 0.1966718
vn 0 -4.134658E-07 -1
vn 0 0 -1
vn 0 0 -1
vn 0 -2.067329E-07 -1
vn 0 2.067329E-07 -1
vn -1.320086E-07 4.134658E-07 -1
vn 0 0 -1
vn 1.320086E-07 2.067329E-07 -1
vn 0 -2.067329E-07 -1
vn -0.4798421 0.4798419 0.734509
vn 0 0.6785989 0.7345091
vn 0 0.5459279 0.8378321
vn -0.3860295 0.3860294 0.8378321
vn -0.5459281 -2.172921E-07 0.8378321
vn -0.6785989 -1.101477E-07 0.7345091
vn -0.4798421 0.4798419 0.734509
vn 0 0.6785989 0.7345091
vn 0.479842 0.4798418 0.7345091
vn 0.3860294 0.3860295 0.837832
vn 0 0.5459279 0.8378321
vn 0.479842 0.4798418 0.7345091
vn 0.6785988 0 0.7345092
vn 0.5459279 1.217778E-07 0.8378321
vn 0.3860294 0.3860295 0.837832
vn 0.3860294 -0.3860294 0.8378321
vn 0.4798419 -0.4798418 0.7345091
vn 0 -0.5459279 0.8378321
vn 0 -0.6785988 0.7345091
vn -0.3860293 -0.3860295 0.837832
vn -0.4798419 -0.4798419 0.734509
vn -0.4798419 -0.4798419 0.734509
vn -0.6785989 -1.101477E-07 0.7345091
vn -0.5459281 -2.172921E-07 0.8378321
vn -0.3860293 -0.3860295 0.837832
vn -0.3826834 0.9238795 0
vn -0.3826834 0.9238795 0
vn -0.3826834 0.9238795 0
vn -0.3826834 0.9238795 0
vn 0.3826834 0.9238795 0
vn 0.3826834 0.9238795 0
vn 0.3826834 0.9238795 0
vn 0.3826834 0.9238795 0
vn 0.9238795 0.3826834 0
vn 0.9238795 0.3826834 0
vn 0.9238795 0.3826834 0
vn 0.9238795 0.3826834 0
vn 0.9238795 -0.3826834 0
vn 0.9238795 -0.3826834 0
vn 0.9238795 -0.3826834 0
vn 0.9238795 -0.3826834 0
vn 0.3826835 -0.9238795 0
vn 0.3826834 -0.9238795 0
vn 0.3826834 -0.9238795 0
vn 0.3826835 -0.9238795 0
vn -0.3826835 -0.9238795 0
vn -0.3826835 -0.9238795 0
vn -0.3826835 -0.9238795 0
vn -0.3826835 -0.9238795 0
vn -0.9238795 -0.3826834 0
vn -0.9238795 -0.3826834 0
vn -0.9238795 -0.3826834 0
vn -0.9238795 -0.3826834 0
vn -0.9238795 0.3826834 0
vn -0.9238795 0.3826834 0
vn -0.9238795 0.3826834 0
vn -0.9238795 0.3826834 0
vn 0 0.5459279 0.8378321
vn 0 0 1
vn -0.3860295 0.3860294 0.8378321
vn 0.3860294 0.3860295 0.837832
vn 0.5459279 1.217778E-07 0.8378321
vn 0.3860294 -0.3860294 0.8378321
vn 0 -0.5459279 0.8378321
vn -0.3860293 -0.3860295 0.837832
vn -0.5459281 -2.172921E-07 0.8378321
vn -0.5219826 0.5219826 0.6745875
vn -0.5219826 0.5219826 0.6745875
vn 0 0.738195 0.6745874
vn 0 0.738195 0.6745874
vn -0.738195 -2.127034E-07 0.6745874
vn -0.738195 -2.434222E-07 0.6745874
vn -0.5219828 -0.5219827 0.6745872
vn -0.5219827 -0.5219828 0.6745872
vn 0 -0.738195 0.6745874
vn 0 -0.7381951 0.6745872
vn 0.5219828 -0.5219827 0.6745872
vn 0.5219827 -0.5219827 0.6745873
vn 0.738195 0 0.6745874
vn 0.738195 0 0.6745874
vn 0.5219827 0.5219827 0.6745875
vn 0.5219826 0.5219826 0.6745875
vn -0.3826834 0.9238795 0
vn -0.3826835 0.9238795 0
vn -0.3826835 0.9238795 0
vn -0.3826835 0.9238795 0
vn -0.9238795 0.3826834 0
vn -0.9238795 0.3826834 0
vn -0.9238795 0.3826834 0
vn -0.9238795 0.3826834 0
vn -0.9238795 -0.3826834 0
vn -0.9238795 -0.3826835 0
vn -0.9238795 -0.3826835 0
vn -0.9238795 -0.3826834 0
vn -0.3826835 -0.9238795 0
vn -0.3826835 -0.9238795 0
vn -0.3826835 -0.9238795 0
vn -0.3826835 -0.9238795 0
vn 0.3826835 -0.9238795 0
vn 0.3826835 -0.9238795 0
vn 0.3826835 -0.9238795 0
vn 0.3826835 -0.9238795 0
vn 0.9238795 -0.3826834 0
vn 0.9238795 -0.3826835 0
vn 0.9238795 -0.3826835 0
vn 0.9238795 -0.3826834 0
vn 0.9238795 0.3826834 0
vn 0.9238795 0.3826834 0
vn 0.9238795 0.3826834 0
vn 0.9238795 0.3826834 0
vn 0.3826834 0.9238795 0
vn 0.3826834 0.9238795 0
vn 0.3826834 0.9238795 0
vn 0.3826834 0.9238795 0
vn 0.6849868 0 -0.7285555
vn 0.6849868 0 -0.7285554
vn 0.4843588 -0.4843588 -0.7285554
vn 0.4843588 -0.484359 -0.7285554
vn 0 -0.684987 -0.7285552
vn 0 -0.684987 -0.7285552
vn -0.4843589 -0.4843589 -0.7285553
vn -0.4843588 -0.484359 -0.7285554
vn -0.6849868 0 -0.7285554
vn -0.6849868 0 -0.7285555
vn -0.4843588 0.4843587 -0.7285554
vn -0.4843588 0.4843587 -0.7285554
vn 0.4843588 0.4843588 -0.7285554
vn 0.4843588 0.4843588 -0.7285554
vn 0 0.6849868 -0.7285555
vn 0 0.6849868 -0.7285555
vn -0.4843588 0.4843587 -0.7285554
vn -0.4843588 0.4843587 -0.7285554
vn -0.4999999 0.8660254 0
vn -0.4999999 0.8660254 0
vn 0.4999997 0.8660256 0
vn 0.4999997 0.8660256 0
vn 1 2.372617E-07 0
vn 1 1.82509E-07 0
vn 0.5000002 -0.8660253 0
vn 0.5000002 -0.8660253 0
vn -0.5000001 -0.8660253 0
vn -0.5000001 -0.8660253 0
vn -1 0 0
vn -1 -1.277563E-07 0
vn -0.4999999 0.8660254 0
vn -0.4999999 0.8660254 0
vn 0 1.425617E-05 -1
vn 0 3.438819E-06 -1
vn 0 2.072391E-05 -1
vn 0 4.224891E-06 -1
vn 0 -1.293566E-05 -1
vn 0 0 -1
vn 0 8.449707E-06 -1
vn 0 1 0
vn 0 0.996523 -0.08331788
vn 0 0.996523 -0.08331788
vn 0 1 0
vn 0 0.99603 -0.08901811
vn 0 0.99603 -0.08901813
vn 0.5948327 0.4018298 0.696209
vn 0.5948327 0.4018299 0.6962089
vn 0.5948327 0.4018299 0.6962089
vn 0.5948327 0.4018298 0.696209
vn 0.5948328 -0.4018292 0.6962092
vn 0.5948328 -0.4018292 0.6962092
vn 0.5948328 -0.4018292 0.6962091
vn 0.5948328 -0.4018292 0.6962091
vn 0 -1 0
vn 0 -0.996523 -0.08331805
vn 0 -0.996523 -0.08331805
vn 0 -1 0
vn 0 -0.99603 -0.08901829
vn 0 -0.99603 -0.08901829
vn -0.5948325 -0.4018302 0.6962088
vn -0.5948325 -0.4018302 0.6962088
vn -0.5948325 -0.4018302 0.6962088
vn -0.5948325 -0.4018302 0.6962088
vn -0.5948319 0.4018317 0.6962085
vn -0.5948319 0.4018317 0.6962086
vn -0.5948319 0.4018317 0.6962086
vn -0.5948319 0.4018317 0.6962085
vn 0.777575 0.612822 -0.140806
vn 0.7775749 0.6128221 -0.140806
vn 0.7775749 0.6128221 -0.140806
vn 0.7775749 0.6128221 -0.140806
vn 0.777575 -0.6128219 -0.1408059
vn 0.777575 -0.612822 -0.1408059
vn 0.777575 -0.612822 -0.1408059
vn 0.777575 -0.612822 -0.1408059
vn -0.7775748 -0.6128222 -0.140806
vn -0.7775748 -0.6128222 -0.140806
vn -0.7775748 -0.6128222 -0.140806
vn -0.7775748 -0.6128222 -0.140806
vn -0.7775759 0.6128207 -0.1408062
vn -0.7775759 0.6128207 -0.1408062
vn -0.7775759 0.6128208 -0.1408062
vn -0.7775759 0.6128207 -0.1408062
g meger3d_Char_workshop_C1_1_0
f 3/3/3 2/2/2 1/1/1
f 4/4/4 2/2/2 3/3/3
f 5/5/5 2/2/2 4/4/4
f 6/6/6 2/2/2 5/5/5
f 7/7/7 2/2/2 6/6/6
f 8/8/8 2/2/2 7/7/7
f 9/9/9 2/2/2 8/8/8
f 1/1/1 2/2/2 9/9/9
f 12/12/12 11/11/11 10/10/10
f 13/13/13 12/12/12 10/10/10
f 15/15/15 14/14/14 13/13/13
f 16/16/16 15/15/15 13/13/13
f 19/19/19 18/18/18 17/17/17
f 20/20/20 19/19/19 17/17/17
f 23/23/23 22/22/22 21/21/21
f 24/24/24 23/23/23 21/21/21
f 23/23/23 25/25/25 22/22/22
f 25/25/25 26/26/26 22/22/22
f 25/25/25 27/27/27 26/26/26
f 27/27/27 28/28/28 26/26/26
f 27/27/27 29/29/29 28/28/28
f 29/29/29 30/30/30 28/28/28
f 33/33/33 32/32/32 31/31/31
f 34/34/34 33/33/33 31/31/31
f 37/37/37 36/36/36 35/35/35
f 38/38/38 37/37/37 35/35/35
f 41/41/41 40/40/40 39/39/39
f 42/42/42 41/41/41 39/39/39
f 45/45/45 44/44/44 43/43/43
f 46/46/46 45/45/45 43/43/43
f 49/49/49 48/48/48 47/47/47
f 50/50/50 49/49/49 47/47/47
f 53/53/53 52/52/52 51/51/51
f 54/54/54 53/53/53 51/51/51
f 57/57/57 56/56/56 55/55/55
f 58/58/58 57/57/57 55/55/55
f 61/61/61 60/60/60 59/59/59
f 62/62/62 61/61/61 59/59/59
f 65/65/65 64/64/64 63/63/63
f 66/66/66 65/65/65 63/63/63
f 69/69/69 68/68/68 67/67/67
f 67/67/67 68/68/68 70/70/70
f 70/70/70 68/68/68 71/71/71
f 71/71/71 68/68/68 72/72/72
f 72/72/72 68/68/68 73/73/73
f 73/73/73 68/68/68 74/74/74
f 74/74/74 68/68/68 75/75/75
f 75/75/75 68/68/68 69/69/69
f 78/78/78 77/77/77 76/76/76
f 79/79/79 78/78/78 76/76/76
f 76/76/76 77/77/77 80/80/80
f 77/77/77 81/81/81 80/80/80
f 80/80/80 81/81/81 82/82/82
f 81/81/81 83/83/83 82/82/82
f 82/82/82 83/83/83 84/84/84
f 83/83/83 85/85/85 84/84/84
f 84/84/84 85/85/85 86/86/86
f 85/85/85 87/87/87 86/86/86
f 86/86/86 87/87/87 88/88/88
f 87/87/87 89/89/89 88/88/88
f 88/88/88 89/89/89 90/90/90
f 89/89/89 91/91/91 90/90/90
f 91/91/91 78/78/78 79/79/79
f 90/90/90 91/91/91 79/79/79
f 94/94/94 93/93/93 92/92/92
f 95/95/95 94/94/94 92/92/92
f 98/98/98 97/97/97 96/96/96
f 99/99/99 98/98/98 96/96/96
f 102/102/102 101/101/101 100/100/100
f 103/103/103 102/102/102 100/100/100
f 106/106/106 105/105/105 104/104/104
f 107/107/107 106/106/106 104/104/104
f 110/110/110 109/109/109 108/108/108
f 111/111/111 110/110/110 108/108/108
f 114/114/114 113/113/113 112/112/112
f 115/115/115 114/114/114 112/112/112
f 118/118/118 117/117/117 116/116/116
f 119/119/119 118/118/118 116/116/116
f 122/122/122 121/121/121 120/120/120
f 123/123/123 122/122/122 120/120/120
f 126/126/126 125/125/125 124/124/124
f 127/127/127 126/126/126 124/124/124
f 128/128/128 126/126/126 127/127/127
f 129/129/129 128/128/128 127/127/127
f 130/130/130 128/128/128 129/129/129
f 131/131/131 130/130/130 129/129/129
f 132/132/132 130/130/130 131/131/131
f 133/133/133 132/132/132 131/131/131
f 134/134/134 132/132/132 133/133/133
f 135/135/135 134/134/134 133/133/133
f 124/124/124 125/125/125 136/136/136
f 125/125/125 137/137/137 136/136/136
f 136/136/136 137/137/137 138/138/138
f 137/137/137 139/139/139 138/138/138
f 138/138/138 139/139/139 140/140/140
f 139/139/139 141/141/141 140/140/140
f 144/144/144 143/143/143 142/142/142
f 145/145/145 144/144/144 142/142/142
f 146/146/146 144/144/144 145/145/145
f 147/147/147 146/146/146 145/145/145
f 148/148/148 146/146/146 147/147/147
f 149/149/149 148/148/148 147/147/147
f 150/150/150 148/148/148 149/149/149
f 151/151/151 150/150/150 149/149/149
f 152/152/152 150/150/150 151/151/151
f 153/153/153 152/152/152 151/151/151
f 154/154/154 152/152/152 153/153/153
f 155/155/155 154/154/154 153/153/153
f 158/158/158 157/157/157 156/156/156
f 159/159/159 157/157/157 158/158/158
f 160/160/160 157/157/157 159/159/159
f 161/161/161 157/157/157 160/160/160
f 162/162/162 157/157/157 161/161/161
f 156/156/156 157/157/157 162/162/162
f 165/165/165 164/164/164 163/163/163
f 166/166/166 165/165/165 163/163/163
f 165/165/165 167/167/167 164/164/164
f 167/167/167 168/168/168 164/164/164
f 171/171/171 170/170/170 169/169/169
f 172/172/172 171/171/171 169/169/169
f 175/175/175 174/174/174 173/173/173
f 176/176/176 175/175/175 173/173/173
f 179/179/179 178/178/178 177/177/177
f 180/180/180 179/179/179 177/177/177
f 179/179/179 181/181/181 178/178/178
f 181/181/181 182/182/182 178/178/178
f 185/185/185 184/184/184 183/183/183
f 186/186/186 185/185/185 183/183/183
f 189/189/189 188/188/188 187/187/187
f 190/190/190 189/189/189 187/187/187
f 193/193/193 192/192/192 191/191/191
f 194/194/194 193/193/193 191/191/191
f 197/197/197 196/196/196 195/195/195
f 198/198/198 197/197/197 195/195/195
f 201/201/201 200/200/200 199/199/199
f 202/202/202 201/201/201 199/199/199
f 205/205/205 204/204/204 203/203/203
f 206/206/206 205/205/205 203/203/203
