g meger3d_Char_sundries_C3_2
v -0.3165421 -0.005022888 0.1827561
v -0.3165421 -0.2038434 0.1827561
v -0.3655114 -0.2038434 1.525879E-07
v -0.3655114 -0.005022888 1.525879E-07
v -0.1827555 -0.2038434 0.3165427
v -0.1827555 -0.005022888 0.3165427
v 4.577637E-07 -0.005022888 0.3655124
v 4.577637E-07 -0.2038434 0.3655124
v 0.1827571 -0.005022888 0.3165427
v 0.1827571 -0.2038434 0.3165427
v 0.3165437 -0.005022888 0.1827561
v 0.3165437 -0.2038434 0.1827561
v 0.3655127 -0.2038434 1.525879E-07
v 0.3655127 -0.005022888 1.525879E-07
v 0.3165431 -0.005022888 -0.1827558
v 0.3165431 -0.2038434 -0.1827558
v 0.1827561 -0.2038434 -0.3165431
v 0.1827561 -0.005022888 -0.3165431
v 4.577637E-07 -0.2038434 -0.3655124
v 4.577637E-07 -0.005022888 -0.3655124
v 4.577637E-07 0.05719116 0.3942135
v -0.1971062 0.05719116 0.3413992
v 0.1971075 0.05719116 0.3413992
v 0.3413995 0.05719116 0.1971065
v 0.3942135 0.05719116 1.525879E-07
v 0.3413995 0.05719116 -0.1971068
v 0.1971075 0.05719116 -0.3413992
v 4.577637E-07 0.05719116 -0.3942135
v -0.1846041 0.08309219 0.3197442
v -0.3197439 0.08309219 0.1846041
v -0.3413976 0.05719116 0.1971065
v -0.3942135 0.05719116 1.525879E-07
v -0.3413986 0.05719116 -0.1971068
v -0.3165425 -0.005022888 -0.1827567
v -0.3165425 -0.2038434 -0.1827567
v -0.1827555 -0.005022888 -0.3165431
v -0.1827555 -0.2038434 -0.3165431
v 4.577637E-07 -0.005022888 -0.3655124
v 4.577637E-07 -0.2038434 -0.3655124
v 4.577637E-07 0.05719116 -0.3942135
v -0.1971062 0.05719116 -0.3413992
v -0.369208 0.08309219 1.525879E-07
v -0.1846041 0.08309219 -0.3197445
v 4.577637E-07 0.08309219 -0.3692093
v -0.3197441 0.08309219 -0.1846047
v -0.319491 0.08309219 1.525879E-07
v -0.2766869 0.08309219 0.1597454
v -0.1597454 0.08309219 0.2766873
v 4.577637E-07 0.08309219 0.369209
v 0.1846047 0.08309219 0.3197442
v 0.3197451 0.08309219 0.1846041
v 0.3692093 0.08309219 1.525879E-07
v 0.3197445 0.08309219 -0.1846047
v 0.1846047 0.08309219 -0.3197442
v 4.577637E-07 0.08309219 -0.3692093
v 4.577637E-07 0.08309219 0.3194913
v 0.159746 0.08309219 0.276687
v 0.2766882 0.08309219 0.1597454
v 0.3194913 0.08309219 1.525879E-07
v 0.2766882 0.08309219 -0.1597457
v 0.1597457 0.08309219 -0.2766873
v 4.577637E-07 0.08309219 -0.3194913
v -0.3165421 -0.2038434 0.1827561
v 4.577637E-07 -0.2038434 1.525879E-07
v -0.3655114 -0.2038434 1.525879E-07
v -0.1827555 -0.2038434 0.3165427
v 4.577637E-07 -0.2038434 0.3655124
v 0.1827571 -0.2038434 0.3165427
v 0.3165437 -0.2038434 0.1827561
v 0.3655127 -0.2038434 1.525879E-07
v 0.3165431 -0.2038434 -0.1827558
v 0.1827561 -0.2038434 -0.3165431
v 4.577637E-07 -0.2038434 -0.3655124
v -0.1827555 -0.2038434 -0.3165431
v -0.3165425 -0.2038434 -0.1827567
v 4.577637E-07 0.08309219 -0.3194913
v -0.1597454 0.08309219 -0.2766876
v -0.2766869 0.08309219 -0.1597457
v -0.319491 0.08309219 1.525879E-07
v -0.3432769 0.1006244 1.525879E-07
v -0.2972867 0.1006244 0.1716386
v -0.2766869 0.08309219 0.1597454
v -0.1716373 0.1006244 0.297287
v -0.1597454 0.08309219 0.2766873
v 4.577637E-07 0.08309219 0.3194913
v 4.577637E-07 0.1006244 0.3432773
v 0.159746 0.08309219 0.276687
v 0.1716395 0.1006244 0.297287
v 0.2766882 0.08309219 0.1597454
v 0.2972873 0.1006244 0.1716386
v 0.3432783 0.1006244 1.525879E-07
v 0.3194913 0.08309219 1.525879E-07
v 0.2972873 0.1006244 -0.1716386
v 0.2766882 0.08309219 -0.1597457
v 0.1597457 0.08309219 -0.2766873
v 0.1716395 0.1006244 -0.2972873
v 4.577637E-07 0.1006244 -0.3432776
v 4.577637E-07 0.08309219 -0.3194913
v -0.1597454 0.08309219 -0.2766876
v -0.1716383 0.1006244 -0.2972873
v -0.2766869 0.08309219 -0.1597457
v -0.2972867 0.1006244 -0.1716395
v 0.2972873 0.2038434 0.1716386
v 0.1716395 0.2038434 0.297287
v 0.3432783 0.2038434 1.525879E-07
v 0.2972873 0.2038434 -0.1716386
v 0.1716395 0.2038434 -0.2972873
v 4.577637E-07 0.2038434 -0.3432776
v -0.1716383 0.2038434 -0.2972873
v -0.2972867 0.2038434 -0.1716395
v -0.3432769 0.2038434 1.525879E-07
v -0.2972867 0.2038434 0.1716386
v -0.1716373 0.2038434 0.297287
v 4.577637E-07 0.2038434 0.3432773
v 1.144409E-06 0.2038434 1.525879E-07
vt 0.5981 0.622799
vt 0.597599 0.604499
vt 0.579599 0.604499
vt 0.5806 0.622799
vt 0.615499 0.604499
vt 0.6158 0.622799
vt 0.6334 0.622799
vt 0.633499 0.604499
vt 0.651 0.622799
vt 0.6514 0.604499
vt 0.6686 0.622799
vt 0.669399 0.604499
vt 0.6873 0.604499
vt 0.6861 0.622799
vt 0.7037 0.622799
vt 0.7052 0.604499
vt 0.722899 0.604499
vt 0.7214 0.622799
vt 0.7404 0.604499
vt 0.7389 0.622799
vt 0.6333 0.6291
vt 0.6158 0.6291
vt 0.650799 0.6291
vt 0.668299 0.6291
vt 0.685699 0.6291
vt 0.703199 0.6291
vt 0.720799 0.6291
vt 0.7389 0.6291
vt 0.615899 0.6323
vt 0.5985 0.6323
vt 0.598399 0.6291
vt 0.5809 0.6291
vt 0.563399 0.6291
vt 0.563 0.622799
vt 0.561699 0.604499
vt 0.5453 0.622799
vt 0.544 0.604499
vt 0.5278 0.622799
vt 0.526499 0.604499
vt 0.5277 0.6291
vt 0.545799 0.6291
vt 0.581099 0.6323
vt 0.5464 0.6323
vt 0.5291 0.6323
vt 0.5637 0.6323
vt 0.5813 0.636699
vt 0.598599 0.636699
vt 0.615999 0.636699
vt 0.6333 0.6323
vt 0.650699 0.6323
vt 0.668099 0.6323
vt 0.6855 0.6323
vt 0.702899 0.6323
vt 0.7202 0.6323
vt 0.737399 0.6323
vt 0.6333 0.636699
vt 0.6506 0.636699
vt 0.6679 0.636699
vt 0.685199 0.636699
vt 0.7024 0.636699
vt 0.719399 0.636699
vt 0.735099 0.636699
vt 0.526499 0.7694
vt 0.559099 0.7609
vt 0.5266 0.7519
vt 0.535099 0.7845
vt 0.550199 0.793399
vt 0.5676 0.7935
vt 0.582799 0.7849
vt 0.5917 0.7698
vt 0.591799 0.752399
vt 0.583199 0.7372
vt 0.568099 0.728299
vt 0.550599 0.7282
vt 0.535399 0.7368
vt 0.5314 0.636699
vt 0.5472 0.636699
vt 0.5641 0.636699
vt 0.5788 0.6409
vt 0.5784 0.642599
vt 0.596499 0.653299
vt 0.597699 0.652
vt 0.606899 0.671599
vt 0.6086 0.6711
vt 0.608399 0.693099
vt 0.6067 0.6926
vt 0.597299 0.712
vt 0.596099 0.710799
vt 0.578199 0.7228
vt 0.5777 0.721199
vt 0.556699 0.721
vt 0.5562 0.722699
vt 0.5385 0.7103
vt 0.537299 0.7116
vt 0.526499 0.692499
vt 0.528199 0.691999
vt 0.528299 0.671
vt 0.5266 0.670499
vt 0.5378 0.6516
vt 0.538999 0.6528
vt 0.5569 0.640699
vt 0.557299 0.6424
vt 0.575699 0.713199
vt 0.5903 0.7049
vt 0.558899 0.7131
vt 0.544399 0.704599
vt 0.536099 0.689999
vt 0.536199 0.673099
vt 0.5447 0.658699
vt 0.5594 0.650399
vt 0.5762 0.650499
vt 0.590699 0.658999
vt 0.598999 0.6736
vt 0.5988 0.6904
vt 0.567499 0.6818
vn -0.859956 -0.1181847 0.4964958
vn -0.6875044 -0.6080984 0.3969307
vn -0.7938613 -0.6080989 8.489282E-07
vn -0.9929914 -0.1181858 1.277905E-06
vn -0.3969313 -0.6080987 0.6875039
vn -0.4964967 -0.118185 0.8599554
vn 0 -0.1181853 0.9929916
vn 0 -0.6080984 0.7938616
vn 0.4964959 -0.1181849 0.8599558
vn 0.3969305 -0.608099 0.6875041
vn 0.8599566 -0.1181839 0.4964951
vn 0.6875044 -0.6080988 0.3969301
vn 0.7938613 -0.6080989 -1.337065E-06
vn 0.9929917 -0.118184 -1.469965E-06
vn 0.8599558 -0.118186 -0.4964959
vn 0.6875038 -0.6080989 -0.3969311
vn 0.3969317 -0.6080987 -0.6875035
vn 0.4964965 -0.1181863 -0.8599554
vn 0 -0.6080992 -0.7938611
vn 0 -0.1181849 -0.9929916
vn 0 -0.05527742 0.998471
vn -0.4992356 -0.05527836 0.8647012
vn 0.4992352 -0.05527541 0.8647016
vn 0.8647019 -0.05527483 0.4992348
vn 0.9984711 -0.05527695 -8.201601E-07
vn 0.8647018 -0.05527914 -0.4992345
vn 0.499237 -0.05527927 -0.8647004
vn 1.222355E-07 -0.05527783 -0.998471
vn -0.2023553 0.9144459 0.3504871
vn -0.3504892 0.9144454 0.202354
vn -0.8647007 -0.05527813 0.4992363
vn -0.998471 -0.05527901 1.502319E-06
vn -0.864702 -0.05527801 -0.4992341
vn -0.8599561 -0.1181855 -0.4964953
vn -0.6875047 -0.6080984 -0.3969301
vn -0.4964949 -0.1181845 -0.8599566
vn -0.3969296 -0.6080994 -0.6875042
vn 0 -0.1181849 -0.9929916
vn 0 -0.6080992 -0.7938611
vn 1.222355E-07 -0.05527783 -0.998471
vn -0.4992347 -0.05527846 -0.8647017
vn -0.4047075 0.9144462 6.837123E-07
vn -0.2023545 0.9144459 -0.3504875
vn 2.005913E-07 0.914446 -0.4047079
vn -0.3504874 0.914446 -0.2023539
vn -0.5123988 0.8587476 0
vn -0.4437482 0.8587487 0.2561993
vn -0.2561986 0.8587519 0.4437424
vn 0 0.9144465 0.4047069
vn 0.2023531 0.9144468 0.350486
vn 0.3504876 0.914446 0.2023535
vn 0.4047087 0.9144457 -3.521504E-07
vn 0.3504868 0.9144462 -0.202354
vn 0.202353 0.9144466 -0.3504863
vn 2.005913E-07 0.914446 -0.4047079
vn 3.022945E-07 0.8587512 0.5123927
vn 0.2561982 0.8587488 0.4437487
vn 0.4437473 0.8587499 0.2561969
vn 0.5123978 0.8587482 0
vn 0.4437491 0.8587486 -0.2561986
vn 0.256199 0.8587469 -0.4437517
vn 3.306363E-07 0.8587493 -0.512396
vn -0.6875044 -0.6080984 0.3969307
vn 0 -1 0
vn -0.7938613 -0.6080989 8.489282E-07
vn -0.3969313 -0.6080987 0.6875039
vn 0 -0.6080984 0.7938616
vn 0.3969305 -0.608099 0.6875041
vn 0.6875044 -0.6080988 0.3969301
vn 0.7938613 -0.6080989 -1.337065E-06
vn 0.6875038 -0.6080989 -0.3969311
vn 0.3969317 -0.6080987 -0.6875035
vn 0 -0.6080992 -0.7938611
vn -0.3969296 -0.6080994 -0.6875042
vn -0.6875047 -0.6080984 -0.3969301
vn 3.306363E-07 0.8587493 -0.512396
vn -0.2561978 0.8587499 -0.4437469
vn -0.4437511 0.8587478 -0.2561978
vn -0.5123988 0.8587476 0
vn -0.9860568 -0.1664094 0
vn -0.8539493 -0.1664078 0.4930305
vn -0.4437482 0.8587487 0.2561993
vn -0.4930276 -0.1664079 0.853951
vn -0.2561986 0.8587519 0.4437424
vn 3.022945E-07 0.8587512 0.5123927
vn 0 -0.1664096 0.9860567
vn 0.2561982 0.8587488 0.4437487
vn 0.4930285 -0.1664102 0.8539499
vn 0.4437473 0.8587499 0.2561969
vn 0.8539497 -0.1664107 0.4930286
vn 0.9860567 -0.1664097 0
vn 0.5123978 0.8587482 0
vn 0.8539503 -0.1664107 -0.4930277
vn 0.4437491 0.8587486 -0.2561986
vn 0.256199 0.8587469 -0.4437517
vn 0.4930292 -0.1664107 -0.8539494
vn 0 -0.1664108 -0.9860566
vn 3.306363E-07 0.8587493 -0.512396
vn -0.2561978 0.8587499 -0.4437469
vn -0.4930264 -0.1664108 -0.853951
vn -0.4437511 0.8587478 -0.2561978
vn -0.8539504 -0.1664101 -0.493028
vn 0.5067849 0.8108999 0.2925926
vn 0.2925929 0.8108994 0.5067856
vn 0.585186 0.8108991 0
vn 0.5067849 0.8109002 -0.2925919
vn 0.292593 0.8108997 -0.5067849
vn 0 0.8109006 -0.585184
vn -0.2925908 0.8109009 -0.5067845
vn -0.5067846 0.8109004 -0.2925916
vn -0.5851834 0.8109009 0
vn -0.5067841 0.8109 0.2925936
vn -0.292592 0.8109002 0.5067846
vn 0 0.8108999 0.5851849
vn 0 1 0
g meger3d_Char_sundries_C3_2_0
f 3/3/3 2/2/2 1/1/1
f 4/4/4 3/3/3 1/1/1
f 2/2/2 5/5/5 1/1/1
f 5/5/5 6/6/6 1/1/1
f 6/6/6 5/5/5 7/7/7
f 5/5/5 8/8/8 7/7/7
f 7/7/7 8/8/8 9/9/9
f 8/8/8 10/10/10 9/9/9
f 9/9/9 10/10/10 11/11/11
f 10/10/10 12/12/12 11/11/11
f 11/11/11 12/12/12 13/13/13
f 14/14/14 11/11/11 13/13/13
f 14/14/14 13/13/13 15/15/15
f 13/13/13 16/16/16 15/15/15
f 16/16/16 17/17/17 15/15/15
f 17/17/17 18/18/18 15/15/15
f 18/18/18 17/17/17 19/19/19
f 20/20/20 18/18/18 19/19/19
f 6/6/6 7/7/7 21/21/21
f 21/21/21 7/7/7 9/9/9
f 22/22/22 6/6/6 21/21/21
f 23/23/23 21/21/21 9/9/9
f 23/23/23 9/9/9 11/11/11
f 24/24/24 23/23/23 11/11/11
f 24/24/24 11/11/11 14/14/14
f 25/25/25 24/24/24 14/14/14
f 14/14/14 15/15/15 26/26/26
f 25/25/25 14/14/14 26/26/26
f 15/15/15 18/18/18 26/26/26
f 18/18/18 27/27/27 26/26/26
f 28/28/28 27/27/27 18/18/18
f 20/20/20 28/28/28 18/18/18
f 22/22/22 21/21/21 29/29/29
f 22/22/22 29/29/29 30/30/30
f 31/31/31 22/22/22 30/30/30
f 31/31/31 1/1/1 22/22/22
f 1/1/1 31/31/31 32/32/32
f 4/4/4 1/1/1 32/32/32
f 1/1/1 6/6/6 22/22/22
f 32/32/32 33/33/33 4/4/4
f 33/33/33 34/34/34 4/4/4
f 3/3/3 4/4/4 34/34/34
f 35/35/35 3/3/3 34/34/34
f 35/35/35 34/34/34 36/36/36
f 37/37/37 35/35/35 36/36/36
f 37/37/37 36/36/36 38/38/38
f 39/39/39 37/37/37 38/38/38
f 38/38/38 36/36/36 40/40/40
f 36/36/36 41/41/41 40/40/40
f 34/34/34 33/33/33 41/41/41
f 36/36/36 34/34/34 41/41/41
f 31/31/31 30/30/30 42/42/42
f 32/32/32 31/31/31 42/42/42
f 32/32/32 42/42/42 33/33/33
f 41/41/41 43/43/43 40/40/40
f 43/43/43 44/44/44 40/40/40
f 45/45/45 43/43/43 41/41/41
f 33/33/33 45/45/45 41/41/41
f 42/42/42 45/45/45 33/33/33
f 42/42/42 30/30/30 46/46/46
f 45/45/45 42/42/42 46/46/46
f 30/30/30 47/47/47 46/46/46
f 48/48/48 47/47/47 30/30/30
f 29/29/29 48/48/48 30/30/30
f 29/29/29 49/49/49 48/48/48
f 21/21/21 49/49/49 29/29/29
f 50/50/50 49/49/49 21/21/21
f 23/23/23 50/50/50 21/21/21
f 23/23/23 24/24/24 50/50/50
f 24/24/24 51/51/51 50/50/50
f 51/51/51 24/24/24 52/52/52
f 24/24/24 25/25/25 52/52/52
f 25/25/25 26/26/26 52/52/52
f 26/26/26 53/53/53 52/52/52
f 54/54/54 53/53/53 26/26/26
f 27/27/27 54/54/54 26/26/26
f 54/54/54 27/27/27 55/55/55
f 27/27/27 28/28/28 55/55/55
f 49/49/49 56/56/56 48/48/48
f 56/56/56 49/49/49 50/50/50
f 57/57/57 56/56/56 50/50/50
f 50/50/50 51/51/51 58/58/58
f 57/57/57 50/50/50 58/58/58
f 51/51/51 52/52/52 58/58/58
f 52/52/52 59/59/59 58/58/58
f 52/52/52 53/53/53 59/59/59
f 53/53/53 60/60/60 59/59/59
f 61/61/61 60/60/60 53/53/53
f 54/54/54 61/61/61 53/53/53
f 61/61/61 54/54/54 55/55/55
f 62/62/62 61/61/61 55/55/55
f 65/65/65 64/64/64 63/63/63
f 63/63/63 64/64/64 66/66/66
f 66/66/66 64/64/64 67/67/67
f 67/67/67 64/64/64 68/68/68
f 68/68/68 64/64/64 69/69/69
f 69/69/69 64/64/64 70/70/70
f 70/70/70 64/64/64 71/71/71
f 71/71/71 64/64/64 72/72/72
f 72/72/72 64/64/64 73/73/73
f 73/73/73 64/64/64 74/74/74
f 74/74/74 64/64/64 75/75/75
f 75/75/75 64/64/64 65/65/65
f 43/43/43 77/77/77 76/76/76
f 44/44/44 43/43/43 76/76/76
f 43/43/43 45/45/45 77/77/77
f 45/45/45 78/78/78 77/77/77
f 78/78/78 45/45/45 46/46/46
f 81/81/81 80/80/80 79/79/79
f 82/82/82 81/81/81 79/79/79
f 83/83/83 81/81/81 82/82/82
f 84/84/84 83/83/83 82/82/82
f 83/83/83 84/84/84 85/85/85
f 86/86/86 83/83/83 85/85/85
f 85/85/85 87/87/87 86/86/86
f 87/87/87 88/88/88 86/86/86
f 88/88/88 87/87/87 89/89/89
f 90/90/90 88/88/88 89/89/89
f 91/91/91 90/90/90 89/89/89
f 92/92/92 91/91/91 89/89/89
f 91/91/91 92/92/92 93/93/93
f 92/92/92 94/94/94 93/93/93
f 94/94/94 95/95/95 93/93/93
f 95/95/95 96/96/96 93/93/93
f 96/96/96 95/95/95 97/97/97
f 95/95/95 98/98/98 97/97/97
f 98/98/98 99/99/99 97/97/97
f 99/99/99 100/100/100 97/97/97
f 99/99/99 101/101/101 100/100/100
f 101/101/101 102/102/102 100/100/100
f 102/102/102 101/101/101 80/80/80
f 101/101/101 79/79/79 80/80/80
f 90/90/90 91/91/91 103/103/103
f 103/103/103 104/104/104 90/90/90
f 91/91/91 105/105/105 103/103/103
f 91/91/91 93/93/93 105/105/105
f 93/93/93 106/106/106 105/105/105
f 107/107/107 106/106/106 93/93/93
f 96/96/96 107/107/107 93/93/93
f 107/107/107 96/96/96 97/97/97
f 108/108/108 107/107/107 97/97/97
f 108/108/108 97/97/97 100/100/100
f 109/109/109 108/108/108 100/100/100
f 110/110/110 109/109/109 100/100/100
f 102/102/102 110/110/110 100/100/100
f 102/102/102 80/80/80 111/111/111
f 110/110/110 102/102/102 111/111/111
f 111/111/111 80/80/80 112/112/112
f 80/80/80 81/81/81 112/112/112
f 112/112/112 81/81/81 83/83/83
f 113/113/113 112/112/112 83/83/83
f 113/113/113 83/83/83 114/114/114
f 83/83/83 86/86/86 114/114/114
f 114/114/114 86/86/86 104/104/104
f 86/86/86 88/88/88 104/104/104
f 112/112/112 115/115/115 111/111/111
f 113/113/113 115/115/115 112/112/112
f 114/114/114 115/115/115 113/113/113
f 107/107/107 115/115/115 106/106/106
f 108/108/108 115/115/115 107/107/107
f 109/109/109 115/115/115 108/108/108
f 110/110/110 115/115/115 109/109/109
f 111/111/111 115/115/115 110/110/110
f 104/104/104 115/115/115 114/114/114
f 104/104/104 88/88/88 90/90/90
f 103/103/103 115/115/115 104/104/104
f 105/105/105 115/115/115 103/103/103
f 106/106/106 115/115/115 105/105/105
