g meger3d_Char_sundries_C1_3
v -0.2785157 -0.05286148 -0.1643295
v -0.3223084 -0.0521167 -0.09662199
v -0.3498327 -0.1690784 -0.1087285
v -0.2762159 -0.1314146 -0.1997444
v -0.2977075 -0.2696564 -0.1215364
v -0.2170448 -0.2207811 -0.2224325
v -0.3163818 -0.2838863 0
v -0.3675446 -0.1755685 0
v -0.3394126 -0.05131256 0
v -0.1464951 -0.3264477 -0.1157651
v -0.09416687 -0.277064 -0.2100432
v 3.051758E-07 -0.3409067 -0.1071447
v 3.051758E-07 -0.298401 -0.1795846
v 3.051758E-07 -0.3614468 0
v -0.1539591 -0.3446565 0
v -0.1464951 -0.3264477 0.1157651
v -0.2977075 -0.2696564 0.1215364
v 3.051758E-07 -0.3409067 0.1071447
v 3.051758E-07 -0.298401 0.1795846
v -0.09416687 -0.277064 0.2100432
v -0.2170448 -0.2207811 0.2224325
v -0.3498327 -0.1690784 0.1087285
v -0.3223084 -0.0521167 0.09662199
v -0.2762159 -0.1314146 0.1997444
v -0.2785157 -0.05286148 0.1643295
v -0.1755785 -0.05157913 0.246995
v -0.2340024 0.02079895 0.1868833
v -0.09904876 -0.1380236 0.2739833
v 3.051758E-07 -0.2089503 0.2611071
v 0.09416748 -0.277064 0.2100432
v 0.1464944 -0.3264477 0.1157651
v 0.1539591 -0.3446565 0
v 0.1464944 -0.3264477 -0.1157651
v 0.09416748 -0.277064 -0.2100432
v 3.051758E-07 -0.2089503 -0.2611071
v -0.09904876 -0.1380236 -0.2739833
v -0.1755785 -0.05157913 -0.246995
v -0.2340024 0.02079895 -0.1868833
v -0.2792259 0.05469822 -0.09969508
v -0.2971687 0.06223312 0
v -0.2792259 0.05469822 0.09969508
v -0.1755785 -0.05157913 0.246995
v -0.09040001 0.03377327 0.2527973
v 3.051758E-07 -0.0507708 0.2796133
v -0.09904876 -0.1380236 0.2739833
v -0.2340024 0.02079895 0.1868833
v -0.1624169 0.1094316 0.1922495
v 0.09904876 -0.1380236 0.2739833
v 3.051758E-07 -0.2089503 0.2611071
v 0.1755798 -0.05157913 0.246995
v 0.09040001 0.03377327 0.2527973
v 0.2340012 0.02079895 0.1868833
v 0.1624175 0.1094316 0.1922495
v 3.051758E-07 0.1303905 0.2234928
v -0.07266258 0.21966 0.1705559
v 0.07266258 0.21966 0.1705559
v 3.051758E-07 0.2804139 0.1424111
v 0.1061153 0.2760386 0.09162591
v 3.051758E-07 0.3401007 0.08398963
v 0.2042808 0.1532158 0.1027626
v 0.2176587 0.1635959 0
v 0.1133884 0.2906849 0
v 3.051758E-07 0.3614468 0
v 0.2792259 0.05469822 0.09969508
v 0.29717 0.06223312 0
v 0.2792259 0.05469822 -0.09969508
v 0.2042808 0.1532158 -0.1027626
v 0.2340012 0.02079895 -0.1868833
v 0.1624175 0.1094316 -0.1922495
v 0.1061153 0.2760386 -0.09162591
v 3.051758E-07 0.3401007 -0.08398963
v 0.07266258 0.21966 -0.1705559
v 3.051758E-07 0.2804139 -0.1424111
v 3.051758E-07 0.1303905 -0.2234928
v -0.07266258 0.21966 -0.1705559
v 0.09040001 0.03377327 -0.2527973
v 3.051758E-07 -0.0507708 -0.2796133
v -0.09040001 0.03377327 -0.2527973
v -0.1624169 0.1094316 -0.1922495
v 0.1755798 -0.05157913 -0.246995
v 0.09904876 -0.1380236 -0.2739833
v 3.051758E-07 -0.2089503 -0.2611071
v -0.09904876 -0.1380236 -0.2739833
v -0.1755785 -0.05157913 -0.246995
v -0.2340024 0.02079895 -0.1868833
v -0.1061147 0.2760386 -0.09162591
v -0.2042814 0.1532158 -0.1027626
v -0.2176569 0.1635959 0
v -0.1133872 0.2906849 0
v -0.2792259 0.05469822 -0.09969508
v -0.2971687 0.06223312 0
v -0.2792259 0.05469822 0.09969508
v -0.2042814 0.1532158 0.1027626
v -0.1061147 0.2760386 0.09162591
v -0.2792259 0.05469822 0.09969508
v 3.051758E-07 -0.2089503 0.2611071
v 0.09904876 -0.1380236 0.2739833
v 0.2170461 -0.2207811 0.2224325
v 0.09416748 -0.277064 0.2100432
v 0.2762141 -0.1314146 0.1997444
v 0.1755798 -0.05157913 0.246995
v 0.2785169 -0.05286148 0.1643295
v 0.2340012 0.02079895 0.1868833
v 0.322309 -0.0521167 0.09662199
v 0.2792259 0.05469822 0.09969508
v 0.339412 -0.05131256 0
v 0.29717 0.06223312 0
v 0.322309 -0.0521167 -0.09662199
v 0.2792259 0.05469822 -0.09969508
v 0.2785169 -0.05286148 -0.1643295
v 0.2340012 0.02079895 -0.1868833
v 0.2762141 -0.1314146 -0.1997444
v 0.1755798 -0.05157913 -0.246995
v 0.2170461 -0.2207811 -0.2224325
v 0.09904876 -0.1380236 -0.2739833
v 0.09416748 -0.277064 -0.2100432
v 3.051758E-07 -0.2089503 -0.2611071
v 0.2977069 -0.2696564 -0.1215364
v 0.1464944 -0.3264477 -0.1157651
v 0.3163836 -0.2838863 0
v 0.1539591 -0.3446565 0
v 0.3498327 -0.1690784 -0.1087285
v 0.3675446 -0.1755685 0
v 0.3498327 -0.1690784 0.1087285
v 0.2977069 -0.2696564 0.1215364
v 0.1464944 -0.3264477 0.1157651
vt 0.5149415 0.03053898
vt 0.512119 0.03986573
vt 0.5238513 0.04153395
vt 0.5247051 0.02955598
vt 0.5346543 0.04103571
vt 0.5370445 0.02835435
vt 0.5343285 0.0517934
vt 0.5230175 0.05170286
vt 0.5106181 0.05160397
vt 0.5508019 0.03975517
vt 0.5522245 0.02747405
vt 0.566009 0.03914118
vt 0.5635956 0.02937102
vt 0.5671453 0.05205578
vt 0.5515199 0.05193043
vt 0.550606 0.06409335
vt 0.5344811 0.06255567
vt 0.5658015 0.06495023
vt 0.5632322 0.07468092
vt 0.5518321 0.07639569
vt 0.5366683 0.07527369
vt 0.5236878 0.0618847
vt 0.5119301 0.06336421
vt 0.5243503 0.07387429
vt 0.5146035 0.07273555
vt 0.5216912 0.08786052
vt 0.5079907 0.07955629
vt 0.5391987 0.09076065
vt 0.5569085 0.08883202
vt 0.5721104 0.08105981
vt 0.5812621 0.06814581
vt 0.5835714 0.05218756
vt 0.581518 0.03619456
vt 0.5725753 0.02313519
vt 0.5574986 0.01512045
vt 0.5398217 0.01290941
vt 0.5222703 0.01552904
vt 0.5084386 0.02361339
vt 0.5005695 0.03643239
vt 0.498059 0.05150312
vt 0.5003276 0.06661266
vt 0.4679967 0.02783924
vt 0.4604729 0.03814679
vt 0.4697326 0.04905307
vt 0.4786828 0.03781569
vt 0.4551438 0.01914167
vt 0.4493959 0.0293386
vt 0.4787617 0.06022733
vt 0.486573 0.04899347
vt 0.4681466 0.07027948
vt 0.4605503 0.06002498
vt 0.4553553 0.07906741
vt 0.4495353 0.06891197
vt 0.4515495 0.04911751
vt 0.4415823 0.0412305
vt 0.4416382 0.05707538
vt 0.4362015 0.04917204
vt 0.4327748 0.06017107
vt 0.4299217 0.0491941
vt 0.4376202 0.07450861
vt 0.4248838 0.07680702
vt 0.4248282 0.0611406
vt 0.4247869 0.04921246
vt 0.441045 0.08653617
vt 0.4249295 0.08975232
vt 0.4087911 0.0866496
vt 0.4121315 0.07459843
vt 0.3944294 0.07928216
vt 0.4001775 0.0690859
vt 0.4168761 0.06022751
vt 0.4196522 0.04923016
vt 0.4079916 0.05719358
vt 0.4133728 0.04925221
vt 0.3980246 0.04930621
vt 0.407936 0.04134935
vt 0.3891016 0.06027615
vt 0.379842 0.04936999
vt 0.3890245 0.03839856
vt 0.4000384 0.02951247
vt 0.3815767 0.07058448
vt 0.3708915 0.06060725
vt 0.3630004 0.04942942
vt 0.3708122 0.03819609
vt 0.3814279 0.02814424
vt 0.3942194 0.01935601
vt 0.4167987 0.03825366
vt 0.4119532 0.02391559
vt 0.4246897 0.02161789
vt 0.4247447 0.03728426
vt 0.4085284 0.01188868
vt 0.424644 0.008672595
vt 0.440782 0.0117749
vt 0.4374418 0.023826
vt 0.432698 0.03819746
vt 0.440782 0.0117749
vt 0.7263843 0.07299131
vt 0.7193024 0.0548259
vt 0.6978211 0.05942494
vt 0.7066464 0.07725942
vt 0.6931554 0.04376507
vt 0.711002 0.03589624
vt 0.6905216 0.03106266
vt 0.6985644 0.02084929
vt 0.6782405 0.02926612
vt 0.681782 0.013004
vt 0.6632819 0.02824908
vt 0.6632819 0.01082891
vt 0.6483234 0.029266
vt 0.6447821 0.013004
vt 0.6360431 0.03106272
vt 0.6280003 0.02084935
vt 0.6334101 0.04376501
vt 0.6155627 0.0358963
vt 0.6287438 0.05942494
vt 0.6072633 0.05482674
vt 0.6199191 0.0772593
vt 0.6001815 0.07299215
vt 0.6472926 0.06154686
vt 0.6407382 0.08354539
vt 0.6632819 0.06268591
vt 0.6632819 0.08746225
vt 0.6495436 0.0460825
vt 0.6632819 0.04605895
vt 0.6770201 0.0460825
vt 0.6792721 0.06154692
vt 0.6858263 0.08354539
vn -0.7364909 0.2602435 -0.6243832
vn -0.9012089 0.2860208 -0.3255989
vn -0.9091086 -0.1169136 -0.3998158
vn -0.6291766 -0.02125191 -0.7769718
vn -0.5791255 -0.7000762 -0.4177405
vn -0.3914781 -0.4414646 -0.8073747
vn -0.6198832 -0.7846941 0
vn -0.9921224 -0.1252722 0
vn -0.9565501 0.291568 0
vn -0.2277496 -0.9087707 -0.3496656
vn -0.1442076 -0.6738508 -0.724658
vn 0 -0.9529658 -0.303078
vn 0 -0.8068702 -0.5907286
vn 0 -1 0
vn -0.2377441 -0.9713279 0
vn -0.2277496 -0.9087707 0.3496656
vn -0.5791255 -0.7000762 0.4177405
vn 0 -0.9529658 0.303078
vn 0 -0.8068702 0.5907286
vn -0.1442076 -0.6738508 0.724658
vn -0.3914781 -0.4414646 0.8073747
vn -0.9091086 -0.1169136 0.3998158
vn -0.9012089 0.2860208 0.3255989
vn -0.6291765 -0.02125191 0.7769719
vn -0.7364909 0.2602435 0.6243832
vn -0.4706725 0.05386803 0.880662
vn -0.7034184 0.2721989 0.6565899
vn -0.2494522 -0.2642342 0.9316404
vn -0.07496156 -0.5432656 0.8362076
vn 0.03052361 -0.8030943 0.5950696
vn 0.08098247 -0.9531774 0.2913671
vn 0.09844429 -0.9951426 0
vn 0.08098246 -0.9531774 -0.2913671
vn 0.03052359 -0.8030943 -0.5950696
vn -0.07496154 -0.5432656 -0.8362077
vn -0.2494522 -0.2642341 -0.9316404
vn -0.4706726 0.05386804 -0.880662
vn -0.7034184 0.2721989 -0.6565899
vn -0.8803483 0.3408056 -0.3299066
vn -0.9333832 0.3588813 0
vn -0.8803483 0.3408056 0.3299066
vn -0.2919894 0.2191105 0.9309848
vn -0.195167 0.2927481 0.9360601
vn 1.72239E-07 0.1111393 0.9938048
vn -0.09833716 0.01532664 0.9950352
vn -0.5489439 0.4151756 0.7254584
vn -0.4637757 0.459372 0.7575549
vn 0.0983369 0.01532674 0.9950352
vn 0 -0.1162019 0.9932256
vn 0.2919899 0.2191108 0.9309846
vn 0.1951666 0.2927481 0.9360602
vn 0.5489455 0.4151743 0.7254578
vn 0.4637777 0.4593719 0.7575538
vn 2.708092E-07 0.3996196 0.9166811
vn -0.3224872 0.5358927 0.7802698
vn 0.3224869 0.5358924 0.7802702
vn 2.020963E-07 0.6437132 0.7652668
vn 0.6076061 0.693318 0.3874595
vn 0 0.9106591 0.4131586
vn 0.7129152 0.5872561 0.383252
vn 0.7821841 0.6230474 0
vn 0.6723241 0.7402569 0
vn 0 1 0
vn 0.7429151 0.5639179 0.3606573
vn 0.7925879 0.6097577 0
vn 0.7429151 0.5639179 -0.3606573
vn 0.7129152 0.5872561 -0.3832521
vn 0.5489455 0.4151743 -0.7254578
vn 0.4637776 0.4593719 -0.7575538
vn 0.6076061 0.6933181 -0.3874595
vn 0 0.9106592 -0.4131586
vn 0.3224869 0.5358924 -0.7802702
vn 1.894652E-07 0.6437132 -0.7652668
vn 2.398595E-07 0.3996196 -0.9166811
vn -0.3224872 0.5358927 -0.7802698
vn 0.1951666 0.2927481 -0.9360602
vn 2.113842E-07 0.1111393 -0.9938048
vn -0.195167 0.2927481 -0.9360601
vn -0.4637758 0.459372 -0.7575549
vn 0.2919899 0.2191108 -0.9309846
vn 0.09833695 0.01532676 -0.9950352
vn 0 -0.1162019 -0.9932256
vn -0.09833712 0.01532664 -0.9950352
vn -0.2919894 0.2191105 -0.9309848
vn -0.5489439 0.4151756 -0.7254584
vn -0.6076067 0.6933193 -0.3874562
vn -0.7129161 0.5872585 -0.383247
vn -0.7821835 0.6230481 0
vn -0.6723238 0.7402572 0
vn -0.7429156 0.5639205 -0.3606521
vn -0.7925879 0.6097578 0
vn -0.7429156 0.5639205 0.3606522
vn -0.7129161 0.5872584 0.383247
vn -0.6076066 0.6933194 0.3874563
vn -0.7429156 0.5639205 0.3606522
vn 0.1372544 -0.4178256 0.8980997
vn 0.2494523 -0.2642353 0.9316401
vn 0.3914812 -0.4414649 0.807373
vn 0.2049236 -0.5878991 0.7825477
vn 0.6291755 -0.02125157 0.7769726
vn 0.4706762 0.05386968 0.8806599
vn 0.7364901 0.2602417 0.624385
vn 0.7034158 0.2722023 0.6565912
vn 0.9012092 0.2860184 0.3256003
vn 0.8803466 0.3408073 0.3299094
vn 0.9565508 0.2915659 0
vn 0.933385 0.3588767 0
vn 0.9012092 0.2860184 -0.3256002
vn 0.8803466 0.3408073 -0.3299094
vn 0.7364901 0.2602417 -0.6243849
vn 0.7034158 0.2722023 -0.6565912
vn 0.6291755 -0.02125158 -0.7769726
vn 0.4706762 0.05386966 -0.88066
vn 0.3914812 -0.4414649 -0.807373
vn 0.2494523 -0.2642353 -0.9316401
vn 0.2049235 -0.5878991 -0.7825477
vn 0.1372543 -0.4178256 -0.8980997
vn 0.5791234 -0.7000769 -0.4177421
vn 0.3187965 -0.8673666 -0.3821572
vn 0.6198854 -0.7846924 0
vn 0.3482987 -0.9373835 0
vn 0.9091084 -0.1169112 -0.399817
vn 0.9921227 -0.1252694 0
vn 0.9091084 -0.1169113 0.399817
vn 0.5791233 -0.7000769 0.4177421
vn 0.3187965 -0.8673666 0.3821572
g meger3d_Char_sundries_C1_3_0
f 3/3/3 2/2/2 1/1/1
f 4/4/4 3/3/3 1/1/1
f 5/5/5 3/3/3 4/4/4
f 6/6/6 5/5/5 4/4/4
f 5/5/5 7/7/7 3/3/3
f 7/7/7 8/8/8 3/3/3
f 3/3/3 8/8/8 2/2/2
f 8/8/8 9/9/9 2/2/2
f 10/10/10 5/5/5 6/6/6
f 11/11/11 10/10/10 6/6/6
f 12/12/12 10/10/10 11/11/11
f 13/13/13 12/12/12 11/11/11
f 12/12/12 14/14/14 10/10/10
f 14/14/14 15/15/15 10/10/10
f 15/15/15 7/7/7 5/5/5
f 10/10/10 15/15/15 5/5/5
f 15/15/15 16/16/16 7/7/7
f 16/16/16 17/17/17 7/7/7
f 7/7/7 17/17/17 8/8/8
f 18/18/18 16/16/16 15/15/15
f 14/14/14 18/18/18 15/15/15
f 18/18/18 19/19/19 16/16/16
f 19/19/19 20/20/20 16/16/16
f 16/16/16 20/20/20 17/17/17
f 20/20/20 21/21/21 17/17/17
f 8/8/8 22/22/22 9/9/9
f 17/17/17 22/22/22 8/8/8
f 17/17/17 21/21/21 22/22/22
f 22/22/22 23/23/23 9/9/9
f 21/21/21 24/24/24 22/22/22
f 22/22/22 24/24/24 23/23/23
f 24/24/24 25/25/25 23/23/23
f 24/24/24 26/26/26 25/25/25
f 26/26/26 27/27/27 25/25/25
f 28/28/28 26/26/26 24/24/24
f 21/21/21 28/28/28 24/24/24
f 29/29/29 28/28/28 21/21/21
f 20/20/20 29/29/29 21/21/21
f 30/30/30 29/29/29 20/20/20
f 19/19/19 30/30/30 20/20/20
f 30/30/30 19/19/19 18/18/18
f 31/31/31 30/30/30 18/18/18
f 31/31/31 18/18/18 14/14/14
f 32/32/32 31/31/31 14/14/14
f 32/32/32 14/14/14 12/12/12
f 33/33/33 32/32/32 12/12/12
f 33/33/33 12/12/12 13/13/13
f 34/34/34 33/33/33 13/13/13
f 34/34/34 13/13/13 35/35/35
f 13/13/13 11/11/11 35/35/35
f 35/35/35 11/11/11 36/36/36
f 11/11/11 6/6/6 36/36/36
f 36/36/36 6/6/6 37/37/37
f 6/6/6 4/4/4 37/37/37
f 37/37/37 4/4/4 38/38/38
f 4/4/4 1/1/1 38/38/38
f 1/1/1 2/2/2 38/38/38
f 2/2/2 39/39/39 38/38/38
f 2/2/2 9/9/9 39/39/39
f 9/9/9 40/40/40 39/39/39
f 9/9/9 23/23/23 40/40/40
f 23/23/23 41/41/41 40/40/40
f 23/23/23 25/25/25 41/41/41
f 25/25/25 27/27/27 41/41/41
f 44/44/44 43/43/43 42/42/42
f 45/45/45 44/44/44 42/42/42
f 42/42/42 43/43/43 46/46/46
f 43/43/43 47/47/47 46/46/46
f 48/48/48 44/44/44 45/45/45
f 49/49/49 48/48/48 45/45/45
f 48/48/48 50/50/50 44/44/44
f 50/50/50 51/51/51 44/44/44
f 44/44/44 51/51/51 43/43/43
f 50/50/50 52/52/52 51/51/51
f 52/52/52 53/53/53 51/51/51
f 43/43/43 54/54/54 47/47/47
f 51/51/51 54/54/54 43/43/43
f 51/51/51 53/53/53 54/54/54
f 54/54/54 55/55/55 47/47/47
f 53/53/53 56/56/56 54/54/54
f 54/54/54 56/56/56 55/55/55
f 56/56/56 57/57/57 55/55/55
f 56/56/56 58/58/58 57/57/57
f 58/58/58 59/59/59 57/57/57
f 55/55/55 57/57/57 59/59/59
f 60/60/60 58/58/58 56/56/56
f 53/53/53 60/60/60 56/56/56
f 60/60/60 61/61/61 58/58/58
f 61/61/61 62/62/62 58/58/58
f 58/58/58 62/62/62 59/59/59
f 62/62/62 63/63/63 59/59/59
f 64/64/64 60/60/60 53/53/53
f 52/52/52 64/64/64 53/53/53
f 65/65/65 61/61/61 60/60/60
f 64/64/64 65/65/65 60/60/60
f 65/65/65 66/66/66 61/61/61
f 66/66/66 67/67/67 61/61/61
f 61/61/61 67/67/67 62/62/62
f 66/66/66 68/68/68 67/67/67
f 68/68/68 69/69/69 67/67/67
f 62/62/62 70/70/70 63/63/63
f 67/67/67 70/70/70 62/62/62
f 67/67/67 69/69/69 70/70/70
f 70/70/70 71/71/71 63/63/63
f 69/69/69 72/72/72 70/70/70
f 70/70/70 72/72/72 71/71/71
f 72/72/72 73/73/73 71/71/71
f 72/72/72 74/74/74 73/73/73
f 74/74/74 75/75/75 73/73/73
f 76/76/76 74/74/74 72/72/72
f 69/69/69 76/76/76 72/72/72
f 76/76/76 77/77/77 74/74/74
f 77/77/77 78/78/78 74/74/74
f 74/74/74 78/78/78 75/75/75
f 78/78/78 79/79/79 75/75/75
f 80/80/80 76/76/76 69/69/69
f 68/68/68 80/80/80 69/69/69
f 81/81/81 77/77/77 76/76/76
f 80/80/80 81/81/81 76/76/76
f 81/81/81 82/82/82 77/77/77
f 82/82/82 83/83/83 77/77/77
f 77/77/77 83/83/83 78/78/78
f 78/78/78 84/84/84 79/79/79
f 83/83/83 84/84/84 78/78/78
f 84/84/84 85/85/85 79/79/79
f 86/86/86 71/71/71 73/73/73
f 75/75/75 86/86/86 73/73/73
f 87/87/87 86/86/86 75/75/75
f 79/79/79 87/87/87 75/75/75
f 87/87/87 88/88/88 86/86/86
f 88/88/88 89/89/89 86/86/86
f 86/86/86 89/89/89 71/71/71
f 89/89/89 63/63/63 71/71/71
f 90/90/90 87/87/87 79/79/79
f 85/85/85 90/90/90 79/79/79
f 91/91/91 88/88/88 87/87/87
f 90/90/90 91/91/91 87/87/87
f 91/91/91 92/92/92 88/88/88
f 92/92/92 93/93/93 88/88/88
f 88/88/88 93/93/93 89/89/89
f 89/89/89 94/94/94 63/63/63
f 93/93/93 94/94/94 89/89/89
f 94/94/94 59/59/59 63/63/63
f 93/93/93 47/47/47 94/94/94
f 46/46/46 47/47/47 93/93/93
f 95/95/95 46/46/46 93/93/93
f 47/47/47 55/55/55 94/94/94
f 94/94/94 55/55/55 59/59/59
f 98/98/98 97/97/97 96/96/96
f 99/99/99 98/98/98 96/96/96
f 98/98/98 100/100/100 97/97/97
f 100/100/100 101/101/101 97/97/97
f 100/100/100 102/102/102 101/101/101
f 102/102/102 103/103/103 101/101/101
f 102/102/102 104/104/104 103/103/103
f 104/104/104 105/105/105 103/103/103
f 104/104/104 106/106/106 105/105/105
f 106/106/106 107/107/107 105/105/105
f 106/106/106 108/108/108 107/107/107
f 108/108/108 109/109/109 107/107/107
f 108/108/108 110/110/110 109/109/109
f 110/110/110 111/111/111 109/109/109
f 110/110/110 112/112/112 111/111/111
f 110/110/110 108/108/108 112/112/112
f 112/112/112 113/113/113 111/111/111
f 112/112/112 114/114/114 113/113/113
f 114/114/114 115/115/115 113/113/113
f 114/114/114 116/116/116 115/115/115
f 116/116/116 117/117/117 115/115/115
f 114/114/114 118/118/118 116/116/116
f 118/118/118 119/119/119 116/116/116
f 118/118/118 120/120/120 119/119/119
f 120/120/120 121/121/121 119/119/119
f 122/122/122 118/118/118 114/114/114
f 112/112/112 122/122/122 114/114/114
f 108/108/108 122/122/122 112/112/112
f 108/108/108 106/106/106 122/122/122
f 106/106/106 123/123/123 122/122/122
f 123/123/123 120/120/120 118/118/118
f 122/122/122 123/123/123 118/118/118
f 123/123/123 124/124/124 120/120/120
f 124/124/124 125/125/125 120/120/120
f 120/120/120 125/125/125 121/121/121
f 104/104/104 124/124/124 123/123/123
f 106/106/106 104/104/104 123/123/123
f 104/104/104 102/102/102 124/124/124
f 102/102/102 100/100/100 124/124/124
f 124/124/124 100/100/100 125/125/125
f 100/100/100 98/98/98 125/125/125
f 125/125/125 126/126/126 121/121/121
f 125/125/125 98/98/98 126/126/126
f 98/98/98 99/99/99 126/126/126
