g meger3d_Char_weapon_C1_5
v 0.1122877 -0.4484066 -0.1122877
v 0.2074805 -0.3584543 -0.2074805
v 0 -0.3584543 -0.2934217
v 1.66667E-24 -0.4484066 -0.1587987
v -0.2074805 -0.3584543 -0.2074805
v -0.1122877 -0.4484066 -0.1122877
v -0.2934217 -0.3584543 0
v -0.1587987 -0.4484066 -1.66667E-24
v -0.2074805 -0.3584543 0.2074805
v -0.1122877 -0.4484066 0.1122877
v 0 -0.3584543 0.2934217
v 1.66667E-24 -0.4484066 0.1587987
v 0.2074805 -0.3584543 0.2074805
v 0.1122877 -0.4484066 0.1122877
v 0.2934218 -0.3584543 0
v 0.1587987 -0.4484066 0
v 0.2074805 -0.3584543 -0.2074805
v 0.1122877 -0.4484066 -0.1122877
v -0.2710863 -0.2238313 -0.2710863
v -0.383374 -0.2238313 0
v -0.2710863 -0.2238313 0.2710863
v 0 -0.2238313 0.383374
v 0.2710863 -0.2238313 0.2710863
v 0.383374 -0.2238313 3.33334E-24
v 0.2710863 -0.2238313 -0.2710863
v -0.414961 -0.06503259 0
v -0.2934217 -0.06503259 -0.2934217
v 0 -0.2238313 -0.383374
v 0.2710863 -0.2238313 -0.2710863
v 0 -0.06503259 -0.414961
v 0.2934217 -0.06503259 -0.2934217
v -0.2934217 -0.06503259 0.2934217
v 0 -0.06503259 0.414961
v 0.2934218 -0.06503259 0.2934218
v 0.4149611 -0.06503259 0
v 0 0.09376613 -0.383374
v 0.2710863 0.09376613 -0.2710863
v -0.2710863 0.09376613 -0.2710863
v -0.383374 0.09376613 0
v -0.2710863 0.09376613 0.2710863
v 0 0.09376613 0.383374
v 0.2710863 0.09376613 0.2710863
v 0.383374 0.09376613 3.33334E-24
v 0.2710863 0.09376613 -0.2710863
v 0 0.2283892 -0.2934217
v 0.2074805 0.2283892 -0.2074805
v -0.2074805 0.2283892 -0.2074805
v -0.2934217 0.2283892 0
v -0.2074805 0.2283892 0.2074805
v 0 0.2283892 0.2934217
v 0.2074805 0.2283892 0.2074805
v 0.2934218 0.2283892 0
v 0.2074805 0.2283892 -0.2074805
v 1.66667E-24 0.3183415 -0.1587987
v 0.1122877 0.3183415 -0.1122877
v -0.1122877 0.3183415 -0.1122877
v -0.1587987 0.3183415 -1.66667E-24
v -0.1122877 0.3183415 0.1122877
v 1.66667E-24 0.3183415 0.1587987
v 0.1122877 0.3183415 0.1122877
v 0.1587987 0.3183415 0
v 0.1122877 0.3183415 -0.1122877
v 0 -0.4799937 0
v 0 -0.4799937 0
v 0 -0.4799937 0
v 0 -0.4799937 0
v 0 -0.4799937 0
v 0 -0.4799937 0
v 0 -0.4799937 0
v 0 -0.4799937 0
v 0.1312745 0.2378176 -0.1312745
v 0.1312745 0.450813 -0.1312745
v 0 0.450813 -0.1856502
v 0 0.2378176 -0.1856502
v -0.1312745 0.450813 -0.1312745
v -0.1312745 0.2378176 -0.1312745
v -0.1856502 0.450813 0
v -0.1856502 0.2378176 0
v -0.1312745 0.450813 0.1312745
v -0.1312745 0.2378176 0.1312745
v 0 0.450813 0.1856502
v 0 0.2378176 0.1856502
v 0.1312745 0.450813 0.1312745
v 0.1312745 0.2378176 0.1312745
v 0.1856502 0.450813 0
v 0.1856502 0.2378176 0
v 0.1312745 0.450813 -0.1312745
v 0 0.450813 0
v 0 0.450813 -0.1856502
v -0.1312745 0.450813 -0.1312745
v -0.1856502 0.450813 0
v -0.1312745 0.450813 0.1312745
v 0 0.450813 0.1856502
v 0.1312745 0.450813 0.1312745
v 0.1856502 0.450813 0
v -0.01693868 0.4320456 -0.03538504
v -0.01693868 0.5105063 -0.03538504
v -0.03888751 0.5105063 0.005175059
v -0.03888751 0.4320456 0.005175059
v -0.00709512 0.5105063 0.03858341
v -0.00709512 0.4320456 0.03858341
v 0.03450248 0.5105063 0.01867079
v 0.03450248 0.4320456 0.01867079
v 0.02841883 0.5105063 -0.02704422
v 0.02841883 0.4320456 -0.02704422
v 0.05370915 0.62654 -0.1026157
v 0.07465155 0.6367115 -0.07104068
v 0.04624585 0.6633404 -0.07584044
v 0.07803825 0.6633404 -0.04243209
v 0.1051503 0.62654 -0.04855984
v 0.09011412 0.6037964 -0.08575533
v -0.01693868 0.5105063 -0.03538504
v 0.006322263 0.5731263 -0.05752087
v -0.009180294 0.5996106 -0.02309523
v -0.03888751 0.5105063 0.005175059
v 0.0226121 0.5996106 0.01031311
v -0.00709512 0.5105063 0.03858341
v 0.05776343 0.5731263 -0.003465031
v 0.03450248 0.5105063 0.01867079
v 0.04769576 0.556758 -0.04538872
v 0.02841883 0.5105063 -0.02704422
v 0.04624585 0.6633404 -0.07584044
v 0.05370915 0.62654 -0.1026157
v 0.07803825 0.6633404 -0.04243209
v 0.1051503 0.62654 -0.04855984
v 0.09011412 0.6037964 -0.08575533
vt 0.9616815 0.8755444
vt 0.9616815 0.8755473
vt 0.9616844 0.8755473
vt 0.9616844 0.8755444
vt 0.9616873 0.8755473
vt 0.9616873 0.8755444
vt 0.9616901 0.8755473
vt 0.9616901 0.8755444
vt 0.961693 0.8755473
vt 0.961693 0.8755444
vt 0.9616958 0.8755473
vt 0.9616958 0.8755444
vt 0.9616987 0.8755473
vt 0.9616987 0.8755444
vt 0.9617016 0.8755473
vt 0.9617016 0.8755444
vt 0.9617044 0.8755473
vt 0.9617044 0.8755444
vt 0.9616873 0.8755502
vt 0.9616901 0.8755502
vt 0.961693 0.8755502
vt 0.9616958 0.8755502
vt 0.9616987 0.8755502
vt 0.9617016 0.8755502
vt 0.9617044 0.8755502
vt 0.9616901 0.875553
vt 0.9616873 0.875553
vt 0.9616844 0.8755502
vt 0.9616815 0.8755502
vt 0.9616844 0.875553
vt 0.9616815 0.875553
vt 0.961693 0.875553
vt 0.9616958 0.875553
vt 0.9616987 0.875553
vt 0.9617016 0.875553
vt 0.9616844 0.8755559
vt 0.9616815 0.8755559
vt 0.9616873 0.8755559
vt 0.9616901 0.8755559
vt 0.961693 0.8755559
vt 0.9616958 0.8755559
vt 0.9616987 0.8755559
vt 0.9617016 0.8755559
vt 0.9617044 0.8755559
vt 0.9616844 0.8755587
vt 0.9616815 0.8755587
vt 0.9616873 0.8755587
vt 0.9616901 0.8755587
vt 0.961693 0.8755587
vt 0.9616958 0.8755587
vt 0.9616987 0.8755587
vt 0.9617016 0.8755587
vt 0.9617044 0.8755587
vt 0.9616844 0.8755616
vt 0.9616815 0.8755616
vt 0.9616873 0.8755616
vt 0.9616901 0.8755616
vt 0.961693 0.8755616
vt 0.9616958 0.8755616
vt 0.9616987 0.8755616
vt 0.9617016 0.8755616
vt 0.9617044 0.8755616
vt 0.961683 0.8755416
vt 0.9616858 0.8755416
vt 0.9616887 0.8755416
vt 0.9616916 0.8755416
vt 0.9616944 0.8755416
vt 0.9616973 0.8755416
vt 0.9617001 0.8755416
vt 0.961703 0.8755416
vt 0.9616901 0.8755487
vt 0.9616901 0.8755573
vt 0.9616908 0.8755573
vt 0.9616908 0.8755487
vt 0.9616916 0.8755573
vt 0.9616916 0.8755487
vt 0.9616923 0.8755573
vt 0.9616923 0.8755487
vt 0.961693 0.8755573
vt 0.961693 0.8755487
vt 0.9616937 0.8755573
vt 0.9616937 0.8755487
vt 0.9616944 0.8755573
vt 0.9616944 0.8755487
vt 0.9616951 0.8755573
vt 0.9616951 0.8755487
vt 0.9616955 0.8755634
vt 0.961693 0.8755607
vt 0.961693 0.8755645
vt 0.9616904 0.8755634
vt 0.9616894 0.8755609
vt 0.9616904 0.8755583
vt 0.961693 0.8755573
vt 0.9616955 0.8755583
vt 0.9616966 0.8755609
vt 0.1201929 0.8474734
vt 0.1201929 0.8474686
vt 0.1201923 0.8474686
vt 0.1201923 0.8474734
vt 0.1201917 0.8474686
vt 0.1201917 0.8474734
vt 0.120191 0.8474686
vt 0.120191 0.8474734
vt 0.1201904 0.8474686
vt 0.1201904 0.8474734
vt 0.1201907 0.8474646
vt 0.1201913 0.8474666
vt 0.120193 0.8474654
vt 0.120193 0.8474677
vt 0.1201907 0.8474685
vt 0.1201893 0.8474666
vt 0.1201907 0.8474646
vt 0.1201907 0.8474646
vt 0.120193 0.8474654
vt 0.120193 0.8474654
vt 0.120193 0.8474677
vt 0.120193 0.8474677
vt 0.1201907 0.8474685
vt 0.1201907 0.8474685
vt 0.1201893 0.8474666
vt 0.1201893 0.8474666
vt 0.120193 0.8474654
vt 0.1201907 0.8474646
vt 0.120193 0.8474677
vt 0.1201907 0.8474685
vt 0.1201893 0.8474666
vn 0.3508807 -0.8681967 -0.3508807
vn 0.53476 -0.6542656 -0.5347601
vn 0 -0.6542655 -0.7562649
vn 0 -0.8681967 -0.4962204
vn -0.53476 -0.6542656 -0.53476
vn -0.3508808 -0.8681967 -0.3508807
vn -0.7562649 -0.6542655 0
vn -0.4962204 -0.8681967 0
vn -0.53476 -0.6542656 0.53476
vn -0.3508808 -0.8681967 0.3508807
vn 0 -0.6542655 0.7562649
vn 0 -0.8681967 0.4962203
vn 0.5347599 -0.6542656 0.53476
vn 0.3508807 -0.8681967 0.3508807
vn 0.7562649 -0.6542655 0
vn 0.4962204 -0.8681967 0
vn 0.53476 -0.6542656 -0.5347601
vn 0.3508807 -0.8681967 -0.3508807
vn -0.6624101 -0.3498939 -0.6624101
vn -0.9367894 -0.3498938 0
vn -0.6624101 -0.3498939 0.6624101
vn 0 -0.3498939 0.9367894
vn 0.6624101 -0.3498939 0.6624101
vn 0.9367894 -0.3498939 0
vn 0.6624101 -0.3498939 -0.6624101
vn -1 0 0
vn -0.7071068 0 -0.7071068
vn 0 -0.3498939 -0.9367894
vn 0.6624101 -0.3498939 -0.6624101
vn 0 0 -1
vn 0.7071068 0 -0.7071068
vn -0.7071068 0 0.7071066
vn 0 0 1
vn 0.7071068 0 0.7071068
vn 1 0 0
vn 0 0.3498939 -0.9367894
vn 0.6624101 0.3498939 -0.6624101
vn -0.6624101 0.3498939 -0.6624101
vn -0.9367894 0.3498938 0
vn -0.6624101 0.3498939 0.6624101
vn 0 0.3498939 0.9367894
vn 0.6624101 0.3498939 0.6624101
vn 0.9367894 0.3498939 0
vn 0.6624101 0.3498939 -0.6624101
vn 0 0.6542656 -0.7562649
vn 0.5347599 0.6542655 -0.5347601
vn -0.53476 0.6542655 -0.5347601
vn -0.7562649 0.6542655 0
vn -0.5347601 0.6542655 0.5347601
vn 0 0.6542656 0.7562649
vn 0.53476 0.6542656 0.5347601
vn 0.7562649 0.6542655 0
vn 0.5347599 0.6542655 -0.5347601
vn 0 0.8314695 -0.5555704
vn 0.3928475 0.8314695 -0.3928476
vn -0.3928476 0.8314695 -0.3928476
vn -0.5555704 0.8314695 0
vn -0.3928476 0.8314695 0.3928475
vn 0 0.8314695 0.5555704
vn 0.3928475 0.8314695 0.3928476
vn 0.5555705 0.8314695 0
vn 0.3928475 0.8314695 -0.3928476
vn 0 -1 0
vn 0 -1 0
vn 0 -1 0
vn 0 -1 0
vn 0 -1 0
vn 0 -1 0
vn 0 -1 0
vn 0 -1 0
vn 0.7071066 0 -0.7071068
vn 0.7071066 0 -0.7071068
vn 0 0 -1
vn 0 0 -1
vn -0.7071068 0 -0.7071068
vn -0.7071068 0 -0.7071068
vn -1 0 0
vn -1 0 0
vn -0.7071068 0 0.7071068
vn -0.7071068 0 0.7071068
vn 0 0 1
vn 0 0 1
vn 0.7071066 0 0.7071068
vn 0.7071066 0 0.7071068
vn 1 0 0
vn 1 0 0
vn 0 1 0
vn 0 1 0
vn 0 1 0
vn 0 1 -2.434219E-07
vn 0 1 -2.434219E-07
vn 0 1 0
vn 0 1 0
vn 0 1 0
vn 0 1 0
vn -0.431775 0 -0.9019814
vn -0.5457617 -0.02049169 -0.8376899
vn -0.9603223 0.196413 0.1979978
vn -0.9912611 0 0.1319148
vn -0.2453275 0.1964131 0.9493347
vn -0.1808582 0 0.9835091
vn 0.8096254 -0.02049168 0.5865892
vn 0.8794848 0 0.4759271
vn 0.7037868 -0.2369089 -0.6697449
vn 0.7244095 0 -0.6893699
vn 0.6077948 0.5440964 -0.5783983
vn 0.6077964 0.5440965 -0.5783966
vn 0.6077955 0.5440965 -0.5783976
vn 0.6077969 0.5440964 -0.5783962
vn 0.6077982 0.5440962 -0.5783948
vn 0.6077964 0.5440969 -0.5783962
vn -0.5457617 -0.02049169 -0.8376899
vn -0.5911488 -0.1170866 -0.7980187
vn -0.8423394 0.5286429 0.1048859
vn -0.9603223 0.196413 0.1979978
vn -0.1464852 0.528643 0.8361093
vn -0.2453275 0.1964131 0.9493347
vn 0.7677546 -0.1170865 0.6299553
vn 0.8096254 -0.02049168 0.5865892
vn 0.5438394 -0.6606038 -0.517534
vn 0.7037868 -0.2369089 -0.6697449
vn -0.7602066 0.6494944 -0.01558486
vn -0.5693663 -0.1770838 -0.8027847
vn -0.02209362 0.6494946 0.7600452
vn 0.7735939 -0.1770838 0.6084356
vn 0.4560581 -0.776953 -0.4339987
g meger3d_Char_weapon_C1_5_0
f 3/3/3 2/2/2 1/1/1
f 4/4/4 3/3/3 1/1/1
f 5/5/5 3/3/3 4/4/4
f 6/6/6 5/5/5 4/4/4
f 7/7/7 5/5/5 6/6/6
f 8/8/8 7/7/7 6/6/6
f 9/9/9 7/7/7 8/8/8
f 10/10/10 9/9/9 8/8/8
f 11/11/11 9/9/9 10/10/10
f 12/12/12 11/11/11 10/10/10
f 13/13/13 11/11/11 12/12/12
f 14/14/14 13/13/13 12/12/12
f 15/15/15 13/13/13 14/14/14
f 16/16/16 15/15/15 14/14/14
f 17/17/17 15/15/15 16/16/16
f 18/18/18 17/17/17 16/16/16
f 5/5/5 19/19/19 3/3/3
f 20/20/20 19/19/19 5/5/5
f 7/7/7 20/20/20 5/5/5
f 21/21/21 20/20/20 7/7/7
f 9/9/9 21/21/21 7/7/7
f 22/22/22 21/21/21 9/9/9
f 11/11/11 22/22/22 9/9/9
f 23/23/23 22/22/22 11/11/11
f 13/13/13 23/23/23 11/11/11
f 24/24/24 23/23/23 13/13/13
f 15/15/15 24/24/24 13/13/13
f 25/25/25 24/24/24 15/15/15
f 17/17/17 25/25/25 15/15/15
f 20/20/20 26/26/26 19/19/19
f 26/26/26 27/27/27 19/19/19
f 19/19/19 27/27/27 28/28/28
f 19/19/19 28/28/28 3/3/3
f 3/3/3 28/28/28 2/2/2
f 28/28/28 29/29/29 2/2/2
f 28/28/28 30/30/30 29/29/29
f 27/27/27 30/30/30 28/28/28
f 30/30/30 31/31/31 29/29/29
f 25/25/25 31/31/31 24/24/24
f 32/32/32 26/26/26 20/20/20
f 21/21/21 32/32/32 20/20/20
f 33/33/33 32/32/32 21/21/21
f 22/22/22 33/33/33 21/21/21
f 34/34/34 33/33/33 22/22/22
f 23/23/23 34/34/34 22/22/22
f 35/35/35 34/34/34 23/23/23
f 24/24/24 35/35/35 23/23/23
f 31/31/31 35/35/35 24/24/24
f 30/30/30 36/36/36 31/31/31
f 36/36/36 37/37/37 31/31/31
f 38/38/38 36/36/36 30/30/30
f 27/27/27 38/38/38 30/30/30
f 39/39/39 38/38/38 27/27/27
f 26/26/26 39/39/39 27/27/27
f 40/40/40 39/39/39 26/26/26
f 32/32/32 40/40/40 26/26/26
f 41/41/41 40/40/40 32/32/32
f 33/33/33 41/41/41 32/32/32
f 42/42/42 41/41/41 33/33/33
f 34/34/34 42/42/42 33/33/33
f 43/43/43 42/42/42 34/34/34
f 35/35/35 43/43/43 34/34/34
f 44/44/44 43/43/43 35/35/35
f 31/31/31 44/44/44 35/35/35
f 36/36/36 45/45/45 37/37/37
f 45/45/45 46/46/46 37/37/37
f 47/47/47 45/45/45 36/36/36
f 38/38/38 47/47/47 36/36/36
f 48/48/48 47/47/47 38/38/38
f 39/39/39 48/48/48 38/38/38
f 49/49/49 48/48/48 39/39/39
f 40/40/40 49/49/49 39/39/39
f 50/50/50 49/49/49 40/40/40
f 41/41/41 50/50/50 40/40/40
f 51/51/51 50/50/50 41/41/41
f 42/42/42 51/51/51 41/41/41
f 52/52/52 51/51/51 42/42/42
f 43/43/43 52/52/52 42/42/42
f 53/53/53 52/52/52 43/43/43
f 44/44/44 53/53/53 43/43/43
f 45/45/45 54/54/54 46/46/46
f 54/54/54 55/55/55 46/46/46
f 56/56/56 54/54/54 45/45/45
f 47/47/47 56/56/56 45/45/45
f 57/57/57 56/56/56 47/47/47
f 48/48/48 57/57/57 47/47/47
f 58/58/58 57/57/57 48/48/48
f 49/49/49 58/58/58 48/48/48
f 59/59/59 58/58/58 49/49/49
f 50/50/50 59/59/59 49/49/49
f 60/60/60 59/59/59 50/50/50
f 51/51/51 60/60/60 50/50/50
f 61/61/61 60/60/60 51/51/51
f 52/52/52 61/61/61 51/51/51
f 62/62/62 61/61/61 52/52/52
f 53/53/53 62/62/62 52/52/52
f 1/1/1 63/63/63 4/4/4
f 4/4/4 64/64/64 6/6/6
f 6/6/6 65/65/65 8/8/8
f 8/8/8 66/66/66 10/10/10
f 10/10/10 67/67/67 12/12/12
f 12/12/12 68/68/68 14/14/14
f 14/14/14 69/69/69 16/16/16
f 16/16/16 70/70/70 18/18/18
f 73/73/73 72/72/72 71/71/71
f 74/74/74 73/73/73 71/71/71
f 75/75/75 73/73/73 74/74/74
f 76/76/76 75/75/75 74/74/74
f 77/77/77 75/75/75 76/76/76
f 78/78/78 77/77/77 76/76/76
f 79/79/79 77/77/77 78/78/78
f 80/80/80 79/79/79 78/78/78
f 81/81/81 79/79/79 80/80/80
f 82/82/82 81/81/81 80/80/80
f 83/83/83 81/81/81 82/82/82
f 84/84/84 83/83/83 82/82/82
f 85/85/85 83/83/83 84/84/84
f 86/86/86 85/85/85 84/84/84
f 72/72/72 85/85/85 86/86/86
f 71/71/71 72/72/72 86/86/86
f 89/89/89 88/88/88 87/87/87
f 90/90/90 88/88/88 89/89/89
f 91/91/91 88/88/88 90/90/90
f 92/92/92 88/88/88 91/91/91
f 93/93/93 88/88/88 92/92/92
f 94/94/94 88/88/88 93/93/93
f 95/95/95 88/88/88 94/94/94
f 87/87/87 88/88/88 95/95/95
f 98/98/98 97/97/97 96/96/96
f 99/99/99 98/98/98 96/96/96
f 100/100/100 98/98/98 99/99/99
f 101/101/101 100/100/100 99/99/99
f 102/102/102 100/100/100 101/101/101
f 103/103/103 102/102/102 101/101/101
f 104/104/104 102/102/102 103/103/103
f 105/105/105 104/104/104 103/103/103
f 97/97/97 104/104/104 105/105/105
f 96/96/96 97/97/97 105/105/105
f 108/108/108 107/107/107 106/106/106
f 109/109/109 107/107/107 108/108/108
f 110/110/110 107/107/107 109/109/109
f 111/111/111 107/107/107 110/110/110
f 106/106/106 107/107/107 111/111/111
f 114/114/114 113/113/113 112/112/112
f 115/115/115 114/114/114 112/112/112
f 116/116/116 114/114/114 115/115/115
f 117/117/117 116/116/116 115/115/115
f 118/118/118 116/116/116 117/117/117
f 119/119/119 118/118/118 117/117/117
f 120/120/120 118/118/118 119/119/119
f 121/121/121 120/120/120 119/119/119
f 113/113/113 120/120/120 121/121/121
f 112/112/112 113/113/113 121/121/121
f 114/114/114 122/122/122 113/113/113
f 122/122/122 123/123/123 113/113/113
f 113/113/113 123/123/123 120/120/120
f 124/124/124 122/122/122 114/114/114
f 116/116/116 124/124/124 114/114/114
f 125/125/125 124/124/124 116/116/116
f 118/118/118 125/125/125 116/116/116
f 126/126/126 125/125/125 118/118/118
f 120/120/120 126/126/126 118/118/118
f 123/123/123 126/126/126 120/120/120
