g meger3d_Char_sundries_C11_5
v 0.1974551 -0.116366 0.2088374
v 0.03265497 -0.145225 0.2606296
v 7.443428E-06 0.07383566 0.2920975
v 0.1711846 0.1059033 0.2384655
v -0.07881065 0.2416139 0.1668706
v 0.1077621 0.2780955 0.1069399
v -0.1576288 0.2598276 -0.04169497
v 0.04433954 0.299343 -0.1086932
v -0.1902763 0.1178075 -0.2114244
v 0.01806908 0.1571992 -0.2821192
v -0.195283 0.02669218 0.3280153
v -0.171944 -0.1682447 0.3019421
v -0.2516283 0.1776347 0.2128353
v -0.3079737 0.1961629 0.02387302
v -0.3313127 0.07142313 -0.1281802
v 0.3166845 -0.0695394 0.1247996
v 0.295538 0.1093768 0.1486487
v 0.2444859 0.2479834 0.04277692
v 0.1934338 0.2650866 -0.1307975
v 0.1722873 0.1506676 -0.2703972
v 0.4038135 -0.01714138 0.03076287
v 0.3885904 0.111658 0.04793156
v 0.3518387 0.2114391 -0.02828412
v 0.315087 0.2237514 -0.1532381
v 0.3038873 0.1366355 -0.2452144
v 0.4817671 0.05048873 -0.09061024
v 0.465752 0.1176579 -0.07788245
v 0.4270881 0.1664843 -0.1103055
v 0.3884241 0.1683661 -0.1688865
v 0.3685098 0.1268016 -0.2275658
v 0.4890719 0.1131139 -0.2030012
v 0.4791151 0.1404079 -0.1945575
v 0.4550774 0.1574661 -0.201384
v 0.4310396 0.154296 -0.2194818
v 0.4210829 0.1327546 -0.2382495
v 0.4616711 0.1277103 -0.2291968
v -0.2896057 -0.1596573 0.2865307
v -0.3116254 -0.0267987 0.3065068
v -0.3647857 0.07419972 0.2322868
v -0.417946 0.08417448 0.1073477
v -0.4399657 -0.002717457 0.004877015
v -0.4068146 -0.07110015 0.2509389
v -0.3973641 -0.1347385 0.24181
v -0.4296306 -0.02234882 0.2145352
v -0.4524466 -0.01704237 0.1539236
v -0.4618973 -0.05828928 0.1046096
v -0.4561783 -0.105385 0.2388527
v -0.450066 -0.1303943 0.2340136
v -0.4709345 -0.08729047 0.2269749
v -0.4856906 -0.08671021 0.2053378
v -0.4918028 -0.1039842 0.1866164
v -0.4834824 -0.1197089 0.2148369
v 0.1974551 -0.116366 0.2088374
v 0.1711846 -0.2585098 0.0354114
v 7.395744E-06 -0.2872452 0.09090023
v 0.03265497 -0.145225 0.2606296
v -0.07881071 -0.2690314 -0.1176653
v 0.107762 -0.2372623 -0.1802218
v -0.1576288 -0.1012532 -0.2428923
v 0.0443395 -0.06507006 -0.3117473
v -0.1902763 0.1178075 -0.2114244
v 0.01806908 0.1571992 -0.2821192
v -0.195283 -0.2929844 0.1498889
v -0.171944 -0.1682447 0.3019421
v -0.2516284 -0.2744562 -0.03907352
v -0.3079738 -0.1235137 -0.1542535
v -0.3313127 0.07142313 -0.1281802
v 0.3166845 -0.0695394 0.1247996
v 0.2955379 -0.1839584 -0.01480017
v 0.2444858 -0.1668552 -0.1883746
v 0.1934338 -0.02824862 -0.2942464
v 0.1722873 0.1506676 -0.2703972
v 0.4038135 -0.01714138 0.03076287
v 0.3885904 -0.0995101 -0.06973311
v 0.3518387 -0.08719771 -0.194687
v 0.3150869 0.0125833 -0.2709027
v 0.3038873 0.1366355 -0.2452144
v 0.4817671 0.05048873 -0.09061024
v 0.465752 0.00432364 -0.1410333
v 0.427088 0.006205464 -0.1996142
v 0.3884241 0.05503184 -0.2320373
v 0.3685098 0.1268016 -0.2275658
v 0.4890719 0.1131139 -0.2030012
v 0.4791151 0.09157258 -0.221769
v 0.4550774 0.08840249 -0.2398668
v 0.4310396 0.1054606 -0.2466933
v 0.4210829 0.1327546 -0.2382495
v 0.4616711 0.1277103 -0.2291968
v -0.3116255 -0.2465492 0.18406
v -0.2896057 -0.1596573 0.2865307
v -0.3647857 -0.2365744 0.05912085
v -0.4179461 -0.135576 -0.01509916
v -0.4399657 -0.002717457 0.004877015
v -0.4068146 -0.1759854 0.192496
v -0.3973641 -0.1347385 0.24181
v -0.4296307 -0.170679 0.1318844
v -0.4524466 -0.1219276 0.09548063
v -0.4618973 -0.05828928 0.1046096
v -0.4561783 -0.1476683 0.2152921
v -0.450066 -0.1303943 0.2340136
v -0.4709345 -0.147088 0.1936552
v -0.4856907 -0.1289935 0.1817772
v -0.4918028 -0.1039842 0.1866164
v -0.4834824 -0.1197089 0.2148369
vt 0.7266425 0.7882819
vt 0.7116939 0.7741078
vt 0.6968182 0.7922534
vt 0.7091769 0.8040978
vt 0.6831895 0.8070507
vt 0.695921 0.8188469
vt 0.668877 0.8209137
vt 0.68375 0.8344818
vt 0.6513903 0.8360513
vt 0.6700419 0.8535795
vt 0.6810923 0.7803876
vt 0.6906407 0.7613047
vt 0.6711231 0.7954008
vt 0.658642 0.8081833
vt 0.6408438 0.8190084
vt 0.7359954 0.8040758
vt 0.7189313 0.8149748
vt 0.7065263 0.827701
vt 0.6964211 0.8427182
vt 0.6875046 0.861528
vt 0.7412876 0.8207246
vt 0.7267066 0.8269886
vt 0.7163122 0.8370581
vt 0.7090535 0.8499677
vt 0.7051705 0.8658203
vt 0.7429715 0.8418265
vt 0.7332689 0.8431038
vt 0.7251876 0.8480972
vt 0.719363 0.8562862
vt 0.7155491 0.8672388
vt 0.738346 0.8608988
vt 0.733737 0.8597506
vt 0.7295067 0.8609387
vt 0.7264372 0.8643093
vt 0.72586 0.8696711
vt 0.7333261 0.8664659
vt 0.6756187 0.7570286
vt 0.670437 0.7725497
vt 0.6619962 0.7842157
vt 0.6506433 0.7927137
vt 0.6355264 0.7975089
vt 0.6573142 0.7661769
vt 0.6587781 0.7564941
vt 0.6529357 0.7744527
vt 0.6457256 0.7801978
vt 0.6363629 0.7820958
vt 0.649042 0.7610846
vt 0.6486045 0.7561063
vt 0.6467769 0.7648281
vt 0.6430107 0.766731
vt 0.6385692 0.7664541
vt 0.6417542 0.7606747
vt 0.7266425 0.7882819
vt 0.7091769 0.8040978
vt 0.6968182 0.7922534
vt 0.7116939 0.7741078
vt 0.6831895 0.8070507
vt 0.695921 0.8188469
vt 0.668877 0.8209137
vt 0.68375 0.8344818
vt 0.6513903 0.8360513
vt 0.6700419 0.8535795
vt 0.6810923 0.7803876
vt 0.6906407 0.7613047
vt 0.6711231 0.7954008
vt 0.658642 0.8081833
vt 0.6408438 0.8190084
vt 0.7359954 0.8040758
vt 0.7189313 0.8149748
vt 0.7065263 0.827701
vt 0.6964211 0.8427182
vt 0.6875046 0.861528
vt 0.7412876 0.8207246
vt 0.7267066 0.8269886
vt 0.7163122 0.8370581
vt 0.7090535 0.8499677
vt 0.7051705 0.8658203
vt 0.7429715 0.8418265
vt 0.7332689 0.8431038
vt 0.7251876 0.8480972
vt 0.719363 0.8562862
vt 0.7155491 0.8672388
vt 0.738346 0.8608988
vt 0.733737 0.8597506
vt 0.7295067 0.8609387
vt 0.7264372 0.8643093
vt 0.72586 0.8696711
vt 0.7333261 0.8664659
vt 0.670437 0.7725497
vt 0.6756187 0.7570286
vt 0.6619962 0.7842157
vt 0.6506433 0.7927137
vt 0.6355264 0.7975089
vt 0.6573142 0.7661769
vt 0.6587781 0.7564941
vt 0.6529357 0.7744527
vt 0.6457256 0.7801978
vt 0.6363629 0.7820958
vt 0.649042 0.7610846
vt 0.6486045 0.7561063
vt 0.6467769 0.7648281
vt 0.6430107 0.766731
vt 0.6385692 0.7664541
vt 0.6417542 0.7606747
vn 0.4833364 -0.4261143 0.7647303
vn 0.2829565 -0.466854 0.8378443
vn 0.1739792 0.2831585 0.9431609
vn 0.3895791 0.3177806 0.8644326
vn -0.08919868 0.8553288 0.5103492
vn 0.1647123 0.8894621 0.4262947
vn -0.3517411 0.914158 -0.2014778
vn -0.05817747 0.9555334 -0.2890869
vn -0.4600658 0.4321743 -0.7756061
vn -0.1499515 0.4812424 -0.8636668
vn -0.05873905 0.234912 0.9702402
vn 0.05686129 -0.4859583 0.8721303
vn -0.326271 0.7646689 0.5557235
vn -0.5828112 0.8056663 -0.1059857
vn -0.6867536 0.3538108 -0.6349702
vn 0.6984268 -0.3483551 0.6251789
vn 0.615956 0.3204095 0.7196776
vn 0.4127575 0.8484612 0.3312776
vn 0.2102074 0.9192746 -0.3327866
vn 0.1270385 0.4828022 -0.866466
vn 0.8253701 -0.2748129 0.4931958
vn 0.741868 0.3329421 0.5820495
vn 0.5399463 0.8093978 0.2309397
vn 0.3375954 0.8650523 -0.3710981
vn 0.2537296 0.4708172 -0.8449571
vn 0.9554776 -0.1436212 0.2577511
vn 0.8444688 0.3939143 0.3629103
vn 0.5693468 0.8138916 0.1158642
vn 0.2391186 0.9022412 -0.3588637
vn 0.08652417 0.4849206 -0.8702676
vn 0.9612468 0.1341906 -0.2408267
vn 0.8234814 0.5546549 -0.1193154
vn 0.4526009 0.859277 -0.2383182
vn 0.06768947 0.8436291 -0.5326426
vn -0.08145107 0.4851286 -0.8706411
vn 0.5147253 0.4173141 -0.7489371
vn -0.263237 -0.4695789 0.8427348
vn -0.3613508 0.1060278 0.9263821
vn -0.5938321 0.5377944 0.5984485
vn -0.8174495 0.5725914 0.06257407
vn -0.9072492 0.2047223 -0.3674067
vn -0.4362287 0.08497182 0.8958148
vn -0.316273 -0.4617603 0.828703
vn -0.6834958 0.4353748 0.585903
vn -0.8932993 0.4271016 0.1400018
vn -0.9724711 0.1134232 -0.203556
vn -0.4180837 -0.01756587 0.9082387
vn -0.315415 -0.4618993 0.8289526
vn -0.6647605 0.3146859 0.6775444
vn -0.9018978 0.3340496 0.2738451
vn -0.9973896 0.03514715 -0.06307697
vn -0.8153763 -0.2817923 0.5057217
vn 0.4833364 -0.4261143 0.7647303
vn 0.3895789 -0.9023052 0.1845906
vn 0.1739791 -0.9510381 0.2554561
vn 0.2829565 -0.466854 0.8378443
vn -0.08919892 -0.8840317 -0.4588372
vn 0.1647121 -0.8305122 -0.5320895
vn -0.3517412 -0.3096563 -0.8833975
vn -0.05817763 -0.2569246 -0.9646788
vn -0.4600658 0.4321743 -0.7756061
vn -0.1499515 0.4812424 -0.8636668
vn -0.05873921 -0.9486808 0.3107324
vn 0.05686129 -0.4859583 0.8721303
vn -0.3262711 -0.8749162 -0.3578672
vn -0.5828113 -0.3337778 -0.7408937
vn -0.6867536 0.3538108 -0.6349702
vn 0.6984268 -0.3483551 0.6251789
vn 0.6159559 -0.7805907 0.106191
vn 0.4127574 -0.7281381 -0.5472168
vn 0.2102072 -0.2006851 -0.9568378
vn 0.1270385 0.4828022 -0.866466
vn 0.8253701 -0.2748129 0.4931958
vn 0.7418677 -0.6701475 0.02311945
vn 0.5399461 -0.6222586 -0.5667913
vn 0.3375952 -0.1395762 -0.9308856
vn 0.2537296 0.4708172 -0.8449571
vn 0.9554776 -0.1436212 0.2577511
vn 0.8444687 -0.5158753 -0.1440321
vn 0.5693467 -0.5267643 -0.6311607
vn 0.2391186 -0.1695471 -0.9560733
vn 0.08652417 0.4849206 -0.8702676
vn 0.9612468 0.1341906 -0.2408267
vn 0.8234814 -0.1903714 -0.5344504
vn 0.4526008 -0.2494518 -0.8561111
vn 0.06768931 0.00907134 -0.9976652
vn -0.08145107 0.4851286 -0.8706411
vn 0.5147253 0.4173141 -0.7489371
vn -0.3613508 -0.8435709 0.3972577
vn -0.263237 -0.4695789 0.8427348
vn -0.5938323 -0.7918772 -0.1424558
vn -0.8174496 -0.3544849 -0.4540007
vn -0.9072492 0.2047223 -0.3674067
vn -0.4362287 -0.8064983 0.3990802
vn -0.316273 -0.4617603 0.828703
vn -0.6834958 -0.72732 -0.06196034
vn -0.8932995 -0.343778 -0.2895388
vn -0.9724711 0.1134232 -0.203556
vn -0.4180836 -0.7631124 0.4928139
vn -0.315415 -0.4618993 0.8289526
vn -0.6647606 -0.7417493 0.0888897
vn -0.9018978 -0.4086368 -0.139986
vn -0.9973896 0.03514715 -0.06307697
vn -0.8153763 -0.2817923 0.5057217
g meger3d_Char_sundries_C11_5_0
f 3/3/3 2/2/2 1/1/1
f 4/4/4 3/3/3 1/1/1
f 5/5/5 3/3/3 4/4/4
f 6/6/6 5/5/5 4/4/4
f 7/7/7 5/5/5 6/6/6
f 8/8/8 7/7/7 6/6/6
f 9/9/9 7/7/7 8/8/8
f 10/10/10 9/9/9 8/8/8
f 3/3/3 11/11/11 2/2/2
f 11/11/11 12/12/12 2/2/2
f 13/13/13 11/11/11 3/3/3
f 5/5/5 13/13/13 3/3/3
f 14/14/14 13/13/13 5/5/5
f 7/7/7 14/14/14 5/5/5
f 15/15/15 14/14/14 7/7/7
f 9/9/9 15/15/15 7/7/7
f 1/1/1 16/16/16 4/4/4
f 16/16/16 17/17/17 4/4/4
f 4/4/4 17/17/17 6/6/6
f 17/17/17 18/18/18 6/6/6
f 6/6/6 18/18/18 8/8/8
f 18/18/18 19/19/19 8/8/8
f 8/8/8 19/19/19 10/10/10
f 19/19/19 20/20/20 10/10/10
f 16/16/16 21/21/21 17/17/17
f 21/21/21 22/22/22 17/17/17
f 17/17/17 22/22/22 18/18/18
f 22/22/22 23/23/23 18/18/18
f 18/18/18 23/23/23 19/19/19
f 23/23/23 24/24/24 19/19/19
f 19/19/19 24/24/24 20/20/20
f 24/24/24 25/25/25 20/20/20
f 21/21/21 26/26/26 22/22/22
f 26/26/26 27/27/27 22/22/22
f 22/22/22 27/27/27 23/23/23
f 27/27/27 28/28/28 23/23/23
f 23/23/23 28/28/28 24/24/24
f 28/28/28 29/29/29 24/24/24
f 24/24/24 29/29/29 25/25/25
f 29/29/29 30/30/30 25/25/25
f 26/26/26 31/31/31 27/27/27
f 31/31/31 32/32/32 27/27/27
f 27/27/27 32/32/32 28/28/28
f 32/32/32 33/33/33 28/28/28
f 28/28/28 33/33/33 29/29/29
f 33/33/33 34/34/34 29/29/29
f 29/29/29 34/34/34 30/30/30
f 34/34/34 35/35/35 30/30/30
f 31/31/31 36/36/36 32/32/32
f 32/32/32 36/36/36 33/33/33
f 33/33/33 36/36/36 34/34/34
f 34/34/34 36/36/36 35/35/35
f 38/38/38 37/37/37 12/12/12
f 11/11/11 38/38/38 12/12/12
f 39/39/39 38/38/38 11/11/11
f 13/13/13 39/39/39 11/11/11
f 40/40/40 39/39/39 13/13/13
f 14/14/14 40/40/40 13/13/13
f 41/41/41 40/40/40 14/14/14
f 15/15/15 41/41/41 14/14/14
f 38/38/38 42/42/42 37/37/37
f 42/42/42 43/43/43 37/37/37
f 44/44/44 42/42/42 38/38/38
f 39/39/39 44/44/44 38/38/38
f 45/45/45 44/44/44 39/39/39
f 40/40/40 45/45/45 39/39/39
f 46/46/46 45/45/45 40/40/40
f 41/41/41 46/46/46 40/40/40
f 42/42/42 47/47/47 43/43/43
f 47/47/47 48/48/48 43/43/43
f 49/49/49 47/47/47 42/42/42
f 44/44/44 49/49/49 42/42/42
f 50/50/50 49/49/49 44/44/44
f 45/45/45 50/50/50 44/44/44
f 51/51/51 50/50/50 45/45/45
f 46/46/46 51/51/51 45/45/45
f 47/47/47 52/52/52 48/48/48
f 49/49/49 52/52/52 47/47/47
f 50/50/50 52/52/52 49/49/49
f 51/51/51 52/52/52 50/50/50
f 55/55/55 54/54/54 53/53/53
f 56/56/56 55/55/55 53/53/53
f 55/55/55 57/57/57 54/54/54
f 57/57/57 58/58/58 54/54/54
f 57/57/57 59/59/59 58/58/58
f 59/59/59 60/60/60 58/58/58
f 59/59/59 61/61/61 60/60/60
f 61/61/61 62/62/62 60/60/60
f 63/63/63 55/55/55 56/56/56
f 64/64/64 63/63/63 56/56/56
f 65/65/65 57/57/57 55/55/55
f 63/63/63 65/65/65 55/55/55
f 66/66/66 59/59/59 57/57/57
f 65/65/65 66/66/66 57/57/57
f 67/67/67 61/61/61 59/59/59
f 66/66/66 67/67/67 59/59/59
f 68/68/68 53/53/53 54/54/54
f 69/69/69 68/68/68 54/54/54
f 69/69/69 54/54/54 58/58/58
f 70/70/70 69/69/69 58/58/58
f 70/70/70 58/58/58 60/60/60
f 71/71/71 70/70/70 60/60/60
f 71/71/71 60/60/60 62/62/62
f 72/72/72 71/71/71 62/62/62
f 73/73/73 68/68/68 69/69/69
f 74/74/74 73/73/73 69/69/69
f 74/74/74 69/69/69 70/70/70
f 75/75/75 74/74/74 70/70/70
f 75/75/75 70/70/70 71/71/71
f 76/76/76 75/75/75 71/71/71
f 76/76/76 71/71/71 72/72/72
f 77/77/77 76/76/76 72/72/72
f 78/78/78 73/73/73 74/74/74
f 79/79/79 78/78/78 74/74/74
f 79/79/79 74/74/74 75/75/75
f 80/80/80 79/79/79 75/75/75
f 80/80/80 75/75/75 76/76/76
f 81/81/81 80/80/80 76/76/76
f 81/81/81 76/76/76 77/77/77
f 82/82/82 81/81/81 77/77/77
f 83/83/83 78/78/78 79/79/79
f 84/84/84 83/83/83 79/79/79
f 84/84/84 79/79/79 80/80/80
f 85/85/85 84/84/84 80/80/80
f 85/85/85 80/80/80 81/81/81
f 86/86/86 85/85/85 81/81/81
f 86/86/86 81/81/81 82/82/82
f 87/87/87 86/86/86 82/82/82
f 88/88/88 83/83/83 84/84/84
f 88/88/88 84/84/84 85/85/85
f 88/88/88 85/85/85 86/86/86
f 88/88/88 86/86/86 87/87/87
f 89/89/89 63/63/63 64/64/64
f 90/90/90 89/89/89 64/64/64
f 89/89/89 91/91/91 63/63/63
f 91/91/91 65/65/65 63/63/63
f 91/91/91 92/92/92 65/65/65
f 92/92/92 66/66/66 65/65/65
f 92/92/92 93/93/93 66/66/66
f 93/93/93 67/67/67 66/66/66
f 94/94/94 89/89/89 90/90/90
f 95/95/95 94/94/94 90/90/90
f 96/96/96 91/91/91 89/89/89
f 94/94/94 96/96/96 89/89/89
f 97/97/97 92/92/92 91/91/91
f 96/96/96 97/97/97 91/91/91
f 98/98/98 93/93/93 92/92/92
f 97/97/97 98/98/98 92/92/92
f 99/99/99 94/94/94 95/95/95
f 100/100/100 99/99/99 95/95/95
f 101/101/101 96/96/96 94/94/94
f 99/99/99 101/101/101 94/94/94
f 102/102/102 97/97/97 96/96/96
f 101/101/101 102/102/102 96/96/96
f 103/103/103 98/98/98 97/97/97
f 102/102/102 103/103/103 97/97/97
f 104/104/104 99/99/99 100/100/100
f 104/104/104 101/101/101 99/99/99
f 104/104/104 102/102/102 101/101/101
f 104/104/104 103/103/103 102/102/102
