g meger3d_Char_workshop_C3_1
v -0.07224333 0.08315336 -0.031185
v -3.079467E-17 0.01091003 -0.031185
v -3.079467E-17 0.1130775 -0.03118502
v 0.07224333 0.08315336 -0.031185
v 0.1021675 0.01091003 -0.031185
v 0.07224333 -0.06133331 -0.03118502
v -3.079467E-17 -0.09125748 -0.031185
v -0.07224333 -0.06133331 -0.03118502
v -0.1021675 0.01091003 -0.031185
v -0.07224333 0.08315334 0.5014473
v 3.443398E-17 0.1130775 0.5014473
v 3.871056E-17 0.07527935 0.5363684
v -0.04551597 0.05642601 0.5363684
v -0.04551597 0.05642601 0.5363684
v -0.06436931 0.01091001 0.5363684
v -0.1021675 0.01091001 0.5014473
v -0.07224333 0.08315334 0.5014473
v 3.443398E-17 0.1130775 0.5014473
v 0.07224333 0.08315334 0.5014473
v 0.04551597 0.05642601 0.5363684
v 3.871056E-17 0.07527935 0.5363684
v 0.07224333 0.08315334 0.5014473
v 0.1021675 0.01091001 0.5014473
v 0.0643693 0.01091001 0.5363684
v 0.04551597 0.05642601 0.5363684
v 0.1021675 0.01091001 0.5014473
v 0.07224333 -0.06133331 0.5014473
v 0.04551597 -0.03460596 0.5363684
v 0.0643693 0.01091001 0.5363684
v 0.07224333 -0.06133331 0.5014473
v 3.443398E-17 -0.09125748 0.5014473
v -1.556457E-09 -0.05345928 0.5363684
v 0.04551597 -0.03460596 0.5363684
v 3.443398E-17 -0.09125748 0.5014473
v -0.07224333 -0.06133331 0.5014473
v -0.04551597 -0.03460596 0.5363684
v -1.556457E-09 -0.05345928 0.5363684
v -0.07224333 -0.06133331 0.5014473
v -0.1021675 0.01091001 0.5014473
v -0.06436931 0.01091001 0.5363684
v -0.04551597 -0.03460596 0.5363684
v -0.07224333 0.08315334 0.5014473
v -0.07224333 0.08315336 0.08826906
v -1.616577E-17 0.1130775 0.08826906
v 3.443398E-17 0.1130775 0.5014473
v 3.443398E-17 0.1130775 0.5014473
v -1.616577E-17 0.1130775 0.08826906
v 0.07224333 0.08315336 0.08826906
v 0.07224333 0.08315334 0.5014473
v 0.07224333 0.08315334 0.5014473
v 0.07224333 0.08315336 0.08826906
v 0.1021675 0.01091002 0.08826908
v 0.1021675 0.01091001 0.5014473
v 0.1021675 0.01091001 0.5014473
v 0.1021675 0.01091002 0.08826908
v 0.07224333 -0.06133331 0.08826906
v 0.07224333 -0.06133331 0.5014473
v 0.07224333 -0.06133331 0.5014473
v 0.07224333 -0.06133331 0.08826906
v -1.616577E-17 -0.09125748 0.08826907
v 3.443398E-17 -0.09125748 0.5014473
v 3.443398E-17 -0.09125748 0.5014473
v -1.616577E-17 -0.09125748 0.08826907
v -0.07224333 -0.06133331 0.08826906
v -0.07224333 -0.06133331 0.5014473
v -0.07224333 -0.06133331 0.5014473
v -0.07224333 -0.06133331 0.08826906
v -0.1021675 0.01091002 0.08826908
v -0.1021675 0.01091001 0.5014473
v -0.1021675 0.01091001 0.5014473
v -0.1021675 0.01091002 0.08826908
v -0.07224333 0.08315336 0.08826906
v -0.07224333 0.08315334 0.5014473
v 3.871056E-17 0.07527935 0.5363684
v 3.871056E-17 0.01091001 0.5363684
v -0.04551597 0.05642601 0.5363684
v 0.04551597 0.05642601 0.5363684
v 0.0643693 0.01091001 0.5363684
v 0.04551597 -0.03460596 0.5363684
v -1.556457E-09 -0.05345928 0.5363684
v -0.04551597 -0.03460596 0.5363684
v -0.06436931 0.01091001 0.5363684
v -0.05148462 0.06239465 0.06066741
v -0.07224333 0.08315336 0.02854205
v -2.348022E-17 0.1130775 0.02854202
v -1.9546E-17 0.08372027 0.06066741
v 0.07224333 0.08315336 0.02854205
v 0.05148462 0.06239465 0.06066741
v 0.1021675 0.01091003 0.02854202
v 0.07281024 0.01091002 0.06066741
v 0.07224333 -0.06133331 0.02854202
v 0.05148462 -0.04057459 0.06066741
v -2.348022E-17 -0.09125748 0.02854202
v -1.9546E-17 -0.06190023 0.06066742
v -0.07224333 -0.06133331 0.02854202
v -0.05148462 -0.04057459 0.06066741
v -0.1021675 0.01091003 0.02854202
v -0.07281024 0.01091002 0.06066741
v -0.07224333 0.08315336 0.02854205
v -0.05148462 0.06239465 0.06066741
v -0.07224333 0.08315336 0.02854205
v -0.07224333 0.08315336 -0.031185
v -3.079467E-17 0.1130775 -0.03118502
v -2.348022E-17 0.1130775 0.02854202
v -0.1021675 0.01091003 0.02854202
v -0.1021675 0.01091003 -0.031185
v -0.07224333 0.08315336 -0.031185
v -0.07224333 0.08315336 0.02854205
v -0.07224333 -0.06133331 0.02854202
v -0.07224333 -0.06133331 -0.03118502
v -0.1021675 0.01091003 -0.031185
v -0.1021675 0.01091003 0.02854202
v -2.348022E-17 -0.09125748 0.02854202
v -3.079467E-17 -0.09125748 -0.031185
v -0.07224333 -0.06133331 -0.03118502
v -0.07224333 -0.06133331 0.02854202
v 0.07224333 -0.06133331 0.02854202
v 0.07224333 -0.06133331 -0.03118502
v -3.079467E-17 -0.09125748 -0.031185
v -2.348022E-17 -0.09125748 0.02854202
v 0.1021675 0.01091003 0.02854202
v 0.1021675 0.01091003 -0.031185
v 0.07224333 -0.06133331 -0.03118502
v 0.07224333 -0.06133331 0.02854202
v 0.07224333 0.08315336 0.02854205
v 0.07224333 0.08315336 -0.031185
v 0.1021675 0.01091003 -0.031185
v 0.1021675 0.01091003 0.02854202
v -2.348022E-17 0.1130775 0.02854202
v -3.079467E-17 0.1130775 -0.03118502
v 0.07224333 0.08315336 -0.031185
v 0.07224333 0.08315336 0.02854205
v 0.1021675 0.01091002 0.08826908
v 0.07281024 0.01091002 0.06066741
v 0.05148462 -0.04057459 0.06066741
v 0.07224333 -0.06133331 0.08826906
v -1.9546E-17 -0.06190023 0.06066742
v -1.616577E-17 -0.09125748 0.08826907
v -0.05148462 -0.04057459 0.06066741
v -0.07224333 -0.06133331 0.08826906
v -0.07281024 0.01091002 0.06066741
v -0.1021675 0.01091002 0.08826908
v -0.05148462 0.06239465 0.06066741
v -0.07224333 0.08315336 0.08826906
v -1.9546E-17 0.08372027 0.06066741
v -1.616577E-17 0.1130775 0.08826906
v 0.05148462 0.06239465 0.06066741
v 0.07224333 0.08315336 0.08826906
v -0.01550016 0.03775709 0.01166833
v -0.01550016 0.03775711 -0.4839634
v 0.01550015 0.03775711 -0.4839634
v 0.01550015 0.03775709 0.01166833
v 0.03100032 0.01091003 -0.4839634
v 0.03100032 0.01091003 0.01166833
v 0.01550016 -0.01593704 -0.4839634
v 0.01550016 -0.01593704 0.01166833
v -0.01550016 -0.01593704 -0.4839634
v -0.01550016 -0.01593704 0.01166833
v -0.03100032 0.01091003 -0.4839634
v -0.03100032 0.01091001 0.01166833
v -0.01550016 0.03775711 -0.4839634
v -0.01550016 0.03775709 0.01166833
v -0.02592253 0.02136414 -0.6962122
v 3.237888E-09 0.01091003 -0.6962123
v 0.02592251 0.02136414 -0.6962122
v 0.03454803 0.01091003 -0.6962123
v 0.02592252 0.0004559326 -0.6962123
v -0.0259225 0.0004559326 -0.6962123
v -0.03454803 0.01091003 -0.6962123
v -0.01550016 0.03775711 -0.4839634
v -0.04660407 0.03775711 -0.5127904
v 0.04660402 0.03775711 -0.5127904
v 0.01550015 0.03775711 -0.4839634
v 0.02592251 0.02136414 -0.6962122
v -0.02592253 0.02136414 -0.6962122
v 0.01550015 0.03775711 -0.4839634
v 0.04660402 0.03775711 -0.5127904
v 0.06737627 0.01091003 -0.5127904
v 0.03100032 0.01091003 -0.4839634
v 0.03100032 0.01091003 -0.4839634
v 0.06737627 0.01091003 -0.5127904
v 0.04660404 -0.01593704 -0.5127904
v 0.01550016 -0.01593704 -0.4839634
v 0.01550016 -0.01593704 -0.4839634
v 0.04660404 -0.01593704 -0.5127904
v -0.04660403 -0.01593704 -0.5127904
v -0.01550016 -0.01593704 -0.4839634
v -0.0259225 0.0004559326 -0.6962123
v 0.02592252 0.0004559326 -0.6962123
v -0.01550016 -0.01593704 -0.4839634
v -0.04660403 -0.01593704 -0.5127904
v -0.06737627 0.01091003 -0.5127904
v -0.03100032 0.01091003 -0.4839634
v -0.03100032 0.01091003 -0.4839634
v -0.06737627 0.01091003 -0.5127904
v -0.04660407 0.03775711 -0.5127904
v -0.01550016 0.03775711 -0.4839634
v 0.04660402 0.03775711 -0.5127904
v 0.02592251 0.02136414 -0.6962122
v 0.03454803 0.01091003 -0.6962123
v 0.06737627 0.01091003 -0.5127904
v 0.06737627 0.01091003 -0.5127904
v 0.03454803 0.01091003 -0.6962123
v 0.02592252 0.0004559326 -0.6962123
v 0.04660404 -0.01593704 -0.5127904
v -0.04660403 -0.01593704 -0.5127904
v -0.0259225 0.0004559326 -0.6962123
v -0.03454803 0.01091003 -0.6962123
v -0.06737627 0.01091003 -0.5127904
v -0.06737627 0.01091003 -0.5127904
v -0.03454803 0.01091003 -0.6962123
v -0.02592253 0.02136414 -0.6962122
v -0.04660407 0.03775711 -0.5127904
vt 0.6118568 0.4709215
vt 0.6118196 0.4709213
vt 0.6118196 0.4709216
vt 0.6117824 0.4709215
vt 0.6117671 0.4709213
vt 0.6117824 0.4709212
vt 0.6118196 0.4709211
vt 0.6118568 0.4709212
vt 0.6118722 0.4709213
vt 0.6117775 0.4709206
vt 0.6117881 0.4709206
vt 0.6117861 0.4709205
vt 0.6117795 0.4709205
vt 0.6118597 0.4709205
vt 0.6118531 0.4709205
vt 0.6118512 0.4709206
vt 0.6118617 0.4709206
vt 0.6117881 0.4709206
vt 0.6117986 0.4709206
vt 0.6117966 0.4709205
vt 0.61179 0.4709205
vt 0.6117986 0.4709206
vt 0.6118091 0.4709206
vt 0.6118072 0.4709205
vt 0.6118006 0.4709205
vt 0.6118091 0.4709206
vt 0.6118196 0.4709206
vt 0.6118177 0.4709205
vt 0.611811 0.4709205
vt 0.6118196 0.4709206
vt 0.6118301 0.4709206
vt 0.6118282 0.4709205
vt 0.6118216 0.4709205
vt 0.6118301 0.4709206
vt 0.6118407 0.4709206
vt 0.6118387 0.4709205
vt 0.6118321 0.4709205
vt 0.6118407 0.4709206
vt 0.6118512 0.4709206
vt 0.6118492 0.4709205
vt 0.6118426 0.4709205
vt 0.6117775 0.4709206
vt 0.6117775 0.470921
vt 0.6117881 0.470921
vt 0.6117881 0.4709206
vt 0.6117881 0.4709206
vt 0.6117881 0.470921
vt 0.6117986 0.470921
vt 0.6117986 0.4709206
vt 0.6117986 0.4709206
vt 0.6117986 0.470921
vt 0.6118091 0.470921
vt 0.6118091 0.4709206
vt 0.6118091 0.4709206
vt 0.6118091 0.470921
vt 0.6118196 0.470921
vt 0.6118196 0.4709206
vt 0.6118196 0.4709206
vt 0.6118196 0.470921
vt 0.6118301 0.470921
vt 0.6118301 0.4709206
vt 0.6118301 0.4709206
vt 0.6118301 0.470921
vt 0.6118407 0.470921
vt 0.6118407 0.4709206
vt 0.6118407 0.4709206
vt 0.6118407 0.470921
vt 0.6118512 0.470921
vt 0.6118512 0.4709206
vt 0.6118512 0.4709206
vt 0.6118512 0.470921
vt 0.6118617 0.470921
vt 0.6118617 0.4709206
vt 0.6118196 0.4709201
vt 0.6118196 0.4709203
vt 0.611843 0.4709202
vt 0.6117962 0.4709202
vt 0.6117865 0.4709203
vt 0.6117962 0.4709204
vt 0.6118196 0.4709204
vt 0.611843 0.4709204
vt 0.6118528 0.4709203
vt 0.6117775 0.470921
vt 0.6117775 0.470921
vt 0.6117881 0.470921
vt 0.6117881 0.470921
vt 0.6117986 0.470921
vt 0.6117986 0.470921
vt 0.6118091 0.470921
vt 0.6118091 0.470921
vt 0.6118196 0.470921
vt 0.6118196 0.470921
vt 0.6118301 0.470921
vt 0.6118301 0.470921
vt 0.6118407 0.470921
vt 0.6118407 0.470921
vt 0.6118512 0.470921
vt 0.6118512 0.470921
vt 0.6118617 0.470921
vt 0.6118617 0.470921
vt 0.6117775 0.470921
vt 0.6117775 0.4709211
vt 0.6117881 0.4709211
vt 0.6117881 0.470921
vt 0.6118512 0.470921
vt 0.6118512 0.4709211
vt 0.6118617 0.4709211
vt 0.6118617 0.470921
vt 0.6118407 0.470921
vt 0.6118407 0.4709211
vt 0.6118512 0.4709211
vt 0.6118512 0.470921
vt 0.6118301 0.470921
vt 0.6118301 0.4709211
vt 0.6118407 0.4709211
vt 0.6118407 0.470921
vt 0.6118196 0.470921
vt 0.6118196 0.4709211
vt 0.6118301 0.4709211
vt 0.6118301 0.470921
vt 0.6118091 0.470921
vt 0.6118091 0.4709211
vt 0.6118196 0.4709211
vt 0.6118196 0.470921
vt 0.6117986 0.470921
vt 0.6117986 0.4709211
vt 0.6118091 0.4709211
vt 0.6118091 0.470921
vt 0.6117881 0.470921
vt 0.6117881 0.4709211
vt 0.6117986 0.4709211
vt 0.6117986 0.470921
vt 0.6118091 0.470921
vt 0.6118091 0.470921
vt 0.6118196 0.470921
vt 0.6118196 0.470921
vt 0.6118301 0.470921
vt 0.6118301 0.470921
vt 0.6118407 0.470921
vt 0.6118407 0.470921
vt 0.6118512 0.470921
vt 0.6118512 0.470921
vt 0.6118617 0.470921
vt 0.6118617 0.470921
vt 0.6117881 0.470921
vt 0.6117881 0.470921
vt 0.6117986 0.470921
vt 0.6117986 0.470921
vt 0.9546108 0.1966715
vt 0.9546108 0.1966717
vt 0.9546109 0.1966717
vt 0.9546109 0.1966715
vt 0.9546109 0.1966717
vt 0.9546109 0.1966715
vt 0.9546109 0.1966717
vt 0.9546109 0.1966715
vt 0.9546109 0.1966717
vt 0.9546109 0.1966715
vt 0.9546109 0.1966717
vt 0.9546109 0.1966715
vt 0.9546109 0.1966717
vt 0.9546109 0.1966715
vt 0.9546109 0.1966718
vt 0.9546109 0.1966717
vt 0.9546109 0.1966718
vt 0.9546108 0.1966717
vt 0.9546109 0.1966717
vt 0.9546109 0.1966717
vt 0.9546109 0.1966717
vt 0.9546109 0.1966718
vt 0.9546109 0.1966718
vt 0.9546109 0.1966718
vt 0.9546109 0.1966718
vt 0.9546109 0.1966718
vt 0.9546109 0.1966718
vt 0.9546109 0.1966718
vt 0.9546109 0.1966718
vt 0.9546108 0.1966717
vt 0.9546108 0.1966717
vt 0.9546108 0.1966717
vt 0.9546108 0.1966717
vt 0.9546109 0.1966717
vt 0.9546109 0.1966717
vt 0.9546109 0.1966717
vt 0.9546109 0.1966717
vt 0.9546109 0.1966717
vt 0.9546109 0.1966717
vt 0.9546109 0.1966717
vt 0.9546109 0.1966717
vt 0.9546109 0.1966717
vt 0.9546109 0.1966717
vt 0.9546109 0.1966717
vt 0.9546109 0.1966717
vt 0.9546109 0.1966717
vt 0.9546109 0.1966717
vt 0.9546109 0.1966718
vt 0.9546109 0.1966718
vt 0.9546109 0.1966718
vt 0.9546109 0.1966718
vt 0.9546108 0.1966717
vt 0.9546108 0.1966717
vt 0.9546108 0.1966717
vt 0.9546108 0.1966717
vt 0.9546109 0.1966717
vt 0.9546109 0.1966717
vt 0.9546109 0.1966717
vt 0.9546109 0.1966717
vt 0.9546109 0.1966717
vt 0.9546109 0.1966717
vt 0.9546109 0.1966717
vt 0.9546109 0.1966717
vt 0.9546109 0.1966718
vt 0.9546109 0.1966718
vn 0 -4.134658E-07 -1
vn 0 0 -1
vn 0 0 -1
vn 0 -2.067329E-07 -1
vn 0 2.067329E-07 -1
vn -1.320086E-07 4.134658E-07 -1
vn 0 0 -1
vn 1.320086E-07 2.067329E-07 -1
vn 0 -2.067329E-07 -1
vn -0.4798421 0.4798419 0.734509
vn 0 0.6785989 0.7345091
vn 0 0.5459279 0.8378321
vn -0.3860295 0.3860294 0.8378321
vn -0.3860295 0.3860294 0.8378321
vn -0.5459281 -2.172921E-07 0.8378321
vn -0.6785989 -1.101477E-07 0.7345091
vn -0.4798421 0.4798419 0.734509
vn 0 0.6785989 0.7345091
vn 0.479842 0.4798418 0.7345091
vn 0.3860294 0.3860295 0.837832
vn 0 0.5459279 0.8378321
vn 0.479842 0.4798418 0.7345091
vn 0.6785988 0 0.7345092
vn 0.5459279 1.217778E-07 0.8378321
vn 0.3860294 0.3860295 0.837832
vn 0.6785988 0 0.7345092
vn 0.4798419 -0.4798418 0.7345091
vn 0.3860294 -0.3860294 0.8378321
vn 0.5459279 1.217778E-07 0.8378321
vn 0.4798419 -0.4798418 0.7345091
vn 0 -0.6785988 0.7345091
vn 0 -0.5459279 0.8378321
vn 0.3860294 -0.3860294 0.8378321
vn 0 -0.6785988 0.7345091
vn -0.4798419 -0.4798419 0.734509
vn -0.3860293 -0.3860295 0.837832
vn 0 -0.5459279 0.8378321
vn -0.4798419 -0.4798419 0.734509
vn -0.6785989 -1.101477E-07 0.7345091
vn -0.5459281 -2.172921E-07 0.8378321
vn -0.3860293 -0.3860295 0.837832
vn -0.3826834 0.9238795 0
vn -0.3826834 0.9238795 0
vn -0.3826834 0.9238795 0
vn -0.3826834 0.9238795 0
vn 0.3826834 0.9238795 0
vn 0.3826834 0.9238795 0
vn 0.3826834 0.9238795 0
vn 0.3826834 0.9238795 0
vn 0.9238795 0.3826834 0
vn 0.9238795 0.3826834 0
vn 0.9238795 0.3826834 0
vn 0.9238795 0.3826834 0
vn 0.9238795 -0.3826834 0
vn 0.9238795 -0.3826834 0
vn 0.9238795 -0.3826834 0
vn 0.9238795 -0.3826834 0
vn 0.3826835 -0.9238795 0
vn 0.3826834 -0.9238795 0
vn 0.3826834 -0.9238795 0
vn 0.3826835 -0.9238795 0
vn -0.3826835 -0.9238795 0
vn -0.3826835 -0.9238795 0
vn -0.3826835 -0.9238795 0
vn -0.3826835 -0.9238795 0
vn -0.9238795 -0.3826834 0
vn -0.9238795 -0.3826834 0
vn -0.9238795 -0.3826834 0
vn -0.9238795 -0.3826834 0
vn -0.9238795 0.3826834 0
vn -0.9238795 0.3826834 0
vn -0.9238795 0.3826834 0
vn -0.9238795 0.3826834 0
vn 0 0.5459279 0.8378321
vn 0 0 1
vn -0.3860295 0.3860294 0.8378321
vn 0.3860294 0.3860295 0.837832
vn 0.5459279 1.217778E-07 0.8378321
vn 0.3860294 -0.3860294 0.8378321
vn 0 -0.5459279 0.8378321
vn -0.3860293 -0.3860295 0.837832
vn -0.5459281 -2.172921E-07 0.8378321
vn -0.5219826 0.5219826 0.6745875
vn -0.5219826 0.5219826 0.6745875
vn 0 0.738195 0.6745874
vn 0 0.738195 0.6745874
vn 0.5219826 0.5219826 0.6745875
vn 0.5219827 0.5219827 0.6745875
vn 0.738195 0 0.6745874
vn 0.738195 0 0.6745874
vn 0.5219827 -0.5219827 0.6745873
vn 0.5219828 -0.5219827 0.6745872
vn 0 -0.7381951 0.6745872
vn 0 -0.738195 0.6745874
vn -0.5219827 -0.5219828 0.6745872
vn -0.5219828 -0.5219827 0.6745872
vn -0.738195 -2.434222E-07 0.6745874
vn -0.738195 -2.127034E-07 0.6745874
vn -0.5219826 0.5219826 0.6745875
vn -0.5219826 0.5219826 0.6745875
vn -0.3826834 0.9238795 0
vn -0.3826835 0.9238795 0
vn -0.3826835 0.9238795 0
vn -0.3826835 0.9238795 0
vn -0.9238795 0.3826834 0
vn -0.9238795 0.3826834 0
vn -0.9238795 0.3826834 0
vn -0.9238795 0.3826834 0
vn -0.9238795 -0.3826834 0
vn -0.9238795 -0.3826835 0
vn -0.9238795 -0.3826835 0
vn -0.9238795 -0.3826834 0
vn -0.3826835 -0.9238795 0
vn -0.3826835 -0.9238795 0
vn -0.3826835 -0.9238795 0
vn -0.3826835 -0.9238795 0
vn 0.3826835 -0.9238795 0
vn 0.3826835 -0.9238795 0
vn 0.3826835 -0.9238795 0
vn 0.3826835 -0.9238795 0
vn 0.9238795 -0.3826834 0
vn 0.9238795 -0.3826835 0
vn 0.9238795 -0.3826835 0
vn 0.9238795 -0.3826834 0
vn 0.9238795 0.3826834 0
vn 0.9238795 0.3826834 0
vn 0.9238795 0.3826834 0
vn 0.9238795 0.3826834 0
vn 0.3826834 0.9238795 0
vn 0.3826834 0.9238795 0
vn 0.3826834 0.9238795 0
vn 0.3826834 0.9238795 0
vn 0.6849868 0 -0.7285555
vn 0.6849868 0 -0.7285554
vn 0.4843588 -0.4843588 -0.7285554
vn 0.4843588 -0.484359 -0.7285554
vn 0 -0.684987 -0.7285552
vn 0 -0.684987 -0.7285552
vn -0.4843589 -0.4843589 -0.7285553
vn -0.4843588 -0.484359 -0.7285554
vn -0.6849868 0 -0.7285554
vn -0.6849868 0 -0.7285555
vn -0.4843588 0.4843587 -0.7285554
vn -0.4843588 0.4843587 -0.7285554
vn 0 0.6849868 -0.7285555
vn 0 0.6849868 -0.7285555
vn 0.4843588 0.4843588 -0.7285554
vn 0.4843588 0.4843588 -0.7285554
vn -0.4999999 0.8660254 0
vn -0.4999999 0.8660254 0
vn 0.4999997 0.8660256 0
vn 0.4999997 0.8660256 0
vn 1 2.372617E-07 0
vn 1 1.82509E-07 0
vn 0.5000002 -0.8660253 0
vn 0.5000002 -0.8660253 0
vn -0.5000001 -0.8660253 0
vn -0.5000001 -0.8660253 0
vn -1 0 0
vn -1 -1.277563E-07 0
vn -0.4999999 0.8660254 0
vn -0.4999999 0.8660254 0
vn 0 1.425617E-05 -1
vn 0 3.438819E-06 -1
vn 0 2.072391E-05 -1
vn 0 4.224891E-06 -1
vn 0 -1.293566E-05 -1
vn 0 0 -1
vn 0 8.449707E-06 -1
vn 0 1 0
vn 0 0.996523 -0.08331788
vn 0 0.996523 -0.08331788
vn 0 1 0
vn 0 0.99603 -0.08901811
vn 0 0.99603 -0.08901813
vn 0.5948327 0.4018298 0.696209
vn 0.5948327 0.4018299 0.6962089
vn 0.5948327 0.4018299 0.6962089
vn 0.5948327 0.4018298 0.696209
vn 0.5948328 -0.4018292 0.6962092
vn 0.5948328 -0.4018292 0.6962092
vn 0.5948328 -0.4018292 0.6962091
vn 0.5948328 -0.4018292 0.6962091
vn 0 -1 0
vn 0 -0.996523 -0.08331805
vn 0 -0.996523 -0.08331805
vn 0 -1 0
vn 0 -0.99603 -0.08901829
vn 0 -0.99603 -0.08901829
vn -0.5948325 -0.4018302 0.6962088
vn -0.5948325 -0.4018302 0.6962088
vn -0.5948325 -0.4018302 0.6962088
vn -0.5948325 -0.4018302 0.6962088
vn -0.5948319 0.4018317 0.6962085
vn -0.5948319 0.4018317 0.6962086
vn -0.5948319 0.4018317 0.6962086
vn -0.5948319 0.4018317 0.6962085
vn 0.777575 0.612822 -0.140806
vn 0.7775749 0.6128221 -0.140806
vn 0.7775749 0.6128221 -0.140806
vn 0.7775749 0.6128221 -0.140806
vn 0.777575 -0.6128219 -0.1408059
vn 0.777575 -0.612822 -0.1408059
vn 0.777575 -0.612822 -0.1408059
vn 0.777575 -0.612822 -0.1408059
vn -0.7775748 -0.6128222 -0.140806
vn -0.7775748 -0.6128222 -0.140806
vn -0.7775748 -0.6128222 -0.140806
vn -0.7775748 -0.6128222 -0.140806
vn -0.7775759 0.6128207 -0.1408062
vn -0.7775759 0.6128207 -0.1408062
vn -0.7775759 0.6128208 -0.1408062
vn -0.7775759 0.6128207 -0.1408062
g meger3d_Char_workshop_C3_1_0
f 3/3/3 2/2/2 1/1/1
f 4/4/4 2/2/2 3/3/3
f 5/5/5 2/2/2 4/4/4
f 6/6/6 2/2/2 5/5/5
f 7/7/7 2/2/2 6/6/6
f 8/8/8 2/2/2 7/7/7
f 9/9/9 2/2/2 8/8/8
f 1/1/1 2/2/2 9/9/9
f 12/12/12 11/11/11 10/10/10
f 13/13/13 12/12/12 10/10/10
f 16/16/16 15/15/15 14/14/14
f 17/17/17 16/16/16 14/14/14
f 20/20/20 19/19/19 18/18/18
f 21/21/21 20/20/20 18/18/18
f 24/24/24 23/23/23 22/22/22
f 25/25/25 24/24/24 22/22/22
f 28/28/28 27/27/27 26/26/26
f 29/29/29 28/28/28 26/26/26
f 32/32/32 31/31/31 30/30/30
f 33/33/33 32/32/32 30/30/30
f 36/36/36 35/35/35 34/34/34
f 37/37/37 36/36/36 34/34/34
f 40/40/40 39/39/39 38/38/38
f 41/41/41 40/40/40 38/38/38
f 44/44/44 43/43/43 42/42/42
f 45/45/45 44/44/44 42/42/42
f 48/48/48 47/47/47 46/46/46
f 49/49/49 48/48/48 46/46/46
f 52/52/52 51/51/51 50/50/50
f 53/53/53 52/52/52 50/50/50
f 56/56/56 55/55/55 54/54/54
f 57/57/57 56/56/56 54/54/54
f 60/60/60 59/59/59 58/58/58
f 61/61/61 60/60/60 58/58/58
f 64/64/64 63/63/63 62/62/62
f 65/65/65 64/64/64 62/62/62
f 68/68/68 67/67/67 66/66/66
f 69/69/69 68/68/68 66/66/66
f 72/72/72 71/71/71 70/70/70
f 73/73/73 72/72/72 70/70/70
f 76/76/76 75/75/75 74/74/74
f 74/74/74 75/75/75 77/77/77
f 77/77/77 75/75/75 78/78/78
f 78/78/78 75/75/75 79/79/79
f 79/79/79 75/75/75 80/80/80
f 80/80/80 75/75/75 81/81/81
f 81/81/81 75/75/75 82/82/82
f 82/82/82 75/75/75 76/76/76
f 85/85/85 84/84/84 83/83/83
f 86/86/86 85/85/85 83/83/83
f 87/87/87 85/85/85 86/86/86
f 88/88/88 87/87/87 86/86/86
f 89/89/89 87/87/87 88/88/88
f 90/90/90 89/89/89 88/88/88
f 91/91/91 89/89/89 90/90/90
f 92/92/92 91/91/91 90/90/90
f 93/93/93 91/91/91 92/92/92
f 94/94/94 93/93/93 92/92/92
f 95/95/95 93/93/93 94/94/94
f 96/96/96 95/95/95 94/94/94
f 97/97/97 95/95/95 96/96/96
f 98/98/98 97/97/97 96/96/96
f 99/99/99 97/97/97 98/98/98
f 100/100/100 99/99/99 98/98/98
f 103/103/103 102/102/102 101/101/101
f 104/104/104 103/103/103 101/101/101
f 107/107/107 106/106/106 105/105/105
f 108/108/108 107/107/107 105/105/105
f 111/111/111 110/110/110 109/109/109
f 112/112/112 111/111/111 109/109/109
f 115/115/115 114/114/114 113/113/113
f 116/116/116 115/115/115 113/113/113
f 119/119/119 118/118/118 117/117/117
f 120/120/120 119/119/119 117/117/117
f 123/123/123 122/122/122 121/121/121
f 124/124/124 123/123/123 121/121/121
f 127/127/127 126/126/126 125/125/125
f 128/128/128 127/127/127 125/125/125
f 131/131/131 130/130/130 129/129/129
f 132/132/132 131/131/131 129/129/129
f 135/135/135 134/134/134 133/133/133
f 136/136/136 135/135/135 133/133/133
f 137/137/137 135/135/135 136/136/136
f 138/138/138 137/137/137 136/136/136
f 139/139/139 137/137/137 138/138/138
f 140/140/140 139/139/139 138/138/138
f 141/141/141 139/139/139 140/140/140
f 142/142/142 141/141/141 140/140/140
f 143/143/143 141/141/141 142/142/142
f 144/144/144 143/143/143 142/142/142
f 145/145/145 143/143/143 144/144/144
f 146/146/146 145/145/145 144/144/144
f 147/147/147 145/145/145 146/146/146
f 148/148/148 147/147/147 146/146/146
f 134/134/134 147/147/147 148/148/148
f 133/133/133 134/134/134 148/148/148
f 151/151/151 150/150/150 149/149/149
f 152/152/152 151/151/151 149/149/149
f 153/153/153 151/151/151 152/152/152
f 154/154/154 153/153/153 152/152/152
f 155/155/155 153/153/153 154/154/154
f 156/156/156 155/155/155 154/154/154
f 157/157/157 155/155/155 156/156/156
f 158/158/158 157/157/157 156/156/156
f 159/159/159 157/157/157 158/158/158
f 160/160/160 159/159/159 158/158/158
f 161/161/161 159/159/159 160/160/160
f 162/162/162 161/161/161 160/160/160
f 165/165/165 164/164/164 163/163/163
f 166/166/166 164/164/164 165/165/165
f 167/167/167 164/164/164 166/166/166
f 168/168/168 164/164/164 167/167/167
f 169/169/169 164/164/164 168/168/168
f 163/163/163 164/164/164 169/169/169
f 172/172/172 171/171/171 170/170/170
f 173/173/173 172/172/172 170/170/170
f 172/172/172 174/174/174 171/171/171
f 174/174/174 175/175/175 171/171/171
f 178/178/178 177/177/177 176/176/176
f 179/179/179 178/178/178 176/176/176
f 182/182/182 181/181/181 180/180/180
f 183/183/183 182/182/182 180/180/180
f 186/186/186 185/185/185 184/184/184
f 187/187/187 186/186/186 184/184/184
f 186/186/186 188/188/188 185/185/185
f 188/188/188 189/189/189 185/185/185
f 192/192/192 191/191/191 190/190/190
f 193/193/193 192/192/192 190/190/190
f 196/196/196 195/195/195 194/194/194
f 197/197/197 196/196/196 194/194/194
f 200/200/200 199/199/199 198/198/198
f 201/201/201 200/200/200 198/198/198
f 204/204/204 203/203/203 202/202/202
f 205/205/205 204/204/204 202/202/202
f 208/208/208 207/207/207 206/206/206
f 209/209/209 208/208/208 206/206/206
f 212/212/212 211/211/211 210/210/210
f 213/213/213 212/212/212 210/210/210
