g meger3d_Char_outdoor_C2_2
v -0.02063382 -0.2378261 0.03573881
v -0.02063382 0.2767795 0.03573881
v 0.02063381 0.2767795 0.03573881
v 0.02063381 -0.2378261 0.03573881
v 0.04126762 0.2767795 -2.175145E-10
v 0.04126762 -0.2378261 -2.175145E-10
v 0.02063382 0.2767795 -0.03573881
v 0.02063382 -0.2378261 -0.03573881
v -0.02063381 0.2767795 -0.03573881
v -0.02063381 -0.2378261 -0.03573881
v -0.04126762 0.2767795 0
v -0.04126762 -0.2378261 0
v 0.005821528 -0.4598536 0.01008321
v 5.631583E-17 -0.4598536 -6.24584E-11
v -0.005821528 -0.4598536 0.01008321
v 0.01164306 -0.4598536 -1.238269E-10
v 0.005821528 -0.4598536 -0.01008321
v -0.005821528 -0.4598536 -0.01008321
v -0.01164306 -0.4598536 -6.24584E-11
v 0.02063381 -0.2378261 0.03573881
v -0.02063382 -0.2378261 0.03573881
v 0.04126762 -0.2378261 -2.175145E-10
v 0.02063382 -0.2378261 -0.03573881
v -0.02063381 -0.2378261 -0.03573881
v -0.04126762 -0.2378261 0
v -0.03033934 0.2454233 0.05254925
v -0.03033934 0.410643 0.05254923
v 0.03033931 0.410643 0.05254923
v 0.03033931 0.2454233 0.05254927
v 0.03033931 0.2454233 0.05254927
v 0.03033931 0.410643 0.05254923
v 0.06067864 0.4106429 -3.198267E-10
v 0.06067864 0.2454233 -3.198267E-10
v 0.06067864 0.2454233 -3.198267E-10
v 0.06067864 0.4106429 -3.198267E-10
v 0.03033933 0.410643 -0.05254923
v 0.03033933 0.2454233 -0.05254925
v 0.03033933 0.2454233 -0.05254925
v 0.03033933 0.410643 -0.05254923
v -0.03033932 0.410643 -0.05254923
v -0.03033932 0.2454233 -0.05254925
v -0.03033932 0.2454233 -0.05254925
v -0.03033932 0.410643 -0.05254923
v -0.06067864 0.410643 0
v -0.06067864 0.2454233 0
v -0.06067864 0.2454233 0
v -0.06067864 0.410643 0
v -0.03033934 0.410643 0.05254923
v -0.03033934 0.2454233 0.05254925
v 0.03033931 0.2454233 0.05254927
v -3.005568E-17 0.2454233 0
v -0.03033934 0.2454233 0.05254925
v 0.06067864 0.2454233 -3.198267E-10
v 0.03033933 0.2454233 -0.05254925
v -0.03033932 0.2454233 -0.05254925
v -0.06067864 0.2454233 0
v -0.03033934 0.410643 0.05254923
v -5.028926E-17 0.410643 0
v 0.03033931 0.410643 0.05254923
v 0.06067864 0.4106429 -3.198267E-10
v 0.03033933 0.410643 -0.05254923
v -0.03033932 0.410643 -0.05254923
v -0.06067864 0.410643 0
v 0.05138071 -0.2033581 -0.01236899
v -0.05728483 -0.2033581 -0.01236899
v -0.05728483 -0.6162933 -0.01236899
v 0.05138071 -0.6162933 -0.01236899
v -0.1053465 -0.5721614 -0.03239302
v 0.1043932 -0.5712662 -0.03279914
v 0.1301018 -0.5142748 -0.0427068
v 0.1301018 -0.2033581 -0.04270681
v -0.1301018 -0.5142748 -0.0427068
v -0.1301018 -0.2033581 -0.04270681
v 0.05904111 -0.2033581 0.01236899
v -0.06494524 -0.2033581 0.01236899
v -0.05728483 -0.2033581 -0.01236899
v 0.05138071 -0.2033581 -0.01236899
v 0.1301018 -0.2033581 -0.04270681
v 0.1476028 -0.2033581 -0.01796878
v -0.1301018 -0.2033581 -0.04270681
v -0.1476028 -0.2033581 -0.01796878
v 0.05904111 -0.6261562 0.01236899
v -0.06494524 -0.6261562 0.01236899
v -0.06494524 -0.2033581 0.01236899
v 0.05904111 -0.2033581 0.01236899
v 0.1218803 -0.5717151 -0.009157253
v -0.1227214 -0.5725262 -0.008836566
v -0.1476028 -0.5142748 -0.0179688
v -0.1476028 -0.2033581 -0.01796878
v 0.1476028 -0.5142748 -0.0179688
v 0.1476028 -0.2033581 -0.01796878
v 0.05138071 -0.6162933 -0.01236899
v -0.05728483 -0.6162933 -0.01236899
v -0.06494524 -0.6261562 0.01236899
v 0.05904111 -0.6261562 0.01236899
v 0.1043932 -0.5712662 -0.03279914
v 0.1218803 -0.5717151 -0.009157253
v -0.1227214 -0.5725262 -0.008836566
v -0.1053465 -0.5721614 -0.03239302
v -0.1301018 -0.5142748 -0.0427068
v -0.1301018 -0.2033581 -0.04270681
v -0.1476028 -0.2033581 -0.01796878
v -0.1476028 -0.5142748 -0.0179688
v -0.1227214 -0.5725262 -0.008836566
v -0.1053465 -0.5721614 -0.03239302
v 0.1476028 -0.5142748 -0.0179688
v 0.1476028 -0.2033581 -0.01796878
v 0.1301018 -0.2033581 -0.04270681
v 0.1301018 -0.5142748 -0.0427068
v 0.1043932 -0.5712662 -0.03279914
v 0.1218803 -0.5717151 -0.009157253
v 0.1367421 0.6096539 -0.03313556
v 0.1367421 0.6759252 -0.03313564
v -0.1367421 0.6759252 -0.03313564
v -0.1367421 0.6096539 -0.03313556
v 0.1367421 0.6759252 -0.03313564
v 0.1367421 0.6759251 0.03313564
v -0.1367421 0.6759251 0.03313564
v -0.1367421 0.6759252 -0.03313564
v 0.1367421 0.6759251 0.03313564
v 0.1367421 0.6096539 0.03313556
v -0.1367421 0.6096539 0.03313556
v -0.1367421 0.6759251 0.03313564
v 0.1367421 0.6096539 0.03313556
v 0.1367421 0.6096539 -0.03313556
v -0.1367421 0.6096539 -0.03313556
v -0.1367421 0.6096539 0.03313556
v -0.1367421 0.6096539 -0.03313556
v -0.1367421 0.6759252 -0.03313564
v -0.1367421 0.6759251 0.03313564
v -0.1367421 0.6096539 0.03313556
v 0.1367421 0.6096539 0.03313556
v 0.1367421 0.6759251 0.03313564
v 0.1367421 0.6759252 -0.03313564
v 0.1367421 0.6096539 -0.03313556
v 0.07683607 0.552304 -0.01422058
v 0.1004156 0.5349241 -0.01422058
v 0.1004156 0.6202391 -0.01422058
v 0.07683607 0.6202391 -0.01422058
v 0.07683607 0.6202391 0.01422058
v 0.1004156 0.6202391 0.01422058
v 0.1004156 0.5349241 0.01422058
v 0.07683607 0.552304 0.01422058
v 0.02504119 0.4311699 0.01422058
v -5.49315E-17 0.4485497 0.01422058
v 0.02504124 0.3843399 0.01422061
v -0.02504119 0.3843399 0.01422058
v -0.02504119 0.4311699 0.01422058
v -0.07683607 0.552304 0.01422058
v -0.1004156 0.5349241 0.01422058
v -0.07683607 0.6202391 0.01422058
v -0.1004156 0.6202391 0.01422058
v 0.1004156 0.5349241 -0.01422058
v 0.1004156 0.5349241 0.01422058
v 0.1004156 0.6202391 0.01422058
v 0.1004156 0.6202391 -0.01422058
v 0.07683607 0.552304 0.01422058
v 0.07683607 0.552304 -0.01422058
v 0.07683607 0.6202391 -0.01422058
v 0.07683607 0.6202391 0.01422058
v 0.1004156 0.5349241 0.01422058
v 0.1004156 0.5349241 -0.01422058
v 0.02504119 0.4311699 -0.01422058
v 0.02504119 0.4311699 0.01422058
v 0.1004156 0.5349241 -0.01422058
v 0.07683607 0.552304 -0.01422058
v -5.49315E-17 0.4485498 -0.01422058
v 0.02504119 0.4311699 -0.01422058
v 0.02504124 0.3843399 -0.01422058
v -0.02504119 0.4311699 -0.01422058
v -0.1004156 0.5349241 -0.01422058
v -0.07683607 0.552304 -0.01422058
v -0.02504119 0.3843399 -0.01422058
v 0.07683607 0.552304 -0.01422058
v 0.07683607 0.552304 0.01422058
v -5.49315E-17 0.4485497 0.01422058
v -5.49315E-17 0.4485498 -0.01422058
v 0.02504119 0.4311699 0.01422058
v 0.02504119 0.4311699 -0.01422058
v 0.02504124 0.3843399 -0.01422058
v 0.02504124 0.3843399 0.01422061
v -0.07683607 0.552304 -0.01422058
v -0.07683607 0.6202391 -0.01422058
v -0.1004156 0.6202391 -0.01422058
v -0.1004156 0.5349241 -0.01422058
v -0.1004156 0.5349241 -0.01422058
v -0.1004156 0.6202391 -0.01422058
v -0.1004156 0.6202391 0.01422058
v -0.1004156 0.5349241 0.01422058
v -0.07683607 0.552304 0.01422058
v -0.07683607 0.6202391 0.01422058
v -0.07683607 0.6202391 -0.01422058
v -0.07683607 0.552304 -0.01422058
v -0.1004156 0.5349241 0.01422058
v -0.02504119 0.4311699 0.01422058
v -0.02504119 0.4311699 -0.01422058
v -0.1004156 0.5349241 -0.01422058
v -0.07683607 0.552304 -0.01422058
v -5.49315E-17 0.4485498 -0.01422058
v -5.49315E-17 0.4485497 0.01422058
v -0.07683607 0.552304 0.01422058
v -0.02504119 0.4311699 0.01422058
v -0.02504119 0.3843399 0.01422058
v -0.02504119 0.3843399 -0.01422058
v -0.02504119 0.4311699 -0.01422058
vt 0.04722208 0.3075235
vt 0.04722208 0.3075237
vt 0.04722214 0.3075237
vt 0.04722214 0.3075235
vt 0.04722217 0.3075237
vt 0.04722217 0.3075235
vt 0.0472222 0.3075237
vt 0.0472222 0.3075235
vt 0.04722226 0.3075237
vt 0.04722226 0.3075235
vt 0.04722226 0.3075237
vt 0.04722226 0.3075235
vt 0.04722214 0.3075233
vt 0.0472222 0.3075233
vt 0.04722226 0.3075233
vt 0.04722205 0.3075233
vt 0.04722214 0.3075235
vt 0.04722226 0.3075235
vt 0.04722232 0.3075233
vt 0.04722214 0.3075233
vt 0.04722226 0.3075233
vt 0.04722205 0.3075233
vt 0.04722214 0.3075235
vt 0.04722226 0.3075235
vt 0.04722232 0.3075233
vt 0.113226 0.5128496
vt 0.113226 0.5128139
vt 0.113222 0.5128139
vt 0.113222 0.5128496
vt 0.113222 0.5128496
vt 0.113222 0.5128139
vt 0.113218 0.5128139
vt 0.113218 0.5128496
vt 0.113218 0.5128496
vt 0.113218 0.5128139
vt 0.1132141 0.5128139
vt 0.1132141 0.5128496
vt 0.1132141 0.5128496
vt 0.1132141 0.5128139
vt 0.1132101 0.5128139
vt 0.1132101 0.5128496
vt 0.1132101 0.5128496
vt 0.1132101 0.5128139
vt 0.1132062 0.5128139
vt 0.1132062 0.5128496
vt 0.1132062 0.5128496
vt 0.1132062 0.5128139
vt 0.1132022 0.5128139
vt 0.1132022 0.5128496
vt 0.1132216 0.5128773
vt 0.1132141 0.512865
vt 0.1132067 0.5128773
vt 0.1132289 0.5128644
vt 0.1132216 0.5128515
vt 0.1132067 0.5128515
vt 0.1131993 0.5128644
vt 0.1132067 0.5127862
vt 0.1132141 0.5127997
vt 0.1132216 0.5127862
vt 0.1132289 0.5127991
vt 0.1132216 0.512812
vt 0.1132067 0.512812
vt 0.1131993 0.5127991
vt 0.9491127 0.1517151
vt 0.9491103 0.1517151
vt 0.9491103 0.1517209
vt 0.9491127 0.1517209
vt 0.9491093 0.1517209
vt 0.9491139 0.1517209
vt 0.9491144 0.1517203
vt 0.9491144 0.1517151
vt 0.9491087 0.1517203
vt 0.9491087 0.1517151
vt 0.9491127 0.1517094
vt 0.9491103 0.1517094
vt 0.9491103 0.1517151
vt 0.9491127 0.1517151
vt 0.9491144 0.1517151
vt 0.9491144 0.1517094
vt 0.9491087 0.1517151
vt 0.9491087 0.1517094
vt 0.9491127 0.1517036
vt 0.9491103 0.1517036
vt 0.9491103 0.1517094
vt 0.9491127 0.1517094
vt 0.949114 0.1517036
vt 0.9491092 0.1517036
vt 0.9491087 0.1517042
vt 0.9491087 0.1517094
vt 0.9491144 0.1517042
vt 0.9491144 0.1517094
vt 0.9491127 0.1516979
vt 0.9491103 0.1516979
vt 0.9491103 0.1517036
vt 0.9491127 0.1517036
vt 0.9491139 0.1516979
vt 0.949114 0.1517036
vt 0.9491092 0.1517036
vt 0.9491093 0.1516979
vt 0.9491087 0.1517203
vt 0.9491087 0.1517151
vt 0.949103 0.1517151
vt 0.949103 0.1517203
vt 0.949103 0.1517209
vt 0.9491093 0.1517209
vt 0.9491202 0.1517203
vt 0.9491202 0.1517151
vt 0.9491144 0.1517151
vt 0.9491144 0.1517203
vt 0.9491139 0.1517209
vt 0.9491202 0.1517209
vt 0.04722208 0.3075232
vt 0.04722208 0.3075234
vt 0.04722232 0.3075234
vt 0.04722232 0.3075232
vt 0.04722208 0.3075234
vt 0.04722208 0.3075236
vt 0.04722232 0.3075236
vt 0.04722232 0.3075234
vt 0.04722208 0.3075236
vt 0.04722208 0.3075238
vt 0.04722232 0.3075238
vt 0.04722232 0.3075236
vt 0.04722208 0.3075238
vt 0.04722208 0.307524
vt 0.04722232 0.307524
vt 0.04722232 0.3075238
vt 0.04722232 0.3075232
vt 0.04722232 0.3075234
vt 0.0472225 0.3075234
vt 0.0472225 0.3075232
vt 0.04722187 0.3075232
vt 0.04722187 0.3075234
vt 0.04722208 0.3075234
vt 0.04722208 0.3075232
vt 0.9472795 0.1517131
vt 0.9472775 0.1517131
vt 0.9472775 0.1517112
vt 0.9472795 0.1517112
vt 0.9472795 0.1517094
vt 0.9472775 0.1517094
vt 0.9472775 0.1517075
vt 0.9472795 0.1517075
vt 0.9472775 0.1517075
vt 0.9472795 0.1517075
vt 0.9472785 0.1517075
vt 0.9472775 0.1517075
vt 0.9472775 0.1517075
vt 0.9472795 0.1517075
vt 0.9472775 0.1517075
vt 0.9472795 0.1517094
vt 0.9472775 0.1517094
vt 0.9472775 0.1517131
vt 0.9472757 0.1517131
vt 0.9472757 0.1517112
vt 0.9472775 0.1517112
vt 0.9472812 0.1517131
vt 0.9472795 0.1517131
vt 0.9472795 0.1517112
vt 0.9472812 0.1517112
vt 0.9472775 0.1517075
vt 0.9472775 0.1517057
vt 0.9472775 0.1517057
vt 0.9472775 0.1517075
vt 0.9472775 0.1517057
vt 0.9472795 0.1517057
vt 0.9472795 0.1517057
vt 0.9472775 0.1517057
vt 0.9472785 0.1517057
vt 0.9472775 0.1517057
vt 0.9472775 0.1517057
vt 0.9472795 0.1517057
vt 0.9472775 0.1517057
vt 0.9472795 0.1517057
vt 0.9472795 0.1517075
vt 0.9472795 0.1517075
vt 0.9472795 0.1517057
vt 0.9472775 0.1517075
vt 0.9472775 0.1517057
vt 0.9472785 0.1517057
vt 0.9472785 0.1517075
vt 0.9472795 0.1517131
vt 0.9472795 0.1517112
vt 0.9472775 0.1517112
vt 0.9472775 0.1517131
vt 0.9472775 0.1517131
vt 0.9472775 0.1517112
vt 0.9472757 0.1517112
vt 0.9472757 0.1517131
vt 0.9472812 0.1517131
vt 0.9472812 0.1517112
vt 0.9472795 0.1517112
vt 0.9472795 0.1517131
vt 0.9472775 0.1517075
vt 0.9472775 0.1517075
vt 0.9472775 0.1517057
vt 0.9472775 0.1517057
vt 0.9472795 0.1517057
vt 0.9472795 0.1517057
vt 0.9472795 0.1517075
vt 0.9472795 0.1517075
vt 0.9472775 0.1517075
vt 0.9472775 0.1517075
vt 0.9472775 0.1517057
vt 0.9472775 0.1517057
vn -0.499805 -0.02793507 0.8656873
vn -0.5000001 0 0.8660253
vn 0.5000001 0 0.8660253
vn 0.499805 -0.02793507 0.8656874
vn 1 0 1.584553E-07
vn 0.9996098 -0.02793508 1.669579E-07
vn 0.5000001 0 -0.8660253
vn 0.499805 -0.02793507 -0.8656874
vn -0.5 0 -0.8660254
vn -0.499805 -0.02793507 -0.8656874
vn -1 0 -1.056369E-07
vn -0.9996098 -0.02793508 -1.095661E-07
vn 0.495116 -0.1394338 0.8575654
vn 0 -1 0
vn -0.495116 -0.1394338 0.8575653
vn 0.9902315 -0.1394339 2.041347E-07
vn 0.495116 -0.1394338 -0.8575653
vn -0.495116 -0.1394338 -0.8575654
vn -0.9902315 -0.1394339 -1.587714E-07
vn 0.499805 -0.02793507 0.8656874
vn -0.499805 -0.02793507 0.8656873
vn 0.9996098 -0.02793508 1.669579E-07
vn 0.499805 -0.02793507 -0.8656874
vn -0.499805 -0.02793507 -0.8656874
vn -0.9996098 -0.02793508 -1.095661E-07
vn -1.522027E-07 1.731648E-07 1
vn -1.522027E-07 1.731647E-07 1
vn -1.522027E-07 1.731647E-07 1
vn -1.522027E-07 1.731647E-07 1
vn 0.8660253 0 0.5000002
vn 0.8660253 0 0.5000002
vn 0.8660253 0 0.5000002
vn 0.8660253 0 0.5000002
vn 0.8660254 0 -0.4999999
vn 0.8660254 0 -0.4999999
vn 0.8660254 0 -0.5
vn 0.8660254 0 -0.4999999
vn 0 1.154432E-07 -1
vn 0 1.154432E-07 -1
vn 0 1.154432E-07 -1
vn 0 1.154432E-07 -1
vn -0.8660253 0 -0.5000001
vn -0.8660253 0 -0.5000001
vn -0.8660253 0 -0.5000001
vn -0.8660253 0 -0.5000001
vn -0.8660254 0 0.4999999
vn -0.8660254 0 0.4999999
vn -0.8660254 0 0.5
vn -0.8660254 0 0.5
vn -3.143361E-07 -1 -4.785392E-07
vn -1.57168E-07 -1 0
vn -1.57168E-07 -1 -2.392696E-07
vn -3.143361E-07 -1 0
vn -1.57168E-07 -1 9.570788E-07
vn 0 -1 4.785394E-07
vn 0 -1 -2.392697E-07
vn 0 1 -2.3927E-07
vn 2.095574E-07 1 -3.987829E-07
vn 3.143361E-07 1 -9.570792E-07
vn 6.286722E-07 1 -7.178093E-07
vn 3.143362E-07 1 4.785398E-07
vn 0 1 -2.392698E-07
vn 0 1 -7.178096E-07
vn -0.07937193 0 -0.9968451
vn 0.08071485 0 -0.9967372
vn 0.04530796 0 -0.998973
vn -0.04723185 0 -0.9988839
vn 0.3845878 0 -0.9230884
vn -0.3596035 0 -0.9331053
vn -0.3596031 0 -0.9331053
vn -0.3596036 0 -0.9331052
vn 0.3845866 2.379677E-07 -0.9230888
vn 0.3845876 0 -0.9230886
vn 0 1 3.399074E-07
vn 0 1 2.708441E-07
vn 0 1 3.095799E-07
vn 0 1 3.702317E-07
vn 0 1 1.556516E-07
vn 0 1 1.556516E-07
vn 0 1 0
vn 0 1 0
vn 0.04272624 0 0.9990869
vn -0.04123075 0 0.9991497
vn -0.0696714 0 0.99757
vn 0.06869555 0 0.9976377
vn 0.3240737 0 0.9460318
vn -0.3445552 0 0.9387661
vn -0.3445554 0 0.9387659
vn -0.3445549 0 0.9387661
vn 0.3240739 0 0.9460317
vn 0.3240736 0 0.9460318
vn 0.2137908 -0.8888813 -0.4051956
vn -0.217586 -0.8865993 -0.4081643
vn -0.2167152 -0.8868645 -0.4080513
vn 0.2171669 -0.8878788 -0.4055981
vn 0.6103113 -0.6309219 -0.4790175
vn 0.6354817 -0.5956106 -0.4913361
vn -0.6495889 -0.5766623 -0.4954745
vn -0.6287546 -0.6078721 -0.4849322
vn -0.8130666 -0.07214141 -0.5776836
vn -0.8163627 0 -0.5775394
vn -0.8163628 0 -0.5775394
vn -0.8136007 -0.06474677 -0.5778077
vn -0.6495889 -0.5766623 -0.4954745
vn -0.6287546 -0.6078721 -0.4849322
vn 0.8134455 -0.06579833 -0.5779073
vn 0.8163628 0 -0.5775393
vn 0.8163628 0 -0.5775393
vn 0.8128006 -0.0744142 -0.5777696
vn 0.6103113 -0.6309219 -0.4790175
vn 0.6354817 -0.5956106 -0.4913361
vn 0 -1.151237E-06 -1
vn 0 -1.151237E-06 -1
vn 0 -1.151237E-06 -1
vn 0 -1.151237E-06 -1
vn 0 1 1.347046E-06
vn 0 1 1.347046E-06
vn 0 1 1.347046E-06
vn 0 1 1.347046E-06
vn 0 -1.151239E-06 1
vn 0 -1.151239E-06 1
vn 0 -1.151239E-06 1
vn 0 -1.151239E-06 1
vn 0 -1 0
vn 0 -1 0
vn 0 -1 0
vn 0 -1 0
vn -1 1.171205E-07 0
vn -1 1.171205E-07 0
vn -1 1.171205E-07 0
vn -1 1.171205E-07 0
vn 1 1.171205E-07 0
vn 1 1.171205E-07 0
vn 1 1.171205E-07 0
vn 1 1.171205E-07 0
vn 0 0 -1
vn 0 0 -1
vn 0 0 -1
vn 0 0 -1
vn 0 0 1
vn 0 0 1
vn 0 0 1
vn 0 0 1
vn 0 0 1
vn 0 0 1
vn 5.692723E-07 8.145863E-07 1
vn -5.215534E-07 2.17672E-07 1
vn 0 0 1
vn 0 0 1
vn 0 0 1
vn 0 0 1
vn 0 0 1
vn 1 0 0
vn 1 0 0
vn 1 0 0
vn 1 0 0
vn -1 0 0
vn -1 0 0
vn -1 0 0
vn -1 0 0
vn 0.8090445 -0.5877473 0
vn 0.8090445 -0.5877473 0
vn 0.8090445 -0.5877473 0
vn 0.8090445 -0.5877473 0
vn 0 0 -1
vn 0 0 -1
vn 0 0 -1
vn 0 0 -1
vn 0 0 -1
vn 0 0 -1
vn 0 0 -1
vn 0 0 -1
vn 0 0 -1
vn -0.8036272 0.5951331 0
vn -0.8036272 0.5951329 0
vn -0.8036272 0.5951331 0
vn -0.8036272 0.5951331 0
vn 1 1.002437E-06 0
vn 1 1.002437E-06 0
vn 1 1.002437E-06 0
vn 1 1.002437E-06 0
vn 0 0 -1
vn 0 0 -1
vn 0 0 -1
vn 0 0 -1
vn -1 0 0
vn -1 0 0
vn -1 0 0
vn -1 0 0
vn 1 0 0
vn 1 0 0
vn 1 0 0
vn 1 0 0
vn -0.8090445 -0.5877473 0
vn -0.8090445 -0.5877473 0
vn -0.8090445 -0.5877473 0
vn -0.8090445 -0.5877473 0
vn 0.8036272 0.5951331 0
vn 0.8036272 0.5951331 0
vn 0.8036272 0.5951331 0
vn 0.8036272 0.5951329 0
vn -1 0 0
vn -1 0 0
vn -1 0 0
vn -1 0 0
g meger3d_Char_outdoor_C2_2_0
f 3/3/3 2/2/2 1/1/1
f 4/4/4 3/3/3 1/1/1
f 5/5/5 3/3/3 4/4/4
f 6/6/6 5/5/5 4/4/4
f 7/7/7 5/5/5 6/6/6
f 8/8/8 7/7/7 6/6/6
f 9/9/9 7/7/7 8/8/8
f 10/10/10 9/9/9 8/8/8
f 11/11/11 9/9/9 10/10/10
f 12/12/12 11/11/11 10/10/10
f 2/2/2 11/11/11 12/12/12
f 1/1/1 2/2/2 12/12/12
f 15/15/15 14/14/14 13/13/13
f 13/13/13 14/14/14 16/16/16
f 16/16/16 14/14/14 17/17/17
f 17/17/17 14/14/14 18/18/18
f 18/18/18 14/14/14 19/19/19
f 19/19/19 14/14/14 15/15/15
f 15/15/15 13/13/13 20/20/20
f 21/21/21 15/15/15 20/20/20
f 19/19/19 15/15/15 21/21/21
f 13/13/13 16/16/16 22/22/22
f 20/20/20 13/13/13 22/22/22
f 16/16/16 17/17/17 23/23/23
f 22/22/22 16/16/16 23/23/23
f 17/17/17 18/18/18 24/24/24
f 23/23/23 17/17/17 24/24/24
f 18/18/18 19/19/19 25/25/25
f 24/24/24 18/18/18 25/25/25
f 25/25/25 19/19/19 21/21/21
f 28/28/28 27/27/27 26/26/26
f 29/29/29 28/28/28 26/26/26
f 32/32/32 31/31/31 30/30/30
f 33/33/33 32/32/32 30/30/30
f 36/36/36 35/35/35 34/34/34
f 37/37/37 36/36/36 34/34/34
f 40/40/40 39/39/39 38/38/38
f 41/41/41 40/40/40 38/38/38
f 44/44/44 43/43/43 42/42/42
f 45/45/45 44/44/44 42/42/42
f 48/48/48 47/47/47 46/46/46
f 49/49/49 48/48/48 46/46/46
f 52/52/52 51/51/51 50/50/50
f 50/50/50 51/51/51 53/53/53
f 53/53/53 51/51/51 54/54/54
f 54/54/54 51/51/51 55/55/55
f 55/55/55 51/51/51 56/56/56
f 56/56/56 51/51/51 52/52/52
f 59/59/59 58/58/58 57/57/57
f 60/60/60 58/58/58 59/59/59
f 61/61/61 58/58/58 60/60/60
f 62/62/62 58/58/58 61/61/61
f 63/63/63 58/58/58 62/62/62
f 57/57/57 58/58/58 63/63/63
f 66/66/66 65/65/65 64/64/64
f 67/67/67 66/66/66 64/64/64
f 66/66/66 68/68/68 65/65/65
f 69/69/69 67/67/67 64/64/64
f 69/69/69 64/64/64 70/70/70
f 64/64/64 71/71/71 70/70/70
f 68/68/68 72/72/72 65/65/65
f 72/72/72 73/73/73 65/65/65
f 76/76/76 75/75/75 74/74/74
f 77/77/77 76/76/76 74/74/74
f 77/77/77 74/74/74 78/78/78
f 74/74/74 79/79/79 78/78/78
f 76/76/76 80/80/80 75/75/75
f 80/80/80 81/81/81 75/75/75
f 84/84/84 83/83/83 82/82/82
f 85/85/85 84/84/84 82/82/82
f 85/85/85 82/82/82 86/86/86
f 84/84/84 87/87/87 83/83/83
f 84/84/84 88/88/88 87/87/87
f 84/84/84 89/89/89 88/88/88
f 85/85/85 86/86/86 90/90/90
f 85/85/85 90/90/90 91/91/91
f 94/94/94 93/93/93 92/92/92
f 95/95/95 94/94/94 92/92/92
f 95/95/95 92/92/92 96/96/96
f 97/97/97 95/95/95 96/96/96
f 94/94/94 98/98/98 93/93/93
f 98/98/98 99/99/99 93/93/93
f 102/102/102 101/101/101 100/100/100
f 103/103/103 102/102/102 100/100/100
f 104/104/104 103/103/103 100/100/100
f 105/105/105 104/104/104 100/100/100
f 108/108/108 107/107/107 106/106/106
f 109/109/109 108/108/108 106/106/106
f 109/109/109 106/106/106 110/110/110
f 106/106/106 111/111/111 110/110/110
f 114/114/114 113/113/113 112/112/112
f 115/115/115 114/114/114 112/112/112
f 118/118/118 117/117/117 116/116/116
f 119/119/119 118/118/118 116/116/116
f 122/122/122 121/121/121 120/120/120
f 123/123/123 122/122/122 120/120/120
f 126/126/126 125/125/125 124/124/124
f 127/127/127 126/126/126 124/124/124
f 130/130/130 129/129/129 128/128/128
f 131/131/131 130/130/130 128/128/128
f 134/134/134 133/133/133 132/132/132
f 135/135/135 134/134/134 132/132/132
f 138/138/138 137/137/137 136/136/136
f 139/139/139 138/138/138 136/136/136
f 142/142/142 141/141/141 140/140/140
f 143/143/143 142/142/142 140/140/140
f 144/144/144 142/142/142 143/143/143
f 145/145/145 144/144/144 143/143/143
f 146/146/146 144/144/144 145/145/145
f 147/147/147 146/146/146 145/145/145
f 148/148/148 147/147/147 145/145/145
f 148/148/148 145/145/145 149/149/149
f 150/150/150 148/148/148 149/149/149
f 150/150/150 149/149/149 151/151/151
f 152/152/152 150/150/150 151/151/151
f 155/155/155 154/154/154 153/153/153
f 156/156/156 155/155/155 153/153/153
f 159/159/159 158/158/158 157/157/157
f 160/160/160 159/159/159 157/157/157
f 163/163/163 162/162/162 161/161/161
f 164/164/164 163/163/163 161/161/161
f 167/167/167 166/166/166 165/165/165
f 168/168/168 167/167/167 165/165/165
f 169/169/169 167/167/167 168/168/168
f 167/167/167 169/169/169 170/170/170
f 167/167/167 170/170/170 171/171/171
f 172/172/172 167/167/167 171/171/171
f 169/169/169 173/173/173 170/170/170
f 176/176/176 175/175/175 174/174/174
f 177/177/177 176/176/176 174/174/174
f 180/180/180 179/179/179 178/178/178
f 181/181/181 180/180/180 178/178/178
f 184/184/184 183/183/183 182/182/182
f 185/185/185 184/184/184 182/182/182
f 188/188/188 187/187/187 186/186/186
f 189/189/189 188/188/188 186/186/186
f 192/192/192 191/191/191 190/190/190
f 193/193/193 192/192/192 190/190/190
f 196/196/196 195/195/195 194/194/194
f 197/197/197 196/196/196 194/194/194
f 200/200/200 199/199/199 198/198/198
f 201/201/201 200/200/200 198/198/198
f 204/204/204 203/203/203 202/202/202
f 205/205/205 204/204/204 202/202/202
