g merge2d_element_number_3
v -0.3231946 -0.3882178 -0.1220326
v -0.215316 -0.4220455 -0.1220326
v -0.2153146 -0.2429177 -0.1220326
v -0.3231946 -0.2035079 -0.1220326
v -0.06976146 -0.440704 -0.1220326
v -0.0714608 -0.2695884 -0.1220326
v 0.0723642 -0.432881 -0.1220326
v 0.03640822 -0.2495493 -0.1220326
v 0.06902594 -0.2205858 -0.1220326
v 0.2108491 -0.3793185 -0.1220326
v 0.2939556 -0.2943676 -0.1220326
v 0.3195733 -0.2205435 -0.1220326
v 0.08566955 -0.1534507 -0.1220326
v 0.3231946 -0.1467306 -0.1220326
v 0.2737717 -0.03941413 -0.1220326
v 0.2016701 0.00402327 -0.1220326
v 0.03640591 -0.07993919 -0.1220326
v 0.1447034 0.02777996 -0.1220326
v 0.03633726 0.1398518 -0.1220326
v 0.2025769 0.05983925 -0.1220326
v 0.2637163 0.1271213 -0.1220326
v 0.05181404 0.1936292 -0.1220326
v 0.2826999 0.2346468 -0.1220326
v 0.2543049 0.3357611 -0.1220326
v 0.03175941 0.2440883 -0.1220326
v 0.1898963 0.3973992 -0.1220326
v 0.0748622 0.4358165 -0.1220326
v -0.07145027 0.440704 -0.1220326
v -0.07147119 0.2709756 -0.1220326
v -0.2153305 0.2344866 -0.1220326
v -0.2153564 0.4143654 -0.1220326
v -0.2891268 0.389482 -0.1220326
v -0.2891268 0.1874846 -0.1220326
v -0.03551307 0.1059933 -0.1220326
v -0.03551192 -0.06797499 -0.1220326
v -0.1187888 -0.06723719 -0.1220326
v -0.1187888 0.1031009 -0.1220326
v -0.3231946 -0.3882178 0.1220327
v -0.2153146 -0.2429177 0.1220327
v -0.215316 -0.4220454 0.1220327
v -0.3231946 -0.2035079 0.1220327
v -0.06976146 -0.4407039 0.1220327
v -0.0714608 -0.2695884 0.1220327
v 0.0723642 -0.432881 0.1220327
v 0.03640822 -0.2495493 0.1220327
v 0.06902594 -0.2205857 0.1220327
v 0.2108491 -0.3793185 0.1220327
v 0.2939556 -0.2943676 0.1220327
v 0.3195733 -0.2205434 0.1220327
v 0.08566955 -0.1534507 0.1220327
v 0.3231946 -0.1467306 0.1220327
v 0.2737717 -0.03941413 0.1220327
v 0.2016701 0.00402327 0.1220327
v 0.03640591 -0.07993919 0.1220327
v 0.1447034 0.02777996 0.1220327
v 0.03633726 0.1398518 0.1220327
v 0.2025769 0.05983926 0.1220327
v 0.2637163 0.1271214 0.1220327
v 0.05181404 0.1936292 0.1220327
v 0.2826999 0.2346468 0.1220327
v 0.2543049 0.3357611 0.1220327
v 0.03175941 0.2440883 0.1220327
v 0.1898963 0.3973992 0.1220327
v 0.0748622 0.4358165 0.1220327
v -0.07145027 0.440704 0.1220327
v -0.07147119 0.2709756 0.1220327
v -0.2153305 0.2344866 0.1220327
v -0.2153564 0.4143654 0.1220327
v -0.2891268 0.389482 0.1220327
v -0.2891268 0.1874846 0.1220327
v -0.03551307 0.1059933 0.1220327
v -0.03551192 -0.06797499 0.1220327
v -0.1187888 -0.06723719 0.1220327
v -0.1187888 0.103101 0.1220327
v -0.3231946 -0.3882178 0.1220327
v -0.215316 -0.4220454 0.1220327
v -0.215316 -0.4220455 -0.1220326
v -0.3231946 -0.3882178 -0.1220326
v -0.06976146 -0.440704 -0.1220326
v -0.06976146 -0.4407039 0.1220327
v 0.0723642 -0.432881 -0.1220326
v 0.0723642 -0.432881 0.1220327
v 0.2108491 -0.3793185 -0.1220326
v 0.2108491 -0.3793185 0.1220327
v 0.2939556 -0.2943676 -0.1220326
v 0.2939556 -0.2943676 0.1220327
v 0.3195733 -0.2205435 -0.1220326
v 0.3195733 -0.2205434 0.1220327
v 0.3231946 -0.1467306 -0.1220326
v 0.3231946 -0.1467306 0.1220327
v 0.2737717 -0.03941413 -0.1220326
v 0.2737717 -0.03941413 0.1220327
v 0.2016701 0.00402327 -0.1220326
v 0.2016701 0.00402327 0.1220327
v 0.1447034 0.02777996 -0.1220326
v 0.1447034 0.02777996 0.1220327
v -0.2153146 -0.2429177 0.1220327
v -0.3231946 -0.2035079 0.1220327
v -0.3231946 -0.2035079 -0.1220326
v -0.2153146 -0.2429177 -0.1220326
v -0.0714608 -0.2695884 0.1220327
v -0.0714608 -0.2695884 -0.1220326
v 0.03640822 -0.2495493 0.1220327
v 0.03640822 -0.2495493 -0.1220326
v 0.06902594 -0.2205857 0.1220327
v 0.06902594 -0.2205858 -0.1220326
v 0.08566955 -0.1534507 0.1220327
v 0.08566955 -0.1534507 -0.1220326
v 0.03640591 -0.07993919 0.1220327
v 0.03640591 -0.07993919 -0.1220326
v -0.03551192 -0.06797499 0.1220327
v -0.03551192 -0.06797499 -0.1220326
v -0.1187888 -0.06723719 0.1220327
v -0.1187888 -0.06723719 -0.1220326
v -0.3231946 -0.2035079 0.1220327
v -0.3231946 -0.3882178 0.1220327
v -0.3231946 -0.3882178 -0.1220326
v -0.3231946 -0.2035079 -0.1220326
v -0.03551307 0.1059933 0.1220327
v -0.1187888 0.103101 0.1220327
v -0.1187888 0.1031009 -0.1220326
v -0.03551307 0.1059933 -0.1220326
v 0.03633726 0.1398518 0.1220327
v 0.03633726 0.1398518 -0.1220326
v 0.05181404 0.1936292 0.1220327
v 0.05181404 0.1936292 -0.1220326
v 0.03175941 0.2440883 0.1220327
v 0.03175941 0.2440883 -0.1220326
v -0.07147119 0.2709756 0.1220327
v -0.07147119 0.2709756 -0.1220326
v -0.2153305 0.2344866 0.1220327
v -0.2153305 0.2344866 -0.1220326
v -0.2891268 0.1874846 0.1220327
v -0.2891268 0.1874846 -0.1220326
v -0.1187888 0.103101 0.1220327
v -0.1187888 -0.06723719 0.1220327
v -0.1187888 -0.06723719 -0.1220326
v -0.1187888 0.1031009 -0.1220326
v -0.2891268 0.389482 0.1220327
v -0.2891268 0.1874846 0.1220327
v -0.2891268 0.1874846 -0.1220326
v -0.2891268 0.389482 -0.1220326
v -0.2153564 0.4143654 0.1220327
v -0.2891268 0.389482 0.1220327
v -0.2891268 0.389482 -0.1220326
v -0.2153564 0.4143654 -0.1220326
v -0.07145027 0.440704 0.1220327
v -0.07145027 0.440704 -0.1220326
v 0.0748622 0.4358165 0.1220327
v 0.0748622 0.4358165 -0.1220326
v 0.1898963 0.3973992 0.1220327
v 0.1898963 0.3973992 -0.1220326
v 0.2543049 0.3357611 0.1220327
v 0.2543049 0.3357611 -0.1220326
v 0.2826999 0.2346468 0.1220327
v 0.2826999 0.2346468 -0.1220326
v 0.2637163 0.1271214 0.1220327
v 0.2637163 0.1271213 -0.1220326
v 0.2025769 0.05983926 0.1220327
v 0.2025769 0.05983925 -0.1220326
v 0.1447034 0.02777996 0.1220327
v 0.1447034 0.02777996 -0.1220326
vt 0.3335065 0.3694094
vt 0.3094308 0.3618592
vt 0.3094301 0.4018365
vt 0.3335065 0.4106319
vt 0.276946 0.3576952
vt 0.2773255 0.3958849
vt 0.245227 0.3594415
vt 0.2532513 0.4003564
vt 0.2459719 0.4068211
vt 0.2143197 0.3713949
vt 0.1957725 0.3903541
vt 0.1900549 0.4068302
vt 0.2422572 0.4218037
vt 0.189247 0.4233041
vt 0.2002771 0.4472545
vt 0.2163684 0.4569485
vt 0.253252 0.43821
vt 0.2290825 0.4622506
vt 0.253267 0.4872626
vt 0.2161659 0.4694055
vt 0.2025215 0.484421
vt 0.2498133 0.499264
vt 0.1982847 0.5084187
vt 0.2046219 0.5309852
vt 0.2542888 0.5105259
vt 0.2189961 0.5447412
vt 0.244669 0.5533153
vt 0.2773226 0.5544061
vt 0.2773278 0.5165262
vt 0.3094338 0.5083827
vt 0.3094398 0.548528
vt 0.3259032 0.5429739
vt 0.3259032 0.4978927
vt 0.2693028 0.4797064
vt 0.269302 0.4408799
vt 0.2878875 0.4410448
vt 0.2878875 0.4790604
vt 0.03056146 0.3694094
vt 0.05463802 0.4018365
vt 0.05463728 0.3618592
vt 0.03056146 0.4106319
vt 0.08712211 0.3576952
vt 0.08674251 0.3958849
vt 0.1188411 0.3594415
vt 0.1108169 0.4003564
vt 0.1180962 0.4068211
vt 0.1497484 0.3713949
vt 0.1682956 0.3903541
vt 0.1740131 0.4068302
vt 0.1218109 0.4218037
vt 0.174821 0.4233041
vt 0.163791 0.4472545
vt 0.1476997 0.4569485
vt 0.1108161 0.43821
vt 0.1349856 0.4622506
vt 0.1108011 0.4872626
vt 0.1479023 0.4694055
vt 0.1615466 0.484421
vt 0.1142547 0.499264
vt 0.1657834 0.5084187
vt 0.1594462 0.5309852
vt 0.1097794 0.5105259
vt 0.145072 0.5447412
vt 0.1193992 0.5533153
vt 0.08674552 0.5544061
vt 0.08674031 0.5165262
vt 0.05463424 0.5083827
vt 0.05462828 0.548528
vt 0.03816493 0.5429739
vt 0.03816493 0.4978927
vt 0.09476531 0.4797064
vt 0.09476603 0.4408799
vt 0.07618057 0.4410448
vt 0.07618057 0.4790604
vt 0.3966825 0.4605164
vt 0.4219241 0.4605164
vt 0.4219241 0.4060463
vt 0.3966825 0.4060463
vt 0.4546894 0.4060463
vt 0.4546894 0.4605164
vt 0.4864766 0.4060463
vt 0.4864766 0.4605164
vt 0.519638 0.4060463
vt 0.519638 0.4605164
vt 0.5461856 0.4060463
vt 0.5461856 0.4605164
vt 0.563648 0.4060463
vt 0.563648 0.4605164
vt 0.5801616 0.4060463
vt 0.5801616 0.4605164
vt 0.606545 0.4060463
vt 0.606545 0.4605164
vt 0.6253403 0.4060463
vt 0.6253403 0.4605164
vt 0.639119 0.4060463
vt 0.639119 0.4605164
vt 0.4887518 0.3900601
vt 0.5143826 0.3900608
vt 0.5143826 0.3355908
vt 0.488751 0.3355908
vt 0.456105 0.3900608
vt 0.456102 0.3355908
vt 0.4316263 0.3900623
vt 0.4316196 0.3355924
vt 0.4218985 0.3900638
vt 0.4218902 0.3355938
vt 0.4064666 0.390066
vt 0.4064614 0.335596
vt 0.3867214 0.390066
vt 0.3867191 0.335596
vt 0.3704523 0.390066
vt 0.3704523 0.335596
vt 0.3518668 0.3900653
vt 0.3518683 0.3355953
vt 0.3554555 0.4605164
vt 0.3966825 0.4605164
vt 0.3966825 0.4060463
vt 0.3554555 0.4060463
vt 0.6403492 0.388889
vt 0.6589422 0.3888906
vt 0.6589429 0.3344206
vt 0.6403515 0.3344199
vt 0.6226279 0.3888898
vt 0.6226332 0.3344199
vt 0.6101443 0.388889
vt 0.6101531 0.3344191
vt 0.5980361 0.3888883
vt 0.5980399 0.3344184
vt 0.5742387 0.3888883
vt 0.5742356 0.3344184
vt 0.5411199 0.3888914
vt 0.5411177 0.3344213
vt 0.5215929 0.3888906
vt 0.5215937 0.3344206
vt 0.6589422 0.3888906
vt 0.6969571 0.3888898
vt 0.6969562 0.3344199
vt 0.6589429 0.3344206
vt 0.5747374 0.5249062
vt 0.6198231 0.5244367
vt 0.6192567 0.4699697
vt 0.5741838 0.4704386
vt 0.5573499 0.5250795
vt 0.5747374 0.5249062
vt 0.5741838 0.4704386
vt 0.5568218 0.4706118
vt 0.5246858 0.5253878
vt 0.5241878 0.4709201
vt 0.4919984 0.5256782
vt 0.4915318 0.4712104
vt 0.464916 0.5259017
vt 0.4644817 0.471434
vt 0.4450043 0.5260547
vt 0.4446008 0.4715863
vt 0.4215512 0.5262212
vt 0.4211754 0.471752
vt 0.3971723 0.5263825
vt 0.3968168 0.471914
vt 0.3768788 0.5265115
vt 0.376533 0.4720431
vt 0.3621122 0.5266046
vt 0.3617687 0.4721362
vn 0 0 -1
vn 0 0 -1
vn 0 0 -1
vn 0 0 -1
vn -1.170472E-07 0 -1
vn 0 0 -1
vn 0 0 -1
vn 0 0 -1
vn 0 0 -1
vn 0 0 -1
vn 0 0 -1
vn 0 0 -1
vn 0 -1.420589E-07 -1
vn 0 -1.293812E-07 -1
vn -1.181822E-07 0 -1
vn 0 0 -1
vn 2.563402E-07 0 -1
vn 2.563402E-07 0 -1
vn 2.563402E-07 0 -1
vn 0 0 -1
vn 0 0 -1
vn 0 0 -1
vn 0 0 -1
vn -1.55529E-07 0 -1
vn -1.55529E-07 0 -1
vn -1.55529E-07 0 -1
vn 1.287054E-07 0 -1
vn 0 0 -1
vn 0 0 -1
vn -1.083065E-07 0 -1
vn -1.083065E-07 0 -1
vn -1.083065E-07 0 -1
vn -1.083065E-07 0 -1
vn 0 0 -1
vn 1.75265E-07 0 -1
vn 0 0 -1
vn 0 0 -1
vn 0 1.064795E-07 1
vn 0 1.064795E-07 1
vn 0 1.064795E-07 1
vn 0 1.032618E-07 1
vn 1.170472E-07 1.064797E-07 1
vn -1.242052E-07 0 1
vn 0 0 1
vn 0 0 1
vn 0 0 1
vn 0 0 1
vn 0 0 1
vn 0 0 1
vn 0 2.652443E-07 1
vn 0 0 1
vn 0 0 1
vn -1.861635E-07 0 1
vn 1.281701E-07 0 1
vn 1.281701E-07 0 1
vn 1.281701E-07 0 1
vn 0 0 1
vn 0 0 1
vn 0 0 1
vn 0 0 1
vn 0 0 1
vn 0 0 1
vn 0 0 1
vn 0 0 1
vn 1.249887E-07 0 1
vn 1.249887E-07 0 1
vn 0 0 1
vn 0 0 1
vn 0 0 1
vn 0 0 1
vn 0 0 1
vn 0 0 1
vn 0 0 1
vn 0 0 1
vn -0.2992065 -0.9541884 2.211938E-07
vn -0.2027972 -0.9792207 2.898761E-07
vn -0.2027972 -0.9792207 2.898762E-07
vn -0.2992065 -0.9541884 2.211938E-07
vn -0.03763865 -0.9992914 1.737345E-07
vn -0.03763865 -0.9992914 1.737345E-07
vn 0.213703 -0.9768986 0
vn 0.213703 -0.9768986 0
vn 0.5300506 -0.8479659 0
vn 0.5300506 -0.847966 0
vn 0.8250927 -0.5649974 0
vn 0.8250927 -0.5649974 0
vn 0.9809475 -0.194273 0
vn 0.9809475 -0.1942729 0
vn 0.969485 0.2451505 0
vn 0.969485 0.2451505 0
vn 0.7785422 0.6275923 0
vn 0.7785422 0.6275923 0
vn 0.4617777 0.8869957 0
vn 0.4617777 0.8869957 0
vn 0.3848996 0.9229584 0
vn 0.3848996 0.9229585 0
vn 0.2538996 0.9672306 0
vn 0.3431323 0.9392871 0
vn 0.3431323 0.9392871 0
vn 0.2538996 0.9672306 0
vn 0.02633571 0.9996532 -1.489677E-07
vn 0.02633571 0.9996532 -1.489677E-07
vn -0.3293462 0.9442092 -1.89086E-07
vn -0.3293462 0.9442092 -1.89086E-07
vn -0.8898928 0.4561699 0
vn -0.8898927 0.4561699 0
vn -0.9741431 -0.225932 0
vn -0.9741431 -0.2259321 0
vn -0.5763941 -0.8171718 0
vn -0.5763942 -0.8171718 0
vn -0.08157286 -0.9966673 0
vn -0.08157286 -0.9966673 0
vn -0.008859267 -0.9999608 0
vn -0.008859267 -0.9999608 0
vn -1 -1.367407E-07 0
vn -1 -1.367407E-07 0
vn -1 -1.367407E-07 0
vn -1 -1.367407E-07 0
vn -0.2305285 0.9730656 0
vn -0.03471166 0.9993974 0
vn -0.03471166 0.9993974 0
vn -0.2305285 0.9730656 0
vn -0.7083535 0.7058578 0
vn -0.7083535 0.7058579 0
vn -0.999037 -0.04387555 0
vn -0.999037 -0.04387553 0
vn -0.5314463 -0.8470921 0
vn -0.5314463 -0.8470921 0
vn 0.03883003 -0.9992459 0
vn 0.03883004 -0.9992459 0
vn 0.3581465 -0.9336654 0
vn 0.3581465 -0.9336655 0
vn 0.5372063 -0.8434508 0
vn 0.5372063 -0.8434508 0
vn -1 0 0
vn -1 0 0
vn -1 0 0
vn -1 0 0
vn -1 0 0
vn -1 0 0
vn -1 0 0
vn -1 0 0
vn -0.229056 0.9734133 0
vn -0.319615 0.9475476 0
vn -0.319615 0.9475476 0
vn -0.229056 0.9734133 0
vn -0.07371269 0.9972796 0
vn -0.07371269 0.9972796 0
vn 0.1634699 0.9865484 0
vn 0.1634699 0.9865484 0
vn 0.4870002 0.8734018 0
vn 0.4870002 0.8734018 0
vn 0.8686976 0.4953427 0
vn 0.8686976 0.4953427 0
vn 0.9989842 0.04506251 0
vn 0.9989842 0.04506252 0
vn 0.9090592 -0.4166671 0
vn 0.909059 -0.4166672 0
vn 0.6408086 -0.7677006 0
vn 0.6408086 -0.7677006 0
vn 0.4845727 -0.874751 0
vn 0.4845727 -0.874751 0
g merge2d_element_number_3_0
f 3/3/3 2/2/2 1/1/1
f 1/1/1 4/4/4 3/3/3
f 5/5/5 2/2/2 3/3/3
f 6/6/6 5/5/5 3/3/3
f 7/7/7 5/5/5 6/6/6
f 8/8/8 7/7/7 6/6/6
f 8/8/8 9/9/9 7/7/7
f 9/9/9 10/10/10 7/7/7
f 9/9/9 11/11/11 10/10/10
f 11/11/11 9/9/9 12/12/12
f 12/12/12 9/9/9 13/13/13
f 13/13/13 14/14/14 12/12/12
f 13/13/13 15/15/15 14/14/14
f 13/13/13 16/16/16 15/15/15
f 13/13/13 17/17/17 16/16/16
f 16/16/16 17/17/17 18/18/18
f 18/18/18 17/17/17 19/19/19
f 20/20/20 18/18/18 19/19/19
f 20/20/20 19/19/19 21/21/21
f 19/19/19 22/22/22 21/21/21
f 21/21/21 22/22/22 23/23/23
f 23/23/23 22/22/22 24/24/24
f 22/22/22 25/25/25 24/24/24
f 24/24/24 25/25/25 26/26/26
f 27/27/27 26/26/26 25/25/25
f 25/25/25 28/28/28 27/27/27
f 25/25/25 29/29/29 28/28/28
f 28/28/28 29/29/29 30/30/30
f 28/28/28 30/30/30 31/31/31
f 31/31/31 30/30/30 32/32/32
f 30/30/30 33/33/33 32/32/32
f 19/19/19 17/17/17 34/34/34
f 17/17/17 35/35/35 34/34/34
f 34/34/34 35/35/35 36/36/36
f 36/36/36 37/37/37 34/34/34
f 40/40/40 39/39/39 38/38/38
f 41/41/41 38/38/38 39/39/39
f 40/40/40 42/42/42 39/39/39
f 42/42/42 43/43/43 39/39/39
f 42/42/42 44/44/44 43/43/43
f 44/44/44 45/45/45 43/43/43
f 46/46/46 45/45/45 44/44/44
f 47/47/47 46/46/46 44/44/44
f 48/48/48 46/46/46 47/47/47
f 46/46/46 48/48/48 49/49/49
f 46/46/46 49/49/49 50/50/50
f 51/51/51 50/50/50 49/49/49
f 52/52/52 50/50/50 51/51/51
f 53/53/53 50/50/50 52/52/52
f 54/54/54 50/50/50 53/53/53
f 54/54/54 53/53/53 55/55/55
f 54/54/54 55/55/55 56/56/56
f 55/55/55 57/57/57 56/56/56
f 56/56/56 57/57/57 58/58/58
f 59/59/59 56/56/56 58/58/58
f 59/59/59 58/58/58 60/60/60
f 59/59/59 60/60/60 61/61/61
f 62/62/62 59/59/59 61/61/61
f 62/62/62 61/61/61 63/63/63
f 63/63/63 64/64/64 62/62/62
f 65/65/65 62/62/62 64/64/64
f 66/66/66 62/62/62 65/65/65
f 66/66/66 65/65/65 67/67/67
f 67/67/67 65/65/65 68/68/68
f 67/67/67 68/68/68 69/69/69
f 70/70/70 67/67/67 69/69/69
f 54/54/54 56/56/56 71/71/71
f 72/72/72 54/54/54 71/71/71
f 72/72/72 71/71/71 73/73/73
f 74/74/74 73/73/73 71/71/71
f 77/77/77 76/76/76 75/75/75
f 78/78/78 77/77/77 75/75/75
f 77/77/77 79/79/79 76/76/76
f 79/79/79 80/80/80 76/76/76
f 79/79/79 81/81/81 80/80/80
f 81/81/81 82/82/82 80/80/80
f 81/81/81 83/83/83 82/82/82
f 83/83/83 84/84/84 82/82/82
f 83/83/83 85/85/85 84/84/84
f 85/85/85 86/86/86 84/84/84
f 85/85/85 87/87/87 86/86/86
f 87/87/87 88/88/88 86/86/86
f 87/87/87 89/89/89 88/88/88
f 89/89/89 90/90/90 88/88/88
f 89/89/89 91/91/91 90/90/90
f 91/91/91 92/92/92 90/90/90
f 91/91/91 93/93/93 92/92/92
f 93/93/93 94/94/94 92/92/92
f 93/93/93 95/95/95 94/94/94
f 95/95/95 96/96/96 94/94/94
f 99/99/99 98/98/98 97/97/97
f 100/100/100 99/99/99 97/97/97
f 100/100/100 97/97/97 101/101/101
f 102/102/102 100/100/100 101/101/101
f 102/102/102 101/101/101 103/103/103
f 104/104/104 102/102/102 103/103/103
f 104/104/104 103/103/103 105/105/105
f 106/106/106 104/104/104 105/105/105
f 106/106/106 105/105/105 107/107/107
f 108/108/108 106/106/106 107/107/107
f 108/108/108 107/107/107 109/109/109
f 110/110/110 108/108/108 109/109/109
f 110/110/110 109/109/109 111/111/111
f 112/112/112 110/110/110 111/111/111
f 112/112/112 111/111/111 113/113/113
f 114/114/114 112/112/112 113/113/113
f 117/117/117 116/116/116 115/115/115
f 118/118/118 117/117/117 115/115/115
f 121/121/121 120/120/120 119/119/119
f 122/122/122 121/121/121 119/119/119
f 122/122/122 119/119/119 123/123/123
f 124/124/124 122/122/122 123/123/123
f 124/124/124 123/123/123 125/125/125
f 126/126/126 124/124/124 125/125/125
f 126/126/126 125/125/125 127/127/127
f 128/128/128 126/126/126 127/127/127
f 128/128/128 127/127/127 129/129/129
f 130/130/130 128/128/128 129/129/129
f 130/130/130 129/129/129 131/131/131
f 132/132/132 130/130/130 131/131/131
f 132/132/132 131/131/131 133/133/133
f 134/134/134 132/132/132 133/133/133
f 137/137/137 136/136/136 135/135/135
f 138/138/138 137/137/137 135/135/135
f 141/141/141 140/140/140 139/139/139
f 142/142/142 141/141/141 139/139/139
f 145/145/145 144/144/144 143/143/143
f 146/146/146 145/145/145 143/143/143
f 146/146/146 143/143/143 147/147/147
f 148/148/148 146/146/146 147/147/147
f 148/148/148 147/147/147 149/149/149
f 150/150/150 148/148/148 149/149/149
f 150/150/150 149/149/149 151/151/151
f 152/152/152 150/150/150 151/151/151
f 152/152/152 151/151/151 153/153/153
f 154/154/154 152/152/152 153/153/153
f 154/154/154 153/153/153 155/155/155
f 156/156/156 154/154/154 155/155/155
f 156/156/156 155/155/155 157/157/157
f 158/158/158 156/156/156 157/157/157
f 158/158/158 157/157/157 159/159/159
f 160/160/160 158/158/158 159/159/159
f 160/160/160 159/159/159 161/161/161
f 162/162/162 160/160/160 161/161/161
