g merge2d_element_number_1
v -0.3066086 -0.272541 -0.1220327
v -0.3066086 -0.4428791 -0.1220327
v -0.1022029 -0.272541 -0.1220327
v 0.3066086 -0.4428791 -0.1220327
v 0.1362705 -0.272541 -0.1220327
v -0.1022029 0.1703382 -0.1220327
v 0.3066086 -0.272541 -0.1220327
v 0.1362705 0.4428791 -0.1220327
v -0.1018329 0.369058 -0.1220327
v -0.07771643 0.4428791 -0.1220327
v -0.1533053 0.328939 -0.1220327
v -0.2299562 0.3110881 -0.1220327
v -0.3066086 0.3066084 -0.1220327
v -0.3066086 0.1703382 -0.1220327
v -0.3066086 -0.272541 0.1220327
v -0.1022029 -0.272541 0.1220327
v -0.3066086 -0.4428791 0.1220327
v 0.3066086 -0.4428791 0.1220327
v 0.1362705 -0.272541 0.1220327
v -0.1022029 0.1703382 0.1220327
v 0.3066086 -0.272541 0.1220327
v 0.1362705 0.4428791 0.1220327
v -0.1018329 0.369058 0.1220327
v -0.07771643 0.4428791 0.1220327
v -0.1533053 0.328939 0.1220327
v -0.2299562 0.3110881 0.1220327
v -0.3066086 0.3066084 0.1220327
v -0.3066086 0.1703382 0.1220327
v -0.3066086 -0.272541 0.1220327
v -0.3066086 -0.4428791 0.1220327
v -0.3066086 -0.4428791 -0.1220327
v -0.3066086 -0.272541 -0.1220327
v -0.1022029 -0.272541 0.1220327
v -0.3066086 -0.272541 0.1220327
v -0.3066086 -0.272541 -0.1220327
v -0.1022029 -0.272541 -0.1220327
v -0.3066086 -0.4428791 0.1220327
v 0.3066086 -0.4428791 0.1220327
v 0.3066086 -0.4428791 -0.1220327
v -0.3066086 -0.4428791 -0.1220327
v -0.1022029 0.1703382 0.1220327
v -0.1022029 -0.272541 0.1220327
v -0.1022029 -0.272541 -0.1220327
v -0.1022029 0.1703382 -0.1220327
v 0.3066086 -0.4428791 0.1220327
v 0.3066086 -0.272541 0.1220327
v 0.3066086 -0.272541 -0.1220327
v 0.3066086 -0.4428791 -0.1220327
v 0.3066086 -0.272541 0.1220327
v 0.1362705 -0.272541 0.1220327
v 0.1362705 -0.272541 -0.1220327
v 0.3066086 -0.272541 -0.1220327
v -0.07771643 0.4428791 0.1220327
v -0.1018329 0.369058 0.1220327
v -0.1018329 0.369058 -0.1220327
v -0.07771643 0.4428791 -0.1220327
v 0.1362705 0.4428791 0.1220327
v -0.07771643 0.4428791 0.1220327
v -0.07771643 0.4428791 -0.1220327
v 0.1362705 0.4428791 -0.1220327
v -0.1533053 0.328939 0.1220327
v -0.2299562 0.3110881 0.1220327
v -0.2299562 0.3110881 -0.1220327
v -0.1533053 0.328939 -0.1220327
v -0.3066086 0.3066084 0.1220327
v -0.3066086 0.1703382 0.1220327
v -0.3066086 0.1703382 -0.1220327
v -0.3066086 0.3066084 -0.1220327
v -0.3066086 0.1703382 0.1220327
v -0.1022029 0.1703382 0.1220327
v -0.1022029 0.1703382 -0.1220327
v -0.3066086 0.1703382 -0.1220327
v -0.2299562 0.3110881 0.1220327
v -0.3066086 0.3066084 0.1220327
v -0.3066086 0.3066084 -0.1220327
v -0.2299562 0.3110881 -0.1220327
v -0.1018329 0.369058 0.1220327
v -0.1533053 0.328939 0.1220327
v -0.1533053 0.328939 -0.1220327
v -0.1018329 0.369058 -0.1220327
v 0.1362705 -0.272541 0.1220327
v 0.1362705 0.4428791 0.1220327
v 0.1362705 0.4428791 -0.1220327
v 0.1362705 -0.272541 -0.1220327
vt 0.17459 0.8276601
vt 0.17459 0.7896445
vt 0.1289717 0.8276601
vt 0.03773438 0.7896445
vt 0.07574999 0.8276601
vt 0.1289717 0.9265009
vt 0.03773438 0.827661
vt 0.07574999 0.987326
vt 0.1288892 0.9708506
vt 0.1235069 0.987326
vt 0.1403769 0.9618971
vt 0.157483 0.9579129
vt 0.17459 0.956913
vt 0.17459 0.9265009
vt 0.1882756 0.8276601
vt 0.2338939 0.8276601
vt 0.1882756 0.7896445
vt 0.3251312 0.7896445
vt 0.2871156 0.8276601
vt 0.2338939 0.9265009
vt 0.3251312 0.827661
vt 0.2871156 0.987326
vt 0.2339765 0.9708506
vt 0.2393587 0.987326
vt 0.2224888 0.9618971
vt 0.2053826 0.9579129
vt 0.1882756 0.956913
vt 0.1882756 0.9265009
vt 0.5711271 0.7971585
vt 0.5331144 0.7969996
vt 0.5328811 0.8514686
vt 0.570899 0.8516278
vt 0.3804465 0.7303555
vt 0.3348304 0.7301874
vt 0.3346285 0.7846566
vt 0.3802499 0.7848254
vt 0.5331144 0.7969996
vt 0.3962654 0.796401
vt 0.3960202 0.8508701
vt 0.5328811 0.8514686
vt 0.4792849 0.7307065
vt 0.3804465 0.7303555
vt 0.3802499 0.7848254
vt 0.4790922 0.7851758
vt 0.3962654 0.796401
vt 0.3582543 0.7962247
vt 0.3580015 0.8506939
vt 0.3960202 0.8508701
vt 0.5630923 0.8656421
vt 0.5250812 0.8654116
vt 0.5247428 0.91988
vt 0.5627614 0.9201111
vt 0.5114684 0.9323608
vt 0.4941258 0.9323437
vt 0.494086 0.9868137
vt 0.5114046 0.9868308
vt 0.5592305 0.9324262
vt 0.5114684 0.9323608
vt 0.5114046 0.9868308
vt 0.5591555 0.9868962
vt 0.4795513 0.9323354
vt 0.4619763 0.9323347
vt 0.4619853 0.9868048
vt 0.4795356 0.9868054
vt 0.4448289 0.9323422
vt 0.4144061 0.9323678
vt 0.4144632 0.9868377
vt 0.4448626 0.9868122
vt 0.4144061 0.9323678
vt 0.3687817 0.9324255
vt 0.36885 0.9868954
vt 0.4144632 0.9868377
vt 0.4619763 0.9323347
vt 0.4448289 0.9323422
vt 0.4448626 0.9868122
vt 0.4619853 0.9868048
vt 0.4941258 0.9323437
vt 0.4795513 0.9323354
vt 0.4795356 0.9868054
vt 0.494086 0.9868137
vt 0.5250812 0.8654116
vt 0.3654227 0.8643967
vt 0.365076 0.9188652
vt 0.5247428 0.91988
vn 0 0 -1
vn 0 0 -1
vn 0 0 -1
vn 0 0 -1
vn 0 0 -1
vn 0 0 -1
vn 0 0 -1
vn 0 0 -1
vn 0 0 -1
vn 0 0 -1
vn -2.335092E-07 0 -1
vn -2.335092E-07 0 -1
vn 0 0 -1
vn 0 0 -1
vn 0 0 1
vn 0 0 1
vn 0 0 1
vn 0 0 1
vn 0 0 1
vn 0 0 1
vn 0 0 1
vn 0 0 1
vn 0 0 1
vn 0 0 1
vn 0 0 1
vn 0 0 1
vn 0 0 1
vn 0 0 1
vn -1 0 0
vn -1 0 0
vn -1 0 0
vn -1 0 0
vn 0 1 0
vn 0 1 0
vn 0 1 0
vn 0 1 0
vn 0 -1 0
vn 0 -1 0
vn 0 -1 0
vn 0 -1 0
vn -1 0 0
vn -1 0 0
vn -1 0 0
vn -1 0 0
vn 1 0 0
vn 1 0 0
vn 1 0 0
vn 1 0 0
vn 0 1 0
vn 0 1 0
vn 0 1 0
vn 0 1 0
vn -0.9505612 0.3105372 0
vn -0.9505612 0.3105372 0
vn -0.9505612 0.3105372 0
vn -0.9505612 0.3105372 0
vn 0 1 0
vn 0 1 0
vn 0 1 0
vn 0 1 0
vn -0.2268155 0.9739377 0
vn -0.2268155 0.9739377 0
vn -0.2268155 0.9739377 0
vn -0.2268155 0.9739377 0
vn -1 0 0
vn -1 0 0
vn -1 0 0
vn -1 0 0
vn 0 -1 0
vn 0 -1 0
vn 0 -1 0
vn 0 -1 0
vn -0.05834306 0.9982966 0
vn -0.05834306 0.9982966 0
vn -0.05834306 0.9982966 0
vn -0.05834306 0.9982966 0
vn -0.6147515 0.7887208 0
vn -0.6147515 0.7887208 0
vn -0.6147515 0.7887208 0
vn -0.6147515 0.7887208 0
vn 1 0 0
vn 1 0 0
vn 1 0 0
vn 1 0 0
g merge2d_element_number_1_0
f 3/3/3 2/2/2 1/1/1
f 3/3/3 4/4/4 2/2/2
f 3/3/3 5/5/5 4/4/4
f 5/5/5 3/3/3 6/6/6
f 7/7/7 4/4/4 5/5/5
f 5/5/5 6/6/6 8/8/8
f 6/6/6 9/9/9 8/8/8
f 8/8/8 9/9/9 10/10/10
f 6/6/6 11/11/11 9/9/9
f 12/12/12 11/11/11 6/6/6
f 12/12/12 6/6/6 13/13/13
f 6/6/6 14/14/14 13/13/13
f 17/17/17 16/16/16 15/15/15
f 18/18/18 16/16/16 17/17/17
f 19/19/19 16/16/16 18/18/18
f 16/16/16 19/19/19 20/20/20
f 18/18/18 21/21/21 19/19/19
f 20/20/20 19/19/19 22/22/22
f 23/23/23 20/20/20 22/22/22
f 23/23/23 22/22/22 24/24/24
f 25/25/25 20/20/20 23/23/23
f 25/25/25 26/26/26 20/20/20
f 20/20/20 26/26/26 27/27/27
f 28/28/28 20/20/20 27/27/27
f 31/31/31 30/30/30 29/29/29
f 32/32/32 31/31/31 29/29/29
f 35/35/35 34/34/34 33/33/33
f 36/36/36 35/35/35 33/33/33
f 39/39/39 38/38/38 37/37/37
f 40/40/40 39/39/39 37/37/37
f 43/43/43 42/42/42 41/41/41
f 44/44/44 43/43/43 41/41/41
f 47/47/47 46/46/46 45/45/45
f 48/48/48 47/47/47 45/45/45
f 51/51/51 50/50/50 49/49/49
f 52/52/52 51/51/51 49/49/49
f 55/55/55 54/54/54 53/53/53
f 56/56/56 55/55/55 53/53/53
f 59/59/59 58/58/58 57/57/57
f 60/60/60 59/59/59 57/57/57
f 63/63/63 62/62/62 61/61/61
f 64/64/64 63/63/63 61/61/61
f 67/67/67 66/66/66 65/65/65
f 68/68/68 67/67/67 65/65/65
f 71/71/71 70/70/70 69/69/69
f 72/72/72 71/71/71 69/69/69
f 75/75/75 74/74/74 73/73/73
f 76/76/76 75/75/75 73/73/73
f 79/79/79 78/78/78 77/77/77
f 80/80/80 79/79/79 77/77/77
f 83/83/83 82/82/82 81/81/81
f 84/84/84 83/83/83 81/81/81
