g merge3d_element_food_7
v -0.360472 0.03085826 -0.3724717
v -0.298695 0.03191216 -0.4177362
v -0.2354384 0.06816276 -0.2471194
v -0.4052801 0.03008511 -0.3109321
v -0.08711414 0.03011632 -0.3115845
v -0.08707167 0.03374924 -0.5239793
v 0.1268527 0.1172859 -0.3090825
v 0.126559 0.03402108 -0.5243936
v 0.2755514 0.02917595 -0.2465152
v 0.339797 0.03195809 -0.4170997
v 0.4430872 0.03009453 -0.3103367
v 0.3981195 0.03114342 -0.370427
v -0.2991588 0.02661316 -0.09774564
v -0.5098291 0.05159348 -0.09719563
v -0.08664367 0.1136038 -0.09581757
v 0.1264789 0.02719731 -0.09746235
v 0.3378435 0.02652784 -0.09872225
v 0.5498838 0.05847586 -0.09872941
v -0.2983835 0.02375582 0.1132606
v -0.5111746 0.02284316 0.113323
v -0.08583964 0.02323837 0.1134671
v 0.1251399 0.02270391 0.1130719
v 0.338045 0.1102611 0.1152147
v 0.5516132 0.02279248 0.1149753
v -0.2350468 0.1072627 0.2641644
v -0.4078477 0.01868673 0.3270365
v -0.08610541 0.01956728 0.3254994
v 0.1255072 0.1065882 0.3277223
v 0.2757423 0.02007553 0.2636521
v 0.4447992 0.01895762 0.3276968
v -0.2994558 0.01679503 0.4354119
v -0.3628169 0.01635818 0.3903667
v -0.08663699 0.01507915 0.5404372
v 0.126559 0.01544231 0.539983
v 0.339797 0.01712509 0.4326825
v 0.3981195 0.01793976 0.3860098
v 0.597811 0.06296896 0.1509404
v 0.5986137 0.05319668 -0.06199464
v 0.6037428 -0.01990225 -0.06389379
v 0.6029329 -0.03069914 0.1505676
v 0.5386076 0.0788333 -0.05425994
v 0.5378879 0.09537704 0.1367339
v 0.5062948 0.03462594 0.1278851
v 0.5069708 0.03081026 -0.05125597
v 0.5134568 -0.05868853 0.1280216
v 0.5141421 -0.04264798 -0.0534092
v 0.5529506 -0.06808358 -0.05856641
v 0.5522103 -0.09125251 0.137007
v 0.5141421 -0.04264798 -0.0534092
v 0.5134568 -0.05868853 0.1280216
v 0.4996599 0.04619008 0.3394137
v 0.5039133 -0.02697097 0.3410727
v 0.4499134 0.07255313 0.3055307
v 0.4236857 0.02491309 0.2865928
v 0.4296309 -0.04863196 0.2894131
v 0.4618041 -0.07453739 0.311172
v 0.4296309 -0.04863196 0.2894131
v 0.3579922 0.05690536 0.498324
v 0.3609886 -0.0368165 0.5010307
v 0.3229333 0.0899421 0.4481017
v 0.3044498 0.02952243 0.4202646
v 0.3086393 -0.06386717 0.4247054
v 0.331313 -0.09683771 0.4569839
v 0.3086393 -0.06386717 0.4247054
v 0.1593698 0.04209074 0.574264
v 0.1606061 -0.03110662 0.5780039
v 0.1449034 0.06887881 0.5160323
v 0.1372765 0.02146286 0.4842564
v 0.139006 -0.052133 0.4899872
v 0.1483614 -0.07831329 0.5274934
v 0.139006 -0.052133 0.4899872
v -0.05190808 0.05514212 0.5993401
v -0.05254381 -0.03859537 0.6029422
v -0.04446876 0.08836167 0.5386446
v -0.04054713 0.02803839 0.5052851
v -0.0414359 -0.06537306 0.5109777
v -0.04624712 -0.09846184 0.5500297
v -0.0414359 -0.06537306 0.5109777
v -0.2511005 0.04296057 0.5244316
v -0.2535018 -0.03022909 0.5277302
v -0.2230091 0.06965846 0.4713662
v -0.2081988 0.02219495 0.4423148
v -0.2115565 -0.05139012 0.447428
v -0.2297239 -0.07751209 0.4815921
v -0.2115565 -0.05139012 0.447428
v -0.4257189 0.05856613 0.4031788
v -0.4296679 -0.03514102 0.4050425
v -0.3795235 0.09143068 0.3628209
v -0.3551683 0.03092023 0.3401846
v -0.3606888 -0.06244878 0.3434463
v -0.3905652 -0.09530797 0.3693451
v -0.3606888 -0.06244878 0.3434463
v -0.5252914 0.04836206 0.214981
v -0.5301227 -0.02477974 0.2155372
v -0.4687725 0.07449993 0.1939989
v -0.4389742 0.02674116 0.1818629
v -0.4457288 -0.04677699 0.1831417
v -0.4822816 -0.07253677 0.1965567
v -0.4457288 -0.04677699 0.1831417
v -0.5754225 0.06545518 0.008505531
v -0.5806977 -0.02819091 0.006870932
v -0.5137058 0.0976055 0.009066716
v -0.4811669 0.03671847 0.00800393
v -0.4885431 -0.0565652 0.006375657
v -0.528457 -0.08896245 0.005810161
v -0.4885431 -0.0565652 0.006375657
v -0.5252914 0.05557836 -0.1984407
v -0.5301227 -0.01749948 -0.2015485
v -0.4687725 0.08096804 -0.1765593
v -0.4389742 0.03281483 -0.1660973
v -0.4457288 -0.0406139 -0.1699412
v -0.4822816 -0.06588983 -0.1842469
v -0.4457288 -0.0406139 -0.1699412
v -0.4257189 0.07234422 -0.3861677
v -0.4296679 -0.0212408 -0.3913008
v -0.3795235 0.1037803 -0.3446875
v -0.3551683 0.0425167 -0.3241767
v -0.3606888 -0.05068161 -0.3306951
v -0.3905652 -0.08261693 -0.3577248
v -0.3606888 -0.05068161 -0.3306951
v -0.2511005 0.06097983 -0.5078907
v -0.2535018 -0.01205012 -0.5137421
v -0.2230091 0.08580951 -0.4539266
v -0.2081988 0.03736103 -0.4265493
v -0.2115565 -0.03600076 -0.4342281
v -0.2297239 -0.0609145 -0.4692831
v -0.2115565 -0.03600076 -0.4342281
v -0.02767218 0.07562982 -0.5743999
v -0.02816916 -0.0179246 -0.5812857
v -0.02185264 0.1067078 -0.5124063
v -0.0187852 0.04525547 -0.4810809
v -0.0194806 -0.04790004 -0.4900507
v -0.02324386 -0.07960378 -0.5303476
v -0.0194806 -0.04790004 -0.4900507
v 0.2309263 0.07516888 -0.5479919
v 0.2327974 -0.01839111 -0.554559
v 0.2090423 0.1063121 -0.489734
v 0.1975039 0.0448941 -0.4603776
v 0.2001193 -0.04826921 -0.4689012
v 0.214273 -0.08001511 -0.5067821
v 0.2001193 -0.04826921 -0.4689012
v 0.4064583 0.0595864 -0.4280611
v 0.4098844 -0.01345592 -0.4332041
v 0.3663747 0.08456053 -0.3823729
v 0.345241 0.03618823 -0.3593594
v 0.3500304 -0.03719082 -0.3660495
v 0.3759547 -0.062198 -0.395751
v 0.3500304 -0.03719082 -0.3660495
v 0.5469238 0.0702831 -0.2680857
v 0.551595 -0.0233202 -0.2721717
v 0.4922762 0.1019328 -0.2388475
v 0.4634656 0.04078193 -0.2247915
v 0.4699965 -0.05244191 -0.2298473
v 0.5053389 -0.08451544 -0.2489591
v 0.4699965 -0.05244191 -0.2298473
v 0.02575163 -0.05211814 -0.001995447
v 0.5302736 -0.05532295 0.1816077
v 0.5544956 -0.05049103 -0.09521288
v 0.3708643 -0.05929615 0.4092321
v 0.1189828 -0.06134599 0.526668
v -0.1578788 -0.06092326 0.5024489
v -0.3855378 -0.05814121 0.3430654
v -0.5029923 -0.05374527 0.0912227
v -0.4787696 -0.04891335 -0.1855979
v -0.3193611 -0.04494015 -0.4132223
v -0.06747991 -0.0428903 -0.5306588
v 0.2093829 -0.04331304 -0.5064396
v 0.4370413 -0.04609509 -0.3470556
vt 0.6897814 0.225951
vt 0.6998999 0.2123063
vt 0.6619263 0.1980492
vt 0.6760945 0.2357024
vt 0.6773633 0.1662312
vt 0.723588 0.1656142
vt 0.675328 0.1189432
vt 0.7236934 0.117737
vt 0.661674 0.08383453
vt 0.699215 0.0707345
vt 0.6756225 0.04737073
vt 0.688994 0.05751055
vt 0.6290636 0.212608
vt 0.6292273 0.258627
vt 0.6298441 0.1645513
vt 0.628171 0.1171063
vt 0.6292599 0.07077652
vt 0.6282432 0.02421993
vt 0.5828295 0.2117878
vt 0.5825889 0.2586177
vt 0.5815513 0.1649246
vt 0.5825025 0.1183864
vt 0.5812755 0.07068062
vt 0.5810139 0.02245575
vt 0.5483544 0.1985471
vt 0.5341885 0.2383365
vt 0.534927 0.1645347
vt 0.5351771 0.1166741
vt 0.5468262 0.08236003
vt 0.5335832 0.04549444
vt 0.5084601 0.2127038
vt 0.5186861 0.2281875
vt 0.4876553 0.1642777
vt 0.4866271 0.1168541
vt 0.509874 0.06917334
vt 0.5203007 0.0558908
vt 0.3153112 0.2229723
vt 0.2839767 0.2080057
vt 0.2784791 0.2146338
vt 0.3119597 0.2330734
vt 0.2891636 0.201685
vt 0.3177073 0.2157017
vt 0.3203847 0.2072973
vt 0.2936625 0.1961092
vt 0.324478 0.1935757
vt 0.3001466 0.1878888
vt 0.2734191 0.2206905
vt 0.3092494 0.2410871
vt 0.2694964 0.2253999
vt 0.3073549 0.2466872
vt 0.3495665 0.22872
vt 0.3498857 0.237793
vt 0.349245 0.2201071
vt 0.348938 0.2125083
vt 0.3484569 0.2017058
vt 0.3501639 0.246069
vt 0.3503774 0.2523446
vt 0.3832608 0.2201419
vt 0.3873429 0.2301283
vt 0.3803174 0.2129529
vt 0.376961 0.2047116
vt 0.3716438 0.1913843
vt 0.3906024 0.2380812
vt 0.3928703 0.2436136
vt 0.4134283 0.2028224
vt 0.4194953 0.2094106
vt 0.4076928 0.1965781
vt 0.402678 0.1910995
vt 0.3955221 0.1832125
vt 0.4250505 0.2154326
vt 0.4292877 0.220029
vt 0.4334533 0.1743983
vt 0.442976 0.1792222
vt 0.4266114 0.1709253
vt 0.4187522 0.1669036
vt 0.4060242 0.1603467
vt 0.4505589 0.183044
vt 0.4558553 0.1857165
vt 0.4448338 0.1415739
vt 0.4536327 0.1425098
vt 0.4364851 0.1406605
vt 0.4291451 0.1398305
vt 0.4185702 0.1385629
vt 0.4616761 0.1433538
vt 0.4678454 0.1440032
vt 0.4412012 0.1070582
vt 0.4513302 0.1043701
vt 0.4339392 0.1089787
vt 0.425509 0.1111492
vt 0.4116275 0.1144694
vt 0.4593596 0.1022047
vt 0.4650047 0.1006818
vt 0.4278412 0.07501698
vt 0.4346653 0.06997073
vt 0.4213865 0.0797888
vt 0.4157968 0.08392501
vt 0.4075487 0.09003389
vt 0.4409392 0.06532747
vt 0.445841 0.06169993
vt 0.4011099 0.05287701
vt 0.4066405 0.04398113
vt 0.3971351 0.05925852
vt 0.3925821 0.06669056
vt 0.3853811 0.07901603
vt 0.4110477 0.03693974
vt 0.4141455 0.03198904
vt 0.369159 0.03938466
vt 0.3708363 0.03067809
vt 0.3675542 0.04766941
vt 0.3661463 0.05498332
vt 0.3642151 0.06551671
vt 0.3723507 0.02273721
vt 0.3735054 0.01664913
vt 0.334494 0.04054296
vt 0.3326602 0.03007025
vt 0.3357527 0.04807734
vt 0.337213 0.05674762
vt 0.3395088 0.07087719
vt 0.3311148 0.02179605
vt 0.3300328 0.01601362
vt 0.3014387 0.0508576
vt 0.2969551 0.04345846
vt 0.3054621 0.05803776
vt 0.3091137 0.0642457
vt 0.3145523 0.07312936
vt 0.2926521 0.03687203
vt 0.2893078 0.03175992
vt 0.2741137 0.07713896
vt 0.2655873 0.07056981
vt 0.2801704 0.08218676
vt 0.2860899 0.0873667
vt 0.2957795 0.0952971
vt 0.2586417 0.06573027
vt 0.2538927 0.06194144
vt 0.2545891 0.1140821
vt 0.2445799 0.1112326
vt 0.2620485 0.1158082
vt 0.2700312 0.1183556
vt 0.2816203 0.123169
vt 0.2369325 0.1085932
vt 0.2312679 0.1070876
vt 0.2501385 0.1483184
vt 0.2419283 0.1492282
vt 0.2578671 0.1474083
vt 0.2644553 0.1467242
vt 0.274369 0.1456841
vt 0.2343745 0.1499905
vt 0.2284031 0.15064
vt 0.2626824 0.1806373
vt 0.2536424 0.1855985
vt 0.2691317 0.1770845
vt 0.2766176 0.1728718
vt 0.2888753 0.1656274
vt 0.246464 0.1894742
vt 0.2413919 0.1922231
vt 0.3496934 0.1330377
vt 0.3308506 0.1848072
vt 0.3592605 0.1872931
vt 0.3074896 0.1684501
vt 0.295438 0.1426047
vt 0.2979238 0.1141949
vt 0.314281 0.0908339
vt 0.3401264 0.07878226
vt 0.3685365 0.08126795
vt 0.3918962 0.09762526
vt 0.4039489 0.1234706
vt 0.4014633 0.1518804
vt 0.385106 0.1752402
vn -0.154314 0.9784411 -0.1372598
vn 0.009210404 0.9945533 -0.1038208
vn -0.06429935 0.9949297 -0.07733271
vn -0.06631065 0.9977953 -0.002719253
vn -0.06633162 0.9929217 -0.09852292
vn -0.1074024 0.9828183 -0.1501096
vn 0.06255461 0.9962115 -0.06041155
vn -0.006887783 0.9850874 -0.1719172
vn 0.1423176 0.9894475 0.02719149
vn 0.2465195 0.9622348 -0.1154656
vn -0.07151324 0.9972609 -0.01888118
vn 0.0008059402 0.9998606 0.01667291
vn -0.07600571 0.9943811 0.07368368
vn 0.020747 0.9979463 0.06060191
vn -0.03100544 0.9948512 0.09648751
vn 0.03880636 0.997675 0.05602456
vn -0.01721649 0.9980773 -0.05954371
vn 0.04975163 0.9953905 -0.08199034
vn -0.06836439 0.9975954 0.01138558
vn -0.05849691 0.9982594 0.007504181
vn 0.0006567495 0.9998474 0.01745919
vn -0.05569224 0.9977215 -0.03808169
vn 0.02849996 0.9995126 0.01274575
vn 0.1455108 0.9874494 0.06140231
vn 0.04461619 0.9986713 -0.02578714
vn -0.2623627 0.9649633 0.003444444
vn -0.03510288 0.9983712 0.04497464
vn -0.02588019 0.9973887 0.06742438
vn 0.1497431 0.9745824 0.1666315
vn 0.1324204 0.9556624 0.2630099
vn 0.01580348 0.9604132 0.2781307
vn -0.3115575 0.8921251 0.3271768
vn -0.08115178 0.9691881 0.2325699
vn -0.006994906 0.9782637 0.2072467
vn 0.2464343 0.9576009 0.149234
vn 0 0.9998477 0.0174524
vn 0.8528563 0.4742204 0.2185202
vn 0.8849366 0.4549523 -0.09952667
vn 0.9503672 -0.2868813 -0.1204214
vn 0.925039 -0.3077727 0.2226631
vn -0.1755763 0.983713 0.03849302
vn -0.1314925 0.9912019 -0.0151138
vn -0.9515685 0.202829 -0.2310365
vn -0.9766738 0.1769132 0.1216964
vn -0.8752161 -0.4291371 -0.2232449
vn -0.9129601 -0.3945771 0.1039836
vn 0.3589022 -0.9314548 -0.05984323
vn 0.3537964 -0.9326286 0.07093696
vn -0.9129601 -0.3945771 0.1039836
vn -0.8752161 -0.4291371 -0.2232449
vn 0.7336362 0.4442415 0.5142252
vn 0.7878812 -0.2983866 0.5387101
vn -0.1455608 0.985838 -0.08327956
vn -0.8096907 0.1887383 -0.5556789
vn -0.7568712 -0.3835224 -0.5292038
vn 0.2975379 -0.9358007 0.189072
vn -0.7568712 -0.3835224 -0.5292038
vn 0.4989777 0.4652734 0.7311238
vn 0.5412085 -0.3174758 0.7786542
vn -0.07693255 0.9925812 -0.09414807
vn -0.5567309 0.2128133 -0.8029703
vn -0.5120592 -0.4199555 -0.7492881
vn 0.2069944 -0.9363402 0.2835848
vn -0.5120592 -0.4199555 -0.7492881
vn 0.2133354 0.4379708 0.8733096
vn 0.2291086 -0.3051177 0.9243444
vn -0.04232623 0.9870819 -0.1545241
vn -0.2354485 0.1956574 -0.9519886
vn -0.2200898 -0.3770595 -0.8996592
vn 0.08652174 -0.9383425 0.334705
vn -0.2200898 -0.3770595 -0.8996592
vn -0.1058771 0.4626718 0.8801846
vn -0.1148374 -0.3202996 0.94033
vn 0.01632377 0.9929825 -0.1171287
vn 0.1181317 0.215717 -0.9692839
vn 0.1086522 -0.4172863 -0.9022566
vn -0.04392194 -0.9374199 0.3454196
vn 0.1086522 -0.4172863 -0.9022566
vn -0.4142706 0.439304 0.7971147
vn -0.4449013 -0.3036905 0.8425171
vn 0.08219394 0.986818 -0.139407
vn 0.4572161 0.1941879 -0.8678966
vn 0.4273903 -0.3784295 -0.8210533
vn -0.1680132 -0.9378037 0.3038024
vn 0.4273903 -0.3784295 -0.8210533
vn -0.6574766 0.4677264 0.5907255
vn -0.7131235 -0.3148192 0.6263735
vn 0.1013703 0.9922035 -0.07250062
vn 0.7335758 0.2100785 -0.6463231
vn 0.6747152 -0.4224693 -0.6052099
vn -0.2727453 -0.935324 0.2253418
vn 0.6747152 -0.4224693 -0.6052099
vn -0.8335063 0.4475618 0.3239688
vn -0.8951344 -0.2948221 0.3343866
vn 0.165374 0.9851794 -0.04553035
vn 0.9199125 0.1850739 -0.3457004
vn 0.8599022 -0.3869502 -0.3329231
vn -0.3380412 -0.934454 0.1119105
vn 0.8599022 -0.3869502 -0.3329231
vn -0.8783807 0.4778888 0.008341605
vn -0.9527225 -0.3037954 -0.005302765
vn 0.135427 0.9906364 0.01729165
vn 0.9800467 0.1987371 0.00346897
vn 0.9014089 -0.4329031 -0.007556325
vn -0.3643846 -0.9311066 -0.01625257
vn 0.9014089 -0.4329031 -0.007556325
vn -0.8335065 0.4585948 -0.3081522
vn -0.8951346 -0.2829727 -0.3444715
vn 0.1653739 0.9829903 0.07988505
vn 0.9199125 0.1728964 0.3519486
vn 0.8599023 -0.3983332 0.3192159
vn -0.3380414 -0.929979 -0.1444546
vn 0.8599023 -0.3983332 0.3192159
vn -0.6574768 0.4880566 -0.5740425
vn -0.7131239 -0.2927656 -0.6369793
vn 0.1013709 0.9890687 0.1070841
vn 0.7335763 0.187393 0.6532608
vn 0.6747152 -0.4433345 0.5900965
vn -0.272746 -0.9268898 -0.2578467
vn 0.6747152 -0.4433345 0.5900965
vn -0.3819037 0.4635497 -0.7995444
vn -0.4101207 -0.2721154 -0.8704908
vn 0.06838705 0.9842752 0.1628672
vn 0.4150003 0.1663268 0.8944887
vn 0.3871624 -0.4137345 0.8239715
vn -0.157548 -0.9221382 -0.3533269
vn 0.3871624 -0.4137345 0.8239715
vn -0.07702184 0.464019 -0.8824704
vn -0.07770257 -0.2663701 -0.9607337
vn -0.02237312 0.9824468 0.1851963
vn 0.06370324 0.1633984 0.9845013
vn 0.0517975 -0.4129267 0.9092901
vn -0.05355336 -0.9189222 -0.3907864
vn 0.0517975 -0.4129267 0.9092901
vn 0.2864268 0.4580286 -0.841528
vn 0.3025678 -0.2653906 -0.9154346
vn -0.008441921 0.9866067 0.162898
vn -0.2903675 0.1684471 0.9419726
vn -0.2616183 -0.4222099 0.8679255
vn 0.1450118 -0.9122794 -0.3830379
vn -0.2616183 -0.4222099 0.8679255
vn 0.5911315 0.4647222 -0.6592395
vn 0.6348389 -0.2763888 -0.7215185
vn -0.1172852 0.9817744 0.1495425
vn -0.6524127 0.1661306 0.7394311
vn -0.60985 -0.4046562 0.6814224
vn 0.2397418 -0.9274934 -0.2868447
vn -0.60985 -0.4046562 0.6814224
vn 0.7777672 0.4850138 -0.3997995
vn 0.8435946 -0.2960653 -0.4479881
vn -0.1199178 0.9895375 0.08022022
vn -0.8677891 0.1907843 0.45885
vn -0.7981569 -0.440215 0.4112863
vn 0.322647 -0.9281511 -0.1855654
vn -0.7981569 -0.440215 0.4112863
vn 0 -0.9998477 -0.0174524
vn 0 -0.9998477 -0.01745239
vn 0 -0.9998477 -0.01745239
vn 0 -0.9998477 -0.0174524
vn 0 -0.9998477 -0.0174524
vn 0 -0.9998477 -0.01745242
vn 0 -0.9998477 -0.01745243
vn 0 -0.9998477 -0.01745239
vn 0 -0.9998477 -0.01745239
vn 0 -0.9998477 -0.01745242
vn 0 -0.9998477 -0.01745239
vn 0 -0.9998477 -0.0174524
vn 0 -0.9998477 -0.01745241
g merge3d_element_food_7_0
f 3/3/3 2/2/2 1/1/1
f 4/4/4 3/3/3 1/1/1
f 3/3/3 5/5/5 2/2/2
f 5/5/5 6/6/6 2/2/2
f 5/5/5 7/7/7 6/6/6
f 7/7/7 8/8/8 6/6/6
f 7/7/7 9/9/9 8/8/8
f 9/9/9 10/10/10 8/8/8
f 9/9/9 11/11/11 10/10/10
f 11/11/11 12/12/12 10/10/10
f 13/13/13 3/3/3 4/4/4
f 14/14/14 13/13/13 4/4/4
f 15/15/15 5/5/5 3/3/3
f 13/13/13 15/15/15 3/3/3
f 16/16/16 7/7/7 5/5/5
f 15/15/15 16/16/16 5/5/5
f 17/17/17 9/9/9 7/7/7
f 16/16/16 17/17/17 7/7/7
f 18/18/18 11/11/11 9/9/9
f 17/17/17 18/18/18 9/9/9
f 19/19/19 13/13/13 14/14/14
f 20/20/20 19/19/19 14/14/14
f 21/21/21 15/15/15 13/13/13
f 19/19/19 21/21/21 13/13/13
f 22/22/22 16/16/16 15/15/15
f 21/21/21 22/22/22 15/15/15
f 23/23/23 17/17/17 16/16/16
f 22/22/22 23/23/23 16/16/16
f 24/24/24 18/18/18 17/17/17
f 23/23/23 24/24/24 17/17/17
f 25/25/25 19/19/19 20/20/20
f 26/26/26 25/25/25 20/20/20
f 27/27/27 21/21/21 19/19/19
f 25/25/25 27/27/27 19/19/19
f 28/28/28 22/22/22 21/21/21
f 27/27/27 28/28/28 21/21/21
f 29/29/29 23/23/23 22/22/22
f 28/28/28 29/29/29 22/22/22
f 30/30/30 24/24/24 23/23/23
f 29/29/29 30/30/30 23/23/23
f 31/31/31 25/25/25 26/26/26
f 32/32/32 31/31/31 26/26/26
f 33/33/33 27/27/27 25/25/25
f 31/31/31 33/33/33 25/25/25
f 34/34/34 28/28/28 27/27/27
f 33/33/33 34/34/34 27/27/27
f 35/35/35 29/29/29 28/28/28
f 34/34/34 35/35/35 28/28/28
f 36/36/36 30/30/30 29/29/29
f 35/35/35 36/36/36 29/29/29
f 39/39/39 38/38/38 37/37/37
f 40/40/40 39/39/39 37/37/37
f 38/38/38 41/41/41 37/37/37
f 41/41/41 42/42/42 37/37/37
f 43/43/43 42/42/42 41/41/41
f 44/44/44 43/43/43 41/41/41
f 45/45/45 43/43/43 44/44/44
f 46/46/46 45/45/45 44/44/44
f 39/39/39 40/40/40 47/47/47
f 40/40/40 48/48/48 47/47/47
f 47/47/47 48/48/48 49/49/49
f 48/48/48 50/50/50 49/49/49
f 37/37/37 51/51/51 40/40/40
f 51/51/51 52/52/52 40/40/40
f 40/40/40 52/52/52 48/48/48
f 53/53/53 51/51/51 37/37/37
f 42/42/42 53/53/53 37/37/37
f 54/54/54 53/53/53 42/42/42
f 43/43/43 54/54/54 42/42/42
f 55/55/55 54/54/54 43/43/43
f 45/45/45 55/55/55 43/43/43
f 48/48/48 56/56/56 50/50/50
f 52/52/52 56/56/56 48/48/48
f 56/56/56 57/57/57 50/50/50
f 51/51/51 58/58/58 52/52/52
f 58/58/58 59/59/59 52/52/52
f 52/52/52 59/59/59 56/56/56
f 60/60/60 58/58/58 51/51/51
f 53/53/53 60/60/60 51/51/51
f 61/61/61 60/60/60 53/53/53
f 54/54/54 61/61/61 53/53/53
f 62/62/62 61/61/61 54/54/54
f 55/55/55 62/62/62 54/54/54
f 56/56/56 63/63/63 57/57/57
f 59/59/59 63/63/63 56/56/56
f 63/63/63 64/64/64 57/57/57
f 58/58/58 65/65/65 59/59/59
f 65/65/65 66/66/66 59/59/59
f 59/59/59 66/66/66 63/63/63
f 67/67/67 65/65/65 58/58/58
f 60/60/60 67/67/67 58/58/58
f 68/68/68 67/67/67 60/60/60
f 61/61/61 68/68/68 60/60/60
f 69/69/69 68/68/68 61/61/61
f 62/62/62 69/69/69 61/61/61
f 63/63/63 70/70/70 64/64/64
f 66/66/66 70/70/70 63/63/63
f 70/70/70 71/71/71 64/64/64
f 65/65/65 72/72/72 66/66/66
f 72/72/72 73/73/73 66/66/66
f 66/66/66 73/73/73 70/70/70
f 74/74/74 72/72/72 65/65/65
f 67/67/67 74/74/74 65/65/65
f 75/75/75 74/74/74 67/67/67
f 68/68/68 75/75/75 67/67/67
f 76/76/76 75/75/75 68/68/68
f 69/69/69 76/76/76 68/68/68
f 70/70/70 77/77/77 71/71/71
f 73/73/73 77/77/77 70/70/70
f 77/77/77 78/78/78 71/71/71
f 72/72/72 79/79/79 73/73/73
f 79/79/79 80/80/80 73/73/73
f 73/73/73 80/80/80 77/77/77
f 81/81/81 79/79/79 72/72/72
f 74/74/74 81/81/81 72/72/72
f 82/82/82 81/81/81 74/74/74
f 75/75/75 82/82/82 74/74/74
f 83/83/83 82/82/82 75/75/75
f 76/76/76 83/83/83 75/75/75
f 77/77/77 84/84/84 78/78/78
f 80/80/80 84/84/84 77/77/77
f 84/84/84 85/85/85 78/78/78
f 79/79/79 86/86/86 80/80/80
f 86/86/86 87/87/87 80/80/80
f 80/80/80 87/87/87 84/84/84
f 88/88/88 86/86/86 79/79/79
f 81/81/81 88/88/88 79/79/79
f 89/89/89 88/88/88 81/81/81
f 82/82/82 89/89/89 81/81/81
f 90/90/90 89/89/89 82/82/82
f 83/83/83 90/90/90 82/82/82
f 84/84/84 91/91/91 85/85/85
f 87/87/87 91/91/91 84/84/84
f 91/91/91 92/92/92 85/85/85
f 86/86/86 93/93/93 87/87/87
f 93/93/93 94/94/94 87/87/87
f 87/87/87 94/94/94 91/91/91
f 95/95/95 93/93/93 86/86/86
f 88/88/88 95/95/95 86/86/86
f 96/96/96 95/95/95 88/88/88
f 89/89/89 96/96/96 88/88/88
f 97/97/97 96/96/96 89/89/89
f 90/90/90 97/97/97 89/89/89
f 91/91/91 98/98/98 92/92/92
f 94/94/94 98/98/98 91/91/91
f 98/98/98 99/99/99 92/92/92
f 93/93/93 100/100/100 94/94/94
f 100/100/100 101/101/101 94/94/94
f 94/94/94 101/101/101 98/98/98
f 102/102/102 100/100/100 93/93/93
f 95/95/95 102/102/102 93/93/93
f 103/103/103 102/102/102 95/95/95
f 96/96/96 103/103/103 95/95/95
f 104/104/104 103/103/103 96/96/96
f 97/97/97 104/104/104 96/96/96
f 98/98/98 105/105/105 99/99/99
f 101/101/101 105/105/105 98/98/98
f 105/105/105 106/106/106 99/99/99
f 100/100/100 107/107/107 101/101/101
f 107/107/107 108/108/108 101/101/101
f 101/101/101 108/108/108 105/105/105
f 109/109/109 107/107/107 100/100/100
f 102/102/102 109/109/109 100/100/100
f 110/110/110 109/109/109 102/102/102
f 103/103/103 110/110/110 102/102/102
f 111/111/111 110/110/110 103/103/103
f 104/104/104 111/111/111 103/103/103
f 105/105/105 112/112/112 106/106/106
f 108/108/108 112/112/112 105/105/105
f 112/112/112 113/113/113 106/106/106
f 107/107/107 114/114/114 108/108/108
f 114/114/114 115/115/115 108/108/108
f 108/108/108 115/115/115 112/112/112
f 116/116/116 114/114/114 107/107/107
f 109/109/109 116/116/116 107/107/107
f 117/117/117 116/116/116 109/109/109
f 110/110/110 117/117/117 109/109/109
f 118/118/118 117/117/117 110/110/110
f 111/111/111 118/118/118 110/110/110
f 112/112/112 119/119/119 113/113/113
f 115/115/115 119/119/119 112/112/112
f 119/119/119 120/120/120 113/113/113
f 114/114/114 121/121/121 115/115/115
f 121/121/121 122/122/122 115/115/115
f 115/115/115 122/122/122 119/119/119
f 123/123/123 121/121/121 114/114/114
f 116/116/116 123/123/123 114/114/114
f 124/124/124 123/123/123 116/116/116
f 117/117/117 124/124/124 116/116/116
f 125/125/125 124/124/124 117/117/117
f 118/118/118 125/125/125 117/117/117
f 119/119/119 126/126/126 120/120/120
f 122/122/122 126/126/126 119/119/119
f 126/126/126 127/127/127 120/120/120
f 121/121/121 128/128/128 122/122/122
f 128/128/128 129/129/129 122/122/122
f 122/122/122 129/129/129 126/126/126
f 130/130/130 128/128/128 121/121/121
f 123/123/123 130/130/130 121/121/121
f 131/131/131 130/130/130 123/123/123
f 124/124/124 131/131/131 123/123/123
f 132/132/132 131/131/131 124/124/124
f 125/125/125 132/132/132 124/124/124
f 126/126/126 133/133/133 127/127/127
f 129/129/129 133/133/133 126/126/126
f 133/133/133 134/134/134 127/127/127
f 128/128/128 135/135/135 129/129/129
f 135/135/135 136/136/136 129/129/129
f 129/129/129 136/136/136 133/133/133
f 137/137/137 135/135/135 128/128/128
f 130/130/130 137/137/137 128/128/128
f 138/138/138 137/137/137 130/130/130
f 131/131/131 138/138/138 130/130/130
f 139/139/139 138/138/138 131/131/131
f 132/132/132 139/139/139 131/131/131
f 133/133/133 140/140/140 134/134/134
f 136/136/136 140/140/140 133/133/133
f 140/140/140 141/141/141 134/134/134
f 135/135/135 142/142/142 136/136/136
f 142/142/142 143/143/143 136/136/136
f 136/136/136 143/143/143 140/140/140
f 144/144/144 142/142/142 135/135/135
f 137/137/137 144/144/144 135/135/135
f 145/145/145 144/144/144 137/137/137
f 138/138/138 145/145/145 137/137/137
f 146/146/146 145/145/145 138/138/138
f 139/139/139 146/146/146 138/138/138
f 140/140/140 147/147/147 141/141/141
f 143/143/143 147/147/147 140/140/140
f 147/147/147 148/148/148 141/141/141
f 142/142/142 149/149/149 143/143/143
f 149/149/149 150/150/150 143/143/143
f 143/143/143 150/150/150 147/147/147
f 151/151/151 149/149/149 142/142/142
f 144/144/144 151/151/151 142/142/142
f 152/152/152 151/151/151 144/144/144
f 145/145/145 152/152/152 144/144/144
f 153/153/153 152/152/152 145/145/145
f 146/146/146 153/153/153 145/145/145
f 147/147/147 154/154/154 148/148/148
f 150/150/150 154/154/154 147/147/147
f 154/154/154 155/155/155 148/148/148
f 149/149/149 38/38/38 150/150/150
f 38/38/38 39/39/39 150/150/150
f 150/150/150 39/39/39 154/154/154
f 41/41/41 38/38/38 149/149/149
f 151/151/151 41/41/41 149/149/149
f 44/44/44 41/41/41 151/151/151
f 152/152/152 44/44/44 151/151/151
f 46/46/46 44/44/44 152/152/152
f 153/153/153 46/46/46 152/152/152
f 154/154/154 47/47/47 155/155/155
f 39/39/39 47/47/47 154/154/154
f 47/47/47 49/49/49 155/155/155
f 158/158/158 157/157/157 156/156/156
f 157/157/157 159/159/159 156/156/156
f 159/159/159 160/160/160 156/156/156
f 160/160/160 161/161/161 156/156/156
f 161/161/161 162/162/162 156/156/156
f 162/162/162 163/163/163 156/156/156
f 163/163/163 164/164/164 156/156/156
f 164/164/164 165/165/165 156/156/156
f 165/165/165 166/166/166 156/156/156
f 166/166/166 167/167/167 156/156/156
f 167/167/167 168/168/168 156/156/156
f 168/168/168 158/158/158 156/156/156
