g merge3d_element_meat_1
v -0.06987604 0.04836156 -0.1870879
v 0.08521558 0.04837216 -0.1870809
v 0.07666893 0.136934 -0.1111431
v -0.06134855 0.1369246 -0.1111496
v -0.06132891 -0.1430847 -0.122431
v 0.07668858 -0.1430752 -0.1224246
v -0.06134033 -0.1413218 0.1117783
v 0.07667691 -0.1413124 0.111785
v -0.2041086 0.1257096 -0.1071659
v -0.2040989 0.04622873 -0.1807026
v -0.3819575 0.03969501 -0.1578374
v -0.3819656 0.116723 -0.09291361
v -0.4531027 0.01620886 -0.07308983
v -0.453107 0.05202411 -0.04314338
v -0.4777675 -0.009607584 9.002686E-05
v -0.4531105 0.06416292 0.003063011
v -0.453111 0.04850943 0.04796421
v -0.3819729 0.1438375 0.006276531
v -0.3819749 0.111634 0.1028915
v -0.2041157 0.1573609 0.006829433
v -0.2041192 0.1228612 0.117974
v -0.0613597 0.1348056 0.1229033
v -0.06989453 0.05160271 0.191921
v 0.08519722 0.05161327 0.1919291
v 0.07667691 -0.1413124 0.111785
v -0.06134033 -0.1413218 0.1117783
v 0.07665754 0.134815 0.12291
v -0.2041171 0.04766071 0.1852784
v -0.06135695 0.1701054 0.007349405
v -0.2041007 -0.1413079 0.1073307
v 0.07666053 0.1701148 0.007355814
v -0.3819723 0.03584446 0.1616573
v -0.3819572 -0.1405769 0.09273002
v -0.4531099 0.01210903 0.07500189
v -0.4531031 -0.06764209 0.04291504
v 0.219422 0.1573898 0.006849365
v 0.2194294 0.1257385 -0.1071452
v 0.2194381 0.0462576 -0.1806817
v 0.3972953 0.03974816 -0.1577999
v 0.3972867 0.1167762 -0.09287647
v 0.4684358 0.01627174 -0.07304592
v 0.4684323 0.05208699 -0.04309933
v 0.4930974 -0.00954133 0.0001361847
v 0.4684286 0.06422581 0.003106918
v 0.4684281 0.04857231 0.04800819
v 0.3972803 0.1438906 0.006313419
v 0.3972779 0.1116872 0.102928
v 0.2194192 0.1228901 0.1179941
v 0.2194208 0.04768964 0.1852981
v 0.2194481 -0.1421583 -0.1179387
v 0.2194378 -0.141279 0.1073508
v 0.2194378 -0.141279 0.1073508
v 0.3972956 -0.1405237 0.09276653
v 0.3973046 -0.1385408 -0.1031631
v 0.4684398 -0.06518102 -0.04745327
v 0.468436 -0.0675792 0.04295902
v 0.4930974 -0.00954133 0.0001361847
v 0.3972805 0.03589762 0.1616949
v 0.3972956 -0.1405237 0.09276653
v 0.4684292 0.01217192 0.07504585
v 0.468436 -0.0675792 0.04295902
v 0.4684398 -0.06518102 -0.04745327
v -0.2040898 -0.1421871 -0.1179594
v -0.2041007 -0.1413079 0.1073307
v -0.3819478 -0.1385939 -0.1032003
v -0.4530984 -0.06524389 -0.04749752
v -0.3819572 -0.1405769 0.09273002
v -0.4530984 -0.06524389 -0.04749752
v -0.4531031 -0.06764209 0.04291504
v -0.4777675 -0.009607584 9.002686E-05
vt 0.1874395 0.8219432
vt 0.1502377 0.8224884
vt 0.1536024 0.8504956
vt 0.184751 0.8499966
vt 0.1878418 0.7719595
vt 0.1491335 0.7724509
vt 0.1908222 0.7126983
vt 0.1450935 0.7132162
vt 0.2173812 0.8493932
vt 0.2192626 0.8240719
vt 0.2621085 0.8317103
vt 0.2597443 0.8518018
vt 0.287405 0.8446975
vt 0.284969 0.8565506
vt 0.3035943 0.8655944
vt 0.2846994 0.8684927
vt 0.2871705 0.8797184
vt 0.2598513 0.8722408
vt 0.2627427 0.8918514
vt 0.2178066 0.8776231
vt 0.2207862 0.9051887
vt 0.1866734 0.9095078
vt 0.19131 0.9355421
vt 0.1500905 0.9363064
vt 0.1464142 0.9890839
vt 0.1970277 0.9881295
vt 0.1537239 0.9100958
vt 0.2260844 0.9281331
vt 0.1852303 0.8799871
vt 0.2473503 0.9745029
vt 0.1540894 0.8805153
vt 0.2682832 0.9088761
vt 0.2993711 0.9406315
vt 0.2916753 0.8895729
vt 0.3103237 0.8985928
vt 0.1214155 0.8792912
vt 0.1208831 0.8509622
vt 0.1183718 0.8255972
vt 0.07545057 0.8348097
vt 0.07848403 0.8550287
vt 0.05009413 0.8502834
vt 0.05333471 0.8613653
vt 0.03476077 0.8707379
vt 0.05399722 0.8730857
vt 0.05193096 0.8842934
vt 0.07913452 0.8755825
vt 0.07696986 0.8953556
vt 0.1194606 0.907023
vt 0.1150447 0.9302053
vt 0.1090711 0.7780675
vt 0.1000101 0.7220307
vt 0.09562171 0.9774011
vt 0.05225796 0.7384271
vt 0.05853799 0.790952
vt 0.03017464 0.7787403
vt 0.02775747 0.7554835
vt 0.01294622 0.7685024
vt 0.07207984 0.9126234
vt 0.04230076 0.9456457
vt 0.04782674 0.8942857
vt 0.02957204 0.9040982
vt 0.03443208 0.8334093
vt 0.2281558 0.7766689
vt 0.2362753 0.7206475
vt 0.2794327 0.789104
vt 0.3025714 0.8303844
vt 0.2844126 0.7363078
vt 0.3074888 0.7760629
vt 0.3092889 0.7527479
vt 0.3244331 0.7653525
vn -0.02508915 0.04096666 -0.9988455
vn 0.02518016 0.04096976 -0.9988431
vn 0.03619157 0.8496187 -0.5261541
vn -0.03625697 0.8496142 -0.526157
vn -0.01077744 -0.8374158 -0.5464602
vn 0.01094446 -0.8374137 -0.54646
vn -0.009554951 -0.8442773 0.5358214
vn 0.009618668 -0.8442755 0.535823
vn -0.08450649 0.848756 -0.5219885
vn -0.08483259 0.04073667 -0.9955621
vn -0.2879093 0.03958517 -0.9568393
vn -0.2793331 0.8189791 -0.5012446
vn -0.793686 0.01813428 -0.6080573
vn -0.7885429 0.5228854 -0.3237142
vn -0.9964798 -0.08380911 -0.002011299
vn -0.7831403 0.6215568 0.01893339
vn -0.7943713 0.4993862 0.3458146
vn -0.2650186 0.9640269 0.02042831
vn -0.2943121 0.7977045 0.5263535
vn -0.08367348 0.9963806 0.01498393
vn -0.0945475 0.8369265 0.5390871
vn -0.03954738 0.8428765 0.5366518
vn -0.02528375 -0.0374509 0.9989786
vn 0.02519303 -0.03744794 0.9989809
vn 0.009618668 -0.8442755 0.535823
vn -0.009554951 -0.8442773 0.5358214
vn 0.03938095 0.8428821 0.5366552
vn -0.08471634 -0.03619274 0.9957475
vn -0.04485101 0.9989421 0.01015317
vn -0.0413635 -0.8423355 0.5373639
vn 0.04471358 0.9989483 0.01015751
vn -0.2831192 -0.04256082 0.95814
vn -0.2399459 -0.8264004 0.5094
vn -0.7917238 -0.03760689 0.6097205
vn -0.7992927 -0.5048969 0.3258989
vn 0.0835363 0.996392 0.01499195
vn 0.08444124 0.8487671 -0.521981
vn 0.08492389 0.0407485 -0.9955539
vn 0.2473021 0.0594066 -0.9671155
vn 0.279269 0.8190163 -0.5012195
vn 0.8161239 0.1743987 -0.5509327
vn 0.7885026 0.5229948 -0.3236359
vn 0.9964911 -0.08367655 -0.001915902
vn 0.7830512 0.6216668 0.01900852
vn 0.7942699 0.4994974 0.3458868
vn 0.2648847 0.9640632 0.0204533
vn 0.2941531 0.7977453 0.5263805
vn 0.09438265 0.8369396 0.5390955
vn 0.08462805 -0.03618081 0.9957556
vn 0.04635295 -0.8308601 -0.5545474
vn 0.04142812 -0.8423292 0.5373688
vn 0.04142812 -0.8423292 0.5373688
vn 0.2400089 -0.826368 0.5094228
vn 0.2242121 -0.8215631 -0.5241784
vn 0.8053172 -0.5357066 -0.2539341
vn 0.7993299 -0.5047884 0.3259758
vn 0.9964911 -0.08367655 -0.001915902
vn 0.2830323 -0.04252277 0.9581673
vn 0.2400089 -0.826368 0.5094228
vn 0.7916714 -0.03749923 0.6097953
vn 0.7993299 -0.5047884 0.3259758
vn 0.8053172 -0.5357066 -0.2539341
vn -0.0461858 -0.8308662 -0.5545522
vn -0.0413635 -0.8423355 0.5373639
vn -0.2475975 -0.8066287 -0.5366988
vn -0.8069202 -0.4787461 -0.3459507
vn -0.2399459 -0.8264004 0.5094
vn -0.8069202 -0.4787461 -0.3459507
vn -0.7992927 -0.5048969 0.3258989
vn -0.9964798 -0.08380911 -0.002011299
g merge3d_element_meat_1_0
f 3/3/3 2/2/2 1/1/1
f 4/4/4 3/3/3 1/1/1
f 1/1/1 2/2/2 5/5/5
f 2/2/2 6/6/6 5/5/5
f 5/5/5 6/6/6 7/7/7
f 6/6/6 8/8/8 7/7/7
f 9/9/9 4/4/4 1/1/1
f 10/10/10 9/9/9 1/1/1
f 9/9/9 10/10/10 11/11/11
f 12/12/12 9/9/9 11/11/11
f 12/12/12 11/11/11 13/13/13
f 14/14/14 12/12/12 13/13/13
f 14/14/14 13/13/13 15/15/15
f 14/14/14 15/15/15 16/16/16
f 16/16/16 15/15/15 17/17/17
f 18/18/18 16/16/16 17/17/17
f 14/14/14 16/16/16 18/18/18
f 12/12/12 14/14/14 18/18/18
f 19/19/19 18/18/18 17/17/17
f 20/20/20 18/18/18 19/19/19
f 12/12/12 18/18/18 20/20/20
f 9/9/9 12/12/12 20/20/20
f 21/21/21 20/20/20 19/19/19
f 21/21/21 22/22/22 20/20/20
f 22/22/22 21/21/21 23/23/23
f 23/23/23 24/24/24 22/22/22
f 25/25/25 24/24/24 23/23/23
f 26/26/26 25/25/25 23/23/23
f 24/24/24 27/27/27 22/22/22
f 21/21/21 28/28/28 23/23/23
f 26/26/26 23/23/23 28/28/28
f 22/22/22 29/29/29 20/20/20
f 22/22/22 27/27/27 29/29/29
f 30/30/30 26/26/26 28/28/28
f 20/20/20 29/29/29 4/4/4
f 9/9/9 20/20/20 4/4/4
f 29/29/29 31/31/31 4/4/4
f 27/27/27 31/31/31 29/29/29
f 31/31/31 3/3/3 4/4/4
f 30/30/30 28/28/28 32/32/32
f 28/28/28 21/21/21 32/32/32
f 33/33/33 30/30/30 32/32/32
f 33/33/33 32/32/32 34/34/34
f 35/35/35 33/33/33 34/34/34
f 34/34/34 15/15/15 35/35/35
f 17/17/17 15/15/15 34/34/34
f 19/19/19 17/17/17 34/34/34
f 32/32/32 19/19/19 34/34/34
f 21/21/21 19/19/19 32/32/32
f 36/36/36 31/31/31 27/27/27
f 3/3/3 31/31/31 36/36/36
f 37/37/37 3/3/3 36/36/36
f 2/2/2 3/3/3 37/37/37
f 38/38/38 2/2/2 37/37/37
f 39/39/39 38/38/38 37/37/37
f 40/40/40 39/39/39 37/37/37
f 40/40/40 37/37/37 36/36/36
f 41/41/41 39/39/39 40/40/40
f 42/42/42 41/41/41 40/40/40
f 41/41/41 42/42/42 43/43/43
f 43/43/43 42/42/42 44/44/44
f 43/43/43 44/44/44 45/45/45
f 45/45/45 44/44/44 46/46/46
f 42/42/42 40/40/40 46/46/46
f 44/44/44 42/42/42 46/46/46
f 46/46/46 40/40/40 36/36/36
f 47/47/47 46/46/46 36/36/36
f 47/47/47 45/45/45 46/46/46
f 48/48/48 47/47/47 36/36/36
f 48/48/48 36/36/36 27/27/27
f 27/27/27 24/24/24 48/48/48
f 24/24/24 49/49/49 48/48/48
f 38/38/38 50/50/50 2/2/2
f 38/38/38 39/39/39 50/50/50
f 50/50/50 6/6/6 2/2/2
f 50/50/50 51/51/51 6/6/6
f 51/51/51 8/8/8 6/6/6
f 49/49/49 24/24/24 25/25/25
f 52/52/52 49/49/49 25/25/25
f 53/53/53 51/51/51 50/50/50
f 54/54/54 53/53/53 50/50/50
f 39/39/39 54/54/54 50/50/50
f 54/54/54 55/55/55 53/53/53
f 55/55/55 56/56/56 53/53/53
f 57/57/57 56/56/56 55/55/55
f 58/58/58 49/49/49 52/52/52
f 59/59/59 58/58/58 52/52/52
f 60/60/60 58/58/58 59/59/59
f 47/47/47 58/58/58 60/60/60
f 45/45/45 47/47/47 60/60/60
f 45/45/45 60/60/60 43/43/43
f 43/43/43 60/60/60 61/61/61
f 61/61/61 60/60/60 59/59/59
f 47/47/47 48/48/48 58/58/58
f 48/48/48 49/49/49 58/58/58
f 39/39/39 62/62/62 54/54/54
f 41/41/41 62/62/62 39/39/39
f 41/41/41 43/43/43 62/62/62
f 1/1/1 5/5/5 63/63/63
f 10/10/10 1/1/1 63/63/63
f 63/63/63 5/5/5 64/64/64
f 5/5/5 7/7/7 64/64/64
f 10/10/10 63/63/63 11/11/11
f 63/63/63 65/65/65 11/11/11
f 65/65/65 66/66/66 11/11/11
f 66/66/66 13/13/13 11/11/11
f 63/63/63 64/64/64 67/67/67
f 65/65/65 63/63/63 67/67/67
f 65/65/65 67/67/67 68/68/68
f 67/67/67 69/69/69 68/68/68
f 70/70/70 68/68/68 69/69/69
f 13/13/13 66/66/66 15/15/15
