g merge3d_element_ice_2
v -0.1594017 -0.05935225 -0.461241
v -0.1867715 -0.06153826 0.2855971
v -0.1719102 -0.09235283 0.2855051
v -0.1467531 -0.09017675 -0.4613318
v -0.1467678 -0.1075192 0.2854502
v -0.1253805 -0.105363 -0.4613856
v -0.1600048 0.05774479 -0.4609199
v -0.187375 0.05555981 0.2859177
v -0.1476759 0.08869965 -0.4608425
v -0.1728314 0.08652306 0.2859949
v -0.1264589 0.1041063 -0.460812
v -0.1478468 0.1019498 0.2860239
v -0.07688705 0.1043246 -0.4608373
v -0.08949509 0.1022155 0.2859925
v -0.003500042 0.1220073 -0.4608287
v -0.003096952 0.1199647 0.2859948
v 0.07006456 0.1050819 -0.4609154
v 0.08347971 0.1031051 0.2859025
v 0.1196365 0.1053743 -0.4609411
v 0.1418303 0.1034431 0.2858712
v 0.1410103 0.09018589 -0.4609946
v 0.1669734 0.08827557 0.285816
v 0.1536581 0.05936249 -0.4610851
v 0.1818343 0.05746202 0.2857235
v 0.154262 -0.05773434 -0.4614067
v 0.1824388 -0.0596368 0.2854034
v 0.1419321 -0.08868968 -0.4614845
v 0.1678958 -0.09060111 0.2853264
v 0.1207166 -0.1040982 -0.4615141
v 0.1429105 -0.1060268 0.2852975
v 0.07114395 -0.1043154 -0.4614885
v 0.08455747 -0.1062907 0.2853276
v -0.002243061 -0.1219981 -0.4614971
v -0.001838489 -0.1240424 0.2853273
v -0.07281105 -0.1006679 -0.4875783
v -0.07580893 -0.1050722 -0.4614116
v -0.002243061 -0.1219981 -0.4614971
v -0.002283878 -0.1168861 -0.4896619
v 0.07114395 -0.1043154 -0.4614885
v 0.06807558 -0.09994011 -0.4876522
v 0.07249374 -0.04769974 -0.4903296
v -0.002598743 -0.05604298 -0.4923131
v 0.07199585 0.04864262 -0.4900659
v -0.00317626 0.05622272 -0.4920048
v -0.07777119 -0.04847595 -0.4902505
v -0.07826641 0.04786787 -0.4899863
v 0.06704062 0.1008178 -0.4871029
v -0.003489876 0.1170512 -0.4890221
v 0.1226894 0.0489088 -0.4858643
v 0.123185 -0.04746719 -0.4861291
v -0.1203375 -0.100956 -0.4833264
v -0.1253805 -0.105363 -0.4613856
v -0.003500042 0.1220073 -0.4608287
v 0.07006456 0.1050819 -0.4609154
v 0.1156062 -0.09974098 -0.4834498
v 0.1477709 -0.05530834 -0.4774459
v 0.135947 -0.08498397 -0.4775216
v 0.1471925 0.05695537 -0.4771383
v -0.07688705 0.1043246 -0.4608373
v -0.07384678 0.1000926 -0.4870288
v -0.1289546 0.04761171 -0.4857318
v -0.1213714 0.0998698 -0.482776
v -0.1535303 0.05540739 -0.4769808
v -0.1417089 0.08508158 -0.4769059
v -0.1529525 -0.05685936 -0.4772882
v -0.1284585 -0.04876402 -0.4859964
v -0.1408244 -0.08641045 -0.4773753
v -0.1264589 0.1041063 -0.460812
v -0.1467531 -0.09017675 -0.4613318
v -0.1594017 -0.05935225 -0.461241
v -0.1476759 0.08869965 -0.4608425
v -0.1600048 0.05774479 -0.4609199
v -0.1867715 -0.06153826 0.2855971
v -0.002447958 -0.002143516 0.3238901
v -0.1467678 -0.1075192 0.2854502
v -0.1719102 -0.09235283 0.2855051
v -0.187375 0.05555981 0.2859177
v -0.1728314 0.08652306 0.2859949
v -0.1478468 0.1019498 0.2860239
v -0.08841457 -0.1071826 0.2854197
v -0.001838489 -0.1240424 0.2853273
v 0.08455747 -0.1062907 0.2853276
v 0.1429105 -0.1060268 0.2852975
v 0.1678958 -0.09060111 0.2853264
v 0.1824388 -0.0596368 0.2854034
v 0.1818343 0.05746202 0.2857235
v 0.1418303 0.1034431 0.2858712
v 0.08347971 0.1031051 0.2859025
v 0.1669734 0.08827557 0.285816
v -0.003096952 0.1199647 0.2859948
v -0.08949509 0.1022155 0.2859925
v 0.1350649 0.0865081 -0.4770511
v 0.1410103 0.09018589 -0.4609946
v 0.1196365 0.1053743 -0.4609411
v 0.1145711 0.101087 -0.4828999
v 0.1536581 0.05936249 -0.4610851
v 0.154262 -0.05773434 -0.4614067
v 0.1419321 -0.08868968 -0.4614845
v 0.1207166 -0.1040982 -0.4615141
v -0.07580893 -0.1050722 -0.4614116
v -0.08841457 -0.1071826 0.2854197
v -0.001838489 -0.1240424 0.2853273
v -0.002243061 -0.1219981 -0.4614971
v 0.03554789 0.005242348 0.5145638
v 0.03562761 -0.01018061 0.5145215
v 0.02454355 -0.01030594 0.5389871
v 0.02446333 0.005118065 0.5390291
v 0.03541873 0.005896797 0.274436
v 0.03549738 -0.009522228 0.2743945
v -0.04023802 -0.01057152 0.5145612
v -0.04036733 -0.009913883 0.2744348
v -0.04031677 0.004850693 0.514604
v -0.04044739 0.005509682 0.274475
v 0.007757473 -0.0104216 0.5505424
v 0.00767849 0.005000229 0.5505844
v -0.02912805 -0.01057983 0.5390149
v -0.02920654 0.004840927 0.5390574
v -0.01240881 0.00489624 0.5505956
v -0.01232893 -0.01052677 0.5505531
v 0.02446333 0.005118065 0.5390291
v -0.02920654 0.004840927 0.5390574
v -0.04031677 0.004850693 0.514604
v 0.03554789 0.005242348 0.5145638
v 0.00767849 0.005000229 0.5505844
v -0.01240881 0.00489624 0.5505956
v -0.04044739 0.005509682 0.274475
v 0.03541873 0.005896797 0.274436
vt 0.06602684 0.7072009
vt 0.06136462 0.5565073
vt 0.05442289 0.5568193
vt 0.05919066 0.7074937
vt 0.04847786 0.5571702
vt 0.05381814 0.7077994
vt 0.08979216 0.7064713
vt 0.08504596 0.5557798
vt 0.09668651 0.7063572
vt 0.09202859 0.5556785
vt 0.1021688 0.7063421
vt 0.09804472 0.5556721
vt 0.112378 0.7063595
vt 0.109922 0.5556936
vt 0.1278197 0.7063637
vt 0.1278197 0.5557023
vt 0.1432614 0.7063595
vt 0.1457174 0.5556936
vt 0.1534707 0.7063421
vt 0.1575947 0.5556721
vt 0.1589529 0.7063572
vt 0.1636108 0.5556785
vt 0.1658473 0.7064713
vt 0.1705934 0.5557798
vt 0.1896126 0.7072009
vt 0.1942748 0.5565073
vt 0.1964487 0.7074937
vt 0.2012165 0.5568193
vt 0.2018213 0.7077994
vt 0.2071615 0.5571702
vt 0.2118604 0.7084385
vt 0.2189226 0.5579214
vt 0.2270761 0.7094051
vt 0.2366804 0.5590515
vt 0.09668651 0.7246768
vt 0.09825137 0.7193818
vt 0.08255562 0.7162973
vt 0.08255562 0.7218033
vt 0.06685987 0.7193818
vt 0.06842467 0.7246768
vt 0.06753352 0.7353595
vt 0.08255562 0.7338184
vt 0.06753573 0.7547768
vt 0.08255562 0.7563137
vt 0.0975776 0.7353595
vt 0.09757552 0.7547768
vt 0.06842688 0.7654573
vt 0.08255562 0.7683308
vt 0.05741271 0.7546865
vt 0.05741057 0.7354478
vt 0.1061358 0.7252194
vt 0.1087058 0.7217258
vt 0.08255562 0.773839
vt 0.06686202 0.7707546
vt 0.05897537 0.7252194
vt 0.05228123 0.7337731
vt 0.0547286 0.7278367
vt 0.05228338 0.756361
vt 0.09824917 0.7707546
vt 0.09668437 0.7654573
vt 0.1076985 0.7546865
vt 0.1061337 0.764917
vt 0.1128278 0.756361
vt 0.1103804 0.7622997
vt 0.11283 0.7337731
vt 0.1077007 0.7354478
vt 0.1103826 0.7278367
vt 0.1087037 0.7684106
vt 0.11331 0.7259232
vt 0.1161469 0.7328755
vt 0.1133078 0.7642132
vt 0.1161447 0.7572607
vt 0.2064405 0.7514943
vt 0.1685292 0.7395288
vt 0.1983257 0.7611481
vt 0.2034378 0.7578763
vt 0.2064383 0.7275568
vt 0.2034335 0.721177
vt 0.1983214 0.717903
vt 0.1863085 0.7616519
vt 0.1685292 0.7652227
vt 0.1507498 0.7616519
vt 0.1387327 0.7611481
vt 0.1336206 0.7578763
vt 0.1306179 0.7514943
vt 0.1306201 0.7275568
vt 0.1387371 0.717903
vt 0.150752 0.7174035
vt 0.1336249 0.721177
vt 0.1685292 0.7138327
vt 0.1863064 0.7174035
vt 0.05473074 0.7622997
vt 0.05180344 0.7642132
vt 0.05640754 0.7684106
vt 0.05897757 0.764917
vt 0.04896644 0.7572607
vt 0.04896429 0.7328755
vt 0.05180123 0.7259232
vt 0.05640534 0.7217258
vt 0.04377905 0.7084385
vt 0.03671679 0.5579214
vt 0.01895902 0.5590515
vt 0.02856329 0.7094051
vt 0.2393387 0.7272942
vt 0.2421843 0.7281508
vt 0.2445111 0.7237772
vt 0.242548 0.7216741
vt 0.2388286 0.7762111
vt 0.2419669 0.7763553
vt 0.257357 0.7281917
vt 0.2573246 0.7763962
vt 0.2602068 0.7273501
vt 0.260463 0.7762692
vt 0.2478667 0.7219131
vt 0.2471715 0.7191106
vt 0.2550539 0.7238051
vt 0.2570276 0.7217128
vt 0.2524192 0.7191235
vt 0.251709 0.7219239
vt 0.2348358 0.7231616
vt 0.2240089 0.7230259
vt 0.2217101 0.7279335
vt 0.2370141 0.7281228
vt 0.2314779 0.7207894
vt 0.2274248 0.72074
vt 0.221116 0.7763724
vt 0.2364178 0.7765597
vn -0.9943275 -0.09699462 -0.04364599
vn -0.9911968 -0.09973568 0.08707291
vn -0.7684972 -0.6160116 0.1730369
vn -0.7769007 -0.6286137 -0.03563818
vn -0.2047039 -0.9701431 0.1300724
vn -0.1853756 -0.9825638 -0.01429462
vn -0.9952755 0.08697984 -0.04314205
vn -0.9921698 0.08903652 0.08758813
vn -0.7833385 0.62076 -0.03221552
vn -0.7747993 0.6071015 0.1763908
vn -0.195504 0.9806623 -0.008919089
vn -0.2146981 0.967253 0.1353751
vn -0.1345354 0.9909016 -0.003773294
vn -0.1302847 0.9883168 0.0790935
vn -0.005149275 0.9999752 -0.004814131
vn -0.005091816 0.9970506 0.07657672
vn 0.1243118 0.9922355 -0.003908697
vn 0.1201751 0.9896074 0.07896265
vn 0.1853666 0.9826271 -0.009118247
vn 0.204849 0.9694173 0.1351556
vn 0.7768656 0.6287992 -0.03303626
vn 0.7686856 0.6150573 0.1755762
vn 0.9942797 0.09723843 -0.04418698
vn 0.9912901 0.09926344 0.08654851
vn 0.9952285 -0.08673388 -0.0446919
vn 0.9922638 -0.0895064 0.08602914
vn 0.7833153 -0.6205544 -0.03645972
vn 0.7749969 -0.6080456 0.1722212
vn 0.1954783 -0.9806009 -0.01449436
vn 0.2148272 -0.9679814 0.1298509
vn 0.1345276 -0.9908659 -0.009339668
vn 0.1303664 -0.9887344 0.07354417
vn 0.005147279 -0.9999338 -0.01029106
vn 0.005177677 -0.9974548 0.07111373
vn -0.1006473 -0.4004398 -0.9107788
vn -0.1243299 -0.9921983 -0.009203145
vn 0.005147279 -0.9999338 -0.01029106
vn 0.002042338 -0.4847682 -0.8746403
vn 0.1345276 -0.9908659 -0.009339668
vn 0.1038038 -0.3993734 -0.9108928
vn 0.05027647 -0.0152907 -0.9986182
vn -0.0004422152 -0.01643294 -0.9998648
vn 0.05008836 0.02127737 -0.9985182
vn -0.0006403952 0.02190215 -0.99976
vn -0.05116718 -0.01581018 -0.998565
vn -0.05135585 0.02075306 -0.9984648
vn 0.09966375 0.4053947 -0.9086927
vn -0.002984286 0.4895533 -0.8719683
vn 0.1739614 0.02520608 -0.9844298
vn 0.17418 -0.01801734 -0.9845489
vn -0.1544259 -0.4599494 -0.8744136
vn -0.1853756 -0.9825638 -0.01429462
vn -0.005149275 0.9999752 -0.004814131
vn 0.1243118 0.9922355 -0.003908697
vn 0.1582293 -0.4583462 -0.8745755
vn 0.6632515 -0.05055451 -0.7466871
vn 0.5545295 -0.3366499 -0.7610282
vn 0.6626804 0.06147319 -0.7463751
vn -0.1345354 0.9909016 -0.003773294
vn -0.1047943 0.4043416 -0.9085847
vn -0.1752361 0.02340391 -0.9842482
vn -0.1591717 0.4631097 -0.8718909
vn -0.6640519 0.05463991 -0.7456872
vn -0.555334 0.3408169 -0.7585828
vn -0.6634843 -0.05739301 -0.7459857
vn -0.1750136 -0.01981341 -0.9843667
vn -0.5518345 -0.3423781 -0.7604314
vn -0.195504 0.9806623 -0.008919089
vn -0.7769007 -0.6286137 -0.03563818
vn -0.9943275 -0.09699462 -0.04364599
vn -0.7833385 0.62076 -0.03221552
vn -0.9952755 0.08697984 -0.04314205
vn -0.9911968 -0.09973568 0.08707291
vn 0.0005404932 -0.002734299 0.9999962
vn -0.2047039 -0.9701431 0.1300724
vn -0.7684972 -0.6160116 0.1730369
vn -0.9921698 0.08903652 0.08758813
vn -0.7747993 0.6071015 0.1763908
vn -0.2146981 0.967253 0.1353751
vn -0.120105 -0.9900236 0.07367577
vn 0.005177677 -0.9974548 0.07111373
vn 0.1303664 -0.9887344 0.07354417
vn 0.2148272 -0.9679814 0.1298509
vn 0.7749969 -0.6080456 0.1722212
vn 0.9922638 -0.0895064 0.08602914
vn 0.9912901 0.09926344 0.08654851
vn 0.204849 0.9694173 0.1351556
vn 0.1201751 0.9896074 0.07896265
vn 0.7686856 0.6150573 0.1755762
vn -0.005091816 0.9970506 0.07657672
vn -0.1302847 0.9883168 0.0790935
vn 0.5510154 0.3465211 -0.7591476
vn 0.7768656 0.6287992 -0.03303626
vn 0.1853666 0.9826271 -0.009118247
vn 0.1534773 0.4647283 -0.8720506
vn 0.9942797 0.09723843 -0.04418698
vn 0.9952285 -0.08673388 -0.0446919
vn 0.7833153 -0.6205544 -0.03645972
vn 0.1954783 -0.9806009 -0.01449436
vn -0.1243299 -0.9921983 -0.009203145
vn -0.120105 -0.9900236 0.07367577
vn 0.005177677 -0.9974548 0.07111373
vn 0.005147279 -0.9999338 -0.01029106
vn 0.201074 0.9795119 0.01121617
vn 0.2111438 -0.9774375 0.005853832
vn 0.2477333 -0.9509438 0.1852946
vn 0.2379494 0.9524089 0.1905184
vn 0.1941578 0.9809669 0.002577907
vn 0.2042518 -0.9789144 -0.002792886
vn -0.2010697 -0.9795582 0.006068482
vn -0.1941801 -0.9809625 -0.002583009
vn -0.2111293 0.9773912 0.01143185
vn -0.2042291 0.9789191 0.002787745
vn 0.1998087 -0.7566658 0.6225218
vn 0.1920211 0.7553089 0.6266071
vn -0.2377599 -0.9534369 0.1855491
vn -0.2475486 0.9499109 0.1907591
vn -0.1991408 0.7532834 0.626823
vn -0.1913353 -0.7587227 0.6226801
vn 0.2379494 0.9524089 0.1905184
vn -0.2475486 0.9499109 0.1907591
vn -0.2111293 0.9773912 0.01143185
vn 0.201074 0.9795119 0.01121617
vn 0.1920211 0.7553089 0.6266071
vn -0.1991408 0.7532834 0.626823
vn -0.2042291 0.9789191 0.002787745
vn 0.1941578 0.9809669 0.002577907
g merge3d_element_ice_2_0
f 3/3/3 2/2/2 1/1/1
f 4/4/4 3/3/3 1/1/1
f 5/5/5 3/3/3 4/4/4
f 6/6/6 5/5/5 4/4/4
f 1/1/1 2/2/2 7/7/7
f 2/2/2 8/8/8 7/7/7
f 7/7/7 8/8/8 9/9/9
f 8/8/8 10/10/10 9/9/9
f 9/9/9 10/10/10 11/11/11
f 10/10/10 12/12/12 11/11/11
f 11/11/11 12/12/12 13/13/13
f 12/12/12 14/14/14 13/13/13
f 13/13/13 14/14/14 15/15/15
f 14/14/14 16/16/16 15/15/15
f 15/15/15 16/16/16 17/17/17
f 16/16/16 18/18/18 17/17/17
f 17/17/17 18/18/18 19/19/19
f 18/18/18 20/20/20 19/19/19
f 19/19/19 20/20/20 21/21/21
f 20/20/20 22/22/22 21/21/21
f 21/21/21 22/22/22 23/23/23
f 22/22/22 24/24/24 23/23/23
f 23/23/23 24/24/24 25/25/25
f 24/24/24 26/26/26 25/25/25
f 25/25/25 26/26/26 27/27/27
f 26/26/26 28/28/28 27/27/27
f 27/27/27 28/28/28 29/29/29
f 28/28/28 30/30/30 29/29/29
f 29/29/29 30/30/30 31/31/31
f 30/30/30 32/32/32 31/31/31
f 31/31/31 32/32/32 33/33/33
f 32/32/32 34/34/34 33/33/33
f 37/37/37 36/36/36 35/35/35
f 38/38/38 37/37/37 35/35/35
f 39/39/39 37/37/37 38/38/38
f 40/40/40 39/39/39 38/38/38
f 40/40/40 38/38/38 41/41/41
f 38/38/38 42/42/42 41/41/41
f 38/38/38 35/35/35 42/42/42
f 41/41/41 42/42/42 43/43/43
f 42/42/42 44/44/44 43/43/43
f 42/42/42 45/45/45 44/44/44
f 35/35/35 45/45/45 42/42/42
f 45/45/45 46/46/46 44/44/44
f 43/43/43 44/44/44 47/47/47
f 44/44/44 48/48/48 47/47/47
f 44/44/44 46/46/46 48/48/48
f 41/41/41 43/43/43 49/49/49
f 50/50/50 41/41/41 49/49/49
f 40/40/40 41/41/41 50/50/50
f 51/51/51 35/35/35 36/36/36
f 52/52/52 51/51/51 36/36/36
f 48/48/48 53/53/53 47/47/47
f 53/53/53 54/54/54 47/47/47
f 55/55/55 40/40/40 50/50/50
f 55/55/55 50/50/50 56/56/56
f 57/57/57 55/55/55 56/56/56
f 50/50/50 49/49/49 58/58/58
f 56/56/56 50/50/50 58/58/58
f 59/59/59 53/53/53 48/48/48
f 60/60/60 59/59/59 48/48/48
f 46/46/46 60/60/60 48/48/48
f 46/46/46 61/61/61 60/60/60
f 61/61/61 62/62/62 60/60/60
f 61/61/61 63/63/63 62/62/62
f 63/63/63 64/64/64 62/62/62
f 65/65/65 63/63/63 61/61/61
f 66/66/66 65/65/65 61/61/61
f 67/67/67 65/65/65 66/66/66
f 51/51/51 67/67/67 66/66/66
f 68/68/68 59/59/59 60/60/60
f 62/62/62 68/68/68 60/60/60
f 67/67/67 69/69/69 65/65/65
f 69/69/69 70/70/70 65/65/65
f 65/65/65 70/70/70 63/63/63
f 71/71/71 68/68/68 62/62/62
f 64/64/64 71/71/71 62/62/62
f 67/67/67 51/51/51 52/52/52
f 69/69/69 67/67/67 52/52/52
f 51/51/51 66/66/66 45/45/45
f 35/35/35 51/51/51 45/45/45
f 72/72/72 71/71/71 64/64/64
f 63/63/63 72/72/72 64/64/64
f 70/70/70 72/72/72 63/63/63
f 66/66/66 61/61/61 46/46/46
f 45/45/45 66/66/66 46/46/46
f 75/75/75 74/74/74 73/73/73
f 76/76/76 75/75/75 73/73/73
f 73/73/73 74/74/74 77/77/77
f 77/77/77 74/74/74 78/78/78
f 74/74/74 79/79/79 78/78/78
f 75/75/75 80/80/80 74/74/74
f 80/80/80 81/81/81 74/74/74
f 81/81/81 82/82/82 74/74/74
f 82/82/82 83/83/83 74/74/74
f 83/83/83 84/84/84 74/74/74
f 84/84/84 85/85/85 74/74/74
f 85/85/85 86/86/86 74/74/74
f 74/74/74 86/86/86 87/87/87
f 74/74/74 87/87/87 88/88/88
f 86/86/86 89/89/89 87/87/87
f 74/74/74 88/88/88 90/90/90
f 74/74/74 90/90/90 91/91/91
f 74/74/74 91/91/91 79/79/79
f 94/94/94 93/93/93 92/92/92
f 95/95/95 94/94/94 92/92/92
f 92/92/92 93/93/93 58/58/58
f 93/93/93 96/96/96 58/58/58
f 54/54/54 94/94/94 95/95/95
f 47/47/47 54/54/54 95/95/95
f 58/58/58 96/96/96 56/56/56
f 96/96/96 97/97/97 56/56/56
f 56/56/56 97/97/97 57/57/57
f 97/97/97 98/98/98 57/57/57
f 57/57/57 98/98/98 55/55/55
f 98/98/98 99/99/99 55/55/55
f 55/55/55 99/99/99 40/40/40
f 99/99/99 39/39/39 40/40/40
f 49/49/49 95/95/95 92/92/92
f 58/58/58 49/49/49 92/92/92
f 43/43/43 47/47/47 95/95/95
f 49/49/49 43/43/43 95/95/95
f 102/102/102 101/101/101 100/100/100
f 103/103/103 102/102/102 100/100/100
f 100/100/100 101/101/101 6/6/6
f 101/101/101 5/5/5 6/6/6
f 106/106/106 105/105/105 104/104/104
f 107/107/107 106/106/106 104/104/104
f 104/104/104 105/105/105 108/108/108
f 105/105/105 109/109/109 108/108/108
f 105/105/105 110/110/110 109/109/109
f 110/110/110 111/111/111 109/109/109
f 110/110/110 112/112/112 111/111/111
f 112/112/112 113/113/113 111/111/111
f 114/114/114 106/106/106 107/107/107
f 115/115/115 114/114/114 107/107/107
f 116/116/116 110/110/110 105/105/105
f 106/106/106 116/116/116 105/105/105
f 117/117/117 112/112/112 110/110/110
f 116/116/116 117/117/117 110/110/110
f 115/115/115 118/118/118 114/114/114
f 118/118/118 117/117/117 116/116/116
f 118/118/118 119/119/119 114/114/114
f 119/119/119 116/116/116 106/106/106
f 114/114/114 119/119/119 106/106/106
f 119/119/119 118/118/118 116/116/116
f 122/122/122 121/121/121 120/120/120
f 123/123/123 122/122/122 120/120/120
f 120/120/120 121/121/121 124/124/124
f 121/121/121 125/125/125 124/124/124
f 126/126/126 122/122/122 123/123/123
f 127/127/127 126/126/126 123/123/123
