g merge2d_element_number_4
v 0.2384733 -0.2384734 -0.1220327
v 0 -0.4428792 -0.1220326
v 0.2384733 -0.4428792 -0.1220326
v 0 -0.2384734 -0.1220327
v 0 -0.06813531 -0.1220327
v 0.2384733 -0.06813531 -0.1220327
v 0.3747439 -0.2384734 -0.1220327
v 0.3747439 -0.06813531 -0.1220327
v -0.2187779 -0.06813531 -0.1220327
v -0.3747439 -0.2384734 -0.1220327
v -0.3747439 -0.06227971 -0.1220327
v 0 0.2320861 -0.1220326
v 0.2384733 0.4428791 -0.1220326
v -0.00691954 0.4428791 -0.1220326
v 0.2384733 -0.2384734 0.1220326
v 0.2384733 -0.4428791 0.1220327
v 0 -0.4428791 0.1220327
v 0 -0.2384734 0.1220326
v 0 -0.06813531 0.1220327
v 0.2384733 -0.06813531 0.1220327
v 0.3747439 -0.2384734 0.1220326
v 0.3747439 -0.06813531 0.1220327
v -0.2187779 -0.06813531 0.1220327
v -0.3747439 -0.2384734 0.1220326
v -0.3747439 -0.06227971 0.1220326
v 0 0.2320861 0.1220326
v 0.2384733 0.4428791 0.1220326
v -0.00691954 0.4428791 0.1220326
v 0 -0.4428791 0.1220327
v 0.2384733 -0.4428791 0.1220327
v 0.2384733 -0.4428792 -0.1220326
v 0 -0.4428792 -0.1220326
v 0.2384733 -0.4428791 0.1220327
v 0.2384733 -0.2384734 0.1220326
v 0.2384733 -0.2384734 -0.1220327
v 0.2384733 -0.4428792 -0.1220326
v 0.2384733 -0.2384734 0.1220326
v 0.3747439 -0.2384734 0.1220326
v 0.3747439 -0.2384734 -0.1220327
v 0.2384733 -0.2384734 -0.1220327
v 0.3747439 -0.2384734 0.1220326
v 0.3747439 -0.06813531 0.1220327
v 0.3747439 -0.06813531 -0.1220327
v 0.3747439 -0.2384734 -0.1220327
v 0.3747439 -0.06813531 0.1220327
v 0.2384733 -0.06813531 0.1220327
v 0.2384733 -0.06813531 -0.1220327
v 0.3747439 -0.06813531 -0.1220327
v 0 -0.06813531 0.1220327
v -0.2187779 -0.06813531 0.1220327
v -0.2187779 -0.06813531 -0.1220327
v 0 -0.06813531 -0.1220327
v -0.3747439 -0.2384734 0.1220326
v 0 -0.2384734 0.1220326
v 0 -0.2384734 -0.1220327
v -0.3747439 -0.2384734 -0.1220327
v -0.3747439 -0.06227971 0.1220326
v -0.3747439 -0.2384734 0.1220326
v -0.3747439 -0.2384734 -0.1220327
v -0.3747439 -0.06227971 -0.1220327
v 0.2384733 -0.06813531 0.1220327
v 0.2384733 0.4428791 0.1220326
v 0.2384733 0.4428791 -0.1220326
v 0.2384733 -0.06813531 -0.1220327
v 0 0.2320861 0.1220326
v 0 -0.06813531 0.1220327
v 0 -0.06813531 -0.1220327
v 0 0.2320861 -0.1220326
v -0.2187779 -0.06813531 0.1220327
v 0 0.2320861 0.1220326
v 0 0.2320861 -0.1220326
v -0.2187779 -0.06813531 -0.1220327
v -0.00691954 0.4428791 0.1220326
v -0.3747439 -0.06227971 0.1220326
v -0.3747439 -0.06227971 -0.1220327
v -0.00691954 0.4428791 -0.1220326
v 0.2384733 0.4428791 0.1220326
v -0.00691954 0.4428791 0.1220326
v -0.00691954 0.4428791 -0.1220326
v 0.2384733 0.4428791 -0.1220326
v 0 -0.2384734 0.1220326
v 0 -0.4428791 0.1220327
v 0 -0.4428792 -0.1220326
v 0 -0.2384734 -0.1220327
vt 0.2265853 0.1925234
vt 0.279807 0.1469043
vt 0.2265853 0.1469043
vt 0.279807 0.1925234
vt 0.279807 0.230539
vt 0.2265853 0.230539
vt 0.1961723 0.1925234
vt 0.1961723 0.230539
vt 0.3286337 0.230539
vt 0.3634417 0.1925234
vt 0.3634417 0.2318457
vt 0.279807 0.2975416
vt 0.2265853 0.3445859
vt 0.2813516 0.3445859
vt 0.1490328 0.1925234
vt 0.1490328 0.1469043
vt 0.09581099 0.1469043
vt 0.09581099 0.1925234
vt 0.09581099 0.230539
vt 0.1490328 0.230539
vt 0.1794457 0.1925234
vt 0.1794457 0.230539
vt 0.04698434 0.230539
vt 0.01217633 0.1925234
vt 0.01217633 0.2318457
vt 0.09581099 0.2975416
vt 0.1490328 0.3445859
vt 0.09426651 0.3445859
vt 0.5147541 0.2578391
vt 0.5679771 0.2578391
vt 0.5679771 0.2033692
vt 0.5147541 0.2033692
vt 0.5679771 0.2578391
vt 0.6135961 0.2578391
vt 0.6135961 0.2033692
vt 0.5679771 0.2033692
vt 0.3922259 0.1936024
vt 0.422639 0.1936024
vt 0.422639 0.1391324
vt 0.3922259 0.1391324
vt 0.422639 0.1936024
vt 0.460656 0.1936024
vt 0.460656 0.1391324
vt 0.422639 0.1391324
vt 0.460656 0.1936024
vt 0.491069 0.1936024
vt 0.491069 0.1391324
vt 0.460656 0.1391324
vt 0.5524426 0.07579628
vt 0.5036362 0.07567406
vt 0.5034787 0.1301439
vt 0.5523248 0.130267
vt 0.3855002 0.2578399
vt 0.4691348 0.2578391
vt 0.4691341 0.2033692
vt 0.3854995 0.20337
vt 0.5650824 0.3238636
vt 0.6044016 0.3241186
vt 0.604755 0.2696494
vt 0.5654303 0.2693944
vt 0.491069 0.1936024
vt 0.6051159 0.1936024
vt 0.6051159 0.1391324
vt 0.491069 0.1391324
vt 0.6194362 0.07592008
vt 0.5524426 0.07579628
vt 0.5523248 0.130267
vt 0.6193363 0.1303893
vt 0.5036362 0.07567406
vt 0.4207404 0.07540697
vt 0.4205642 0.1298762
vt 0.5034787 0.1301439
vt 0.4256229 0.3229867
vt 0.5650824 0.3238636
vt 0.5654303 0.2693944
vt 0.4259748 0.2685182
vt 0.3708528 0.3226236
vt 0.4256229 0.3229867
vt 0.4259748 0.2685182
vt 0.3712144 0.2681551
vt 0.4691348 0.2578391
vt 0.5147541 0.2578391
vt 0.5147541 0.2033692
vt 0.4691341 0.2033692
vn 0 0 -1
vn 0 0 -1
vn 0 0 -1
vn 0 0 -1
vn 0 0 -1
vn 0 0 -1
vn 0 0 -1
vn 0 0 -1
vn 0 0 -1
vn 0 0 -1
vn 0 0 -1
vn 0 0 -1
vn 0 0 -1
vn 0 0 -1
vn 0 1.866238E-07 1
vn 0 1.866238E-07 1
vn 0 1.866238E-07 1
vn 0 -1.119743E-07 1
vn 0 -1.119743E-07 1
vn 0 -1.119743E-07 1
vn 0 -1.119743E-07 1
vn 0 -1.119743E-07 1
vn 0 -1.119743E-07 1
vn 0 -1.119743E-07 1
vn -1.526977E-07 0 1
vn 0 0 1
vn 0 0 1
vn 0 0 1
vn 0 -1 2.097317E-07
vn 0 -1 2.097317E-07
vn 0 -1 2.097317E-07
vn 0 -1 2.097317E-07
vn 1 0 0
vn 1 0 0
vn 1 0 0
vn 1 0 0
vn 0 -1 0
vn 0 -1 0
vn 0 -1 0
vn 0 -1 0
vn 1 0 0
vn 1 0 0
vn 1 0 0
vn 1 0 0
vn 0 1 0
vn 0 1 0
vn 0 1 0
vn 0 1 0
vn 0 1 0
vn 0 1 0
vn 0 1 0
vn 0 1 0
vn 0 -1 0
vn 0 -1 0
vn 0 -1 0
vn 0 -1 0
vn -1 0 0
vn -1 0 0
vn -1 0 0
vn -1 0 0
vn 1 0 0
vn 1 0 0
vn 1 0 0
vn 1 0 0
vn -1 0 0
vn -1 0 0
vn -1 0 0
vn -1 0 0
vn 0.8081786 -0.5889374 0
vn 0.8081786 -0.5889374 0
vn 0.8081786 -0.5889374 0
vn 0.8081786 -0.5889374 0
vn -0.808404 0.5886281 -1.200593E-07
vn -0.808404 0.5886281 -1.200593E-07
vn -0.808404 0.5886281 -1.200593E-07
vn -0.808404 0.5886281 -1.200593E-07
vn 0 1 -2.038178E-07
vn 0 1 -2.038178E-07
vn 0 1 -2.038178E-07
vn 0 1 -2.038178E-07
vn -1 0 0
vn -1 0 0
vn -1 0 0
vn -1 0 0
g merge2d_element_number_4_0
f 3/3/3 2/2/2 1/1/1
f 2/2/2 4/4/4 1/1/1
f 4/4/4 5/5/5 1/1/1
f 5/5/5 6/6/6 1/1/1
f 1/1/1 6/6/6 7/7/7
f 8/8/8 7/7/7 6/6/6
f 9/9/9 5/5/5 4/4/4
f 9/9/9 4/4/4 10/10/10
f 9/9/9 10/10/10 11/11/11
f 12/12/12 6/6/6 5/5/5
f 12/12/12 9/9/9 11/11/11
f 13/13/13 6/6/6 12/12/12
f 12/12/12 11/11/11 14/14/14
f 13/13/13 12/12/12 14/14/14
f 17/17/17 16/16/16 15/15/15
f 18/18/18 17/17/17 15/15/15
f 19/19/19 18/18/18 15/15/15
f 20/20/20 19/19/19 15/15/15
f 20/20/20 15/15/15 21/21/21
f 21/21/21 22/22/22 20/20/20
f 19/19/19 23/23/23 18/18/18
f 18/18/18 23/23/23 24/24/24
f 24/24/24 23/23/23 25/25/25
f 20/20/20 26/26/26 19/19/19
f 23/23/23 26/26/26 25/25/25
f 20/20/20 27/27/27 26/26/26
f 25/25/25 26/26/26 28/28/28
f 26/26/26 27/27/27 28/28/28
f 31/31/31 30/30/30 29/29/29
f 32/32/32 31/31/31 29/29/29
f 35/35/35 34/34/34 33/33/33
f 36/36/36 35/35/35 33/33/33
f 39/39/39 38/38/38 37/37/37
f 40/40/40 39/39/39 37/37/37
f 43/43/43 42/42/42 41/41/41
f 44/44/44 43/43/43 41/41/41
f 47/47/47 46/46/46 45/45/45
f 48/48/48 47/47/47 45/45/45
f 51/51/51 50/50/50 49/49/49
f 52/52/52 51/51/51 49/49/49
f 55/55/55 54/54/54 53/53/53
f 56/56/56 55/55/55 53/53/53
f 59/59/59 58/58/58 57/57/57
f 60/60/60 59/59/59 57/57/57
f 63/63/63 62/62/62 61/61/61
f 64/64/64 63/63/63 61/61/61
f 67/67/67 66/66/66 65/65/65
f 68/68/68 67/67/67 65/65/65
f 71/71/71 70/70/70 69/69/69
f 72/72/72 71/71/71 69/69/69
f 75/75/75 74/74/74 73/73/73
f 76/76/76 75/75/75 73/73/73
f 79/79/79 78/78/78 77/77/77
f 80/80/80 79/79/79 77/77/77
f 83/83/83 82/82/82 81/81/81
f 84/84/84 83/83/83 81/81/81
