g Pear_Half_Back
v -0.1768085 0.08796214 -0.3126122
v -0.243361 0.08796215 -0.2238817
v -0.2107526 -0.03371354 -0.2238815
v -0.153118 -0.0004451609 -0.3126122
v -0.1216757 -0.1227904 -0.2238823
v -0.08840755 -0.06515615 -0.3126131
v -4.057539E-17 -0.1553989 -0.2238822
v -3.242505E-17 -0.08884633 -0.3126131
v -0.2634843 -0.0641596 -0.1011324
v -0.3042481 0.08796215 -0.1011325
v -0.1521218 -0.1755222 -0.1011328
v -4.80319E-17 -0.2162859 -0.1011328
v -5.626199E-17 -0.2834897 0.02161668
v -0.1857262 -0.2337246 0.02161668
v -5.988976E-17 -0.3131127 0.1455557
v -0.2005374 -0.2593789 0.1455557
v -0.3216868 -0.09776406 0.02161669
v -0.347341 -0.1125753 0.1455557
v -0.3714519 0.08796215 0.02161669
v -0.4010749 0.08796214 0.1455557
v -0.3303409 -0.1027605 0.2694947
v -0.3814447 0.08796215 0.2694947
v -0.1907226 -0.2423787 0.2694947
v -5.748576E-17 -0.2934826 0.2694948
v -0.2810047 -0.07427633 0.3813015
v -0.3244765 0.08796215 0.3813015
v -0.162238 -0.1930425 0.3813015
v -5.050916E-17 -0.2365143 0.3813015
v -0.2041619 -0.02991102 0.4700322
v -0.2357458 0.08796215 0.4700322
v -0.1178732 -0.1161998 0.4700322
v -3.964279E-17 -0.1477837 0.4700322
v -0.1073342 0.02599239 0.5270007
v -0.123939 0.08796161 0.5270007
v -0.06196926 -0.01937253 0.5270007
v -2.595041E-17 -0.03597688 0.5270007
v -1.077226E-17 0.08796216 0.5466306
v -1.077226E-17 0.08796216 0.5466306
v -1.077226E-17 0.08796216 0.5466306
v -3.242505E-17 -0.08884633 -0.3126131
v -4.057539E-17 -0.1553989 -0.2238822
v 0.1216758 -0.1227904 -0.2238823
v 0.08840755 -0.06515615 -0.3126131
v 0.2107527 -0.03371354 -0.2238815
v 0.153118 -0.0004451609 -0.3126122
v 0.2433611 0.08796215 -0.2238817
v 0.1768086 0.08796214 -0.3126122
v 0.1521218 -0.1755222 -0.1011328
v -4.80319E-17 -0.2162859 -0.1011328
v 0.2634843 -0.0641596 -0.1011324
v 0.304248 0.08796215 -0.1011325
v 0.3714519 0.08796215 0.02161669
v 0.3216868 -0.09776406 0.02161669
v 0.4010749 0.08796214 0.1455557
v 0.347341 -0.1125753 0.1455557
v 0.1857262 -0.2337246 0.02161668
v 0.2005374 -0.2593789 0.1455557
v -5.626199E-17 -0.2834897 0.02161668
v -5.988976E-17 -0.3131127 0.1455557
v 0.1907226 -0.2423787 0.2694947
v -5.748576E-17 -0.2934826 0.2694948
v 0.3303409 -0.1027605 0.2694947
v 0.3814447 0.08796215 0.2694947
v 0.162238 -0.1930425 0.3813015
v -5.050916E-17 -0.2365143 0.3813015
v 0.2810047 -0.07427633 0.3813015
v 0.3244765 0.08796215 0.3813015
v 0.1178732 -0.1161998 0.4700322
v -3.964279E-17 -0.1477837 0.4700322
v 0.2041619 -0.02991102 0.4700322
v 0.2357458 0.08796215 0.4700322
v 0.06196926 -0.01937253 0.5270007
v -2.595041E-17 -0.03597688 0.5270007
v 0.1073342 0.02599239 0.5270007
v 0.123939 0.08796161 0.5270007
v -1.077226E-17 0.08796216 0.5466306
v -1.077226E-17 0.08796216 0.5466306
v -1.077226E-17 0.08796216 0.5466306
v -0.08551258 0.03858768 -0.3646641
v -0.09874485 0.08796216 -0.3646639
v -0.04937446 0.002449563 -0.3646641
v -2.286501E-17 -0.01078271 -0.3646639
v -0.0383831 0.08796215 -0.3793958
v -0.03323931 0.06877008 -0.3793959
v -0.03323931 0.06877008 -0.3793959
v -0.01919231 0.05472284 -0.3793959
v -0.01919231 0.05472284 -0.3793959
v -1.547283E-17 0.04957904 -0.3793958
v -1.077226E-17 0.08796215 -0.3740389
v -1.077226E-17 0.08796215 -0.3740389
v -1.077226E-17 0.08796215 -0.3740389
v 0.04937446 0.002449563 -0.3646641
v -2.286501E-17 -0.01078271 -0.3646639
v 0.08551271 0.03858768 -0.3646641
v 0.09874498 0.08796216 -0.3646639
v -1.547283E-17 0.04957904 -0.3793958
v 0.01919231 0.05472284 -0.3793959
v 0.01919231 0.05472284 -0.3793959
v 0.03323956 0.06876957 -0.3793959
v 0.03323956 0.06876957 -0.3793959
v 0.03838297 0.08796215 -0.3793958
v -1.077226E-17 0.08796215 -0.3740389
v -1.077226E-17 0.08796215 -0.3740389
v -1.077226E-17 0.08796215 -0.3740389
v 0.009740612 0.0710908 -0.5440419
v -1.077226E-17 0.08796214 -0.5466306
v -0.009740612 0.0710908 -0.5440419
v -0.01948122 0.08796214 -0.5440419
v 0.01948122 0.08796214 -0.5440419
v -0.01090161 0.06907988 -0.5401573
v -0.02180322 0.08796213 -0.5401573
v 0.01090174 0.06907988 -0.5401573
v 0.02180322 0.08796213 -0.5401573
v 0.008376636 0.07345334 -0.3740389
v 0.01675327 0.08796215 -0.3740389
v 0.01780717 0.08796215 -0.4593812
v 0.008903586 0.07254072 -0.4593812
v 0.02180322 0.08796213 -0.5401573
v 0.01090174 0.06907988 -0.5401573
v -0.008903459 0.07254072 -0.4593812
v 0.008903586 0.07254072 -0.4593812
v -0.008376636 0.07345334 -0.3740389
v 0.008376636 0.07345334 -0.3740389
v -0.01090161 0.06907988 -0.5401573
v -0.01675327 0.08796215 -0.3740389
v -0.008376636 0.07345334 -0.3740389
v -0.008903459 0.07254072 -0.4593812
v -0.01780717 0.08796215 -0.4593812
v -0.01090161 0.06907988 -0.5401573
v -0.02180322 0.08796213 -0.5401573
v -0.01780717 0.08796215 -0.4593812
v 0.01780717 0.08796215 -0.4593812
v 0.01675327 0.08796215 -0.3740389
v -0.01675327 0.08796215 -0.3740389
v -0.02180322 0.08796213 -0.5401573
v 0.02180322 0.08796213 -0.5401573
v -0.01948122 0.08796214 -0.5440419
v 0.01948122 0.08796214 -0.5440419
v -1.077226E-17 0.08796214 -0.5466306
v -0.3814447 0.08796215 0.2694947
v -0.4010749 0.08796214 0.1455557
v 0.4010749 0.08796214 0.1455557
v 0.3814447 0.08796215 0.2694947
v -0.3244765 0.08796215 0.3813015
v 0.3244765 0.08796215 0.3813015
v 0.2357458 0.08796215 0.4700322
v -0.2357458 0.08796215 0.4700322
v 0.123939 0.08796161 0.5270007
v -0.123939 0.08796161 0.5270007
v -1.077226E-17 0.08796216 0.5466306
v -0.3714519 0.08796215 0.02161669
v 0.3714519 0.08796215 0.02161669
v -0.3042481 0.08796215 -0.1011325
v 0.304248 0.08796215 -0.1011325
v 0.2433611 0.08796215 -0.2238817
v -0.243361 0.08796215 -0.2238817
v -1.077226E-17 0.08796214 -0.3126122
v -0.1768085 0.08796214 -0.3126122
v -0.09874485 0.08796216 -0.3646639
v 0.1768086 0.08796214 -0.3126122
v 0.09874498 0.08796216 -0.3646639
v 0.03838297 0.08796215 -0.3793958
v -0.0383831 0.08796215 -0.3793958
v -1.077226E-17 0.08796215 -0.3740389
vt 0.4496224 0.5418043
vt 0.4496224 0.5257023
vt 0.4332975 0.5256889
vt 0.4332975 0.5417927
vt 0.4169726 0.5256793
vt 0.4169726 0.541785
vt 0.4006477 0.5256734
vt 0.4006477 0.5417821
vt 0.4332975 0.5103377
vt 0.4496224 0.5103533
vt 0.4169726 0.5103273
vt 0.4006477 0.5103206
vt 0.4006477 0.4976259
vt 0.4169726 0.4976324
vt 0.4006477 0.4874586
vt 0.4169726 0.487465
vt 0.4332975 0.4976458
vt 0.4332975 0.4874745
vt 0.4496224 0.4976602
vt 0.4496224 0.4874911
vt 0.4332975 0.4775818
vt 0.4496224 0.4775951
vt 0.4169726 0.477575
vt 0.4006477 0.4775684
vt 0.4332975 0.4666843
vt 0.4496224 0.4666936
vt 0.4169726 0.4666782
vt 0.4006477 0.4666791
vt 0.4332975 0.4530894
vt 0.4496224 0.453097
vt 0.4169726 0.4530891
vt 0.4006477 0.4530901
vt 0.4332975 0.4321296
vt 0.4496224 0.4321384
vt 0.4169726 0.4321283
vt 0.4006477 0.4321283
vt 0.44146 0.4019109
vt 0.4251351 0.4018864
vt 0.4088102 0.4018632
vt 0.5965464 0.5417821
vt 0.5965464 0.5256734
vt 0.5802215 0.5256793
vt 0.5802215 0.541785
vt 0.5638966 0.5256889
vt 0.5638966 0.5417927
vt 0.5475717 0.5257023
vt 0.5475717 0.5418043
vt 0.5802215 0.5103273
vt 0.5965464 0.5103206
vt 0.5638966 0.5103377
vt 0.5475717 0.5103533
vt 0.5475717 0.4976602
vt 0.5638966 0.4976457
vt 0.5475717 0.487491
vt 0.5638966 0.4874746
vt 0.5802215 0.4976325
vt 0.5802215 0.4874648
vt 0.5965464 0.4976259
vt 0.5965464 0.4874586
vt 0.5802215 0.4775752
vt 0.5965464 0.4775684
vt 0.5638966 0.4775815
vt 0.5475717 0.4775954
vt 0.5802215 0.4666779
vt 0.5965464 0.4666791
vt 0.5638966 0.4666848
vt 0.5475717 0.4666931
vt 0.5802215 0.4530898
vt 0.5965464 0.45309
vt 0.5638966 0.4530884
vt 0.5475717 0.453098
vt 0.5802215 0.4321261
vt 0.5965464 0.4321289
vt 0.5638966 0.4321329
vt 0.5475717 0.4321349
vt 0.588384 0.4018633
vt 0.572059 0.4018864
vt 0.5557342 0.4019109
vt 0.4332975 0.562337
vt 0.4496224 0.562337
vt 0.4169726 0.5623369
vt 0.4006477 0.5623369
vt 0.4455411 0.5826449
vt 0.4373788 0.5826443
vt 0.4292162 0.5826295
vt 0.4210538 0.5826293
vt 0.4128914 0.5826059
vt 0.404729 0.5826054
vt 0.44146 0.5977113
vt 0.4251351 0.5976869
vt 0.4088102 0.5976477
vt 0.5802215 0.5623369
vt 0.5965464 0.5623369
vt 0.5638966 0.562337
vt 0.5475717 0.562337
vt 0.5924651 0.5826055
vt 0.5843027 0.582606
vt 0.5761402 0.5826293
vt 0.5679779 0.5826294
vt 0.5598155 0.5826442
vt 0.551653 0.5826449
vt 0.588384 0.5976477
vt 0.572059 0.5976871
vt 0.5557342 0.597711
vt 0.2978012 0.5973228
vt 0.2831797 0.5810564
vt 0.2685582 0.5973228
vt 0.253937 0.5810564
vt 0.3124228 0.5810564
vt 0.2668153 0.5992615
vt 0.2504513 0.5810564
vt 0.2995441 0.5992615
vt 0.315908 0.5810564
vt 0.3609893 0.4033629
vt 0.3359467 0.4033629
vt 0.335159 0.4852985
vt 0.3617767 0.4852985
vt 0.3321722 0.56285
vt 0.3647634 0.56285
vt 0.3944295 0.4852985
vt 0.3678118 0.4852985
vt 0.393642 0.4033629
vt 0.3685994 0.4033629
vt 0.3974161 0.56285
vt 0.2303344 0.4033629
vt 0.2052919 0.4033629
vt 0.2045042 0.4852985
vt 0.2311219 0.4852985
vt 0.2015174 0.56285
vt 0.2341085 0.56285
vt 0.2661431 0.4853013
vt 0.3002165 0.4853013
vt 0.2992081 0.4033629
vt 0.2671513 0.4033629
vt 0.2623199 0.5628477
vt 0.3040397 0.5628477
vt 0.2645414 0.5647902
vt 0.3018182 0.5647902
vt 0.2831797 0.5810564
vt 0.01925483 0.4606166
vt 0.01510206 0.4868357
vt 0.1847948 0.4868357
vt 0.1806422 0.4606166
vt 0.0313063 0.4369643
vt 0.1685907 0.4369643
vt 0.1498199 0.4181934
vt 0.05007705 0.4181934
vt 0.1261674 0.4061419
vt 0.07372943 0.4061419
vt 0.0999485 0.4019893
vt 0.02136871 0.5130547
vt 0.1785282 0.5130547
vt 0.03558555 0.539022
vt 0.1643113 0.539022
vt 0.1514309 0.5649893
vt 0.04846606 0.5649893
vt 0.0999485 0.58376
vt 0.06254509 0.58376
vt 0.07905921 0.5947714
vt 0.1373519 0.58376
vt 0.1208377 0.5947714
vt 0.1080683 0.5978879
vt 0.09182861 0.5978879
vt 0.0999485 0.5967547
vn -0.7207192 -0.1931407 -0.6657782
vn -0.8438257 -0.22613 -0.4866449
vn -0.7502062 -0.4331421 -0.4995784
vn -0.6361468 -0.3672888 -0.6785396
vn -0.433144 -0.7502051 -0.4995785
vn -0.3672925 -0.6361433 -0.678541
vn 0 -0.8662655 -0.499584
vn 0 -0.7345496 -0.678555
vn -0.766333 -0.4424522 -0.4658001
vn -0.8610164 -0.230724 -0.4532297
vn -0.4424527 -0.766333 -0.4657997
vn 0 -0.884892 -0.4657961
vn 0 -0.9369359 -0.3495015
vn -0.4684695 -0.8114083 -0.3495038
vn 0 -0.9992883 -0.03772244
vn -0.4996437 -0.8654092 -0.03772248
vn -0.8114083 -0.4684694 -0.3495039
vn -0.8654092 -0.4996437 -0.03772245
vn -0.9087352 -0.2434981 -0.3389822
vn -0.9652844 -0.2586471 -0.03643881
vn -0.8278884 -0.4779814 0.2934872
vn -0.9260649 -0.2481383 0.2843082
vn -0.4779815 -0.8278883 0.2934872
vn 0 -0.9559629 0.2934874
vn -0.7172278 -0.4140919 0.5604572
vn -0.8085152 -0.2166411 0.547147
vn -0.414091 -0.7172283 0.5604572
vn 0 -0.8281835 0.5604571
vn -0.54626 -0.3153833 0.7759725
vn -0.6219461 -0.16665 0.7651215
vn -0.3153833 -0.5462602 0.7759724
vn 0 -0.6307667 0.7759724
vn -0.3442201 -0.1987357 0.9176147
vn -0.3952365 -0.1059033 0.9124541
vn -0.1987351 -0.3442208 0.9176145
vn 0 -0.397472 0.9176143
vn 0 -0.1050052 0.9944717
vn 0 -0.1050052 0.9944717
vn 0 -0.1050052 0.9944717
vn 0 -0.7345496 -0.678555
vn 0 -0.8662655 -0.499584
vn 0.433144 -0.7502051 -0.4995784
vn 0.3672922 -0.6361433 -0.6785411
vn 0.7502064 -0.4331421 -0.4995781
vn 0.6361465 -0.367289 -0.6785399
vn 0.8438261 -0.22613 -0.4866444
vn 0.720719 -0.193141 -0.6657782
vn 0.4424526 -0.766333 -0.4657996
vn 0 -0.884892 -0.4657961
vn 0.7663333 -0.4424521 -0.4657999
vn 0.8610166 -0.2307237 -0.4532294
vn 0.9087352 -0.243498 -0.3389824
vn 0.8114083 -0.4684693 -0.349504
vn 0.9652844 -0.2586471 -0.03643881
vn 0.8654092 -0.4996437 -0.03772246
vn 0.4684695 -0.8114083 -0.3495038
vn 0.4996438 -0.8654092 -0.03772249
vn 0 -0.9369359 -0.3495015
vn 0 -0.9992883 -0.03772244
vn 0.4779814 -0.8278884 0.2934872
vn 0 -0.9559629 0.2934874
vn 0.8278883 -0.4779814 0.2934872
vn 0.9260649 -0.2481383 0.2843082
vn 0.414091 -0.7172283 0.5604572
vn 0 -0.8281835 0.5604571
vn 0.7172278 -0.4140919 0.5604572
vn 0.8085152 -0.216641 0.547147
vn 0.3153833 -0.5462602 0.7759724
vn 0 -0.6307667 0.7759724
vn 0.5462601 -0.3153833 0.7759725
vn 0.6219461 -0.1666501 0.7651215
vn 0.198735 -0.3442208 0.9176145
vn 0 -0.397472 0.9176143
vn 0.3442201 -0.1987358 0.9176147
vn 0.3952365 -0.1059033 0.9124541
vn 0 -0.1050052 0.9944717
vn 0 -0.1050052 0.9944717
vn 0 -0.1050052 0.9944717
vn -0.4308112 -0.2487226 -0.8674899
vn -0.4930943 -0.1321388 -0.8598822
vn -0.2487253 -0.4308047 -0.8674925
vn 0 -0.4974502 -0.8674926
vn -0.1963688 -0.05262296 -0.979117
vn -0.1702945 -0.09831727 -0.9804761
vn -0.1702945 -0.09831727 -0.9804761
vn -0.09831762 -0.170295 -0.9804761
vn -0.09831762 -0.170295 -0.9804761
vn 0 -0.1966403 -0.9804757
vn 3.783911E-07 0.09264675 -0.995699
vn 3.783911E-07 0.09264675 -0.995699
vn 3.783911E-07 0.09264675 -0.995699
vn 0.248725 -0.4308051 -0.8674922
vn 0 -0.4974502 -0.8674926
vn 0.4308113 -0.248723 -0.8674898
vn 0.4930943 -0.1321391 -0.8598822
vn 0 -0.1966403 -0.9804757
vn 0.09831683 -0.1702951 -0.9804761
vn 0.09831683 -0.1702951 -0.9804761
vn 0.1702952 -0.09831818 -0.980476
vn 0.1702952 -0.09831818 -0.980476
vn 0.1963668 -0.0526229 -0.9791174
vn 3.783911E-07 0.09264675 -0.995699
vn 3.783911E-07 0.09264675 -0.995699
vn 3.783911E-07 0.09264675 -0.995699
vn 0.2581843 -0.4471893 -0.8563659
vn 0 -0.1017597 -0.994809
vn -0.2581871 -0.4471908 -0.8563643
vn -0.4948497 -0.2856997 -0.8206701
vn 0.4948478 -0.2856935 -0.8206735
vn -0.4998668 -0.8657949 0.02307268
vn -0.8658515 -0.4999018 0.01998257
vn 0.4998687 -0.8657938 0.02307248
vn 0.8658543 -0.4998971 0.01998191
vn 0.4999625 -0.865959 0.01234753
vn 0.8659757 -0.4999717 0.0106938
vn 0.865697 -0.4998085 0.0275693
vn 0.4997477 -0.865586 0.03183028
vn 0.8658543 -0.4998971 0.01998191
vn 0.4998687 -0.8657938 0.02307248
vn -0.4997463 -0.8655868 0.03183007
vn 0.4997477 -0.865586 0.03183028
vn -0.4999621 -0.8659593 0.01234715
vn 0.4999625 -0.865959 0.01234753
vn -0.4998668 -0.8657949 0.02307268
vn -0.8659742 -0.4999743 0.01069316
vn -0.4999621 -0.8659593 0.01234715
vn -0.4997463 -0.8655868 0.03183007
vn -0.8656949 -0.4998123 0.02756901
vn -0.4998668 -0.8657949 0.02307268
vn -0.8658515 -0.4999018 0.01998257
vn 0 1 0
vn 0 1 0
vn 0 1 0
vn 0 1 0
vn 0 1 0
vn 0 1 0
vn 0 1 0
vn 0 1 0
vn 0 1 0
vn 0 1 0
vn 0 1 0
vn 0 1 0
vn 0 1 0
vn 0 1 0
vn 0 1 0
vn 0 1 6.818328E-07
vn 0 1 6.818328E-07
vn 0 1 8.709904E-06
vn 0 1 8.709904E-06
vn 0 1 -2.598048E-05
vn 0 1 0
vn 0 1 0
vn 0 1 0
vn 0 1 0
vn 0 1 0
vn 0 1 0
vn 0 1 0
vn 0 1 0
vn 0 1 0
vn 0 1 0
vn 0 1 0
vn 0 1 0
vn 0 1 0
vn 0 1 0
g Pear_Half_Back_0
f 3/3/3 2/2/2 1/1/1
f 4/4/4 3/3/3 1/1/1
f 5/5/5 3/3/3 4/4/4
f 6/6/6 5/5/5 4/4/4
f 7/7/7 5/5/5 6/6/6
f 8/8/8 7/7/7 6/6/6
f 3/3/3 9/9/9 2/2/2
f 9/9/9 10/10/10 2/2/2
f 11/11/11 9/9/9 3/3/3
f 5/5/5 11/11/11 3/3/3
f 12/12/12 11/11/11 5/5/5
f 7/7/7 12/12/12 5/5/5
f 12/12/12 13/13/13 11/11/11
f 13/13/13 14/14/14 11/11/11
f 11/11/11 14/14/14 9/9/9
f 13/13/13 15/15/15 14/14/14
f 15/15/15 16/16/16 14/14/14
f 14/14/14 16/16/16 17/17/17
f 14/14/14 17/17/17 9/9/9
f 9/9/9 17/17/17 10/10/10
f 16/16/16 18/18/18 17/17/17
f 17/17/17 18/18/18 19/19/19
f 17/17/17 19/19/19 10/10/10
f 18/18/18 20/20/20 19/19/19
f 18/18/18 21/21/21 20/20/20
f 21/21/21 22/22/22 20/20/20
f 23/23/23 21/21/21 18/18/18
f 16/16/16 23/23/23 18/18/18
f 24/24/24 23/23/23 16/16/16
f 15/15/15 24/24/24 16/16/16
f 21/21/21 25/25/25 22/22/22
f 25/25/25 26/26/26 22/22/22
f 27/27/27 25/25/25 21/21/21
f 23/23/23 27/27/27 21/21/21
f 28/28/28 27/27/27 23/23/23
f 24/24/24 28/28/28 23/23/23
f 25/25/25 29/29/29 26/26/26
f 29/29/29 30/30/30 26/26/26
f 31/31/31 29/29/29 25/25/25
f 27/27/27 31/31/31 25/25/25
f 32/32/32 31/31/31 27/27/27
f 28/28/28 32/32/32 27/27/27
f 29/29/29 33/33/33 30/30/30
f 33/33/33 34/34/34 30/30/30
f 35/35/35 33/33/33 29/29/29
f 31/31/31 35/35/35 29/29/29
f 36/36/36 35/35/35 31/31/31
f 32/32/32 36/36/36 31/31/31
f 33/33/33 37/37/37 34/34/34
f 35/35/35 38/38/38 33/33/33
f 36/36/36 39/39/39 35/35/35
f 42/42/42 41/41/41 40/40/40
f 43/43/43 42/42/42 40/40/40
f 44/44/44 42/42/42 43/43/43
f 45/45/45 44/44/44 43/43/43
f 46/46/46 44/44/44 45/45/45
f 47/47/47 46/46/46 45/45/45
f 42/42/42 48/48/48 41/41/41
f 48/48/48 49/49/49 41/41/41
f 50/50/50 48/48/48 42/42/42
f 44/44/44 50/50/50 42/42/42
f 51/51/51 50/50/50 44/44/44
f 46/46/46 51/51/51 44/44/44
f 51/51/51 52/52/52 50/50/50
f 52/52/52 53/53/53 50/50/50
f 50/50/50 53/53/53 48/48/48
f 52/52/52 54/54/54 53/53/53
f 54/54/54 55/55/55 53/53/53
f 53/53/53 55/55/55 56/56/56
f 53/53/53 56/56/56 48/48/48
f 48/48/48 56/56/56 49/49/49
f 55/55/55 57/57/57 56/56/56
f 56/56/56 57/57/57 58/58/58
f 56/56/56 58/58/58 49/49/49
f 57/57/57 59/59/59 58/58/58
f 57/57/57 60/60/60 59/59/59
f 60/60/60 61/61/61 59/59/59
f 62/62/62 60/60/60 57/57/57
f 55/55/55 62/62/62 57/57/57
f 63/63/63 62/62/62 55/55/55
f 54/54/54 63/63/63 55/55/55
f 60/60/60 64/64/64 61/61/61
f 64/64/64 65/65/65 61/61/61
f 66/66/66 64/64/64 60/60/60
f 62/62/62 66/66/66 60/60/60
f 67/67/67 66/66/66 62/62/62
f 63/63/63 67/67/67 62/62/62
f 64/64/64 68/68/68 65/65/65
f 68/68/68 69/69/69 65/65/65
f 70/70/70 68/68/68 64/64/64
f 66/66/66 70/70/70 64/64/64
f 71/71/71 70/70/70 66/66/66
f 67/67/67 71/71/71 66/66/66
f 68/68/68 72/72/72 69/69/69
f 72/72/72 73/73/73 69/69/69
f 74/74/74 72/72/72 68/68/68
f 70/70/70 74/74/74 68/68/68
f 75/75/75 74/74/74 70/70/70
f 71/71/71 75/75/75 70/70/70
f 72/72/72 76/76/76 73/73/73
f 74/74/74 77/77/77 72/72/72
f 75/75/75 78/78/78 74/74/74
f 79/79/79 4/4/4 1/1/1
f 80/80/80 79/79/79 1/1/1
f 79/79/79 81/81/81 4/4/4
f 81/81/81 6/6/6 4/4/4
f 81/81/81 82/82/82 6/6/6
f 82/82/82 8/8/8 6/6/6
f 79/79/79 80/80/80 83/83/83
f 84/84/84 79/79/79 83/83/83
f 81/81/81 79/79/79 85/85/85
f 86/86/86 81/81/81 85/85/85
f 82/82/82 81/81/81 87/87/87
f 88/88/88 82/82/82 87/87/87
f 83/83/83 89/89/89 84/84/84
f 85/85/85 90/90/90 86/86/86
f 87/87/87 91/91/91 88/88/88
f 92/92/92 43/43/43 40/40/40
f 93/93/93 92/92/92 40/40/40
f 92/92/92 94/94/94 43/43/43
f 94/94/94 45/45/45 43/43/43
f 94/94/94 95/95/95 45/45/45
f 95/95/95 47/47/47 45/45/45
f 92/92/92 93/93/93 96/96/96
f 97/97/97 92/92/92 96/96/96
f 94/94/94 92/92/92 98/98/98
f 99/99/99 94/94/94 98/98/98
f 95/95/95 94/94/94 100/100/100
f 101/101/101 95/95/95 100/100/100
f 96/96/96 102/102/102 97/97/97
f 98/98/98 103/103/103 99/99/99
f 100/100/100 104/104/104 101/101/101
f 107/107/107 106/106/106 105/105/105
f 108/108/108 106/106/106 107/107/107
f 105/105/105 106/106/106 109/109/109
f 108/108/108 107/107/107 110/110/110
f 111/111/111 108/108/108 110/110/110
f 107/107/107 105/105/105 112/112/112
f 110/110/110 107/107/107 112/112/112
f 105/105/105 109/109/109 113/113/113
f 112/112/112 105/105/105 113/113/113
f 116/116/116 115/115/115 114/114/114
f 117/117/117 116/116/116 114/114/114
f 118/118/118 116/116/116 117/117/117
f 119/119/119 118/118/118 117/117/117
f 119/119/119 121/121/121 120/120/120
f 120/120/120 121/121/121 122/122/122
f 121/121/121 123/123/123 122/122/122
f 124/124/124 119/119/119 120/120/120
f 127/127/127 126/126/126 125/125/125
f 128/128/128 127/127/127 125/125/125
f 129/129/129 127/127/127 128/128/128
f 130/130/130 129/129/129 128/128/128
f 133/133/133 132/132/132 131/131/131
f 134/134/134 133/133/133 131/131/131
f 131/131/131 132/132/132 135/135/135
f 132/132/132 136/136/136 135/135/135
f 135/135/135 136/136/136 137/137/137
f 136/136/136 138/138/138 137/137/137
f 137/137/137 138/138/138 139/139/139
f 142/142/142 141/141/141 140/140/140
f 143/143/143 142/142/142 140/140/140
f 143/143/143 140/140/140 144/144/144
f 145/145/145 143/143/143 144/144/144
f 145/145/145 144/144/144 146/146/146
f 144/144/144 147/147/147 146/146/146
f 146/146/146 147/147/147 148/148/148
f 147/147/147 149/149/149 148/148/148
f 150/150/150 148/148/148 149/149/149
f 141/141/141 142/142/142 151/151/151
f 142/142/142 152/152/152 151/151/151
f 151/151/151 152/152/152 153/153/153
f 152/152/152 154/154/154 153/153/153
f 154/154/154 155/155/155 153/153/153
f 155/155/155 156/156/156 153/153/153
f 157/157/157 156/156/156 155/155/155
f 157/157/157 158/158/158 156/156/156
f 159/159/159 158/158/158 157/157/157
f 155/155/155 160/160/160 157/157/157
f 157/157/157 160/160/160 161/161/161
f 157/157/157 161/161/161 162/162/162
f 163/163/163 159/159/159 157/157/157
f 164/164/164 163/163/163 157/157/157
f 162/162/162 164/164/164 157/157/157
