g Plate_01
v 0 -0.07678345 -0.3259962
v 0.1247533 -0.07678345 -0.3011813
v 0.1556691 0.07678345 -0.3758186
v 0 0.07678345 -0.4067832
v 0.2876391 0.07678345 -0.2876391
v 0.230514 -0.07678345 -0.2305141
v 0.3758187 0.07678345 -0.1556691
v 0.3011812 -0.07678345 -0.1247534
v -0.1247533 -0.07678345 -0.3011813
v -0.1556691 0.07678345 -0.3758188
v -0.230514 -0.07678345 -0.2305142
v -0.2876391 0.07678345 -0.2876392
v -0.3011812 -0.07678345 -0.1247534
v -0.3758187 0.07678345 -0.1556692
v 0.3011812 -0.07678345 -0.1247534
v 0.3259963 -0.07678345 3.603023E-08
v 0.4067833 0.07678345 4.697092E-08
v 0.3758187 0.07678345 -0.1556691
v 0.3758187 0.07678345 0.1556692
v 0.3011812 -0.07678345 0.1247534
v 0.2876391 0.07678345 0.2876391
v 0.230514 -0.07678345 0.2305141
v 0.1556691 0.07678345 0.3758187
v 0.1247535 -0.07678345 0.3011813
v 0.1247535 -0.07678345 0.3011813
v 0 -0.07678345 0.3259963
v 0 0.07678345 0.4067832
v 0.1556691 0.07678345 0.3758187
v -0.1556691 0.07678345 0.3758187
v -0.1247533 -0.07678345 0.3011813
v -0.2876391 0.07678345 0.2876392
v -0.230514 -0.07678345 0.2305143
v -0.3758187 0.07678345 0.1556693
v -0.3011812 -0.07678345 0.1247534
v -0.3011812 -0.07678345 0.1247534
v -0.3259962 -0.07678345 1.789303E-08
v -0.4067833 0.07678345 2.433901E-08
v -0.3758187 0.07678345 0.1556693
v -0.3758187 0.07678345 -0.1556692
v -0.3011812 -0.07678345 -0.1247534
v 0.1247533 -0.07678345 -0.3011813
v 0 -0.07678345 -0.3259962
v -0.1247533 -0.07678345 -0.3011813
v -0.230514 -0.07678345 -0.2305142
v 0.230514 -0.07678345 -0.2305141
v -0.3011812 -0.07678345 -0.1247534
v 0.3011812 -0.07678345 -0.1247534
v -0.3259962 -0.07678345 1.789303E-08
v 0.3259963 -0.07678345 3.603023E-08
v -0.3011812 -0.07678345 0.1247534
v 0.3011812 -0.07678345 0.1247534
v 0.230514 -0.07678345 0.2305141
v -0.230514 -0.07678345 0.2305143
v 0.1247535 -0.07678345 0.3011813
v -0.1247533 -0.07678345 0.3011813
v 0 -0.07678345 0.3259963
v 0.3758187 0.07678345 0.1556692
v 0.3526681 0.07678345 0.14608
v 0.3817252 0.07678345 3.990136E-08
v 0.4067833 0.07678345 4.697092E-08
v 0.2876391 0.07678345 0.2876391
v 0.2699206 0.07678345 0.2699206
v 0.3526681 0.07678345 -0.1460799
v 0.3758187 0.07678345 -0.1556691
v 0.2699206 0.07678345 -0.2699205
v 0.2876391 0.07678345 -0.2876391
v 0.1460799 0.07678345 -0.3526682
v 0.1556691 0.07678345 -0.3758186
v 0 0.07678345 -0.3817253
v 0 0.07678345 -0.4067832
v -0.1460797 0.07678345 -0.3526683
v -0.1556691 0.07678345 -0.3758188
v -0.2699204 0.07678345 -0.2699206
v -0.2876391 0.07678345 -0.2876392
v -0.3526681 0.07678345 -0.14608
v -0.3758187 0.07678345 -0.1556692
v -0.3817253 0.07678345 1.866357E-08
v -0.4067833 0.07678345 2.433901E-08
v -0.3526681 0.07678345 0.14608
v -0.3758187 0.07678345 0.1556693
v -0.2699204 0.07678345 0.2699206
v -0.2876391 0.07678345 0.2876392
v -0.1460799 0.07678345 0.3526682
v -0.1556691 0.07678345 0.3758187
v 0 0.07678345 0.3817253
v 0 0.07678345 0.4067832
v 0.1460799 0.07678345 0.3526682
v 0.1556691 0.07678345 0.3758187
v 0.3817252 0.07678345 3.990136E-08
v 0.3594794 0.02986145 3.36251E-08
v 0.3321156 0.02986145 -0.1375668
v 0.3526681 0.07678345 -0.1460799
v 0.3526681 0.07678345 0.14608
v 0.3321156 0.02986145 0.1375669
v 0.2699206 0.07678345 0.2699206
v 0.2541903 0.02986145 0.2541903
v 0.1460799 0.07678345 0.3526682
v 0.1375668 0.02986145 0.3321157
v 0.2541903 0.02986145 -0.2541904
v 0.2699206 0.07678345 -0.2699205
v 0.1375668 0.02986145 -0.3321157
v 0.1460799 0.07678345 -0.3526682
v -0.3817253 0.07678345 1.866357E-08
v -0.3594794 0.02986145 1.362499E-08
v -0.3321158 0.02986145 0.1375669
v -0.3526681 0.07678345 0.14608
v -0.3526681 0.07678345 -0.14608
v -0.3321157 0.02986145 -0.1375668
v -0.2699204 0.07678345 -0.2699206
v -0.2541903 0.02986145 -0.2541904
v -0.1460797 0.07678345 -0.3526683
v -0.1375666 0.02986145 -0.3321157
v -0.2541903 0.02986145 0.2541904
v -0.2699204 0.07678345 0.2699206
v -0.1375668 0.02986145 0.3321157
v -0.1460799 0.07678345 0.3526682
v 0 0.07678345 -0.3817253
v -0.1375666 0.02986145 -0.3321157
v 0 0.02986145 -0.3594794
v 0.1460799 0.07678345 -0.3526682
v 0.1375668 0.02986145 -0.3321157
v 0 0.07678345 0.3817253
v 0 0.02986145 0.3594794
v 0.1375668 0.02986145 0.3321157
v 0.1460799 0.07678345 0.3526682
v -0.1460799 0.07678345 0.3526682
v -0.1375668 0.02986145 0.3321157
v -0.1375666 0.02986145 -0.3321157
v 0 0.02986145 -0.3594794
v 0.1375668 0.02986145 -0.3321157
v -0.2541903 0.02986145 -0.2541904
v 0.2541903 0.02986145 -0.2541904
v -0.3321157 0.02986145 -0.1375668
v 0.3321156 0.02986145 -0.1375668
v -0.3594794 0.02986145 1.362499E-08
v 0.3594794 0.02986145 3.36251E-08
v -0.3321158 0.02986145 0.1375669
v 0.3321156 0.02986145 0.1375669
v 0.2541903 0.02986145 0.2541903
v -0.2541903 0.02986145 0.2541904
v 0.1375668 0.02986145 0.3321157
v -0.1375668 0.02986145 0.3321157
v 0 0.02986145 0.3594794
vt 0.2757585 0.3858585
vt 0.2757585 0.385814
vt 0.2757307 0.3858094
vt 0.2757307 0.3858585
vt 0.2757307 0.3857677
vt 0.2757585 0.3857761
vt 0.2757307 0.3857399
vt 0.2757585 0.3857509
vt 0.2757585 0.3859032
vt 0.2757307 0.3859077
vt 0.2757585 0.385941
vt 0.2757307 0.3859494
vt 0.2757585 0.3859663
vt 0.2757307 0.3859773
vt 0.2757106 0.3860037
vt 0.2757106 0.3860483
vt 0.2757385 0.3860483
vt 0.2757385 0.3859991
vt 0.2757385 0.3860974
vt 0.2757106 0.3860929
vt 0.2757385 0.3861391
vt 0.2757106 0.3861307
vt 0.2757385 0.386167
vt 0.2757106 0.386156
vt 0.275742 0.3859841
vt 0.275742 0.3860287
vt 0.2757698 0.3860287
vt 0.2757698 0.3859796
vt 0.2757698 0.3860779
vt 0.275742 0.3860733
vt 0.2757698 0.3861196
vt 0.275742 0.3861111
vt 0.2757698 0.3861474
vt 0.275742 0.3861364
vt 0.2756793 0.3860037
vt 0.2756793 0.3860483
vt 0.2757072 0.3860483
vt 0.2757072 0.3859991
vt 0.2757072 0.3860974
vt 0.2756793 0.3860929
vt 0.6064085 0.4769992
vt 0.6064084 0.4769992
vt 0.6064082 0.4769992
vt 0.6064081 0.4769994
vt 0.6064087 0.4769994
vt 0.6064079 0.4769995
vt 0.6064088 0.4769995
vt 0.6064079 0.4769997
vt 0.6064089 0.4769997
vt 0.6064079 0.4769999
vt 0.6064088 0.4769999
vt 0.6064087 0.4770001
vt 0.6064081 0.4770001
vt 0.6064085 0.4770002
vt 0.6064082 0.4770002
vt 0.6064084 0.4770002
vt 0.7846554 0.7831815
vt 0.7846553 0.7831815
vt 0.7846555 0.7831818
vt 0.7846555 0.7831818
vt 0.7846553 0.7831813
vt 0.7846553 0.7831814
vt 0.7846553 0.7831819
vt 0.7846554 0.7831819
vt 0.7846553 0.7831821
vt 0.7846553 0.7831821
vt 0.7846551 0.7831821
vt 0.7846551 0.7831821
vt 0.7846549 0.7831822
vt 0.7846549 0.7831823
vt 0.7846547 0.7831821
vt 0.7846547 0.7831821
vt 0.7846546 0.7831821
vt 0.7846545 0.7831821
vt 0.7846544 0.7831819
vt 0.7846544 0.7831819
vt 0.7846544 0.7831818
vt 0.7846544 0.7831818
vt 0.7846544 0.7831815
vt 0.7846544 0.7831815
vt 0.7846546 0.7831814
vt 0.7846545 0.7831813
vt 0.7846547 0.7831813
vt 0.7846547 0.7831813
vt 0.7846549 0.7831813
vt 0.7846549 0.7831812
vt 0.7846551 0.7831813
vt 0.7846551 0.7831813
vt 0.7846553 0.7831827
vt 0.7846552 0.7831827
vt 0.7846552 0.7831829
vt 0.7846553 0.7831829
vt 0.7846553 0.7831826
vt 0.7846552 0.7831826
vt 0.7846553 0.7831824
vt 0.7846552 0.7831824
vt 0.7846553 0.7831823
vt 0.7846552 0.7831823
vt 0.7846552 0.783183
vt 0.7846553 0.7831831
vt 0.7846552 0.7831831
vt 0.7846553 0.7831832
vt 0.7846552 0.7831827
vt 0.7846551 0.7831827
vt 0.7846551 0.7831829
vt 0.7846552 0.7831829
vt 0.7846552 0.7831826
vt 0.7846551 0.7831826
vt 0.7846552 0.7831824
vt 0.7846551 0.7831824
vt 0.7846552 0.7831823
vt 0.7846551 0.7831823
vt 0.7846551 0.783183
vt 0.7846552 0.7831831
vt 0.7846551 0.7831831
vt 0.7846552 0.7831832
vt 0.7846551 0.7831824
vt 0.784655 0.7831826
vt 0.784655 0.7831824
vt 0.7846551 0.7831823
vt 0.784655 0.7831823
vt 0.7846551 0.7831824
vt 0.7846551 0.7831824
vt 0.7846551 0.7831823
vt 0.7846551 0.7831823
vt 0.7846551 0.7831826
vt 0.7846551 0.7831826
vt 0.2758801 0.3861938
vt 0.2759236 0.3862024
vt 0.275967 0.3861938
vt 0.2758432 0.3861691
vt 0.2760038 0.3861691
vt 0.2758186 0.3861323
vt 0.2760284 0.3861323
vt 0.27581 0.3860888
vt 0.2760371 0.3860888
vt 0.2758186 0.3860454
vt 0.2760284 0.3860454
vt 0.2760038 0.3860086
vt 0.2758432 0.3860086
vt 0.275967 0.3859839
vt 0.2758801 0.3859839
vt 0.2759236 0.3859753
vn 2.666397E-07 -0.3930456 -0.919519
vn 0.3518847 -0.3930454 -0.8495249
vn 0.3518847 -0.3930454 -0.8495249
vn 2.534795E-07 -0.3930456 -0.919519
vn 0.6501982 -0.3930454 -0.6501981
vn 0.6501982 -0.3930455 -0.6501982
vn 0.8495249 -0.3930453 -0.3518847
vn 0.8495249 -0.3930453 -0.3518848
vn -0.3518844 -0.3930456 -0.8495249
vn -0.3518843 -0.3930456 -0.8495249
vn -0.650198 -0.3930453 -0.6501983
vn -0.650198 -0.3930453 -0.6501983
vn -0.8495247 -0.3930455 -0.351885
vn -0.8495247 -0.3930455 -0.3518849
vn 0.8495249 -0.3930453 -0.3518848
vn 0.9195191 -0.3930452 0
vn 0.9195191 -0.3930452 0
vn 0.8495249 -0.3930453 -0.3518847
vn 0.8495248 -0.3930453 0.3518848
vn 0.8495248 -0.3930453 0.3518848
vn 0.6501982 -0.3930455 0.6501981
vn 0.6501982 -0.3930455 0.6501982
vn 0.3518848 -0.3930455 0.8495248
vn 0.3518849 -0.3930455 0.8495248
vn 0.3518849 -0.3930455 0.8495248
vn 1.746949E-07 -0.3930452 0.9195191
vn 1.825052E-07 -0.3930452 0.9195191
vn 0.3518848 -0.3930455 0.8495248
vn -0.3518846 -0.3930452 0.849525
vn -0.3518846 -0.3930452 0.849525
vn -0.650198 -0.3930454 0.6501984
vn -0.6501979 -0.3930454 0.6501983
vn -0.8495248 -0.3930453 0.3518848
vn -0.8495248 -0.3930453 0.3518848
vn -0.8495248 -0.3930453 0.3518848
vn -0.9195191 -0.3930455 0
vn -0.9195191 -0.3930454 0
vn -0.8495248 -0.3930453 0.3518848
vn -0.8495247 -0.3930455 -0.3518849
vn -0.8495247 -0.3930455 -0.351885
vn 0 -1 0
vn 0 -1 0
vn 0 -1 0
vn 0 -1 0
vn 0 -1 0
vn 0 -1 0
vn 0 -1 0
vn 0 -1 0
vn 0 -1 0
vn 0 -1 0
vn 0 -1 0
vn 0 -1 0
vn 0 -1 0
vn 0 -1 0
vn 0 -1 0
vn 0 -1 0
vn 0 1 0
vn 0 1 0
vn 0 1 0
vn 0 1 0
vn 0 1 0
vn 0 1 0
vn 0 1 0
vn 0 1 0
vn 0 1 0
vn 0 1 0
vn 0 1 0
vn 0 1 0
vn 0 1 0
vn 0 1 0
vn 0 1 1.317238E-07
vn 0 1 1.317238E-07
vn 0 1 1.317239E-07
vn 0 1 1.317238E-07
vn 0 1 0
vn 0 1 0
vn 0 1 0
vn 0 1 0
vn 0 1 0
vn 0 1 0
vn 0 1 -1.323135E-07
vn 0 1 -1.323135E-07
vn 0 1 -2.203261E-07
vn 0 1 -2.203262E-07
vn 0 1 -1.323136E-07
vn 0 1 -1.323136E-07
vn 0 1 0
vn 0 1 0
vn -0.9035853 0.4284083 0
vn -0.9035853 0.4284084 0
vn -0.8348041 0.4284079 0.3457871
vn -0.8348041 0.4284079 0.3457871
vn -0.8348039 0.4284083 -0.3457871
vn -0.834804 0.4284083 -0.3457871
vn -0.6389312 0.4284079 -0.6389316
vn -0.6389312 0.4284079 -0.6389315
vn -0.3457872 0.4284078 -0.8348042
vn -0.3457873 0.4284078 -0.8348041
vn -0.6389316 0.4284075 0.6389315
vn -0.6389315 0.4284075 0.6389315
vn -0.3457872 0.4284074 0.8348043
vn -0.3457872 0.4284074 0.8348043
vn 0.9035857 0.4284073 0
vn 0.9035857 0.4284074 0
vn 0.8348044 0.4284072 -0.3457874
vn 0.8348044 0.4284072 -0.3457874
vn 0.8348042 0.4284075 0.3457875
vn 0.8348042 0.4284075 0.3457875
vn 0.6389313 0.4284076 0.6389318
vn 0.6389313 0.4284076 0.6389318
vn 0.345787 0.4284078 0.8348042
vn 0.3457871 0.4284078 0.8348042
vn 0.6389313 0.4284076 -0.6389318
vn 0.6389313 0.4284076 -0.6389318
vn 0.3457869 0.428408 -0.8348042
vn 0.3457868 0.4284079 -0.8348042
vn 0 0.4284076 0.9035856
vn 0.3457871 0.4284078 0.8348042
vn 0 0.4284076 0.9035856
vn -0.3457872 0.4284074 0.8348043
vn -0.3457872 0.4284074 0.8348043
vn -1.73072E-07 0.4284081 -0.9035853
vn -1.647165E-07 0.4284081 -0.9035853
vn -0.3457873 0.4284078 -0.8348041
vn -0.3457872 0.4284078 -0.8348042
vn 0.3457868 0.4284079 -0.8348042
vn 0.3457869 0.428408 -0.8348042
vn 0 1 0
vn 0 1 0
vn 0 1 0
vn 0 1 0
vn 0 1 0
vn 0 1 0
vn 0 1 0
vn 0 1 0
vn 0 1 0
vn 0 1 0
vn 0 1 0
vn 0 1 0
vn 0 1 0
vn 0 1 0
vn 0 1 0
vn 0 1 0
g Plate_01_0
f 3/3/3 2/2/2 1/1/1
f 4/4/4 3/3/3 1/1/1
f 3/3/3 5/5/5 2/2/2
f 5/5/5 6/6/6 2/2/2
f 5/5/5 7/7/7 6/6/6
f 7/7/7 8/8/8 6/6/6
f 4/4/4 1/1/1 9/9/9
f 10/10/10 4/4/4 9/9/9
f 10/10/10 9/9/9 11/11/11
f 12/12/12 10/10/10 11/11/11
f 12/12/12 11/11/11 13/13/13
f 14/14/14 12/12/12 13/13/13
f 17/17/17 16/16/16 15/15/15
f 18/18/18 17/17/17 15/15/15
f 17/17/17 19/19/19 16/16/16
f 19/19/19 20/20/20 16/16/16
f 19/19/19 21/21/21 20/20/20
f 21/21/21 22/22/22 20/20/20
f 21/21/21 23/23/23 22/22/22
f 23/23/23 24/24/24 22/22/22
f 27/27/27 26/26/26 25/25/25
f 28/28/28 27/27/27 25/25/25
f 27/27/27 29/29/29 26/26/26
f 29/29/29 30/30/30 26/26/26
f 29/29/29 31/31/31 30/30/30
f 31/31/31 32/32/32 30/30/30
f 31/31/31 33/33/33 32/32/32
f 33/33/33 34/34/34 32/32/32
f 37/37/37 36/36/36 35/35/35
f 38/38/38 37/37/37 35/35/35
f 37/37/37 39/39/39 36/36/36
f 39/39/39 40/40/40 36/36/36
f 43/43/43 42/42/42 41/41/41
f 41/41/41 44/44/44 43/43/43
f 41/41/41 45/45/45 44/44/44
f 45/45/45 46/46/46 44/44/44
f 45/45/45 47/47/47 46/46/46
f 47/47/47 48/48/48 46/46/46
f 47/47/47 49/49/49 48/48/48
f 49/49/49 50/50/50 48/48/48
f 49/49/49 51/51/51 50/50/50
f 51/51/51 52/52/52 50/50/50
f 52/52/52 53/53/53 50/50/50
f 52/52/52 54/54/54 53/53/53
f 54/54/54 55/55/55 53/53/53
f 54/54/54 56/56/56 55/55/55
f 59/59/59 58/58/58 57/57/57
f 60/60/60 59/59/59 57/57/57
f 57/57/57 58/58/58 61/61/61
f 58/58/58 62/62/62 61/61/61
f 63/63/63 59/59/59 60/60/60
f 64/64/64 63/63/63 60/60/60
f 65/65/65 63/63/63 64/64/64
f 66/66/66 65/65/65 64/64/64
f 67/67/67 65/65/65 66/66/66
f 68/68/68 67/67/67 66/66/66
f 69/69/69 67/67/67 68/68/68
f 70/70/70 69/69/69 68/68/68
f 71/71/71 69/69/69 70/70/70
f 72/72/72 71/71/71 70/70/70
f 73/73/73 71/71/71 72/72/72
f 74/74/74 73/73/73 72/72/72
f 75/75/75 73/73/73 74/74/74
f 76/76/76 75/75/75 74/74/74
f 77/77/77 75/75/75 76/76/76
f 78/78/78 77/77/77 76/76/76
f 79/79/79 77/77/77 78/78/78
f 80/80/80 79/79/79 78/78/78
f 81/81/81 79/79/79 80/80/80
f 82/82/82 81/81/81 80/80/80
f 83/83/83 81/81/81 82/82/82
f 84/84/84 83/83/83 82/82/82
f 85/85/85 83/83/83 84/84/84
f 86/86/86 85/85/85 84/84/84
f 87/87/87 85/85/85 86/86/86
f 88/88/88 87/87/87 86/86/86
f 62/62/62 87/87/87 88/88/88
f 61/61/61 62/62/62 88/88/88
f 91/91/91 90/90/90 89/89/89
f 92/92/92 91/91/91 89/89/89
f 89/89/89 90/90/90 93/93/93
f 90/90/90 94/94/94 93/93/93
f 93/93/93 94/94/94 95/95/95
f 94/94/94 96/96/96 95/95/95
f 95/95/95 96/96/96 97/97/97
f 96/96/96 98/98/98 97/97/97
f 99/99/99 91/91/91 92/92/92
f 100/100/100 99/99/99 92/92/92
f 101/101/101 99/99/99 100/100/100
f 102/102/102 101/101/101 100/100/100
f 105/105/105 104/104/104 103/103/103
f 106/106/106 105/105/105 103/103/103
f 103/103/103 104/104/104 107/107/107
f 104/104/104 108/108/108 107/107/107
f 107/107/107 108/108/108 109/109/109
f 108/108/108 110/110/110 109/109/109
f 109/109/109 110/110/110 111/111/111
f 110/110/110 112/112/112 111/111/111
f 113/113/113 105/105/105 106/106/106
f 114/114/114 113/113/113 106/106/106
f 115/115/115 113/113/113 114/114/114
f 116/116/116 115/115/115 114/114/114
f 111/111/111 118/118/118 117/117/117
f 118/118/118 119/119/119 117/117/117
f 117/117/117 119/119/119 120/120/120
f 119/119/119 121/121/121 120/120/120
f 124/124/124 123/123/123 122/122/122
f 125/125/125 124/124/124 122/122/122
f 122/122/122 123/123/123 126/126/126
f 123/123/123 127/127/127 126/126/126
f 130/130/130 129/129/129 128/128/128
f 128/128/128 131/131/131 130/130/130
f 131/131/131 132/132/132 130/130/130
f 131/131/131 133/133/133 132/132/132
f 133/133/133 134/134/134 132/132/132
f 133/133/133 135/135/135 134/134/134
f 135/135/135 136/136/136 134/134/134
f 135/135/135 137/137/137 136/136/136
f 137/137/137 138/138/138 136/136/136
f 137/137/137 139/139/139 138/138/138
f 137/137/137 140/140/140 139/139/139
f 140/140/140 141/141/141 139/139/139
f 140/140/140 142/142/142 141/141/141
f 142/142/142 143/143/143 141/141/141
