g Pomegranate_Half_Front
v -0.499015 0.08448373 0.0304619
v 0.499015 0.08448373 0.0304619
v 0.4745913 0.08448372 0.1769559
v -0.4745913 0.08448372 0.1769559
v 0.4037117 0.08448372 0.3091099
v -0.4037117 0.08448372 0.3091099
v 0.2933136 0.08448372 0.4139881
v -0.2933136 0.08448372 0.4139881
v 0.1542042 0.08448372 0.481324
v -0.1542042 0.08448372 0.481324
v 1.942689E-24 0.0844837 0.5045261
v -0.474585 0.08448372 -0.0947798
v 0.474585 0.08448372 -0.0947798
v -0.4141451 0.08448373 -0.1915922
v 0.4141451 0.08448373 -0.1915922
v -0.3290039 0.08448372 -0.2744103
v 0.3290039 0.08448372 -0.2744103
v -0.2305687 0.08448371 -0.3282102
v 0.2305687 0.08448371 -0.3282102
v -0.1556713 0.08448372 -0.3558039
v 0.1556713 0.08448372 -0.3558039
v -0.1215951 0.08448371 -0.3662708
v 0.1215951 0.08448371 -0.3662708
v -0.1067388 0.08448355 -0.3828033
v 0.1067388 0.08448387 -0.3828033
v 0.1031512 0.08448387 -0.4008709
v -0.1031512 0.08448355 -0.4008709
v 1.586326E-07 0.08448324 -0.4561107
v -0.0805944 0.08448355 -0.4561107
v -0.1169148 0.08448353 -0.4341687
v -0.1737493 0.08448325 -0.504526
v 0.0805944 0.08448385 -0.4561107
v 0.1169148 0.08448385 -0.4341687
v 0.1737493 0.0844842 -0.5045261
v 0.06026706 0.08448374 -0.4680867
v 0.03013337 0.08448374 -0.4755758
v 0 0.08448372 -0.4781685
v -0.03013337 0.08448374 -0.4755758
v -0.06026706 0.08448374 -0.4680867
v -0.06979644 0.04418653 -0.4561108
v -0.08687419 -0.06598719 -0.504526
v -0.04029681 0.01468727 -0.4561107
v -0.1012507 0.02602664 -0.4502395
v 9.8699E-18 0.003889887 -0.4561107
v 1.431781E-17 -0.03243008 -0.4502395
v -0.1737493 0.08448325 -0.504526
v -0.0805944 0.08448355 -0.4561107
v 0.08687419 -0.06598753 -0.5045258
v 0.04029712 0.01468727 -0.4561107
v 0.06979644 0.04418682 -0.4561107
v 0.1012507 0.02602697 -0.4502395
v 0.1737493 0.0844842 -0.5045261
v 0.0805944 0.08448385 -0.4561107
v -0.03013337 0.08448374 -0.4755758
v -0.06026706 0.08448374 -0.4680867
v -0.05219235 0.05435058 -0.4680867
v -0.02609601 0.06941723 -0.4755757
v -0.03013353 0.03229158 -0.4680867
v -0.01506661 0.05838766 -0.4755758
v 7.380499E-18 0.0242174 -0.4680867
v 3.690248E-18 0.05435057 -0.4755757
v 0.03013321 0.03229158 -0.4680867
v 0.01506692 0.05838766 -0.4755758
v 0.05219266 0.05435058 -0.4680867
v 0.0260957 0.06941725 -0.4755758
v 0.06026706 0.08448374 -0.4680867
v 0.03013337 0.08448374 -0.4755758
v -0.0805944 0.08448355 -0.4561107
v -0.06979644 0.04418653 -0.4561108
v -0.04029681 0.01468727 -0.4561107
v 9.8699E-18 0.003889887 -0.4561107
v 0.04029712 0.01468727 -0.4561107
v 0.06979644 0.04418682 -0.4561107
v 0.0805944 0.08448385 -0.4561107
v 0 0.08448372 -0.4781685
v -0.1645017 -0.2004412 -0.2744104
v -0.115284 -0.1151938 -0.3282104
v -0.1996778 -0.03080029 -0.3282104
v -0.2849251 -0.08001781 -0.2744104
v 4.029134E-17 -0.24452 -0.2744103
v 2.823648E-17 -0.1460847 -0.3282102
v 0.164502 -0.2004412 -0.2744104
v 0.115284 -0.1151938 -0.3282104
v 0.2849251 -0.08001781 -0.2744104
v 0.1996778 -0.03080029 -0.3282104
v 0.3290039 0.08448372 -0.2744103
v 0.2305687 0.08448371 -0.3282102
v -0.2305687 0.08448371 -0.3282102
v -0.3290039 0.08448372 -0.2744103
v -0.2070726 -0.2741762 -0.1915923
v -0.3586597 -0.1225891 -0.1915923
v 5.071816E-17 -0.3296614 -0.1915922
v 0.2070726 -0.2741762 -0.1915923
v 0.35866 -0.1225891 -0.1915923
v 0.4141451 0.08448373 -0.1915922
v -0.4141451 0.08448373 -0.1915922
v 0.1348149 0.006648729 -0.3558039
v 0.0778353 -0.05033081 -0.3558039
v 0.1556713 0.08448372 -0.3558039
v 0.06079753 -0.02082041 -0.3662708
v 1.489106E-17 -0.03711102 -0.3662708
v 1.906419E-17 -0.07118719 -0.3558039
v -0.0778353 -0.05033081 -0.3558039
v -0.1348149 0.006648729 -0.3558039
v -0.1556713 0.08448372 -0.3558039
v -0.1053041 0.02368682 -0.3662708
v -0.06079753 -0.02082041 -0.3662708
v 0.1053041 0.02368682 -0.3662708
v 0.1215951 0.08448371 -0.3662708
v -0.1215951 0.08448371 -0.3662708
v -0.1067388 0.08448355 -0.3828033
v -0.09243839 0.03111463 -0.3828033
v -0.05336908 -0.007954978 -0.3828033
v 1.307169E-17 -0.02225475 -0.3828033
v 0.05336908 -0.007954978 -0.3828033
v 0.09243839 0.03111463 -0.3828033
v 0.1067388 0.08448387 -0.3828033
v 0.05157526 -0.004847679 -0.4008709
v 0.08933173 0.03290846 -0.4008709
v 0.05845738 -0.01676702 -0.4341687
v 1.263234E-17 -0.01866713 -0.4008709
v 1.431781E-17 -0.03243008 -0.4502395
v 0.08687419 -0.06598753 -0.5045258
v 0.1012507 0.02602697 -0.4502395
v -0.05845738 -0.01676702 -0.4341687
v -0.08687419 -0.06598719 -0.504526
v -0.1012507 0.02602664 -0.4502395
v -0.08933173 0.03290846 -0.4008709
v -0.1169148 0.08448353 -0.4341687
v -0.1737493 0.08448325 -0.504526
v -0.1031512 0.08448355 -0.4008709
v -0.05157526 -0.004847679 -0.4008709
v 0.1169148 0.08448385 -0.4341687
v 0.1737493 0.0844842 -0.5045261
v 0.1031512 0.08448387 -0.4008709
v -0.4110025 -0.1528097 -0.0947798
v -0.4321596 -0.1650238 0.0304619
v -0.2495075 -0.3476759 0.0304619
v -0.2372934 -0.3265191 -0.0947798
v 6.111171E-17 -0.4145313 0.0304619
v 5.811993E-17 -0.3901016 -0.09477981
v 0.2495075 -0.3476759 0.0304619
v 0.2372934 -0.3265191 -0.0947798
v 0.4321596 -0.1650238 0.0304619
v 0.4110025 -0.1528097 -0.0947798
v 0.499015 0.08448373 0.0304619
v 0.474585 0.08448372 -0.0947798
v -0.474585 0.08448372 -0.0947798
v -0.499015 0.08448373 0.0304619
v -0.2372959 -0.3265245 0.1769559
v -0.4110082 -0.1528123 0.1769559
v 5.812067E-17 -0.3901076 0.1769559
v 0.2372959 -0.3265245 0.1769559
v 0.4110082 -0.1528123 0.1769559
v 0.4745913 0.08448372 0.1769559
v -0.4745913 0.08448372 0.1769559
v -0.2018555 -0.2651407 0.3091099
v -0.3496243 -0.1173725 0.3091099
v 4.944044E-17 -0.319228 0.3091099
v 0.2018555 -0.2651407 0.3091099
v 0.3496243 -0.1173725 0.3091099
v 0.4037117 0.08448372 0.3091099
v -0.4037117 0.08448372 0.3091099
v -0.1466571 -0.1695334 0.4139881
v -0.2540171 -0.06217339 0.4139881
v 3.592056E-17 -0.2088299 0.4139881
v 0.1466571 -0.1695334 0.4139881
v 0.2540171 -0.06217339 0.4139881
v 0.2933136 0.08448372 0.4139881
v -0.2933136 0.08448372 0.4139881
v -0.07710179 -0.04906112 0.481324
v -0.1335445 0.007381634 0.481324
v 1.888461E-17 -0.0697208 0.481324
v 0.07710179 -0.04906112 0.481324
v 0.1335445 0.007381634 0.481324
v 0.1542042 0.08448372 0.481324
v -0.1542042 0.08448372 0.481324
v 1.942689E-24 0.0844837 0.5045261
v 1.942689E-24 0.0844837 0.5045261
v 1.942689E-24 0.0844837 0.5045261
v 1.942689E-24 0.0844837 0.5045261
v 1.942689E-24 0.0844837 0.5045261
v 1.942689E-24 0.0844837 0.5045261
vt 0.003066115 0.09357495
vt 0.1968248 0.09357495
vt 0.1920833 0.06513442
vt 0.007807843 0.06513442
vt 0.1783226 0.0394779
vt 0.02156841 0.0394779
vt 0.1568898 0.0191167
vt 0.04300129 0.0191167
vt 0.1298829 0.006043978
vt 0.07000815 0.006043978
vt 0.09994554 0.001539506
vt 0.007809035 0.1178895
vt 0.1920821 0.1178895
vt 0.01954281 0.1366848
vt 0.1803482 0.1366848
vt 0.03607231 0.1527632
vt 0.1638187 0.1527632
vt 0.05518269 0.1632079
vt 0.1447084 0.1632079
vt 0.0697233 0.168565
vt 0.1301678 0.168565
vt 0.07633894 0.1705971
vt 0.1235522 0.1705971
vt 0.07922315 0.1738067
vt 0.1206679 0.1738067
vt 0.1199714 0.1773144
vt 0.07991963 0.1773144
vt 0.09994554 0.1880388
vt 0.08429884 0.1880388
vt 0.07724749 0.1837789
vt 0.06621366 0.1974381
vt 0.1155923 0.1880388
vt 0.1226435 0.1837789
vt 0.1336774 0.1974381
vt 0.1116458 0.1903638
vt 0.1057957 0.1918177
vt 0.09994554 0.1923211
vt 0.0940954 0.1918177
vt 0.08824515 0.1903638
vt 0.3380208 0.07733206
vt 0.3476483 0.0152228
vt 0.3213906 0.06070217
vt 0.3557528 0.06709467
vt 0.2986738 0.05461526
vt 0.2986738 0.03414029
vt 0.3966233 0.1000494
vt 0.3441081 0.1000494
vt 0.2496994 0.0152226
vt 0.2759568 0.06070217
vt 0.2593269 0.07733226
vt 0.2415948 0.06709488
vt 0.2007246 0.1000499
vt 0.2532398 0.1000496
vt 0.3156613 0.1000492
vt 0.3326488 0.1000494
vt 0.3280966 0.08306193
vt 0.3133852 0.09155566
vt 0.3156613 0.07062646
vt 0.3071675 0.08533779
vt 0.2986738 0.06607468
vt 0.2986738 0.08306193
vt 0.2816865 0.07062646
vt 0.29018 0.08533779
vt 0.2692508 0.08306193
vt 0.2839627 0.09155566
vt 0.2646989 0.1000494
vt 0.2816865 0.1000492
vt 0.3441081 0.1000494
vt 0.3380208 0.07733206
vt 0.3213906 0.06070217
vt 0.2986738 0.05461526
vt 0.2759568 0.06070217
vt 0.2593269 0.07733226
vt 0.2532398 0.1000496
vt 0.2986738 0.1000492
vt 0.9149472 0.3291958
vt 0.9149472 0.3431421
vt 0.9312721 0.3431196
vt 0.9312721 0.3291767
vt 0.8986223 0.329201
vt 0.8986223 0.3431349
vt 0.8822975 0.3291975
vt 0.8822975 0.343145
vt 0.8659725 0.3291781
vt 0.8659725 0.3431206
vt 0.8496477 0.329161
vt 0.8496477 0.3431151
vt 0.947597 0.3431133
vt 0.947597 0.3291597
vt 0.9149472 0.3179799
vt 0.9312721 0.3179642
vt 0.8986224 0.3179829
vt 0.8822975 0.3179815
vt 0.8659725 0.3179651
vt 0.8496477 0.3179439
vt 0.947597 0.3179424
vt 0.8659725 0.3574165
vt 0.8822975 0.3574807
vt 0.8496477 0.3574487
vt 0.8822975 0.3646542
vt 0.8986223 0.3646527
vt 0.8986223 0.3574307
vt 0.9149472 0.3574737
vt 0.9312721 0.3574173
vt 0.947597 0.3574463
vt 0.9312721 0.3646527
vt 0.9149473 0.364654
vt 0.8659725 0.3646527
vt 0.8496476 0.3646539
vt 0.947597 0.3646538
vt 0.947597 0.3689439
vt 0.9312721 0.3689436
vt 0.9149473 0.3689439
vt 0.8986223 0.3689436
vt 0.8822975 0.3689439
vt 0.8659725 0.3689435
vt 0.8496476 0.3689439
vt 0.8822975 0.3728684
vt 0.8659725 0.3728683
vt 0.8822975 0.3810143
vt 0.8986223 0.3728683
vt 0.8986223 0.3810144
vt 0.8822975 0.398129
vt 0.8659725 0.3810143
vt 0.9149473 0.3810146
vt 0.9149472 0.3978982
vt 0.9312721 0.3810146
vt 0.9312721 0.3728683
vt 0.947597 0.3810145
vt 0.947597 0.3978887
vt 0.947597 0.3728684
vt 0.9149473 0.3728684
vt 0.8496476 0.3810145
vt 0.8496477 0.3978926
vt 0.8496476 0.3728684
vt 0.9312721 0.3088798
vt 0.9312721 0.2995288
vt 0.9149473 0.299547
vt 0.9149473 0.3088949
vt 0.8986224 0.2995563
vt 0.8986224 0.3089018
vt 0.8822975 0.2995476
vt 0.8822975 0.3088957
vt 0.8659725 0.2995294
vt 0.8659725 0.3088811
vt 0.8496477 0.2995084
vt 0.8496477 0.3088592
vt 0.947597 0.3088582
vt 0.947597 0.2995068
vt 0.9149473 0.2886633
vt 0.9312721 0.2886416
vt 0.8986224 0.2886638
vt 0.8822975 0.2886635
vt 0.8659725 0.2886424
vt 0.8496477 0.2886216
vt 0.947597 0.2886205
vt 0.9149473 0.2765542
vt 0.9312721 0.2765348
vt 0.8986224 0.2765581
vt 0.8822975 0.2765545
vt 0.8659725 0.2765353
vt 0.8496477 0.2765166
vt 0.947597 0.2765154
vt 0.9149473 0.2611793
vt 0.9312722 0.2611788
vt 0.8986224 0.2611794
vt 0.8822975 0.2611793
vt 0.8659726 0.2611788
vt 0.8496477 0.2611785
vt 0.947597 0.2611784
vt 0.9149473 0.2372168
vt 0.9312722 0.2372065
vt 0.8986224 0.2372181
vt 0.8822975 0.2372173
vt 0.8659726 0.2372074
vt 0.8496477 0.2371961
vt 0.947597 0.2371951
vt 0.9231098 0.2022992
vt 0.9067848 0.202305
vt 0.8904599 0.2023052
vt 0.8741351 0.2022997
vt 0.8578101 0.2022881
vt 0.9394345 0.2022873
vn 0 1 0
vn 0 1 0
vn 0 1 0
vn 0 1 0
vn 0 1 0
vn 0 1 0
vn 0 1 0
vn 0 1 0
vn 0 1 0
vn 0 1 0
vn 0 1 0
vn 0 1 0
vn 0 1 0
vn 0 1 0
vn 0 1 0
vn 0 1 0
vn 0 1 0
vn 0 1 0
vn 0 1 0
vn 0 1 0
vn 0 1 0
vn -1.926416E-07 1 0
vn -1.926416E-07 1 0
vn -1.000966E-06 1 0
vn -1.000966E-06 1 0
vn -2.274922E-06 1 -1.705743E-06
vn -7.202897E-07 1 -1.862519E-06
vn -1.493051E-06 1 -5.030921E-06
vn 2.074453E-06 1 8.851498E-07
vn -1.306688E-06 1 -2.162941E-06
vn -1.830768E-06 1 -3.03044E-06
vn -5.640991E-06 1 2.563726E-06
vn -1.616229E-06 1 1.952357E-06
vn -2.124286E-06 1 2.793336E-06
vn -7.223496E-06 1 3.386589E-06
vn -3.778158E-06 1 1.900736E-05
vn 0 1 2.229433E-05
vn 3.778184E-06 1 1.900747E-05
vn 3.98102E-06 1 1.970374E-05
vn 0.1708403 0.09863933 -0.9803489
vn 0.1798358 0.3114884 -0.9330778
vn 0.2305802 0.3993806 -0.887315
vn -0.1382004 -0.07979619 -0.9871845
vn 7.896726E-07 0.1972719 -0.9803489
vn -1.075101E-07 -0.1595842 -0.9871843
vn 0.3531428 -0.1897103 -0.9161332
vn 0.4576819 0.12264 -0.8806173
vn -0.1798356 0.3114869 -0.9330783
vn -0.230581 0.3993779 -0.887316
vn -0.1708394 0.09863596 -0.9803493
vn 0.1382006 -0.07979515 -0.9871846
vn -0.3531417 -0.1897098 -0.9161338
vn -0.4576824 0.1226401 -0.8806169
vn -0.2118645 -0.05677263 -0.9756487
vn -0.407285 -0.1091383 -0.9067568
vn -0.3548379 -0.2048686 -0.9122055
vn -0.1837767 -0.106105 -0.9772246
vn -0.204867 -0.3548397 -0.9122052
vn -0.1061042 -0.1837776 -0.9772245
vn 0 -0.4097336 -0.9122052
vn 0 -0.2122084 -0.9772245
vn 0.2048654 -0.3548395 -0.9122056
vn 0.1061054 -0.1837776 -0.9772243
vn 0.3548392 -0.2048686 -0.9122051
vn 0.1837757 -0.1061038 -0.9772249
vn 0.407286 -0.1091365 -0.9067565
vn 0.2118634 -0.05677212 -0.9756489
vn -0.502974 -0.1347793 -0.8537281
vn -0.4395988 -0.2538075 -0.8615884
vn -0.2538002 -0.439602 -0.861589
vn 0 -0.5076061 -0.8615893
vn 0.2538018 -0.4396 -0.8615896
vn 0.4396008 -0.2538078 -0.8615872
vn 0.502979 -0.1347781 -0.8537254
vn 0 -0.05726676 -0.9983589
vn -0.3129565 -0.5420559 -0.7798934
vn -0.2224855 -0.3853555 -0.8955452
vn -0.3853556 -0.222486 -0.8955451
vn -0.5420563 -0.3129565 -0.7798931
vn 0 -0.6259127 -0.7798932
vn 0 -0.4449703 -0.8955453
vn 0.3129566 -0.5420558 -0.7798934
vn 0.2224853 -0.3853554 -0.8955454
vn 0.5420561 -0.3129563 -0.7798932
vn 0.3853555 -0.2224859 -0.8955451
vn 0.6172918 -0.1654038 -0.7691504
vn 0.4418414 -0.1183925 -0.8892465
vn -0.4418413 -0.1183923 -0.8892466
vn -0.6172922 -0.1654042 -0.7691501
vn -0.3956945 -0.6853638 -0.611312
vn -0.6853642 -0.3956948 -0.6113113
vn 0 -0.7913904 -0.6113111
vn 0.3956943 -0.685364 -0.6113118
vn 0.6853644 -0.3956946 -0.6113111
vn 0.7741768 -0.2074403 -0.5980124
vn -0.7741765 -0.2074407 -0.5980124
vn 0.2909268 -0.1679674 -0.9418857
vn 0.1679673 -0.2909269 -0.9418857
vn 0.3345809 -0.0896524 -0.9380928
vn 0.2167924 -0.3754913 -0.9011146
vn 0 -0.4335811 -0.9011146
vn 0 -0.335934 -0.9418856
vn -0.1679673 -0.2909269 -0.9418856
vn -0.2909268 -0.1679673 -0.9418857
vn -0.3345809 -0.08965223 -0.9380928
vn -0.3754929 -0.2167918 -0.901114
vn -0.2167925 -0.3754914 -0.9011145
vn 0.3754929 -0.2167916 -0.901114
vn 0.4306816 -0.1154039 -0.8950952
vn -0.4306805 -0.1154037 -0.8950956
vn -0.8455201 -0.2265599 -0.4834939
vn -0.7517899 -0.43405 -0.4963997
vn -0.4340447 -0.7517901 -0.4964039
vn 0 -0.8680915 -0.4964044
vn 0.4340445 -0.7517903 -0.4964038
vn 0.75179 -0.4340492 -0.4964001
vn 0.8455206 -0.2265592 -0.4834935
vn 0.4976748 -0.8619999 0.09631231
vn 0.8623781 -0.4978955 0.09167376
vn 0.4227364 -0.7321991 0.5340208
vn 0 -0.9957896 0.09166833
vn -3.576711E-07 -0.8841 0.4672976
vn 0.3889487 -0.6736814 0.6283886
vn 0.7656537 -0.4420512 0.4672956
vn -0.4227353 -0.7322012 0.5340189
vn -0.3889483 -0.6736841 0.628386
vn -0.7656521 -0.4420523 0.4672972
vn -0.8623775 -0.4978962 0.09167518
vn -0.7958777 -0.3374539 0.5026963
vn -0.7268786 -0.3561956 0.587173
vn -0.9617334 -0.2576963 0.09306739
vn -0.4976749 -0.8619998 0.09631228
vn 0.7958786 -0.3374538 0.5026948
vn 0.7268801 -0.356196 0.587171
vn 0.9617338 -0.2576947 0.09306761
vn -0.814828 -0.4704413 -0.3387335
vn -0.866026 -0.499999 0.0003903444
vn -0.4999992 -0.8660258 0.0003908962
vn -0.4704416 -0.8148279 -0.3387332
vn 0 -1 0.0003905646
vn 0 -0.9408824 -0.3387336
vn 0.4999992 -0.8660258 0.0003909166
vn 0.4704416 -0.814828 -0.3387331
vn 0.866026 -0.499999 0.0003903771
vn 0.8148281 -0.4704414 -0.338733
vn 0.9659257 -0.2588189 0.0003761786
vn 0.9123356 -0.2444594 -0.3284562
vn -0.9123353 -0.2444596 -0.3284567
vn -0.9659257 -0.2588189 0.0003761943
vn -0.4758313 -0.824164 0.3071456
vn -0.824164 -0.4758312 0.3071456
vn 0 -0.9516625 0.3071458
vn 0.4758312 -0.824164 0.3071456
vn 0.824164 -0.4758312 0.3071456
vn 0.9221538 -0.2470903 0.2976218
vn -0.9221538 -0.2470903 0.2976219
vn -0.4073789 -0.7056027 0.5797993
vn -0.7056022 -0.4073799 0.5797992
vn 0 -0.8147594 0.5797992
vn 0.4073789 -0.7056027 0.5797992
vn 0.7056022 -0.4073799 0.5797993
vn 0.7960109 -0.2132905 0.5664573
vn -0.7960109 -0.2132905 0.5664573
vn -0.3057226 -0.5295269 0.7912868
vn -0.5295267 -0.3057224 0.7912871
vn 0 -0.611445 0.7912869
vn 0.3057226 -0.5295269 0.7912869
vn 0.5295267 -0.3057223 0.7912871
vn 0.6033998 -0.1616805 0.7808765
vn -0.6033998 -0.1616805 0.7808765
vn -0.1903054 -0.3296185 0.9247353
vn -0.3296182 -0.1903051 0.9247355
vn 0 -0.3806115 0.9247351
vn 0.1903053 -0.3296185 0.9247353
vn 0.3296183 -0.1903052 0.9247355
vn 0.3786469 -0.1014582 0.9199634
vn -0.3786469 -0.1014582 0.9199634
vn 0 -0.09980858 0.9950067
vn 0 -0.09980858 0.9950067
vn 0 -0.09980858 0.9950067
vn 0 -0.09980858 0.9950067
vn 0 -0.09980858 0.9950067
vn 0 -0.09980858 0.9950067
g Pomegranate_Half_Front_0
f 3/3/3 2/2/2 1/1/1
f 4/4/4 3/3/3 1/1/1
f 5/5/5 3/3/3 4/4/4
f 6/6/6 5/5/5 4/4/4
f 7/7/7 5/5/5 6/6/6
f 8/8/8 7/7/7 6/6/6
f 9/9/9 7/7/7 8/8/8
f 10/10/10 9/9/9 8/8/8
f 10/10/10 11/11/11 9/9/9
f 1/1/1 2/2/2 12/12/12
f 2/2/2 13/13/13 12/12/12
f 12/12/12 13/13/13 14/14/14
f 13/13/13 15/15/15 14/14/14
f 14/14/14 15/15/15 16/16/16
f 15/15/15 17/17/17 16/16/16
f 16/16/16 17/17/17 18/18/18
f 17/17/17 19/19/19 18/18/18
f 18/18/18 19/19/19 20/20/20
f 19/19/19 21/21/21 20/20/20
f 20/20/20 21/21/21 22/22/22
f 21/21/21 23/23/23 22/22/22
f 22/22/22 23/23/23 24/24/24
f 23/23/23 25/25/25 24/24/24
f 24/24/24 25/25/25 26/26/26
f 27/27/27 24/24/24 26/26/26
f 28/28/28 27/27/27 26/26/26
f 28/28/28 29/29/29 27/27/27
f 30/30/30 27/27/27 29/29/29
f 30/30/30 29/29/29 31/31/31
f 26/26/26 32/32/32 28/28/28
f 32/32/32 26/26/26 33/33/33
f 32/32/32 33/33/33 34/34/34
f 35/35/35 28/28/28 32/32/32
f 36/36/36 28/28/28 35/35/35
f 37/37/37 28/28/28 36/36/36
f 38/38/38 28/28/28 37/37/37
f 39/39/39 28/28/28 38/38/38
f 29/29/29 28/28/28 39/39/39
f 42/42/42 41/41/41 40/40/40
f 40/40/40 41/41/41 43/43/43
f 44/44/44 41/41/41 42/42/42
f 45/45/45 41/41/41 44/44/44
f 43/43/43 46/46/46 40/40/40
f 40/40/40 46/46/46 47/47/47
f 44/44/44 48/48/48 45/45/45
f 49/49/49 48/48/48 44/44/44
f 50/50/50 48/48/48 49/49/49
f 51/51/51 48/48/48 50/50/50
f 50/50/50 52/52/52 51/51/51
f 53/53/53 52/52/52 50/50/50
f 56/56/56 55/55/55 54/54/54
f 57/57/57 56/56/56 54/54/54
f 58/58/58 56/56/56 57/57/57
f 59/59/59 58/58/58 57/57/57
f 60/60/60 58/58/58 59/59/59
f 61/61/61 60/60/60 59/59/59
f 62/62/62 60/60/60 61/61/61
f 63/63/63 62/62/62 61/61/61
f 64/64/64 62/62/62 63/63/63
f 65/65/65 64/64/64 63/63/63
f 66/66/66 64/64/64 65/65/65
f 67/67/67 66/66/66 65/65/65
f 55/55/55 56/56/56 68/68/68
f 56/56/56 69/69/69 68/68/68
f 56/56/56 58/58/58 69/69/69
f 58/58/58 70/70/70 69/69/69
f 58/58/58 60/60/60 70/70/70
f 60/60/60 71/71/71 70/70/70
f 60/60/60 62/62/62 71/71/71
f 62/62/62 72/72/72 71/71/71
f 62/62/62 64/64/64 72/72/72
f 64/64/64 73/73/73 72/72/72
f 64/64/64 66/66/66 73/73/73
f 66/66/66 74/74/74 73/73/73
f 59/59/59 75/75/75 61/61/61
f 61/61/61 75/75/75 63/63/63
f 63/63/63 75/75/75 65/65/65
f 65/65/65 75/75/75 67/67/67
f 57/57/57 75/75/75 59/59/59
f 54/54/54 75/75/75 57/57/57
f 78/78/78 77/77/77 76/76/76
f 79/79/79 78/78/78 76/76/76
f 76/76/76 77/77/77 80/80/80
f 77/77/77 81/81/81 80/80/80
f 80/80/80 81/81/81 82/82/82
f 81/81/81 83/83/83 82/82/82
f 82/82/82 83/83/83 84/84/84
f 83/83/83 85/85/85 84/84/84
f 84/84/84 85/85/85 86/86/86
f 85/85/85 87/87/87 86/86/86
f 88/88/88 78/78/78 79/79/79
f 89/89/89 88/88/88 79/79/79
f 79/79/79 76/76/76 90/90/90
f 91/91/91 79/79/79 90/90/90
f 89/89/89 79/79/79 91/91/91
f 76/76/76 80/80/80 92/92/92
f 90/90/90 76/76/76 92/92/92
f 80/80/80 82/82/82 93/93/93
f 92/92/92 80/80/80 93/93/93
f 82/82/82 84/84/84 94/94/94
f 93/93/93 82/82/82 94/94/94
f 84/84/84 86/86/86 95/95/95
f 94/94/94 84/84/84 95/95/95
f 96/96/96 89/89/89 91/91/91
f 97/97/97 85/85/85 83/83/83
f 98/98/98 97/97/97 83/83/83
f 99/99/99 87/87/87 85/85/85
f 97/97/97 99/99/99 85/85/85
f 98/98/98 100/100/100 97/97/97
f 101/101/101 100/100/100 98/98/98
f 102/102/102 101/101/101 98/98/98
f 102/102/102 98/98/98 81/81/81
f 102/102/102 81/81/81 77/77/77
f 103/103/103 102/102/102 77/77/77
f 103/103/103 77/77/77 78/78/78
f 104/104/104 103/103/103 78/78/78
f 98/98/98 83/83/83 81/81/81
f 104/104/104 78/78/78 88/88/88
f 105/105/105 104/104/104 88/88/88
f 104/104/104 106/106/106 103/103/103
f 106/106/106 107/107/107 103/103/103
f 107/107/107 101/101/101 102/102/102
f 103/103/103 107/107/107 102/102/102
f 100/100/100 108/108/108 97/97/97
f 108/108/108 109/109/109 99/99/99
f 97/97/97 108/108/108 99/99/99
f 110/110/110 106/106/106 104/104/104
f 105/105/105 110/110/110 104/104/104
f 110/110/110 111/111/111 106/106/106
f 111/111/111 112/112/112 106/106/106
f 106/106/106 112/112/112 107/107/107
f 112/112/112 113/113/113 107/107/107
f 107/107/107 113/113/113 101/101/101
f 113/113/113 114/114/114 101/101/101
f 101/101/101 114/114/114 100/100/100
f 114/114/114 115/115/115 100/100/100
f 100/100/100 115/115/115 108/108/108
f 115/115/115 116/116/116 108/108/108
f 108/108/108 116/116/116 109/109/109
f 116/116/116 117/117/117 109/109/109
f 115/115/115 118/118/118 116/116/116
f 118/118/118 119/119/119 116/116/116
f 116/116/116 119/119/119 117/117/117
f 120/120/120 119/119/119 118/118/118
f 121/121/121 120/120/120 118/118/118
f 121/121/121 118/118/118 115/115/115
f 114/114/114 121/121/121 115/115/115
f 121/121/121 122/122/122 120/120/120
f 122/122/122 123/123/123 120/120/120
f 120/120/120 123/123/123 124/124/124
f 120/120/120 124/124/124 119/119/119
f 125/125/125 122/122/122 121/121/121
f 125/125/125 126/126/126 122/122/122
f 127/127/127 126/126/126 125/125/125
f 128/128/128 127/127/127 125/125/125
f 129/129/129 127/127/127 128/128/128
f 129/129/129 130/130/130 127/127/127
f 129/129/129 128/128/128 131/131/131
f 128/128/128 125/125/125 132/132/132
f 125/125/125 121/121/121 132/132/132
f 119/119/119 124/124/124 133/133/133
f 124/124/124 134/134/134 133/133/133
f 119/119/119 133/133/133 135/135/135
f 119/119/119 135/135/135 117/117/117
f 131/131/131 128/128/128 112/112/112
f 111/111/111 131/131/131 112/112/112
f 128/128/128 132/132/132 113/113/113
f 112/112/112 128/128/128 113/113/113
f 113/113/113 132/132/132 114/114/114
f 132/132/132 121/121/121 114/114/114
f 138/138/138 137/137/137 136/136/136
f 139/139/139 138/138/138 136/136/136
f 140/140/140 138/138/138 139/139/139
f 141/141/141 140/140/140 139/139/139
f 142/142/142 140/140/140 141/141/141
f 143/143/143 142/142/142 141/141/141
f 144/144/144 142/142/142 143/143/143
f 145/145/145 144/144/144 143/143/143
f 146/146/146 144/144/144 145/145/145
f 147/147/147 146/146/146 145/145/145
f 136/136/136 137/137/137 148/148/148
f 137/137/137 149/149/149 148/148/148
f 138/138/138 150/150/150 137/137/137
f 150/150/150 151/151/151 137/137/137
f 137/137/137 151/151/151 149/149/149
f 152/152/152 150/150/150 138/138/138
f 140/140/140 152/152/152 138/138/138
f 153/153/153 152/152/152 140/140/140
f 142/142/142 153/153/153 140/140/140
f 154/154/154 153/153/153 142/142/142
f 144/144/144 154/154/154 142/142/142
f 155/155/155 154/154/154 144/144/144
f 146/146/146 155/155/155 144/144/144
f 151/151/151 156/156/156 149/149/149
f 150/150/150 157/157/157 151/151/151
f 157/157/157 158/158/158 151/151/151
f 151/151/151 158/158/158 156/156/156
f 159/159/159 157/157/157 150/150/150
f 152/152/152 159/159/159 150/150/150
f 160/160/160 159/159/159 152/152/152
f 153/153/153 160/160/160 152/152/152
f 161/161/161 160/160/160 153/153/153
f 154/154/154 161/161/161 153/153/153
f 162/162/162 161/161/161 154/154/154
f 155/155/155 162/162/162 154/154/154
f 158/158/158 163/163/163 156/156/156
f 157/157/157 164/164/164 158/158/158
f 164/164/164 165/165/165 158/158/158
f 158/158/158 165/165/165 163/163/163
f 166/166/166 164/164/164 157/157/157
f 159/159/159 166/166/166 157/157/157
f 167/167/167 166/166/166 159/159/159
f 160/160/160 167/167/167 159/159/159
f 168/168/168 167/167/167 160/160/160
f 161/161/161 168/168/168 160/160/160
f 169/169/169 168/168/168 161/161/161
f 162/162/162 169/169/169 161/161/161
f 165/165/165 170/170/170 163/163/163
f 164/164/164 171/171/171 165/165/165
f 171/171/171 172/172/172 165/165/165
f 165/165/165 172/172/172 170/170/170
f 173/173/173 171/171/171 164/164/164
f 166/166/166 173/173/173 164/164/164
f 174/174/174 173/173/173 166/166/166
f 167/167/167 174/174/174 166/166/166
f 175/175/175 174/174/174 167/167/167
f 168/168/168 175/175/175 167/167/167
f 176/176/176 175/175/175 168/168/168
f 169/169/169 176/176/176 168/168/168
f 172/172/172 177/177/177 170/170/170
f 171/171/171 178/178/178 172/172/172
f 173/173/173 179/179/179 171/171/171
f 174/174/174 180/180/180 173/173/173
f 175/175/175 181/181/181 174/174/174
f 176/176/176 182/182/182 175/175/175
f 172/172/172 183/183/183 177/177/177
f 91/91/91 90/90/90 139/139/139
f 136/136/136 91/91/91 139/139/139
f 96/96/96 91/91/91 136/136/136
f 148/148/148 96/96/96 136/136/136
f 139/139/139 90/90/90 141/141/141
f 90/90/90 92/92/92 141/141/141
f 141/141/141 92/92/92 143/143/143
f 92/92/92 93/93/93 143/143/143
f 143/143/143 93/93/93 145/145/145
f 93/93/93 94/94/94 145/145/145
f 145/145/145 94/94/94 147/147/147
f 94/94/94 95/95/95 147/147/147
