g meger3d_Char3_sundries_C3_1
v 0.03260804 -0.06237205 0.01070922
v 0.1063004 -0.01036084 0.09261882
v 0.11841 -0.0174575 -0.05593498
v 0.03178941 -0.0636991 -0.0140432
v 0.0007923819 -0.05921607 0.04332682
v 0.01322803 -0.008621092 0.1424152
v -0.00253163 -0.0648344 -0.03388922
v 0.01143117 -0.0205659 -0.1256439
v -0.121919 -0.01882402 -0.05443422
v -0.03425641 -0.06354722 -0.008601885
v -0.1143489 -0.009011543 0.09344006
v -0.03745035 -0.06184972 0.02322205
v 0.1417331 0.07677468 -0.07189147
v 0.1286876 0.08706857 0.09726102
v 0.01797385 0.07570406 -0.1523422
v -0.1352354 0.08284767 -0.07041814
v -0.1254123 0.09576044 0.09968233
v 0.02101765 0.09282938 0.1561975
v 0.1153452 0.2100077 0.07400282
v 0.1252718 0.1995222 -0.06389242
v 0.1541658 0.295047 0.08685341
v 0.165766 0.2816449 -0.09052373
v 0.02254355 0.200985 -0.1304983
v 0.02979232 0.2836134 -0.1781285
v -0.1036455 0.2116905 -0.06292631
v -0.1353801 0.2976555 -0.08927487
v -0.09450531 0.2238642 0.07738754
v -0.1216943 0.3135245 0.09476987
v 0.02596994 0.2182803 0.1241553
v 0.03567375 0.3062387 0.1560909
v -0.09182839 0.3230558 0.0819844
v 0.03941419 0.3166606 0.1274168
v 0.03567375 0.3062387 0.1560909
v -0.1216943 0.3135245 0.09476987
v -0.1353801 0.2976555 -0.08927487
v -0.1103714 0.3094736 -0.081779
v 0.03030891 0.2984694 -0.1511618
v 0.02979232 0.2836134 -0.1781285
v 0.165766 0.2816449 -0.09052373
v 0.1379636 0.2969643 -0.0799386
v 0.1541658 0.295047 0.08685341
v 0.1305594 0.3082175 0.07559942
v -0.09765552 0.01096196 0.08820901
v -0.0008597233 -0.03344979 0.002361373
v 0.01712974 0.01115541 0.1272599
v 0.09366243 0.009906931 0.08876558
v 0.1030135 0.003452071 -0.05234725
v 0.0122904 0.0008013594 -0.1132891
v -0.1100947 0.001699674 -0.05349552
v 0.03260804 -0.06237205 0.01070922
v 0.01932728 -0.1657865 0.01962952
v 0.0006128429 -0.1634518 0.04192704
v 0.0007923819 -0.05921607 0.04332682
v -0.02472118 -0.1636389 0.02745266
v -0.03745035 -0.06184972 0.02322205
v -0.02262602 -0.1645168 0.007484257
v -0.03425641 -0.06354722 -0.008601885
v -0.002755474 -0.1659797 -0.008417089
v -0.00253163 -0.0648344 -0.03388922
v 0.01880253 -0.1663794 0.004137182
v 0.03178941 -0.0636991 -0.0140432
v -0.00636471 -0.2600657 0.05028599
v 0.02301007 -0.2637305 0.01528456
v -0.04612347 -0.2603594 0.02756933
v -0.042842 -0.2617373 -0.003778406
v -0.01165721 -0.2640329 -0.02872892
v 0.02218953 -0.2646608 -0.009023888
v 0.01712974 0.01115541 0.1272599
v 0.02904535 0.2283597 0.1020542
v -0.07149503 0.2332642 0.06741474
v -0.09765552 0.01096196 0.08820901
v -0.08434095 0.2228357 -0.05742097
v -0.1100947 0.001699674 -0.05349552
v 0.02315786 0.2144487 -0.110131
v 0.0122904 0.0008013594 -0.1132891
v 0.1042734 0.213339 -0.05603687
v 0.1030135 0.003452071 -0.05234725
v 0.09754525 0.2221853 0.06520497
v 0.09366243 0.009906931 0.08876558
v 0.03941419 0.3166606 0.1274168
v -0.09182839 0.3230558 0.0819844
v -0.1103714 0.3094736 -0.081779
v 0.03030891 0.2984694 -0.1511618
v 0.1379636 0.2969643 -0.0799386
v 0.1305594 0.3082175 0.07559942
v 0.02301007 -0.2637305 0.01528456
v 0.123666 -0.2940609 0.03675212
v 0.0243485 -0.2813319 0.1460222
v -0.00636471 -0.2600657 0.05028599
v -0.115051 -0.2817995 0.0946689
v -0.04612347 -0.2603594 0.02756933
v -0.1433463 -0.2859792 -0.04054666
v -0.042842 -0.2617373 -0.003778406
v -0.01689878 -0.2952874 -0.1417108
v -0.01165721 -0.2640329 -0.02872892
v 0.1203243 -0.2978328 -0.06181233
v 0.02218953 -0.2646608 -0.009023888
v 0.123666 -0.2940609 0.03675212
v 0.1226053 -0.3195438 0.03777204
v 0.02328779 -0.3068147 0.1470421
v 0.0243485 -0.2813319 0.1460222
v -0.1161117 -0.3072824 0.09568882
v -0.115051 -0.2817995 0.0946689
v -0.144407 -0.311462 -0.03952673
v -0.1433463 -0.2859792 -0.04054666
v -0.01795948 -0.3207702 -0.1406908
v -0.01689878 -0.2952874 -0.1417108
v 0.1192636 -0.3233157 -0.06079241
v 0.1203243 -0.2978328 -0.06181233
v 0.1192636 -0.3233157 -0.06079241
v -0.01795948 -0.3207702 -0.1406908
v -0.144407 -0.311462 -0.03952673
v 0.1226053 -0.3195438 0.03777204
v -0.1161117 -0.3072824 0.09568882
v 0.02328779 -0.3068147 0.1470421
vt 0.5252112 0.155561
vt 0.5252112 0.1861949
vt 0.5252112 0.1865248
vt 0.5252112 0.1554169
vt 0.5252112 0.153739
vt 0.5252112 0.1802064
vt 0.5252112 0.1530947
vt 0.5252112 0.1793403
vt 0.5252112 0.1706879
vt 0.5252112 0.1511081
vt 0.5252112 0.1719087
vt 0.5252112 0.1510155
vt 0.5252112 0.2121496
vt 0.5252112 0.2120378
vt 0.5252112 0.2040834
vt 0.5252112 0.1946418
vt 0.5252112 0.1962767
vt 0.5252112 0.2054722
vt 0.5252112 0.187328
vt 0.5252112 0.1871698
vt 0.5252112 0.2339209
vt 0.5252112 0.2336491
vt 0.5252112 0.1807024
vt 0.5252112 0.2250912
vt 0.5252112 0.1733941
vt 0.5252112 0.2155272
vt 0.5252112 0.1749583
vt 0.5252112 0.2176804
vt 0.5252112 0.1822154
vt 0.5252112 0.2271602
vt 0.5252112 0.2205774
vt 0.5252112 0.228461
vt 0.5252112 0.2420834
vt 0.5252112 0.2326035
vt 0.5252112 0.2304504
vt 0.5252112 0.2182978
vt 0.5252112 0.2265268
vt 0.5252112 0.2400144
vt 0.5252112 0.2485723
vt 0.5252112 0.2333045
vt 0.5252112 0.2488441
vt 0.5252112 0.2336752
vt 0.5252112 0.1473395
vt 0.5252112 0.1494812
vt 0.5252112 0.1547979
vt 0.5252112 0.1597359
vt 0.5252112 0.1599364
vt 0.5252112 0.1538451
vt 0.5252112 0.1458448
vt 0.5252112 0.1689919
vt 0.5252112 0.1789576
vt 0.5252112 0.1779275
vt 0.5252112 0.1671698
vt 0.5252112 0.1762764
vt 0.5252112 0.1644463
vt 0.5252112 0.1763586
vt 0.5252112 0.1645389
vt 0.5252112 0.177539
vt 0.5252112 0.1665255
vt 0.5252112 0.1788895
vt 0.5252112 0.1688478
vt 0.5252112 0.1471814
vt 0.5252112 0.1487983
vt 0.5252112 0.1445899
vt 0.5252112 0.144719
vt 0.5252112 0.1465716
vt 0.5252112 0.1486914
vt 0.5252112 0.1547979
vt 0.5252112 0.1767137
vt 0.5252112 0.1706748
vt 0.5252112 0.1473395
vt 0.5252112 0.1690141
vt 0.5252112 0.1458448
vt 0.5252112 0.1753037
vt 0.5252112 0.1538451
vt 0.5252112 0.1804126
vt 0.5252112 0.1599364
vt 0.5252112 0.1806461
vt 0.5252112 0.1597359
vt 0.5252112 0.2135378
vt 0.5252112 0.2056541
vt 0.5252112 0.2033745
vt 0.5252112 0.2116036
vt 0.5252112 0.2183813
vt 0.5252112 0.218752
vt 0.5252112 0.157006
vt 0.5252112 0.1911955
vt 0.5252112 0.1857756
vt 0.5252112 0.1553891
vt 0.5252112 0.1767015
vt 0.5252112 0.1527977
vt 0.5252112 0.1746545
vt 0.5252112 0.1529267
vt 0.5252112 0.1821667
vt 0.5252112 0.1547794
vt 0.5252112 0.1907624
vt 0.5252112 0.1568992
vt 0.5252112 0.1695569
vt 0.5252112 0.1573106
vt 0.5252112 0.1518906
vt 0.5252112 0.1641369
vt 0.5252112 0.1428165
vt 0.5252112 0.1550629
vt 0.5252112 0.1407695
vt 0.5252112 0.1530158
vt 0.5252112 0.1482818
vt 0.5252112 0.1605281
vt 0.5252112 0.1568775
vt 0.5252112 0.1691238
vt 0.5252112 0.1516544
vt 0.5252112 0.1430587
vt 0.5252112 0.1355464
vt 0.5252112 0.1520875
vt 0.5252112 0.1375934
vt 0.5252112 0.1466675
vn 0.4082624 -0.8899726 0.2031515
vn 0.6758346 -0.555918 0.4839448
vn 0.7352296 -0.58935 -0.3348195
vn 0.3984604 -0.9003782 -0.1747809
vn 0.02818758 -0.8982298 0.4386213
vn 0.04509341 -0.5307842 0.8463065
vn -0.01968172 -0.9062592 -0.4222639
vn 0.02570404 -0.589505 -0.8073557
vn -0.7460057 -0.5469274 -0.379929
vn -0.3945204 -0.8993884 -0.1882929
vn -0.686833 -0.5057288 0.5220141
vn -0.3699788 -0.8945358 0.2508416
vn 0.8927975 -0.06945995 -0.4450706
vn 0.8392956 -0.01184428 0.5435463
vn 0.04525077 -0.05121321 -0.9976621
vn -0.8699269 0.02215288 -0.492683
vn -0.8074358 0.08228549 0.5841888
vn 0.07152493 0.05507394 0.9959171
vn 0.8288402 -0.1363508 0.5426163
vn 0.8841369 -0.2047734 -0.4199641
vn 0.7513431 -0.4225305 0.5069038
vn 0.7756482 -0.5065228 -0.3765693
vn 0.02686552 -0.1911984 -0.9811838
vn 0.01301792 -0.5004439 -0.865671
vn -0.876745 -0.1081448 -0.4686394
vn -0.8142049 -0.4198442 -0.4010003
vn -0.8012476 -0.04940069 0.5962901
vn -0.7503126 -0.3421262 0.5656682
vn 0.0614781 -0.05662521 0.9965008
vn 0.04993856 -0.340003 0.9390974
vn -0.2192896 0.9561697 0.1940399
vn 0.1224193 0.9176205 0.3781349
vn 0.07532687 0.9228282 0.3777752
vn -0.2662452 0.9561194 0.1222677
vn -0.3009889 0.9197338 -0.2519828
vn -0.282819 0.9106684 -0.3011585
vn 0.06431564 0.8669438 -0.4942387
vn 0.0518836 0.866986 -0.4956242
vn 0.4121168 0.8799862 -0.236186
vn 0.4025044 0.8781407 -0.2585711
vn 0.4123367 0.8990648 0.1471762
vn 0.3949801 0.8998165 0.1852593
vn 0.2278098 0.9455848 -0.2323189
vn -0.003894616 0.9997308 -0.02287076
vn -0.02033084 0.9424745 -0.333659
vn -0.2411964 0.9471671 -0.2114208
vn -0.2863762 0.9529816 0.09906974
vn -0.03218988 0.9593273 0.280455
vn 0.2606558 0.960762 0.09484139
vn 0.9371875 -0.08464961 0.3383992
vn 0.9331967 -0.03002021 0.3581098
vn 0.1867352 0.02125106 0.9821805
vn 0.1607752 -0.02535672 0.9866654
vn -0.8690777 0.05411629 0.4917066
vn -0.8826285 -0.08796331 0.4617676
vn -0.8815774 0.03094289 -0.4710241
vn -0.8643747 -0.1737883 -0.4718622
vn -0.06090255 -0.01705617 -0.9979979
vn -0.06903782 -0.2435143 -0.9674371
vn 0.8732717 -0.04978151 -0.4846837
vn 0.8391529 -0.1963623 -0.5072122
vn 0.1622619 0.07341108 0.9840132
vn 0.953813 0.02258534 0.2995508
vn -0.8922695 0.1979514 0.4057961
vn -0.8414649 0.2315061 -0.4882025
vn -0.07160057 0.2085721 -0.9753826
vn 0.8368961 0.1008671 -0.5379877
vn -0.06416713 -0.1144409 -0.9913556
vn -0.06871547 0.08892987 -0.9936647
vn 0.7782274 0.0793171 -0.6229533
vn 0.787122 -0.146674 -0.5991042
vn 0.8741199 0.1500025 0.4619671
vn 0.8702997 -0.09527831 0.483219
vn -0.05306608 0.2346415 0.9706325
vn -0.04832035 -0.01162792 0.9987642
vn -0.8754529 0.2435585 0.4174463
vn -0.892319 0.01457647 0.45117
vn -0.8223874 0.1747586 -0.5414225
vn -0.8273447 -0.04504223 -0.5598856
vn -0.06916368 0.2767546 -0.9584484
vn 0.7466594 0.2725533 -0.6068068
vn 0.8310782 0.3641592 0.4203533
vn -0.03881783 0.4413913 0.8964746
vn -0.804348 0.4401962 0.3990634
vn -0.7756313 0.3630498 -0.5163243
vn 0.2801369 0.9588605 0.04593271
vn 0.2835167 0.9585358 0.02876359
vn 0.09788188 0.979265 0.1773676
vn 0.07194511 0.9801301 0.1848481
vn -0.1770249 0.9761905 0.1253572
vn -0.1915984 0.9758528 0.1048875
vn -0.198821 0.9714606 -0.1293616
vn -0.1956272 0.9711722 -0.1362161
vn 0.02546545 0.963185 -0.2676308
vn 0.01680028 0.9634652 -0.2673062
vn 0.2402446 0.9581792 -0.1554838
vn 0.2368048 0.9579958 -0.1617634
vn 0.9367682 -0.02502191 0.3490548
vn 0.939266 -0.02539828 0.3422488
vn 0.2378788 0.02895617 0.9708632
vn 0.2378315 0.02895861 0.9708747
vn -0.7595612 0.0575472 0.647885
vn -0.7531317 0.05757818 0.6553453
vn -0.9405167 0.02558907 -0.3387827
vn -0.9404615 0.02558063 -0.3389364
vn -0.0747111 -0.0367751 -0.9965269
vn -0.07478619 -0.03677176 -0.9965215
vn 0.8573452 -0.05616549 -0.5116686
vn 0.8572473 -0.05616797 -0.5118322
vn -0.03930831 -0.9980087 0.04933054
vn -0.03930831 -0.9980087 0.04933054
vn -0.03930831 -0.9980087 0.04933054
vn -0.03930831 -0.9980087 0.04933054
vn -0.03930831 -0.9980087 0.04933054
vn -0.0393083 -0.9980087 0.04933054
g meger3d_Char3_sundries_C3_1_0
f 3/3/3 2/2/2 1/1/1
f 4/4/4 3/3/3 1/1/1
f 1/1/1 2/2/2 5/5/5
f 2/2/2 6/6/6 5/5/5
f 4/4/4 7/7/7 3/3/3
f 7/7/7 8/8/8 3/3/3
f 9/9/9 8/8/8 7/7/7
f 10/10/10 9/9/9 7/7/7
f 9/9/9 10/10/10 11/11/11
f 10/10/10 12/12/12 11/11/11
f 12/12/12 5/5/5 6/6/6
f 11/11/11 12/12/12 6/6/6
f 3/3/3 13/13/13 2/2/2
f 13/13/13 14/14/14 2/2/2
f 2/2/2 14/14/14 6/6/6
f 15/15/15 13/13/13 3/3/3
f 8/8/8 15/15/15 3/3/3
f 16/16/16 15/15/15 8/8/8
f 9/9/9 16/16/16 8/8/8
f 17/17/17 16/16/16 9/9/9
f 11/11/11 17/17/17 9/9/9
f 18/18/18 17/17/17 11/11/11
f 6/6/6 18/18/18 11/11/11
f 14/14/14 18/18/18 6/6/6
f 19/19/19 14/14/14 13/13/13
f 20/20/20 19/19/19 13/13/13
f 20/20/20 13/13/13 15/15/15
f 21/21/21 19/19/19 20/20/20
f 22/22/22 21/21/21 20/20/20
f 22/22/22 20/20/20 23/23/23
f 23/23/23 20/20/20 15/15/15
f 23/23/23 15/15/15 16/16/16
f 24/24/24 22/22/22 23/23/23
f 24/24/24 23/23/23 25/25/25
f 25/25/25 23/23/23 16/16/16
f 25/25/25 16/16/16 17/17/17
f 26/26/26 24/24/24 25/25/25
f 26/26/26 25/25/25 27/27/27
f 27/27/27 25/25/25 17/17/17
f 27/27/27 17/17/17 18/18/18
f 28/28/28 26/26/26 27/27/27
f 28/28/28 27/27/27 29/29/29
f 29/29/29 27/27/27 18/18/18
f 29/29/29 18/18/18 14/14/14
f 19/19/19 29/29/29 14/14/14
f 30/30/30 28/28/28 29/29/29
f 30/30/30 29/29/29 19/19/19
f 21/21/21 30/30/30 19/19/19
f 33/33/33 32/32/32 31/31/31
f 34/34/34 33/33/33 31/31/31
f 34/34/34 31/31/31 35/35/35
f 31/31/31 36/36/36 35/35/35
f 36/36/36 37/37/37 35/35/35
f 37/37/37 38/38/38 35/35/35
f 38/38/38 37/37/37 39/39/39
f 37/37/37 40/40/40 39/39/39
f 39/39/39 40/40/40 41/41/41
f 32/32/32 33/33/33 41/41/41
f 40/40/40 42/42/42 41/41/41
f 42/42/42 32/32/32 41/41/41
f 45/45/45 44/44/44 43/43/43
f 46/46/46 44/44/44 45/45/45
f 47/47/47 44/44/44 46/46/46
f 48/48/48 44/44/44 47/47/47
f 49/49/49 44/44/44 48/48/48
f 43/43/43 44/44/44 49/49/49
f 52/52/52 51/51/51 50/50/50
f 53/53/53 52/52/52 50/50/50
f 54/54/54 52/52/52 53/53/53
f 55/55/55 54/54/54 53/53/53
f 56/56/56 54/54/54 55/55/55
f 57/57/57 56/56/56 55/55/55
f 58/58/58 56/56/56 57/57/57
f 59/59/59 58/58/58 57/57/57
f 60/60/60 58/58/58 59/59/59
f 61/61/61 60/60/60 59/59/59
f 51/51/51 60/60/60 61/61/61
f 50/50/50 51/51/51 61/61/61
f 52/52/52 62/62/62 51/51/51
f 62/62/62 63/63/63 51/51/51
f 51/51/51 63/63/63 60/60/60
f 64/64/64 62/62/62 52/52/52
f 54/54/54 64/64/64 52/52/52
f 65/65/65 64/64/64 54/54/54
f 56/56/56 65/65/65 54/54/54
f 66/66/66 65/65/65 56/56/56
f 58/58/58 66/66/66 56/56/56
f 67/67/67 66/66/66 58/58/58
f 60/60/60 67/67/67 58/58/58
f 63/63/63 67/67/67 60/60/60
f 70/70/70 69/69/69 68/68/68
f 71/71/71 70/70/70 68/68/68
f 72/72/72 70/70/70 71/71/71
f 73/73/73 72/72/72 71/71/71
f 74/74/74 72/72/72 73/73/73
f 75/75/75 74/74/74 73/73/73
f 76/76/76 74/74/74 75/75/75
f 77/77/77 76/76/76 75/75/75
f 78/78/78 76/76/76 77/77/77
f 79/79/79 78/78/78 77/77/77
f 69/69/69 78/78/78 79/79/79
f 68/68/68 69/69/69 79/79/79
f 80/80/80 69/69/69 70/70/70
f 81/81/81 80/80/80 70/70/70
f 81/81/81 70/70/70 72/72/72
f 82/82/82 81/81/81 72/72/72
f 82/82/82 72/72/72 74/74/74
f 83/83/83 82/82/82 74/74/74
f 83/83/83 74/74/74 76/76/76
f 84/84/84 83/83/83 76/76/76
f 84/84/84 76/76/76 78/78/78
f 85/85/85 84/84/84 78/78/78
f 85/85/85 78/78/78 69/69/69
f 80/80/80 85/85/85 69/69/69
f 88/88/88 87/87/87 86/86/86
f 89/89/89 88/88/88 86/86/86
f 90/90/90 88/88/88 89/89/89
f 91/91/91 90/90/90 89/89/89
f 92/92/92 90/90/90 91/91/91
f 93/93/93 92/92/92 91/91/91
f 94/94/94 92/92/92 93/93/93
f 95/95/95 94/94/94 93/93/93
f 96/96/96 94/94/94 95/95/95
f 97/97/97 96/96/96 95/95/95
f 87/87/87 96/96/96 97/97/97
f 86/86/86 87/87/87 97/97/97
f 100/100/100 99/99/99 98/98/98
f 101/101/101 100/100/100 98/98/98
f 102/102/102 100/100/100 101/101/101
f 103/103/103 102/102/102 101/101/101
f 104/104/104 102/102/102 103/103/103
f 105/105/105 104/104/104 103/103/103
f 106/106/106 104/104/104 105/105/105
f 107/107/107 106/106/106 105/105/105
f 108/108/108 106/106/106 107/107/107
f 109/109/109 108/108/108 107/107/107
f 99/99/99 108/108/108 109/109/109
f 98/98/98 99/99/99 109/109/109
f 112/112/112 111/111/111 110/110/110
f 110/110/110 113/113/113 112/112/112
f 113/113/113 114/114/114 112/112/112
f 113/113/113 115/115/115 114/114/114
