g meger3d_Char_paper1_C1_4
v -0.2206403 -0.1714164 -0.4300603
v 0.2323123 0.2351754 -0.4109436
v -0.2645385 -0.1349793 -0.4237238
v 0.2964181 0.1495679 -0.4236953
v -0.1600523 -0.1905035 -0.4354368
v 0.3427466 0.1329868 -0.4693671
v -0.1622821 -0.1861034 -0.4761859
v -0.1509706 -0.2348334 -0.4820666
v 0.3152727 0.1696758 -0.4639021
v -0.2228702 -0.1670164 -0.4708094
v -0.2408375 -0.2065226 -0.474092
v -0.2667684 -0.1305793 -0.4644728
v -0.3013197 -0.1563202 -0.4653615
v 0.3152727 0.1696758 -0.4639021
v -0.1600523 -0.1905035 -0.4354368
v -0.1622821 -0.1861034 -0.4761859
v 0.2964181 0.1495679 -0.4236953
v 0.3403491 0.1201941 -0.005645602
v 0.3192647 0.1044862 -0.00618794
v 0.3421113 0.05940467 0.4113195
v 0.3654255 0.07071251 0.4526109
v -0.1143591 -0.2806666 0.399578
v -0.1121293 -0.2850666 0.440327
v -0.1622821 -0.1861034 -0.4761859
v -0.2206403 -0.1714164 -0.4300603
v -0.2228702 -0.1670164 -0.4708094
v -0.1600523 -0.1905035 -0.4354368
v -0.2645385 -0.1349793 -0.4237238
v -0.2667684 -0.1305793 -0.4644728
v -0.2408375 -0.2065226 -0.474092
v -0.1258941 -0.284315 -0.02381017
v -0.1509706 -0.2348334 -0.4820666
v -0.2157611 -0.2560042 -0.01583558
v -0.3013197 -0.1563202 -0.4653615
v -0.2762433 -0.2058018 -0.007105151
v -0.1906846 -0.3054858 0.4424208
v -0.1008177 -0.3337966 0.4344462
v -0.2511668 -0.2552833 0.4511513
v -0.1509706 -0.2348334 -0.4820666
v 0.367823 0.08350516 -0.01111061
v 0.3427466 0.1329868 -0.4693671
v -0.1258941 -0.284315 -0.02381017
v -0.1008177 -0.3337966 0.4344462
v 0.3928994 0.03402354 0.4471459
v 0.3427466 0.1329868 -0.4693671
v 0.3403491 0.1201941 -0.005645602
v 0.3152727 0.1696758 -0.4639021
v 0.367823 0.08350516 -0.01111061
v 0.3928994 0.03402354 0.4471459
v 0.3654255 0.07071251 0.4526109
v 0.2964181 0.1495679 -0.4236953
v 0.2551589 0.1900938 0.006563758
v 0.2323123 0.2351754 -0.4109436
v 0.3192647 0.1044862 -0.00618794
v 0.3421113 0.05940467 0.4113195
v 0.2780055 0.1450122 0.4240712
v 0.2780055 0.1450122 0.4240712
v -0.1749471 -0.2615796 0.4049544
v -0.2188453 -0.2251425 0.411291
v 0.3421113 0.05940467 0.4113195
v -0.1143591 -0.2806666 0.399578
v 0.3928994 0.03402354 0.4471459
v -0.1121293 -0.2850666 0.440327
v 0.3654255 0.07071251 0.4526109
v -0.1008177 -0.3337966 0.4344462
v -0.1727173 -0.2659796 0.4457034
v -0.1906846 -0.3054858 0.4424208
v -0.2166155 -0.2295425 0.45204
v -0.2511668 -0.2552833 0.4511513
v -0.1121293 -0.2850666 0.440327
v -0.1749471 -0.2615796 0.4049544
v -0.1143591 -0.2806666 0.399578
v -0.1727173 -0.2659796 0.4457034
v -0.2188453 -0.2251425 0.411291
v -0.2166155 -0.2295425 0.45204
v 0.2323123 0.2351754 -0.4109436
v -0.2871092 -0.08265318 -0.4168386
v -0.2645385 -0.1349793 -0.4237238
v 0.1682065 0.320783 -0.3981919
v -0.288264 -0.01928828 -0.4099334
v 0.1595871 0.3775799 -0.4329337
v -0.2904938 -0.0148883 -0.4506824
v 0.187061 0.3408909 -0.4383986
v -0.3341301 0.009759731 -0.4456332
v -0.289339 -0.07825317 -0.4575876
v -0.3324172 -0.08422603 -0.4558753
v -0.2667684 -0.1305793 -0.4644728
v -0.3013197 -0.1563202 -0.4653615
v 0.187061 0.3408909 -0.4383986
v -0.288264 -0.01928828 -0.4099334
v 0.1682065 0.320783 -0.3981919
v -0.2904938 -0.0148883 -0.4506824
v 0.2121374 0.2914093 0.01985779
v 0.1910531 0.2757014 0.01931545
v 0.2138996 0.2306198 0.4368229
v 0.2372138 0.2419277 0.4781143
v -0.2425708 -0.1094515 0.4250814
v -0.2403409 -0.1138515 0.4658304
v -0.2904938 -0.0148883 -0.4506824
v -0.2871092 -0.08265318 -0.4168386
v -0.288264 -0.01928828 -0.4099334
v -0.289339 -0.07825317 -0.4575876
v -0.2645385 -0.1349793 -0.4237238
v -0.2667684 -0.1305793 -0.4644728
v -0.3324172 -0.08422603 -0.4558753
v -0.3090536 -0.03972187 0.01262324
v -0.3073408 -0.1337076 0.002381127
v -0.3341301 0.009759731 -0.4456332
v -0.3013197 -0.1563202 -0.4653615
v -0.2762433 -0.2058018 -0.007105151
v -0.2822644 -0.1831892 0.4606375
v -0.2839772 -0.08920346 0.4708796
v -0.2511668 -0.2552833 0.4511513
v -0.3341301 0.009759731 -0.4456332
v 0.1846635 0.3280983 0.0253228
v -0.3090536 -0.03972187 0.01262324
v 0.1595871 0.3775799 -0.4329337
v -0.2839772 -0.08920346 0.4708796
v 0.2097399 0.2786167 0.4835793
v 0.1595871 0.3775799 -0.4329337
v 0.2121374 0.2914093 0.01985779
v 0.1846635 0.3280983 0.0253228
v 0.187061 0.3408909 -0.4383986
v 0.2097399 0.2786167 0.4835793
v 0.2372138 0.2419277 0.4781143
v 0.1682065 0.320783 -0.3981919
v 0.2551589 0.1900938 0.006563758
v 0.1910531 0.2757014 0.01931545
v 0.2323123 0.2351754 -0.4109436
v 0.2138996 0.2306198 0.4368229
v 0.2780055 0.1450122 0.4240712
v -0.241416 -0.1728164 0.4181762
v 0.2780055 0.1450122 0.4240712
v -0.2188453 -0.2251425 0.411291
v 0.2138996 0.2306198 0.4368229
v -0.2425708 -0.1094515 0.4250814
v 0.2097399 0.2786167 0.4835793
v -0.2403409 -0.1138515 0.4658304
v -0.2839772 -0.08920346 0.4708796
v 0.2372138 0.2419277 0.4781143
v -0.2391862 -0.1772164 0.4589252
v -0.2822644 -0.1831892 0.4606375
v -0.2166155 -0.2295425 0.45204
v -0.2511668 -0.2552833 0.4511513
v -0.2403409 -0.1138515 0.4658304
v -0.241416 -0.1728164 0.4181762
v -0.2391862 -0.1772164 0.4589252
v -0.2425708 -0.1094515 0.4250814
v -0.2188453 -0.2251425 0.411291
v -0.2166155 -0.2295425 0.45204
vt 0.8643563 0.2672045
vt 0.8335749 0.2700387
vt 0.8650299 0.2700387
vt 0.8335749 0.2645718
vt 0.8624763 0.2645718
vt 0.8359332 0.2797941
vt 0.8661608 0.2821372
vt 0.8671823 0.2797941
vt 0.8359332 0.2821372
vt 0.8680435 0.2847697
vt 0.8699747 0.2836985
vt 0.8687205 0.2876034
vt 0.8709074 0.2876034
vt 0.7571583 0.2996584
vt 0.7981673 0.3024792
vt 0.7981673 0.2996584
vt 0.7589669 0.3024792
vt 0.7571583 0.3315632
vt 0.7589669 0.3315632
vt 0.7589669 0.3603479
vt 0.7571583 0.3631798
vt 0.7981673 0.3603479
vt 0.7981673 0.3631798
vt 0.7981673 0.2996584
vt 0.802556 0.3024792
vt 0.802556 0.2996584
vt 0.7981673 0.3024792
vt 0.8065076 0.3024792
vt 0.8065076 0.2996584
vt 0.8639346 0.3631705
vt 0.8574252 0.3313933
vt 0.8574252 0.3631705
vt 0.8639346 0.3313933
vt 0.869379 0.3631705
vt 0.869379 0.3313933
vt 0.8639346 0.2996162
vt 0.8574252 0.2996162
vt 0.869379 0.2996162
vt 0.8574252 0.3631705
vt 0.815033 0.3313933
vt 0.815033 0.3631705
vt 0.8574252 0.3313933
vt 0.8574252 0.2996162
vt 0.815033 0.2996162
vt 0.8359332 0.2797941
vt 0.812506 0.2821372
vt 0.8359332 0.2821372
vt 0.812506 0.2797941
vt 0.7890758 0.2797941
vt 0.7890758 0.2821372
vt 0.8335749 0.2645718
vt 0.8122284 0.2700387
vt 0.8335749 0.2700387
vt 0.8122284 0.2645718
vt 0.7908827 0.2645718
vt 0.7908827 0.2700387
vt 0.7908827 0.2700387
vt 0.7601053 0.2672045
vt 0.7594286 0.2700387
vt 0.7908827 0.2645718
vt 0.7619879 0.2645718
vt 0.7890758 0.2797941
vt 0.758836 0.2821372
vt 0.7890758 0.2821372
vt 0.7578118 0.2797941
vt 0.756955 0.2847697
vt 0.7550219 0.2836985
vt 0.7562805 0.2876034
vt 0.7540926 0.2876034
vt 0.7981673 0.3631798
vt 0.802556 0.3603479
vt 0.7981673 0.3603479
vt 0.802556 0.3631798
vt 0.8065076 0.3603479
vt 0.8065076 0.3631798
vt 0.8335749 0.2700387
vt 0.8643563 0.2672045
vt 0.8650299 0.2700387
vt 0.8335749 0.2645718
vt 0.8624763 0.2645718
vt 0.8359332 0.2797941
vt 0.8661608 0.2821372
vt 0.8359332 0.2821372
vt 0.8671823 0.2797941
vt 0.8680435 0.2847697
vt 0.8699747 0.2836985
vt 0.8687205 0.2876034
vt 0.8709074 0.2876034
vt 0.7571583 0.2996584
vt 0.7981673 0.3024792
vt 0.7589669 0.3024792
vt 0.7981673 0.2996584
vt 0.7571583 0.3315632
vt 0.7589669 0.3315632
vt 0.7589669 0.3603479
vt 0.7571583 0.3631798
vt 0.7981673 0.3603479
vt 0.7981673 0.3631798
vt 0.7981673 0.2996584
vt 0.802556 0.3024792
vt 0.7981673 0.3024792
vt 0.802556 0.2996584
vt 0.8065076 0.3024792
vt 0.8065076 0.2996584
vt 0.8639346 0.3631705
vt 0.8574252 0.3313933
vt 0.8639346 0.3313933
vt 0.8574252 0.3631705
vt 0.869379 0.3631705
vt 0.869379 0.3313933
vt 0.8639346 0.2996162
vt 0.8574252 0.2996162
vt 0.869379 0.2996162
vt 0.8574252 0.3631705
vt 0.815033 0.3313933
vt 0.8574252 0.3313933
vt 0.815033 0.3631705
vt 0.8574252 0.2996162
vt 0.815033 0.2996162
vt 0.8359332 0.2797941
vt 0.812506 0.2821372
vt 0.812506 0.2797941
vt 0.8359332 0.2821372
vt 0.7890758 0.2797941
vt 0.7890758 0.2821372
vt 0.8335749 0.2645718
vt 0.8122284 0.2700387
vt 0.8122284 0.2645718
vt 0.8335749 0.2700387
vt 0.7908827 0.2645718
vt 0.7908827 0.2700387
vt 0.7601053 0.2672045
vt 0.7908827 0.2700387
vt 0.7594286 0.2700387
vt 0.7908827 0.2645718
vt 0.7619879 0.2645718
vt 0.7890758 0.2797941
vt 0.758836 0.2821372
vt 0.7578118 0.2797941
vt 0.7890758 0.2821372
vt 0.756955 0.2847697
vt 0.7550219 0.2836985
vt 0.7562805 0.2876034
vt 0.7540926 0.2876034
vt 0.7981673 0.3631798
vt 0.802556 0.3603479
vt 0.802556 0.3631798
vt 0.7981673 0.3603479
vt 0.8065076 0.3603479
vt 0.8065076 0.3631798
vn -0.05432486 0.1071954 -0.9927528
vn -0.05432486 0.1071954 -0.9927528
vn -0.05432486 0.1071954 -0.9927528
vn -0.05432485 0.1071954 -0.9927528
vn -0.05432486 0.1071954 -0.9927528
vn -0.05432494 0.1071954 -0.9927528
vn -0.05432491 0.1071954 -0.9927528
vn -0.05432491 0.1071954 -0.9927528
vn -0.05432494 0.1071954 -0.9927528
vn -0.05432486 0.1071954 -0.9927528
vn -0.05432486 0.1071954 -0.9927528
vn -0.05432486 0.1071954 -0.9927528
vn -0.05432486 0.1071954 -0.9927528
vn -0.5951864 0.7948184 0.1183924
vn -0.5951864 0.7948185 0.1183923
vn -0.5951864 0.7948185 0.1183923
vn -0.5951864 0.7948184 0.1183924
vn -0.5951865 0.7948183 0.1183923
vn -0.5951865 0.7948183 0.1183923
vn -0.5951864 0.7948184 0.1183923
vn -0.5951864 0.7948184 0.1183923
vn -0.5951864 0.7948185 0.1183923
vn -0.5951864 0.7948185 0.1183923
vn 0.3062722 0.9480864 0.0856128
vn 0.4831426 0.8729113 0.06781691
vn 0.4831426 0.8729113 0.06781691
vn 0.3062722 0.9480864 0.0856128
vn 0.8017493 0.5973046 0.02062286
vn 0.8017493 0.5973046 0.02062286
vn -0.4831429 -0.8729112 -0.06781688
vn -0.3062727 -0.9480862 -0.08561272
vn -0.3062727 -0.9480862 -0.08561272
vn -0.4831429 -0.8729112 -0.06781688
vn -0.8017493 -0.5973046 -0.02062286
vn -0.8017493 -0.5973046 -0.02062286
vn -0.4831429 -0.8729112 -0.06781688
vn -0.3062727 -0.9480862 -0.08561272
vn -0.8017493 -0.5973046 -0.02062286
vn 0.5951865 -0.7948184 -0.1183923
vn 0.5951865 -0.7948184 -0.1183923
vn 0.5951864 -0.7948185 -0.1183923
vn 0.5951864 -0.7948185 -0.1183923
vn 0.5951865 -0.7948184 -0.1183923
vn 0.5951864 -0.7948185 -0.1183923
vn 0.8017493 0.5973046 0.02062292
vn 0.8017493 0.5973046 0.02062289
vn 0.8017493 0.5973046 0.02062292
vn 0.8017493 0.5973046 0.02062289
vn 0.8017493 0.5973046 0.02062286
vn 0.8017493 0.5973046 0.02062286
vn 0.8017491 0.5973048 0.02062288
vn 0.8017491 0.5973048 0.02062289
vn 0.8017491 0.5973048 0.02062288
vn 0.8017491 0.5973048 0.02062288
vn 0.8017491 0.597305 0.02062298
vn 0.8017491 0.5973048 0.02062296
vn 0.05432486 -0.1071954 0.9927528
vn 0.05432486 -0.1071954 0.9927528
vn 0.05432486 -0.1071954 0.9927528
vn 0.05432486 -0.1071954 0.9927528
vn 0.05432486 -0.1071954 0.9927528
vn 0.05432477 -0.1071955 0.9927528
vn 0.05432481 -0.1071954 0.9927528
vn 0.05432478 -0.1071955 0.9927528
vn 0.0543248 -0.1071954 0.9927528
vn 0.05432486 -0.1071954 0.9927528
vn 0.05432486 -0.1071954 0.9927528
vn 0.05432485 -0.1071954 0.9927528
vn 0.05432486 -0.1071954 0.9927528
vn 0.3062722 0.9480864 0.0856128
vn 0.4831426 0.8729113 0.06781691
vn 0.3062722 0.9480864 0.0856128
vn 0.4831426 0.8729113 0.06781691
vn 0.8017493 0.5973046 0.02062286
vn 0.8017493 0.5973046 0.02062286
vn -0.05432486 0.1071954 -0.9927528
vn -0.05432486 0.1071954 -0.9927528
vn -0.05432486 0.1071954 -0.9927528
vn -0.05432486 0.1071954 -0.9927528
vn -0.05432486 0.1071954 -0.9927528
vn -0.05432493 0.1071954 -0.9927528
vn -0.05432488 0.1071954 -0.9927528
vn -0.05432494 0.1071954 -0.9927528
vn -0.05432488 0.1071954 -0.9927528
vn -0.05432486 0.1071954 -0.9927528
vn -0.05432486 0.1071954 -0.9927528
vn -0.05432486 0.1071954 -0.9927528
vn -0.05432486 0.1071954 -0.9927528
vn 0.5951864 -0.7948184 -0.1183924
vn 0.5951864 -0.7948185 -0.1183923
vn 0.5951864 -0.7948184 -0.1183924
vn 0.5951864 -0.7948185 -0.1183923
vn 0.5951865 -0.7948183 -0.1183923
vn 0.5951865 -0.7948183 -0.1183923
vn 0.5951864 -0.7948184 -0.1183923
vn 0.5951864 -0.7948184 -0.1183923
vn 0.5951864 -0.7948185 -0.1183923
vn 0.5951864 -0.7948185 -0.1183923
vn 0.998359 0.02386684 -0.05205454
vn 0.9762843 0.2143648 -0.03027701
vn 0.998359 0.02386684 -0.05205454
vn 0.9762843 0.2143648 -0.03027701
vn 0.8017493 0.5973046 0.02062286
vn 0.8017493 0.5973046 0.02062286
vn -0.9762842 -0.214365 0.03027698
vn -0.998359 -0.02386698 0.05205452
vn -0.9762843 -0.2143649 0.030277
vn -0.998359 -0.02386693 0.05205453
vn -0.8017493 -0.5973046 -0.02062286
vn -0.8017493 -0.5973046 -0.02062286
vn -0.9762843 -0.2143649 0.03027699
vn -0.998359 -0.02386698 0.05205452
vn -0.8017493 -0.5973046 -0.02062286
vn -0.5951865 0.7948184 0.1183923
vn -0.5951865 0.7948184 0.1183923
vn -0.5951864 0.7948185 0.1183923
vn -0.5951864 0.7948185 0.1183923
vn -0.5951865 0.7948184 0.1183923
vn -0.5951864 0.7948185 0.1183923
vn 0.8017493 0.5973046 0.02062292
vn 0.8017493 0.5973046 0.02062289
vn 0.8017493 0.5973046 0.02062289
vn 0.8017493 0.5973046 0.02062292
vn 0.8017493 0.5973046 0.02062286
vn 0.8017493 0.5973046 0.02062286
vn 0.8017491 0.5973048 0.02062288
vn 0.8017491 0.5973048 0.02062289
vn 0.8017491 0.5973048 0.02062288
vn 0.8017491 0.5973048 0.02062288
vn 0.8017493 0.5973046 0.02062292
vn 0.8017491 0.5973048 0.02062296
vn 0.05432486 -0.1071954 0.9927528
vn 0.05432486 -0.1071954 0.9927528
vn 0.05432486 -0.1071954 0.9927528
vn 0.05432485 -0.1071954 0.9927528
vn 0.05432486 -0.1071954 0.9927528
vn 0.05432478 -0.1071955 0.9927528
vn 0.05432483 -0.1071955 0.9927528
vn 0.05432483 -0.1071955 0.9927528
vn 0.05432478 -0.1071955 0.9927528
vn 0.05432486 -0.1071954 0.9927528
vn 0.05432486 -0.1071954 0.9927528
vn 0.05432485 -0.1071954 0.9927528
vn 0.05432486 -0.1071954 0.9927528
vn 0.998359 0.02386684 -0.05205454
vn 0.9762843 0.2143648 -0.03027701
vn 0.9762843 0.2143648 -0.03027701
vn 0.998359 0.02386684 -0.05205454
vn 0.8017493 0.5973046 0.02062286
vn 0.8017493 0.5973046 0.02062286
g meger3d_Char_paper1_C1_4_0
f 3/3/3 2/2/2 1/1/1
f 2/2/2 4/4/4 1/1/1
f 1/1/1 4/4/4 5/5/5
f 8/8/8 7/7/7 6/6/6
f 9/9/9 6/6/6 7/7/7
f 7/7/7 8/8/8 10/10/10
f 11/11/11 10/10/10 8/8/8
f 10/10/10 11/11/11 12/12/12
f 13/13/13 12/12/12 11/11/11
f 16/16/16 15/15/15 14/14/14
f 17/17/17 14/14/14 15/15/15
f 14/14/14 17/17/17 18/18/18
f 19/19/19 18/18/18 17/17/17
f 19/19/19 20/20/20 18/18/18
f 21/21/21 18/18/18 20/20/20
f 20/20/20 22/22/22 21/21/21
f 23/23/23 21/21/21 22/22/22
f 26/26/26 25/25/25 24/24/24
f 27/27/27 24/24/24 25/25/25
f 25/25/25 26/26/26 28/28/28
f 29/29/29 28/28/28 26/26/26
f 32/32/32 31/31/31 30/30/30
f 33/33/33 30/30/30 31/31/31
f 30/30/30 33/33/33 34/34/34
f 35/35/35 34/34/34 33/33/33
f 33/33/33 31/31/31 36/36/36
f 37/37/37 36/36/36 31/31/31
f 35/35/35 33/33/33 38/38/38
f 36/36/36 38/38/38 33/33/33
f 41/41/41 40/40/40 39/39/39
f 42/42/42 39/39/39 40/40/40
f 42/42/42 40/40/40 43/43/43
f 44/44/44 43/43/43 40/40/40
f 47/47/47 46/46/46 45/45/45
f 48/48/48 45/45/45 46/46/46
f 48/48/48 46/46/46 49/49/49
f 50/50/50 49/49/49 46/46/46
f 53/53/53 52/52/52 51/51/51
f 54/54/54 51/51/51 52/52/52
f 54/54/54 52/52/52 55/55/55
f 56/56/56 55/55/55 52/52/52
f 59/59/59 58/58/58 57/57/57
f 57/57/57 58/58/58 60/60/60
f 60/60/60 58/58/58 61/61/61
f 64/64/64 63/63/63 62/62/62
f 65/65/65 62/62/62 63/63/63
f 63/63/63 66/66/66 65/65/65
f 67/67/67 65/65/65 66/66/66
f 66/66/66 68/68/68 67/67/67
f 69/69/69 67/67/67 68/68/68
f 72/72/72 71/71/71 70/70/70
f 73/73/73 70/70/70 71/71/71
f 71/71/71 74/74/74 73/73/73
f 75/75/75 73/73/73 74/74/74
f 78/78/78 77/77/77 76/76/76
f 76/76/76 77/77/77 79/79/79
f 79/79/79 77/77/77 80/80/80
f 83/83/83 82/82/82 81/81/81
f 84/84/84 81/81/81 82/82/82
f 82/82/82 85/85/85 84/84/84
f 86/86/86 84/84/84 85/85/85
f 85/85/85 87/87/87 86/86/86
f 88/88/88 86/86/86 87/87/87
f 91/91/91 90/90/90 89/89/89
f 92/92/92 89/89/89 90/90/90
f 89/89/89 93/93/93 91/91/91
f 94/94/94 91/91/91 93/93/93
f 94/94/94 93/93/93 95/95/95
f 96/96/96 95/95/95 93/93/93
f 95/95/95 96/96/96 97/97/97
f 98/98/98 97/97/97 96/96/96
f 101/101/101 100/100/100 99/99/99
f 102/102/102 99/99/99 100/100/100
f 100/100/100 103/103/103 102/102/102
f 104/104/104 102/102/102 103/103/103
f 107/107/107 106/106/106 105/105/105
f 108/108/108 105/105/105 106/106/106
f 105/105/105 109/109/109 107/107/107
f 110/110/110 107/107/107 109/109/109
f 107/107/107 111/111/111 106/106/106
f 112/112/112 106/106/106 111/111/111
f 111/111/111 107/107/107 113/113/113
f 110/110/110 113/113/113 107/107/107
f 116/116/116 115/115/115 114/114/114
f 117/117/117 114/114/114 115/115/115
f 116/116/116 118/118/118 115/115/115
f 119/119/119 115/115/115 118/118/118
f 122/122/122 121/121/121 120/120/120
f 123/123/123 120/120/120 121/121/121
f 122/122/122 124/124/124 121/121/121
f 125/125/125 121/121/121 124/124/124
f 128/128/128 127/127/127 126/126/126
f 129/129/129 126/126/126 127/127/127
f 128/128/128 130/130/130 127/127/127
f 131/131/131 127/127/127 130/130/130
f 134/134/134 133/133/133 132/132/132
f 133/133/133 135/135/135 132/132/132
f 132/132/132 135/135/135 136/136/136
f 139/139/139 138/138/138 137/137/137
f 140/140/140 137/137/137 138/138/138
f 138/138/138 139/139/139 141/141/141
f 142/142/142 141/141/141 139/139/139
f 141/141/141 142/142/142 143/143/143
f 144/144/144 143/143/143 142/142/142
f 147/147/147 146/146/146 145/145/145
f 148/148/148 145/145/145 146/146/146
f 146/146/146 147/147/147 149/149/149
f 150/150/150 149/149/149 147/147/147
