g meger3d_Char_dessert_C1_1
v -0.3581013 -0.2689631 9.378276E-08
v -0.376958 -0.2567651 -0.3421657
v -0.3769579 -0.2567651 9.636318E-08
v -0.3581014 -0.2689632 -0.3581013
v -0.3581014 -0.2590159 -0.3879431
v -0.376958 -0.2472605 -0.3706796
v -0.3581015 -0.2291741 -0.3978904
v -0.376958 -0.2187466 -0.3801842
v -0.3581015 0.08726297 -0.3978904
v -0.376958 0.08360893 -0.3801842
v -0.3581015 0.1882076 -0.3777015
v -0.376958 0.1800616 -0.3608937
v -0.3581015 0.2487744 -0.3171347
v -0.3769581 0.2379332 -0.3030221
v -0.3581015 0.2689633 -0.21619
v -0.376958 0.2572236 -0.2065695
v 0.3581013 -0.2590158 -0.3879432
v 0.3581013 -0.2689631 -0.3581015
v 0.3581013 -0.229174 -0.3978905
v 0.3769579 -0.2472604 -0.3706797
v 0.3769579 -0.2187465 -0.3801843
v 0.3581013 0.08726307 -0.3978905
v 0.3769578 0.08360904 -0.3801843
v 0.3581013 0.1882077 -0.3777016
v 0.3769578 0.1800617 -0.3608938
v 0.3581013 0.2487745 -0.3171349
v 0.3769578 0.2379333 -0.3030223
v 0.3581013 0.2689635 -0.2161902
v 0.3769579 0.2572238 -0.2065697
v 0.3769579 -0.2567649 -0.3421659
v 0.3581015 -0.268963 -4.566708E-08
v 0.376958 -0.2567649 -5.042966E-08
v 0.3581013 0.2689635 -9.378279E-08
v -0.3581015 0.2689634 4.566705E-08
v -0.376958 0.2572237 5.038862E-08
v 0.3769579 0.2572238 -9.640421E-08
v -0.3769579 -0.2567651 9.636318E-08
v -0.3893826 -0.2379491 -0.3175847
v -0.3893825 -0.2379491 9.709932E-08
v -0.376958 -0.2567651 -0.3421657
v -0.376958 -0.2472605 -0.3706796
v -0.3893826 -0.2291273 -0.3440501
v -0.376958 -0.2187466 -0.3801842
v -0.3893826 -0.2026619 -0.3528719
v -0.376958 0.08360893 -0.3801842
v -0.3893826 0.07797255 -0.3528719
v -0.376958 0.1800616 -0.3608937
v -0.3893826 0.167496 -0.3349672
v -0.3769581 0.2379332 -0.3030221
v -0.3893827 0.2212102 -0.2812532
v -0.376958 0.2572236 -0.2065695
v -0.3893826 0.2391148 -0.1917296
v -0.376958 0.2572237 5.038862E-08
v -0.3893826 0.2391149 5.442757E-08
v 0.3893825 -0.237949 -0.3175849
v 0.376958 -0.2567649 -5.042966E-08
v 0.3893826 -0.237949 -5.453185E-08
v 0.3769579 -0.2567649 -0.3421659
v 0.3769579 -0.2472604 -0.3706797
v 0.3893825 -0.2291272 -0.3440503
v 0.3769579 -0.2187465 -0.3801843
v 0.3893825 -0.2026618 -0.352872
v 0.3769578 0.08360904 -0.3801843
v 0.3893825 0.07797267 -0.3528721
v 0.3769578 0.1800617 -0.3608938
v 0.3893825 0.1674961 -0.3349673
v 0.3769578 0.2379333 -0.3030223
v 0.3893825 0.2212103 -0.2812533
v 0.3769579 0.2572238 -0.2065697
v 0.3893825 0.2391149 -0.1917298
v 0.3769579 0.2572238 -9.640421E-08
v 0.3893825 0.239115 -9.720361E-08
v -0.3581013 -0.2689631 9.378276E-08
v -0.3769578 -0.256765 0.3421659
v -0.3581013 -0.2689631 0.3581015
v -0.3769579 -0.2567651 9.636318E-08
v -0.3581013 -0.2590158 0.3879433
v -0.3769578 -0.2472604 0.3706798
v -0.3581013 -0.2291741 0.3978905
v -0.3769578 -0.2187465 0.3801843
v -0.3581013 0.08726303 0.3978905
v -0.3769578 0.083609 0.3801843
v -0.3581013 0.1882077 0.3777016
v -0.3769579 0.1800616 0.3608938
v -0.3581013 0.2487745 0.3171348
v -0.3769579 0.2379332 0.3030223
v -0.3581014 0.2689634 0.2161901
v -0.3769579 0.2572237 0.2065696
v 0.3581015 -0.2590157 0.3879432
v 0.3581015 -0.268963 0.3581013
v 0.3581015 -0.229174 0.3978904
v 0.376958 -0.2472603 0.3706796
v 0.376958 -0.2187464 0.3801842
v 0.3581015 0.08726314 0.3978904
v 0.376958 0.0836091 0.3801842
v 0.3581014 0.1882078 0.3777014
v 0.376958 0.1800617 0.3608936
v 0.3581014 0.2487746 0.3171346
v 0.376958 0.2379333 0.3030221
v 0.3581014 0.2689635 0.21619
v 0.3769579 0.2572238 0.2065695
v 0.376958 -0.2567649 0.3421657
v 0.3581015 -0.268963 -4.566708E-08
v 0.376958 -0.2567649 -5.042966E-08
v 0.3581013 0.2689635 -9.378279E-08
v -0.3581015 0.2689634 4.566705E-08
v -0.376958 0.2572237 5.038862E-08
v 0.3769579 0.2572238 -9.640421E-08
v -0.3769579 -0.2567651 9.636318E-08
v -0.3893825 -0.2379491 0.3175849
v -0.3769578 -0.256765 0.3421659
v -0.3893825 -0.2379491 9.709932E-08
v -0.3769578 -0.2472604 0.3706798
v -0.3893825 -0.2291273 0.3440503
v -0.3769578 -0.2187465 0.3801843
v -0.3893825 -0.2026619 0.3528721
v -0.3769578 0.083609 0.3801843
v -0.3893825 0.07797261 0.3528721
v -0.3769579 0.1800616 0.3608938
v -0.3893825 0.1674961 0.3349673
v -0.3769579 0.2379332 0.3030223
v -0.3893826 0.2212102 0.2812533
v -0.3769579 0.2572237 0.2065696
v -0.3893825 0.2391149 0.1917298
v -0.376958 0.2572237 5.038862E-08
v -0.3893826 0.2391149 5.442757E-08
v 0.3893827 -0.237949 0.3175847
v 0.376958 -0.2567649 -5.042966E-08
v 0.376958 -0.2567649 0.3421657
v 0.3893826 -0.237949 -5.453185E-08
v 0.376958 -0.2472603 0.3706796
v 0.3893827 -0.2291272 0.3440501
v 0.376958 -0.2187464 0.3801842
v 0.3893826 -0.2026617 0.3528719
v 0.376958 0.0836091 0.3801842
v 0.3893826 0.07797273 0.3528719
v 0.376958 0.1800617 0.3608936
v 0.3893826 0.1674962 0.3349672
v 0.376958 0.2379333 0.3030221
v 0.3893825 0.2212103 0.2812531
v 0.3769579 0.2572238 0.2065695
v 0.3893826 0.239115 0.1917296
v 0.3769579 0.2572238 -9.640421E-08
v 0.3893825 0.239115 -9.720361E-08
vt 0.8833733 0.1197615
vt 0.8809655 0.0875349
vt 0.881265 0.1197137
vt 0.8833106 0.08644629
vt 0.883512 0.08382189
vt 0.8810976 0.08414257
vt 0.8833568 0.08121943
vt 0.8808192 0.08070099
vt 0.8833507 0.0518907
vt 0.8808876 0.05204415
vt 0.8834178 0.04250923
vt 0.881021 0.04240385
vt 0.8834012 0.03480583
vt 0.8811287 0.03417581
vt 0.8833702 0.02537671
vt 0.8812354 0.02462861
vt 0.9501255 0.08382249
vt 0.9503262 0.0864476
vt 0.9502816 0.08121979
vt 0.9525397 0.084144
vt 0.9528193 0.08070195
vt 0.9502884 0.05189088
vt 0.9527512 0.05204481
vt 0.950223 0.04250932
vt 0.9526199 0.0424045
vt 0.950241 0.03480616
vt 0.9525135 0.0341765
vt 0.9502728 0.0253773
vt 0.9524077 0.02462932
vt 0.9526711 0.08753669
vt 0.9502616 0.1197633
vt 0.9523697 0.1197156
vt 0.9502629 0.005237341
vt 0.8833808 0.005236685
vt 0.8812988 0.00525555
vt 0.9523449 0.005256236
vt 0.9943804 0.06722867
vt 0.9647945 0.06986678
vt 0.9944351 0.06933224
vt 0.9624071 0.06787622
vt 0.9597032 0.06891894
vt 0.9623617 0.07072234
vt 0.9587868 0.07168376
vt 0.9615797 0.07318902
vt 0.9592382 0.09998953
vt 0.9620215 0.09938741
vt 0.9612539 0.1090392
vt 0.9638507 0.1077079
vt 0.9668083 0.1144423
vt 0.9689353 0.1126179
vt 0.9759023 0.1162025
vt 0.9773009 0.1141611
vt 0.9952153 0.1159196
vt 0.9951992 0.1138667
vt 0.9899215 0.01592419
vt 0.9602715 0.01414749
vt 0.9602779 0.01625183
vt 0.9922498 0.01386496
vt 0.9949831 0.01482868
vt 0.9923781 0.01670861
vt 0.9959793 0.01756555
vt 0.9932315 0.01915148
vt 0.9963516 0.0458726
vt 0.993552 0.04535165
vt 0.9945997 0.05497697
vt 0.9919653 0.05372176
vt 0.9892049 0.0605396
vt 0.9870259 0.05877772
vt 0.9801658 0.06256342
vt 0.9787085 0.06056356
vt 0.9608527 0.06284213
vt 0.9608092 0.06078967
vt 0.8833733 0.1197615
vt 0.8809655 0.0875349
vt 0.8833106 0.08644629
vt 0.881265 0.1197137
vt 0.883512 0.08382189
vt 0.8810976 0.08414257
vt 0.8833568 0.08121943
vt 0.8808192 0.08070099
vt 0.8833507 0.0518907
vt 0.8808876 0.05204415
vt 0.8834178 0.04250923
vt 0.881021 0.04240385
vt 0.8834012 0.03480583
vt 0.8811287 0.03417581
vt 0.8833702 0.02537671
vt 0.8812354 0.02462861
vt 0.9501255 0.08382249
vt 0.9503262 0.0864476
vt 0.9502816 0.08121979
vt 0.9525397 0.084144
vt 0.9528193 0.08070195
vt 0.9502884 0.05189088
vt 0.9527512 0.05204481
vt 0.950223 0.04250932
vt 0.9526199 0.0424045
vt 0.950241 0.03480616
vt 0.9525135 0.0341765
vt 0.9502728 0.0253773
vt 0.9524077 0.02462932
vt 0.9526711 0.08753669
vt 0.9502616 0.1197633
vt 0.9523697 0.1197156
vt 0.9502629 0.005237341
vt 0.8833808 0.005236685
vt 0.8812988 0.00525555
vt 0.9523449 0.005256236
vt 0.9943804 0.06722867
vt 0.9647945 0.06986678
vt 0.9624071 0.06787622
vt 0.9944351 0.06933224
vt 0.9597032 0.06891894
vt 0.9623617 0.07072234
vt 0.9587868 0.07168376
vt 0.9615797 0.07318902
vt 0.9592382 0.09998953
vt 0.9620215 0.09938741
vt 0.9612539 0.1090392
vt 0.9638507 0.1077079
vt 0.9668083 0.1144423
vt 0.9689353 0.1126179
vt 0.9759023 0.1162025
vt 0.9773009 0.1141611
vt 0.9952153 0.1159196
vt 0.9951992 0.1138667
vt 0.9899215 0.01592419
vt 0.9602715 0.01414749
vt 0.9922498 0.01386496
vt 0.9602779 0.01625183
vt 0.9949831 0.01482868
vt 0.9923781 0.01670861
vt 0.9959793 0.01756555
vt 0.9932315 0.01915148
vt 0.9963516 0.0458726
vt 0.993552 0.04535165
vt 0.9945997 0.05497697
vt 0.9919653 0.05372176
vt 0.9892049 0.0605396
vt 0.9870259 0.05877772
vt 0.9801658 0.06256342
vt 0.9787085 0.06056356
vt 0.9608527 0.06284213
vt 0.9608092 0.06078967
vn -0.2831652 -0.9590712 1.471331E-07
vn -0.7470138 -0.6580796 -0.094349
vn -0.7037705 -0.7104275 1.893277E-07
vn -0.3234274 -0.9306951 -0.1708838
vn -0.3661896 -0.6507791 -0.6651254
vn -0.8226402 -0.4154832 -0.3881195
vn -0.374916 -0.1575035 -0.9135813
vn -0.822455 -0.08473478 -0.5624835
vn -0.3639553 0.0934025 -0.9267214
vn -0.8109649 0.05687361 -0.582324
vn -0.3576564 0.439251 -0.8240998
vn -0.8095132 0.2785568 -0.5168118
vn -0.3325191 0.8233198 -0.4599734
vn -0.7694256 0.5712491 -0.2857597
vn -0.2888626 0.9517804 -0.103307
vn -0.7089632 0.7020745 -0.0668027
vn 0.3661892 -0.6507791 -0.6651256
vn 0.3234278 -0.930695 -0.1708841
vn 0.3749155 -0.1575033 -0.9135814
vn 0.8226398 -0.4154831 -0.3881204
vn 0.8224546 -0.08473434 -0.5624843
vn 0.363955 0.09340264 -0.9267215
vn 0.8109641 0.05687387 -0.582325
vn 0.3576557 0.439251 -0.8241001
vn 0.8095124 0.2785572 -0.516813
vn 0.3325186 0.8233198 -0.4599737
vn 0.769425 0.5712497 -0.2857603
vn 0.2888623 0.9517805 -0.1033071
vn 0.708963 0.7020747 -0.06680299
vn 0.7470136 -0.6580797 -0.0943494
vn 0.2831655 -0.959071 0
vn 0.7037707 -0.7104272 0
vn 0.2748455 0.9614885 -1.275024E-07
vn -0.2748458 0.9614884 0
vn -0.6912052 0.7226586 0
vn 0.691205 0.7226588 -1.690084E-07
vn -0.7037705 -0.7104275 1.893277E-07
vn -0.9565107 -0.2907484 -0.02351156
vn -0.9577276 -0.2876768 1.703446E-07
vn -0.7470138 -0.6580796 -0.094349
vn -0.8226402 -0.4154832 -0.3881195
vn -0.9703581 -0.1843095 -0.1563176
vn -0.822455 -0.08473478 -0.5624835
vn -0.9754298 -0.02641573 -0.2187209
vn -0.8109649 0.05687361 -0.582324
vn -0.9751239 0.02039519 -0.2207199
vn -0.8095132 0.2785568 -0.5168118
vn -0.97124 0.1142495 -0.2089014
vn -0.7694256 0.5712491 -0.2857597
vn -0.9603307 0.2570332 -0.1081611
vn -0.7089632 0.7020745 -0.0668027
vn -0.9534316 0.3009921 -0.01928546
vn -0.6912052 0.7226586 0
vn -0.9551377 0.2961619 1.177311E-07
vn 0.9565104 -0.2907489 -0.02351197
vn 0.7037707 -0.7104272 0
vn 0.9577276 -0.2876765 -1.188812E-07
vn 0.7470136 -0.6580797 -0.0943494
vn 0.8226398 -0.4154831 -0.3881204
vn 0.9703579 -0.1843097 -0.1563185
vn 0.8224546 -0.08473434 -0.5624843
vn 0.9754295 -0.02641554 -0.2187221
vn 0.8109641 0.05687387 -0.582325
vn 0.9751237 0.02039553 -0.2207211
vn 0.8095124 0.2785572 -0.516813
vn 0.9712398 0.1142501 -0.2089024
vn 0.769425 0.5712497 -0.2857603
vn 0.9603304 0.2570341 -0.1081618
vn 0.708963 0.7020747 -0.06680299
vn 0.9534315 0.3009924 -0.01928576
vn 0.691205 0.7226588 -1.690084E-07
vn 0.9551376 0.2961622 -1.707125E-07
vn -0.2831652 -0.9590712 1.471331E-07
vn -0.7470134 -0.6580799 0.09434951
vn -0.3234274 -0.9306951 0.1708844
vn -0.7037705 -0.7104275 1.893277E-07
vn -0.3661891 -0.6507789 0.6651258
vn -0.8226398 -0.4154833 0.3881205
vn -0.3749155 -0.1575032 0.9135814
vn -0.8224545 -0.08473449 0.5624843
vn -0.363955 0.09340267 0.9267214
vn -0.8109642 0.05687372 0.5823251
vn -0.3576557 0.439251 0.8241
vn -0.8095124 0.2785571 0.516813
vn -0.3325189 0.8233198 0.4599735
vn -0.7694252 0.5712495 0.2857603
vn -0.2888626 0.9517804 0.103307
vn -0.7089632 0.7020745 0.06680287
vn 0.3661897 -0.6507789 0.6651254
vn 0.3234277 -0.930695 0.170884
vn 0.374916 -0.1575032 0.9135813
vn 0.8226404 -0.4154828 0.3881195
vn 0.8224551 -0.08473443 0.5624835
vn 0.3639553 0.09340278 0.9267214
vn 0.8109649 0.05687396 0.5823241
vn 0.3576563 0.4392512 0.8240997
vn 0.8095132 0.2785571 0.5168117
vn 0.3325188 0.82332 0.4599732
vn 0.7694255 0.5712495 0.2857596
vn 0.2888623 0.9517805 0.1033068
vn 0.708963 0.7020747 0.06680258
vn 0.747014 -0.6580793 0.09434911
vn 0.2831655 -0.959071 0
vn 0.7037707 -0.7104272 0
vn 0.2748455 0.9614885 -1.275024E-07
vn -0.2748458 0.9614884 0
vn -0.6912052 0.7226586 0
vn 0.691205 0.7226588 -1.690084E-07
vn -0.7037705 -0.7104275 1.893277E-07
vn -0.9565104 -0.2907492 0.02351202
vn -0.7470134 -0.6580799 0.09434951
vn -0.9577276 -0.2876768 1.703446E-07
vn -0.8226398 -0.4154833 0.3881205
vn -0.9703579 -0.1843099 0.1563186
vn -0.8224545 -0.08473449 0.5624843
vn -0.9754295 -0.02641579 0.2187221
vn -0.8109642 0.05687372 0.5823251
vn -0.9751237 0.02039528 0.2207211
vn -0.8095124 0.2785571 0.516813
vn -0.9712398 0.1142499 0.2089024
vn -0.7694252 0.5712495 0.2857603
vn -0.9603305 0.2570338 0.1081618
vn -0.7089632 0.7020745 0.06680287
vn -0.9534316 0.3009921 0.0192857
vn -0.6912052 0.7226586 0
vn -0.9551377 0.2961619 1.177311E-07
vn 0.9565108 -0.2907481 0.02351161
vn 0.7037707 -0.7104272 0
vn 0.747014 -0.6580793 0.09434911
vn 0.9577276 -0.2876765 -1.188812E-07
vn 0.8226404 -0.4154828 0.3881195
vn 0.9703581 -0.1843091 0.1563176
vn 0.8224551 -0.08473443 0.5624835
vn 0.9754298 -0.02641538 0.2187208
vn 0.8109649 0.05687396 0.5823241
vn 0.9751239 0.02039553 0.2207199
vn 0.8095132 0.2785571 0.5168117
vn 0.97124 0.1142498 0.2089014
vn 0.7694255 0.5712495 0.2857596
vn 0.9603306 0.2570336 0.108161
vn 0.708963 0.7020747 0.06680258
vn 0.9534315 0.3009924 0.01928541
vn 0.691205 0.7226588 -1.690084E-07
vn 0.9551376 0.2961622 -1.707125E-07
g meger3d_Char_dessert_C1_1_0
f 3/3/3 2/2/2 1/1/1
f 4/4/4 1/1/1 2/2/2
f 4/4/4 2/2/2 5/5/5
f 6/6/6 5/5/5 2/2/2
f 5/5/5 6/6/6 7/7/7
f 8/8/8 7/7/7 6/6/6
f 7/7/7 8/8/8 9/9/9
f 10/10/10 9/9/9 8/8/8
f 9/9/9 10/10/10 11/11/11
f 12/12/12 11/11/11 10/10/10
f 11/11/11 12/12/12 13/13/13
f 14/14/14 13/13/13 12/12/12
f 13/13/13 14/14/14 15/15/15
f 16/16/16 15/15/15 14/14/14
f 5/5/5 17/17/17 4/4/4
f 18/18/18 4/4/4 17/17/17
f 7/7/7 19/19/19 5/5/5
f 17/17/17 5/5/5 19/19/19
f 7/7/7 9/9/9 19/19/19
f 17/17/17 19/19/19 20/20/20
f 21/21/21 20/20/20 19/19/19
f 19/19/19 22/22/22 21/21/21
f 22/22/22 19/19/19 9/9/9
f 9/9/9 11/11/11 22/22/22
f 23/23/23 21/21/21 22/22/22
f 22/22/22 24/24/24 23/23/23
f 11/11/11 13/13/13 24/24/24
f 24/24/24 22/22/22 11/11/11
f 25/25/25 23/23/23 24/24/24
f 24/24/24 26/26/26 25/25/25
f 13/13/13 15/15/15 26/26/26
f 26/26/26 24/24/24 13/13/13
f 27/27/27 25/25/25 26/26/26
f 26/26/26 28/28/28 27/27/27
f 28/28/28 26/26/26 15/15/15
f 29/29/29 27/27/27 28/28/28
f 20/20/20 30/30/30 17/17/17
f 18/18/18 17/17/17 30/30/30
f 18/18/18 30/30/30 31/31/31
f 32/32/32 31/31/31 30/30/30
f 28/28/28 33/33/33 29/29/29
f 33/33/33 28/28/28 34/34/34
f 15/15/15 34/34/34 28/28/28
f 15/15/15 16/16/16 34/34/34
f 35/35/35 34/34/34 16/16/16
f 36/36/36 29/29/29 33/33/33
f 18/18/18 31/31/31 4/4/4
f 1/1/1 4/4/4 31/31/31
f 39/39/39 38/38/38 37/37/37
f 40/40/40 37/37/37 38/38/38
f 40/40/40 38/38/38 41/41/41
f 42/42/42 41/41/41 38/38/38
f 41/41/41 42/42/42 43/43/43
f 44/44/44 43/43/43 42/42/42
f 42/42/42 38/38/38 44/44/44
f 43/43/43 44/44/44 45/45/45
f 46/46/46 45/45/45 44/44/44
f 45/45/45 46/46/46 47/47/47
f 48/48/48 47/47/47 46/46/46
f 46/46/46 44/44/44 48/48/48
f 44/44/44 38/38/38 48/48/48
f 47/47/47 48/48/48 49/49/49
f 50/50/50 49/49/49 48/48/48
f 49/49/49 50/50/50 51/51/51
f 52/52/52 51/51/51 50/50/50
f 50/50/50 48/48/48 52/52/52
f 48/48/48 38/38/38 52/52/52
f 38/38/38 39/39/39 52/52/52
f 51/51/51 52/52/52 53/53/53
f 54/54/54 53/53/53 52/52/52
f 52/52/52 39/39/39 54/54/54
f 57/57/57 56/56/56 55/55/55
f 58/58/58 55/55/55 56/56/56
f 58/58/58 59/59/59 55/55/55
f 60/60/60 55/55/55 59/59/59
f 59/59/59 61/61/61 60/60/60
f 62/62/62 60/60/60 61/61/61
f 60/60/60 62/62/62 55/55/55
f 61/61/61 63/63/63 62/62/62
f 64/64/64 62/62/62 63/63/63
f 63/63/63 65/65/65 64/64/64
f 66/66/66 64/64/64 65/65/65
f 64/64/64 66/66/66 62/62/62
f 62/62/62 66/66/66 55/55/55
f 65/65/65 67/67/67 66/66/66
f 68/68/68 66/66/66 67/67/67
f 67/67/67 69/69/69 68/68/68
f 70/70/70 68/68/68 69/69/69
f 68/68/68 70/70/70 66/66/66
f 66/66/66 70/70/70 55/55/55
f 69/69/69 71/71/71 70/70/70
f 72/72/72 70/70/70 71/71/71
f 70/70/70 72/72/72 55/55/55
f 55/55/55 72/72/72 57/57/57
f 75/75/75 74/74/74 73/73/73
f 76/76/76 73/73/73 74/74/74
f 75/75/75 77/77/77 74/74/74
f 78/78/78 74/74/74 77/77/77
f 77/77/77 79/79/79 78/78/78
f 80/80/80 78/78/78 79/79/79
f 79/79/79 81/81/81 80/80/80
f 82/82/82 80/80/80 81/81/81
f 81/81/81 83/83/83 82/82/82
f 84/84/84 82/82/82 83/83/83
f 83/83/83 85/85/85 84/84/84
f 86/86/86 84/84/84 85/85/85
f 85/85/85 87/87/87 86/86/86
f 88/88/88 86/86/86 87/87/87
f 77/77/77 75/75/75 89/89/89
f 90/90/90 89/89/89 75/75/75
f 89/89/89 91/91/91 77/77/77
f 79/79/79 77/77/77 91/91/91
f 79/79/79 91/91/91 81/81/81
f 89/89/89 92/92/92 91/91/91
f 93/93/93 91/91/91 92/92/92
f 91/91/91 93/93/93 94/94/94
f 94/94/94 81/81/81 91/91/91
f 81/81/81 94/94/94 83/83/83
f 95/95/95 94/94/94 93/93/93
f 94/94/94 95/95/95 96/96/96
f 83/83/83 96/96/96 85/85/85
f 96/96/96 83/83/83 94/94/94
f 97/97/97 96/96/96 95/95/95
f 96/96/96 97/97/97 98/98/98
f 85/85/85 98/98/98 87/87/87
f 98/98/98 85/85/85 96/96/96
f 99/99/99 98/98/98 97/97/97
f 98/98/98 99/99/99 100/100/100
f 100/100/100 87/87/87 98/98/98
f 101/101/101 100/100/100 99/99/99
f 90/90/90 102/102/102 89/89/89
f 92/92/92 89/89/89 102/102/102
f 90/90/90 103/103/103 102/102/102
f 104/104/104 102/102/102 103/103/103
f 100/100/100 101/101/101 105/105/105
f 105/105/105 106/106/106 100/100/100
f 87/87/87 100/100/100 106/106/106
f 87/87/87 106/106/106 88/88/88
f 107/107/107 88/88/88 106/106/106
f 108/108/108 105/105/105 101/101/101
f 73/73/73 103/103/103 75/75/75
f 90/90/90 75/75/75 103/103/103
f 111/111/111 110/110/110 109/109/109
f 112/112/112 109/109/109 110/110/110
f 111/111/111 113/113/113 110/110/110
f 114/114/114 110/110/110 113/113/113
f 113/113/113 115/115/115 114/114/114
f 116/116/116 114/114/114 115/115/115
f 114/114/114 116/116/116 110/110/110
f 115/115/115 117/117/117 116/116/116
f 118/118/118 116/116/116 117/117/117
f 117/117/117 119/119/119 118/118/118
f 120/120/120 118/118/118 119/119/119
f 118/118/118 120/120/120 116/116/116
f 116/116/116 120/120/120 110/110/110
f 119/119/119 121/121/121 120/120/120
f 122/122/122 120/120/120 121/121/121
f 121/121/121 123/123/123 122/122/122
f 124/124/124 122/122/122 123/123/123
f 122/122/122 124/124/124 120/120/120
f 120/120/120 124/124/124 110/110/110
f 110/110/110 124/124/124 112/112/112
f 123/123/123 125/125/125 124/124/124
f 126/126/126 124/124/124 125/125/125
f 112/112/112 124/124/124 126/126/126
f 129/129/129 128/128/128 127/127/127
f 130/130/130 127/127/127 128/128/128
f 129/129/129 127/127/127 131/131/131
f 132/132/132 131/131/131 127/127/127
f 131/131/131 132/132/132 133/133/133
f 134/134/134 133/133/133 132/132/132
f 132/132/132 127/127/127 134/134/134
f 133/133/133 134/134/134 135/135/135
f 136/136/136 135/135/135 134/134/134
f 135/135/135 136/136/136 137/137/137
f 138/138/138 137/137/137 136/136/136
f 136/136/136 134/134/134 138/138/138
f 134/134/134 127/127/127 138/138/138
f 137/137/137 138/138/138 139/139/139
f 140/140/140 139/139/139 138/138/138
f 139/139/139 140/140/140 141/141/141
f 142/142/142 141/141/141 140/140/140
f 140/140/140 138/138/138 142/142/142
f 138/138/138 127/127/127 142/142/142
f 141/141/141 142/142/142 143/143/143
f 144/144/144 143/143/143 142/142/142
f 142/142/142 127/127/127 144/144/144
f 144/144/144 127/127/127 130/130/130
