g meger3d_Char_sundries_C3_6
v 0.1192793 -0.4740668 -0.06886306
v 0.1377166 -0.4740668 -2.288818E-07
v 0.1377166 -0.2925667 -2.288818E-07
v 0.1192793 -0.2925667 -0.06886306
v 0.0688537 -0.4740668 -0.1192696
v 0.0688537 -0.2925667 -0.1192696
v 9.536743E-06 -0.4740668 -0.1377261
v 9.536743E-06 -0.2925667 -0.1377261
v -0.06885339 -0.4740668 -0.1192696
v -0.06885339 -0.2925667 -0.1192696
v -0.1192793 -0.4740668 -0.06886306
v -0.1192793 -0.2925667 -0.06886306
v -0.1377163 -0.4740668 -2.288818E-07
v -0.1377163 -0.2925667 -2.288818E-07
v 0.1192793 -0.2925667 0.06886284
v 0.1192793 -0.4740668 0.06886284
v 0.0688537 -0.2925667 0.1192694
v 0.0688537 -0.4740668 0.1192694
v 9.536743E-06 -0.2925667 0.1377257
v 9.536743E-06 -0.4740668 0.1377257
v -0.06885339 -0.2925667 0.1192694
v -0.06885339 -0.4740668 0.1192694
v -0.1192793 -0.2925667 0.06886284
v -0.1192793 -0.4740668 0.06886284
v -0.1377163 -0.2925667 -2.288818E-07
v -0.1377163 -0.4740668 -2.288818E-07
v -0.1481701 -0.2693405 -0.07849945
v -0.08554177 -0.2693405 -0.1359773
v -0.1710927 -0.2693405 -2.288818E-07
v -0.1481701 -0.2693405 0.07849945
v -0.1710927 -0.2693405 -2.288818E-07
v -0.08554177 -0.2693405 0.1359766
v 9.536743E-06 -0.2693405 0.1570181
v 0.08554146 -0.2693405 0.1359766
v 0.1481701 -0.2693405 0.07849945
v 0.1710927 -0.2693405 -2.288818E-07
v 0.1481701 -0.2693405 -0.07849945
v 0.08554146 -0.2693405 -0.1359773
v 9.536743E-06 -0.2693405 -0.1570181
v 0.1583199 -0.07689346 -0.06831177
v 0.187477 -0.07689346 -2.288818E-07
v 0.1721191 0.1745145 -0.04521812
v 0.2068833 0.1745145 -2.288818E-07
v 0.09937873 0.1745145 -0.07832862
v 0.09139585 -0.07689346 -0.1183008
v 9.536743E-06 0.1745145 -0.09043632
v 9.536743E-06 -0.07689346 -0.1366045
v -0.09139583 -0.07689346 -0.1183008
v -0.09937872 0.1745145 -0.07832862
v -0.1583199 -0.07689346 -0.06831177
v -0.1721191 0.1745145 -0.04521812
v -0.1874577 -0.07689346 -2.288818E-07
v -0.206883 0.1745145 -2.288818E-07
v 0.1721191 0.1745145 0.04521797
v 0.1583199 -0.07689346 0.06831131
v 0.09937873 0.1745145 0.07832862
v 0.09139585 -0.07689346 0.1183003
v 9.536743E-06 0.1745145 0.09043586
v 9.536743E-06 -0.07689346 0.1366041
v -0.09139583 -0.07689346 0.1183003
v -0.09937872 0.1745145 0.07832862
v -0.1583199 -0.07689346 0.06831131
v -0.1721191 0.1745145 0.04521797
v -0.1874577 -0.07689346 -2.288818E-07
v -0.206883 0.1745145 -2.288818E-07
v -0.2275449 0.4565652 0.009449149
v -0.2295382 0.4560954 0.0005431916
v 0.1192793 -0.4740668 -0.06886306
v 9.536743E-06 -0.4740668 -2.288818E-07
v 0.1377166 -0.4740668 -2.288818E-07
v 0.0688537 -0.4740668 -0.1192696
v 9.536743E-06 -0.4740668 -0.1377261
v -0.06885339 -0.4740668 -0.1192696
v -0.1192793 -0.4740668 -0.06886306
v -0.1377163 -0.4740668 -2.288818E-07
v -0.1192793 -0.4740668 0.06886284
v -0.06885339 -0.4740668 0.1192694
v 9.536743E-06 -0.4740668 0.1377257
v 0.0688537 -0.4740668 0.1192694
v 0.1192793 -0.4740668 0.06886284
v 0.2295382 0.4560954 0.0005431916
v 0.2275455 0.4565681 -0.008359439
v 0.2295382 0.4560954 0.0005431916
v 0.2275449 0.4565652 0.009449149
v 0.1094527 0.4566238 -0.01537418
v 0.1895924 0.4562387 -0.009056765
v 9.536743E-06 0.4568068 -0.01756443
v -0.1094526 0.4566238 -0.01537418
v -0.1895921 0.4562387 -0.009056765
v -0.2275455 0.4565681 -0.008359439
v 0.2275455 0.4565681 -0.008359439
v -0.2275455 0.4565681 -0.008359439
v -0.2295382 0.4560954 0.0005431916
v 0.1094527 0.4566238 -0.01537418
v 0.1895924 0.4562387 -0.009056765
v 0.1895812 0.45624 0.009084751
v 0.1094527 0.4566238 0.01537381
v 0.1094527 0.4566238 0.01537381
v 9.536743E-06 0.4568068 0.01756397
v 9.536743E-06 0.4568068 -0.01756443
v 0.1094527 0.4566238 -0.01537418
v 0.1895924 0.4562387 -0.009056765
v 0.2275455 0.4565681 -0.008359439
v 0.2275449 0.4565652 0.009449149
v 0.1895812 0.45624 0.009084751
v 0.2295382 0.4560954 0.0005431916
v 9.536743E-06 0.4568068 0.01756397
v -0.1094526 0.4566238 0.01537381
v -0.1094526 0.4566238 -0.01537418
v 9.536743E-06 0.4568068 -0.01756443
v -0.1094526 0.4566238 0.01537381
v -0.1895809 0.45624 0.009084751
v -0.1895921 0.4562387 -0.009056765
v -0.1094526 0.4566238 -0.01537418
v -0.1895809 0.45624 0.009084751
v -0.2275449 0.4565652 0.009449149
v -0.2275455 0.4565681 -0.008359439
v -0.1895921 0.4562387 -0.009056765
v -0.2295382 0.4560954 0.0005431916
v -0.1094526 0.4566238 0.01537381
v -0.1895809 0.45624 0.009084751
v 9.536743E-06 0.4568068 0.01756397
v 0.1094527 0.4566238 0.01537381
v 0.1895812 0.45624 0.009084751
v 0.2275449 0.4565652 0.009449149
v -0.2275449 0.4565652 0.009449149
vt 0.083343 0.992191
vt 0.097972 0.992191
vt 0.098001 0.957886
vt 0.083305 0.957886
vt 0.068783 0.992191
vt 0.068712 0.957886
vt 0.054303 0.992191
vt 0.054255 0.957886
vt 0.039921 0.992191
vt 0.039778 0.957886
vt 0.025615 0.992191
vt 0.025107 0.957886
vt 0.010099 0.992191
vt 0.010099 0.957886
vt 0.112722 0.957886
vt 0.112392 0.992191
vt 0.127349 0.957886
vt 0.126553 0.992191
vt 0.14184 0.957886
vt 0.140634 0.992191
vt 0.156409 0.957886
vt 0.154519 0.992191
vt 0.171315 0.957886
vt 0.168125 0.992191
vt 0.186651 0.957886
vt 0.186651 0.992191
vt 0.024117 0.951179
vt 0.038814 0.951179
vt 0.010099 0.951179
vt 0.172422 0.951179
vt 0.186651 0.951179
vt 0.157548 0.951179
vt 0.142001 0.951179
vt 0.126541 0.951179
vt 0.111919 0.951179
vt 0.098079 0.951179
vt 0.084242 0.951179
vt 0.069643 0.951179
vt 0.054246 0.951179
vt 0.085345 0.914647
vt 0.098277 0.914647
vt 0.088372 0.866661
vt 0.099101 0.866661
vt 0.073441 0.866661
vt 0.070752 0.914647
vt 0.054577 0.866661
vt 0.054244 0.914647
vt 0.037703 0.914647
vt 0.035714 0.866661
vt 0.023035 0.914647
vt 0.020812 0.866661
vt 0.010099 0.914647
vt 0.010099 0.866665
vt 0.109765 0.866661
vt 0.11127 0.914647
vt 0.124526 0.866661
vt 0.125961 0.914647
vt 0.143203 0.866661
vt 0.142516 0.914647
vt 0.159076 0.914647
vt 0.161803 0.866661
vt 0.173745 0.914647
vt 0.176338 0.866661
vt 0.186651 0.914647
vt 0.186651 0.866661
vt 0.1860485 0.8122126
vt 0.186651 0.8123032
vt 0.226135 0.86312
vt 0.219486 0.838115
vt 0.212742 0.86309
vt 0.237746 0.856444
vt 0.244466 0.84486
vt 0.24449 0.831467
vt 0.237819 0.819854
vt 0.226233 0.813136
vt 0.21284 0.813108
vt 0.201227 0.819784
vt 0.194508 0.831369
vt 0.194483 0.84476
vt 0.201156 0.856374
vt 0.09983139 0.8123033
vt 0.09920586 0.812212
vt 0.09983139 0.8123033
vt 0.1004557 0.8122126
vt 0.07625578 0.8122113
vt 0.09162512 0.8122756
vt 0.05512829 0.812166
vt 0.03410184 0.8122113
vt 0.01899203 0.8122756
vt 0.01072482 0.812212
vt 0.09920586 0.812212
vt 0.01072482 0.812212
vt 0.010099 0.8123035
vt 0.07625578 0.8122113
vt 0.09162512 0.8122756
vt 0.09142719 0.8120819
vt 0.07693287 0.8118693
vt 0.07617734 0.8117566
vt 0.05535181 0.8116168
vt 0.05512829 0.812166
vt 0.07625578 0.8122113
vt 0.108054 0.812122
vt 0.09920586 0.812212
vt 0.1004557 0.8122126
vt 0.1080468 0.8122754
vt 0.09983139 0.8123033
vt 0.05491598 0.8116168
vt 0.03419012 0.8117566
vt 0.03410184 0.8122113
vt 0.05512829 0.812166
vt 0.03343358 0.8118693
vt 0.01921409 0.8120819
vt 0.01899203 0.8122756
vt 0.03410184 0.8122113
vt 0.01899532 0.8121223
vt 0.01072574 0.8120623
vt 0.01072482 0.812212
vt 0.01899203 0.8122756
vt 0.010099 0.8123035
vt 0.1655727 0.8122113
vt 0.1805826 0.8122754
vt 0.1445619 0.812166
vt 0.123427 0.8122113
vt 0.1080468 0.8122754
vt 0.1004557 0.8122126
vt 0.1860485 0.8122126
vn 0.8257403 -0.3014177 -0.4767601
vn 0.953476 -0.3014692 0
vn 0.9827303 -0.1850438 0
vn 0.8508486 -0.1669866 -0.4981688
vn 0.4767507 -0.3014723 -0.8257259
vn 0.4900341 -0.1330978 -0.8614822
vn 0 -0.3014451 -0.9534835
vn 4.24702E-07 -0.117876 -0.9930283
vn -0.4766917 -0.3014842 -0.8257555
vn -0.4899744 -0.1330982 -0.8615161
vn -0.8257315 -0.3014499 -0.4767551
vn -0.8508483 -0.1669878 -0.4981688
vn -0.9534638 -0.3015074 0
vn -0.9827303 -0.1850442 0
vn 0.850849 -0.1669864 0.4981682
vn 0.8257407 -0.3014179 0.4767595
vn 0.4900333 -0.1330972 0.8614827
vn 0.47675 -0.3014725 0.8257263
vn 4.226201E-07 -0.117876 0.9930283
vn 0 -0.3014457 0.9534833
vn -0.4899736 -0.1330976 0.8615167
vn -0.4766909 -0.3014843 0.8257561
vn -0.8508489 -0.1669875 0.4981681
vn -0.8257319 -0.30145 0.4767545
vn -0.9827303 -0.1850442 0
vn -0.9534638 -0.3015074 0
vn -0.806977 -0.1236505 -0.5774935
vn -0.4307616 -0.0299352 -0.9019691
vn -0.9836431 -0.1801283 0
vn -0.8069765 -0.1236499 0.5774942
vn -0.9836431 -0.1801283 0
vn -0.4307617 -0.02993468 0.9019691
vn -6.014569E-07 0.01080461 0.9999417
vn 0.4308059 -0.02994155 0.9019477
vn 0.8069495 -0.1236642 0.577529
vn 0.9836361 -0.1801665 0
vn 0.8069498 -0.1236648 -0.5775283
vn 0.4308057 -0.02994205 -0.9019478
vn -6.345032E-07 0.01080382 -0.9999417
vn 0.7496557 0.01370888 -0.6616861
vn 0.9987713 -0.04955808 0
vn 0.5499007 0.0832937 -0.8310665
vn 0.9985622 -0.05360666 -7.197678E-05
vn 0.2130906 0.1911851 -0.9581443
vn 0.3678383 0.1031577 -0.9241502
vn 0 0.2252041 -0.9743116
vn 0 0.1364619 -0.9906453
vn -0.3677999 0.1031628 -0.9241648
vn -0.2130681 0.1911895 -0.9581485
vn -0.7496879 0.01371086 -0.6616495
vn -0.5499201 0.08328584 -0.8310544
vn -0.9987711 -0.04955887 0
vn -0.9985605 -0.0536376 -7.19315E-05
vn 0.5498776 0.0832139 0.8310897
vn 0.7496561 0.01370847 0.6616856
vn 0.2130898 0.1911852 0.9581445
vn 0.3678378 0.1031574 0.9241503
vn 0 0.2252042 0.9743115
vn 0 0.1364616 0.9906454
vn -0.3677994 0.1031625 0.9241651
vn -0.2130673 0.1911895 0.9581487
vn -0.7496884 0.01371046 0.661649
vn -0.549897 0.08320603 0.8310776
vn -0.9987711 -0.04955887 0
vn -0.9985605 -0.0536376 -7.19315E-05
vn -0.8243461 -0.07916727 0.5605229
vn -0.8243461 -0.07916728 0.560523
vn 0.8257403 -0.3014177 -0.4767601
vn 0 -1 0
vn 0.953476 -0.3014692 0
vn 0.4767507 -0.3014723 -0.8257259
vn 0 -0.3014451 -0.9534835
vn -0.4766917 -0.3014842 -0.8257555
vn -0.8257315 -0.3014499 -0.4767551
vn -0.9534638 -0.3015074 0
vn -0.8257319 -0.30145 0.4767545
vn -0.4766909 -0.3014843 0.8257561
vn 0 -0.3014457 0.9534833
vn 0.47675 -0.3014725 0.8257263
vn 0.8257407 -0.3014179 0.4767595
vn 0.8244764 -0.07701335 -0.5606315
vn 0.8244764 -0.07701336 -0.5606315
vn 0.8243436 -0.07916623 0.5605268
vn 0.8243436 -0.07916623 0.5605268
vn 0.1465741 0.1997773 -0.9688163
vn 0.2003418 0.1505593 -0.9680884
vn 0 0.2328485 -0.9725131
vn -0.1465593 0.1997811 -0.9688178
vn -0.2003417 0.1505592 -0.9680884
vn -0.0171277 0.1262488 -0.9918507
vn 0.01712784 0.1262489 -0.9918507
vn -0.8244789 -0.07701451 -0.5606277
vn -0.8244789 -0.07701451 -0.5606276
vn 0.002727306 0.9999963 -7.889575E-06
vn 0.001482756 0.9999989 -8.204302E-06
vn 0.001441311 0.999999 -8.014751E-06
vn 0.002727466 0.9999963 -7.890771E-06
vn 0.002727466 0.9999963 -7.890771E-06
vn 0 1 0
vn 0 1 0
vn 0.002727306 0.9999963 -7.889575E-06
vn 0.001482756 0.9999989 -8.204302E-06
vn -0.007719931 0.9999702 3.849258E-05
vn -0.007704171 0.9999703 3.850089E-05
vn 0.001441311 0.999999 -8.014751E-06
vn 0.2300834 0.9731709 0.0001625704
vn 0 1 0
vn -0.002727157 0.9999963 -7.889882E-06
vn -0.002726997 0.9999963 -7.888686E-06
vn 0 1 0
vn -0.002727157 0.9999963 -7.889882E-06
vn -0.001441311 0.999999 -8.014755E-06
vn -0.001482756 0.9999989 -8.204304E-06
vn -0.002726997 0.9999963 -7.888686E-06
vn -0.001441311 0.999999 -8.014755E-06
vn 0.007704116 0.9999703 3.849881E-05
vn 0.007719873 0.9999702 3.849054E-05
vn -0.001482756 0.9999989 -8.204304E-06
vn -0.2300904 0.9731693 0.0001621234
vn -0.1464846 0.1997709 0.9688311
vn -0.1947429 0.1510456 0.9691545
vn 0 0.2328491 0.9725128
vn 0.1464994 0.1997671 0.9688298
vn 0.1947429 0.1510456 0.9691545
vn -0.01061446 0.1278549 0.9917361
vn 0.01061437 0.1278549 0.9917361
g meger3d_Char_sundries_C3_6_0
f 3/3/3 2/2/2 1/1/1
f 4/4/4 3/3/3 1/1/1
f 4/4/4 1/1/1 5/5/5
f 6/6/6 4/4/4 5/5/5
f 6/6/6 5/5/5 7/7/7
f 8/8/8 6/6/6 7/7/7
f 8/8/8 7/7/7 9/9/9
f 10/10/10 8/8/8 9/9/9
f 10/10/10 9/9/9 11/11/11
f 12/12/12 10/10/10 11/11/11
f 12/12/12 11/11/11 13/13/13
f 14/14/14 12/12/12 13/13/13
f 3/3/3 15/15/15 2/2/2
f 15/15/15 16/16/16 2/2/2
f 15/15/15 17/17/17 16/16/16
f 17/17/17 18/18/18 16/16/16
f 17/17/17 19/19/19 18/18/18
f 19/19/19 20/20/20 18/18/18
f 19/19/19 21/21/21 20/20/20
f 21/21/21 22/22/22 20/20/20
f 21/21/21 23/23/23 22/22/22
f 23/23/23 24/24/24 22/22/22
f 23/23/23 25/25/25 24/24/24
f 25/25/25 26/26/26 24/24/24
f 27/27/27 12/12/12 14/14/14
f 27/27/27 28/28/28 12/12/12
f 29/29/29 27/27/27 14/14/14
f 23/23/23 30/30/30 25/25/25
f 30/30/30 31/31/31 25/25/25
f 32/32/32 30/30/30 23/23/23
f 21/21/21 32/32/32 23/23/23
f 33/33/33 32/32/32 21/21/21
f 19/19/19 33/33/33 21/21/21
f 33/33/33 19/19/19 17/17/17
f 34/34/34 33/33/33 17/17/17
f 34/34/34 17/17/17 15/15/15
f 35/35/35 34/34/34 15/15/15
f 35/35/35 15/15/15 3/3/3
f 36/36/36 35/35/35 3/3/3
f 37/37/37 36/36/36 3/3/3
f 4/4/4 37/37/37 3/3/3
f 38/38/38 37/37/37 4/4/4
f 6/6/6 38/38/38 4/4/4
f 39/39/39 38/38/38 6/6/6
f 8/8/8 39/39/39 6/6/6
f 39/39/39 8/8/8 10/10/10
f 28/28/28 39/39/39 10/10/10
f 28/28/28 10/10/10 12/12/12
f 37/37/37 40/40/40 36/36/36
f 40/40/40 41/41/41 36/36/36
f 41/41/41 40/40/40 42/42/42
f 43/43/43 41/41/41 42/42/42
f 42/42/42 40/40/40 44/44/44
f 40/40/40 45/45/45 44/44/44
f 45/45/45 40/40/40 37/37/37
f 38/38/38 45/45/45 37/37/37
f 44/44/44 45/45/45 46/46/46
f 45/45/45 47/47/47 46/46/46
f 47/47/47 45/45/45 38/38/38
f 39/39/39 47/47/47 38/38/38
f 39/39/39 28/28/28 47/47/47
f 46/46/46 47/47/47 48/48/48
f 28/28/28 48/48/48 47/47/47
f 49/49/49 46/46/46 48/48/48
f 49/49/49 48/48/48 50/50/50
f 51/51/51 49/49/49 50/50/50
f 51/51/51 50/50/50 52/52/52
f 53/53/53 51/51/51 52/52/52
f 43/43/43 54/54/54 41/41/41
f 54/54/54 55/55/55 41/41/41
f 54/54/54 56/56/56 55/55/55
f 56/56/56 57/57/57 55/55/55
f 56/56/56 58/58/58 57/57/57
f 58/58/58 59/59/59 57/57/57
f 60/60/60 59/59/59 58/58/58
f 61/61/61 60/60/60 58/58/58
f 62/62/62 60/60/60 61/61/61
f 63/63/63 62/62/62 61/61/61
f 64/64/64 62/62/62 63/63/63
f 65/65/65 64/64/64 63/63/63
f 29/29/29 52/52/52 50/50/50
f 62/62/62 64/64/64 31/31/31
f 30/30/30 62/62/62 31/31/31
f 60/60/60 62/62/62 30/30/30
f 32/32/32 60/60/60 30/30/30
f 59/59/59 60/60/60 32/32/32
f 33/33/33 59/59/59 32/32/32
f 34/34/34 57/57/57 59/59/59
f 33/33/33 34/34/34 59/59/59
f 34/34/34 35/35/35 57/57/57
f 35/35/35 55/55/55 57/57/57
f 35/35/35 36/36/36 55/55/55
f 36/36/36 41/41/41 55/55/55
f 63/63/63 66/66/66 65/65/65
f 66/66/66 67/67/67 65/65/65
f 27/27/27 29/29/29 50/50/50
f 27/27/27 50/50/50 48/48/48
f 28/28/28 27/27/27 48/48/48
f 70/70/70 69/69/69 68/68/68
f 68/68/68 69/69/69 71/71/71
f 71/71/71 69/69/69 72/72/72
f 72/72/72 69/69/69 73/73/73
f 73/73/73 69/69/69 74/74/74
f 74/74/74 69/69/69 75/75/75
f 75/75/75 69/69/69 76/76/76
f 76/76/76 69/69/69 77/77/77
f 77/77/77 69/69/69 78/78/78
f 78/78/78 69/69/69 79/79/79
f 79/79/79 69/69/69 80/80/80
f 80/80/80 69/69/69 70/70/70
f 82/82/82 81/81/81 43/43/43
f 42/42/42 82/82/82 43/43/43
f 43/43/43 83/83/83 54/54/54
f 83/83/83 84/84/84 54/54/54
f 42/42/42 44/44/44 85/85/85
f 86/86/86 42/42/42 85/85/85
f 85/85/85 44/44/44 87/87/87
f 44/44/44 46/46/46 87/87/87
f 87/87/87 46/46/46 49/49/49
f 88/88/88 87/87/87 49/49/49
f 88/88/88 49/49/49 51/51/51
f 89/89/89 88/88/88 51/51/51
f 90/90/90 89/89/89 51/51/51
f 86/86/86 91/91/91 42/42/42
f 93/93/93 92/92/92 51/51/51
f 53/53/53 93/93/93 51/51/51
f 96/96/96 95/95/95 94/94/94
f 97/97/97 96/96/96 94/94/94
f 100/100/100 99/99/99 98/98/98
f 101/101/101 100/100/100 98/98/98
f 104/104/104 103/103/103 102/102/102
f 105/105/105 104/104/104 102/102/102
f 106/106/106 103/103/103 104/104/104
f 109/109/109 108/108/108 107/107/107
f 110/110/110 109/109/109 107/107/107
f 113/113/113 112/112/112 111/111/111
f 114/114/114 113/113/113 111/111/111
f 117/117/117 116/116/116 115/115/115
f 118/118/118 117/117/117 115/115/115
f 116/116/116 117/117/117 119/119/119
f 63/63/63 61/61/61 120/120/120
f 121/121/121 63/63/63 120/120/120
f 120/120/120 61/61/61 122/122/122
f 61/61/61 58/58/58 122/122/122
f 122/122/122 58/58/58 56/56/56
f 123/123/123 122/122/122 56/56/56
f 123/123/123 56/56/56 54/54/54
f 124/124/124 123/123/123 54/54/54
f 125/125/125 124/124/124 54/54/54
f 121/121/121 126/126/126 63/63/63
