g meger3d_Char_sundries_C2_4
v -0.06226845 -0.2992663 4.653931E-06
v -0.05462662 -0.2992663 0.03197998
v -0.05108566 -0.4832776 0.03197998
v -0.05822204 -0.4832776 4.653931E-06
v -0.04450134 -0.4832776 0.04323677
v -0.04759117 -0.2992663 0.04323677
v -0.04167785 -0.4910858 0.03920852
v -0.04669006 -0.4910858 0.03059135
v -0.05320999 -0.4910858 4.653931E-06
v 0 -0.2992663 0.04804634
v 0 -0.4832678 0.04804634
v 0 -0.4910858 0.04342041
v 0.04759117 -0.2992663 0.04323677
v 0.04450104 -0.4832776 0.04323677
v 0.05462631 -0.2992663 0.03197998
v 0.05108612 -0.4832776 0.03197998
v 0.06226867 -0.2992663 4.653931E-06
v 0.0582225 -0.4832776 4.653931E-06
v 0.04167809 -0.4910858 0.03920852
v 0.04669006 -0.4910858 0.03059135
v 0.05108612 -0.4832776 -0.03198074
v 0.05321045 -0.4910858 4.653931E-06
v 0.04669006 -0.4910858 -0.03058258
v 0.04167809 -0.4910858 -0.03919952
v 0.04450104 -0.4832776 -0.04323677
v 0.05462631 -0.2992663 -0.03198074
v 0.04759117 -0.2992663 -0.04323677
v 0 -0.2992663 -0.04804634
v 0 -0.4832678 -0.04804634
v -0.04450134 -0.4832776 -0.04323677
v -0.04759117 -0.2992663 -0.04323677
v -0.05108566 -0.4832776 -0.03198074
v -0.05462662 -0.2992663 -0.03198074
v -0.05822204 -0.4832776 4.653931E-06
v -0.06226845 -0.2992663 4.653931E-06
v -0.05320999 -0.4910858 4.653931E-06
v -0.04669006 -0.4910858 -0.03058258
v -0.04167785 -0.4910858 -0.03919952
v 0 -0.4910858 -0.04341141
v -0.07624679 -0.2886728 4.653931E-06
v -0.06690338 -0.2886728 0.04136955
v -0.05462662 -0.2992663 0.03197998
v -0.06226845 -0.2992663 4.653931E-06
v -0.0911177 -0.2696261 4.653931E-06
v -0.07994393 -0.2696261 0.0501889
v -0.09568817 -0.2456525 4.653931E-06
v -0.08395363 -0.2456525 0.05505379
v -0.09067611 -0.02188537 0.03700127
v -0.1004976 -0.02188537 4.653931E-06
v -0.04759117 -0.2992663 0.04323677
v -0.05931602 -0.2886728 0.05278252
v 0 -0.2886728 0.06018501
v 0 -0.2992663 0.04804634
v 0 -0.2696261 0.07247185
v -0.07185119 -0.2696261 0.06229134
v 0 -0.2456525 0.08485039
v -0.07628326 -0.2456525 0.06823219
v 0 -0.02188537 0.05910072
v -0.08343834 -0.02188537 0.04982109
v 0 0.2037744 0.03495064
v -0.09910896 0.2037744 0.02934067
v -0.1071744 0.2037744 0.01850746
v -0.1119747 0.2037744 4.653931E-06
v 0.04759117 -0.2992663 0.04323677
v 0.05931648 -0.2886728 0.05278252
v 0.07185119 -0.2696261 0.06229134
v 0.07628349 -0.2456525 0.06823219
v 0.08343887 -0.02188537 0.04982109
v 0.06690369 -0.2886728 0.04136955
v 0.05462631 -0.2992663 0.03197998
v 0.07624725 -0.2886728 4.653931E-06
v 0.06226867 -0.2992663 4.653931E-06
v 0.0911177 -0.2696261 4.653931E-06
v 0.07994415 -0.2696261 0.0501889
v 0.09568817 -0.2456525 4.653931E-06
v 0.08395363 -0.2456525 0.05505379
v 0.09067642 -0.02188537 0.03700127
v 0.100498 -0.02188537 4.653931E-06
v 0.09910965 0.2037744 0.02934067
v 0.1071746 0.2037744 0.01850746
v 0.05462631 -0.2992663 -0.03198074
v 0.06690369 -0.2886728 -0.04136055
v 0.04759117 -0.2992663 -0.04323677
v 0.05931648 -0.2886728 -0.05277351
v 0 -0.2886728 -0.06018578
v 0 -0.2992663 -0.04804634
v -0.04759117 -0.2992663 -0.04323677
v -0.05931602 -0.2886728 -0.05277351
v 0 -0.2696261 -0.07246284
v -0.07185119 -0.2696261 -0.06228233
v 0 -0.2456525 -0.08485039
v -0.07628326 -0.2456525 -0.06823242
v 0 -0.02188537 -0.05909126
v -0.08343834 -0.02188537 -0.04981209
v -0.06690338 -0.2886728 -0.04136055
v -0.05462662 -0.2992663 -0.03198074
v -0.07994393 -0.2696261 -0.05018944
v -0.08395363 -0.2456525 -0.05504479
v -0.09067611 -0.02188537 -0.03700149
v 0 0.2037744 -0.03495117
v -0.09910896 0.2037744 -0.02934135
v -0.1071744 0.2037744 -0.01849846
v -0.1004976 -0.02188537 4.653931E-06
v -0.1119747 0.2037744 4.653931E-06
v 0 0.4297201 -0.0118589
v -0.1223756 0.4297201 -0.009771576
v -0.07624679 -0.2886728 4.653931E-06
v -0.06226845 -0.2992663 4.653931E-06
v -0.0911177 -0.2696261 4.653931E-06
v -0.09568817 -0.2456525 4.653931E-06
v 0.09910965 0.2037744 -0.02934135
v 0.08343887 -0.02188537 -0.04981209
v 0.07628349 -0.2456525 -0.06823242
v 0.07185119 -0.2696261 -0.06228233
v 0.07994415 -0.2696261 -0.05018944
v 0.08395363 -0.2456525 -0.05504479
v 0.09067642 -0.02188537 -0.03700149
v 0.1071746 0.2037744 -0.01849846
v 0.1119752 0.2037744 4.653931E-06
v 0.1302761 0.4297201 0.004409409
v 0.1317011 0.4297201 -8.712769E-05
v 0.1392055 0.4910782 0.002285156
v 0.1414584 0.4910858 1.38855E-05
v 0.1392055 0.4910782 -0.002285385
v 0.1321331 0.4910858 0.003728714
v 0.1223764 0.4297201 0.009780273
v 0.1302761 0.4297201 -0.004391174
v 0.1223764 0.4297201 -0.009771576
v 0.1321331 0.4910858 -0.003729248
v 0.1392055 0.4910782 -0.002285385
v 0.1321331 0.4910858 -0.003729248
v 0 0.4910782 -0.004566116
v 0 0.4910782 0.004565887
v 0 0.4297201 0.0118679
v -0.1223756 0.4297201 0.009780273
v -0.1302757 0.4297201 0.004409409
v 0 0.4910782 -0.004566116
v -0.1317007 0.4297201 -8.712769E-05
v -0.1392052 0.4910782 0.002285156
v -0.1414584 0.4910858 1.38855E-05
v -0.1321331 0.4910858 -0.003729248
v -0.1321331 0.4910858 0.003728714
v -0.1321331 0.4910858 -0.003729248
v -0.1392052 0.4910782 -0.002285385
v -0.1302757 0.4297201 -0.004391174
v -0.1317007 0.4297201 -8.712769E-05
v -0.1392052 0.4910782 -0.002285385
v -0.1414584 0.4910858 1.38855E-05
v 0.04669006 -0.4910858 -0.03058258
v 0.04167809 -0.4910858 -0.03919952
v 0.04167809 -0.4910858 0.03920852
v 0.05321045 -0.4910858 4.653931E-06
v 0.04669006 -0.4910858 0.03059135
v 0 -0.4910858 0.04342041
v 0 -0.4910858 -0.04341141
v -0.04167785 -0.4910858 -0.03919952
v -0.04167785 -0.4910858 0.03920852
v -0.04669006 -0.4910858 -0.03058258
v -0.05320999 -0.4910858 4.653931E-06
v -0.04669006 -0.4910858 0.03059135
vt 0.691999 0.658699
vt 0.696399 0.658699
vt 0.696399 0.633599
vt 0.691999 0.633599
vt 0.698099 0.633599
vt 0.698099 0.658699
vt 0.698099 0.632399
vt 0.696399 0.632399
vt 0.691999 0.632399
vt 0.7042 0.658699
vt 0.7042 0.633599
vt 0.7042 0.632399
vt 0.710399 0.658699
vt 0.710399 0.633599
vt 0.712 0.658699
vt 0.712 0.633599
vt 0.716499 0.658699
vt 0.716499 0.633599
vt 0.710399 0.632399
vt 0.712 0.632399
vt 0.720899 0.633599
vt 0.716499 0.632399
vt 0.720899 0.632399
vt 0.7225 0.632399
vt 0.7225 0.633599
vt 0.720899 0.658699
vt 0.7225 0.658699
vt 0.728699 0.658699
vt 0.728699 0.633599
vt 0.734799 0.633599
vt 0.734799 0.658699
vt 0.7365 0.633599
vt 0.7365 0.658699
vt 0.740899 0.633599
vt 0.740899 0.658699
vt 0.740899 0.632399
vt 0.7365 0.632399
vt 0.734799 0.632399
vt 0.728699 0.632399
vt 0.689499 0.662199
vt 0.694299 0.662199
vt 0.694899 0.6603
vt 0.6908 0.6603
vt 0.687799 0.6654
vt 0.6934 0.6654
vt 0.6869 0.669
vt 0.693 0.669
vt 0.6911 0.697499
vt 0.6868 0.697499
vt 0.696699 0.6603
vt 0.6958 0.662199
vt 0.7031 0.662199
vt 0.703299 0.6603
vt 0.702799 0.6654
vt 0.694999 0.6654
vt 0.702499 0.669
vt 0.694599 0.669
vt 0.7019 0.697499
vt 0.6927 0.697499
vt 0.702099 0.725899
vt 0.6911 0.725899
vt 0.689599 0.725899
vt 0.687399 0.725899
vt 0.709999 0.6603
vt 0.710099 0.662199
vt 0.7102 0.6654
vt 0.7099 0.669
vt 0.711099 0.697499
vt 0.7117 0.662199
vt 0.711899 0.6603
vt 0.7167 0.662199
vt 0.7166 0.6603
vt 0.7167 0.6654
vt 0.7117 0.6654
vt 0.7167 0.669
vt 0.711399 0.669
vt 0.7127 0.697499
vt 0.716899 0.697499
vt 0.713299 0.725899
vt 0.7148 0.725899
vt 0.7214 0.6603
vt 0.721599 0.662199
vt 0.723299 0.6603
vt 0.7232 0.662199
vt 0.730199 0.662199
vt 0.7299 0.6603
vt 0.7365 0.6603
vt 0.737399 0.662199
vt 0.730599 0.6654
vt 0.7383 0.6654
vt 0.730899 0.669
vt 0.738699 0.669
vt 0.7318 0.697499
vt 0.7411 0.697499
vt 0.7389 0.662199
vt 0.7383 0.6603
vt 0.739899 0.6654
vt 0.740299 0.669
vt 0.742799 0.697499
vt 0.731899 0.725899
vt 0.742999 0.725899
vt 0.744499 0.725899
vt 0.747099 0.697499
vt 0.746699 0.725899
vt 0.7324 0.7541
vt 0.7462 0.7541
vt 0.7437 0.662199
vt 0.742399 0.6603
vt 0.7454 0.6654
vt 0.746399 0.669
vt 0.7207 0.725899
vt 0.722699 0.697499
vt 0.7235 0.669
vt 0.7232 0.6654
vt 0.7217 0.6654
vt 0.722 0.669
vt 0.721099 0.697499
vt 0.7192 0.725899
vt 0.717 0.725899
vt 0.716499 0.7541
vt 0.717 0.7541
vt 0.716799 0.762
vt 0.7171 0.762
vt 0.716799 0.763
vt 0.7159 0.762
vt 0.715399 0.7541
vt 0.717599 0.7541
vt 0.718699 0.7541
vt 0.718299 0.762
vt 0.717499 0.762
vt 0.7159 0.763
vt 0.732599 0.762
vt 0.7013 0.762
vt 0.701499 0.7541
vt 0.687799 0.7541
vt 0.686699 0.7541
vt 0.7013 0.763
vt 0.6861 0.7541
vt 0.6855 0.762
vt 0.685199 0.762
vt 0.747399 0.762
vt 0.686399 0.762
vt 0.686299 0.763
vt 0.6855 0.7627
vt 0.7473 0.7541
vt 0.747799 0.7541
vt 0.748199 0.762
vt 0.7486 0.762
vt 0.7185 0.6079
vt 0.7171 0.6089
vt 0.73 0.6089
vt 0.7235 0.6067
vt 0.7286 0.6079
vt 0.7307 0.616599
vt 0.7164 0.616599
vt 0.7171 0.6243
vt 0.73 0.6243
vt 0.7185 0.625299
vt 0.7235 0.6265
vt 0.7286 0.625299
vn -0.9938141 -0.111056 1.460503E-07
vn -0.9448696 -0.1092925 0.3086689
vn -0.9493756 -0.04068333 0.3114975
vn -0.9990861 -0.04274365 0
vn -0.2883126 -0.02360494 0.9572453
vn -0.2877175 -0.1015433 0.952317
vn -0.03122655 -0.9937692 0.1069936
vn -0.268009 -0.9598528 0.08278856
vn -0.3793339 -0.9252599 2.861262E-07
vn 0 -0.07178221 0.9974203
vn 0 -0.02198709 0.9997583
vn 0 -0.9948783 0.1010794
vn 0.2877171 -0.1015445 0.952317
vn 0.2883116 -0.02360522 0.9572456
vn 0.9448666 -0.1092919 0.3086784
vn 0.9493725 -0.04068189 0.3115073
vn 0.9938141 -0.1110571 1.340789E-07
vn 0.9990861 -0.04274218 0
vn 0.03122675 -0.9937695 0.1069912
vn 0.2680041 -0.9598539 0.08279066
vn 0.949391 -0.04068246 -0.311451
vn 0.3793342 -0.9252597 0
vn 0.2680801 -0.9598333 -0.082783
vn 0.03122971 -0.9937714 -0.1069722
vn 0.2882955 -0.02364004 -0.9572496
vn 0.9448878 -0.1092645 -0.3086232
vn 0.2877084 -0.1015167 -0.9523225
vn 0 -0.07176036 -0.997422
vn 0 -0.02202852 -0.9997573
vn -0.2882964 -0.02363978 -0.9572494
vn -0.2877088 -0.1015154 -0.9523225
vn -0.9493941 -0.04068389 -0.3114412
vn -0.9448908 -0.1092651 -0.3086137
vn -0.9990861 -0.04274365 0
vn -0.9938141 -0.111056 1.460503E-07
vn -0.3793339 -0.9252599 2.861262E-07
vn -0.2680851 -0.9598322 -0.08278038
vn -0.03122952 -0.9937711 -0.1069746
vn 0 -0.9948791 -0.1010721
vn -0.731066 -0.6823068 0
vn -0.6952355 -0.6841549 0.2204079
vn -0.9448696 -0.1092925 0.3086689
vn -0.9938141 -0.111056 1.460503E-07
vn -0.9208205 -0.3899865 -3.875626E-07
vn -0.8808446 -0.3915838 0.2660357
vn -0.9993533 -0.03595651 0
vn -0.9535118 -0.02942607 0.2999154
vn -0.9476222 -0.02030469 0.3187473
vn -0.9995621 -0.02959123 0
vn -0.2877175 -0.1015433 0.952317
vn -0.2067405 -0.6201479 0.7567529
vn 0 -0.6014275 0.7989273
vn 0 -0.07178221 0.9974203
vn 0 -0.4355896 0.9001454
vn -0.2727091 -0.4414324 0.8548492
vn 0 0.0532204 0.9985828
vn -0.2776711 0.04714079 0.9595188
vn 0 0.09562898 0.995417
vn -0.231612 0.0859366 0.969005
vn 0 0.0937397 0.9955968
vn -0.1399122 0.08441787 0.9865588
vn -0.9146237 -0.04373291 0.4019338
vn -0.9981074 -0.06149463 1.982179E-05
vn 0.2877171 -0.1015445 0.952317
vn 0.2067416 -0.6201479 0.7567526
vn 0.2727073 -0.4414319 0.8548501
vn 0.2776705 0.04714078 0.9595191
vn 0.2316115 0.0859365 0.9690052
vn 0.6952353 -0.6841552 0.2204074
vn 0.9448666 -0.1092919 0.3086784
vn 0.7310657 -0.6823071 0
vn 0.9938141 -0.1110571 1.340789E-07
vn 0.9208233 -0.3899803 -3.74199E-07
vn 0.8808473 -0.3915776 0.2660353
vn 0.9993533 -0.03595742 0
vn 0.9535126 -0.02942736 0.299913
vn 0.9476231 -0.02030604 0.3187448
vn 0.9995621 -0.02959211 0
vn 0.1399118 0.0844179 0.9865588
vn 0.9146261 -0.04373382 0.4019285
vn 0.9448878 -0.1092645 -0.3086232
vn 0.6952446 -0.6841549 -0.2203795
vn 0.2877084 -0.1015167 -0.9523225
vn 0.2067979 -0.6200268 -0.7568365
vn 0 -0.601288 -0.7990323
vn 0 -0.07176036 -0.997422
vn -0.2877088 -0.1015154 -0.9523225
vn -0.2067968 -0.6200266 -0.756837
vn 0 -0.4356925 -0.9000956
vn -0.2727007 -0.4415481 -0.8547922
vn 0 0.05322696 -0.9985825
vn -0.2776617 0.04714693 -0.9595214
vn 0 0.09562548 -0.9954174
vn -0.2316123 0.08593149 -0.9690054
vn -0.6952447 -0.6841545 -0.2203802
vn -0.9448908 -0.1092651 -0.3086137
vn -0.8808441 -0.3915775 -0.2660468
vn -0.9535203 -0.02942913 -0.2998885
vn -0.9476309 -0.0203077 -0.3187213
vn 0 0.09374288 -0.9955965
vn -0.139948 0.08442005 -0.9865535
vn -0.9144406 -0.04367846 -0.4023562
vn -0.9995621 -0.02959123 0
vn -0.9981074 -0.06149463 1.982179E-05
vn 0 0.09576778 -0.9954036
vn -0.08912506 0.08761185 -0.9921597
vn -0.731066 -0.6823068 0
vn -0.9938141 -0.111056 1.460503E-07
vn -0.9208205 -0.3899865 -3.875626E-07
vn -0.9993533 -0.03595651 0
vn 0.1399476 0.08442009 -0.9865536
vn 0.2316119 0.08593141 -0.9690055
vn 0.2776611 0.04714692 -0.9595215
vn 0.2726989 -0.4415476 -0.854793
vn 0.8808469 -0.3915714 -0.2660464
vn 0.953521 -0.02943039 -0.2998861
vn 0.9476318 -0.02030904 -0.3187187
vn 0.9144429 -0.04367936 -0.4023509
vn 0.9981074 -0.06149434 1.982522E-05
vn 0.8484464 -0.05513743 0.5264016
vn 0.9959186 -0.09025687 -4.143946E-05
vn 0.6095436 0.02538049 0.7923463
vn 0.9917629 -0.1280871 0.0003044262
vn 0.604638 0.02679065 -0.7960497
vn 0.04021689 0.2436028 0.969041
vn 0.08905037 0.08763002 0.9921649
vn 0.847267 -0.05492023 -0.5283202
vn 0.08912504 0.08761194 -0.9921597
vn 0.04025891 0.2434545 -0.9690764
vn 0.604638 0.02679065 -0.7960497
vn 0.04025891 0.2434545 -0.9690764
vn 0 0.2402263 -0.9707168
vn 0 0.2403635 0.9706829
vn 0 0.09577139 0.9954033
vn -0.08905039 0.08762997 0.9921649
vn -0.8484405 -0.05513632 0.5264112
vn 0 0.2402263 -0.9707168
vn -0.9959185 -0.09025724 -4.155475E-05
vn -0.6095337 0.02537497 0.792354
vn -0.9917626 -0.1280889 0.0003034006
vn -0.04025945 0.2434554 -0.9690763
vn -0.04021741 0.2436035 0.9690406
vn -0.04025945 0.2434554 -0.9690763
vn -0.6046274 0.02678525 -0.7960579
vn -0.8472613 -0.05491914 -0.5283297
vn -0.9959185 -0.09025724 -4.155475E-05
vn -0.6046274 0.02678525 -0.7960579
vn -0.9917626 -0.1280889 0.0003034006
vn 0.2680801 -0.9598333 -0.082783
vn 0.03122971 -0.9937714 -0.1069722
vn 0.03122675 -0.9937695 0.1069912
vn 0.3793342 -0.9252597 0
vn 0.2680041 -0.9598539 0.08279066
vn 0 -0.9948783 0.1010794
vn 0 -0.9948791 -0.1010721
vn -0.03122952 -0.9937711 -0.1069746
vn -0.03122655 -0.9937692 0.1069936
vn -0.2680851 -0.9598322 -0.08278038
vn -0.3793339 -0.9252599 2.861262E-07
vn -0.268009 -0.9598528 0.08278856
g meger3d_Char_sundries_C2_4_0
f 3/3/3 2/2/2 1/1/1
f 4/4/4 3/3/3 1/1/1
f 2/2/2 3/3/3 5/5/5
f 6/6/6 2/2/2 5/5/5
f 7/7/7 5/5/5 3/3/3
f 8/8/8 7/7/7 3/3/3
f 9/9/9 8/8/8 3/3/3
f 4/4/4 9/9/9 3/3/3
f 6/6/6 5/5/5 10/10/10
f 5/5/5 11/11/11 10/10/10
f 5/5/5 7/7/7 11/11/11
f 7/7/7 12/12/12 11/11/11
f 13/13/13 10/10/10 11/11/11
f 14/14/14 13/13/13 11/11/11
f 15/15/15 13/13/13 14/14/14
f 16/16/16 15/15/15 14/14/14
f 15/15/15 16/16/16 17/17/17
f 16/16/16 18/18/18 17/17/17
f 16/16/16 14/14/14 19/19/19
f 11/11/11 12/12/12 19/19/19
f 14/14/14 11/11/11 19/19/19
f 20/20/20 16/16/16 19/19/19
f 18/18/18 21/21/21 17/17/17
f 18/18/18 22/22/22 21/21/21
f 16/16/16 20/20/20 22/22/22
f 18/18/18 16/16/16 22/22/22
f 22/22/22 23/23/23 21/21/21
f 23/23/23 24/24/24 21/21/21
f 24/24/24 25/25/25 21/21/21
f 26/26/26 21/21/21 25/25/25
f 21/21/21 26/26/26 17/17/17
f 27/27/27 26/26/26 25/25/25
f 28/28/28 27/27/27 25/25/25
f 29/29/29 28/28/28 25/25/25
f 29/29/29 25/25/25 24/24/24
f 29/29/29 30/30/30 28/28/28
f 30/30/30 31/31/31 28/28/28
f 30/30/30 32/32/32 31/31/31
f 32/32/32 33/33/33 31/31/31
f 33/33/33 32/32/32 34/34/34
f 35/35/35 33/33/33 34/34/34
f 34/34/34 32/32/32 36/36/36
f 32/32/32 37/37/37 36/36/36
f 32/32/32 30/30/30 38/38/38
f 37/37/37 32/32/32 38/38/38
f 30/30/30 29/29/29 38/38/38
f 29/29/29 39/39/39 38/38/38
f 39/39/39 29/29/29 24/24/24
f 42/42/42 41/41/41 40/40/40
f 43/43/43 42/42/42 40/40/40
f 40/40/40 41/41/41 44/44/44
f 41/41/41 45/45/45 44/44/44
f 46/46/46 44/44/44 45/45/45
f 47/47/47 46/46/46 45/45/45
f 47/47/47 48/48/48 46/46/46
f 48/48/48 49/49/49 46/46/46
f 41/41/41 42/42/42 50/50/50
f 51/51/51 41/41/41 50/50/50
f 45/45/45 41/41/41 51/51/51
f 52/52/52 51/51/51 50/50/50
f 53/53/53 52/52/52 50/50/50
f 52/52/52 54/54/54 51/51/51
f 54/54/54 55/55/55 51/51/51
f 55/55/55 45/45/45 51/51/51
f 47/47/47 45/45/45 55/55/55
f 54/54/54 56/56/56 55/55/55
f 56/56/56 57/57/57 55/55/55
f 57/57/57 47/47/47 55/55/55
f 57/57/57 56/56/56 58/58/58
f 59/59/59 57/57/57 58/58/58
f 59/59/59 48/48/48 47/47/47
f 57/57/57 59/59/59 47/47/47
f 58/58/58 60/60/60 59/59/59
f 60/60/60 61/61/61 59/59/59
f 59/59/59 61/61/61 48/48/48
f 61/61/61 62/62/62 48/48/48
f 49/49/49 48/48/48 62/62/62
f 63/63/63 49/49/49 62/62/62
f 53/53/53 64/64/64 52/52/52
f 64/64/64 65/65/65 52/52/52
f 54/54/54 52/52/52 65/65/65
f 66/66/66 54/54/54 65/65/65
f 56/56/56 54/54/54 66/66/66
f 67/67/67 56/56/56 66/66/66
f 58/58/58 56/56/56 67/67/67
f 68/68/68 58/58/58 67/67/67
f 58/58/58 68/68/68 60/60/60
f 65/65/65 64/64/64 69/69/69
f 64/64/64 70/70/70 69/69/69
f 71/71/71 69/69/69 70/70/70
f 72/72/72 71/71/71 70/70/70
f 71/71/71 73/73/73 69/69/69
f 73/73/73 74/74/74 69/69/69
f 74/74/74 66/66/66 65/65/65
f 69/69/69 74/74/74 65/65/65
f 73/73/73 75/75/75 74/74/74
f 75/75/75 76/76/76 74/74/74
f 76/76/76 67/67/67 66/66/66
f 74/74/74 76/76/76 66/66/66
f 67/67/67 76/76/76 68/68/68
f 77/77/77 76/76/76 75/75/75
f 76/76/76 77/77/77 68/68/68
f 78/78/78 77/77/77 75/75/75
f 79/79/79 68/68/68 77/77/77
f 68/68/68 79/79/79 60/60/60
f 80/80/80 79/79/79 77/77/77
f 80/80/80 77/77/77 78/78/78
f 71/71/71 72/72/72 81/81/81
f 82/82/82 71/71/71 81/81/81
f 71/71/71 82/82/82 73/73/73
f 82/82/82 81/81/81 83/83/83
f 84/84/84 82/82/82 83/83/83
f 85/85/85 84/84/84 83/83/83
f 86/86/86 85/85/85 83/83/83
f 85/85/85 86/86/86 87/87/87
f 88/88/88 85/85/85 87/87/87
f 89/89/89 85/85/85 88/88/88
f 85/85/85 89/89/89 84/84/84
f 90/90/90 89/89/89 88/88/88
f 91/91/91 89/89/89 90/90/90
f 92/92/92 91/91/91 90/90/90
f 91/91/91 92/92/92 93/93/93
f 92/92/92 94/94/94 93/93/93
f 95/95/95 88/88/88 87/87/87
f 96/96/96 95/95/95 87/87/87
f 97/97/97 90/90/90 88/88/88
f 95/95/95 97/97/97 88/88/88
f 90/90/90 97/97/97 98/98/98
f 92/92/92 90/90/90 98/98/98
f 94/94/94 92/92/92 98/98/98
f 99/99/99 94/94/94 98/98/98
f 100/100/100 93/93/93 94/94/94
f 101/101/101 100/100/100 94/94/94
f 94/94/94 99/99/99 101/101/101
f 99/99/99 102/102/102 101/101/101
f 102/102/102 99/99/99 103/103/103
f 104/104/104 102/102/102 103/103/103
f 100/100/100 101/101/101 105/105/105
f 101/101/101 106/106/106 105/105/105
f 106/106/106 101/101/101 102/102/102
f 95/95/95 96/96/96 107/107/107
f 96/96/96 108/108/108 107/107/107
f 109/109/109 97/97/97 95/95/95
f 107/107/107 109/109/109 95/95/95
f 110/110/110 98/98/98 97/97/97
f 109/109/109 110/110/110 97/97/97
f 99/99/99 98/98/98 110/110/110
f 103/103/103 99/99/99 110/110/110
f 111/111/111 100/100/100 105/105/105
f 111/111/111 112/112/112 100/100/100
f 112/112/112 93/93/93 100/100/100
f 112/112/112 113/113/113 93/93/93
f 113/113/113 91/91/91 93/93/93
f 91/91/91 113/113/113 114/114/114
f 89/89/89 91/91/91 114/114/114
f 89/89/89 114/114/114 84/84/84
f 114/114/114 115/115/115 84/84/84
f 115/115/115 82/82/82 84/84/84
f 116/116/116 115/115/115 114/114/114
f 113/113/113 116/116/116 114/114/114
f 113/113/113 112/112/112 116/116/116
f 112/112/112 117/117/117 116/116/116
f 117/117/117 112/112/112 111/111/111
f 118/118/118 117/117/117 111/111/111
f 117/117/117 118/118/118 78/78/78
f 118/118/118 119/119/119 78/78/78
f 82/82/82 115/115/115 73/73/73
f 115/115/115 116/116/116 75/75/75
f 73/73/73 115/115/115 75/75/75
f 117/117/117 78/78/78 75/75/75
f 116/116/116 117/117/117 75/75/75
f 119/119/119 80/80/80 78/78/78
f 80/80/80 119/119/119 120/120/120
f 119/119/119 121/121/121 120/120/120
f 122/122/122 120/120/120 121/121/121
f 123/123/123 122/122/122 121/121/121
f 122/122/122 123/123/123 124/124/124
f 120/120/120 122/122/122 125/125/125
f 126/126/126 120/120/120 125/125/125
f 120/120/120 126/126/126 80/80/80
f 126/126/126 79/79/79 80/80/80
f 127/127/127 121/121/121 119/119/119
f 118/118/118 127/127/127 119/119/119
f 127/127/127 118/118/118 128/128/128
f 127/127/127 128/128/128 129/129/129
f 130/130/130 127/127/127 129/129/129
f 121/121/121 127/127/127 130/130/130
f 123/123/123 121/121/121 130/130/130
f 131/131/131 125/125/125 122/122/122
f 124/124/124 131/131/131 122/122/122
f 132/132/132 129/129/129 128/128/128
f 105/105/105 132/132/132 128/128/128
f 128/128/128 111/111/111 105/105/105
f 118/118/118 111/111/111 128/128/128
f 126/126/126 125/125/125 133/133/133
f 133/133/133 125/125/125 131/131/131
f 134/134/134 126/126/126 133/133/133
f 79/79/79 126/126/126 134/134/134
f 60/60/60 79/79/79 134/134/134
f 61/61/61 60/60/60 134/134/134
f 135/135/135 61/61/61 134/134/134
f 135/135/135 134/134/134 133/133/133
f 61/61/61 135/135/135 62/62/62
f 135/135/135 136/136/136 62/62/62
f 137/137/137 133/133/133 131/131/131
f 62/62/62 136/136/136 63/63/63
f 136/136/136 138/138/138 63/63/63
f 138/138/138 136/136/136 139/139/139
f 140/140/140 138/138/138 139/139/139
f 132/132/132 105/105/105 106/106/106
f 141/141/141 132/132/132 106/106/106
f 142/142/142 135/135/135 133/133/133
f 142/142/142 139/139/139 136/136/136
f 135/135/135 142/142/142 136/136/136
f 142/142/142 133/133/133 137/137/137
f 142/142/142 143/143/143 139/139/139
f 143/143/143 142/142/142 137/137/137
f 143/143/143 144/144/144 139/139/139
f 144/144/144 140/140/140 139/139/139
f 141/141/141 106/106/106 145/145/145
f 145/145/145 106/106/106 102/102/102
f 145/145/145 102/102/102 104/104/104
f 146/146/146 145/145/145 104/104/104
f 147/147/147 141/141/141 145/145/145
f 145/145/145 146/146/146 147/147/147
f 146/146/146 148/148/148 147/147/147
f 151/151/151 150/150/150 149/149/149
f 149/149/149 152/152/152 151/151/151
f 152/152/152 153/153/153 151/151/151
f 151/151/151 154/154/154 150/150/150
f 154/154/154 155/155/155 150/150/150
f 156/156/156 155/155/155 154/154/154
f 157/157/157 156/156/156 154/154/154
f 158/158/158 156/156/156 157/157/157
f 157/157/157 159/159/159 158/158/158
f 157/157/157 160/160/160 159/159/159
