g meger3d_Char_sundries_C4_8
v 0.3151068 -0.3591062 -0.1023843
v 0.2680456 -0.3591062 -0.1947465
v 0.2546442 -0.3754667 -0.1850103
v 0.2993524 -0.3754667 -0.0972655
v 0.2680456 0.2708179 -0.1947465
v 0.3151068 0.2708179 -0.1023843
v 0.2993524 0.2871786 -0.0972655
v 0.2546442 0.2871786 -0.1850103
v 0.1947467 0.2708179 -0.2680457
v 0.2546442 0.2871786 -0.1850103
v 0.1850098 0.2871786 -0.2546448
v 0.1947467 -0.3591062 -0.2680457
v 0.1850098 -0.3754667 -0.2546448
v 0.2546442 -0.3754667 -0.1850103
v 0.102384 0.2708179 -0.3151065
v 0.1850098 0.2871786 -0.2546448
v 0.09726562 0.2871786 -0.2993529
v 0.102384 -0.3591062 -0.3151065
v 0.09726562 -0.3754667 -0.2993529
v 0.1850098 -0.3754667 -0.2546448
v 0 0.2708179 -0.3313227
v 0.09726562 0.2871786 -0.2993529
v 0 0.2871786 -0.3147583
v 0 -0.3591062 -0.3313227
v 0 -0.3754667 -0.3147583
v 0.09726562 -0.3754667 -0.2993529
v -0.1023846 0.2708179 -0.3151065
v 0 0.2871786 -0.3147583
v -0.09726562 0.2871786 -0.2993529
v -0.1023846 -0.3591062 -0.3151065
v -0.09726562 -0.3754667 -0.2993529
v 0 -0.3754667 -0.3147583
v -0.1947455 0.2708179 -0.2680457
v -0.09726562 0.2871786 -0.2993529
v -0.1850104 0.2871786 -0.2546447
v -0.1947455 -0.3591062 -0.2680457
v -0.1850104 -0.3754667 -0.2546447
v -0.09726562 -0.3754667 -0.2993529
v -0.2680456 0.2708179 -0.1947465
v -0.1850104 0.2871786 -0.2546447
v -0.2546448 0.2871786 -0.1850102
v -0.2680456 -0.3591062 -0.1947465
v -0.2546448 -0.3754667 -0.1850102
v -0.1850104 -0.3754667 -0.2546447
v -0.3151068 0.2708179 -0.1023843
v -0.2546448 0.2871786 -0.1850102
v -0.299353 0.2871786 -0.0972655
v -0.3151068 -0.3591062 -0.1023843
v -0.299353 -0.3754667 -0.0972655
v -0.2546448 -0.3754667 -0.1850102
v -0.3313232 0.2708179 0
v -0.299353 0.2871786 -0.0972655
v -0.3147583 0.2871786 0
v -0.3313232 -0.3591062 0
v -0.3147583 -0.3754667 0
v -0.299353 -0.3754667 -0.0972655
v -0.3151068 0.2708179 0.1023843
v -0.3147583 0.2871786 0
v -0.299353 0.2871786 0.0972657
v -0.3151068 -0.3591062 0.1023843
v -0.299353 -0.3754667 0.0972657
v -0.3147583 -0.3754667 0
v -0.2680456 0.2708179 0.1947465
v -0.299353 0.2871786 0.0972657
v -0.2546448 0.2871786 0.1850103
v -0.2680456 -0.3591062 0.1947465
v -0.2546448 -0.3754667 0.1850103
v -0.299353 -0.3754667 0.0972657
v -0.1947455 0.2708179 0.2680457
v -0.2546448 0.2871786 0.1850103
v -0.1850104 0.2871786 0.2546448
v -0.1947455 -0.3591062 0.2680457
v -0.1850104 -0.3754667 0.2546448
v -0.2546448 -0.3754667 0.1850103
v -0.1023846 0.2708179 0.3151065
v -0.1850104 0.2871786 0.2546448
v -0.09726562 0.2871786 0.2993529
v -0.1023846 -0.3591062 0.3151065
v -0.09726562 -0.3754667 0.2993529
v -0.1850104 -0.3754667 0.2546448
v 0 0.2708179 0.3313227
v -0.09726562 0.2871786 0.2993529
v 0 0.2871786 0.3147583
v 0 -0.3591062 0.3313227
v 0 -0.3754667 0.3147583
v -0.09726562 -0.3754667 0.2993529
v 0.102384 0.2708179 0.3151065
v 0 0.2871786 0.3147583
v 0.09726562 0.2871786 0.2993529
v 0.102384 -0.3591062 0.3151065
v 0.09726562 -0.3754667 0.2993529
v 0 -0.3754667 0.3147583
v 0.1947467 0.2708179 0.2680457
v 0.09726562 0.2871786 0.2993529
v 0.1850098 0.2871786 0.2546447
v 0.1947467 -0.3591062 0.2680457
v 0.1850098 -0.3754667 0.2546447
v 0.09726562 -0.3754667 0.2993529
v 0.2680456 0.2708179 0.1947465
v 0.1850098 0.2871786 0.2546447
v 0.2546442 0.2871786 0.1850103
v 0.2680456 -0.3591062 0.1947465
v 0.2546442 -0.3754667 0.1850103
v 0.1850098 -0.3754667 0.2546447
v 0.3151062 0.2708179 0.1023843
v 0.2546442 0.2871786 0.1850103
v 0.2993524 0.2871786 0.0972655
v 0.3151062 -0.3591062 0.1023843
v 0.2993524 -0.3754667 0.0972655
v 0.2546442 -0.3754667 0.1850103
v 0.3313232 0.2708179 0
v 0.2993524 0.2871786 0.0972655
v 0.3147583 0.2871786 0
v 0.3313232 -0.3591062 0
v 0.3147583 -0.3754667 0
v 0.2993524 -0.3754667 0.0972655
v 0.3151068 0.2708179 -0.1023843
v 0.3147583 0.2871786 0
v 0.2993524 0.2871786 -0.0972655
v 0.3151068 -0.3591062 -0.1023843
v 0.2993524 -0.3754667 -0.0972655
v 0.3147583 -0.3754667 0
v 0.2546442 -0.3754667 -0.1850103
v 0 -0.3754667 0
v 0.2993524 -0.3754667 -0.0972655
v 0.1850098 -0.3754667 -0.2546448
v 0.09726562 -0.3754667 -0.2993529
v 0 -0.3754667 -0.3147583
v -0.09726562 -0.3754667 -0.2993529
v -0.1850104 -0.3754667 -0.2546447
v -0.2546448 -0.3754667 -0.1850102
v -0.299353 -0.3754667 -0.0972655
v -0.3147583 -0.3754667 0
v -0.299353 -0.3754667 0.0972657
v -0.2546448 -0.3754667 0.1850103
v -0.1850104 -0.3754667 0.2546448
v -0.09726562 -0.3754667 0.2993529
v 0 -0.3754667 0.3147583
v 0.09726562 -0.3754667 0.2993529
v 0.1850098 -0.3754667 0.2546447
v 0.2546442 -0.3754667 0.1850103
v 0.2993524 -0.3754667 0.0972655
v 0.3147583 -0.3754667 0
v 0.2993524 0.2871786 -0.0972655
v 0 0.2871786 0
v 0.2546442 0.2871786 -0.1850103
v 0.1850098 0.2871786 -0.2546448
v 0.09726562 0.2871786 -0.2993529
v 0 0.2871786 -0.3147583
v -0.09726562 0.2871786 -0.2993529
v -0.1850104 0.2871786 -0.2546447
v -0.2546448 0.2871786 -0.1850102
v -0.299353 0.2871786 -0.0972655
v -0.3147583 0.2871786 0
v -0.299353 0.2871786 0.0972657
v -0.2546448 0.2871786 0.1850103
v -0.1850104 0.2871786 0.2546448
v -0.09726562 0.2871786 0.2993529
v 0 0.2871786 0.3147583
v 0.09726562 0.2871786 0.2993529
v 0.1850098 0.2871786 0.2546447
v 0.2546442 0.2871786 0.1850103
v 0.2993524 0.2871786 0.0972655
v 0.3147583 0.2871786 0
vt 0.38828 0.252739
vt 0.400581 0.252739
vt 0.400272 0.250638
vt 0.388588 0.250638
vt 0.400581 0.333584
vt 0.38828 0.333584
vt 0.388588 0.335684
vt 0.400272 0.335684
vt 0.41288 0.333584
vt 0.400887 0.335684
vt 0.412573 0.335684
vt 0.41288 0.252739
vt 0.412573 0.250638
vt 0.400887 0.250638
vt 0.425181 0.333584
vt 0.413188 0.335684
vt 0.424874 0.335684
vt 0.425181 0.252739
vt 0.424874 0.250638
vt 0.413188 0.250638
vt 0.43748 0.333584
vt 0.425487 0.335684
vt 0.437173 0.335684
vt 0.43748 0.252739
vt 0.437173 0.250638
vt 0.425489 0.250638
vt 0.449781 0.333584
vt 0.437788 0.335684
vt 0.449474 0.335684
vt 0.449781 0.252739
vt 0.449474 0.250638
vt 0.437788 0.250638
vt 0.462081 0.333584
vt 0.450089 0.335684
vt 0.461773 0.335684
vt 0.462081 0.252739
vt 0.461773 0.250638
vt 0.450089 0.250638
vt 0.474382 0.333584
vt 0.462388 0.335684
vt 0.474074 0.335684
vt 0.474382 0.252739
vt 0.474074 0.250638
vt 0.462388 0.250638
vt 0.486681 0.333584
vt 0.474689 0.335684
vt 0.486375 0.335684
vt 0.486681 0.252739
vt 0.486375 0.250638
vt 0.474689 0.250638
vt 0.498982 0.333584
vt 0.48699 0.335684
vt 0.498674 0.335684
vt 0.498982 0.252739
vt 0.498674 0.250638
vt 0.48699 0.250638
vt 0.511282 0.333584
vt 0.499289 0.335684
vt 0.510975 0.335684
vt 0.511282 0.252739
vt 0.510975 0.250638
vt 0.499289 0.250638
vt 0.523582 0.333584
vt 0.51159 0.335684
vt 0.523275 0.335684
vt 0.523582 0.252739
vt 0.523275 0.250638
vt 0.51159 0.250638
vt 0.535883 0.333584
vt 0.52389 0.335684
vt 0.535574 0.335684
vt 0.535883 0.252739
vt 0.535575 0.250638
vt 0.52389 0.250638
vt 0.548183 0.333584
vt 0.536189 0.335684
vt 0.547876 0.335684
vt 0.548183 0.252739
vt 0.547876 0.250638
vt 0.536189 0.250638
vt 0.560482 0.333584
vt 0.548491 0.335684
vt 0.560176 0.335684
vt 0.560482 0.252739
vt 0.560176 0.250638
vt 0.548491 0.250638
vt 0.572784 0.333584
vt 0.560791 0.335684
vt 0.572476 0.335684
vt 0.572784 0.252739
vt 0.572476 0.250638
vt 0.560791 0.250638
vt 0.585084 0.333584
vt 0.57309 0.335684
vt 0.584775 0.335684
vt 0.585084 0.252739
vt 0.584775 0.250638
vt 0.57309 0.250638
vt 0.597383 0.333584
vt 0.58539 0.335684
vt 0.597077 0.335684
vt 0.597383 0.252739
vt 0.597077 0.250638
vt 0.58539 0.250638
vt 0.609683 0.333584
vt 0.59769 0.335684
vt 0.609377 0.335684
vt 0.609683 0.252739
vt 0.609377 0.250638
vt 0.59769 0.250638
vt 0.621985 0.333584
vt 0.609992 0.335684
vt 0.621676 0.335684
vt 0.621985 0.252739
vt 0.621676 0.250638
vt 0.609992 0.250638
vt 0.634284 0.333584
vt 0.622291 0.335684
vt 0.633976 0.335684
vt 0.634284 0.252739
vt 0.633976 0.250638
vt 0.622291 0.250638
vt 0.803216 0.266766
vt 0.768307 0.290403
vt 0.809346 0.278795
vt 0.793671 0.257221
vt 0.781642 0.251091
vt 0.768307 0.24898
vt 0.754974 0.251091
vt 0.742946 0.257221
vt 0.733399 0.266766
vt 0.727271 0.278795
vt 0.725158 0.292129
vt 0.727271 0.305463
vt 0.733399 0.317492
vt 0.742946 0.327039
vt 0.754974 0.333167
vt 0.768307 0.33528
vt 0.781642 0.333167
vt 0.793671 0.327039
vt 0.803216 0.317492
vt 0.809346 0.305463
vt 0.811457 0.292129
vt 0.721198 0.305289
vt 0.680162 0.290228
vt 0.71507 0.317317
vt 0.705524 0.326862
vt 0.693495 0.332991
vt 0.680162 0.335103
vt 0.666827 0.332991
vt 0.654798 0.326862
vt 0.645253 0.317317
vt 0.639123 0.305289
vt 0.637012 0.291954
vt 0.639123 0.27862
vt 0.645253 0.266591
vt 0.654798 0.257046
vt 0.666827 0.250916
vt 0.680162 0.248805
vt 0.693495 0.250916
vt 0.705524 0.257046
vt 0.71507 0.266591
vt 0.721198 0.27862
vt 0.723311 0.291954
vn 0.9507982 -0.02326525 -0.3089361
vn 0.808798 -0.02326512 -0.5876263
vn 0.09044457 -0.9937312 -0.06571209
vn 0.1063237 -0.9937312 -0.03454711
vn 0.808798 0.02326513 -0.5876263
vn 0.9507982 0.02326526 -0.3089361
vn 0.1063256 0.993731 -0.03454748
vn 0.0904462 0.993731 -0.06571303
vn 0.5876256 0.02326466 -0.8087985
vn 0.0904462 0.993731 -0.06571303
vn 0.06571314 0.9937309 -0.09044669
vn 0.5876256 -0.02326465 -0.8087985
vn 0.06571195 -0.9937311 -0.09044501
vn 0.09044457 -0.9937312 -0.06571209
vn 0.3089333 0.02326441 -0.9507992
vn 0.06571314 0.9937309 -0.09044669
vn 0.0345477 0.9937309 -0.1063264
vn 0.3089332 -0.02326441 -0.9507992
vn 0.03454708 -0.9937311 -0.1063244
vn 0.06571195 -0.9937311 -0.09044501
vn 0 0.02326436 -0.9997293
vn 0.0345477 0.9937309 -0.1063264
vn 0 0.9937309 -0.1117981
vn 0 -0.02326436 -0.9997293
vn 0 -0.9937311 -0.111796
vn 0.03454708 -0.9937311 -0.1063244
vn -0.308935 0.02326432 -0.9507986
vn 0 0.9937309 -0.1117981
vn -0.03454738 0.993731 -0.1063261
vn -0.308935 -0.02326432 -0.9507986
vn -0.03454676 -0.9937312 -0.1063241
vn 0 -0.9937311 -0.111796
vn -0.5876268 0.02326412 -0.8087977
vn -0.03454738 0.993731 -0.1063261
vn -0.0657137 0.9937309 -0.09044625
vn -0.5876268 -0.02326411 -0.8087977
vn -0.0657125 -0.9937311 -0.09044458
vn -0.03454676 -0.9937312 -0.1063241
vn -0.8087952 0.02326414 -0.5876303
vn -0.0657137 0.9937309 -0.09044625
vn -0.09044649 0.9937309 -0.06571356
vn -0.8087952 -0.02326413 -0.5876303
vn -0.09044488 -0.9937311 -0.06571241
vn -0.0657125 -0.9937311 -0.09044458
vn -0.9507983 0.0232647 -0.3089361
vn -0.09044649 0.9937309 -0.06571356
vn -0.1063261 0.993731 -0.03454759
vn -0.9507982 -0.02326469 -0.3089361
vn -0.1063242 -0.9937311 -0.03454699
vn -0.09044488 -0.9937311 -0.06571241
vn -0.9997293 0.02326481 0
vn -0.1063261 0.993731 -0.03454759
vn -0.1117978 0.993731 0
vn -0.9997293 -0.0232648 0
vn -0.1117957 -0.9937312 0
vn -0.1063242 -0.9937311 -0.03454699
vn -0.9507983 0.02326464 0.3089361
vn -0.1117978 0.993731 0
vn -0.1063261 0.993731 0.03454768
vn -0.9507983 -0.02326463 0.3089361
vn -0.1063242 -0.9937311 0.03454708
vn -0.1117957 -0.9937312 0
vn -0.8087952 0.02326403 0.5876303
vn -0.1063261 0.993731 0.03454768
vn -0.09044645 0.9937309 0.06571359
vn -0.8087952 -0.02326402 0.5876303
vn -0.09044489 -0.9937311 0.06571249
vn -0.1063242 -0.9937311 0.03454708
vn -0.5876268 0.02326404 0.8087977
vn -0.09044645 0.9937309 0.06571359
vn -0.06571366 0.9937309 0.09044628
vn -0.5876268 -0.02326403 0.8087977
vn -0.06571253 -0.9937311 0.09044477
vn -0.09044489 -0.9937311 0.06571249
vn -0.308935 0.02326429 0.9507986
vn -0.06571366 0.9937309 0.09044628
vn -0.03454734 0.993731 0.1063261
vn -0.308935 -0.02326429 0.9507986
vn -0.03454673 -0.9937312 0.1063241
vn -0.06571253 -0.9937311 0.09044477
vn 0 0.02326436 0.9997293
vn -0.03454734 0.993731 0.1063261
vn 0 0.9937309 0.1117981
vn 0 -0.02326435 0.9997293
vn 0 -0.9937311 0.111796
vn -0.03454673 -0.9937312 0.1063241
vn 0.3089333 0.02326444 0.9507992
vn 0 0.9937309 0.1117981
vn 0.03454774 0.9937309 0.1063264
vn 0.3089333 -0.02326444 0.9507992
vn 0.03454711 -0.9937311 0.1063244
vn 0 -0.9937311 0.111796
vn 0.5876256 0.0232647 0.8087985
vn 0.03454774 0.9937309 0.1063264
vn 0.06571312 0.9937309 0.09044678
vn 0.5876256 -0.0232647 0.8087985
vn 0.06571192 -0.9937311 0.09044494
vn 0.03454711 -0.9937311 0.1063244
vn 0.8087993 0.02326495 0.5876244
vn 0.06571312 0.9937309 0.09044678
vn 0.09044629 0.993731 0.06571335
vn 0.8087993 -0.02326494 0.5876243
vn 0.09044468 -0.9937312 0.06571203
vn 0.06571192 -0.9937311 0.09044494
vn 0.9507982 0.02326495 0.3089361
vn 0.09044629 0.993731 0.06571335
vn 0.1063257 0.993731 0.03454767
vn 0.9507982 -0.02326494 0.3089361
vn 0.1063238 -0.9937312 0.03454709
vn 0.09044468 -0.9937312 0.06571203
vn 0.9997293 0.02326502 2.934982E-06
vn 0.1063257 0.993731 0.03454767
vn 0.1117984 0.9937309 1.687992E-07
vn 0.9997293 -0.02326501 2.934983E-06
vn 0.1117964 -0.9937311 1.823808E-07
vn 0.1063238 -0.9937312 0.03454709
vn 0.9507982 0.02326526 -0.3089361
vn 0.1117984 0.9937309 1.687992E-07
vn 0.1063256 0.993731 -0.03454748
vn 0.9507982 -0.02326525 -0.3089361
vn 0.1063237 -0.9937312 -0.03454711
vn 0.1117964 -0.9937311 1.823808E-07
vn 0.09044457 -0.9937312 -0.06571209
vn 0 -1 0
vn 0.1063237 -0.9937312 -0.03454711
vn 0.06571195 -0.9937311 -0.09044501
vn 0.03454708 -0.9937311 -0.1063244
vn 0 -0.9937311 -0.111796
vn -0.03454676 -0.9937312 -0.1063241
vn -0.0657125 -0.9937311 -0.09044458
vn -0.09044488 -0.9937311 -0.06571241
vn -0.1063242 -0.9937311 -0.03454699
vn -0.1117957 -0.9937312 0
vn -0.1063242 -0.9937311 0.03454708
vn -0.09044489 -0.9937311 0.06571249
vn -0.06571253 -0.9937311 0.09044477
vn -0.03454673 -0.9937312 0.1063241
vn 0 -0.9937311 0.111796
vn 0.03454711 -0.9937311 0.1063244
vn 0.06571192 -0.9937311 0.09044494
vn 0.09044468 -0.9937312 0.06571203
vn 0.1063238 -0.9937312 0.03454709
vn 0.1117964 -0.9937311 1.823808E-07
vn 0.1063256 0.993731 -0.03454748
vn 0 1 0
vn 0.0904462 0.993731 -0.06571303
vn 0.06571314 0.9937309 -0.09044669
vn 0.0345477 0.9937309 -0.1063264
vn 0 0.9937309 -0.1117981
vn -0.03454738 0.993731 -0.1063261
vn -0.0657137 0.9937309 -0.09044625
vn -0.09044649 0.9937309 -0.06571356
vn -0.1063261 0.993731 -0.03454759
vn -0.1117978 0.993731 0
vn -0.1063261 0.993731 0.03454768
vn -0.09044645 0.9937309 0.06571359
vn -0.06571366 0.9937309 0.09044628
vn -0.03454734 0.993731 0.1063261
vn 0 0.9937309 0.1117981
vn 0.03454774 0.9937309 0.1063264
vn 0.06571312 0.9937309 0.09044678
vn 0.09044629 0.993731 0.06571335
vn 0.1063257 0.993731 0.03454767
vn 0.1117984 0.9937309 1.687992E-07
g meger3d_Char_sundries_C4_8_0
f 3/3/3 2/2/2 1/1/1
f 4/4/4 3/3/3 1/1/1
f 2/2/2 5/5/5 1/1/1
f 5/5/5 6/6/6 1/1/1
f 6/6/6 5/5/5 7/7/7
f 5/5/5 8/8/8 7/7/7
f 9/9/9 5/5/5 2/2/2
f 5/5/5 9/9/9 10/10/10
f 9/9/9 11/11/11 10/10/10
f 12/12/12 9/9/9 2/2/2
f 13/13/13 12/12/12 2/2/2
f 14/14/14 13/13/13 2/2/2
f 15/15/15 9/9/9 12/12/12
f 9/9/9 15/15/15 16/16/16
f 15/15/15 17/17/17 16/16/16
f 18/18/18 15/15/15 12/12/12
f 19/19/19 18/18/18 12/12/12
f 20/20/20 19/19/19 12/12/12
f 21/21/21 15/15/15 18/18/18
f 15/15/15 21/21/21 22/22/22
f 21/21/21 23/23/23 22/22/22
f 24/24/24 21/21/21 18/18/18
f 25/25/25 24/24/24 18/18/18
f 26/26/26 25/25/25 18/18/18
f 27/27/27 21/21/21 24/24/24
f 21/21/21 27/27/27 28/28/28
f 27/27/27 29/29/29 28/28/28
f 30/30/30 27/27/27 24/24/24
f 31/31/31 30/30/30 24/24/24
f 32/32/32 31/31/31 24/24/24
f 33/33/33 27/27/27 30/30/30
f 27/27/27 33/33/33 34/34/34
f 33/33/33 35/35/35 34/34/34
f 36/36/36 33/33/33 30/30/30
f 37/37/37 36/36/36 30/30/30
f 38/38/38 37/37/37 30/30/30
f 39/39/39 33/33/33 36/36/36
f 33/33/33 39/39/39 40/40/40
f 39/39/39 41/41/41 40/40/40
f 42/42/42 39/39/39 36/36/36
f 43/43/43 42/42/42 36/36/36
f 44/44/44 43/43/43 36/36/36
f 45/45/45 39/39/39 42/42/42
f 39/39/39 45/45/45 46/46/46
f 45/45/45 47/47/47 46/46/46
f 48/48/48 45/45/45 42/42/42
f 49/49/49 48/48/48 42/42/42
f 50/50/50 49/49/49 42/42/42
f 51/51/51 45/45/45 48/48/48
f 45/45/45 51/51/51 52/52/52
f 51/51/51 53/53/53 52/52/52
f 54/54/54 51/51/51 48/48/48
f 55/55/55 54/54/54 48/48/48
f 56/56/56 55/55/55 48/48/48
f 57/57/57 51/51/51 54/54/54
f 51/51/51 57/57/57 58/58/58
f 57/57/57 59/59/59 58/58/58
f 60/60/60 57/57/57 54/54/54
f 61/61/61 60/60/60 54/54/54
f 62/62/62 61/61/61 54/54/54
f 63/63/63 57/57/57 60/60/60
f 57/57/57 63/63/63 64/64/64
f 63/63/63 65/65/65 64/64/64
f 66/66/66 63/63/63 60/60/60
f 67/67/67 66/66/66 60/60/60
f 68/68/68 67/67/67 60/60/60
f 69/69/69 63/63/63 66/66/66
f 63/63/63 69/69/69 70/70/70
f 69/69/69 71/71/71 70/70/70
f 72/72/72 69/69/69 66/66/66
f 73/73/73 72/72/72 66/66/66
f 74/74/74 73/73/73 66/66/66
f 75/75/75 69/69/69 72/72/72
f 69/69/69 75/75/75 76/76/76
f 75/75/75 77/77/77 76/76/76
f 78/78/78 75/75/75 72/72/72
f 79/79/79 78/78/78 72/72/72
f 80/80/80 79/79/79 72/72/72
f 81/81/81 75/75/75 78/78/78
f 75/75/75 81/81/81 82/82/82
f 81/81/81 83/83/83 82/82/82
f 84/84/84 81/81/81 78/78/78
f 85/85/85 84/84/84 78/78/78
f 86/86/86 85/85/85 78/78/78
f 87/87/87 81/81/81 84/84/84
f 81/81/81 87/87/87 88/88/88
f 87/87/87 89/89/89 88/88/88
f 90/90/90 87/87/87 84/84/84
f 91/91/91 90/90/90 84/84/84
f 92/92/92 91/91/91 84/84/84
f 93/93/93 87/87/87 90/90/90
f 87/87/87 93/93/93 94/94/94
f 93/93/93 95/95/95 94/94/94
f 96/96/96 93/93/93 90/90/90
f 97/97/97 96/96/96 90/90/90
f 98/98/98 97/97/97 90/90/90
f 99/99/99 93/93/93 96/96/96
f 93/93/93 99/99/99 100/100/100
f 99/99/99 101/101/101 100/100/100
f 102/102/102 99/99/99 96/96/96
f 103/103/103 102/102/102 96/96/96
f 104/104/104 103/103/103 96/96/96
f 105/105/105 99/99/99 102/102/102
f 99/99/99 105/105/105 106/106/106
f 105/105/105 107/107/107 106/106/106
f 108/108/108 105/105/105 102/102/102
f 109/109/109 108/108/108 102/102/102
f 110/110/110 109/109/109 102/102/102
f 111/111/111 105/105/105 108/108/108
f 105/105/105 111/111/111 112/112/112
f 111/111/111 113/113/113 112/112/112
f 114/114/114 111/111/111 108/108/108
f 115/115/115 114/114/114 108/108/108
f 116/116/116 115/115/115 108/108/108
f 117/117/117 111/111/111 114/114/114
f 118/118/118 111/111/111 117/117/117
f 119/119/119 118/118/118 117/117/117
f 120/120/120 117/117/117 114/114/114
f 120/120/120 114/114/114 121/121/121
f 114/114/114 122/122/122 121/121/121
f 125/125/125 124/124/124 123/123/123
f 123/123/123 124/124/124 126/126/126
f 126/126/126 124/124/124 127/127/127
f 127/127/127 124/124/124 128/128/128
f 128/128/128 124/124/124 129/129/129
f 129/129/129 124/124/124 130/130/130
f 130/130/130 124/124/124 131/131/131
f 131/131/131 124/124/124 132/132/132
f 132/132/132 124/124/124 133/133/133
f 133/133/133 124/124/124 134/134/134
f 134/134/134 124/124/124 135/135/135
f 135/135/135 124/124/124 136/136/136
f 136/136/136 124/124/124 137/137/137
f 137/137/137 124/124/124 138/138/138
f 138/138/138 124/124/124 139/139/139
f 139/139/139 124/124/124 140/140/140
f 140/140/140 124/124/124 141/141/141
f 141/141/141 124/124/124 142/142/142
f 142/142/142 124/124/124 143/143/143
f 143/143/143 124/124/124 125/125/125
f 146/146/146 145/145/145 144/144/144
f 147/147/147 145/145/145 146/146/146
f 148/148/148 145/145/145 147/147/147
f 149/149/149 145/145/145 148/148/148
f 150/150/150 145/145/145 149/149/149
f 151/151/151 145/145/145 150/150/150
f 152/152/152 145/145/145 151/151/151
f 153/153/153 145/145/145 152/152/152
f 154/154/154 145/145/145 153/153/153
f 155/155/155 145/145/145 154/154/154
f 156/156/156 145/145/145 155/155/155
f 157/157/157 145/145/145 156/156/156
f 158/158/158 145/145/145 157/157/157
f 159/159/159 145/145/145 158/158/158
f 160/160/160 145/145/145 159/159/159
f 161/161/161 145/145/145 160/160/160
f 162/162/162 145/145/145 161/161/161
f 163/163/163 145/145/145 162/162/162
f 164/164/164 145/145/145 163/163/163
f 144/144/144 145/145/145 164/164/164
