g meger3d_Char2_sundries_C6_8
v 0.127933 0.1798469 -0.07549083
v 0.04935735 0.2084163 -0.06723399
v 0.001906395 0.08497735 -0.07927705
v 0.1684589 0.09857042 -0.07475489
v -0.02058103 -0.187481 -0.06519081
v 0.1129085 -0.01688802 -0.06642886
v -0.1326204 -0.01077763 -0.07182018
v -0.1621262 0.1118147 -0.08772387
v -0.05187938 0.2094244 -0.06693435
v -0.1270638 0.1866089 -0.08027731
v 0.05673314 0.222179 0.06582152
v 0.005327457 0.1005393 0.05355175
v -0.04444434 0.2241732 0.06608235
v -0.159099 0.1208489 0.04536149
v -0.1207788 0.1975245 0.0528548
v -0.1271822 0.0004675419 0.06126569
v -0.006900239 -0.1725172 0.0680567
v 0.1712988 0.1044813 0.05845331
v 0.1181981 -0.008087659 0.06675308
v 0.1340654 0.18822 0.05774127
v -0.05187938 0.2094244 -0.06693435
v -0.04414421 0.3038071 0.004764789
v -0.1494061 0.2765958 -0.01371304
v -0.1270638 0.1866089 -0.08027731
v -0.1270638 0.1866089 -0.08027731
v -0.1494061 0.2765958 -0.01371304
v -0.2122886 0.226064 -0.02736067
v -0.1270638 0.1866089 -0.08027731
v -0.2122886 0.226064 -0.02736067
v -0.2314197 0.1276955 -0.0303179
v -0.1621262 0.1118147 -0.08772387
v -0.1621262 0.1118147 -0.08772387
v -0.2314197 0.1276955 -0.0303179
v -0.2006912 -0.02102529 -0.004352862
v -0.1326204 -0.01077763 -0.07182018
v -0.1326204 -0.01077763 -0.07182018
v -0.2006912 -0.02102529 -0.004352862
v -0.1355854 -0.1571224 0.009265753
v -0.1355854 -0.1571224 0.009265753
v -0.02058103 -0.187481 -0.06519081
v -0.04414421 0.3038071 0.004764789
v -0.04444434 0.2241732 0.06608235
v -0.1207788 0.1975245 0.0528548
v -0.1494061 0.2765958 -0.01371304
v -0.1494061 0.2765958 -0.01371304
v -0.1207788 0.1975245 0.0528548
v -0.2122886 0.226064 -0.02736067
v -0.2122886 0.226064 -0.02736067
v -0.1207788 0.1975245 0.0528548
v -0.159099 0.1208489 0.04536149
v -0.2314197 0.1276955 -0.0303179
v -0.2314197 0.1276955 -0.0303179
v -0.159099 0.1208489 0.04536149
v -0.1271822 0.0004675419 0.06126569
v -0.2006912 -0.02102529 -0.004352862
v -0.2006912 -0.02102529 -0.004352862
v -0.1271822 0.0004675419 0.06126569
v -0.1355854 -0.1571224 0.009265753
v -0.1355854 -0.1571224 0.009265753
v -0.1271822 0.0004675419 0.06126569
v -0.006900239 -0.1725172 0.0680567
v -0.02058103 -0.187481 -0.06519081
v 0.1061114 -0.1641033 0.008634388
v 0.1129085 -0.01688802 -0.06642886
v -0.006900239 -0.1725172 0.0680567
v 0.1181981 -0.008087659 0.06675308
v 0.1129085 -0.01688802 -0.06642886
v 0.1061114 -0.1641033 0.008634388
v 0.1775625 -0.04091164 0.01142639
v 0.1129085 -0.01688802 -0.06642886
v 0.1775625 -0.04091164 0.01142639
v 0.2417331 0.09464323 -0.005011686
v 0.1684589 0.09857042 -0.07475489
v 0.1684589 0.09857042 -0.07475489
v 0.2417331 0.09464323 -0.005011686
v 0.218587 0.1993627 -0.006759946
v 0.127933 0.1798469 -0.07549083
v 0.127933 0.1798469 -0.07549083
v 0.218587 0.1993627 -0.006759946
v 0.1571378 0.264554 -0.007390518
v 0.0592288 0.3023457 0.003722078
v 0.04935735 0.2084163 -0.06723399
v 0.127933 0.1798469 -0.07549083
v 0.1571378 0.264554 -0.007390518
v -0.01308053 -0.3044517 -0.008346606
v -0.006900239 -0.1725172 0.0680567
v 0.1061114 -0.1641033 0.008634388
v 0.1061114 -0.1641033 0.008634388
v 0.1181981 -0.008087659 0.06675308
v 0.1775625 -0.04091164 0.01142639
v 0.1775625 -0.04091164 0.01142639
v 0.1181981 -0.008087659 0.06675308
v 0.1712988 0.1044813 0.05845331
v 0.2417331 0.09464323 -0.005011686
v 0.2417331 0.09464323 -0.005011686
v 0.1712988 0.1044813 0.05845331
v 0.1340654 0.18822 0.05774127
v 0.218587 0.1993627 -0.006759946
v 0.218587 0.1993627 -0.006759946
v 0.1340654 0.18822 0.05774127
v 0.1571378 0.264554 -0.007390518
v 0.1571378 0.264554 -0.007390518
v 0.1340654 0.18822 0.05774127
v 0.05673314 0.222179 0.06582152
v 0.0592288 0.3023457 0.003722078
v -0.02058103 -0.187481 -0.06519081
v -0.1355854 -0.1571224 0.009265753
v -0.01308053 -0.3044517 -0.008346606
v 0.1061114 -0.1641033 0.008634388
v -0.02058103 -0.187481 -0.06519081
v -0.01308053 -0.3044517 -0.008346606
v -0.1355854 -0.1571224 0.009265753
v -0.006900239 -0.1725172 0.0680567
v -0.01308053 -0.3044517 -0.008346606
v 0.04935735 0.2084163 -0.06723399
v 0.0592288 0.3023457 0.003722078
v -0.04414421 0.3038071 0.004764789
v -0.05187938 0.2094244 -0.06693435
v 0.05673314 0.222179 0.06582152
v -0.04444434 0.2241732 0.06608235
v -0.04414421 0.3038071 0.004764789
v 0.0592288 0.3023457 0.003722078
vt 0.5221461 0.8209685
vt 0.5221461 0.802448
vt 0.5221461 0.8179977
vt 0.5221461 0.8430085
vt 0.5221461 0.8661134
vt 0.5221461 0.855837
vt 0.5221461 0.8140618
vt 0.5221461 0.7857459
vt 0.5221461 0.7854398
vt 0.5221461 0.7773734
vt 0.5221461 0.8494719
vt 0.5221461 0.833837
vt 0.5221461 0.865967
vt 0.5221461 0.8638812
vt 0.5221461 0.872795
vt 0.5221461 0.8350925
vt 0.5221461 0.7822129
vt 0.5221461 0.8082823
vt 0.5221461 0.7945578
vt 0.5221461 0.8304813
vt 0.5221461 0.7803336
vt 0.5221461 0.7970604
vt 0.5221461 0.8560874
vt 0.5221461 0.8231137
vt 0.5221461 0.8279641
vt 0.5221461 0.8370166
vt 0.5221461 0.8798591
vt 0.5221461 0.7935263
vt 0.5221461 0.8237588
vt 0.5221461 0.8780406
vt 0.5221461 0.8374331
vt 0.5221461 0.7893493
vt 0.5221461 0.8193508
vt 0.5221461 0.8785577
vt 0.5221461 0.8382812
vt 0.5221461 0.7810372
vt 0.5221461 0.8185226
vt 0.5221461 0.87431
vt 0.5221461 0.8545305
vt 0.5221461 0.8399612
vt 0.5221461 0.8866696
vt 0.5221461 0.8338742
vt 0.5221461 0.7898051
vt 0.5221461 0.8276426
vt 0.5221461 0.870203
vt 0.5221461 0.8078214
vt 0.5221461 0.8273605
vt 0.5221461 0.8834606
vt 0.5221461 0.8404127
vt 0.5221461 0.7950845
vt 0.5221461 0.8291792
vt 0.5221461 0.8878688
vt 0.5221461 0.8411493
vt 0.5221461 0.7929356
vt 0.5221461 0.8286618
vt 0.5221461 0.888697
vt 0.5221461 0.8496572
vt 0.5221461 0.8329095
vt 0.5221461 0.8526893
vt 0.5221461 0.8474603
vt 0.5221461 0.788747
vt 0.5221461 0.7867837
vt 0.5221461 0.8531525
vt 0.5221461 0.8470984
vt 0.5221461 0.8374355
vt 0.5221461 0.7799393
vt 0.5221461 0.8482269
vt 0.5221461 0.8331803
vt 0.5221461 0.8856561
vt 0.5221461 0.7914195
vt 0.5221461 0.8257269
vt 0.5221461 0.8827031
vt 0.5221461 0.8399553
vt 0.5221461 0.7904381
vt 0.5221461 0.8188744
vt 0.5221461 0.8770298
vt 0.5221461 0.8375545
vt 0.5221461 0.8053789
vt 0.5221461 0.8227748
vt 0.5221461 0.8708435
vt 0.5221461 0.8869151
vt 0.5221461 0.8340261
vt 0.5221461 0.7890304
vt 0.5221461 0.830381
vt 0.5221461 0.8842916
vt 0.5221461 0.8047013
vt 0.5221461 0.8167816
vt 0.5221461 0.8740393
vt 0.5221461 0.7789383
vt 0.5221461 0.8215635
vt 0.5221461 0.8814926
vt 0.5221461 0.8360537
vt 0.5221461 0.7888218
vt 0.5221461 0.8245164
vt 0.5221461 0.888345
vt 0.5221461 0.8396676
vt 0.5221461 0.7915246
vt 0.5221461 0.8301897
vt 0.5221461 0.8844447
vt 0.5221461 0.8264354
vt 0.5221461 0.836376
vt 0.5221461 0.8768386
vt 0.5221461 0.8454977
vt 0.5221461 0.7999094
vt 0.5221461 0.8203045
vt 0.5221461 0.8074838
vt 0.5221461 0.8167816
vt 0.5221461 0.8860027
vt 0.5221461 0.8904378
vt 0.5221461 0.8180754
vt 0.5221461 0.8229277
vt 0.5221461 0.8904378
vt 0.5221461 0.8216108
vt 0.5221461 0.8212168
vt 0.5221461 0.7679808
vt 0.5221461 0.8020878
vt 0.5221461 0.8581588
vt 0.5221461 0.822898
vt 0.5221461 0.8447058
vt 0.5221461 0.7897966
vt 0.5221461 0.8255711
vt 0.5221461 0.881642
vn -0.01181749 0.05554403 -0.9983863
vn -0.007537823 0.073958 -0.9972329
vn 0.02669479 0.000399466 -0.9996436
vn 0.01841453 -0.002299533 -0.9998277
vn 0.0242911 -0.07217029 -0.9970965
vn 0.05275432 -0.06817359 -0.9962777
vn -0.001373994 -0.07572055 -0.9971282
vn 0.0478667 0.02026138 -0.9986482
vn 0.0535909 0.1033526 -0.9932
vn 0.09197537 0.1069731 -0.9899986
vn 0.00367738 -0.07576756 0.9971188
vn -0.02694621 -0.002687053 0.9996333
vn -0.0491578 -0.1026242 0.9935048
vn -0.0437385 -0.01508337 0.9989291
vn -0.08541352 -0.1039391 0.9909093
vn -0.0001500268 0.07705357 0.997027
vn -0.024889 0.07253838 0.9970551
vn -0.02190829 0.003724884 0.9997531
vn -0.05144197 0.06763782 0.9963828
vn 0.006060359 -0.05660221 0.9983784
vn -0.02473059 0.5985233 -0.8007236
vn -0.2906217 0.9512275 0.1034664
vn -0.4395612 0.8974398 -0.03725243
vn -0.2910698 0.4397723 -0.8496344
vn -0.2910698 0.4397723 -0.8496344
vn -0.4395612 0.8974398 -0.03725243
vn -0.8315924 0.5472978 -0.09444113
vn -0.2910698 0.4397723 -0.8496344
vn -0.8315924 0.5472978 -0.09444113
vn -0.994484 0.05311056 -0.09044763
vn -0.6089612 -0.03359352 -0.7924883
vn -0.6089612 -0.03359352 -0.7924883
vn -0.994484 0.05311056 -0.09044763
vn -0.947293 -0.3172179 0.04481961
vn -0.6297774 -0.320988 -0.7073523
vn -0.6297774 -0.320988 -0.7073523
vn -0.947293 -0.3172179 0.04481961
vn -0.8277379 -0.5466743 0.1264801
vn -0.8277379 -0.5466743 0.1264801
vn -0.5708513 -0.3885111 -0.7233173
vn -0.2906217 0.9512275 0.1034664
vn -0.3016555 0.5649952 0.7679743
vn -0.4868882 0.4085705 0.7720169
vn -0.4395612 0.8974398 -0.03725243
vn -0.4395612 0.8974398 -0.03725243
vn -0.4868882 0.4085705 0.7720169
vn -0.8315924 0.5472978 -0.09444113
vn -0.8315924 0.5472978 -0.09444113
vn -0.4868882 0.4085705 0.7720169
vn -0.6802014 0.06156656 0.7304352
vn -0.994484 0.05311056 -0.09044763
vn -0.994484 0.05311056 -0.09044763
vn -0.6802014 0.06156656 0.7304352
vn -0.614903 -0.15372 0.7734756
vn -0.947293 -0.3172179 0.04481961
vn -0.947293 -0.3172179 0.04481961
vn -0.614903 -0.15372 0.7734756
vn -0.8277379 -0.5466743 0.1264801
vn -0.8277379 -0.5466743 0.1264801
vn -0.614903 -0.15372 0.7734756
vn -0.422083 -0.3733087 0.8261274
vn 0.5177791 -0.3697717 -0.771475
vn 0.7982689 -0.5993304 0.0597484
vn 0.6193284 -0.3794613 -0.6873438
vn 0.4470845 -0.417277 0.7911987
vn 0.5633762 -0.2791657 0.7776077
vn 0.6193284 -0.3794613 -0.6873438
vn 0.7982689 -0.5993304 0.0597484
vn 0.8821285 -0.460286 0.09993029
vn 0.6193284 -0.3794613 -0.6873438
vn 0.8821285 -0.460286 0.09993029
vn 0.9975144 -0.07045928 0.0008611053
vn 0.6593496 -0.07790901 -0.747789
vn 0.6593496 -0.07790901 -0.747789
vn 0.9975144 -0.07045928 0.0008611053
vn 0.8776286 0.4792279 -0.01042928
vn 0.4072787 0.4309065 -0.8052599
vn 0.4072787 0.4309065 -0.8052599
vn 0.8776286 0.4792279 -0.01042928
vn 0.5339051 0.8438191 -0.05398585
vn 0.3662735 0.9304744 0.007813426
vn 0.1345581 0.5901806 -0.795978
vn 0.4072787 0.4309065 -0.8052599
vn 0.5339051 0.8438191 -0.05398585
vn 0.763369 -0.6323183 -0.1320662
vn 0.4470845 -0.417277 0.7911987
vn 0.7982689 -0.5993304 0.0597484
vn 0.7982689 -0.5993304 0.0597484
vn 0.5633762 -0.2791657 0.7776077
vn 0.8821285 -0.460286 0.09993029
vn 0.8821285 -0.460286 0.09993029
vn 0.5633762 -0.2791657 0.7776077
vn 0.6350237 0.00321601 0.772486
vn 0.9975144 -0.07045928 0.0008611053
vn 0.9975144 -0.07045928 0.0008611053
vn 0.6350237 0.00321601 0.772486
vn 0.4773648 0.4263735 0.7683283
vn 0.8776286 0.4792279 -0.01042928
vn 0.8776286 0.4792279 -0.01042928
vn 0.4773648 0.4263735 0.7683283
vn 0.5339051 0.8438191 -0.05398585
vn 0.5339051 0.8438191 -0.05398585
vn 0.4773648 0.4263735 0.7683283
vn 0.3154985 0.5670315 0.7608784
vn 0.3662735 0.9304744 0.007813426
vn -0.5708513 -0.3885111 -0.7233173
vn -0.8277379 -0.5466743 0.1264801
vn -0.7642314 -0.6423572 0.05768461
vn 0.7982689 -0.5993304 0.0597484
vn 0.5177791 -0.3697717 -0.771475
vn 0.763369 -0.6323183 -0.1320662
vn -0.8277379 -0.5466743 0.1264801
vn -0.422083 -0.3733087 0.8261274
vn -0.7642314 -0.6423572 0.05768461
vn 0.002056465 0.6037196 -0.7971941
vn 0.002056467 0.6037197 -0.7971941
vn 0.002056467 0.6037197 -0.7971941
vn 0.002056469 0.6037195 -0.7971941
vn 0.01536606 0.6110045 0.7914779
vn 0.01536606 0.6110045 0.7914779
vn 0.01536606 0.6110045 0.7914779
vn 0.01536606 0.6110045 0.7914779
g meger3d_Char2_sundries_C6_8_0
f 3/3/3 2/2/2 1/1/1
f 4/4/4 3/3/3 1/1/1
f 5/5/5 3/3/3 4/4/4
f 6/6/6 5/5/5 4/4/4
f 5/5/5 7/7/7 3/3/3
f 7/7/7 8/8/8 3/3/3
f 3/3/3 8/8/8 9/9/9
f 9/9/9 2/2/2 3/3/3
f 8/8/8 10/10/10 9/9/9
f 13/13/13 12/12/12 11/11/11
f 14/14/14 12/12/12 13/13/13
f 15/15/15 14/14/14 13/13/13
f 14/14/14 16/16/16 12/12/12
f 16/16/16 17/17/17 12/12/12
f 12/12/12 17/17/17 18/18/18
f 17/17/17 19/19/19 18/18/18
f 20/20/20 11/11/11 12/12/12
f 18/18/18 20/20/20 12/12/12
f 23/23/23 22/22/22 21/21/21
f 24/24/24 23/23/23 21/21/21
f 27/27/27 26/26/26 25/25/25
f 30/30/30 29/29/29 28/28/28
f 31/31/31 30/30/30 28/28/28
f 34/34/34 33/33/33 32/32/32
f 35/35/35 34/34/34 32/32/32
f 38/38/38 37/37/37 36/36/36
f 40/40/40 39/39/39 36/36/36
f 43/43/43 42/42/42 41/41/41
f 44/44/44 43/43/43 41/41/41
f 47/47/47 46/46/46 45/45/45
f 50/50/50 49/49/49 48/48/48
f 51/51/51 50/50/50 48/48/48
f 54/54/54 53/53/53 52/52/52
f 55/55/55 54/54/54 52/52/52
f 58/58/58 57/57/57 56/56/56
f 61/61/61 60/60/60 59/59/59
f 64/64/64 63/63/63 62/62/62
f 66/66/66 65/65/65 63/63/63
f 69/69/69 68/68/68 67/67/67
f 72/72/72 71/71/71 70/70/70
f 73/73/73 72/72/72 70/70/70
f 76/76/76 75/75/75 74/74/74
f 77/77/77 76/76/76 74/74/74
f 80/80/80 79/79/79 78/78/78
f 83/83/83 82/82/82 81/81/81
f 84/84/84 83/83/83 81/81/81
f 87/87/87 86/86/86 85/85/85
f 90/90/90 89/89/89 88/88/88
f 93/93/93 92/92/92 91/91/91
f 94/94/94 93/93/93 91/91/91
f 97/97/97 96/96/96 95/95/95
f 98/98/98 97/97/97 95/95/95
f 101/101/101 100/100/100 99/99/99
f 104/104/104 103/103/103 102/102/102
f 105/105/105 104/104/104 102/102/102
f 108/108/108 107/107/107 106/106/106
f 111/111/111 110/110/110 109/109/109
f 114/114/114 113/113/113 112/112/112
f 117/117/117 116/116/116 115/115/115
f 118/118/118 117/117/117 115/115/115
f 121/121/121 120/120/120 119/119/119
f 122/122/122 121/121/121 119/119/119
