g meger3d_Char2_sundries_C8_3
v 0.03659775 -0.0735369 -0.01035914
v -0.06600032 -0.07199587 -0.01227227
v -0.03687935 -0.0304727 -0.01143166
v 0.01057807 -0.03120676 -0.01054672
v -0.03575143 -0.1144988 -0.01073452
v 0.003062441 -0.1150171 -0.008691409
v -0.05387276 -0.1918255 -0.006976502
v 0.01831278 -0.192788 -0.003526016
v 0.1619665 -0.2727554 -0.0364149
v 0.168787 0.0519516 -0.04672386
v -0.178373 0.04033026 -0.05715942
v -0.2227706 -0.2879905 -0.04777382
v 0.1662267 0.05690819 0.05605927
v 0.03542469 -0.07279501 0.05294424
v 0.00937319 -0.03286338 0.05273884
v -0.03808424 -0.0321293 0.05185409
v -0.1809333 0.04528685 0.04562357
v 0.1594062 -0.2677988 0.0663681
v 0.003541251 -0.1115983 0.05438967
v 0.01861584 -0.1890066 0.05955177
v -0.1883825 -0.2722983 0.0556121
v -0.06715868 -0.07120383 0.05103083
v -0.05355705 -0.1880446 0.05610182
v -0.03527314 -0.1110927 0.05234697
v 0.03542469 -0.07279501 0.05294424
v 0.03659775 -0.0735369 -0.01035914
v 0.01057807 -0.03120676 -0.01054672
v 0.00937319 -0.03286338 0.05273884
v -0.03687935 -0.0304727 -0.01143166
v -0.03808424 -0.0321293 0.05185409
v -0.06600032 -0.07199587 -0.01227227
v -0.06715868 -0.07120383 0.05103083
v -0.03575143 -0.1144988 -0.01073452
v -0.03527314 -0.1110927 0.05234697
v 0.003541251 -0.1115983 0.05438967
v 0.003062441 -0.1150171 -0.008691409
v -0.03527314 -0.1110927 0.05234697
v -0.03575143 -0.1144988 -0.01073452
v -0.05387276 -0.1918255 -0.006976502
v -0.05355705 -0.1880446 0.05610182
v -0.05355705 -0.1880446 0.05610182
v -0.05387276 -0.1918255 -0.006976502
v 0.01831278 -0.192788 -0.003526016
v 0.01861584 -0.1890066 0.05955177
v 0.01861584 -0.1890066 0.05955177
v 0.01831278 -0.192788 -0.003526016
v 0.003062441 -0.1150171 -0.008691409
v 0.003541251 -0.1115983 0.05438967
v 0.1884709 -0.1970853 0.09683188
v 0.1938652 -0.2033437 -0.0539243
v 0.2456917 -0.3370667 -0.09725752
v 0.2371048 -0.3272542 0.1389765
v 0.2028224 -0.02824578 -0.06298506
v 0.1974372 -0.02201052 0.08751972
v 0.25258 0.135074 0.1340771
v 0.261939 0.1244376 -0.1222565
v 0.2371048 -0.3272542 0.1389765
v 0.2456917 -0.3370667 -0.09725752
v 0.09192656 -0.2931748 -0.05585422
v 0.08652759 -0.2869246 0.09469234
v -0.1238269 -0.2916002 0.08640788
v -0.1184543 -0.2978349 -0.06409742
v -0.261931 -0.3374995 -0.1260108
v -0.2712764 -0.3268647 0.1299806
v 0.1884709 -0.1970853 0.09683188
v 0.2371048 -0.3272542 0.1389765
v 0.1327891 -0.2370658 0.09676246
v 0.1974372 -0.02201052 0.08751972
v 0.1470777 0.03451329 0.08363796
v 0.08652759 -0.2869246 0.09469234
v -0.1715701 -0.238841 0.08474856
v -0.1238269 -0.2916002 0.08640788
v -0.2712764 -0.3268647 0.1299806
v -0.2216078 -0.1989438 0.08157124
v -0.1566528 0.02561631 0.07194461
v -0.2124484 -0.01435965 0.07187089
v -0.1105178 0.07548015 0.07400977
v -0.2544167 0.1275222 0.1057146
v 0.09924539 0.08726341 0.08197575
v 0.25258 0.135074 0.1340771
v 0.2456917 -0.3370667 -0.09725752
v 0.1380712 -0.2433214 -0.05404111
v 0.09192656 -0.2931748 -0.05585422
v -0.1184543 -0.2978349 -0.06409742
v -0.1662765 -0.2450827 -0.06601209
v 0.1938652 -0.2033437 -0.0539243
v 0.1523502 0.02826816 -0.06691366
v 0.2028224 -0.02824578 -0.06298506
v 0.261939 0.1244376 -0.1222565
v 0.1046419 0.08101589 -0.06882376
v -0.1513693 0.01937247 -0.07856362
v -0.2070489 -0.02059719 -0.07867631
v -0.2162118 -0.205204 -0.06922773
v -0.261931 -0.3374995 -0.1260108
v -0.1051108 0.06922125 -0.07674589
v -0.2458107 0.1177024 -0.1310021
v 0.09924539 0.08726341 0.08197575
v 0.1046419 0.08101589 -0.06882376
v 0.261939 0.1244376 -0.1222565
v 0.25258 0.135074 0.1340771
v -0.1051108 0.06922125 -0.07674589
v -0.1105178 0.07548015 0.07400977
v -0.2544167 0.1275222 0.1057146
v -0.2458107 0.1177024 -0.1310021
v -0.2712764 -0.3268647 0.1299806
v -0.261931 -0.3374995 -0.1260108
v -0.2162118 -0.205204 -0.06922773
v -0.2216078 -0.1989438 0.08157124
v -0.2124484 -0.01435965 0.07187089
v -0.2070489 -0.02059719 -0.07867631
v -0.2124484 -0.01435965 0.07187089
v -0.2070489 -0.02059719 -0.07867631
v -0.2458107 0.1177024 -0.1310021
v -0.2544167 0.1275222 0.1057146
v 0.13737 0.02660369 0.01293048
v 0.2072033 0.2483429 0.00735121
v 0.1425982 0.2156404 -0.04501685
v 0.09622116 0.02620623 -0.03979443
v 0.08994021 0.02647335 0.05327338
v 0.04915042 0.009461695 0.001286051
v 0.07260397 0.1817348 -0.003652134
v 0.1372471 0.2144489 0.04873003
v -0.1309909 0.2925771 0.03518132
v -0.07387391 0.2281005 -0.00259644
v -0.1046342 0.01765936 0.04617097
v -0.05720437 0.0177897 0.005827911
v 0.2072033 0.2483429 0.00735121
v 0.13737 0.02660369 0.01293048
v 0.08994021 0.02647335 0.05327338
v 0.1372471 0.2144489 0.04873003
v -0.1761972 0.3498843 -0.02020165
v -0.1309909 0.2925771 0.03518132
v -0.1046342 0.01765936 0.04617097
v -0.1458475 0.01726577 -0.006524287
v 0.09622116 0.02620623 -0.03979443
v 0.1425982 0.2156404 -0.04501685
v 0.07260397 0.1817348 -0.003652134
v 0.04915042 0.009461695 0.001286051
v -0.07387391 0.2281005 -0.00259644
v -0.1190686 0.2853951 -0.0579646
v -0.05720437 0.0177897 0.005827911
v -0.09835319 0.01739223 -0.04689704
v -0.09835319 0.01739223 -0.04689704
v -0.1190686 0.2853951 -0.0579646
v -0.1761972 0.3498843 -0.02020165
v -0.1458475 0.01726577 -0.006524287
v 0.2072033 0.2483429 0.00735121
v -0.1761972 0.3498843 -0.02020165
v -0.1190686 0.2853951 -0.0579646
v 0.1425982 0.2156404 -0.04501685
v 0.1380712 -0.2433214 -0.05404111
v 0.1523502 0.02826816 -0.06691366
v 0.1470777 0.03451329 0.08363796
v 0.1327891 -0.2370658 0.09676246
v -0.1715701 -0.238841 0.08474856
v -0.1566528 0.02561631 0.07194461
v -0.1513693 0.01937247 -0.07856362
v -0.1662765 -0.2450827 -0.06601209
v 0.1327891 -0.2370658 0.09676246
v -0.1715701 -0.238841 0.08474856
v -0.1662765 -0.2450827 -0.06601209
v 0.1380712 -0.2433214 -0.05404111
v 0.1523502 0.02826816 -0.06691366
v -0.1513693 0.01937247 -0.07856362
v -0.1566528 0.02561631 0.07194461
v 0.1470777 0.03451329 0.08363796
vt 0.5252112 0.2131191
vt 0.5252112 0.2128863
vt 0.5252112 0.2166294
vt 0.5252112 0.2167352
vt 0.5252112 0.2092661
vt 0.5252112 0.209356
vt 0.5252112 0.2024098
vt 0.5252112 0.2025759
vt 0.5252112 0.2107109
vt 0.5252112 0.2392324
vt 0.5252112 0.2369841
vt 0.5252112 0.2080119
vt 0.5252112 0.1964814
vt 0.5252112 0.2557666
vt 0.5252112 0.2537374
vt 0.5252112 0.2536031
vt 0.5252112 0.1965061
vt 0.5252112 0.193759
vt 0.5252112 0.2576229
vt 0.5252112 0.2614882
vt 0.5252112 0.1938436
vt 0.5252112 0.2554764
vt 0.5252112 0.2612893
vt 0.5252112 0.2575164
vt 0.5252112 0.2338189
vt 0.5252112 0.2153278
vt 0.5252112 0.218944
vt 0.5252112 0.2372245
vt 0.5252112 0.2188381
vt 0.5252112 0.2371188
vt 0.5252112 0.2150951
vt 0.5252112 0.2335903
vt 0.5252112 0.2114748
vt 0.5252112 0.2302059
vt 0.5252112 0.2302957
vt 0.5252112 0.2115647
vt 0.5252112 0.2302059
vt 0.5252112 0.2114748
vt 0.5252112 0.2046186
vt 0.5252112 0.2233816
vt 0.5252112 0.2233816
vt 0.5252112 0.2046186
vt 0.5252112 0.2047846
vt 0.5252112 0.2235477
vt 0.5252112 0.2235477
vt 0.5252112 0.2047846
vt 0.5252112 0.2115647
vt 0.5252112 0.2302957
vt 0.5252112 0.2149843
vt 0.5252112 0.2046772
vt 0.5252112 0.2311325
vt 0.5252112 0.231132
vt 0.5252112 0.2200887
vt 0.5252112 0.2303957
vt 0.5252112 0.2500918
vt 0.5252112 0.2500924
vt 0.5252112 0.231132
vt 0.5252112 0.2311325
vt 0.5252112 0.1964386
vt 0.5252112 0.2067457
vt 0.5252112 0.2055982
vt 0.5252112 0.1952911
vt 0.5252112 0.2293434
vt 0.5252112 0.2293429
vt 0.5252112 0.2379343
vt 0.5252112 0.2205294
vt 0.5252112 0.2352853
vt 0.5252112 0.2616368
vt 0.5252112 0.2720543
vt 0.5252112 0.2255096
vt 0.5252112 0.234244
vt 0.5252112 0.2243242
vt 0.5252112 0.2192676
vt 0.5252112 0.2366057
vt 0.5252112 0.2700516
vt 0.5252112 0.2615942
vt 0.5252112 0.2740189
vt 0.5252112 0.2807657
vt 0.5252112 0.2761659
vt 0.5252112 0.2831401
vt 0.5252112 0.2365755
vt 0.5252112 0.2280506
vt 0.5252112 0.2235188
vt 0.5252112 0.2223713
vt 0.5252112 0.226827
vt 0.5252112 0.2317574
vt 0.5252112 0.2519524
vt 0.5252112 0.2471689
vt 0.5252112 0.2771726
vt 0.5252112 0.2564078
vt 0.5252112 0.2501058
vt 0.5252112 0.2463987
vt 0.5252112 0.2301523
vt 0.5252112 0.2347864
vt 0.5252112 0.2546374
vt 0.5252112 0.2747606
vt 0.5252112 0.2396346
vt 0.5252112 0.2293276
vt 0.5252112 0.2500924
vt 0.5252112 0.2500918
vt 0.5252112 0.2275572
vt 0.5252112 0.2378642
vt 0.5252112 0.2476798
vt 0.5252112 0.2476803
vt 0.5252112 0.2293429
vt 0.5252112 0.2293434
vt 0.5252112 0.2030721
vt 0.5252112 0.2133791
vt 0.5252112 0.2296256
vt 0.5252112 0.2193185
vt 0.5252112 0.2156369
vt 0.5252112 0.2156373
vt 0.5252112 0.2439991
vt 0.5252112 0.2439986
vt 0.5252112 0.1879888
vt 0.5252112 0.2139981
vt 0.5252112 0.2742699
vt 0.5252112 0.2521124
vt 0.5252112 0.2516816
vt 0.5252112 0.1856354
vt 0.5252112 0.2056973
vt 0.5252112 0.2736731
vt 0.5252112 0.2814807
vt 0.5252112 0.2103502
vt 0.5252112 0.2497578
vt 0.5252112 0.1860649
vt 0.5252112 0.2139981
vt 0.5252112 0.1879888
vt 0.5252112 0.2516816
vt 0.5252112 0.2736731
vt 0.5252112 0.2240248
vt 0.5252112 0.2814807
vt 0.5252112 0.2497578
vt 0.5252112 0.1856354
vt 0.5252112 0.2521124
vt 0.5252112 0.2742699
vt 0.5252112 0.2056973
vt 0.5252112 0.1856354
vt 0.5252112 0.2103502
vt 0.5252112 0.2811384
vt 0.5252112 0.1860649
vt 0.5252112 0.2501884
vt 0.5252112 0.2501884
vt 0.5252112 0.2811384
vt 0.5252112 0.2240248
vt 0.5252112 0.1856354
vt 0.5252112 0.2139981
vt 0.5252112 0.2240248
vt 0.5252112 0.2811384
vt 0.5252112 0.2742699
vt 0.5252112 0.2021974
vt 0.5252112 0.2260992
vt 0.5252112 0.229003
vt 0.5252112 0.2051013
vt 0.5252112 0.2038776
vt 0.5252112 0.2271565
vt 0.5252112 0.2242527
vt 0.5252112 0.2009738
vt 0.5252112 0.2051013
vt 0.5252112 0.2038776
vt 0.5252112 0.2009738
vt 0.5252112 0.2021974
vt 0.5252112 0.2260992
vt 0.5252112 0.2242527
vt 0.5252112 0.2271565
vt 0.5252112 0.229003
vn -0.02284882 0.01487568 0.9996283
vn -0.02298514 0.01560738 0.9996141
vn -0.01875071 -0.007092801 0.9997991
vn -0.0187507 -0.007092807 0.9997991
vn -0.03686384 0.04773519 0.9981796
vn -0.03678009 0.04765983 0.9981862
vn -0.04857218 0.0582675 0.9971187
vn -0.04857218 0.0582675 0.9971187
vn 0.0309426 -0.03255529 -0.9989908
vn 0.03094261 -0.03255529 -0.9989908
vn 0.03094261 -0.03255529 -0.9989908
vn 0.0309426 -0.03255529 -0.9989908
vn -0.04098589 0.02195161 0.9989185
vn -0.03322005 0.02822217 0.9990495
vn -0.02493653 0.01024034 0.9996367
vn -0.03269917 0.01574518 0.9993412
vn -0.02407661 0.02352426 0.9994332
vn -0.03708835 0.04251071 0.9984074
vn -0.01732248 0.05925476 0.9980926
vn -0.02634556 0.04756486 0.9985207
vn -0.02382762 0.0365908 0.9990461
vn -0.02448477 0.02674407 0.9993424
vn -0.02815391 0.03909861 0.9988387
vn -0.02168626 0.04082989 0.9989308
vn -0.9976478 0.06275191 -0.02758485
vn -0.9981043 0.05503359 -0.02754973
vn -0.4862072 -0.8734487 -0.02626867
vn -0.4910029 -0.870763 -0.02622984
vn 0.4462426 -0.8948693 -0.008742377
vn 0.4508674 -0.8925501 -0.008531826
vn 0.9999256 0.01186082 -0.002871798
vn 0.9999689 0.007383548 -0.002770632
vn 0.7985757 0.6016898 -0.01568939
vn 0.7985758 0.6016898 -0.0156894
vn -0.7754553 0.6309062 -0.02502959
vn -0.7754553 0.6309062 -0.02502959
vn 0.9733222 -0.2293375 0.006939055
vn 0.9733222 -0.2293375 0.006939059
vn 0.9733223 -0.2293375 0.006939061
vn 0.9733223 -0.2293375 0.006939056
vn 0.0161696 0.998073 -0.05990737
vn 0.0161696 0.998073 -0.05990737
vn 0.0161696 0.998073 -0.05990737
vn 0.0161696 0.998073 -0.05990737
vn -0.9815065 -0.1906757 0.01696514
vn -0.9815065 -0.1906757 0.01696515
vn -0.9815065 -0.1906757 0.01696514
vn -0.9815065 -0.1906757 0.01696515
vn 0.984638 0.1723066 0.02825309
vn 0.9839473 0.1762379 0.02806828
vn 0.9344299 0.3556403 0.01899039
vn 0.9344299 0.3556403 0.01899039
vn 0.9760265 -0.2131573 0.04400227
vn 0.9764756 -0.2111056 0.04393026
vn 0.9377598 -0.3439171 0.04824758
vn 0.9377596 -0.3439171 0.04824758
vn -0.2668528 -0.9632592 0.03035389
vn -0.2668528 -0.9632592 0.03035389
vn -0.1369035 -0.9899253 0.03612987
vn -0.1346423 -0.9902319 0.03622386
vn 0.1441011 -0.9884829 0.04622204
vn 0.1463579 -0.988148 0.04629023
vn 0.2462102 -0.9679728 0.04908512
vn 0.2462102 -0.9679728 0.04908512
vn -0.08398889 0.1233883 0.9887978
vn -0.2035099 0.212009 0.955843
vn -0.1450182 0.1415167 0.9792563
vn -0.1094597 -0.02301391 0.9937248
vn -0.1895051 -0.1204836 0.9744596
vn -0.1021062 0.0537784 0.9933188
vn 0.1130732 0.1743806 0.9781646
vn 0.04685614 0.07346727 0.9961964
vn 0.1983376 0.2608307 0.9447907
vn 0.04379741 0.1405501 0.9891044
vn 0.07905175 -0.1092785 0.9908628
vn 0.02913947 -0.03558949 0.9989416
vn 0.02467143 -0.06306937 0.9977042
vn 0.1427083 -0.1852855 0.9722673
vn -0.1134528 -0.07266645 0.9908825
vn -0.2675987 -0.1927675 0.9440506
vn -0.1834023 0.2300478 -0.9557413
vn -0.1055223 0.1362593 -0.9850373
vn -0.03755533 0.07076602 -0.9967858
vn 0.1350611 0.08684696 -0.9870238
vn 0.2092731 0.1644681 -0.963927
vn -0.04576508 0.05948573 -0.9971795
vn -0.1479861 -0.1851826 -0.9714976
vn -0.05450407 -0.1231452 -0.9908908
vn -0.2392974 -0.2648712 -0.9341199
vn -0.0585505 -0.08804657 -0.9943941
vn 0.1727739 -0.1772274 -0.9688858
vn 0.09711247 -0.1386976 -0.9855619
vn 0.1297167 0.07653596 -0.9885929
vn 0.3067409 0.2742305 -0.9114316
vn 0.1199617 -0.07620377 -0.9898496
vn 0.2464562 -0.2610317 -0.9333391
vn -0.1790272 0.9827096 -0.04723241
vn -0.1801508 0.9825028 -0.04726465
vn -0.2816421 0.9582188 -0.04994488
vn -0.2816421 0.9582188 -0.04994488
vn 0.1606478 0.9863874 -0.03510235
vn 0.1574422 0.9868993 -0.03523917
vn 0.3348244 0.9418944 -0.02697636
vn 0.3348244 0.9418944 -0.02697636
vn -0.9373062 0.3451438 -0.04830093
vn -0.9373062 0.3451438 -0.04830093
vn -0.9754918 0.215568 -0.04411635
vn -0.9760829 0.2128944 -0.04402298
vn -0.9911162 -0.129498 -0.03031532
vn -0.9908066 -0.1318701 -0.03020825
vn -0.9911162 -0.129498 -0.03031532
vn -0.9908066 -0.1318701 -0.03020825
vn -0.9602406 -0.2782088 -0.02319173
vn -0.9602406 -0.2782088 -0.02319173
vn 0.7213879 -0.2211273 -0.6562791
vn 0.7213879 -0.2211273 -0.6562791
vn 0.7213879 -0.2211274 -0.6562791
vn 0.7213879 -0.2211274 -0.6562791
vn -0.731665 0.1611469 0.6623428
vn -0.731665 0.1611469 0.6623428
vn -0.5316442 -0.298598 0.7925867
vn -0.5609419 -0.2515552 0.7887105
vn 0.264994 -0.3298764 0.9060683
vn 0.2373416 -0.3540933 0.9045922
vn 0.6300339 0.08674251 0.7717078
vn 0.6300339 0.08674251 0.7717078
vn 0.4272968 0.3074955 0.8502139
vn 0.5938342 -0.1502523 0.7904335
vn 0.5938342 -0.1502524 0.7904335
vn 0.4201038 0.3212404 0.8487151
vn -0.3963392 0.4138715 0.8195277
vn -0.4063187 0.4059533 0.8186007
vn -0.7925724 -0.04930044 0.6077816
vn -0.7925724 -0.04930043 0.6077816
vn -0.6000094 0.09351851 -0.7945079
vn -0.4461195 -0.3140684 -0.8380563
vn -0.4251756 -0.3531098 -0.8333902
vn -0.6000094 0.09351849 -0.7945079
vn 0.3915426 -0.4088579 -0.8243359
vn 0.376035 -0.4205257 -0.8256851
vn 0.7901636 0.03682798 -0.6117886
vn 0.7901636 0.03682799 -0.6117885
vn -0.6293592 -0.08533112 -0.7724155
vn -0.6293592 -0.08533113 -0.7724155
vn -0.6293592 -0.08533113 -0.7724155
vn -0.6293592 -0.08533113 -0.7724154
vn 0.2191935 0.6543167 -0.7237568
vn 0.2191935 0.6543167 -0.7237568
vn 0.2191935 0.6543167 -0.7237568
vn 0.2191935 0.6543167 -0.7237568
vn -0.9980253 0.05071676 -0.03705834
vn -0.9980253 0.05071676 -0.03705833
vn -0.9980253 0.05071676 -0.03705834
vn -0.9980253 0.05071676 -0.03705834
vn 0.9978185 -0.0544777 0.03728966
vn 0.9978185 -0.0544777 0.03728965
vn 0.9978185 -0.05447769 0.03728965
vn 0.9978185 -0.05447769 0.03728966
vn -0.004167324 0.9991277 -0.04155157
vn -0.00416733 0.9991277 -0.04155157
vn -0.00416733 0.9991277 -0.04155157
vn -0.00416733 0.9991277 -0.04155157
vn 0.02762393 -0.9987189 0.04239879
vn 0.02762393 -0.9987189 0.04239879
vn 0.02762392 -0.9987189 0.04239878
vn 0.02762392 -0.9987189 0.04239878
g meger3d_Char2_sundries_C8_3_0
f 3/3/3 2/2/2 1/1/1
f 4/4/4 3/3/3 1/1/1
f 2/2/2 5/5/5 1/1/1
f 5/5/5 6/6/6 1/1/1
f 6/6/6 5/5/5 7/7/7
f 8/8/8 6/6/6 7/7/7
f 11/11/11 10/10/10 9/9/9
f 12/12/12 11/11/11 9/9/9
f 15/15/15 14/14/14 13/13/13
f 16/16/16 15/15/15 13/13/13
f 17/17/17 16/16/16 13/13/13
f 18/18/18 13/13/13 14/14/14
f 14/14/14 19/19/19 18/18/18
f 19/19/19 20/20/20 18/18/18
f 18/18/18 20/20/20 21/21/21
f 21/21/21 22/22/22 17/17/17
f 16/16/16 17/17/17 22/22/22
f 20/20/20 23/23/23 21/21/21
f 21/21/21 23/23/23 22/22/22
f 23/23/23 24/24/24 22/22/22
f 27/27/27 26/26/26 25/25/25
f 28/28/28 27/27/27 25/25/25
f 29/29/29 27/27/27 28/28/28
f 30/30/30 29/29/29 28/28/28
f 31/31/31 29/29/29 30/30/30
f 32/32/32 31/31/31 30/30/30
f 33/33/33 31/31/31 32/32/32
f 34/34/34 33/33/33 32/32/32
f 25/25/25 26/26/26 35/35/35
f 26/26/26 36/36/36 35/35/35
f 39/39/39 38/38/38 37/37/37
f 40/40/40 39/39/39 37/37/37
f 43/43/43 42/42/42 41/41/41
f 44/44/44 43/43/43 41/41/41
f 47/47/47 46/46/46 45/45/45
f 48/48/48 47/47/47 45/45/45
f 51/51/51 50/50/50 49/49/49
f 52/52/52 51/51/51 49/49/49
f 50/50/50 53/53/53 49/49/49
f 53/53/53 54/54/54 49/49/49
f 54/54/54 53/53/53 55/55/55
f 53/53/53 56/56/56 55/55/55
f 59/59/59 58/58/58 57/57/57
f 60/60/60 59/59/59 57/57/57
f 60/60/60 61/61/61 59/59/59
f 61/61/61 62/62/62 59/59/59
f 63/63/63 62/62/62 61/61/61
f 64/64/64 63/63/63 61/61/61
f 67/67/67 66/66/66 65/65/65
f 65/65/65 68/68/68 67/67/67
f 68/68/68 69/69/69 67/67/67
f 70/70/70 66/66/66 67/67/67
f 67/67/67 71/71/71 70/70/70
f 71/71/71 72/72/72 70/70/70
f 72/72/72 71/71/71 73/73/73
f 73/73/73 71/71/71 74/74/74
f 71/71/71 75/75/75 74/74/74
f 75/75/75 76/76/76 74/74/74
f 77/77/77 75/75/75 69/69/69
f 78/78/78 75/75/75 77/77/77
f 76/76/76 75/75/75 78/78/78
f 79/79/79 77/77/77 69/69/69
f 79/79/79 69/69/69 80/80/80
f 68/68/68 80/80/80 69/69/69
f 83/83/83 82/82/82 81/81/81
f 83/83/83 84/84/84 82/82/82
f 84/84/84 85/85/85 82/82/82
f 86/86/86 81/81/81 82/82/82
f 82/82/82 87/87/87 86/86/86
f 87/87/87 88/88/88 86/86/86
f 87/87/87 89/89/89 88/88/88
f 90/90/90 89/89/89 87/87/87
f 87/87/87 91/91/91 90/90/90
f 92/92/92 91/91/91 85/85/85
f 93/93/93 92/92/92 85/85/85
f 93/93/93 85/85/85 94/94/94
f 84/84/84 94/94/94 85/85/85
f 91/91/91 95/95/95 90/90/90
f 96/96/96 95/95/95 91/91/91
f 92/92/92 96/96/96 91/91/91
f 99/99/99 98/98/98 97/97/97
f 100/100/100 99/99/99 97/97/97
f 98/98/98 101/101/101 97/97/97
f 101/101/101 102/102/102 97/97/97
f 102/102/102 101/101/101 103/103/103
f 101/101/101 104/104/104 103/103/103
f 107/107/107 106/106/106 105/105/105
f 108/108/108 107/107/107 105/105/105
f 108/108/108 109/109/109 107/107/107
f 109/109/109 110/110/110 107/107/107
f 113/113/113 112/112/112 111/111/111
f 114/114/114 113/113/113 111/111/111
f 117/117/117 116/116/116 115/115/115
f 118/118/118 117/117/117 115/115/115
f 121/121/121 120/120/120 119/119/119
f 122/122/122 121/121/121 119/119/119
f 122/122/122 123/123/123 121/121/121
f 123/123/123 124/124/124 121/121/121
f 123/123/123 125/125/125 124/124/124
f 125/125/125 126/126/126 124/124/124
f 129/129/129 128/128/128 127/127/127
f 130/130/130 129/129/129 127/127/127
f 127/127/127 131/131/131 130/130/130
f 131/131/131 132/132/132 130/130/130
f 132/132/132 131/131/131 133/133/133
f 131/131/131 134/134/134 133/133/133
f 137/137/137 136/136/136 135/135/135
f 138/138/138 137/137/137 135/135/135
f 137/137/137 139/139/139 136/136/136
f 139/139/139 140/140/140 136/136/136
f 140/140/140 139/139/139 141/141/141
f 142/142/142 140/140/140 141/141/141
f 145/145/145 144/144/144 143/143/143
f 146/146/146 145/145/145 143/143/143
f 149/149/149 148/148/148 147/147/147
f 150/150/150 149/149/149 147/147/147
f 153/153/153 152/152/152 151/151/151
f 154/154/154 153/153/153 151/151/151
f 157/157/157 156/156/156 155/155/155
f 158/158/158 157/157/157 155/155/155
f 161/161/161 160/160/160 159/159/159
f 162/162/162 161/161/161 159/159/159
f 165/165/165 164/164/164 163/163/163
f 166/166/166 165/165/165 163/163/163
