g meger3d_Char_sundries_C1_1
v 0.2936264 -0.3438263 -0.2133321
v 0.3219759 0.2629315 -0.2339292
v 0.2339292 0.2629315 -0.3219759
v 0.213332 -0.3438263 -0.2936262
v 0.1229838 0.2629315 -0.3785053
v 0.1121551 -0.3438263 -0.3451785
v -1.525879E-07 0.2629315 -0.397984
v -1.525879E-07 -0.3438263 -0.362942
v -0.1229839 0.2629315 -0.3785053
v -0.1121555 -0.3438263 -0.3451785
v -0.2339293 0.2629315 -0.3219759
v -0.2133321 -0.3438263 -0.2936262
v -0.3219759 0.2629315 -0.2339291
v -0.2936264 -0.3438263 -0.213332
v -0.3219759 0.2629315 -0.2339291
v -0.01296188 0.2629315 0.3914697
v -0.01182083 -0.3438263 0.3570013
v -0.2936264 -0.3438263 -0.213332
v -0.01182083 -0.3438263 0.3570013
v -0.01296188 0.2629315 0.3914697
v -1.525879E-07 0.2629315 0.397984
v -1.525879E-07 -0.3438263 0.362942
v 0.01296165 0.2629315 0.3914697
v 0.0118206 -0.3438263 0.3570013
v 0.01296165 0.2629315 0.3914697
v 0.3219759 0.2629315 -0.2339292
v 0.2936264 -0.3438263 -0.2133321
v 0.0118206 -0.3438263 0.3570013
v 0.213332 -0.3438263 -0.2936262
v -1.525879E-07 -0.3438263 3.814697E-08
v 0.2936264 -0.3438263 -0.2133321
v 0.1121551 -0.3438263 -0.3451785
v -1.525879E-07 -0.3438263 -0.362942
v -0.1121555 -0.3438263 -0.3451785
v -0.2133321 -0.3438263 -0.2936262
v -0.2936264 -0.3438263 -0.213332
v -0.01182083 -0.3438263 0.3570013
v -1.525879E-07 -0.3438263 0.362942
v 0.0118206 -0.3438263 0.3570013
v 0.3219759 0.2629315 -0.2339292
v -1.525879E-07 0.2629315 3.814697E-08
v 0.2339292 0.2629315 -0.3219759
v 0.1229838 0.2629315 -0.3785053
v -1.525879E-07 0.2629315 -0.397984
v -0.1229839 0.2629315 -0.3785053
v -0.2339293 0.2629315 -0.3219759
v -0.3219759 0.2629315 -0.2339291
v -0.01296188 0.2629315 0.3914697
v -1.525879E-07 0.2629315 0.397984
v 0.01296165 0.2629315 0.3914697
v 0.151272 0.267337 -0.2286413
v 0.0876281 0.2677808 -0.3108696
v 0.09023415 0.2471094 -0.3088529
v 0.1514677 0.2468427 -0.2278032
v -0.006934814 0.2473407 -0.3399363
v -0.0117881 0.2681226 -0.3424462
v -0.1014579 0.2472925 -0.3090309
v -0.1072906 0.2680548 -0.3111352
v -0.1575596 0.2470196 -0.227975
v -0.1627844 0.2676404 -0.2289355
v -0.1554017 0.2467926 -0.1278918
v -0.1589327 0.2672345 -0.1274344
v -0.09622993 0.2467438 -0.04705266
v -0.09773445 0.267049 -0.04545596
v -0.001254807 0.2467438 -0.01619336
v -0.001254807 0.2670148 -0.01417926
v 0.09372017 0.2467438 -0.04705266
v 0.09490417 0.2670148 -0.04542306
v 0.152418 0.2467438 -0.1278433
v 0.1537028 0.2670801 -0.1272854
v 0.1514677 0.2468427 -0.2278032
v 0.151272 0.267337 -0.2286413
v -0.1123574 0.2885486 -0.3101445
v -0.01824661 0.2886389 -0.341092
v 0.0810788 0.2881805 -0.3097883
v 0.1457902 0.2875482 -0.2283832
v -0.001985016 0.2869281 -0.01626796
v -0.09804344 0.2870416 -0.04723786
v -0.1600343 0.2873883 -0.1283651
v -0.1656875 0.287984 -0.2288054
v 0.1187805 0.3252258 -0.2247184
v 0.05656311 0.3262005 -0.2985473
v -0.03354836 0.3270788 -0.3282442
v -0.1129667 0.3276208 -0.3038642
v -0.1589855 0.3267126 -0.2296637
v -0.1552709 0.3250354 -0.1348057
v -0.09649452 0.3242749 -0.06082556
v -0.008108444 0.3239905 -0.03271036
v 0.09281708 0.2869458 -0.04714496
v 0.1499141 0.2871149 -0.1280992
v 0.1457902 0.2875482 -0.2283832
v 0.07714736 0.324035 -0.06059206
v 0.1262674 0.3244379 -0.1338659
v 0.1187805 0.3252258 -0.2247184
v -0.1006816 0.3683429 -0.3002073
v -0.03957802 0.3676941 -0.3183134
v 0.02310005 0.3656213 -0.2877825
v 0.06843025 0.3638336 -0.224692
v 0.04000961 0.3623749 -0.09387246
v -0.02734474 0.3623071 -0.07171426
v -0.09729195 0.3629492 -0.09550016
v -0.1379422 0.3649658 -0.1605745
v -0.137965 0.3672327 -0.2397952
v 0.02363327 0.4103601 -0.2516153
v 0.003530273 0.4197357 -0.2973327
v -0.0351342 0.4238562 -0.3171132
v -0.07782593 0.4197394 -0.3030611
v -0.105768 0.4127105 -0.262473
v -0.1068359 0.4108258 -0.2122415
v -0.08341743 0.4094202 -0.169396
v -0.04444893 0.4083002 -0.1501831
v -0.004401016 0.4079144 -0.1621273
v 0.07691185 0.3629132 -0.1522354
v 0.06843025 0.3638336 -0.224692
v 0.0214444 0.4084216 -0.2007
v 0.02363327 0.4103601 -0.2516153
v -0.03310654 0.4574994 -0.3059863
v -0.005538101 0.4551398 -0.2940271
v 0.008590775 0.4474652 -0.264196
v -0.04448784 0.430625 -0.1914661
v -0.07155441 0.4328094 -0.2037424
v -0.08653312 0.4390002 -0.2328867
v -0.0833052 0.4476715 -0.2680958
v -0.06293754 0.4547327 -0.2959951
v -0.02345955 0.4958624 -0.2862233
v -0.02345955 0.4958624 -0.2862233
v -0.02345955 0.4958624 -0.2862233
v -0.02345955 0.4958624 -0.2862233
v -0.02345955 0.4958624 -0.2862233
v -0.01592461 0.4316852 -0.2004837
v 0.004179382 0.4375781 -0.2281139
v 0.008590775 0.4474652 -0.264196
v -0.02345955 0.4958624 -0.2862233
v -0.02345955 0.4958624 -0.2862233
v -0.02345955 0.4958624 -0.2862233
v -0.02345955 0.4958624 -0.2862233
v -0.02345955 0.4958624 -0.2862233
vt 0.193214 0.873694
vt 0.189459 0.979294
vt 0.20112 0.979294
vt 0.203848 0.873694
vt 0.215812 0.979294
vt 0.217246 0.873694
vt 0.232099 0.979294
vt 0.232099 0.873694
vt 0.248386 0.979294
vt 0.246952 0.873694
vt 0.26308 0.979294
vt 0.260352 0.873694
vt 0.27474 0.979294
vt 0.270985 0.873694
vt 0.014526 0.979295
vt 0.097644 0.979295
vt 0.093064 0.873694
vt 0.017263 0.873694
vt 0.0991 0.873694
vt 0.098949 0.979295
vt 0.100671 0.979295
vt 0.100671 0.873694
vt 0.102394 0.979295
vt 0.102242 0.873694
vt 0.10366 0.979295
vt 0.186779 0.979295
vt 0.184042 0.873694
vt 0.10824 0.873694
vt 0.717 0.875858
vt 0.687965 0.915818
vt 0.727927 0.886785
vt 0.70323 0.868842
vt 0.687965 0.866424
vt 0.672702 0.868842
vt 0.658932 0.875858
vt 0.648005 0.886785
vt 0.686357 0.964406
vt 0.687965 0.965214
vt 0.689575 0.964406
vt 0.675289 0.960518
vt 0.63147 0.928681
vt 0.663308 0.9725
vt 0.648208 0.980194
vt 0.63147 0.982846
vt 0.614732 0.980194
vt 0.599633 0.9725
vt 0.587651 0.958694
vt 0.629706 0.875404
vt 0.63147 0.874517
vt 0.633234 0.875404
vt 0.87726 0.984969
vt 0.87726 0.968423
vt 0.866922 0.968423
vt 0.866922 0.984969
vt 0.866922 0.951875
vt 0.87726 0.951875
vt 0.866922 0.935328
vt 0.87726 0.935328
vt 0.866922 0.91878
vt 0.87726 0.91878
vt 0.866922 0.902234
vt 0.87726 0.902234
vt 0.866922 0.885686
vt 0.87726 0.885686
vt 0.866922 0.869139
vt 0.87726 0.869139
vt 0.866922 0.852591
vt 0.87726 0.852591
vt 0.866922 0.836045
vt 0.87726 0.836045
vt 0.866922 0.819496
vt 0.87726 0.819498
vt 0.887597 0.935328
vt 0.887597 0.951875
vt 0.887597 0.968423
vt 0.887597 0.984969
vt 0.887597 0.869139
vt 0.887597 0.885686
vt 0.887597 0.902234
vt 0.887597 0.91878
vt 0.90827 0.984969
vt 0.90827 0.968423
vt 0.90827 0.951875
vt 0.90827 0.935328
vt 0.90827 0.91878
vt 0.90827 0.902234
vt 0.90827 0.885686
vt 0.90827 0.869139
vt 0.887597 0.852591
vt 0.887597 0.836045
vt 0.887597 0.819496
vt 0.90827 0.852591
vt 0.90827 0.836045
vt 0.90827 0.819496
vt 0.928943 0.935328
vt 0.928943 0.951875
vt 0.928943 0.968423
vt 0.928943 0.984969
vt 0.928943 0.852591
vt 0.928943 0.869139
vt 0.928943 0.885686
vt 0.928943 0.902234
vt 0.928943 0.91878
vt 0.949617 0.984969
vt 0.949617 0.968423
vt 0.949617 0.951875
vt 0.949617 0.935328
vt 0.949617 0.91878
vt 0.949617 0.902234
vt 0.949617 0.885686
vt 0.949617 0.869139
vt 0.949617 0.852591
vt 0.928943 0.836045
vt 0.928943 0.819496
vt 0.949617 0.836045
vt 0.949617 0.819496
vt 0.959954 0.951875
vt 0.959954 0.968423
vt 0.959954 0.984969
vt 0.959954 0.869139
vt 0.959954 0.885686
vt 0.959954 0.902234
vt 0.959954 0.91878
vt 0.959954 0.935328
vt 0.980629 0.980834
vt 0.980629 0.931191
vt 0.980629 0.914644
vt 0.980629 0.898096
vt 0.980629 0.88155
vt 0.959954 0.852591
vt 0.959954 0.836045
vt 0.959954 0.819496
vt 0.980629 0.848455
vt 0.980629 0.831907
vt 0.980629 0.947739
vt 0.980629 0.964286
vt 0.980629 0.865002
vn 0.9535284 -0.03439031 0.2993342
vn 0.9558522 -0.03475514 0.2917851
vn 0.5868071 -0.0576568 -0.8076714
vn 0.5868071 -0.05765679 -0.8076714
vn 0.3085028 -0.05765681 -0.9494745
vn 0.3085028 -0.05765681 -0.9494745
vn 0 -0.05765678 -0.9983365
vn 0 -0.05765678 -0.9983365
vn -0.308503 -0.05765675 -0.9494744
vn -0.308503 -0.05765676 -0.9494744
vn -0.5868078 -0.05765673 -0.807671
vn -0.5868077 -0.05765673 -0.807671
vn -0.9558522 -0.03475512 0.2917849
vn -0.9535284 -0.03439028 0.299334
vn -0.9558522 -0.03475512 0.2917849
vn -0.8904031 -0.02748468 0.4543423
vn -0.8909218 -0.02742801 0.4533277
vn -0.9535284 -0.03439028 0.299334
vn -0.8909218 -0.02742801 0.4533277
vn -0.8904031 -0.02748468 0.4543423
vn 0 -0.05765666 0.9983365
vn 0 -0.05765666 0.9983365
vn 0.8904029 -0.02748469 0.4543425
vn 0.8909217 -0.02742803 0.453328
vn 0.8904029 -0.02748469 0.4543425
vn 0.9558522 -0.03475514 0.2917851
vn 0.9535284 -0.03439031 0.2993342
vn 0.8909217 -0.02742803 0.453328
vn 0 -1 0
vn 0 -1 0
vn 0 -1 0
vn 0 -1 0
vn 0 -1 0
vn 0 -1 0
vn 0 -1 -1.499419E-07
vn 0 -1 -1.239605E-07
vn 0 -1 0
vn 0 -1 0
vn 0 -1 0
vn 0 1 0
vn 0 1 0
vn 0 1 0
vn 0 1 0
vn 0 1 0
vn 0 1 0
vn 0 1 0
vn 0 1 0
vn 0 1 0
vn 0 1 0
vn 0 1 0
vn 0.9350255 0.1187411 -0.3341079
vn 0.5739966 0.09547435 -0.8132727
vn 0.5988082 -0.01668186 -0.8007188
vn 0.9457294 -0.00806414 -0.3248551
vn 0.04384518 -0.1119766 -0.9927431
vn 0.008392577 -0.02424539 -0.9996707
vn -0.5581474 -0.2263519 -0.7982708
vn -0.5872999 -0.1593217 -0.7935334
vn -0.9300352 -0.2425783 -0.276026
vn -0.9452801 -0.1843186 -0.2692066
vn -0.9285164 -0.1756645 0.3271074
vn -0.9363657 -0.1096366 0.3334653
vn -0.5794491 -0.1174908 0.8064952
vn -0.579441 -0.03326338 0.814335
vn -0.0002296767 -0.09969497 0.995018
vn 0.003232677 0.001020962 0.9999943
vn 0.5864162 -0.09182675 0.8047881
vn 0.5927358 0.02345157 0.8050554
vn 0.9533395 -0.05638101 0.296589
vn 0.9540979 0.07089579 0.2909827
vn 0.9457294 -0.00806414 -0.3248551
vn 0.9350255 0.1187411 -0.3341079
vn -0.6092105 0.057344 -0.7909324
vn 0.0331243 0.2427489 -0.9695235
vn 0.5341482 0.4076979 -0.7405864
vn 0.8314453 0.4614969 -0.3093852
vn 0.01551427 0.2996855 0.9539119
vn -0.5508248 0.2128932 0.8070121
vn -0.9292157 0.1127782 0.351908
vn -0.9689543 0.04250892 -0.2435585
vn 0.6966851 0.6656283 -0.2675236
vn 0.4908444 0.5506701 -0.675155
vn 0.01055431 0.3057091 -0.9520665
vn -0.6280397 0.1972517 -0.7527667
vn -0.9394304 0.2647196 -0.217702
vn -0.8750237 0.3512254 0.3331279
vn -0.5013989 0.4565418 0.7349616
vn 0.01176391 0.5699685 0.8215823
vn 0.5622737 0.3678495 0.7406315
vn 0.8675358 0.4327524 0.2451671
vn 0.8314453 0.4614969 -0.3093852
vn 0.4590417 0.6474125 0.6083894
vn 0.7028276 0.6845815 0.1933431
vn 0.6966851 0.6656283 -0.2675236
vn -0.6101789 0.2462111 -0.7530351
vn 0.05318227 0.177502 -0.9826825
vn 0.5851492 0.4265914 -0.6896521
vn 0.6624408 0.7165903 -0.2183358
vn 0.3295692 0.825852 0.4575506
vn -0.01951551 0.7862946 0.6175435
vn -0.4324549 0.7108546 0.5546788
vn -0.7572628 0.6050506 0.2458997
vn -0.8700504 0.4426793 -0.2169034
vn 0.8326233 0.5038382 -0.2299686
vn 0.6633947 0.1713655 -0.7283826
vn 0.08712535 0.1124552 -0.9898297
vn -0.5623589 0.2464916 -0.7892998
vn -0.8418498 0.4637004 -0.2761717
vn -0.7238152 0.6688685 0.1694297
vn -0.399725 0.8085957 0.4317325
vn -0.03307921 0.8646264 0.5013252
vn 0.2959083 0.86676 0.4014542
vn 0.5544384 0.8167736 0.159621
vn 0.6624408 0.7165903 -0.2183358
vn 0.5941092 0.7862036 0.1700535
vn 0.8326233 0.5038382 -0.2299686
vn 0.03788554 0.349292 -0.9362478
vn 0.7082424 0.3119224 -0.6333223
vn 0.8928133 0.4438177 -0.07687904
vn -0.02923684 0.8541544 0.5191969
vn -0.3541196 0.8189569 0.4515626
vn -0.6411096 0.7328182 0.2279384
vn -0.763039 0.6243564 -0.1671838
vn -0.5753686 0.4931765 -0.6524782
vn 0.06376992 0.9976429 0.0253353
vn 0.06376992 0.9976429 0.0253353
vn 0.06376992 0.9976429 0.0253353
vn 0.06376992 0.9976429 0.0253353
vn 0.06376992 0.9976429 0.0253353
vn 0.3072748 0.8125335 0.4953498
vn 0.6800678 0.6575332 0.3242806
vn 0.8928133 0.4438177 -0.07687904
vn 0.06376992 0.9976429 0.0253353
vn 0.06376992 0.9976429 0.0253353
vn 0.06376992 0.9976429 0.0253353
vn 0.06376992 0.9976429 0.0253353
vn 0.06376992 0.9976429 0.0253353
g meger3d_Char_sundries_C1_1_0
f 3/3/3 2/2/2 1/1/1
f 4/4/4 3/3/3 1/1/1
f 5/5/5 3/3/3 4/4/4
f 6/6/6 5/5/5 4/4/4
f 7/7/7 5/5/5 6/6/6
f 8/8/8 7/7/7 6/6/6
f 9/9/9 7/7/7 8/8/8
f 10/10/10 9/9/9 8/8/8
f 11/11/11 9/9/9 10/10/10
f 12/12/12 11/11/11 10/10/10
f 13/13/13 11/11/11 12/12/12
f 14/14/14 13/13/13 12/12/12
f 17/17/17 16/16/16 15/15/15
f 18/18/18 17/17/17 15/15/15
f 21/21/21 20/20/20 19/19/19
f 22/22/22 21/21/21 19/19/19
f 23/23/23 21/21/21 22/22/22
f 24/24/24 23/23/23 22/22/22
f 27/27/27 26/26/26 25/25/25
f 28/28/28 27/27/27 25/25/25
f 31/31/31 30/30/30 29/29/29
f 29/29/29 30/30/30 32/32/32
f 32/32/32 30/30/30 33/33/33
f 33/33/33 30/30/30 34/34/34
f 34/34/34 30/30/30 35/35/35
f 35/35/35 30/30/30 36/36/36
f 36/36/36 30/30/30 37/37/37
f 37/37/37 30/30/30 38/38/38
f 38/38/38 30/30/30 39/39/39
f 39/39/39 30/30/30 31/31/31
f 42/42/42 41/41/41 40/40/40
f 43/43/43 41/41/41 42/42/42
f 44/44/44 41/41/41 43/43/43
f 45/45/45 41/41/41 44/44/44
f 46/46/46 41/41/41 45/45/45
f 47/47/47 41/41/41 46/46/46
f 47/47/47 48/48/48 41/41/41
f 49/49/49 41/41/41 48/48/48
f 50/50/50 41/41/41 49/49/49
f 50/50/50 40/40/40 41/41/41
f 53/53/53 52/52/52 51/51/51
f 54/54/54 53/53/53 51/51/51
f 53/53/53 55/55/55 52/52/52
f 55/55/55 56/56/56 52/52/52
f 55/55/55 57/57/57 56/56/56
f 57/57/57 58/58/58 56/56/56
f 57/57/57 59/59/59 58/58/58
f 59/59/59 60/60/60 58/58/58
f 59/59/59 61/61/61 60/60/60
f 61/61/61 62/62/62 60/60/60
f 61/61/61 63/63/63 62/62/62
f 63/63/63 64/64/64 62/62/62
f 63/63/63 65/65/65 64/64/64
f 65/65/65 66/66/66 64/64/64
f 65/65/65 67/67/67 66/66/66
f 67/67/67 68/68/68 66/66/66
f 67/67/67 69/69/69 68/68/68
f 69/69/69 70/70/70 68/68/68
f 69/69/69 71/71/71 70/70/70
f 71/71/71 72/72/72 70/70/70
f 58/58/58 60/60/60 73/73/73
f 58/58/58 73/73/73 74/74/74
f 56/56/56 58/58/58 74/74/74
f 56/56/56 74/74/74 75/75/75
f 52/52/52 56/56/56 75/75/75
f 52/52/52 75/75/75 76/76/76
f 51/51/51 52/52/52 76/76/76
f 66/66/66 68/68/68 77/77/77
f 66/66/66 77/77/77 78/78/78
f 64/64/64 66/66/66 78/78/78
f 64/64/64 78/78/78 79/79/79
f 62/62/62 64/64/64 79/79/79
f 62/62/62 79/79/79 80/80/80
f 60/60/60 80/80/80 73/73/73
f 60/60/60 62/62/62 80/80/80
f 76/76/76 75/75/75 81/81/81
f 75/75/75 82/82/82 81/81/81
f 75/75/75 74/74/74 82/82/82
f 74/74/74 83/83/83 82/82/82
f 74/74/74 73/73/73 83/83/83
f 73/73/73 84/84/84 83/83/83
f 73/73/73 80/80/80 84/84/84
f 80/80/80 85/85/85 84/84/84
f 80/80/80 79/79/79 85/85/85
f 79/79/79 86/86/86 85/85/85
f 79/79/79 78/78/78 86/86/86
f 78/78/78 87/87/87 86/86/86
f 78/78/78 77/77/77 87/87/87
f 77/77/77 88/88/88 87/87/87
f 77/77/77 89/89/89 88/88/88
f 68/68/68 89/89/89 77/77/77
f 68/68/68 70/70/70 89/89/89
f 70/70/70 90/90/90 89/89/89
f 70/70/70 72/72/72 90/90/90
f 72/72/72 91/91/91 90/90/90
f 89/89/89 92/92/92 88/88/88
f 89/89/89 90/90/90 92/92/92
f 90/90/90 93/93/93 92/92/92
f 90/90/90 91/91/91 93/93/93
f 91/91/91 94/94/94 93/93/93
f 84/84/84 85/85/85 95/95/95
f 84/84/84 95/95/95 96/96/96
f 83/83/83 84/84/84 96/96/96
f 83/83/83 96/96/96 97/97/97
f 82/82/82 83/83/83 97/97/97
f 82/82/82 97/97/97 98/98/98
f 81/81/81 82/82/82 98/98/98
f 92/92/92 93/93/93 99/99/99
f 92/92/92 99/99/99 100/100/100
f 88/88/88 92/92/92 100/100/100
f 88/88/88 100/100/100 101/101/101
f 87/87/87 88/88/88 101/101/101
f 87/87/87 101/101/101 102/102/102
f 86/86/86 87/87/87 102/102/102
f 86/86/86 102/102/102 103/103/103
f 85/85/85 103/103/103 95/95/95
f 85/85/85 86/86/86 103/103/103
f 98/98/98 97/97/97 104/104/104
f 97/97/97 105/105/105 104/104/104
f 97/97/97 96/96/96 105/105/105
f 96/96/96 106/106/106 105/105/105
f 96/96/96 95/95/95 106/106/106
f 95/95/95 107/107/107 106/106/106
f 95/95/95 103/103/103 107/107/107
f 103/103/103 108/108/108 107/107/107
f 103/103/103 102/102/102 108/108/108
f 102/102/102 109/109/109 108/108/108
f 102/102/102 101/101/101 109/109/109
f 101/101/101 110/110/110 109/109/109
f 101/101/101 100/100/100 110/110/110
f 100/100/100 111/111/111 110/110/110
f 100/100/100 99/99/99 111/111/111
f 99/99/99 112/112/112 111/111/111
f 99/99/99 113/113/113 112/112/112
f 93/93/93 113/113/113 99/99/99
f 93/93/93 94/94/94 113/113/113
f 94/94/94 114/114/114 113/113/113
f 113/113/113 115/115/115 112/112/112
f 113/113/113 114/114/114 115/115/115
f 114/114/114 116/116/116 115/115/115
f 106/106/106 107/107/107 117/117/117
f 106/106/106 117/117/117 118/118/118
f 105/105/105 106/106/106 118/118/118
f 105/105/105 118/118/118 119/119/119
f 104/104/104 105/105/105 119/119/119
f 111/111/111 112/112/112 120/120/120
f 111/111/111 120/120/120 121/121/121
f 110/110/110 111/111/111 121/121/121
f 110/110/110 121/121/121 122/122/122
f 109/109/109 110/110/110 122/122/122
f 109/109/109 122/122/122 123/123/123
f 108/108/108 109/109/109 123/123/123
f 108/108/108 123/123/123 124/124/124
f 107/107/107 124/124/124 117/117/117
f 107/107/107 108/108/108 124/124/124
f 119/119/119 118/118/118 125/125/125
f 124/124/124 123/123/123 126/126/126
f 123/123/123 122/122/122 127/127/127
f 122/122/122 121/121/121 128/128/128
f 121/121/121 120/120/120 129/129/129
f 112/112/112 130/130/130 120/120/120
f 112/112/112 115/115/115 130/130/130
f 115/115/115 131/131/131 130/130/130
f 115/115/115 116/116/116 131/131/131
f 116/116/116 132/132/132 131/131/131
f 130/130/130 131/131/131 133/133/133
f 131/131/131 132/132/132 134/134/134
f 117/117/117 124/124/124 135/135/135
f 118/118/118 117/117/117 136/136/136
f 120/120/120 130/130/130 137/137/137
