g meger3d_Char_sundries_C5_5
v 0.4773289 -0.2581484 -2.288818E-07
v 0.3374689 0.09869613 -2.288818E-07
v 0.316053 0.09838676 -0.09112617
v 0.447733 -0.2585104 -0.1264068
v 0.2558079 0.09774704 -0.1692752
v 0.3635208 -0.2593079 -0.2359997
v 0.447733 -0.2585104 0.1264068
v 0.316053 0.09838676 0.09112617
v 0.3635208 -0.2593079 0.2359995
v 0.255807 0.09774628 0.1692755
v 0.2363693 -0.2600452 0.3159617
v 0.1658992 0.09719528 0.225667
v 0.08191681 -0.2604494 0.3580286
v 0.05741714 0.09690429 0.2551489
v -0.08191773 -0.2604494 0.3580286
v -0.05741806 0.09690429 0.2551489
v -0.2363702 -0.2600452 0.3159617
v -0.1658992 0.09719528 0.225667
v -0.3635213 -0.2593079 0.2359995
v -0.2558079 0.09774628 0.1692752
v -0.447733 -0.2585104 0.1264068
v -0.3160531 0.09838676 0.09112594
v -0.477329 -0.2581484 -2.288818E-07
v -0.3374679 0.09869613 -2.288818E-07
v -0.447733 -0.2585104 -0.1264068
v -0.3160531 0.09838676 -0.0911264
v -0.3635204 -0.2593079 -0.2359997
v -0.2558079 0.09774704 -0.1692752
v -0.2363702 -0.2600452 -0.3159612
v -0.1658992 0.09719551 -0.225667
v -0.08191681 -0.2604494 -0.3580286
v -0.05741806 0.09690429 -0.2551486
v 0.08191681 -0.2604494 -0.3580286
v 0.05741806 0.09690429 -0.2551486
v 0.2363693 -0.2600452 -0.3159612
v 0.1659001 0.09719528 -0.2256675
v 0.3635208 -0.2593079 -0.2359997
v 0.2558079 0.09774704 -0.1692752
v 0.2390271 0.2880686 -0.1587041
v 0.1549774 0.2878239 -0.2115311
v 0.05362595 0.2876922 -0.2391122
v -0.05362595 0.2876922 -0.2391122
v -0.1549774 0.2878239 -0.2115311
v -0.2390261 0.2880686 -0.1587041
v 0.344861 -0.2688255 -0.2152966
v 0.225092 -0.2688255 -0.2900678
v 0.07817306 -0.2688255 -0.3298536
v -0.07817352 -0.2688255 -0.3298536
v -0.2250926 -0.2688255 -0.2900678
v -0.3448605 -0.2688255 -0.2152966
v -0.4230345 -0.2688255 -0.1145573
v -0.4501832 -0.2688255 -2.288818E-07
v -0.4230345 -0.2688255 0.1145567
v -0.3448605 -0.2688255 0.2152966
v -0.2250926 -0.2688255 0.2900683
v -0.07817443 -0.2688255 0.3298536
v 0.07817306 -0.2688255 0.3298536
v 0.225092 -0.2688255 0.2900683
v 0.344861 -0.2688255 0.2152973
v 0.4230345 -0.2688255 0.1145567
v 0.4501842 -0.2688255 -2.288818E-07
v 0.4230345 -0.2688255 -0.1145573
v 0.344861 -0.2688255 -0.2152966
v 0.3153114 0.2884648 -2.288818E-07
v 0.2953325 0.2883401 -0.08541771
v 0.2390271 0.2880686 -0.1587041
v 0.2953325 0.2883401 0.08541771
v 0.2390271 0.2880686 0.1587043
v 0.1549765 0.2878239 0.2115308
v 0.05362595 0.2876922 0.2391125
v -0.05362595 0.2876922 0.2391119
v -0.1549765 0.2878239 0.2115308
v -0.2390261 0.2880686 0.1587043
v -0.2953329 0.2883401 0.08541717
v -0.315312 0.2884648 -2.288818E-07
v -0.2953329 0.2883395 -0.08541771
v -0.2691503 0.2851724 -0.07288559
v -0.2194124 0.2851724 -0.1369794
v -0.1432111 0.2851724 -0.1845519
v -0.04973709 0.2851724 -0.2098645
v 0.04973648 0.2851724 -0.2098645
v 0.1432106 0.2851724 -0.1845519
v 0.2194128 0.2851724 -0.1369794
v -0.2864237 0.2851724 -2.288818E-07
v -0.2691503 0.2851724 0.07288536
v -0.2194124 0.2851724 0.1369792
v -0.1432111 0.2851724 0.1845521
v -0.04973709 0.2851724 0.2098645
v 0.04973648 0.2851724 0.2098645
v 0.1432106 0.2851724 0.1845521
v 0.2194119 0.2851724 0.1369792
v 0.2691489 0.2851724 0.07288536
v 0.2864227 0.2851724 -2.288818E-07
v 0.2691489 0.2851724 -0.07288559
v 0.2194128 0.2851724 -0.1369794
v 0.4501842 -0.2688255 -2.288818E-07
v 0.4230345 -0.2688255 -0.1145573
v 0.2899121 0.09133804 -0.07850754
v 0.3085176 0.09133804 -2.288818E-07
v 0.2363388 0.09133804 -0.147546
v 0.344861 -0.2688255 -0.2152966
v 0.4230345 -0.2688255 0.1145567
v 0.2899121 0.09133804 0.07850777
v 0.344861 -0.2688255 0.2152973
v 0.2363374 0.09133804 0.1475463
v 0.225092 -0.2688255 0.2900683
v 0.1542581 0.09133804 0.198788
v 0.07817306 -0.2688255 0.3298536
v 0.05357315 0.09133804 0.2260535
v -0.07817443 -0.2688255 0.3298536
v -0.05357361 0.09133804 0.2260535
v -0.2250926 -0.2688255 0.2900683
v -0.154259 0.09133804 0.198788
v -0.3448605 -0.2688255 0.2152966
v -0.2363379 0.09133804 0.1475463
v -0.4230345 -0.2688255 0.1145567
v -0.289912 0.09133804 0.07850723
v -0.4501832 -0.2688255 -2.288818E-07
v -0.3085177 0.09133804 -2.288818E-07
v -0.4230345 -0.2688255 -0.1145573
v -0.289912 0.09133804 -0.078508
v -0.3448605 -0.2688255 -0.2152966
v -0.2363379 0.09133804 -0.147546
v -0.2250926 -0.2688255 -0.2900678
v -0.154259 0.09133804 -0.1987883
v -0.07817352 -0.2688255 -0.3298536
v -0.05357361 0.09133804 -0.2260533
v 0.07817306 -0.2688255 -0.3298536
v 0.05357315 0.09133804 -0.2260533
v 0.225092 -0.2688255 -0.2900678
v 0.154259 0.09133804 -0.1987887
v 0.344861 -0.2688255 -0.2152966
v 0.2363388 0.09133804 -0.147546
v 0.2194128 0.2851724 -0.1369794
v 0.1432106 0.2851724 -0.1845519
v 0.04973648 0.2851724 -0.2098645
v -0.04973709 0.2851724 -0.2098645
v -0.1432111 0.2851724 -0.1845519
v -0.2194124 0.2851724 -0.1369794
v -0.2691503 0.2851724 -0.07288559
v -0.2864237 0.2851724 -2.288818E-07
v -0.2691503 0.2851724 0.07288536
v -0.2194124 0.2851724 0.1369792
v -0.1432111 0.2851724 0.1845521
v -0.04973709 0.2851724 0.2098645
v 0.04973648 0.2851724 0.2098645
v 0.1432106 0.2851724 0.1845521
v 0.2194119 0.2851724 0.1369792
v 0.2691489 0.2851724 0.07288536
v 0.2864227 0.2851724 -2.288818E-07
v 0.2691489 0.2851724 -0.07288559
v 0.2194128 0.2851724 -0.1369794
vt 0.919426 0.008275
vt 0.919426 0.083148
vt 0.944966 0.083148
vt 0.944966 0.008275
vt 0.976558 0.083148
vt 0.976558 0.008275
vt 0.893947 0.008275
vt 0.893947 0.083148
vt 0.868762 0.008275
vt 0.868762 0.083148
vt 0.843671 0.008275
vt 0.843671 0.083148
vt 0.818634 0.008275
vt 0.818634 0.083148
vt 0.793633 0.008275
vt 0.793633 0.083148
vt 0.768657 0.008275
vt 0.768657 0.083148
vt 0.745504 0.008271
vt 0.745504 0.082951
vt 0.715185 0.008267
vt 0.715185 0.082754
vt 0.690271 0.008267
vt 0.690271 0.082754
vt 0.665381 0.008267
vt 0.665381 0.082754
vt 0.640519 0.008267
vt 0.640519 0.082754
vt 0.615701 0.008267
vt 0.615701 0.082754
vt 0.590357 0.008267
vt 0.590357 0.082754
vt 0.564769 0.008267
vt 0.564769 0.082754
vt 0.539364 0.008267
vt 0.539364 0.082754
vt 0.515618 0.008267
vt 0.515618 0.082754
vt 0.515618 0.106246
vt 0.539364 0.106246
vt 0.564769 0.106246
vt 0.590357 0.106246
vt 0.615701 0.106246
vt 0.640519 0.106246
vt 0.515618 0.008267
vt 0.539364 0.008267
vt 0.564769 0.008267
vt 0.590357 0.008267
vt 0.615701 0.008267
vt 0.640519 0.008267
vt 0.665381 0.008267
vt 0.690271 0.008267
vt 0.715185 0.008267
vt 0.745504 0.008271
vt 0.768657 0.008275
vt 0.793633 0.008275
vt 0.818634 0.008275
vt 0.843671 0.008275
vt 0.868762 0.008275
vt 0.893947 0.008275
vt 0.919426 0.008275
vt 0.944966 0.008275
vt 0.976558 0.008275
vt 0.919426 0.106238
vt 0.944966 0.106238
vt 0.976558 0.106238
vt 0.893947 0.106238
vt 0.868762 0.106238
vt 0.843671 0.106238
vt 0.818634 0.106238
vt 0.793633 0.106238
vt 0.768657 0.106238
vt 0.745504 0.106242
vt 0.715185 0.106246
vt 0.690271 0.106246
vt 0.665381 0.106246
vt 0.665381 0.106246
vt 0.640519 0.106246
vt 0.615701 0.106246
vt 0.590357 0.106246
vt 0.564769 0.106246
vt 0.539364 0.106246
vt 0.515618 0.106246
vt 0.690271 0.106246
vt 0.715185 0.106246
vt 0.745504 0.106242
vt 0.768657 0.106238
vt 0.793633 0.106238
vt 0.818634 0.106238
vt 0.843671 0.106238
vt 0.868762 0.106238
vt 0.893947 0.106238
vt 0.919426 0.106238
vt 0.944966 0.106238
vt 0.976558 0.106238
vt 0.919426 0.008275
vt 0.944966 0.008275
vt 0.944966 0.083148
vt 0.919426 0.083148
vt 0.976558 0.083148
vt 0.976558 0.008275
vt 0.893947 0.008275
vt 0.893947 0.083148
vt 0.868762 0.008275
vt 0.868762 0.083148
vt 0.843671 0.008275
vt 0.843671 0.083148
vt 0.818634 0.008275
vt 0.818634 0.083148
vt 0.793633 0.008275
vt 0.793633 0.083148
vt 0.768657 0.008275
vt 0.768657 0.083148
vt 0.745504 0.008271
vt 0.745504 0.082951
vt 0.715185 0.008267
vt 0.715185 0.082754
vt 0.690271 0.008267
vt 0.690271 0.082754
vt 0.665381 0.008267
vt 0.665381 0.082754
vt 0.640519 0.008267
vt 0.640519 0.082754
vt 0.615701 0.008267
vt 0.615701 0.082754
vt 0.590357 0.008267
vt 0.590357 0.082754
vt 0.564769 0.008267
vt 0.564769 0.082754
vt 0.539364 0.008267
vt 0.539364 0.082754
vt 0.515618 0.008267
vt 0.515618 0.082754
vt 0.515618 0.106246
vt 0.539364 0.106246
vt 0.564769 0.106246
vt 0.590357 0.106246
vt 0.615701 0.106246
vt 0.640519 0.106246
vt 0.665381 0.106246
vt 0.690271 0.106246
vt 0.715185 0.106246
vt 0.745504 0.106242
vt 0.768657 0.106238
vt 0.793633 0.106238
vt 0.818634 0.106238
vt 0.843671 0.106238
vt 0.868762 0.106238
vt 0.893947 0.106238
vt 0.919426 0.106238
vt 0.944966 0.106238
vt 0.976558 0.106238
vn 0.9562726 0.2924768 0
vn 0.9544302 0.2984341 0
vn 0.8604561 0.2862064 -0.4215461
vn 0.8682026 0.2773771 -0.4114441
vn 0.6391369 0.2608446 -0.7235082
vn 0.6531966 0.2447189 -0.716552
vn 0.8682019 0.2773777 0.4114451
vn 0.8604558 0.2862061 0.4215471
vn 0.6531956 0.2447207 0.7165523
vn 0.639135 0.2608452 0.7235096
vn 0.3933509 0.2152109 0.8938453
vn 0.3814789 0.2389283 0.8929653
vn 0.1303003 0.1992627 0.9712446
vn 0.1258887 0.2273761 0.9656356
vn -0.1303005 0.1992628 0.9712446
vn -0.1258894 0.2273765 0.9656354
vn -0.393352 0.2152108 0.8938448
vn -0.3814794 0.2389293 0.8929649
vn -0.6531969 0.2447197 0.7165515
vn -0.639136 0.2608462 0.7235084
vn -0.8682038 0.277377 0.4114416
vn -0.8604571 0.2862065 0.4215441
vn -0.9562727 0.2924766 0
vn -0.9544304 0.2984335 0
vn -0.868203 0.277377 -0.4114432
vn -0.8604562 0.2862065 -0.4215459
vn -0.6531957 0.2447191 -0.7165529
vn -0.6391357 0.2608449 -0.7235092
vn -0.393351 0.2152098 -0.8938454
vn -0.3814789 0.2389281 -0.8929654
vn -0.1303005 0.1992629 -0.9712446
vn -0.1258891 0.2273759 -0.9656356
vn 0.1302999 0.1992624 -0.9712448
vn 0.1258882 0.2273755 -0.9656358
vn 0.3933505 0.2152085 -0.893846
vn 0.3814788 0.2389278 -0.8929655
vn 0.6531966 0.2447189 -0.716552
vn 0.6391369 0.2608446 -0.7235082
vn 0.6487298 0.2206768 -0.7283209
vn 0.3859385 0.2162679 -0.8968165
vn 0.1271335 0.2139364 -0.9685393
vn -0.1271348 0.2139356 -0.9685393
vn -0.3859398 0.2162654 -0.8968165
vn -0.6487269 0.2206762 -0.7283236
vn -0.6077365 -0.424417 0.6712127
vn -0.3681308 -0.3972322 0.8406464
vn -0.1223794 -0.3824238 0.9158468
vn 0.1223803 -0.3824244 0.9158464
vn 0.3681321 -0.3972338 0.8406451
vn 0.6077359 -0.4244173 0.671213
vn 0.8035948 -0.4545137 0.3842562
vn 0.8834359 -0.4685522 0
vn 0.8035949 -0.4545141 -0.3842553
vn 0.6077372 -0.4244188 -0.6712109
vn 0.3681323 -0.3972349 -0.8406445
vn 0.1223807 -0.3824246 -0.9158463
vn -0.1223805 -0.3824246 -0.9158463
vn -0.3681301 -0.3972339 -0.8406458
vn -0.6077353 -0.4244185 -0.6712129
vn -0.8035952 -0.4545124 -0.3842565
vn -0.8834357 -0.4685523 0
vn -0.8035955 -0.4545128 0.3842557
vn -0.6077365 -0.424417 0.6712127
vn 0.9735411 0.2285124 0
vn 0.8763829 0.2259033 -0.4253479
vn 0.6487298 0.2206768 -0.7283209
vn 0.8763824 0.2259034 0.4253486
vn 0.6487271 0.2206752 0.7283239
vn 0.3859388 0.2162662 0.8968167
vn 0.1271358 0.2139358 0.9685391
vn -0.1271369 0.2139366 0.9685388
vn -0.3859392 0.2162658 0.8968166
vn -0.6487268 0.2206751 0.7283241
vn -0.8763836 0.2258995 0.4253485
vn -0.9735426 0.2285052 1.353989E-07
vn -0.8763832 0.2258993 -0.4253492
vn 0.8954725 0.06378486 0.4405231
vn 0.6598811 0.06928712 0.7481687
vn 0.3919301 0.07440604 0.9169812
vn 0.1290704 0.07724677 0.9886221
vn -0.1290691 0.07724629 0.9886224
vn -0.3919277 0.07440496 0.9169823
vn -0.6598839 0.06928746 0.7481661
vn 0.9981205 0.06128138 -4.716129E-07
vn 0.8954729 0.06378495 -0.4405221
vn 0.6598829 0.06928651 -0.748167
vn 0.3919305 0.0744045 -0.9169812
vn 0.1290713 0.07724457 -0.9886222
vn -0.1290712 0.07724598 -0.9886221
vn -0.3919303 0.0744079 -0.916981
vn -0.6598819 0.0692898 -0.7481676
vn -0.8954731 0.06378393 -0.4405217
vn -0.9981206 0.06128027 0
vn -0.8954754 0.06378265 0.4405174
vn -0.6598839 0.06928746 0.7481661
vn -0.8834357 -0.4685523 0
vn -0.8035955 -0.4545128 0.3842557
vn -0.8582361 -0.2871881 0.4253866
vn -0.9539598 -0.2999345 0
vn -0.6359422 -0.2612813 0.7261608
vn -0.6077365 -0.424417 0.6712127
vn -0.8035952 -0.4545124 -0.3842565
vn -0.8582348 -0.2871887 -0.4253887
vn -0.6077353 -0.4244185 -0.6712129
vn -0.6359403 -0.2612826 -0.7261622
vn -0.3681301 -0.3972339 -0.8406458
vn -0.3794511 -0.2392477 -0.8937435
vn -0.1223805 -0.3824246 -0.9158463
vn -0.1252609 -0.2276894 -0.9656434
vn 0.1223807 -0.3824246 -0.9158463
vn 0.1252607 -0.2276894 -0.9656434
vn 0.3681323 -0.3972349 -0.8406445
vn 0.3794529 -0.2392476 -0.8937428
vn 0.6077372 -0.4244188 -0.6712109
vn 0.6359426 -0.2612812 -0.7261605
vn 0.8035949 -0.4545141 -0.3842553
vn 0.8582358 -0.2871864 -0.4253882
vn 0.8834359 -0.4685522 0
vn 0.9539605 -0.299932 0
vn 0.8035948 -0.4545137 0.3842562
vn 0.8582351 -0.2871866 0.4253896
vn 0.6077359 -0.4244173 0.671213
vn 0.6359411 -0.2612807 0.726162
vn 0.3681321 -0.3972338 0.8406451
vn 0.3794523 -0.2392472 0.893743
vn 0.1223803 -0.3824244 0.9158464
vn 0.1252605 -0.2276892 0.9656435
vn -0.1223794 -0.3824238 0.9158468
vn -0.1252595 -0.227689 0.9656438
vn -0.3681308 -0.3972322 0.8406464
vn -0.3794506 -0.2392469 0.8937439
vn -0.6077365 -0.424417 0.6712127
vn -0.6359422 -0.2612813 0.7261608
vn -0.6598839 0.06928746 0.7481661
vn -0.3919277 0.07440496 0.9169823
vn -0.1290691 0.07724629 0.9886224
vn 0.1290704 0.07724677 0.9886221
vn 0.3919301 0.07440604 0.9169812
vn 0.6598811 0.06928712 0.7481687
vn 0.8954725 0.06378486 0.4405231
vn 0.9981205 0.06128138 -4.716129E-07
vn 0.8954729 0.06378495 -0.4405221
vn 0.6598829 0.06928651 -0.748167
vn 0.3919305 0.0744045 -0.9169812
vn 0.1290713 0.07724457 -0.9886222
vn -0.1290712 0.07724598 -0.9886221
vn -0.3919303 0.0744079 -0.916981
vn -0.6598819 0.0692898 -0.7481676
vn -0.8954731 0.06378393 -0.4405217
vn -0.9981206 0.06128027 0
vn -0.8954754 0.06378265 0.4405174
vn -0.6598839 0.06928746 0.7481661
g meger3d_Char_sundries_C5_5_0
f 3/3/3 2/2/2 1/1/1
f 4/4/4 3/3/3 1/1/1
f 5/5/5 3/3/3 4/4/4
f 6/6/6 5/5/5 4/4/4
f 1/1/1 2/2/2 7/7/7
f 2/2/2 8/8/8 7/7/7
f 7/7/7 8/8/8 9/9/9
f 8/8/8 10/10/10 9/9/9
f 9/9/9 10/10/10 11/11/11
f 10/10/10 12/12/12 11/11/11
f 11/11/11 12/12/12 13/13/13
f 12/12/12 14/14/14 13/13/13
f 13/13/13 14/14/14 15/15/15
f 14/14/14 16/16/16 15/15/15
f 15/15/15 16/16/16 17/17/17
f 16/16/16 18/18/18 17/17/17
f 17/17/17 18/18/18 19/19/19
f 18/18/18 20/20/20 19/19/19
f 19/19/19 20/20/20 21/21/21
f 20/20/20 22/22/22 21/21/21
f 21/21/21 22/22/22 23/23/23
f 22/22/22 24/24/24 23/23/23
f 23/23/23 24/24/24 25/25/25
f 24/24/24 26/26/26 25/25/25
f 25/25/25 26/26/26 27/27/27
f 26/26/26 28/28/28 27/27/27
f 27/27/27 28/28/28 29/29/29
f 28/28/28 30/30/30 29/29/29
f 29/29/29 30/30/30 31/31/31
f 30/30/30 32/32/32 31/31/31
f 31/31/31 32/32/32 33/33/33
f 32/32/32 34/34/34 33/33/33
f 33/33/33 34/34/34 35/35/35
f 34/34/34 36/36/36 35/35/35
f 35/35/35 36/36/36 37/37/37
f 36/36/36 38/38/38 37/37/37
f 39/39/39 38/38/38 36/36/36
f 40/40/40 39/39/39 36/36/36
f 40/40/40 36/36/36 34/34/34
f 41/41/41 40/40/40 34/34/34
f 41/41/41 34/34/34 32/32/32
f 42/42/42 41/41/41 32/32/32
f 42/42/42 32/32/32 30/30/30
f 43/43/43 42/42/42 30/30/30
f 43/43/43 30/30/30 28/28/28
f 44/44/44 43/43/43 28/28/28
f 35/35/35 37/37/37 45/45/45
f 46/46/46 35/35/35 45/45/45
f 33/33/33 35/35/35 46/46/46
f 47/47/47 33/33/33 46/46/46
f 31/31/31 33/33/33 47/47/47
f 48/48/48 31/31/31 47/47/47
f 29/29/29 31/31/31 48/48/48
f 49/49/49 29/29/29 48/48/48
f 27/27/27 29/29/29 49/49/49
f 50/50/50 27/27/27 49/49/49
f 25/25/25 27/27/27 50/50/50
f 51/51/51 25/25/25 50/50/50
f 23/23/23 25/25/25 51/51/51
f 52/52/52 23/23/23 51/51/51
f 21/21/21 23/23/23 52/52/52
f 53/53/53 21/21/21 52/52/52
f 19/19/19 21/21/21 53/53/53
f 54/54/54 19/19/19 53/53/53
f 17/17/17 19/19/19 54/54/54
f 55/55/55 17/17/17 54/54/54
f 15/15/15 17/17/17 55/55/55
f 56/56/56 15/15/15 55/55/55
f 13/13/13 15/15/15 56/56/56
f 57/57/57 13/13/13 56/56/56
f 11/11/11 13/13/13 57/57/57
f 58/58/58 11/11/11 57/57/57
f 9/9/9 11/11/11 58/58/58
f 59/59/59 9/9/9 58/58/58
f 7/7/7 9/9/9 59/59/59
f 60/60/60 7/7/7 59/59/59
f 1/1/1 7/7/7 60/60/60
f 61/61/61 1/1/1 60/60/60
f 4/4/4 1/1/1 61/61/61
f 62/62/62 4/4/4 61/61/61
f 6/6/6 4/4/4 62/62/62
f 63/63/63 6/6/6 62/62/62
f 64/64/64 2/2/2 3/3/3
f 65/65/65 64/64/64 3/3/3
f 65/65/65 3/3/3 5/5/5
f 66/66/66 65/65/65 5/5/5
f 64/64/64 67/67/67 2/2/2
f 67/67/67 8/8/8 2/2/2
f 67/67/67 68/68/68 8/8/8
f 68/68/68 10/10/10 8/8/8
f 68/68/68 69/69/69 10/10/10
f 69/69/69 12/12/12 10/10/10
f 69/69/69 70/70/70 12/12/12
f 70/70/70 14/14/14 12/12/12
f 70/70/70 71/71/71 14/14/14
f 71/71/71 16/16/16 14/14/14
f 71/71/71 72/72/72 16/16/16
f 72/72/72 18/18/18 16/16/16
f 72/72/72 73/73/73 18/18/18
f 73/73/73 20/20/20 18/18/18
f 73/73/73 74/74/74 20/20/20
f 74/74/74 22/22/22 20/20/20
f 74/74/74 75/75/75 22/22/22
f 75/75/75 24/24/24 22/22/22
f 75/75/75 76/76/76 24/24/24
f 76/76/76 26/26/26 24/24/24
f 76/76/76 44/44/44 26/26/26
f 44/44/44 28/28/28 26/26/26
f 44/44/44 76/76/76 77/77/77
f 78/78/78 44/44/44 77/77/77
f 43/43/43 44/44/44 78/78/78
f 79/79/79 43/43/43 78/78/78
f 42/42/42 43/43/43 79/79/79
f 80/80/80 42/42/42 79/79/79
f 41/41/41 42/42/42 80/80/80
f 81/81/81 41/41/41 80/80/80
f 40/40/40 41/41/41 81/81/81
f 82/82/82 40/40/40 81/81/81
f 39/39/39 40/40/40 82/82/82
f 83/83/83 39/39/39 82/82/82
f 77/77/77 76/76/76 84/84/84
f 76/76/76 75/75/75 84/84/84
f 84/84/84 75/75/75 85/85/85
f 75/75/75 74/74/74 85/85/85
f 85/85/85 74/74/74 86/86/86
f 74/74/74 73/73/73 86/86/86
f 86/86/86 73/73/73 87/87/87
f 73/73/73 72/72/72 87/87/87
f 87/87/87 72/72/72 88/88/88
f 72/72/72 71/71/71 88/88/88
f 88/88/88 71/71/71 89/89/89
f 71/71/71 70/70/70 89/89/89
f 89/89/89 70/70/70 90/90/90
f 70/70/70 69/69/69 90/90/90
f 90/90/90 69/69/69 91/91/91
f 69/69/69 68/68/68 91/91/91
f 91/91/91 68/68/68 92/92/92
f 68/68/68 67/67/67 92/92/92
f 92/92/92 67/67/67 93/93/93
f 67/67/67 64/64/64 93/93/93
f 93/93/93 64/64/64 94/94/94
f 64/64/64 65/65/65 94/94/94
f 94/94/94 65/65/65 95/95/95
f 65/65/65 66/66/66 95/95/95
f 98/98/98 97/97/97 96/96/96
f 99/99/99 98/98/98 96/96/96
f 98/98/98 100/100/100 97/97/97
f 100/100/100 101/101/101 97/97/97
f 99/99/99 96/96/96 102/102/102
f 103/103/103 99/99/99 102/102/102
f 103/103/103 102/102/102 104/104/104
f 105/105/105 103/103/103 104/104/104
f 105/105/105 104/104/104 106/106/106
f 107/107/107 105/105/105 106/106/106
f 107/107/107 106/106/106 108/108/108
f 109/109/109 107/107/107 108/108/108
f 109/109/109 108/108/108 110/110/110
f 111/111/111 109/109/109 110/110/110
f 111/111/111 110/110/110 112/112/112
f 113/113/113 111/111/111 112/112/112
f 113/113/113 112/112/112 114/114/114
f 115/115/115 113/113/113 114/114/114
f 115/115/115 114/114/114 116/116/116
f 117/117/117 115/115/115 116/116/116
f 117/117/117 116/116/116 118/118/118
f 119/119/119 117/117/117 118/118/118
f 119/119/119 118/118/118 120/120/120
f 121/121/121 119/119/119 120/120/120
f 121/121/121 120/120/120 122/122/122
f 123/123/123 121/121/121 122/122/122
f 123/123/123 122/122/122 124/124/124
f 125/125/125 123/123/123 124/124/124
f 125/125/125 124/124/124 126/126/126
f 127/127/127 125/125/125 126/126/126
f 127/127/127 126/126/126 128/128/128
f 129/129/129 127/127/127 128/128/128
f 129/129/129 128/128/128 130/130/130
f 131/131/131 129/129/129 130/130/130
f 131/131/131 130/130/130 132/132/132
f 133/133/133 131/131/131 132/132/132
f 133/133/133 134/134/134 131/131/131
f 134/134/134 135/135/135 131/131/131
f 131/131/131 135/135/135 129/129/129
f 135/135/135 136/136/136 129/129/129
f 129/129/129 136/136/136 127/127/127
f 136/136/136 137/137/137 127/127/127
f 127/127/127 137/137/137 125/125/125
f 137/137/137 138/138/138 125/125/125
f 125/125/125 138/138/138 123/123/123
f 138/138/138 139/139/139 123/123/123
f 139/139/139 140/140/140 121/121/121
f 123/123/123 139/139/139 121/121/121
f 121/121/121 140/140/140 119/119/119
f 140/140/140 141/141/141 119/119/119
f 119/119/119 141/141/141 117/117/117
f 141/141/141 142/142/142 117/117/117
f 117/117/117 142/142/142 115/115/115
f 142/142/142 143/143/143 115/115/115
f 115/115/115 143/143/143 113/113/113
f 143/143/143 144/144/144 113/113/113
f 113/113/113 144/144/144 111/111/111
f 144/144/144 145/145/145 111/111/111
f 111/111/111 145/145/145 109/109/109
f 145/145/145 146/146/146 109/109/109
f 109/109/109 146/146/146 107/107/107
f 146/146/146 147/147/147 107/107/107
f 107/107/107 147/147/147 105/105/105
f 147/147/147 148/148/148 105/105/105
f 105/105/105 148/148/148 103/103/103
f 148/148/148 149/149/149 103/103/103
f 103/103/103 149/149/149 99/99/99
f 149/149/149 150/150/150 99/99/99
f 99/99/99 150/150/150 98/98/98
f 150/150/150 151/151/151 98/98/98
f 98/98/98 151/151/151 100/100/100
f 151/151/151 152/152/152 100/100/100
