g meger3d_Char_sundries_C7_4
v -0.1405782 -0.1780649 -0.3716187
v 1.066596E-09 -0.1780649 -0.3972885
v 7.578163E-10 -0.04299484 -0.4347546
v -0.153848 -0.04353226 -0.4066588
v -0.2806404 -0.1780649 -0.2811725
v -0.3071295 -0.04406456 -0.307673
v -0.3710866 -0.1780649 -0.1411103
v -0.4061153 -0.04353226 -0.1543916
v -0.3924795 -0.1780649 -0.0005226934
v -0.4348218 0.01683289 -0.0005435622
v -0.3620776 -0.1780649 0.1366544
v -0.407688 0.09628082 0.1539002
v -0.2783433 -0.1780649 0.2778183
v -0.307454 0.002428818 0.3069105
v -0.1368711 -0.1780649 0.3607918
v -0.1546551 0.134386 0.407702
v -0.08493736 -0.1159132 0.3702441
v -0.09886661 0.1224277 0.4089525
v 6.802151E-10 0.4369519 0.4417273
v 1.65041E-09 0.2884668 0.4375796
v 0.1546551 0.134386 0.407702
v 0.09886661 0.1224277 0.4089525
v 0.1368711 -0.1780649 0.3607918
v 0.08493736 -0.1159132 0.3702441
v 1.060451E-09 -0.1159132 0.3848147
v 1.060451E-09 -0.1769612 0.3782785
v 1.265185E-10 -0.0820372 0.4273033
v -0.05361212 -0.0820372 0.4159082
v -0.0648421 0.1085495 0.4479083
v 4.748078E-09 0.2016994 0.4726196
v 0.05361212 -0.0820372 0.4159082
v 0.06484215 0.1085495 0.4479083
v 1.066596E-09 -0.1780649 -0.3972885
v 0.1405782 -0.1780649 -0.3716187
v 0.153848 -0.04353226 -0.4066588
v 7.578163E-10 -0.04299484 -0.4347546
v 0.3071295 -0.04406456 -0.307673
v 0.2806404 -0.1780649 -0.2811725
v 0.3710866 -0.1780649 -0.1411103
v 0.4061153 -0.04353226 -0.1543916
v 0.4348218 0.01683289 -0.0005435622
v 0.3924795 -0.1780649 -0.0005226934
v 0.407688 0.09628082 0.1539002
v 0.3620776 -0.1780649 0.1366544
v 0.307454 0.002428818 0.3069105
v 0.2783433 -0.1780649 0.2778183
v 0.1546551 0.134386 0.407702
v 0.1368711 -0.1780649 0.3607918
v 4.748078E-09 0.2016994 0.4726196
v 1.65041E-09 0.2884668 0.4375796
v 0.09886661 0.1224277 0.4089525
v 0.06484215 0.1085495 0.4479083
v -0.0648421 0.1085495 0.4479083
v -0.09886661 0.1224277 0.4089525
v 1.65041E-09 0.2884668 0.4375796
v 4.748078E-09 0.2016994 0.4726196
v 1.265185E-10 -0.0820372 0.4273033
v 1.060451E-09 -0.1159132 0.3848147
v -0.08493736 -0.1159132 0.3702441
v -0.05361212 -0.0820372 0.4159082
v 0.05361212 -0.0820372 0.4159082
v 0.08493736 -0.1159132 0.3702441
v -0.05361212 -0.0820372 0.4159082
v -0.08493736 -0.1159132 0.3702441
v -0.09886661 0.1224277 0.4089525
v -0.0648421 0.1085495 0.4479083
v 0.06484215 0.1085495 0.4479083
v 0.09886661 0.1224277 0.4089525
v 0.08493736 -0.1159132 0.3702441
v 0.05361212 -0.0820372 0.4159082
v -0.1211444 -0.1780649 -0.3190785
v -0.1325798 -0.04353226 -0.3492748
v 9.132818E-09 -0.04299484 -0.3734866
v 9.398909E-09 -0.1780649 -0.3411998
v -0.2418442 -0.1780649 -0.2411359
v -0.2646715 -0.04406456 -0.2639729
v -0.319787 -0.1780649 -0.1204359
v -0.3499733 -0.04353226 -0.1318813
v -0.3382225 -0.1780649 0.0007165712
v -0.3747112 0.01683289 0.000698581
v -0.3120235 -0.1780649 0.1189301
v -0.3513286 0.09628082 0.1337919
v -0.2398648 -0.1780649 0.2405794
v -0.264951 0.002428818 0.2656497
v -0.1179498 -0.1780649 0.3120824
v -0.1332753 0.134386 0.3525076
v 9.065952E-09 0.4369519 0.3818291
v 9.393616E-09 -0.1780649 0.3271516
v 9.398909E-09 -0.1780649 -0.3411998
v 9.132818E-09 -0.04299484 -0.3734866
v 0.1325799 -0.04353226 -0.3492748
v 0.1211444 -0.1780649 -0.3190785
v 0.2646715 -0.04406456 -0.2639729
v 0.2418443 -0.1780649 -0.2411359
v 0.319787 -0.1780649 -0.1204359
v 0.3499733 -0.04353226 -0.1318813
v 0.3747113 0.01683289 0.000698581
v 0.3382225 -0.1780649 0.0007165712
v 0.3513286 0.09628082 0.1337919
v 0.3120235 -0.1780649 0.1189301
v 0.2649512 0.002428818 0.2656497
v 0.2398648 -0.1780649 0.2405794
v 0.1332753 0.134386 0.3525076
v 0.1179498 -0.1780649 0.3120824
v 9.393616E-09 -0.1780649 0.3271516
v 9.065952E-09 0.4369519 0.3818291
v 1.066596E-09 -0.1780649 -0.3972885
v -0.1405782 -0.1780649 -0.3716187
v -0.1211444 -0.1780649 -0.3190785
v 9.398909E-09 -0.1780649 -0.3411998
v -0.2418442 -0.1780649 -0.2411359
v -0.2806404 -0.1780649 -0.2811725
v -0.319787 -0.1780649 -0.1204359
v -0.3710866 -0.1780649 -0.1411103
v -0.3382225 -0.1780649 0.0007165712
v -0.3924795 -0.1780649 -0.0005226934
v -0.3120235 -0.1780649 0.1189301
v -0.3620776 -0.1780649 0.1366544
v -0.2398648 -0.1780649 0.2405794
v -0.2783433 -0.1780649 0.2778183
v -0.1179498 -0.1780649 0.3120824
v -0.1368711 -0.1780649 0.3607918
v 9.393616E-09 -0.1780649 0.3271516
v 1.060451E-09 -0.1769612 0.3782785
v 0.1179498 -0.1780649 0.3120824
v 0.1368711 -0.1780649 0.3607918
v 0.2398648 -0.1780649 0.2405794
v 0.2783433 -0.1780649 0.2778183
v 0.3120235 -0.1780649 0.1189301
v 0.3620776 -0.1780649 0.1366544
v 0.3382225 -0.1780649 0.0007165712
v 0.3924795 -0.1780649 -0.0005226934
v 0.319787 -0.1780649 -0.1204359
v 0.3710866 -0.1780649 -0.1411103
v 0.2418443 -0.1780649 -0.2411359
v 0.2806404 -0.1780649 -0.2811725
v 0.1211444 -0.1780649 -0.3190785
v 0.1405782 -0.1780649 -0.3716187
v -0.1546551 0.134386 0.407702
v -0.307454 0.002428818 0.3069105
v -0.264951 0.002428818 0.2656497
v -0.1332753 0.134386 0.3525076
v 6.802151E-10 0.4369519 0.4417273
v 9.065952E-09 0.4369519 0.3818291
v 0.1546551 0.134386 0.407702
v 6.802151E-10 0.4369519 0.4417273
v 9.065952E-09 0.4369519 0.3818291
v 0.1332753 0.134386 0.3525076
v 0.307454 0.002428818 0.3069105
v 0.2649512 0.002428818 0.2656497
v -0.307454 0.002428818 0.3069105
v -0.407688 0.09628082 0.1539002
v -0.3513286 0.09628082 0.1337919
v -0.264951 0.002428818 0.2656497
v -0.407688 0.09628082 0.1539002
v -0.4348218 0.01683289 -0.0005435622
v -0.3747112 0.01683289 0.000698581
v -0.3513286 0.09628082 0.1337919
v -0.3499733 -0.04353226 -0.1318813
v -0.4061153 -0.04353226 -0.1543916
v -0.2646715 -0.04406456 -0.2639729
v -0.3071295 -0.04406456 -0.307673
v -0.1325798 -0.04353226 -0.3492748
v -0.153848 -0.04353226 -0.4066588
v 9.132818E-09 -0.04299484 -0.3734866
v 7.578163E-10 -0.04299484 -0.4347546
v 0.1325799 -0.04353226 -0.3492748
v 0.153848 -0.04353226 -0.4066588
v 0.2646715 -0.04406456 -0.2639729
v 0.3071295 -0.04406456 -0.307673
v 0.3499733 -0.04353226 -0.1318813
v 0.4061153 -0.04353226 -0.1543916
v 0.3747113 0.01683289 0.000698581
v 0.4348218 0.01683289 -0.0005435622
v 0.3513286 0.09628082 0.1337919
v 0.407688 0.09628082 0.1539002
v 0.407688 0.09628082 0.1539002
v 0.307454 0.002428818 0.3069105
v 0.2649512 0.002428818 0.2656497
v 0.3513286 0.09628082 0.1337919
vt 0.1722868 0.4570456
vt 0.1670484 0.4686696
vt 0.1781903 0.4743494
vt 0.1838809 0.461609
vt 0.1769471 0.442919
vt 0.1889376 0.4461346
vt 0.1799791 0.4283558
vt 0.1923007 0.4302061
vt 0.1811541 0.4157226
vt 0.198917 0.4167821
vt 0.1813235 0.4031878
vt 0.2061825 0.4028827
vt 0.1806859 0.388558
vt 0.1971228 0.3869333
vt 0.1784314 0.3740997
vt 0.2061936 0.3689597
vt 0.1829651 0.3681343
vt 0.2039417 0.3645896
vt 0.2289928 0.3476466
vt 0.215871 0.351062
vt 0.1986958 0.3401536
vt 0.1988603 0.3450671
vt 0.1719506 0.3492012
vt 0.1788175 0.3521992
vt 0.1808713 0.3601719
vt 0.1754295 0.3615884
vt 0.1855179 0.3589625
vt 0.1862409 0.3633105
vt 0.2015806 0.3603162
vt 0.2072771 0.3532988
vt 0.1840293 0.3548137
vt 0.1988822 0.3499493
vt 0.2996687 0.3896942
vt 0.3037294 0.4016433
vt 0.3155852 0.3982448
vt 0.3111846 0.3851529
vt 0.3191022 0.4139706
vt 0.3069835 0.4160035
vt 0.308592 0.4306397
vt 0.3209076 0.4299833
vt 0.3261555 0.4438365
vt 0.3085534 0.4431984
vt 0.3319981 0.4582196
vt 0.3075334 0.455565
vt 0.3215613 0.4730765
vt 0.3055199 0.4699194
vt 0.3287969 0.4916449
vt 0.3019295 0.4839517
vt 0.2072771 0.3532988
vt 0.215871 0.351062
vt 0.1988603 0.3450671
vt 0.1988822 0.3499493
vt 0.2015806 0.3603162
vt 0.2039417 0.3645896
vt 0.215871 0.351062
vt 0.2072771 0.3532988
vt 0.1855179 0.3589625
vt 0.1808713 0.3601719
vt 0.1829651 0.3681343
vt 0.1862409 0.3633105
vt 0.1840293 0.3548137
vt 0.1788175 0.3521992
vt 0.1862409 0.3633105
vt 0.1829651 0.3681343
vt 0.2039417 0.3645896
vt 0.2015806 0.3603162
vt 0.1988822 0.3499493
vt 0.1988603 0.3450671
vt 0.1788175 0.3521992
vt 0.1840293 0.3548137
vt 0.2093469 0.3826888
vt 0.2215755 0.3821896
vt 0.2205915 0.3699681
vt 0.2084056 0.371525
vt 0.2092217 0.3957594
vt 0.2213928 0.3964935
vt 0.2077736 0.4087501
vt 0.2198535 0.4107155
vt 0.2054314 0.41965
vt 0.2224531 0.4238383
vt 0.2023625 0.4302294
vt 0.2257564 0.4376024
vt 0.1981542 0.4423894
vt 0.2132439 0.4484554
vt 0.1927666 0.4540644
vt 0.2177714 0.4663789
vt 0.2354136 0.489977
vt 0.1876705 0.4636065
vt 0.2296819 0.3315207
vt 0.2241549 0.342492
vt 0.2353507 0.3474908
vt 0.2398947 0.3361267
vt 0.2488986 0.352083
vt 0.2522606 0.3403624
vt 0.2649918 0.3433241
vt 0.2628212 0.3553688
vt 0.2743288 0.3621911
vt 0.2760495 0.3447464
vt 0.2862066 0.3698904
vt 0.2870468 0.3453766
vt 0.3006076 0.3617075
vt 0.2999142 0.345459
vt 0.3159994 0.3719466
vt 0.312717 0.3442679
vt 0.3234118 0.3426412
vt 0.3323735 0.3964417
vt 0.2397415 0.4244588
vt 0.2515759 0.4288427
vt 0.2523113 0.4248708
vt 0.2418056 0.420979
vt 0.2653731 0.4243741
vt 0.2662895 0.4282833
vt 0.2770737 0.4185475
vt 0.27947 0.4217197
vt 0.2841392 0.4099234
vt 0.2874291 0.4120051
vt 0.2875759 0.3994578
vt 0.2913004 0.4002158
vt 0.2875759 0.3865902
vt 0.2913004 0.3857208
vt 0.2813552 0.375337
vt 0.284293 0.3730445
vt 0.2728249 0.3686845
vt 0.2746844 0.3655492
vt 0.2628973 0.3643883
vt 0.2635006 0.360711
vt 0.2500393 0.3643247
vt 0.2490165 0.3606394
vt 0.2387471 0.3704941
vt 0.2362962 0.367589
vt 0.2312106 0.3785278
vt 0.2278065 0.3766388
vt 0.22703 0.388863
vt 0.2230972 0.3882811
vt 0.2275267 0.4019248
vt 0.2236567 0.4029948
vt 0.2333533 0.4136254
vt 0.2302202 0.4161752
vt 0.2665792 0.4742657
vt 0.2865014 0.474754
vt 0.285851 0.4705717
vt 0.2673702 0.4701166
vt 0.2373743 0.4667393
vt 0.2388476 0.4627283
vt 0.2667363 0.4875606
vt 0.2964799 0.4825714
vt 0.2953566 0.4784486
vt 0.2663047 0.4833589
vt 0.2468457 0.4863354
vt 0.2478531 0.4822244
vt 0.2865014 0.474754
vt 0.3037632 0.4691246
vt 0.3015959 0.465429
vt 0.285851 0.4705717
vt 0.2266877 0.4225222
vt 0.2292247 0.4378379
vt 0.2332873 0.4363905
vt 0.2309707 0.4224264
vt 0.2395535 0.44821
vt 0.2361608 0.4509276
vt 0.250418 0.4575158
vt 0.2483994 0.4614103
vt 0.264149 0.4615279
vt 0.2638669 0.4659299
vt 0.276338 0.4602004
vt 0.2775974 0.4644345
vt 0.287271 0.4546503
vt 0.2899131 0.4581825
vt 0.2965769 0.4437859
vt 0.3003958 0.4459441
vt 0.3005891 0.4300551
vt 0.3049155 0.4304767
vt 0.2993767 0.4167324
vt 0.30357 0.4157241
vt 0.2936848 0.4037724
vt 0.2973239 0.4015117
vt 0.2301316 0.4792437
vt 0.2468457 0.4863354
vt 0.2478531 0.4822244
vt 0.2326083 0.4757479
vn -0.3546859 -0.2682692 -0.8956727
vn 0 -0.2677542 -0.9634873
vn 0 -0.2677543 -0.9634873
vn -0.3534282 -0.2682709 -0.8961692
vn -0.6810827 -0.2688271 -0.6810713
vn -0.681072 -0.2688271 -0.6810821
vn -0.9101058 -0.2534639 -0.3278161
vn -0.9184213 -0.2516394 -0.3052539
vn -0.9750687 -0.2128059 0.06288589
vn -0.9723016 -0.2068583 0.1088076
vn -0.9130511 -0.1900242 0.3608716
vn -0.9133592 -0.190017 0.3600953
vn -0.6877377 -0.191325 0.7002938
vn -0.680455 -0.1911014 0.7074328
vn -0.2808981 -0.1462484 0.9485292
vn -0.1808077 -0.1291407 0.9750032
vn -0.08287539 -0.112972 0.9901358
vn -0.07839926 -0.1083027 0.9910218
vn 0 -0.06317518 0.9980025
vn 0 -0.06317519 0.9980025
vn 0.1808077 -0.1291408 0.9750032
vn 0.07839926 -0.1083028 0.9910217
vn 0.2808982 -0.1462485 0.9485292
vn 0.08287539 -0.1129721 0.9901358
vn 0 -0.06883586 0.997628
vn 0 -0.06883586 0.997628
vn 0 -0.1648242 0.986323
vn -0.1685814 -0.1624652 0.9722064
vn -0.1685814 -0.1624652 0.9722064
vn 0 -0.1648242 0.986323
vn 0.1685814 -0.1624652 0.9722064
vn 0.1685814 -0.1624652 0.9722064
vn 0 -0.2677542 -0.9634873
vn 0.3546858 -0.2682692 -0.8956727
vn 0.3534283 -0.2682709 -0.8961692
vn 0 -0.2677543 -0.9634873
vn 0.6810721 -0.2688272 -0.6810821
vn 0.6810826 -0.2688272 -0.6810714
vn 0.9101058 -0.2534639 -0.3278161
vn 0.9184213 -0.2516394 -0.3052539
vn 0.9723016 -0.2068583 0.1088075
vn 0.9750687 -0.2128059 0.06288582
vn 0.9133592 -0.190017 0.3600952
vn 0.9130512 -0.1900243 0.3608716
vn 0.6804551 -0.1911015 0.7074327
vn 0.6877378 -0.191325 0.7002938
vn 0.1808077 -0.1291408 0.9750032
vn 0.2808982 -0.1462485 0.9485292
vn 0.6684656 0.2804593 0.6888369
vn 0.6684656 0.2804593 0.6888369
vn 0.6684656 0.2804593 0.6888369
vn 0.6684656 0.2804593 0.6888369
vn -0.6684657 0.2804593 0.6888368
vn -0.6684657 0.2804593 0.6888368
vn -0.6684657 0.2804593 0.6888368
vn -0.6684657 0.2804593 0.6888368
vn 0 -0.7719744 0.6356537
vn 0 -0.7719743 0.6356537
vn -0.118292 -0.7665542 0.6311906
vn -0.118292 -0.7665542 0.6311906
vn 0.118292 -0.7665542 0.6311906
vn 0.118292 -0.7665542 0.6311906
vn -0.7654874 -0.1481242 0.6261695
vn -0.7654874 -0.1481242 0.6261695
vn -0.7654874 -0.1481242 0.6261695
vn -0.7654874 -0.1481242 0.6261695
vn 0.7654872 -0.1481243 0.6261697
vn 0.7654872 -0.1481243 0.6261697
vn 0.7654872 -0.1481243 0.6261697
vn 0.7654872 -0.1481243 0.6261697
vn 0.3579585 0.2333546 0.904108
vn 0.3567474 0.2333561 0.9045863
vn 0 0.232898 0.9725012
vn 0 0.232898 0.9725012
vn 0.6875056 0.2338492 0.6874958
vn 0.6874963 0.2338491 0.6875052
vn 0.9176432 0.220268 0.3307763
vn 0.926915 0.2184476 0.3051379
vn 0.9808155 0.1845006 -0.06293164
vn 0.9771238 0.1785236 -0.115578
vn 0.9173316 0.1645212 -0.3625404
vn 0.917637 0.1645149 -0.3617696
vn 0.6910681 0.1656599 -0.7035493
vn 0.6835261 0.1654586 -0.7109259
vn 0.2638336 0.1313792 -0.955579
vn 0.1540543 0.1171062 -0.9810981
vn 0 0.1028537 -0.9946965
vn 0 0.1028537 -0.9946965
vn 0 0.232898 0.9725012
vn 0 0.232898 0.9725012
vn -0.3567474 0.233356 0.9045863
vn -0.3579585 0.2333546 0.9041081
vn -0.6874963 0.2338493 0.6875052
vn -0.6875057 0.2338492 0.6874958
vn -0.9176432 0.220268 0.3307762
vn -0.9269152 0.2184476 0.3051378
vn -0.9771238 0.1785236 -0.1155779
vn -0.9808156 0.1845006 -0.06293157
vn -0.917637 0.1645148 -0.3617696
vn -0.9173316 0.1645212 -0.3625404
vn -0.683526 0.1654586 -0.7109259
vn -0.6910681 0.1656599 -0.7035494
vn -0.1540543 0.1171061 -0.9810981
vn -0.2638335 0.1313792 -0.9555792
vn 0 0.1028537 -0.9946965
vn 0 0.1028537 -0.9946965
vn 0 -1 0
vn 0 -1 0
vn 0 -1 0
vn 0 -1 0
vn 0 -1 0
vn 0 -1 0
vn 0 -1 0
vn 0 -1 0
vn 0 -1 0
vn 0 -1 0
vn 0 -1 0
vn 0 -1 0
vn 0 -1 0
vn 0 -1 0
vn 0.001458443 -0.9999814 0.005933949
vn 0.001381418 -0.9999833 0.005620557
vn 0 -0.9999328 0.01159457
vn 0 -0.9999328 0.01159457
vn -0.001458444 -0.9999814 0.00593395
vn -0.001381419 -0.9999833 0.005620561
vn 0 -1 0
vn 0 -1 0
vn 0 -1 0
vn 0 -1 0
vn 0 -1 0
vn 0 -1 0
vn 0 -1 0
vn 0 -1 0
vn 0 -1 0
vn 0 -1 0
vn 0 -1 0
vn 0 -1 0
vn -0.7311623 0.6316444 -0.2577345
vn -0.510477 0.7906373 -0.3380914
vn -0.510477 0.7906373 -0.3380914
vn -0.7185459 0.6435822 -0.2636168
vn -0.8839561 0.4377879 -0.1642053
vn -0.8839561 0.4377879 -0.1642053
vn 0.7311623 0.6316445 -0.2577341
vn 0.8839561 0.4377879 -0.1642051
vn 0.8839561 0.4377879 -0.1642051
vn 0.7185459 0.6435823 -0.2636165
vn 0.5104769 0.7906376 -0.338091
vn 0.5104769 0.7906376 -0.338091
vn 0.2546413 0.8757186 0.4102131
vn 0.2546413 0.8757186 0.4102131
vn 0.2546413 0.8757186 0.4102131
vn 0.2546413 0.8757186 0.4102131
vn -0.07644548 0.8783135 -0.4719337
vn 0.0006590343 0.9051858 -0.4250157
vn -0.0003047537 0.9048994 -0.4256254
vn -0.07644548 0.8783135 -0.4719337
vn 0.0398128 0.9806234 -0.1918145
vn 0.04006762 0.9803642 -0.1930819
vn -0.0004342155 0.9999998 -0.0004826541
vn -0.0004753298 0.9999998 -0.0004427069
vn -0.003136239 0.9999944 0.001167722
vn -0.003150269 0.9999944 0.001153153
vn 0 0.9999998 0.0006513282
vn 0 0.9999998 0.0006513282
vn 0.003136304 0.9999944 0.001167721
vn 0.003150336 0.9999944 0.001153152
vn 0.0004342143 0.9999998 -0.0004826542
vn 0.0004753305 0.9999998 -0.0004427064
vn -0.03981288 0.9806234 -0.1918145
vn -0.04006768 0.9803642 -0.1930818
vn 0.0003047882 0.9048995 -0.4256253
vn -0.0006590103 0.9051859 -0.4250155
vn 0.07644563 0.8783136 -0.4719336
vn 0.07644563 0.8783136 -0.4719336
vn -0.2546414 0.8757186 0.4102132
vn -0.2546414 0.8757186 0.4102132
vn -0.2546414 0.8757186 0.4102132
vn -0.2546414 0.8757186 0.4102132
g meger3d_Char_sundries_C7_4_0
f 3/3/3 2/2/2 1/1/1
f 4/4/4 3/3/3 1/1/1
f 4/4/4 1/1/1 5/5/5
f 6/6/6 4/4/4 5/5/5
f 6/6/6 5/5/5 7/7/7
f 8/8/8 6/6/6 7/7/7
f 8/8/8 7/7/7 9/9/9
f 10/10/10 8/8/8 9/9/9
f 10/10/10 9/9/9 11/11/11
f 12/12/12 10/10/10 11/11/11
f 12/12/12 11/11/11 13/13/13
f 14/14/14 12/12/12 13/13/13
f 14/14/14 13/13/13 15/15/15
f 16/16/16 14/14/14 15/15/15
f 16/16/16 15/15/15 17/17/17
f 18/18/18 16/16/16 17/17/17
f 19/19/19 16/16/16 18/18/18
f 20/20/20 19/19/19 18/18/18
f 21/21/21 19/19/19 20/20/20
f 22/22/22 21/21/21 20/20/20
f 23/23/23 21/21/21 22/22/22
f 24/24/24 23/23/23 22/22/22
f 17/17/17 15/15/15 25/25/25
f 15/15/15 26/26/26 25/25/25
f 26/26/26 23/23/23 24/24/24
f 25/25/25 26/26/26 24/24/24
f 29/29/29 28/28/28 27/27/27
f 30/30/30 29/29/29 27/27/27
f 30/30/30 27/27/27 31/31/31
f 32/32/32 30/30/30 31/31/31
f 35/35/35 34/34/34 33/33/33
f 36/36/36 35/35/35 33/33/33
f 35/35/35 37/37/37 34/34/34
f 37/37/37 38/38/38 34/34/34
f 38/38/38 37/37/37 39/39/39
f 37/37/37 40/40/40 39/39/39
f 40/40/40 41/41/41 39/39/39
f 41/41/41 42/42/42 39/39/39
f 41/41/41 43/43/43 42/42/42
f 43/43/43 44/44/44 42/42/42
f 43/43/43 45/45/45 44/44/44
f 45/45/45 46/46/46 44/44/44
f 45/45/45 47/47/47 46/46/46
f 47/47/47 48/48/48 46/46/46
f 51/51/51 50/50/50 49/49/49
f 52/52/52 51/51/51 49/49/49
f 55/55/55 54/54/54 53/53/53
f 56/56/56 55/55/55 53/53/53
f 59/59/59 58/58/58 57/57/57
f 60/60/60 59/59/59 57/57/57
f 57/57/57 58/58/58 61/61/61
f 58/58/58 62/62/62 61/61/61
f 65/65/65 64/64/64 63/63/63
f 66/66/66 65/65/65 63/63/63
f 69/69/69 68/68/68 67/67/67
f 70/70/70 69/69/69 67/67/67
f 73/73/73 72/72/72 71/71/71
f 74/74/74 73/73/73 71/71/71
f 71/71/71 72/72/72 75/75/75
f 72/72/72 76/76/76 75/75/75
f 75/75/75 76/76/76 77/77/77
f 76/76/76 78/78/78 77/77/77
f 77/77/77 78/78/78 79/79/79
f 78/78/78 80/80/80 79/79/79
f 79/79/79 80/80/80 81/81/81
f 80/80/80 82/82/82 81/81/81
f 81/81/81 82/82/82 83/83/83
f 82/82/82 84/84/84 83/83/83
f 83/83/83 84/84/84 85/85/85
f 84/84/84 86/86/86 85/85/85
f 85/85/85 86/86/86 87/87/87
f 88/88/88 85/85/85 87/87/87
f 91/91/91 90/90/90 89/89/89
f 92/92/92 91/91/91 89/89/89
f 93/93/93 91/91/91 92/92/92
f 94/94/94 93/93/93 92/92/92
f 93/93/93 94/94/94 95/95/95
f 96/96/96 93/93/93 95/95/95
f 97/97/97 96/96/96 95/95/95
f 98/98/98 97/97/97 95/95/95
f 99/99/99 97/97/97 98/98/98
f 100/100/100 99/99/99 98/98/98
f 101/101/101 99/99/99 100/100/100
f 102/102/102 101/101/101 100/100/100
f 103/103/103 101/101/101 102/102/102
f 104/104/104 103/103/103 102/102/102
f 104/104/104 105/105/105 103/103/103
f 105/105/105 106/106/106 103/103/103
f 109/109/109 108/108/108 107/107/107
f 110/110/110 109/109/109 107/107/107
f 109/109/109 111/111/111 108/108/108
f 111/111/111 112/112/112 108/108/108
f 111/111/111 113/113/113 112/112/112
f 113/113/113 114/114/114 112/112/112
f 113/113/113 115/115/115 114/114/114
f 115/115/115 116/116/116 114/114/114
f 115/115/115 117/117/117 116/116/116
f 117/117/117 118/118/118 116/116/116
f 117/117/117 119/119/119 118/118/118
f 119/119/119 120/120/120 118/118/118
f 119/119/119 121/121/121 120/120/120
f 121/121/121 122/122/122 120/120/120
f 121/121/121 123/123/123 122/122/122
f 123/123/123 124/124/124 122/122/122
f 123/123/123 125/125/125 124/124/124
f 125/125/125 126/126/126 124/124/124
f 125/125/125 127/127/127 126/126/126
f 127/127/127 128/128/128 126/126/126
f 127/127/127 129/129/129 128/128/128
f 129/129/129 130/130/130 128/128/128
f 129/129/129 131/131/131 130/130/130
f 131/131/131 132/132/132 130/130/130
f 131/131/131 133/133/133 132/132/132
f 133/133/133 134/134/134 132/132/132
f 133/133/133 135/135/135 134/134/134
f 135/135/135 136/136/136 134/134/134
f 135/135/135 137/137/137 136/136/136
f 137/137/137 138/138/138 136/136/136
f 137/137/137 110/110/110 138/138/138
f 110/110/110 107/107/107 138/138/138
f 141/141/141 140/140/140 139/139/139
f 142/142/142 141/141/141 139/139/139
f 142/142/142 139/139/139 143/143/143
f 144/144/144 142/142/142 143/143/143
f 147/147/147 146/146/146 145/145/145
f 148/148/148 147/147/147 145/145/145
f 148/148/148 145/145/145 149/149/149
f 150/150/150 148/148/148 149/149/149
f 153/153/153 152/152/152 151/151/151
f 154/154/154 153/153/153 151/151/151
f 157/157/157 156/156/156 155/155/155
f 158/158/158 157/157/157 155/155/155
f 157/157/157 159/159/159 156/156/156
f 159/159/159 160/160/160 156/156/156
f 159/159/159 161/161/161 160/160/160
f 161/161/161 162/162/162 160/160/160
f 161/161/161 163/163/163 162/162/162
f 163/163/163 164/164/164 162/162/162
f 163/163/163 165/165/165 164/164/164
f 165/165/165 166/166/166 164/164/164
f 165/165/165 167/167/167 166/166/166
f 167/167/167 168/168/168 166/166/166
f 167/167/167 169/169/169 168/168/168
f 169/169/169 170/170/170 168/168/168
f 169/169/169 171/171/171 170/170/170
f 171/171/171 172/172/172 170/170/170
f 171/171/171 173/173/173 172/172/172
f 173/173/173 174/174/174 172/172/172
f 173/173/173 175/175/175 174/174/174
f 175/175/175 176/176/176 174/174/174
f 179/179/179 178/178/178 177/177/177
f 180/180/180 179/179/179 177/177/177
