g meger3d_Char_workshop_C2_3
v -0.1047711 0.07735927 -0.4658218
v -0.1047711 0.07735927 -0.5704913
v 0.1047711 0.07735927 -0.5704913
v 0.1047711 0.07735927 -0.4658218
v -0.1047711 0.07735927 -0.5704913
v -0.1047711 -0.07735931 -0.5704913
v 0.1047711 -0.07735931 -0.5704913
v 0.1047711 0.07735927 -0.5704913
v -0.1047711 -0.07735931 -0.5704913
v -0.1047711 -0.07735927 -0.4658217
v 0.1047711 -0.07735927 -0.4658218
v 0.1047711 -0.07735931 -0.5704913
v -0.07037918 -0.05039718 -0.2966903
v -0.07037919 0.0503972 -0.2966903
v 0.07037918 0.0503972 -0.2966903
v 0.07037919 -0.05039718 -0.2966903
v 0.2633962 0.0773593 -0.3178116
v 0.2807364 0.0773593 -0.3179359
v 0.2807364 -0.07735931 -0.3179359
v 0.2633961 -0.07735931 -0.3178116
v 0.2334003 0.07735927 -0.3937626
v 0.2334003 -0.07735931 -0.3937626
v 0.1766477 0.07735927 -0.4359333
v 0.1766477 -0.07735931 -0.4359333
v 0.1047711 0.07735927 -0.4658218
v 0.1047711 -0.07735927 -0.4658218
v 0.27421 -0.07735931 -0.4104581
v 0.27421 0.07735927 -0.410458
v 0.2178616 -0.07735927 -0.4943476
v 0.2178616 0.07735927 -0.4943476
v 0.1047711 -0.07735931 -0.5704913
v 0.1047711 0.07735927 -0.5704913
v -0.1047711 -0.07735927 -0.4658217
v -0.1047711 -0.07735931 -0.5704913
v -0.1047711 0.07735927 -0.5704913
v -0.1047711 0.07735927 -0.4658218
v 0.1047711 -0.07735927 -0.4658218
v 0.1766477 -0.07735931 -0.4359333
v 0.2178616 -0.07735927 -0.4943476
v 0.1047711 -0.07735931 -0.5704913
v 0.27421 -0.07735931 -0.4104581
v 0.2334003 -0.07735931 -0.3937626
v 0.2807364 -0.07735931 -0.3179359
v 0.2633961 -0.07735931 -0.3178116
v 0.1047711 0.07735927 -0.5704913
v 0.2178616 0.07735927 -0.4943476
v 0.1766477 0.07735927 -0.4359333
v 0.1047711 0.07735927 -0.4658218
v 0.2334003 0.07735927 -0.3937626
v 0.27421 0.07735927 -0.410458
v 0.2633962 0.0773593 -0.3178116
v 0.2807364 0.0773593 -0.3179359
v -0.08466636 -0.06203793 -0.4145144
v -0.0749184 -0.05425495 -0.3528698
v 0.07491839 -0.05425495 -0.3528698
v 0.08466636 -0.06203793 -0.4145144
v -0.1047711 -0.07735927 -0.4658217
v 0.1047711 -0.07735927 -0.4658218
v 0.07037919 -0.05039718 -0.2966903
v -0.07037918 -0.05039718 -0.2966903
v 0.08466636 -0.06203793 -0.4145144
v 0.07491839 -0.05425495 -0.3528698
v 0.0749184 0.05425491 -0.3528697
v 0.08466636 0.06203793 -0.4145144
v 0.1047711 -0.07735927 -0.4658218
v 0.1047711 0.07735927 -0.4658218
v 0.07037918 0.0503972 -0.2966903
v 0.07037919 -0.05039718 -0.2966903
v 0.08466636 0.06203793 -0.4145144
v 0.0749184 0.05425491 -0.3528697
v -0.07491839 0.05425491 -0.3528697
v -0.08466636 0.06203793 -0.4145144
v 0.1047711 0.07735927 -0.4658218
v -0.1047711 0.07735927 -0.4658218
v -0.07037919 0.0503972 -0.2966903
v 0.07037918 0.0503972 -0.2966903
v -0.08466636 0.06203793 -0.4145144
v -0.07491839 0.05425491 -0.3528697
v -0.0749184 -0.05425495 -0.3528698
v -0.08466636 -0.06203793 -0.4145144
v -0.1047711 0.07735927 -0.4658218
v -0.1047711 -0.07735927 -0.4658217
v -0.07037918 -0.05039718 -0.2966903
v -0.07037919 0.0503972 -0.2966903
v -0.1800234 -0.08461891 -0.5640118
v -0.2734192 -0.08461884 -0.5640118
v -0.2734192 -0.1196691 -0.4793929
v -0.1800234 -0.1196691 -0.4793929
v -0.2734192 -0.08461887 -0.394774
v -0.1800234 -0.08461887 -0.394774
v -0.2734192 0 -0.3597237
v -0.1800234 0 -0.3597237
v -0.2734192 0.08461887 -0.394774
v -0.1800234 0.08461887 -0.394774
v -0.2734192 0.1196691 -0.4793929
v -0.1800234 0.1196691 -0.4793929
v -0.2734192 0.08461887 -0.5640118
v -0.1800234 0.08461887 -0.5640118
v -0.2734192 0 -0.599062
v -0.1800234 0 -0.599062
v -0.2734192 -0.08461884 -0.5640118
v -0.1800234 -0.08461891 -0.5640118
v -0.2734192 -0.08461884 -0.5640118
v -0.2734192 0 -0.4793929
v -0.2734192 -0.1196691 -0.4793929
v -0.2734192 -0.08461887 -0.394774
v -0.2734192 0 -0.3597237
v -0.2734192 0.08461887 -0.394774
v -0.2734192 0.1196691 -0.4793929
v -0.2734192 0.08461887 -0.5640118
v -0.2734192 0 -0.599062
v -0.1800234 -0.1196691 -0.4793929
v -0.1358421 -0.08254631 -0.4793929
v -0.1358421 -0.05836906 -0.537762
v -0.1800234 -0.08461891 -0.5640118
v -0.1800234 -0.08461887 -0.394774
v -0.1358421 -0.05836903 -0.4210238
v -0.1800234 0 -0.3597237
v -0.1358421 0 -0.3968466
v -0.1800234 0.08461887 -0.394774
v -0.1358421 0.05836906 -0.4210238
v -0.1800234 0.1196691 -0.4793929
v -0.1358421 0.08254631 -0.4793929
v -0.1800234 0.08461887 -0.5640118
v -0.1358421 0.05836906 -0.5377619
v -0.1800234 0 -0.599062
v -0.1358421 0 -0.5619392
v -0.07988523 -0.04820991 -0.5276029
v -0.07988522 -0.06817913 -0.4793929
v -0.07988523 -0.04820991 -0.431183
v -0.07988523 0 -0.4112138
v -0.07988523 0.04820991 -0.431183
v -0.07988523 0.06817917 -0.4793929
v -0.07988523 0.04820991 -0.5276029
v -0.07988523 0 -0.5475721
v -0.05461072 -0.02638054 0.6221332
v -0.05461084 0.02638054 0.6221332
v 0.05461084 0.02638054 0.6221332
v 0.05461084 -0.02638054 0.6221332
v -0.08360243 -0.02582207 0.5811157
v -0.08360244 0.02582214 0.5811157
v 0.08360267 0.02582214 0.5811157
v 0.0836027 -0.02582207 0.5811157
v 0.05378831 -0.05563026 0.5811098
v -0.05378807 -0.05563026 0.5811098
v -0.04223755 -0.04816804 0.09837045
v 0.0422378 -0.04816804 0.09837046
v -0.03301607 -0.03994066 -0.1088703
v 0.03301632 -0.03994066 -0.1088703
v -0.06043281 -0.01252923 -0.108873
v -0.07270465 -0.01770698 0.09837025
v -0.0604328 0.01252923 -0.108873
v -0.07270465 0.01770699 0.09837025
v -0.03301607 0.03994065 -0.1088703
v -0.04223756 0.04816806 0.09837043
v 0.03301633 0.03994065 -0.1088703
v 0.04223781 0.04816806 0.09837043
v 0.06043305 0.01252925 -0.108873
v 0.0727049 0.01770698 0.09837025
v 0.06043305 -0.01252923 -0.108873
v 0.0727049 -0.01770698 0.09837026
v 0.06043305 -0.01252923 -0.108873
v 0.05378831 0.05563026 0.5811097
v -0.05378807 0.05563026 0.5811098
v 0.05461084 0.02638054 0.6221332
v -0.05461084 0.02638054 0.6221332
v 0.05536816 -0.00878273 -0.3172778
v 0.05536816 0.00878273 -0.3172777
v 0.02767207 0.0364736 -0.3172723
v -0.0276718 0.0364736 -0.3172723
v -0.05536791 0.00878273 -0.3172778
v -0.05536791 -0.00878273 -0.3172778
v -0.02767181 -0.03647362 -0.3172723
v 0.02767205 -0.03647362 -0.3172723
v 0.05536816 -0.00878273 -0.3172778
vt 0.9564437 0.8849515
vt 0.9564437 0.8849521
vt 0.9564443 0.8849521
vt 0.9564443 0.8849515
vt 0.9564437 0.8849521
vt 0.9564437 0.8849528
vt 0.9564443 0.8849528
vt 0.9564443 0.8849521
vt 0.9564437 0.8849528
vt 0.9564437 0.8849534
vt 0.9564443 0.8849534
vt 0.9564443 0.8849528
vt 0.9564437 0.8849534
vt 0.9564437 0.8849541
vt 0.9564443 0.8849541
vt 0.9564443 0.8849534
vt 0.9564443 0.8849515
vt 0.9564443 0.8849521
vt 0.956445 0.8849521
vt 0.956445 0.8849515
vt 0.9564443 0.8849515
vt 0.956445 0.8849515
vt 0.9564443 0.8849515
vt 0.956445 0.8849515
vt 0.9564443 0.8849515
vt 0.956445 0.8849515
vt 0.956445 0.8849521
vt 0.9564443 0.8849521
vt 0.956445 0.8849521
vt 0.9564443 0.8849521
vt 0.956445 0.8849521
vt 0.9564443 0.8849521
vt 0.9564431 0.8849515
vt 0.9564431 0.8849521
vt 0.9564437 0.8849521
vt 0.9564437 0.8849515
vt 0.956445 0.8849515
vt 0.956445 0.8849515
vt 0.956445 0.8849521
vt 0.956445 0.8849521
vt 0.956445 0.8849521
vt 0.956445 0.8849515
vt 0.956445 0.8849521
vt 0.956445 0.8849515
vt 0.9564443 0.8849521
vt 0.9564443 0.8849521
vt 0.9564443 0.8849515
vt 0.9564443 0.8849515
vt 0.9564443 0.8849515
vt 0.9564443 0.8849521
vt 0.9564443 0.8849515
vt 0.9564443 0.8849521
vt 0.9564437 0.8849534
vt 0.9564437 0.8849534
vt 0.9564443 0.8849534
vt 0.9564443 0.8849534
vt 0.9564437 0.8849534
vt 0.9564443 0.8849534
vt 0.9564443 0.8849534
vt 0.9564437 0.8849534
vt 0.9564443 0.8849534
vt 0.9564443 0.8849534
vt 0.9564443 0.8849541
vt 0.9564443 0.8849541
vt 0.9564443 0.8849534
vt 0.9564443 0.8849541
vt 0.9564443 0.8849541
vt 0.9564443 0.8849534
vt 0.9564443 0.8849541
vt 0.9564443 0.8849541
vt 0.9564437 0.8849541
vt 0.9564437 0.8849541
vt 0.9564443 0.8849541
vt 0.9564437 0.8849541
vt 0.9564437 0.8849541
vt 0.9564443 0.8849541
vt 0.9564437 0.8849541
vt 0.9564437 0.8849541
vt 0.9564437 0.8849534
vt 0.9564437 0.8849534
vt 0.9564437 0.8849541
vt 0.9564437 0.8849534
vt 0.9564437 0.8849534
vt 0.9564437 0.8849541
vt 0.9564437 0.8849523
vt 0.9564437 0.8849533
vt 0.9564438 0.8849533
vt 0.9564438 0.8849523
vt 0.9564439 0.8849533
vt 0.9564439 0.8849523
vt 0.9564439 0.8849533
vt 0.9564439 0.8849523
vt 0.956444 0.8849533
vt 0.956444 0.8849523
vt 0.956444 0.8849533
vt 0.956444 0.8849523
vt 0.9564441 0.8849533
vt 0.9564441 0.8849523
vt 0.9564443 0.8849533
vt 0.9564443 0.8849523
vt 0.9564443 0.8849533
vt 0.9564443 0.8849523
vt 0.9564443 0.884954
vt 0.956444 0.8849537
vt 0.956444 0.8849541
vt 0.9564437 0.884954
vt 0.9564435 0.8849537
vt 0.9564437 0.8849534
vt 0.956444 0.8849533
vt 0.9564443 0.8849534
vt 0.9564444 0.8849537
vt 0.956444 0.8849515
vt 0.956444 0.8849515
vt 0.9564443 0.8849516
vt 0.9564443 0.8849516
vt 0.9564437 0.8849516
vt 0.9564437 0.8849516
vt 0.9564435 0.8849519
vt 0.9564435 0.8849519
vt 0.9564437 0.8849522
vt 0.9564437 0.8849522
vt 0.956444 0.8849523
vt 0.956444 0.8849523
vt 0.9564443 0.8849522
vt 0.9564443 0.8849522
vt 0.9564444 0.8849519
vt 0.9564444 0.8849519
vt 0.9564443 0.8849516
vt 0.956444 0.8849515
vt 0.9564437 0.8849516
vt 0.9564435 0.8849519
vt 0.9564437 0.8849522
vt 0.956444 0.8849523
vt 0.9564443 0.8849522
vt 0.9564444 0.8849519
vt 0.7022439 0.5771251
vt 0.7022439 0.577125
vt 0.7022438 0.577125
vt 0.7022438 0.5771251
vt 0.7022439 0.5771251
vt 0.7022439 0.577125
vt 0.7022438 0.577125
vt 0.7022438 0.5771251
vt 0.7022438 0.5771251
vt 0.7022439 0.5771251
vt 0.7022439 0.5771251
vt 0.7022438 0.5771251
vt 0.7022439 0.5771251
vt 0.7022438 0.5771251
vt 0.7022439 0.5771253
vt 0.7022439 0.5771253
vt 0.7022439 0.5771253
vt 0.7022439 0.5771253
vt 0.7022439 0.5771253
vt 0.7022439 0.5771253
vt 0.7022438 0.5771253
vt 0.7022438 0.5771253
vt 0.7022438 0.5771253
vt 0.7022438 0.5771253
vt 0.7022437 0.5771253
vt 0.7022437 0.5771253
vt 0.7022438 0.5771251
vt 0.7022438 0.5771253
vt 0.7022439 0.5771253
vt 0.7022438 0.5771253
vt 0.7022439 0.5771253
vt 0.7022438 0.5771252
vt 0.7022438 0.5771252
vt 0.7022438 0.5771252
vt 0.7022439 0.5771252
vt 0.7022439 0.5771252
vt 0.7022439 0.5771252
vt 0.7022439 0.5771251
vt 0.7022438 0.5771251
vt 0.7022438 0.5771251
vn 0 1 0
vn 0 1 0
vn 0 1 0
vn 0 1 0
vn 0 0 -1
vn 0 0 -1
vn 0.2296971 0 -0.9732622
vn 0.2296971 0 -0.9732622
vn 0 -1 0
vn 0 -1 0
vn 0 -1 0
vn 0 -1 0
vn 0 0 1
vn 0 0 1
vn 0 0 1
vn 0 0 1
vn -0.8482775 0 0.5295519
vn 0.9932568 0 0.1159345
vn 0.9932568 0 0.1159344
vn -0.8482775 0 0.5295519
vn -0.8059952 0 0.591922
vn -0.8059952 0 0.591922
vn -0.4887423 0 0.8724282
vn -0.4887423 0 0.8724282
vn -0.3839576 1.007648E-07 0.9233507
vn -0.3839577 1.007648E-07 0.9233507
vn 0.9419606 0 -0.3357235
vn 0.9419606 0 -0.3357234
vn 0.6866409 0 -0.7269967
vn 0.6866409 0 -0.7269967
vn 0.2296971 0 -0.9732622
vn 0.2296971 0 -0.9732622
vn -1 0 0
vn -1 0 0
vn -1 0 0
vn -1 0 0
vn 0 -1 0
vn 0 -1 0
vn 0 -1 0
vn 0 -1 0
vn 1.828679E-07 -1 -3.22165E-07
vn 1.828679E-07 -1 -3.22165E-07
vn 0 -1 0
vn 0 -1 0
vn 0 1 2.108445E-07
vn 0 1 2.108444E-07
vn 0 1 2.108444E-07
vn 0 1 2.108444E-07
vn -2.046865E-07 1 1.28866E-07
vn -2.046865E-07 1 1.28866E-07
vn -4.54113E-07 1 0
vn -4.541131E-07 1 0
vn 0 -0.9755696 0.2196905
vn 0 -0.994816 0.1016915
vn 0 -0.994816 0.1016915
vn 0 -0.9755696 0.2196905
vn 0 -0.9581897 0.2861338
vn 0 -0.9581897 0.2861338
vn 0 -0.9976507 0.06850668
vn 0 -0.9976507 0.06850668
vn 0.9607112 0 0.2775498
vn 0.9922072 0 0.1245984
vn 0.9922072 0 0.1245984
vn 0.9607112 0 0.2775498
vn 0.9310707 0 0.3648388
vn 0.9310707 0 0.3648389
vn 0.9967518 0 0.08053595
vn 0.9967518 0 0.08053594
vn 0 0.9755696 0.2196905
vn 0 0.994816 0.1016915
vn 0 0.994816 0.1016915
vn 0 0.9755696 0.2196905
vn 0 0.9581897 0.2861336
vn 0 0.9581897 0.2861336
vn 0 0.9976507 0.06850627
vn 0 0.9976507 0.06850627
vn -0.9607112 0 0.2775498
vn -0.9922072 0 0.1245983
vn -0.9922072 0 0.1245983
vn -0.9607112 0 0.2775499
vn -0.9310707 0 0.3648388
vn -0.9310707 0 0.3648389
vn -0.9967518 0 0.08053594
vn -0.9967518 0 0.08053595
vn 0 -0.7071068 -0.7071068
vn 0 -0.7071068 -0.7071068
vn 0 -1 0
vn 0 -1 0
vn 0 -0.7071066 0.7071069
vn 0 -0.7071066 0.7071069
vn 0 0 1
vn 0 0 1
vn 0 0.7071069 0.7071066
vn 0 0.7071069 0.7071066
vn 0 1 0
vn 0 1 0
vn 0 0.7071068 -0.7071068
vn 0 0.7071068 -0.7071068
vn 0 0 -1
vn 0 0 -1
vn 0 -0.7071068 -0.7071068
vn 0 -0.7071068 -0.7071068
vn -1 0 0
vn -1 0 0
vn -1 -3.200686E-07 0
vn -1 0 0
vn -1 0 0
vn -1 0 0
vn -1 0 0
vn -1 -2.396914E-07 0
vn -1 0 0
vn 0.6432992 -0.7656149 2.364026E-07
vn 0.5063833 -0.8623085 -1.224688E-07
vn 0.5063829 -0.6097444 -0.6097444
vn 0.6432986 -0.5413719 -0.5413716
vn 0.6432995 -0.5413712 0.5413712
vn 0.5063838 -0.609744 0.609744
vn 0.6432995 -3.198388E-07 0.7656147
vn 0.5063838 -3.029492E-07 0.8623083
vn 0.6432993 0.5413715 0.5413713
vn 0.5063835 0.609744 0.6097441
vn 0.6432993 0.7656147 0
vn 0.5063834 0.8623084 0
vn 0.6432989 0.5413716 -0.5413716
vn 0.5063832 0.6097443 -0.6097441
vn 0.6432984 -1.112483E-07 -0.7656155
vn 0.5063829 0 -0.8623087
vn 0.2486881 -0.6848921 -0.684892
vn 0.2486883 -0.9685836 0
vn 0.2486886 -0.6848918 0.6848921
vn 0.248689 -3.25322E-07 0.9685833
vn 0.2486886 0.684892 0.6848919
vn 0.2486881 0.9685836 0
vn 0.2486887 0.6848919 -0.6848919
vn 0.2486888 -1.478736E-07 -0.9685835
vn -0.2069187 -0.3980533 0.8937215
vn -0.2069193 0.3980535 0.8937213
vn 0.2069185 0.3980539 0.8937215
vn 0.2069186 -0.3980532 0.8937215
vn -0.9300128 -0.3670138 0.01942248
vn -0.9300128 0.3670133 0.01942244
vn 0.9300128 0.3670134 0.01942276
vn 0.9300128 -0.3670135 0.01942275
vn 0.2247575 -0.9738457 0.03329618
vn -0.2247575 -0.9738457 0.03329621
vn -0.2404648 -0.9702476 -0.02821964
vn 0.2404648 -0.9702476 -0.02821964
vn -0.2801362 -0.9592102 -0.03794176
vn 0.2801363 -0.9592101 -0.03794176
vn -0.8848844 -0.4632735 -0.04855323
vn -0.9187502 -0.3931245 -0.03675937
vn -0.8848844 0.4632735 -0.04855324
vn -0.9187503 0.3931244 -0.03675941
vn -0.2801362 0.9592101 -0.03794179
vn -0.2404647 0.9702476 -0.02821971
vn 0.2801362 0.9592102 -0.03794178
vn 0.2404647 0.9702476 -0.0282197
vn 0.8848844 0.4632733 -0.04855322
vn 0.9187502 0.3931245 -0.03675938
vn 0.8848844 -0.4632733 -0.04855323
vn 0.9187502 -0.3931245 -0.03675937
vn 0.8848844 -0.4632733 -0.04855323
vn 0.2247576 0.9738457 0.03329619
vn -0.2247575 0.9738457 0.03329627
vn 0.2069185 0.3980539 0.8937215
vn -0.2069193 0.3980535 0.8937213
vn 0.8714324 -0.4895985 -0.0299801
vn 0.8714328 0.4895978 -0.02998008
vn 0.2941872 0.9554603 -0.02343954
vn -0.2941872 0.9554603 -0.02343955
vn -0.8714327 0.489598 -0.02998011
vn -0.8714324 -0.4895985 -0.02998013
vn -0.2941873 -0.9554603 -0.02343958
vn 0.2941873 -0.9554603 -0.02343957
vn 0.8714324 -0.4895985 -0.0299801
g meger3d_Char_workshop_C2_3_0
f 3/3/3 2/2/2 1/1/1
f 4/4/4 3/3/3 1/1/1
f 7/7/7 6/6/6 5/5/5
f 8/8/8 7/7/7 5/5/5
f 11/11/11 10/10/10 9/9/9
f 12/12/12 11/11/11 9/9/9
f 15/15/15 14/14/14 13/13/13
f 16/16/16 15/15/15 13/13/13
f 19/19/19 18/18/18 17/17/17
f 20/20/20 19/19/19 17/17/17
f 20/20/20 17/17/17 21/21/21
f 22/22/22 20/20/20 21/21/21
f 22/22/22 21/21/21 23/23/23
f 24/24/24 22/22/22 23/23/23
f 24/24/24 23/23/23 25/25/25
f 26/26/26 24/24/24 25/25/25
f 18/18/18 19/19/19 27/27/27
f 28/28/28 18/18/18 27/27/27
f 28/28/28 27/27/27 29/29/29
f 30/30/30 28/28/28 29/29/29
f 30/30/30 29/29/29 31/31/31
f 32/32/32 30/30/30 31/31/31
f 35/35/35 34/34/34 33/33/33
f 36/36/36 35/35/35 33/33/33
f 39/39/39 38/38/38 37/37/37
f 40/40/40 39/39/39 37/37/37
f 39/39/39 41/41/41 38/38/38
f 41/41/41 42/42/42 38/38/38
f 41/41/41 43/43/43 42/42/42
f 43/43/43 44/44/44 42/42/42
f 47/47/47 46/46/46 45/45/45
f 48/48/48 47/47/47 45/45/45
f 47/47/47 49/49/49 46/46/46
f 49/49/49 50/50/50 46/46/46
f 49/49/49 51/51/51 50/50/50
f 51/51/51 52/52/52 50/50/50
f 55/55/55 54/54/54 53/53/53
f 56/56/56 55/55/55 53/53/53
f 56/56/56 53/53/53 57/57/57
f 58/58/58 56/56/56 57/57/57
f 55/55/55 59/59/59 54/54/54
f 59/59/59 60/60/60 54/54/54
f 63/63/63 62/62/62 61/61/61
f 64/64/64 63/63/63 61/61/61
f 64/64/64 61/61/61 65/65/65
f 66/66/66 64/64/64 65/65/65
f 63/63/63 67/67/67 62/62/62
f 67/67/67 68/68/68 62/62/62
f 71/71/71 70/70/70 69/69/69
f 72/72/72 71/71/71 69/69/69
f 72/72/72 69/69/69 73/73/73
f 74/74/74 72/72/72 73/73/73
f 71/71/71 75/75/75 70/70/70
f 75/75/75 76/76/76 70/70/70
f 79/79/79 78/78/78 77/77/77
f 80/80/80 79/79/79 77/77/77
f 80/80/80 77/77/77 81/81/81
f 82/82/82 80/80/80 81/81/81
f 79/79/79 83/83/83 78/78/78
f 83/83/83 84/84/84 78/78/78
f 87/87/87 86/86/86 85/85/85
f 88/88/88 87/87/87 85/85/85
f 89/89/89 87/87/87 88/88/88
f 90/90/90 89/89/89 88/88/88
f 91/91/91 89/89/89 90/90/90
f 92/92/92 91/91/91 90/90/90
f 93/93/93 91/91/91 92/92/92
f 94/94/94 93/93/93 92/92/92
f 95/95/95 93/93/93 94/94/94
f 96/96/96 95/95/95 94/94/94
f 97/97/97 95/95/95 96/96/96
f 98/98/98 97/97/97 96/96/96
f 99/99/99 97/97/97 98/98/98
f 100/100/100 99/99/99 98/98/98
f 101/101/101 99/99/99 100/100/100
f 102/102/102 101/101/101 100/100/100
f 105/105/105 104/104/104 103/103/103
f 106/106/106 104/104/104 105/105/105
f 107/107/107 104/104/104 106/106/106
f 108/108/108 104/104/104 107/107/107
f 109/109/109 104/104/104 108/108/108
f 110/110/110 104/104/104 109/109/109
f 111/111/111 104/104/104 110/110/110
f 103/103/103 104/104/104 111/111/111
f 114/114/114 113/113/113 112/112/112
f 115/115/115 114/114/114 112/112/112
f 112/112/112 113/113/113 116/116/116
f 113/113/113 117/117/117 116/116/116
f 116/116/116 117/117/117 118/118/118
f 117/117/117 119/119/119 118/118/118
f 118/118/118 119/119/119 120/120/120
f 119/119/119 121/121/121 120/120/120
f 120/120/120 121/121/121 122/122/122
f 121/121/121 123/123/123 122/122/122
f 122/122/122 123/123/123 124/124/124
f 123/123/123 125/125/125 124/124/124
f 124/124/124 125/125/125 126/126/126
f 125/125/125 127/127/127 126/126/126
f 127/127/127 114/114/114 115/115/115
f 126/126/126 127/127/127 115/115/115
f 114/114/114 128/128/128 113/113/113
f 128/128/128 129/129/129 113/113/113
f 129/129/129 130/130/130 117/117/117
f 117/117/117 130/130/130 119/119/119
f 113/113/113 129/129/129 117/117/117
f 130/130/130 131/131/131 119/119/119
f 119/119/119 131/131/131 121/121/121
f 131/131/131 132/132/132 121/121/121
f 121/121/121 132/132/132 123/123/123
f 132/132/132 133/133/133 123/123/123
f 123/123/123 133/133/133 125/125/125
f 133/133/133 134/134/134 125/125/125
f 125/125/125 134/134/134 127/127/127
f 134/134/134 135/135/135 127/127/127
f 135/135/135 128/128/128 114/114/114
f 127/127/127 135/135/135 114/114/114
f 138/138/138 137/137/137 136/136/136
f 139/139/139 138/138/138 136/136/136
f 140/140/140 136/136/136 137/137/137
f 141/141/141 140/140/140 137/137/137
f 138/138/138 139/139/139 142/142/142
f 139/139/139 143/143/143 142/142/142
f 144/144/144 139/139/139 136/136/136
f 139/139/139 144/144/144 143/143/143
f 145/145/145 144/144/144 136/136/136
f 140/140/140 145/145/145 136/136/136
f 144/144/144 145/145/145 146/146/146
f 147/147/147 144/144/144 146/146/146
f 143/143/143 144/144/144 147/147/147
f 147/147/147 146/146/146 148/148/148
f 149/149/149 147/147/147 148/148/148
f 148/148/148 146/146/146 150/150/150
f 146/146/146 151/151/151 150/150/150
f 145/145/145 140/140/140 151/151/151
f 146/146/146 145/145/145 151/151/151
f 150/150/150 151/151/151 152/152/152
f 151/151/151 153/153/153 152/152/152
f 140/140/140 141/141/141 153/153/153
f 151/151/151 140/140/140 153/153/153
f 154/154/154 152/152/152 153/153/153
f 155/155/155 154/154/154 153/153/153
f 155/155/155 153/153/153 141/141/141
f 156/156/156 154/154/154 155/155/155
f 157/157/157 156/156/156 155/155/155
f 158/158/158 156/156/156 157/157/157
f 159/159/159 158/158/158 157/157/157
f 160/160/160 158/158/158 159/159/159
f 161/161/161 160/160/160 159/159/159
f 161/161/161 147/147/147 149/149/149
f 162/162/162 161/161/161 149/149/149
f 157/157/157 155/155/155 163/163/163
f 159/159/159 157/157/157 163/163/163
f 155/155/155 164/164/164 163/163/163
f 165/165/165 163/163/163 164/164/164
f 166/166/166 165/165/165 164/164/164
f 166/166/166 164/164/164 141/141/141
f 164/164/164 155/155/155 141/141/141
f 142/142/142 163/163/163 165/165/165
f 142/142/142 159/159/159 163/163/163
f 159/159/159 142/142/142 143/143/143
f 161/161/161 159/159/159 143/143/143
f 161/161/161 143/143/143 147/147/147
f 160/160/160 167/167/167 158/158/158
f 167/167/167 168/168/168 158/158/158
f 158/158/158 168/168/168 156/156/156
f 168/168/168 169/169/169 156/156/156
f 156/156/156 169/169/169 154/154/154
f 169/169/169 170/170/170 154/154/154
f 154/154/154 170/170/170 152/152/152
f 170/170/170 171/171/171 152/152/152
f 150/150/150 152/152/152 171/171/171
f 172/172/172 150/150/150 171/171/171
f 148/148/148 150/150/150 172/172/172
f 173/173/173 148/148/148 172/172/172
f 148/148/148 173/173/173 174/174/174
f 149/149/149 148/148/148 174/174/174
f 162/162/162 149/149/149 174/174/174
f 175/175/175 162/162/162 174/174/174
