g meger3d_Char2_sundries_C6_5
v -0.02250082 0.4997705 -0.0130993
v -0.0936512 0.1355568 -0.1399016
v 0.1350094 0.1589917 -0.06289916
v -0.02250082 0.4997705 -0.0130993
v 0.2214077 0.1773441 0.05842502
v 0.08740502 0.1711338 0.1268968
v -0.02250082 0.4997705 -0.0130993
v -0.148727 0.1383658 0.04745943
v -0.2434962 0.1351304 -0.06503907
v -0.02250082 0.4997705 -0.0130993
v 0.1350094 0.1589917 -0.06289916
v 0.2214077 0.1773441 0.05842502
v 0.002410534 -0.4984376 0.02550856
v -0.07339881 -0.2019372 -0.1244727
v -0.2212047 -0.2028906 -0.06451249
v -0.02250082 0.4997705 -0.0130993
v 0.08740502 0.1711338 0.1268968
v -0.148727 0.1383658 0.04745943
v 0.1626799 -0.1792598 -0.07540201
v -0.07339881 -0.2019372 -0.1244727
v 0.002410534 -0.4984376 0.02550856
v 0.1138302 -0.1671043 0.1165081
v 0.2425523 -0.1605637 0.06319164
v 0.002410534 -0.4984376 0.02550856
v -0.2212047 -0.2028906 -0.06451249
v -0.129333 -0.1991705 0.06318184
v 0.002410534 -0.4984376 0.02550856
v 0.2425523 -0.1605637 0.06319164
v 0.1626799 -0.1792598 -0.07540201
v 0.002410534 -0.4984376 0.02550856
v -0.2434962 0.1351304 -0.06503907
v -0.0936512 0.1355568 -0.1399016
v -0.02250082 0.4997705 -0.0130993
v -0.129333 -0.1991705 0.06318184
v 0.1138302 -0.1671043 0.1165081
v 0.002410534 -0.4984376 0.02550856
v -0.148727 0.1383658 0.04745943
v -0.129333 -0.1991705 0.06318184
v -0.2212047 -0.2028906 -0.06451249
v -0.2434962 0.1351304 -0.06503907
v -0.2434962 0.1351304 -0.06503907
v -0.2212047 -0.2028906 -0.06451249
v -0.07339881 -0.2019372 -0.1244727
v -0.0936512 0.1355568 -0.1399016
v -0.0936512 0.1355568 -0.1399016
v -0.07339881 -0.2019372 -0.1244727
v 0.1626799 -0.1792598 -0.07540201
v 0.1350094 0.1589917 -0.06289916
v 0.1350094 0.1589917 -0.06289916
v 0.1626799 -0.1792598 -0.07540201
v 0.2425523 -0.1605637 0.06319164
v 0.2214077 0.1773441 0.05842502
v 0.2214077 0.1773441 0.05842502
v 0.2425523 -0.1605637 0.06319164
v 0.1138302 -0.1671043 0.1165081
v 0.08740502 0.1711338 0.1268968
v 0.08740502 0.1711338 0.1268968
v 0.1138302 -0.1671043 0.1165081
v -0.129333 -0.1991705 0.06318184
v -0.148727 0.1383658 0.04745943
vt 0.3116066 0.6992994
vt 0.3116066 0.9456438
vt 0.3116066 0.8811316
vt 0.3116066 0.6869015
vt 0.3116066 0.8702508
vt 0.3116066 0.9484767
vt 0.3116066 0.6966426
vt 0.3116066 0.8742083
vt 0.3116066 0.9468493
vt 0.3116066 0.6869015
vt 0.3116066 0.9498349
vt 0.3116066 0.8702508
vt 0.3116066 0.7048665
vt 0.3116066 0.9435564
vt 0.3116066 0.8673273
vt 0.3116066 0.6992994
vt 0.3116066 0.8797736
vt 0.3116066 0.9488428
vt 0.3116066 0.940415
vt 0.3116066 0.8748531
vt 0.3116066 0.7172639
vt 0.3116066 0.8669516
vt 0.3116066 0.9453529
vt 0.3116066 0.7146072
vt 0.3116066 0.8673273
vt 0.3116066 0.9401634
vt 0.3116066 0.7048665
vt 0.3116066 0.9453529
vt 0.3116066 0.8657804
vt 0.3116066 0.7146072
vt 0.3116066 0.9468493
vt 0.3116066 0.8710092
vt 0.3116066 0.6966426
vt 0.3116066 0.8714602
vt 0.3116066 0.9415861
vt 0.3116066 0.7172639
vt 0.3116066 0.9329985
vt 0.3116066 0.8247237
vt 0.3116066 0.7623772
vt 0.3116066 0.8981344
vt 0.3116066 0.8382724
vt 0.3116066 0.9404947
vt 0.3116066 0.9037916
vt 0.3116066 0.772438
vt 0.3116066 0.8978573
vt 0.3116066 0.7693276
vt 0.3116066 0.8445576
vt 0.3116066 0.9396741
vt 0.3116066 0.8317985
vt 0.3116066 0.9367425
vt 0.3116066 0.8981624
vt 0.3116066 0.7623772
vt 0.3116066 0.9404947
vt 0.3116066 0.8382223
vt 0.3116066 0.7702779
vt 0.3116066 0.9024385
vt 0.3116066 0.7626666
vt 0.3116066 0.8939989
vt 0.3116066 0.9384322
vt 0.3116066 0.8419829
vn 0.2831334 0.2655427 -0.921587
vn 0.2831335 0.2655428 -0.921587
vn 0.2831335 0.2655428 -0.921587
vn 0.3849028 0.4676801 0.7956917
vn 0.3849028 0.46768 0.7956917
vn 0.3849028 0.4676801 0.7956917
vn -0.7208614 0.3518314 0.5971377
vn -0.7208614 0.3518314 0.5971377
vn -0.7208614 0.3518314 0.5971378
vn 0.711589 0.412063 -0.569074
vn 0.711589 0.412063 -0.569074
vn 0.7115889 0.412063 -0.569074
vn -0.3246058 -0.4917094 -0.8079932
vn -0.3246058 -0.4917093 -0.8079932
vn -0.3246058 -0.4917093 -0.8079932
vn -0.3404539 0.2698363 0.9007106
vn -0.3404539 0.2698362 0.9007105
vn -0.3404539 0.2698363 0.9007106
vn 0.2231733 -0.3939563 -0.8916233
vn 0.2231733 -0.3939563 -0.8916233
vn 0.2231733 -0.3939563 -0.8916233
vn 0.3725504 -0.3601757 0.8552659
vn 0.3725504 -0.3601757 0.8552659
vn 0.3725504 -0.3601756 0.8552659
vn -0.7404318 -0.394461 0.544207
vn -0.7404318 -0.394461 0.544207
vn -0.7404318 -0.394461 0.544207
vn 0.7741241 -0.5080912 -0.3775917
vn 0.7741241 -0.5080912 -0.3775917
vn 0.7741241 -0.5080912 -0.3775917
vn -0.4159797 0.3704103 -0.8305162
vn -0.4159797 0.3704103 -0.8305162
vn -0.4159797 0.3704103 -0.8305162
vn -0.1842714 -0.2022029 0.9618514
vn -0.1842714 -0.2022029 0.9618514
vn -0.1842714 -0.2022029 0.9618514
vn -0.7887024 -0.03390263 0.6138396
vn -0.7887024 -0.03390263 0.6138396
vn -0.7887024 -0.03390263 0.6138396
vn -0.7887024 -0.03390263 0.6138396
vn -0.4119557 -0.0474381 -0.9099683
vn -0.4119557 -0.0474381 -0.9099682
vn -0.4119557 -0.0474381 -0.9099683
vn -0.4119557 -0.0474381 -0.9099683
vn 0.2604666 0.0142918 -0.9653772
vn 0.2604666 0.0142918 -0.9653772
vn 0.2604666 0.0142918 -0.965377
vn 0.2604666 0.0142918 -0.9653772
vn 0.8361781 0.06659634 -0.5443997
vn 0.8361781 0.06659634 -0.5443999
vn 0.836178 0.06659634 -0.5443999
vn 0.836178 0.06659634 -0.5443999
vn 0.4195886 0.02197444 0.9074484
vn 0.4195886 0.02197444 0.9074484
vn 0.4195886 0.02197444 0.9074484
vn 0.4195886 0.02197444 0.9074484
vn -0.2656243 -0.01040128 0.9640204
vn -0.2656243 -0.01040128 0.9640204
vn -0.2656243 -0.01040128 0.9640204
vn -0.2656243 -0.01040128 0.9640204
g meger3d_Char2_sundries_C6_5_0
f 3/3/3 2/2/2 1/1/1
f 6/6/6 5/5/5 4/4/4
f 9/9/9 8/8/8 7/7/7
f 12/12/12 11/11/11 10/10/10
f 15/15/15 14/14/14 13/13/13
f 18/18/18 17/17/17 16/16/16
f 21/21/21 20/20/20 19/19/19
f 24/24/24 23/23/23 22/22/22
f 27/27/27 26/26/26 25/25/25
f 30/30/30 29/29/29 28/28/28
f 33/33/33 32/32/32 31/31/31
f 36/36/36 35/35/35 34/34/34
f 39/39/39 38/38/38 37/37/37
f 40/40/40 39/39/39 37/37/37
f 43/43/43 42/42/42 41/41/41
f 44/44/44 43/43/43 41/41/41
f 47/47/47 46/46/46 45/45/45
f 48/48/48 47/47/47 45/45/45
f 51/51/51 50/50/50 49/49/49
f 52/52/52 51/51/51 49/49/49
f 55/55/55 54/54/54 53/53/53
f 56/56/56 55/55/55 53/53/53
f 59/59/59 58/58/58 57/57/57
f 60/60/60 59/59/59 57/57/57
