g meger3d_Char_sundries_C5_4
v 0.4173596 0.146263 -0.07359154
v 0.4848652 -2.288818E-07 -0.085495
v 0.4848632 -2.288818E-07 0.08549453
v 0.4173596 0.146263 0.07359283
v 0.4263821 -2.288818E-07 0.2461734
v 0.3670202 0.1462625 0.2119011
v 0.3164735 -2.288818E-07 0.3771574
v 0.2724128 0.1462625 0.3246502
v 0.1683892 -2.288818E-07 0.4626523
v 0.1449443 0.1462625 0.3982429
v 0 -2.288818E-07 0.4923441
v 0 0.1462625 0.4238003
v 0.3670197 0.146263 -0.2118994
v 0.4263821 -2.288818E-07 -0.2461726
v 0.2724124 0.1462625 -0.3246493
v 0.3164722 -1.525879E-07 -0.3771571
v 0.1449473 0.1462625 -0.3982411
v 0.1683909 -1.525879E-07 -0.462651
v -3.433227E-06 0.1462625 -0.4237994
v -1.678467E-06 -1.525879E-07 -0.4923441
v -0.1449481 0.1462625 -0.3982411
v -0.1683913 -1.525879E-07 -0.4626527
v -0.2724158 0.1462625 -0.3246493
v -0.3164731 -1.525879E-07 -0.3771571
v -0.3670231 0.146263 -0.2118994
v -0.4263825 -2.288818E-07 -0.2461713
v -0.4173618 0.146263 -0.07359154
v -0.4848653 1.068115E-06 -0.0854937
v -0.4173626 0.1462625 0.07359199
v -0.484864 -2.288818E-07 0.08549453
v -0.3670219 0.146263 0.2119002
v -0.4263838 1.068115E-06 0.2461716
v -0.2724141 0.146263 0.3246503
v -0.3164718 -2.288818E-07 0.3771574
v -0.1449506 0.1462625 0.3982429
v -0.1683913 -2.288818E-07 0.4626523
v 0 0.1462625 0.4238003
v 0 -2.288818E-07 0.4923441
v -1.678467E-06 -0.1462629 0.4580381
v -0.1566537 -0.146263 0.4304133
v -0.2944219 -0.1462625 0.3508771
v -0.3966724 -0.1462625 0.2290187
v -0.4510749 -0.1462629 0.07953644
v -0.4510786 -0.1462626 -0.07953773
v -0.3966724 -0.1462626 -0.2290179
v -0.2944168 -0.146263 -0.3508775
v -0.1566585 -0.146263 -0.4304137
v 0 -0.146263 -0.4580373
v 0.1566567 -0.146263 -0.4304137
v 0.2944202 -0.146263 -0.3508775
v 0.3966724 -0.1462629 -0.2290179
v 0.4510791 -0.1462626 -0.07953773
v 0.4510795 -0.1462629 0.07953819
v 0.3966707 -0.146263 0.2290188
v 0.2944193 -0.1462629 0.3508774
v 0.1566576 -0.146263 0.4304142
v -1.678467E-06 -0.1462629 0.4580381
v 0.4173596 0.146263 0.07359283
v -1.678467E-06 0.1462625 6.103515E-07
v 0.4173596 0.146263 -0.07359154
v 0.3670202 0.1462625 0.2119011
v 0.2724128 0.1462625 0.3246502
v 0.1449443 0.1462625 0.3982429
v 0 0.1462625 0.4238003
v -0.1449506 0.1462625 0.3982429
v -0.2724141 0.146263 0.3246503
v -0.3670219 0.146263 0.2119002
v -0.4173626 0.1462625 0.07359199
v -0.4173618 0.146263 -0.07359154
v -0.3670231 0.146263 -0.2118994
v -0.2724158 0.1462625 -0.3246493
v -0.1449481 0.1462625 -0.3982411
v -3.433227E-06 0.1462625 -0.4237994
v 0.1449473 0.1462625 -0.3982411
v 0.2724124 0.1462625 -0.3246493
v 0.3670197 0.146263 -0.2118994
v 0.4510791 -0.1462626 -0.07953773
v 8.392334E-07 -0.1462625 6.103515E-07
v 0.4510795 -0.1462629 0.07953819
v 0.3966707 -0.146263 0.2290188
v 0.2944193 -0.1462629 0.3508774
v 0.1566576 -0.146263 0.4304142
v -1.678467E-06 -0.1462629 0.4580381
v -0.1566537 -0.146263 0.4304133
v -0.2944219 -0.1462625 0.3508771
v -0.3966724 -0.1462625 0.2290187
v -0.4510749 -0.1462629 0.07953644
v -0.4510786 -0.1462626 -0.07953773
v -0.3966724 -0.1462626 -0.2290179
v -0.2944168 -0.146263 -0.3508775
v -0.1566585 -0.146263 -0.4304137
v 0 -0.146263 -0.4580373
v 0.1566567 -0.146263 -0.4304137
v 0.2944202 -0.146263 -0.3508775
v 0.3966724 -0.1462629 -0.2290179
vt 0.733851 0.81859
vt 0.733851 0.811899
vt 0.725449 0.811899
vt 0.725449 0.81859
vt 0.717052 0.811899
vt 0.717052 0.81859
vt 0.708661 0.811899
vt 0.708661 0.81859
vt 0.700285 0.811899
vt 0.700285 0.81859
vt 0.691874 0.811899
vt 0.691874 0.81859
vt 0.742183 0.81859
vt 0.742183 0.811899
vt 0.750524 0.81859
vt 0.750524 0.811899
vt 0.75894 0.81859
vt 0.75894 0.811899
vt 0.767359 0.81859
vt 0.767359 0.811899
vt 0.775783 0.81859
vt 0.775783 0.811899
vt 0.784206 0.81859
vt 0.784206 0.811899
vt 0.792632 0.81859
vt 0.792632 0.811899
vt 0.801057 0.81859
vt 0.801057 0.811899
vt 0.809481 0.81859
vt 0.809481 0.811899
vt 0.8179 0.81859
vt 0.8179 0.811899
vt 0.826297 0.81859
vt 0.826297 0.811899
vt 0.83461 0.81859
vt 0.83461 0.811899
vt 0.842477 0.81859
vt 0.842477 0.811899
vt 0.842477 0.804889
vt 0.83461 0.804889
vt 0.826297 0.804889
vt 0.8179 0.804889
vt 0.809481 0.804889
vt 0.801057 0.804889
vt 0.792632 0.804889
vt 0.784206 0.804889
vt 0.775783 0.804889
vt 0.767359 0.804889
vt 0.75894 0.804889
vt 0.750524 0.804889
vt 0.742183 0.804889
vt 0.733851 0.804889
vt 0.725449 0.804889
vt 0.717052 0.804889
vt 0.708661 0.804889
vt 0.700285 0.804889
vt 0.691874 0.804889
vt 0.843949 0.841382
vt 0.82065 0.84549
vt 0.843949 0.849597
vt 0.841138 0.833661
vt 0.835856 0.827368
vt 0.828742 0.82326
vt 0.82065 0.821834
vt 0.81256 0.82326
vt 0.805444 0.827368
vt 0.800162 0.833661
vt 0.797353 0.841382
vt 0.797353 0.849597
vt 0.800162 0.857318
vt 0.805445 0.863613
vt 0.81256 0.867721
vt 0.82065 0.869148
vt 0.828742 0.867721
vt 0.835856 0.863613
vt 0.841138 0.857318
vt 0.820285 0.87252
vt 0.820285 0.893047
vt 0.827305 0.873758
vt 0.833478 0.877323
vt 0.838063 0.882784
vt 0.840499 0.889483
vt 0.840499 0.896613
vt 0.838063 0.903312
vt 0.833478 0.908773
vt 0.827305 0.912338
vt 0.820285 0.913576
vt 0.813264 0.912338
vt 0.807088 0.908773
vt 0.802506 0.903312
vt 0.800068 0.896613
vt 0.800068 0.889483
vt 0.802506 0.882784
vt 0.807088 0.877323
vt 0.813264 0.873758
vn 0.8917373 0.4243599 -0.157236
vn 0.9792553 0.1060417 -0.1726683
vn 0.9792549 0.1060398 0.172671
vn 0.8917391 0.4243553 0.1572389
vn 0.8611439 0.1060346 0.4971799
vn 0.7841849 0.4243537 0.4527449
vn 0.6391618 0.106034 0.7617276
vn 0.5820374 0.4243523 0.6936553
vn 0.3400916 0.1060337 0.9343953
vn 0.3096973 0.4243484 0.8508913
vn -1.180325E-07 0.1060322 0.9943627
vn 1.466579E-07 0.4243461 0.9055001
vn 0.7841809 0.4243577 -0.4527479
vn 0.8611413 0.1060395 -0.4971835
vn 0.5820413 0.4243523 -0.693652
vn 0.6391622 0.1060363 -0.761727
vn 0.3096967 0.42435 -0.8508907
vn 0.340091 0.1060368 -0.9343951
vn 1.347408E-06 0.4243523 -0.9054971
vn 2.494764E-06 0.1060349 -0.9943624
vn -0.3096998 0.4243514 -0.8508889
vn -0.3400931 0.1060328 -0.9343948
vn -0.5820447 0.424346 -0.6936529
vn -0.6391653 0.1060288 -0.7617254
vn -0.7841876 0.4243448 -0.4527488
vn -0.8611428 0.1060272 -0.4971834
vn -0.8917423 0.4243487 -0.1572377
vn -0.9792571 0.1060302 -0.172665
vn -0.8917421 0.4243492 0.1572381
vn -0.979257 0.1060245 0.1726691
vn -0.7841844 0.4243486 0.4527506
vn -0.8611453 0.1060319 0.497178
vn -0.5820464 0.4243432 0.6936532
vn -0.6391618 0.1060276 0.7617285
vn -0.3097005 0.424343 0.8508928
vn -0.3400932 0.1060284 0.9343953
vn 1.466579E-07 0.4243461 0.9055001
vn -1.180325E-07 0.1060322 0.9943627
vn -2.716373E-06 -0.2283586 0.9735771
vn -0.3329819 -0.2283622 0.9148628
vn -0.6257993 -0.2283593 0.7458065
vn -0.8431448 -0.2283629 0.4867826
vn -0.9587835 -0.2283714 0.1690583
vn -0.9587855 -0.2283657 -0.1690543
vn -0.8431395 -0.2283622 -0.4867921
vn -0.6258013 -0.2283649 -0.7458031
vn -0.3329856 -0.2283633 -0.9148611
vn 3.686475E-06 -0.228359 -0.973577
vn 0.332982 -0.2283549 -0.9148644
vn 0.6258005 -0.2283558 -0.7458065
vn 0.8431414 -0.2283578 -0.4867909
vn 0.9587867 -0.2283569 -0.1690595
vn 0.9587862 -0.228355 0.1690646
vn 0.8431419 -0.2283613 0.4867884
vn 0.6257995 -0.2283626 0.7458052
vn 0.3329843 -0.2283569 0.9148632
vn -2.716373E-06 -0.2283586 0.9735771
vn -1.337933E-06 1 1.391025E-06
vn 0 1 0
vn -1.063732E-06 1 0
vn -7.895309E-07 1 1.440702E-06
vn 0 1 0
vn 0 1 0
vn 0 1 0
vn 1.483829E-06 1 5.216324E-07
vn 1.903951E-06 1 0
vn 1.459038E-07 1 -1.887818E-06
vn 0 1 0
vn 7.895324E-07 1 1.689108E-06
vn 1.724969E-06 1 -7.948792E-07
vn 1.209627E-06 1 -9.93585E-07
vn 0 1 0
vn 0 1 0
vn 0 1 0
vn -1.209631E-06 1 -9.935883E-07
vn -1.724964E-06 1 -8.942329E-07
vn -1.640366E-07 -1 0
vn -2.197696E-07 -1 0
vn -6.087608E-07 -1 -1.360963E-06
vn -8.655081E-07 -1 -5.103632E-07
vn -5.353376E-07 -1 -6.804871E-07
vn -3.418178E-07 -1 -9.356636E-07
vn 0 -1 -8.577059E-07
vn -8.022787E-07 -1 -1.368064E-06
vn -1.119188E-06 -1 -8.931129E-07
vn 6.087568E-07 -1 1.063247E-06
vn 8.624725E-07 -1 0
vn 3.331746E-07 -1 -9.356587E-07
vn -4.645018E-07 -1 1.105766E-06
vn -2.902754E-07 -1 1.573616E-06
vn 3.418174E-07 -1 9.569387E-07
vn 0 -1 9.900067E-07
vn -3.418147E-07 -1 9.474789E-07
vn -4.558659E-07 -1 9.143932E-07
vn -1.124955E-07 -1 1.488553E-06
g meger3d_Char_sundries_C5_4_0
f 3/3/3 2/2/2 1/1/1
f 4/4/4 3/3/3 1/1/1
f 5/5/5 3/3/3 4/4/4
f 6/6/6 5/5/5 4/4/4
f 7/7/7 5/5/5 6/6/6
f 8/8/8 7/7/7 6/6/6
f 9/9/9 7/7/7 8/8/8
f 10/10/10 9/9/9 8/8/8
f 11/11/11 9/9/9 10/10/10
f 12/12/12 11/11/11 10/10/10
f 1/1/1 2/2/2 13/13/13
f 2/2/2 14/14/14 13/13/13
f 13/13/13 14/14/14 15/15/15
f 14/14/14 16/16/16 15/15/15
f 15/15/15 16/16/16 17/17/17
f 16/16/16 18/18/18 17/17/17
f 17/17/17 18/18/18 19/19/19
f 18/18/18 20/20/20 19/19/19
f 19/19/19 20/20/20 21/21/21
f 20/20/20 22/22/22 21/21/21
f 21/21/21 22/22/22 23/23/23
f 22/22/22 24/24/24 23/23/23
f 23/23/23 24/24/24 25/25/25
f 24/24/24 26/26/26 25/25/25
f 25/25/25 26/26/26 27/27/27
f 26/26/26 28/28/28 27/27/27
f 27/27/27 28/28/28 29/29/29
f 28/28/28 30/30/30 29/29/29
f 29/29/29 30/30/30 31/31/31
f 30/30/30 32/32/32 31/31/31
f 31/31/31 32/32/32 33/33/33
f 32/32/32 34/34/34 33/33/33
f 33/33/33 34/34/34 35/35/35
f 34/34/34 36/36/36 35/35/35
f 35/35/35 36/36/36 37/37/37
f 36/36/36 38/38/38 37/37/37
f 39/39/39 38/38/38 36/36/36
f 40/40/40 39/39/39 36/36/36
f 40/40/40 36/36/36 34/34/34
f 41/41/41 40/40/40 34/34/34
f 41/41/41 34/34/34 32/32/32
f 42/42/42 41/41/41 32/32/32
f 42/42/42 32/32/32 30/30/30
f 43/43/43 42/42/42 30/30/30
f 43/43/43 30/30/30 28/28/28
f 44/44/44 43/43/43 28/28/28
f 44/44/44 28/28/28 26/26/26
f 45/45/45 44/44/44 26/26/26
f 45/45/45 26/26/26 24/24/24
f 46/46/46 45/45/45 24/24/24
f 46/46/46 24/24/24 22/22/22
f 47/47/47 46/46/46 22/22/22
f 47/47/47 22/22/22 20/20/20
f 48/48/48 47/47/47 20/20/20
f 48/48/48 20/20/20 18/18/18
f 49/49/49 48/48/48 18/18/18
f 49/49/49 18/18/18 16/16/16
f 50/50/50 49/49/49 16/16/16
f 50/50/50 16/16/16 14/14/14
f 51/51/51 50/50/50 14/14/14
f 51/51/51 14/14/14 2/2/2
f 52/52/52 51/51/51 2/2/2
f 52/52/52 2/2/2 3/3/3
f 53/53/53 52/52/52 3/3/3
f 53/53/53 3/3/3 5/5/5
f 54/54/54 53/53/53 5/5/5
f 54/54/54 5/5/5 7/7/7
f 55/55/55 54/54/54 7/7/7
f 55/55/55 7/7/7 9/9/9
f 56/56/56 55/55/55 9/9/9
f 56/56/56 9/9/9 11/11/11
f 57/57/57 56/56/56 11/11/11
f 60/60/60 59/59/59 58/58/58
f 58/58/58 59/59/59 61/61/61
f 61/61/61 59/59/59 62/62/62
f 62/62/62 59/59/59 63/63/63
f 63/63/63 59/59/59 64/64/64
f 64/64/64 59/59/59 65/65/65
f 65/65/65 59/59/59 66/66/66
f 66/66/66 59/59/59 67/67/67
f 67/67/67 59/59/59 68/68/68
f 68/68/68 59/59/59 69/69/69
f 69/69/69 59/59/59 70/70/70
f 70/70/70 59/59/59 71/71/71
f 71/71/71 59/59/59 72/72/72
f 72/72/72 59/59/59 73/73/73
f 73/73/73 59/59/59 74/74/74
f 74/74/74 59/59/59 75/75/75
f 75/75/75 59/59/59 76/76/76
f 76/76/76 59/59/59 60/60/60
f 79/79/79 78/78/78 77/77/77
f 80/80/80 78/78/78 79/79/79
f 81/81/81 78/78/78 80/80/80
f 82/82/82 78/78/78 81/81/81
f 83/83/83 78/78/78 82/82/82
f 84/84/84 78/78/78 83/83/83
f 85/85/85 78/78/78 84/84/84
f 86/86/86 78/78/78 85/85/85
f 87/87/87 78/78/78 86/86/86
f 88/88/88 78/78/78 87/87/87
f 89/89/89 78/78/78 88/88/88
f 90/90/90 78/78/78 89/89/89
f 91/91/91 78/78/78 90/90/90
f 92/92/92 78/78/78 91/91/91
f 93/93/93 78/78/78 92/92/92
f 94/94/94 78/78/78 93/93/93
f 95/95/95 78/78/78 94/94/94
f 77/77/77 78/78/78 95/95/95
