g meger3d_Char_ice2_C1_1
v -0.3133451 -0.3339236 0.3133456
v 4.478703E-08 -0.2966111 3.310283E-07
v -0.3100463 -0.3281743 3.806672E-07
v 9.636861E-08 -0.3281742 0.3100466
v 0.3133453 -0.3339235 0.3133455
v 0.3100463 -0.3281742 2.870359E-07
v 0.3134651 -0.335101 -0.3145224
v -0.3133452 -0.3339237 -0.3133448
v 2.737238E-09 -0.3281742 -0.310046
v -0.3133452 0.3339236 0.3133455
v -0.3100463 0.3281742 3.219591E-07
v -4.478704E-08 0.2966111 2.779666E-07
v -0.3133453 0.3339235 -0.3133449
v -9.636862E-08 0.3281742 -0.310046
v 0.3133451 0.3339236 -0.313345
v -2.737252E-09 0.3281742 0.3100466
v 0.3134651 0.3351011 0.3145229
v 0.3100463 0.3281743 2.283277E-07
v 9.636861E-08 -0.3100463 0.3281746
v -0.3133451 -0.3133452 0.333924
v 4.478703E-08 2.653086E-08 0.2966114
v -0.3100463 -1.74616E-08 0.3281746
v -0.3133452 0.3133452 0.333924
v 2.737229E-09 0.3100464 0.3281745
v 0.3134651 0.3145227 0.3351013
v 0.3100463 7.616977E-08 0.3281745
v 0.3133453 -0.3133451 0.3339239
v 0.3339237 -0.3133451 0.3133455
v 0.2966111 4.478703E-08 2.597104E-07
v 0.3281743 -0.3100463 2.826771E-07
v 0.3330858 -0.3051158 -0.3051156
v 0.3281742 2.182032E-08 -0.310046
v 0.3339235 0.3133452 -0.313345
v 0.3281742 0.3100464 2.272119E-07
v 0.3281743 7.728552E-08 0.3100466
v 0.3330859 0.3051159 0.3051161
v 0.3134651 0.3351011 0.3145229
v 0.3134651 0.3145227 0.3351013
v 0.3100463 0.3281743 2.283277E-07
v 0.3100463 1.74616E-08 -0.328174
v 0.313465 -0.3145226 -0.3351007
v -2.737252E-09 0.3281742 0.3100466
v 2.737229E-09 0.3100464 0.3281745
v -0.3133452 0.3339236 0.3133455
v -0.3133452 0.3133452 0.333924
v -0.3339236 0.3133452 0.3133455
v -0.3281742 -2.182033E-08 0.3100466
v -0.3100463 -1.74616E-08 0.3281746
v 0.3133451 0.3339236 -0.313345
v -0.3100463 0.3281742 3.219591E-07
v -0.3281743 0.3100463 3.263178E-07
v -0.3133453 0.3339235 -0.3133449
v -0.3339237 0.3133451 -0.3133449
v -0.3133453 0.3133451 -0.3339233
v -9.636862E-08 0.3281742 -0.310046
v -9.636862E-08 0.3100463 -0.3281739
v 0.3133451 0.3133452 -0.3339234
v -0.3339235 -0.3133452 0.3133456
v -0.3133451 -0.3133452 0.333924
v -0.3100463 -7.616977E-08 -0.3281738
v -0.3281743 -7.728553E-08 -0.310046
v -0.3133452 -0.3133453 -0.3339233
v -0.3339236 -0.3133453 -0.3133448
v 0.313465 -0.3145226 -0.3351007
v -4.478703E-08 -2.653087E-08 -0.2966108
v -2.737242E-09 -0.3100463 -0.3281739
v 0.3100463 1.74616E-08 -0.328174
v 0.3133451 0.3133452 -0.3339234
v -9.636862E-08 0.3100463 -0.3281739
v -0.3133453 0.3133451 -0.3339233
v -0.3100463 -7.616977E-08 -0.3281738
v -0.3133452 -0.3133453 -0.3339233
v -0.3339236 -0.3133453 -0.3133448
v -0.2966111 -4.478703E-08 3.492845E-07
v -0.3281742 -0.3100463 3.81783E-07
v -0.3339235 -0.3133452 0.3133456
v -0.3281742 -2.182033E-08 0.3100466
v -0.3339236 0.3133452 0.3133455
v -0.3281743 0.3100463 3.263178E-07
v -0.3339237 0.3133451 -0.3133449
v -0.3281743 -7.728553E-08 -0.310046
v 0.3133453 -0.3339235 0.3133455
v 0.3133453 -0.3133451 0.3339239
v 0.3339237 -0.3133451 0.3133455
v 9.636861E-08 -0.3100463 0.3281746
v 9.636861E-08 -0.3281742 0.3100466
v -0.3133451 -0.3133452 0.333924
v -0.3133451 -0.3339236 0.3133456
v -0.3339235 -0.3133452 0.3133456
v -0.3281742 -0.3100463 3.81783E-07
v -0.3100463 -0.3281743 3.806672E-07
v -0.3339236 -0.3133453 -0.3133448
v -0.3133452 -0.3339237 -0.3133448
v -0.3133452 -0.3133453 -0.3339233
v -2.737242E-09 -0.3100463 -0.3281739
v 2.737238E-09 -0.3281742 -0.310046
v 0.313465 -0.3145226 -0.3351007
v 0.3134651 -0.335101 -0.3145224
v 0.3330858 -0.3051158 -0.3051156
v 0.3281743 -0.3100463 2.826771E-07
v 0.3100463 -0.3281742 2.870359E-07
v 0.3100463 7.616977E-08 0.3281745
v 0.3281743 7.728552E-08 0.3100466
v 0.3133453 -0.3133451 0.3339239
v 0.3339237 -0.3133451 0.3133455
vt 0.792183 0.4931333
vt 0.7745911 0.475546
vt 0.7745908 0.4930212
vt 0.7920492 0.4755422
vt 0.7921723 0.4579541
vt 0.7745827 0.4580776
vt 0.756953 0.4579714
vt 0.7570014 0.4931296
vt 0.7571392 0.4755414
vt 0.8335483 0.4148512
vt 0.8161935 0.4150041
vt 0.8163545 0.4322392
vt 0.7989161 0.415009
vt 0.7990897 0.4324418
vt 0.7992072 0.4497625
vt 0.8335263 0.4320751
vt 0.8337435 0.4493089
vt 0.81661 0.4494372
vt 0.8700591 0.4324665
vt 0.8704721 0.414727
vt 0.8524928 0.4321866
vt 0.8527279 0.4146299
vt 0.8349968 0.4142618
vt 0.835019 0.4320108
vt 0.8346961 0.4493435
vt 0.8521644 0.4496376
vt 0.8698546 0.4501589
vt 0.8347094 0.4861812
vt 0.8168706 0.4685138
vt 0.8169502 0.4860846
vt 0.7997031 0.4858275
vt 0.7993484 0.468581
vt 0.7991935 0.451001
vt 0.8167274 0.450935
vt 0.8344895 0.4684236
vt 0.834177 0.4510881
vt 0.8337435 0.4493089
vt 0.8346961 0.4493435
vt 0.81661 0.4494372
vt 0.7978795 0.4685792
vt 0.7976782 0.4863614
vt 0.8335263 0.4320751
vt 0.835019 0.4320108
vt 0.8335483 0.4148512
vt 0.8349968 0.4142618
vt 0.8335763 0.4136274
vt 0.8336012 0.3961521
vt 0.835061 0.3961762
vt 0.7992072 0.4497625
vt 0.8161935 0.4150041
vt 0.8161229 0.4135116
vt 0.7989161 0.415009
vt 0.7983426 0.4135601
vt 0.7976888 0.4149632
vt 0.7990897 0.4324418
vt 0.7975839 0.4325145
vt 0.7977629 0.4503821
vt 0.8339068 0.3785545
vt 0.83554 0.3785899
vt 0.7800361 0.4149154
vt 0.7800618 0.4134379
vt 0.7621954 0.4146268
vt 0.7622297 0.4129708
vt 0.7619597 0.4503523
vt 0.7799389 0.4325275
vt 0.7622254 0.4324665
vt 0.7799067 0.4502185
vt 0.7977629 0.4503821
vt 0.7975839 0.4325145
vt 0.7976888 0.4149632
vt 0.7800361 0.4149154
vt 0.7621954 0.4146268
vt 0.7986743 0.3782469
vt 0.816177 0.3960283
vt 0.8163095 0.3785636
vt 0.8339068 0.3785545
vt 0.8336012 0.3961521
vt 0.8335763 0.4136274
vt 0.8161229 0.4135116
vt 0.7983426 0.4135601
vt 0.7986721 0.3958844
vt 0.7921723 0.4579541
vt 0.7937284 0.4576894
vt 0.7924384 0.456398
vt 0.793512 0.4755411
vt 0.7920492 0.4755422
vt 0.7937396 0.4933971
vt 0.792183 0.4931333
vt 0.7924502 0.4946894
vt 0.7745913 0.4945011
vt 0.7745908 0.4930212
vt 0.7567343 0.4946856
vt 0.7570014 0.4931296
vt 0.7554451 0.4933933
vt 0.7556731 0.475541
vt 0.7571392 0.4755414
vt 0.7554604 0.4575972
vt 0.756953 0.4579714
vt 0.7571784 0.4559974
vt 0.7745798 0.4565938
vt 0.7745827 0.4580776
vt 0.8521644 0.4496376
vt 0.8521194 0.4511147
vt 0.8698546 0.4501589
vt 0.8698 0.451801
vn 0.05932919 -0.9964738 -0.05932897
vn -0.0004386451 -0.9999999 0.0004296621
vn 0.1012781 -0.9948581 0
vn 1.349269E-07 -0.9948583 -0.1012778
vn -0.05932891 -0.9964738 -0.05932896
vn -0.1012776 -0.9948566 0.001814325
vn -0.06099481 -0.9962644 0.06112868
vn 0.05932921 -0.9964738 0.05932913
vn -0.001698557 -0.9948567 0.1012779
vn 0.05932886 0.9964738 -0.05932911
vn 0.1012777 0.9948583 -1.05456E-07
vn -0.0004389454 0.9999999 -0.000429661
vn 0.05932888 0.9964738 0.05932892
vn -1.349269E-07 0.9948583 0.1012778
vn -0.05932916 0.9964738 0.05932894
vn -0.001698882 0.9948567 -0.1012778
vn -0.06099509 0.9962644 -0.06112863
vn -0.1012778 0.9948565 -0.001814293
vn 1.337501E-07 0.101278 0.9948581
vn 0.05932926 0.05932922 0.9964738
vn -0.0004386643 -0.0004294988 0.9999999
vn 0.1012781 1.042793E-07 0.9948581
vn 0.05932928 -0.05932901 0.9964738
vn -0.001698618 -0.1012777 0.9948567
vn -0.06099495 -0.06112861 0.9962644
vn -0.1012776 -0.001814208 0.9948566
vn -0.05932897 0.05932919 0.9964738
vn 0.8891897 -0.3235289 0.3235284
vn 0.9998931 -0.01034259 -0.01034289
vn 0.9425664 -0.3340185 0.0005357271
vn 0.950887 -0.214447 -0.2232183
vn 0.941305 -0.005613309 -0.3375107
vn 0.8891895 0.3235291 -0.3235291
vn 0.9389277 0.3439112 -0.01183
vn 0.9376948 -0.005727137 0.347413
vn 0.9456571 0.2255278 0.2342431
vn 0.5806086 0.6727632 0.4585666
vn 0.5843276 0.4542995 0.6724383
vn 0.7071052 0.7071069 -0.001435835
vn 0.7122592 -0.009435689 -0.7018532
vn 0.5843273 -0.4542982 -0.6724394
vn -0.002650643 0.7071054 0.7071031
vn -0.002650664 0.7071055 0.7071031
vn -0.45569 0.764653 0.4556889
vn -0.4556902 0.4556907 0.7646519
vn -0.764653 0.4556896 0.4556892
vn -0.707107 0 0.7071065
vn -0.7071071 0 0.7071064
vn 0.4556897 0.7646528 -0.4556895
vn -0.7071061 0.7071074 0
vn -0.7071061 0.7071074 0
vn -0.4556899 0.7646527 -0.4556896
vn -0.7646529 0.4556898 -0.4556893
vn -0.4556904 0.4556897 -0.7646524
vn -2.251006E-07 0.707107 -0.7071065
vn -2.076309E-07 0.707107 -0.7071065
vn 0.4556897 0.4556902 -0.7646525
vn -0.7646529 -0.4556901 0.4556889
vn -0.4556906 -0.4556902 0.764652
vn -0.7071066 -1.180155E-07 -0.7071069
vn -0.7071065 -1.369257E-07 -0.707107
vn -0.4556898 -0.4556904 -0.7646523
vn -0.7646528 -0.4556898 -0.4556895
vn -0.06099515 0.06112848 -0.9962644
vn -0.0004389457 0.0004294867 -0.9999999
vn -0.001698893 0.1012775 -0.9948567
vn -0.1012778 0.001814116 -0.9948566
vn -0.05932919 -0.05932915 -0.9964738
vn -1.349269E-07 -0.1012779 -0.9948583
vn 0.05932891 -0.05932913 -0.9964738
vn 0.1012776 0 -0.9948583
vn 0.05932889 0.05932897 -0.9964738
vn -0.9964738 0.05932887 0.05932916
vn -1 -1.48751E-07 1.509958E-07
vn -0.9948583 0.1012777 1.411604E-07
vn -0.9964738 0.05932886 -0.05932887
vn -0.9948583 -1.592784E-07 -0.1012777
vn -0.9964738 -0.05932917 -0.05932887
vn -0.9948581 -0.101278 1.592784E-07
vn -0.9964738 -0.05932916 0.05932917
vn -0.9948581 -1.411604E-07 0.101278
vn 0.4556901 -0.7646529 0.4556889
vn 0.4556904 -0.4556905 0.7646518
vn 0.8891897 -0.3235289 0.3235284
vn 2.608157E-07 -0.7071072 0.7071064
vn 2.417208E-07 -0.7071071 0.7071064
vn -0.4556906 -0.4556902 0.764652
vn -0.4556896 -0.764653 0.4556893
vn -0.7646529 -0.4556901 0.4556889
vn -0.7071066 -0.7071068 1.794735E-07
vn -0.7071066 -0.7071069 1.60785E-07
vn -0.7646528 -0.4556898 -0.4556895
vn -0.4556898 -0.7646529 -0.4556893
vn -0.4556898 -0.4556904 -0.7646523
vn -0.002650627 -0.707104 -0.7071045
vn -0.002650611 -0.7071041 -0.7071045
vn 0.5843273 -0.4542982 -0.6724394
vn 0.5806083 -0.6727626 -0.4585679
vn 0.950887 -0.214447 -0.2232183
vn 0.9425664 -0.3340185 0.0005357271
vn 0.7071061 -0.7071059 0.001435576
vn 0.7122601 0.009435843 0.7018522
vn 0.9376948 -0.005727137 0.347413
vn 0.4556904 -0.4556905 0.7646518
vn 0.8891897 -0.3235289 0.3235284
g meger3d_Char_ice2_C1_1_0
f 3/3/3 2/2/2 1/1/1
f 4/4/4 1/1/1 2/2/2
f 4/4/4 2/2/2 5/5/5
f 6/6/6 5/5/5 2/2/2
f 6/6/6 2/2/2 7/7/7
f 3/3/3 8/8/8 2/2/2
f 9/9/9 2/2/2 8/8/8
f 9/9/9 7/7/7 2/2/2
f 12/12/12 11/11/11 10/10/10
f 13/13/13 11/11/11 12/12/12
f 14/14/14 13/13/13 12/12/12
f 14/14/14 12/12/12 15/15/15
f 16/16/16 12/12/12 10/10/10
f 17/17/17 12/12/12 16/16/16
f 18/18/18 12/12/12 17/17/17
f 18/18/18 15/15/15 12/12/12
f 21/21/21 20/20/20 19/19/19
f 22/22/22 20/20/20 21/21/21
f 23/23/23 22/22/22 21/21/21
f 24/24/24 23/23/23 21/21/21
f 24/24/24 21/21/21 25/25/25
f 26/26/26 25/25/25 21/21/21
f 26/26/26 21/21/21 27/27/27
f 19/19/19 27/27/27 21/21/21
f 30/30/30 29/29/29 28/28/28
f 30/30/30 31/31/31 29/29/29
f 32/32/32 29/29/29 31/31/31
f 33/33/33 29/29/29 32/32/32
f 34/34/34 29/29/29 33/33/33
f 29/29/29 34/34/34 35/35/35
f 35/35/35 28/28/28 29/29/29
f 36/36/36 35/35/35 34/34/34
f 36/36/36 34/34/34 37/37/37
f 36/36/36 37/37/37 38/38/38
f 39/39/39 37/37/37 34/34/34
f 34/34/34 33/33/33 39/39/39
f 32/32/32 31/31/31 40/40/40
f 41/41/41 40/40/40 31/31/31
f 37/37/37 42/42/42 38/38/38
f 43/43/43 38/38/38 42/42/42
f 42/42/42 44/44/44 43/43/43
f 45/45/45 43/43/43 44/44/44
f 46/46/46 45/45/45 44/44/44
f 46/46/46 47/47/47 45/45/45
f 48/48/48 45/45/45 47/47/47
f 49/49/49 39/39/39 33/33/33
f 44/44/44 50/50/50 46/46/46
f 51/51/51 46/46/46 50/50/50
f 50/50/50 52/52/52 51/51/51
f 53/53/53 51/51/51 52/52/52
f 53/53/53 52/52/52 54/54/54
f 52/52/52 55/55/55 54/54/54
f 55/55/55 49/49/49 56/56/56
f 56/56/56 54/54/54 55/55/55
f 57/57/57 56/56/56 49/49/49
f 33/33/33 57/57/57 49/49/49
f 47/47/47 58/58/58 48/48/48
f 59/59/59 48/48/48 58/58/58
f 33/33/33 32/32/32 57/57/57
f 40/40/40 57/57/57 32/32/32
f 54/54/54 60/60/60 53/53/53
f 61/61/61 53/53/53 60/60/60
f 60/60/60 62/62/62 61/61/61
f 63/63/63 61/61/61 62/62/62
f 66/66/66 65/65/65 64/64/64
f 67/67/67 64/64/64 65/65/65
f 67/67/67 65/65/65 68/68/68
f 69/69/69 68/68/68 65/65/65
f 69/69/69 65/65/65 70/70/70
f 70/70/70 65/65/65 71/71/71
f 71/71/71 65/65/65 72/72/72
f 66/66/66 72/72/72 65/65/65
f 75/75/75 74/74/74 73/73/73
f 75/75/75 76/76/76 74/74/74
f 77/77/77 74/74/74 76/76/76
f 77/77/77 78/78/78 74/74/74
f 79/79/79 74/74/74 78/78/78
f 79/79/79 80/80/80 74/74/74
f 80/80/80 81/81/81 74/74/74
f 81/81/81 73/73/73 74/74/74
f 84/84/84 83/83/83 82/82/82
f 83/83/83 85/85/85 82/82/82
f 86/86/86 82/82/82 85/85/85
f 85/85/85 87/87/87 86/86/86
f 88/88/88 86/86/86 87/87/87
f 89/89/89 88/88/88 87/87/87
f 89/89/89 90/90/90 88/88/88
f 91/91/91 88/88/88 90/90/90
f 90/90/90 92/92/92 91/91/91
f 93/93/93 91/91/91 92/92/92
f 92/92/92 94/94/94 93/93/93
f 94/94/94 95/95/95 93/93/93
f 96/96/96 93/93/93 95/95/95
f 95/95/95 97/97/97 96/96/96
f 98/98/98 96/96/96 97/97/97
f 99/99/99 98/98/98 97/97/97
f 99/99/99 100/100/100 98/98/98
f 101/101/101 98/98/98 100/100/100
f 100/100/100 84/84/84 101/101/101
f 82/82/82 101/101/101 84/84/84
f 103/103/103 36/36/36 102/102/102
f 38/38/38 102/102/102 36/36/36
f 102/102/102 104/104/104 103/103/103
f 105/105/105 103/103/103 104/104/104
