g meger3d_Char_sundries_C11_6
v 0.162678 -0.02197055 0.3368628
v 0.08310701 -0.1287788 0.3742117
v 0.04544258 -0.09332964 0.3524662
v 0.1813352 -0.06898902 0.361138
v 0.2813579 -0.04266204 0.2692859
v 0.2807738 -0.08632582 0.3045172
v 0.3319613 -0.1432832 0.189321
v 0.323173 -0.1706335 0.2375169
v 0.2848454 -0.2648917 0.1438106
v 0.2836958 -0.2725258 0.199385
v 0.16761 -0.3362508 0.1594141
v 0.1854676 -0.3323156 0.2124587
v 0.04893012 -0.3155592 0.2269911
v 0.0860291 -0.3149787 0.2690796
v -0.001673284 -0.214938 0.3069558
v 0.04362996 -0.2306711 0.3360798
v 0.04362996 -0.2306711 0.3360798
v -0.001673284 -0.214938 0.3069558
v 0.3175999 -0.09257486 0.099112
v 0.2596527 0.02264903 0.1906817
v 0.1237493 0.04634335 0.2680658
v -0.01049985 -0.03537166 0.2859337
v -0.006506195 -0.2898524 0.1422489
v 0.1293972 -0.3135467 0.06486482
v -0.06445341 -0.1746285 0.2338186
v -0.06445341 -0.1746285 0.2338186
v 0.09472982 0.08058291 0.2066174
v -0.03951936 -0.001132097 0.2244853
v 0.2306332 0.05688862 0.1292333
v 0.2885804 -0.05833527 0.03766355
v 0.2346268 -0.1975921 -0.01445153
v 0.2636463 -0.2318317 0.04699693
v 0.1003776 -0.2793071 0.003416386
v -0.03552571 -0.2556128 0.08080046
v -0.09347291 -0.1403889 0.1723702
v -0.09347291 -0.1403889 0.1723702
v 0.03474104 0.1173479 0.08846568
v -0.07776384 0.05054373 0.1012288
v 0.200327 -0.003481119 -0.04187848
v 0.14993 0.09497004 0.02918869
v -0.07128372 -0.1647606 -0.01106553
v 0.04390524 -0.1871384 -0.07034248
v 0.1564101 -0.1203343 -0.08310567
v -0.1216807 -0.06630945 0.06000165
v -0.1216807 -0.06630945 0.06000165
v -0.01501184 0.147844 -0.009925947
v -0.1092085 0.09318332 -0.001091471
v 0.08239148 0.1271628 -0.05491175
v 0.1259439 0.04325433 -0.1096968
v 0.09013309 -0.05472894 -0.1421888
v -0.00406358 -0.1093896 -0.1333542
v -0.1014669 -0.08870832 -0.08836842
v -0.1450193 -0.004799862 -0.03358338
v -0.1450193 -0.004799862 -0.03358338
v -0.05899493 0.1742668 -0.08036695
v -0.1339688 0.1242817 -0.06567808
v 0.01337808 0.1673974 -0.1355965
v 0.04075523 0.1076976 -0.1990139
v 0.007099209 0.03013863 -0.2334702
v -0.06787463 -0.01984648 -0.2187812
v -0.1402477 -0.01297705 -0.1635517
v -0.1676248 0.04672274 -0.1001343
v -0.1676248 0.04672274 -0.1001343
v -0.07241191 0.1915226 -0.1041473
v -0.1488259 0.1405774 -0.08917622
v 0.001351223 0.1845212 -0.1604377
v 0.02925419 0.1236747 -0.2250731
v -0.005048246 0.04462599 -0.2601913
v -0.08146214 -0.006319151 -0.2452202
v -0.1552254 0.0006821823 -0.1889298
v -0.1831283 0.06152871 -0.1242943
v -0.1831283 0.06152871 -0.1242943
v -0.08221539 0.2177696 -0.1086217
v -0.1701908 0.1591164 -0.09138548
v 0.00270822 0.2097089 -0.1734288
v 0.03483291 0.1396563 -0.2478438
v -0.004659534 0.0486475 -0.2882752
v -0.09263492 -0.01000572 -0.2710391
v -0.2096832 0.06810762 -0.131817
v -0.1775585 -0.001945105 -0.2062319
v -0.2096832 0.06810762 -0.131817
v 0.323173 -0.1706335 0.2375169
v 0.1813352 -0.06898902 0.361138
v 0.2807738 -0.08632582 0.3045172
v 0.1854676 -0.3323156 0.2124587
v 0.04362996 -0.2306711 0.3360798
v 0.08310701 -0.1287788 0.3742117
v 0.0860291 -0.3149787 0.2690796
v 0.2836958 -0.2725258 0.199385
v -0.1547347 -0.007800398 -0.1898559
v -0.07801268 -0.01129266 -0.2209836
v -0.08693286 -0.01423589 -0.2415971
v -0.1369042 -0.005702858 -0.1760422
v -0.07361798 0.3415397 -0.01016799
v -0.1488524 0.1207888 -0.09816415
v -0.2599448 0.2173154 0.02633734
v -0.07861403 0.1676168 -0.1119253
v 0.1062454 0.3244676 -0.1474258
v -0.01081223 0.1611812 -0.1636665
v 0.1742837 0.1761 -0.3050323
v 0.01483571 0.1052522 -0.2230783
v 0.09064093 -0.01665136 -0.390664
v -0.01669448 0.03259211 -0.2553582
v -0.09568585 -0.1408755 -0.3541586
v -0.08693286 -0.01423589 -0.2415971
v -0.2755491 -0.1238035 -0.2169008
v -0.1547347 -0.007800398 -0.1898559
v -0.3435875 0.02456406 -0.05929428
v -0.1803826 0.04812864 -0.1304441
v -0.06637389 0.4068547 0.04537527
v -0.3065253 0.2467456 0.09242596
v 0.165447 0.3848511 -0.1315326
v 0.2531396 0.1936243 -0.3346673
v 0.1453348 -0.05480764 -0.4450354
v -0.09481663 -0.2149167 -0.3979848
v -0.3266374 -0.1929131 -0.221077
v -0.4143301 -0.001686354 -0.0179422
v -0.07281324 0.4214579 0.0408099
v -0.3065253 0.2467456 0.09242596
v -0.3186173 0.2575803 0.08896797
v -0.06637389 0.4068547 0.04537527
v 0.164464 0.3989365 -0.1402619
v 0.165447 0.3848511 -0.1315326
v 0.2542207 0.2032087 -0.3481779
v 0.2531396 0.1936243 -0.3346673
v 0.1438785 -0.05107073 -0.4611439
v 0.1453348 -0.05480764 -0.4450354
v -0.1019255 -0.2149483 -0.4129857
v -0.09481663 -0.2149167 -0.3979848
v -0.3392028 -0.1924268 -0.231914
v -0.3266374 -0.1929131 -0.221077
v -0.4289593 0.003300943 -0.02399792
v -0.4143301 -0.001686354 -0.0179422
v -0.08023469 0.4282185 0.02933861
v -0.3251395 0.2649405 0.07732049
v 0.1561743 0.4057795 -0.1510707
v 0.2456026 0.2107678 -0.3582259
v 0.1356642 -0.04258137 -0.4707786
v -0.1092406 -0.2058593 -0.4227966
v -0.3456497 -0.1834202 -0.2423874
v -0.4350779 0.01159137 -0.03523206
v -0.1171055 0.3887959 -0.07782088
v -0.3032527 0.2646914 -0.04135074
v 0.1305571 0.223516 -0.3724009
v 0.06258438 0.3717405 -0.2149464
v -0.1391522 -0.09315405 -0.4214798
v 0.046995 0.03095026 -0.4579499
v -0.3868147 0.07212594 -0.1268998
v -0.3188421 -0.07609845 -0.2843544
v -0.1462575 0.2959132 -0.1988879
v -0.24069 0.2329551 -0.1803868
v -0.0551008 0.2872611 -0.268452
v -0.02061824 0.2120667 -0.3483285
v -0.06300933 0.114378 -0.3917277
v -0.1574418 0.05141991 -0.3732262
v -0.2485986 0.06007219 -0.3036627
v -0.2830811 0.1352664 -0.2237856
v -0.1624684 0.185554 -0.3044032
vt 0.4095694 0.7585714
vt 0.3944826 0.7535741
vt 0.3944586 0.7594847
vt 0.4092894 0.7527909
vt 0.4242616 0.7576396
vt 0.4240675 0.7519507
vt 0.438724 0.757142
vt 0.4387771 0.7515147
vt 0.4530791 0.7572967
vt 0.4534211 0.7516949
vt 0.4674696 0.758098
vt 0.467995 0.7524731
vt 0.4821392 0.7591951
vt 0.4824384 0.753474
vt 0.4977599 0.7595526
vt 0.4964292 0.7535176
vt 0.3799076 0.7531903
vt 0.3783088 0.7593582
vt 0.438802 0.7660481
vt 0.4247925 0.766718
vt 0.4103124 0.7679625
vt 0.3949395 0.7694699
vt 0.4813018 0.7688665
vt 0.4665926 0.7671664
vt 0.4983003 0.7707231
vt 0.3773159 0.7707231
vt 0.4110764 0.7743446
vt 0.3958401 0.77634
vt 0.4253205 0.7728202
vt 0.4389571 0.7719769
vt 0.4523293 0.7720659
vt 0.4526211 0.7661763
vt 0.4658741 0.7732047
vt 0.4802185 0.7753882
vt 0.4962834 0.7789003
vt 0.3789398 0.7791171
vt 0.4128418 0.7895919
vt 0.3995443 0.7924569
vt 0.4385819 0.7855822
vt 0.4257749 0.7871362
vt 0.4772348 0.7904395
vt 0.4642965 0.7871273
vt 0.4514158 0.7854837
vt 0.4902595 0.7951382
vt 0.3857588 0.7956805
vt 0.4166889 0.8093657
vt 0.4056886 0.8123972
vt 0.4275891 0.8065131
vt 0.4386294 0.804582
vt 0.4498346 0.8043576
vt 0.4609104 0.8061906
vt 0.4715762 0.809811
vt 0.4818784 0.8145629
vt 0.3944314 0.8153869
vt 0.4188069 0.8198274
vt 0.4091627 0.8224938
vt 0.4285732 0.8173709
vt 0.4385933 0.8157508
vt 0.4487712 0.8156122
vt 0.4587688 0.8172312
vt 0.4682759 0.8203202
vt 0.4770684 0.8241931
vt 0.3996745 0.8250737
vt 0.4200524 0.8228445
vt 0.4101922 0.8256118
vt 0.4296961 0.8203939
vt 0.4391707 0.8188518
vt 0.448487 0.8187135
vt 0.4576169 0.8201932
vt 0.4666191 0.8231301
vt 0.4753985 0.8266636
vt 0.4004425 0.8280391
vt 0.4208464 0.8252501
vt 0.4109827 0.828155
vt 0.4302928 0.8227061
vt 0.4394115 0.8210876
vt 0.4482633 0.8208863
vt 0.4569069 0.8223393
vt 0.4749656 0.8290799
vt 0.4655741 0.8253679
vt 0.4004573 0.8306535
vt 0.3809637 0.8460084
vt 0.4034224 0.8460084
vt 0.392193 0.841357
vt 0.3809637 0.8684671
vt 0.4034224 0.8684671
vt 0.4080737 0.8572377
vt 0.392193 0.8731184
vt 0.3763123 0.8572377
vt 0.4655741 0.8253679
vt 0.4576169 0.8201932
vt 0.4569069 0.8223393
vt 0.4666191 0.8231301
vt 0.4897199 0.8644989
vt 0.4788485 0.8649755
vt 0.47885 0.8690006
vt 0.4868727 0.8616537
vt 0.494223 0.8536296
vt 0.4901978 0.8536311
vt 0.4897205 0.8427597
vt 0.4868753 0.8456072
vt 0.4788504 0.8382572
vt 0.478852 0.8422824
vt 0.4679805 0.8427593
vt 0.4708277 0.8456044
vt 0.4634776 0.8536288
vt 0.4675027 0.8536271
vt 0.4679803 0.8644983
vt 0.4708253 0.8616508
vt 0.4928769 0.8676555
vt 0.4788504 0.8734649
vt 0.4986876 0.8536292
vt 0.492877 0.8396024
vt 0.47885 0.8337927
vt 0.4648232 0.8396026
vt 0.459013 0.8536292
vt 0.4648238 0.8676555
vt 0.4496361 0.8336216
vt 0.4334822 0.8262028
vt 0.4334813 0.8270198
vt 0.4502158 0.8330357
vt 0.4566389 0.8498431
vt 0.4575514 0.8498441
vt 0.4496373 0.8660651
vt 0.4502158 0.8666524
vt 0.4334831 0.8726681
vt 0.4334822 0.8734853
vt 0.4173283 0.8660666
vt 0.4167485 0.8666525
vt 0.4103253 0.8498449
vt 0.4094128 0.8498441
vt 0.417327 0.8336228
vt 0.4167484 0.8330356
vt 0.4490662 0.8342009
vt 0.4334817 0.8278254
vt 0.455736 0.8498435
vt 0.4490668 0.8654865
vt 0.4334826 0.8718625
vt 0.4178982 0.8654873
vt 0.4112281 0.8498445
vt 0.4178976 0.8342015
vt 0.4455432 0.8377917
vt 0.4335006 0.8328301
vt 0.4455155 0.8619219
vt 0.4506053 0.8498646
vt 0.4214212 0.8618964
vt 0.4334638 0.8668579
vt 0.4214489 0.8377661
vt 0.416359 0.8498235
vt 0.4373744 0.8460122
vt 0.4335144 0.8443919
vt 0.4389545 0.8498882
vt 0.4373212 0.8537235
vt 0.4334498 0.8552961
vt 0.42959 0.8536758
vt 0.4280099 0.8497999
vt 0.4296431 0.8459644
vt 0.4334821 0.849844
vn 0.1314965 0.6360334 0.760375
vn -0.3670517 0.1709072 0.9143652
vn -0.469907 0.2699699 0.8404188
vn 0.1872182 0.5082812 0.8405948
vn 0.7403105 0.5298884 0.4137132
vn 0.7483177 0.4104552 0.521102
vn 0.9998999 0.01371371 0.003503173
vn 0.9875624 -0.06526614 0.1430413
vn 0.7582009 -0.610123 -0.2299594
vn 0.7648061 -0.6402107 -0.07212405
vn 0.1567974 -0.9761863 -0.1499161
vn 0.2105364 -0.9775847 0.001646203
vn -0.4520165 -0.8700414 0.1967459
vn -0.3505634 -0.8797586 0.3211389
vn -0.7116058 -0.3538668 0.6069558
vn -0.5898079 -0.4040378 0.6991996
vn -0.5898079 -0.4040378 0.6991996
vn -0.7116058 -0.3538668 0.6069558
vn 0.9641241 0.1418246 -0.2243889
vn 0.685851 0.6951507 0.2153458
vn 0.03321807 0.8089353 0.5869583
vn -0.6114709 0.4165247 0.6727633
vn -0.5922929 -0.8055382 -0.01723769
vn 0.06033989 -0.9193228 -0.3888504
vn -0.870566 -0.2522121 0.4224971
vn -0.870566 -0.2522121 0.4224971
vn -0.04065382 0.9101866 0.4121985
vn -0.6900951 0.5082499 0.5152192
vn 0.5966147 0.8025214 0.003203737
vn 0.8467771 0.264387 -0.4615929
vn 0.5826961 -0.3842965 -0.7160876
vn 0.7050289 -0.5269126 -0.474655
vn -0.04171147 -0.7819217 -0.6219797
vn -0.6796359 -0.6977255 -0.2264381
vn -0.9549661 -0.1638418 0.2473776
vn -0.9549661 -0.1638418 0.2473776
vn -0.08041868 0.9398993 0.3318466
vn -0.7141406 0.5398327 0.4456275
vn 0.7397915 0.3349892 -0.5835159
vn 0.5266383 0.8438866 -0.1025062
vn -0.7172638 -0.6146557 -0.328224
vn -0.1103101 -0.6639336 -0.7396106
vn 0.4746382 -0.2718012 -0.8371635
vn -0.9790562 -0.1135687 0.1689706
vn -0.9790562 -0.1135687 0.1689706
vn -0.06263837 0.9312315 0.3590046
vn -0.7042837 0.5240353 0.4789274
vn 0.549322 0.8316191 -0.08157758
vn 0.7662498 0.3125572 -0.5613993
vn 0.497655 -0.2979621 -0.8145907
vn -0.09276018 -0.6835722 -0.7239645
vn -0.7052812 -0.6313401 -0.3224719
vn -0.9737124 -0.1348166 0.1835993
vn -0.9737124 -0.1348166 0.1835993
vn -0.03690424 0.8721892 0.4877745
vn -0.6566423 0.4649276 0.5938545
vn 0.5992863 0.7976649 0.06772444
vn 0.8694115 0.2610172 -0.4195159
vn 0.602484 -0.410596 -0.6844151
vn -0.04071195 -0.8157532 -0.5769656
vn -0.678053 -0.7179209 -0.1575869
vn -0.9264692 -0.1833505 0.3286904
vn -0.9264692 -0.1833505 0.3286904
vn 0.2239232 0.5622953 0.7960417
vn -0.3787225 0.1819185 0.9074553
vn 0.7935903 0.4710003 0.3851925
vn 0.9977747 -0.008684276 -0.06610759
vn 0.747538 -0.5891387 -0.3067613
vn 0.2538398 -0.9023765 -0.3482557
vn -0.5256048 -0.83197 0.1776664
vn -0.6294134 -0.4396197 0.6407598
vn -0.6294134 -0.4396197 0.6407598
vn 0.3430991 0.2809468 0.8962991
vn -0.1354335 -0.03809329 0.9900539
vn 0.8050337 0.2371007 0.5437866
vn 0.9797732 -0.1439445 0.1390133
vn 0.7649578 -0.638978 -0.08091109
vn 0.5358639 -0.8367883 -0.1124062
vn -0.3502517 -0.5331266 0.7701297
vn -0.3452264 -0.7531579 0.5599749
vn -0.3502517 -0.5331266 0.7701297
vn 0.3813607 -0.4499608 0.8075268
vn 0.3813607 -0.4499608 0.8075268
vn 0.3813604 -0.449961 0.8075268
vn 0.3813608 -0.4499606 0.8075266
vn 0.3813608 -0.4499606 0.8075266
vn 0.3813609 -0.4499607 0.8075266
vn 0.3813609 -0.4499603 0.8075268
vn 0.3813609 -0.4499607 0.8075266
vn 0.1617689 -0.7963377 0.5828182
vn 0.1888809 -0.9585644 -0.2132561
vn 0.422291 -0.8211397 0.3839269
vn -0.3814071 -0.9083812 0.1713835
vn 0.4856978 -0.5175241 0.7044619
vn 0.1843609 -0.3020451 0.9352966
vn 0.4821057 -0.5199765 0.7051231
vn 0.4544928 -0.1218929 0.8823709
vn 0.4891649 -0.5177457 0.7018954
vn 0.7149915 -0.1469067 0.6835244
vn 0.4904747 -0.5207726 0.6987349
vn 0.8136822 -0.3618151 0.4549848
vn 0.4888119 -0.524326 0.697241
vn 0.6924629 -0.6410324 0.3310174
vn 0.4851952 -0.526843 0.6978697
vn 0.422291 -0.8211397 0.3839269
vn 0.4817405 -0.5267101 0.7003588
vn 0.1617689 -0.7963377 0.5828182
vn 0.4804021 -0.5238267 0.7034341
vn 0.06305761 -0.5814489 0.8111356
vn 0.431981 -0.012933 0.90179
vn 0.09966211 -0.2346064 0.9669681
vn 0.7525671 -0.04341276 0.657083
vn 0.8739134 -0.3080077 0.376041
vn 0.7246935 -0.6519104 0.2232314
vn 0.3923897 -0.8734099 0.2884189
vn 0.07152109 -0.8429673 0.5331894
vn -0.0497472 -0.5783876 0.8142439
vn 0.1432066 0.678513 0.7204943
vn 0.09966211 -0.2346064 0.9669681
vn -0.4697643 0.269724 0.8405774
vn 0.431981 -0.012933 0.90179
vn 0.7351146 0.6223463 0.2688708
vn 0.7525671 -0.04341276 0.657083
vn 0.958995 0.1341067 -0.2496881
vn 0.8739134 -0.3080077 0.376041
vn 0.6838468 -0.4999747 -0.5313933
vn 0.7246935 -0.6519104 0.2232314
vn 0.07077281 -0.9087466 -0.4113039
vn 0.3923897 -0.8734099 0.2884189
vn -0.5210367 -0.8525871 0.04019952
vn 0.07152109 -0.8429673 0.5331894
vn -0.7449878 -0.3643944 0.5587575
vn -0.0497472 -0.5783876 0.8142439
vn -0.1868427 0.9619062 0.1995651
vn -0.7471555 0.5882382 0.30941
vn 0.3540314 0.9106101 -0.2131923
vn 0.5586643 0.4645197 -0.6871067
vn 0.307124 -0.1153836 -0.9446488
vn -0.2533977 -0.4888704 -0.8347427
vn -0.7939287 -0.437469 -0.4222535
vn -0.9986318 0.008610311 0.05157882
vn -0.4172512 0.8316864 -0.3663321
vn -0.6992897 0.6436399 -0.3110007
vn -0.04201164 0.5813622 -0.8125595
vn -0.1450537 0.805863 -0.5740594
vn -0.4507493 0.1014226 -0.8868701
vn -0.1686439 0.2895956 -0.9421749
vn -0.8259719 0.3517624 -0.4404923
vn -0.7228096 0.1275796 -0.6791686
vn -0.4723406 0.6511109 -0.594095
vn -0.5777169 0.5808215 -0.5734889
vn -0.3708307 0.6413948 -0.6716378
vn -0.3323355 0.5576811 -0.7606214
vn -0.3796842 0.4487959 -0.8089635
vn -0.4847845 0.3784455 -0.7885194
vn -0.5864745 0.388236 -0.7108589
vn -0.6250044 0.4719912 -0.6217668
vn -0.4854478 0.522147 -0.7012154
g meger3d_Char_sundries_C11_6_0
f 3/3/3 2/2/2 1/1/1
f 4/4/4 1/1/1 2/2/2
f 1/1/1 4/4/4 5/5/5
f 6/6/6 5/5/5 4/4/4
f 5/5/5 6/6/6 7/7/7
f 8/8/8 7/7/7 6/6/6
f 7/7/7 8/8/8 9/9/9
f 10/10/10 9/9/9 8/8/8
f 9/9/9 10/10/10 11/11/11
f 12/12/12 11/11/11 10/10/10
f 11/11/11 12/12/12 13/13/13
f 14/14/14 13/13/13 12/12/12
f 13/13/13 14/14/14 15/15/15
f 16/16/16 15/15/15 14/14/14
f 2/2/2 3/3/3 17/17/17
f 18/18/18 17/17/17 3/3/3
f 7/7/7 19/19/19 5/5/5
f 20/20/20 5/5/5 19/19/19
f 5/5/5 20/20/20 1/1/1
f 21/21/21 1/1/1 20/20/20
f 1/1/1 21/21/21 3/3/3
f 22/22/22 3/3/3 21/21/21
f 3/3/3 22/22/22 18/18/18
f 13/13/13 23/23/23 11/11/11
f 24/24/24 11/11/11 23/23/23
f 23/23/23 13/13/13 25/25/25
f 15/15/15 25/25/25 13/13/13
f 26/26/26 18/18/18 22/22/22
f 21/21/21 27/27/27 22/22/22
f 28/28/28 22/22/22 27/27/27
f 22/22/22 28/28/28 26/26/26
f 27/27/27 21/21/21 29/29/29
f 20/20/20 29/29/29 21/21/21
f 29/29/29 20/20/20 30/30/30
f 19/19/19 30/30/30 20/20/20
f 30/30/30 19/19/19 31/31/31
f 32/32/32 31/31/31 19/19/19
f 32/32/32 9/9/9 24/24/24
f 9/9/9 32/32/32 7/7/7
f 19/19/19 7/7/7 32/32/32
f 11/11/11 24/24/24 9/9/9
f 31/31/31 32/32/32 33/33/33
f 24/24/24 33/33/33 32/32/32
f 33/33/33 24/24/24 34/34/34
f 23/23/23 34/34/34 24/24/24
f 34/34/34 23/23/23 35/35/35
f 25/25/25 35/35/35 23/23/23
f 36/36/36 26/26/26 28/28/28
f 27/27/27 37/37/37 28/28/28
f 38/38/38 28/28/28 37/37/37
f 28/28/28 38/38/38 36/36/36
f 30/30/30 39/39/39 29/29/29
f 40/40/40 29/29/29 39/39/39
f 37/37/37 27/27/27 40/40/40
f 29/29/29 40/40/40 27/27/27
f 34/34/34 41/41/41 33/33/33
f 42/42/42 33/33/33 41/41/41
f 33/33/33 42/42/42 31/31/31
f 43/43/43 31/31/31 42/42/42
f 39/39/39 30/30/30 43/43/43
f 31/31/31 43/43/43 30/30/30
f 41/41/41 34/34/34 44/44/44
f 35/35/35 44/44/44 34/34/34
f 45/45/45 36/36/36 38/38/38
f 37/37/37 46/46/46 38/38/38
f 47/47/47 38/38/38 46/46/46
f 38/38/38 47/47/47 45/45/45
f 46/46/46 37/37/37 48/48/48
f 40/40/40 48/48/48 37/37/37
f 48/48/48 40/40/40 49/49/49
f 39/39/39 49/49/49 40/40/40
f 49/49/49 39/39/39 50/50/50
f 43/43/43 50/50/50 39/39/39
f 50/50/50 43/43/43 51/51/51
f 42/42/42 51/51/51 43/43/43
f 51/51/51 42/42/42 52/52/52
f 41/41/41 52/52/52 42/42/42
f 52/52/52 41/41/41 53/53/53
f 44/44/44 53/53/53 41/41/41
f 54/54/54 45/45/45 47/47/47
f 46/46/46 55/55/55 47/47/47
f 56/56/56 47/47/47 55/55/55
f 47/47/47 56/56/56 54/54/54
f 55/55/55 46/46/46 57/57/57
f 48/48/48 57/57/57 46/46/46
f 57/57/57 48/48/48 58/58/58
f 49/49/49 58/58/58 48/48/48
f 58/58/58 49/49/49 59/59/59
f 50/50/50 59/59/59 49/49/49
f 59/59/59 50/50/50 60/60/60
f 51/51/51 60/60/60 50/50/50
f 60/60/60 51/51/51 61/61/61
f 52/52/52 61/61/61 51/51/51
f 61/61/61 52/52/52 62/62/62
f 53/53/53 62/62/62 52/52/52
f 63/63/63 54/54/54 56/56/56
f 55/55/55 64/64/64 56/56/56
f 65/65/65 56/56/56 64/64/64
f 56/56/56 65/65/65 63/63/63
f 64/64/64 55/55/55 66/66/66
f 57/57/57 66/66/66 55/55/55
f 66/66/66 57/57/57 67/67/67
f 58/58/58 67/67/67 57/57/57
f 67/67/67 58/58/58 68/68/68
f 59/59/59 68/68/68 58/58/58
f 68/68/68 59/59/59 69/69/69
f 60/60/60 69/69/69 59/59/59
f 69/69/69 60/60/60 70/70/70
f 61/61/61 70/70/70 60/60/60
f 70/70/70 61/61/61 71/71/71
f 62/62/62 71/71/71 61/61/61
f 72/72/72 63/63/63 65/65/65
f 64/64/64 73/73/73 65/65/65
f 74/74/74 65/65/65 73/73/73
f 65/65/65 74/74/74 72/72/72
f 73/73/73 64/64/64 75/75/75
f 66/66/66 75/75/75 64/64/64
f 75/75/75 66/66/66 76/76/76
f 67/67/67 76/76/76 66/66/66
f 76/76/76 67/67/67 77/77/77
f 68/68/68 77/77/77 67/67/67
f 77/77/77 68/68/68 78/78/78
f 69/69/69 78/78/78 68/68/68
f 71/71/71 79/79/79 70/70/70
f 80/80/80 70/70/70 79/79/79
f 81/81/81 72/72/72 74/74/74
f 84/84/84 83/83/83 82/82/82
f 83/83/83 85/85/85 82/82/82
f 86/86/86 85/85/85 83/83/83
f 87/87/87 86/86/86 83/83/83
f 88/88/88 85/85/85 86/86/86
f 85/85/85 89/89/89 82/82/82
f 92/92/92 91/91/91 90/90/90
f 93/93/93 90/90/90 91/91/91
f 96/96/96 95/95/95 94/94/94
f 97/97/97 94/94/94 95/95/95
f 94/94/94 97/97/97 98/98/98
f 99/99/99 98/98/98 97/97/97
f 98/98/98 99/99/99 100/100/100
f 101/101/101 100/100/100 99/99/99
f 100/100/100 101/101/101 102/102/102
f 103/103/103 102/102/102 101/101/101
f 102/102/102 103/103/103 104/104/104
f 105/105/105 104/104/104 103/103/103
f 104/104/104 105/105/105 106/106/106
f 107/107/107 106/106/106 105/105/105
f 106/106/106 107/107/107 108/108/108
f 109/109/109 108/108/108 107/107/107
f 108/108/108 109/109/109 96/96/96
f 95/95/95 96/96/96 109/109/109
f 94/94/94 110/110/110 96/96/96
f 111/111/111 96/96/96 110/110/110
f 110/110/110 94/94/94 112/112/112
f 98/98/98 112/112/112 94/94/94
f 112/112/112 98/98/98 113/113/113
f 100/100/100 113/113/113 98/98/98
f 113/113/113 100/100/100 114/114/114
f 102/102/102 114/114/114 100/100/100
f 114/114/114 102/102/102 115/115/115
f 104/104/104 115/115/115 102/102/102
f 115/115/115 104/104/104 116/116/116
f 106/106/106 116/116/116 104/104/104
f 116/116/116 106/106/106 117/117/117
f 108/108/108 117/117/117 106/106/106
f 117/117/117 108/108/108 111/111/111
f 96/96/96 111/111/111 108/108/108
f 120/120/120 119/119/119 118/118/118
f 121/121/121 118/118/118 119/119/119
f 118/118/118 121/121/121 122/122/122
f 123/123/123 122/122/122 121/121/121
f 122/122/122 123/123/123 124/124/124
f 125/125/125 124/124/124 123/123/123
f 124/124/124 125/125/125 126/126/126
f 127/127/127 126/126/126 125/125/125
f 126/126/126 127/127/127 128/128/128
f 129/129/129 128/128/128 127/127/127
f 128/128/128 129/129/129 130/130/130
f 131/131/131 130/130/130 129/129/129
f 130/130/130 131/131/131 132/132/132
f 133/133/133 132/132/132 131/131/131
f 132/132/132 133/133/133 120/120/120
f 119/119/119 120/120/120 133/133/133
f 118/118/118 134/134/134 120/120/120
f 135/135/135 120/120/120 134/134/134
f 134/134/134 118/118/118 136/136/136
f 122/122/122 136/136/136 118/118/118
f 136/136/136 122/122/122 137/137/137
f 124/124/124 137/137/137 122/122/122
f 137/137/137 124/124/124 138/138/138
f 126/126/126 138/138/138 124/124/124
f 138/138/138 126/126/126 139/139/139
f 128/128/128 139/139/139 126/126/126
f 139/139/139 128/128/128 140/140/140
f 130/130/130 140/140/140 128/128/128
f 140/140/140 130/130/130 141/141/141
f 132/132/132 141/141/141 130/130/130
f 141/141/141 132/132/132 135/135/135
f 120/120/120 135/135/135 132/132/132
f 134/134/134 142/142/142 135/135/135
f 143/143/143 135/135/135 142/142/142
f 135/135/135 143/143/143 141/141/141
f 137/137/137 144/144/144 136/136/136
f 145/145/145 136/136/136 144/144/144
f 142/142/142 134/134/134 145/145/145
f 136/136/136 145/145/145 134/134/134
f 139/139/139 146/146/146 138/138/138
f 147/147/147 138/138/138 146/146/146
f 144/144/144 137/137/137 147/147/147
f 138/138/138 147/147/147 137/137/137
f 141/141/141 148/148/148 140/140/140
f 148/148/148 141/141/141 143/143/143
f 149/149/149 140/140/140 148/148/148
f 146/146/146 139/139/139 149/149/149
f 140/140/140 149/149/149 139/139/139
f 142/142/142 150/150/150 143/143/143
f 151/151/151 143/143/143 150/150/150
f 143/143/143 151/151/151 148/148/148
f 150/150/150 142/142/142 152/152/152
f 145/145/145 152/152/152 142/142/142
f 152/152/152 145/145/145 153/153/153
f 144/144/144 153/153/153 145/145/145
f 153/153/153 144/144/144 154/154/154
f 147/147/147 154/154/154 144/144/144
f 154/154/154 147/147/147 155/155/155
f 146/146/146 155/155/155 147/147/147
f 155/155/155 146/146/146 156/156/156
f 149/149/149 156/156/156 146/146/146
f 156/156/156 149/149/149 157/157/157
f 148/148/148 157/157/157 149/149/149
f 157/157/157 148/148/148 151/151/151
f 150/150/150 158/158/158 151/151/151
f 152/152/152 158/158/158 150/150/150
f 153/153/153 158/158/158 152/152/152
f 154/154/154 158/158/158 153/153/153
f 155/155/155 158/158/158 154/154/154
f 156/156/156 158/158/158 155/155/155
f 157/157/157 158/158/158 156/156/156
f 151/151/151 158/158/158 157/157/157
