g meger3d_Char2_sundries_C6_7
v -0.1061948 -0.1178186 -0.06865536
v -0.000913503 -0.2686631 -0.06202878
v 0.00718827 0.004711055 -0.07208136
v -0.1570614 0.03981954 -0.07548939
v 0.1711074 -0.02050903 -0.05060488
v 0.1311073 -0.1706639 -0.0797601
v 0.02271164 0.2784048 -0.06643051
v -0.09309514 0.1801527 -0.07834608
v 0.1423611 0.1293087 -0.04136602
v -0.1240797 -0.1308842 0.06454708
v -0.1702008 0.02771037 0.05785543
v -0.005670846 -0.0006627545 0.06099385
v -0.01278633 -0.2740757 0.07108591
v 0.1590385 -0.006895895 0.08171038
v 0.1142617 -0.1588242 0.05244561
v -0.001515462 0.273486 0.06618936
v -0.1135365 0.1671893 0.05475396
v 0.1229564 0.1412508 0.09073722
v -0.000913503 -0.2686631 -0.06202878
v 0.1387682 -0.2813449 -0.01153569
v 0.1311073 -0.1706639 -0.0797601
v -0.01278633 -0.2740757 0.07108591
v 0.1142617 -0.1588242 0.05244561
v 0.1311073 -0.1706639 -0.0797601
v 0.1387682 -0.2813449 -0.01153569
v 0.2060927 -0.1549061 -0.002064323
v 0.1142617 -0.1588242 0.05244561
v 0.1311073 -0.1706639 -0.0797601
v 0.2060927 -0.1549061 -0.002064323
v 0.2369971 -0.007680994 0.01326396
v 0.1711074 -0.02050903 -0.05060488
v 0.1590385 -0.006895895 0.08171038
v 0.1142617 -0.1588242 0.05244561
v 0.1711074 -0.02050903 -0.05060488
v 0.2369971 -0.007680994 0.01326396
v 0.2162084 0.1272495 0.02406034
v 0.1423611 0.1293087 -0.04136602
v 0.1229564 0.1412508 0.09073722
v 0.1590385 -0.006895895 0.08171038
v 0.1423611 0.1293087 -0.04136602
v 0.2162084 0.1272495 0.02406034
v 0.1538296 0.2436535 0.02129641
v 0.1229564 0.1412508 0.09073722
v 0.1423611 0.1293087 -0.04136602
v 0.1538296 0.2436535 0.02129641
v 0.02271164 0.2784048 -0.06643051
v 0.1229564 0.1412508 0.09073722
v -0.001515462 0.273486 0.06618936
v -0.01409044 -0.3916225 0.02558682
v -0.01278633 -0.2740757 0.07108591
v 0.1387682 -0.2813449 -0.01153569
v -0.000913503 -0.2686631 -0.06202878
v 0.02271164 0.2784048 -0.06643051
v -0.1298353 0.2903497 -0.02827288
v -0.09309514 0.1801527 -0.07834608
v -0.001515462 0.273486 0.06618936
v -0.1135365 0.1671893 0.05475396
v -0.09309514 0.1801527 -0.07834608
v -0.1298353 0.2903497 -0.02827288
v -0.1853135 0.1777599 -0.01511117
v -0.1135365 0.1671893 0.05475396
v -0.09309514 0.1801527 -0.07834608
v -0.1853135 0.1777599 -0.01511117
v -0.2360746 0.0397907 -0.004209371
v -0.1570614 0.03981954 -0.07548939
v -0.1702008 0.02771037 0.05785543
v -0.1135365 0.1671893 0.05475396
v -0.1570614 0.03981954 -0.07548939
v -0.2360746 0.0397907 -0.004209371
v -0.1971848 -0.1024921 0.004498726
v -0.1061948 -0.1178186 -0.06865536
v -0.1240797 -0.1308842 0.06454708
v -0.1702008 0.02771037 0.05785543
v -0.1061948 -0.1178186 -0.06865536
v -0.1971848 -0.1024921 0.004498726
v -0.1480748 -0.2312028 0.02168342
v -0.1240797 -0.1308842 0.06454708
v -0.000913503 -0.2686631 -0.06202878
v -0.1480748 -0.2312028 0.02168342
v -0.01409044 -0.3916225 0.02558682
v -0.01278633 -0.2740757 0.07108591
v 0.01174649 0.3924077 -0.008406171
v -0.001515462 0.273486 0.06618936
v -0.1298353 0.2903497 -0.02827288
v 0.02271164 0.2784048 -0.06643051
v -0.1480748 -0.2312028 0.02168342
v -0.1240797 -0.1308842 0.06454708
v -0.01278633 -0.2740757 0.07108591
v -0.000913503 -0.2686631 -0.06202878
v -0.1061948 -0.1178186 -0.06865536
v 0.02271164 0.2784048 -0.06643051
v 0.1538296 0.2436535 0.02129641
v 0.01174649 0.3924077 -0.008406171
v -0.001515462 0.273486 0.06618936
vt 0.3998054 0.7051972
vt 0.3998054 0.6715821
vt 0.3998054 0.7801954
vt 0.3998054 0.7545419
vt 0.3998054 0.8099197
vt 0.3998054 0.7411645
vt 0.3998054 0.8907524
vt 0.3998054 0.8245432
vt 0.3998054 0.8621404
vt 0.3998054 0.7489461
vt 0.3998054 0.8212364
vt 0.3998054 0.7796957
vt 0.3998054 0.6709952
vt 0.3998054 0.7471273
vt 0.3998054 0.6937636
vt 0.3998054 0.8893965
vt 0.3998054 0.8670862
vt 0.3998054 0.8131577
vt 0.3998054 0.7216414
vt 0.3998054 0.872945
vt 0.3998054 0.9063453
vt 0.3998054 0.7098157
vt 0.3998054 0.8957837
vt 0.3998054 0.8467609
vt 0.3998054 0.7049945
vt 0.3998054 0.9057201
vt 0.3998054 0.8485413
vt 0.3998054 0.9019589
vt 0.3998054 0.8415769
vt 0.3998054 0.6999075
vt 0.3998054 0.7521667
vt 0.3998054 0.7499332
vt 0.3998054 0.9042587
vt 0.3998054 0.8745087
vt 0.3998054 0.912793
vt 0.3998054 0.7918863
vt 0.3998054 0.7362549
vt 0.3998054 0.7213975
vt 0.3998054 0.8633109
vt 0.3998054 0.8442502
vt 0.3998054 0.8966478
vt 0.3998054 0.7107537
vt 0.3998054 0.8273724
vt 0.3998054 0.8943353
vt 0.3998054 0.8214551
vt 0.3998054 0.7006429
vt 0.3998054 0.8797259
vt 0.3998054 0.6951813
vt 0.3998054 0.7266009
vt 0.3998054 0.771822
vt 0.3998054 0.936744
vt 0.3998054 0.7833595
vt 0.3998054 0.7271793
vt 0.3998054 0.8464553
vt 0.3998054 0.879975
vt 0.3998054 0.7490683
vt 0.3998054 0.903361
vt 0.3998054 0.8289324
vt 0.3998054 0.7145976
vt 0.3998054 0.8918557
vt 0.3998054 0.861918
vt 0.3998054 0.9173285
vt 0.3998054 0.8511181
vt 0.3998054 0.7074584
vt 0.3998054 0.7627044
vt 0.3998054 0.7432693
vt 0.3998054 0.8921607
vt 0.3998054 0.8844551
vt 0.3998054 0.9296803
vt 0.3998054 0.7855337
vt 0.3998054 0.7200494
vt 0.3998054 0.7124395
vt 0.3998054 0.8746696
vt 0.3998054 0.8340814
vt 0.3998054 0.8962831
vt 0.3998054 0.7011163
vt 0.3998054 0.8164497
vt 0.3998054 0.8458784
vt 0.3998054 0.6914107
vt 0.3998054 0.934134
vt 0.3998054 0.8482376
vt 0.3998054 0.7467654
vt 0.3998054 0.8375357
vt 0.3998054 0.9219177
vt 0.3998054 0.816145
vt 0.3998054 0.8576818
vt 0.3998054 0.9070704
vt 0.3998054 0.6989797
vt 0.3998054 0.7008922
vt 0.3998054 0.9091449
vt 0.3998054 0.8263599
vt 0.3998054 0.6970609
vt 0.3998054 0.9047285
vt 0.3998054 0.8345606
vn 0.01094069 -0.03806267 -0.9992155
vn 0.005478273 0.01052251 -0.9999297
vn 0.06544906 0.009530283 -0.9978104
vn 0.03608537 -0.01882071 -0.9991715
vn 0.08720622 0.04295261 -0.9952638
vn 0.001606349 0.04487559 -0.9989913
vn 0.1182801 0.01731923 -0.9928293
vn 0.05551514 -0.003920147 -0.9984502
vn 0.1859147 0.04032034 -0.9817383
vn -0.01156032 0.03777638 0.9992193
vn -0.03452533 0.0186003 0.9992307
vn -0.05751837 -0.01230802 0.9982686
vn 0.0002008 -0.007696212 0.9999704
vn -0.08333242 -0.04655356 0.9954337
vn 0.01018004 -0.04626746 0.9988772
vn -0.1144865 -0.02164694 0.993189
vn -0.05341151 0.002798237 0.9985687
vn -0.1761402 -0.04643192 0.9832693
vn 0.2396622 -0.5488397 -0.8008351
vn 0.7080323 -0.7057151 -0.02562465
vn 0.5994645 -0.3073826 -0.7390252
vn 0.4385003 -0.3352824 0.8338484
vn 0.5051064 -0.3077983 0.8063049
vn 0.5994645 -0.3073826 -0.7390252
vn 0.7080323 -0.7057151 -0.02562465
vn 0.9403501 -0.3322268 0.07326066
vn 0.5051064 -0.3077983 0.8063049
vn 0.5994645 -0.3073826 -0.7390252
vn 0.9403501 -0.3322268 0.07326066
vn 0.9982125 -0.02562701 0.0539925
vn 0.6968502 0.0343092 -0.7163957
vn 0.6051978 -0.08937551 0.7910421
vn 0.5051064 -0.3077983 0.8063049
vn 0.6968502 0.0343092 -0.7163957
vn 0.9982125 -0.02562701 0.0539925
vn 0.9523637 0.299502 0.05746238
vn 0.6339145 0.2671334 -0.7258046
vn 0.5288097 0.2840703 0.7997901
vn 0.6051978 -0.08937551 0.7910421
vn 0.6339145 0.2671334 -0.7258046
vn 0.9523637 0.299502 0.05746238
vn 0.7840874 0.6140603 0.09020497
vn 0.5288097 0.2840703 0.7997901
vn 0.6339145 0.2671334 -0.7258046
vn 0.7840874 0.6140603 0.09020497
vn 0.5811049 0.3917027 -0.7133626
vn 0.5288097 0.2840703 0.7997901
vn 0.3271874 0.4707554 0.819352
vn 0.6047403 -0.7708383 0.2002439
vn 0.4385003 -0.3352824 0.8338484
vn 0.7080323 -0.7057151 -0.02562465
vn 0.2396622 -0.5488397 -0.8008351
vn -0.192919 0.3993572 -0.8962678
vn -0.7251628 0.6662486 -0.1739304
vn -0.4630952 0.2541058 -0.8491014
vn -0.4793323 0.4774807 0.7363782
vn -0.5889994 0.362719 0.7221598
vn -0.4630952 0.2541058 -0.8491014
vn -0.7251628 0.6662486 -0.1739304
vn -0.9153422 0.3995414 -0.05015282
vn -0.5889994 0.362719 0.7221598
vn -0.4630952 0.2541058 -0.8491014
vn -0.9153422 0.3995414 -0.05015282
vn -0.9984748 0.05201736 -0.0185022
vn -0.6391826 -0.001672175 -0.7690532
vn -0.6756527 0.05200985 0.7353832
vn -0.5889994 0.362719 0.7221598
vn -0.6391826 -0.001672175 -0.7690532
vn -0.9984748 0.05201736 -0.0185022
vn -0.9503772 -0.3107937 -0.01379925
vn -0.6024376 -0.3182726 -0.7319642
vn -0.6007524 -0.1907754 0.7763384
vn -0.6756527 0.05200985 0.7353832
vn -0.6024376 -0.3182726 -0.7319642
vn -0.9503772 -0.3107937 -0.01379925
vn -0.8416852 -0.5294417 0.1061015
vn -0.6007524 -0.1907754 0.7763384
vn -0.5263155 -0.435127 -0.7305179
vn -0.8416852 -0.5294417 0.1061015
vn -0.7673232 -0.6411573 -0.01150973
vn -0.4114133 -0.3110191 0.8567416
vn -0.5654963 0.8122935 -0.1428047
vn -0.4793323 0.4774807 0.7363782
vn -0.7251628 0.6662486 -0.1739304
vn -0.192919 0.3993572 -0.8962678
vn -0.8416852 -0.5294417 0.1061015
vn -0.6007524 -0.1907754 0.7763384
vn -0.4114133 -0.3110191 0.8567416
vn -0.5263155 -0.435127 -0.7305179
vn -0.6024376 -0.3182726 -0.7319642
vn 0.5811049 0.3917027 -0.7133626
vn 0.7840874 0.6140603 0.09020497
vn 0.7091784 0.6976665 0.1016243
vn 0.3271874 0.4707554 0.819352
g meger3d_Char2_sundries_C6_7_0
f 3/3/3 2/2/2 1/1/1
f 4/4/4 3/3/3 1/1/1
f 3/3/3 5/5/5 2/2/2
f 5/5/5 6/6/6 2/2/2
f 7/7/7 3/3/3 4/4/4
f 8/8/8 7/7/7 4/4/4
f 9/9/9 5/5/5 3/3/3
f 7/7/7 9/9/9 3/3/3
f 12/12/12 11/11/11 10/10/10
f 13/13/13 12/12/12 10/10/10
f 14/14/14 12/12/12 13/13/13
f 15/15/15 14/14/14 13/13/13
f 12/12/12 16/16/16 11/11/11
f 16/16/16 17/17/17 11/11/11
f 18/18/18 16/16/16 12/12/12
f 14/14/14 18/18/18 12/12/12
f 21/21/21 20/20/20 19/19/19
f 23/23/23 22/22/22 20/20/20
f 26/26/26 25/25/25 24/24/24
f 26/26/26 27/27/27 25/25/25
f 30/30/30 29/29/29 28/28/28
f 31/31/31 30/30/30 28/28/28
f 30/30/30 32/32/32 29/29/29
f 32/32/32 33/33/33 29/29/29
f 36/36/36 35/35/35 34/34/34
f 37/37/37 36/36/36 34/34/34
f 36/36/36 38/38/38 35/35/35
f 38/38/38 39/39/39 35/35/35
f 42/42/42 41/41/41 40/40/40
f 42/42/42 43/43/43 41/41/41
f 46/46/46 45/45/45 44/44/44
f 48/48/48 47/47/47 45/45/45
f 51/51/51 50/50/50 49/49/49
f 49/49/49 52/52/52 51/51/51
f 55/55/55 54/54/54 53/53/53
f 57/57/57 56/56/56 54/54/54
f 60/60/60 59/59/59 58/58/58
f 60/60/60 61/61/61 59/59/59
f 64/64/64 63/63/63 62/62/62
f 65/65/65 64/64/64 62/62/62
f 64/64/64 66/66/66 63/63/63
f 66/66/66 67/67/67 63/63/63
f 70/70/70 69/69/69 68/68/68
f 71/71/71 70/70/70 68/68/68
f 70/70/70 72/72/72 69/69/69
f 72/72/72 73/73/73 69/69/69
f 76/76/76 75/75/75 74/74/74
f 76/76/76 77/77/77 75/75/75
f 80/80/80 79/79/79 78/78/78
f 80/80/80 81/81/81 79/79/79
f 84/84/84 83/83/83 82/82/82
f 82/82/82 85/85/85 84/84/84
f 88/88/88 87/87/87 86/86/86
f 90/90/90 89/89/89 86/86/86
f 93/93/93 92/92/92 91/91/91
f 93/93/93 94/94/94 92/92/92
