g meger3d_Char2_sundries_C6_1
v 0.01678586 0.2540895 -0.09700865
v -0.2454977 0.01269746 -0.07681477
v 0.007818107 -0.002461185 -0.07127777
v -0.1272316 0.2321524 -0.1036174
v -0.2169658 0.1554343 -0.08514009
v 0.2609712 -0.03595135 -0.07999383
v 0.2313673 0.1105546 -0.0876918
v 0.1534494 0.2058655 -0.09534473
v 0.0005638727 -0.2609206 -0.09147014
v 0.1388037 -0.2495433 -0.07656467
v 0.2220536 -0.1772276 -0.07191867
v -0.2255763 -0.1331076 -0.08761821
v -0.141493 -0.223673 -0.09484635
v 0.2512535 -0.03101139 0.08864151
v 0.001329329 -0.2658893 0.07798006
v -0.002293854 -0.006993941 0.09773671
v 0.2261536 -0.1747253 0.09734856
v 0.1427367 -0.2509272 0.09285789
v 0.01305344 0.2493008 0.07226142
v 0.1540888 0.2046134 0.07394591
v 0.2333157 0.1131436 0.08148926
v -0.2557389 0.005061416 0.0923239
v -0.2155122 0.1460733 0.08451936
v -0.1269735 0.2217403 0.06603985
v -0.1379413 -0.234217 0.07494284
v -0.2219737 -0.1425546 0.08212732
v -0.141493 -0.223673 -0.09484635
v -0.1629747 -0.2987012 -0.01176326
v -0.002036734 -0.3462954 0.001589109
v 0.0005638727 -0.2609206 -0.09147014
v 0.2220536 -0.1772276 -0.07191867
v 0.2982505 -0.1999805 0.0248781
v 0.3405736 -0.02815438 0.01099384
v 0.2609712 -0.03595135 -0.07999383
v 0.1534494 0.2058655 -0.09534473
v 0.173309 0.2814827 -0.01499888
v 0.01009568 0.345409 -0.01535453
v 0.01678586 0.2540895 -0.09700865
v -0.2169658 0.1554343 -0.08514009
v -0.2937813 0.18568 -0.006302238
v -0.3414008 0.01798071 -0.0005056233
v -0.2454977 0.01269746 -0.07681477
v 0.1388037 -0.2495433 -0.07656467
v 0.1604056 -0.3275146 0.01464728
v 0.2982505 -0.1999805 0.0248781
v 0.2220536 -0.1772276 -0.07191867
v -0.1379413 -0.234217 0.07494284
v -0.1629747 -0.2987012 -0.01176326
v -0.3015517 -0.1515511 -0.009886392
v -0.2219737 -0.1425546 0.08212732
v 0.2313673 0.1105546 -0.0876918
v 0.3070496 0.1361353 0.001665208
v 0.173309 0.2814827 -0.01499888
v 0.1534494 0.2058655 -0.09534473
v -0.1272316 0.2321524 -0.1036174
v -0.1505912 0.3108598 -0.02786428
v -0.2937813 0.18568 -0.006302238
v -0.2169658 0.1554343 -0.08514009
v 0.1604056 -0.3275146 0.01464728
v -0.002036734 -0.3462954 0.001589109
v 0.001329329 -0.2658893 0.07798006
v 0.1427367 -0.2509272 0.09285789
v 0.3070496 0.1361353 0.001665208
v 0.3405736 -0.02815438 0.01099384
v 0.2512535 -0.03101139 0.08864151
v 0.2333157 0.1131436 0.08148926
v -0.1505912 0.3108598 -0.02786428
v 0.01009568 0.345409 -0.01535453
v 0.01305344 0.2493008 0.07226142
v -0.1269735 0.2217403 0.06603985
v -0.3015517 -0.1515511 -0.009886392
v -0.3414008 0.01798071 -0.0005056233
v -0.2557389 0.005061416 0.0923239
v -0.2219737 -0.1425546 0.08212732
v 0.2982505 -0.1999805 0.0248781
v 0.1604056 -0.3275146 0.01464728
v 0.1427367 -0.2509272 0.09285789
v 0.2261536 -0.1747253 0.09734856
v -0.3015517 -0.1515511 -0.009886392
v -0.1629747 -0.2987012 -0.01176326
v -0.141493 -0.223673 -0.09484635
v -0.2255763 -0.1331076 -0.08761821
v 0.173309 0.2814827 -0.01499888
v 0.3070496 0.1361353 0.001665208
v 0.2333157 0.1131436 0.08148926
v 0.1540888 0.2046134 0.07394591
v -0.2937813 0.18568 -0.006302238
v -0.1505912 0.3108598 -0.02786428
v -0.1269735 0.2217403 0.06603985
v -0.2155122 0.1460733 0.08451936
v 0.0005638727 -0.2609206 -0.09147014
v -0.002036734 -0.3462954 0.001589109
v 0.1604056 -0.3275146 0.01464728
v 0.1388037 -0.2495433 -0.07656467
v 0.2609712 -0.03595135 -0.07999383
v 0.3405736 -0.02815438 0.01099384
v 0.3070496 0.1361353 0.001665208
v 0.2313673 0.1105546 -0.0876918
v 0.01678586 0.2540895 -0.09700865
v 0.01009568 0.345409 -0.01535453
v -0.1505912 0.3108598 -0.02786428
v -0.1272316 0.2321524 -0.1036174
v -0.2454977 0.01269746 -0.07681477
v -0.3414008 0.01798071 -0.0005056233
v -0.3015517 -0.1515511 -0.009886392
v -0.2255763 -0.1331076 -0.08761821
v 0.001329329 -0.2658893 0.07798006
v -0.002036734 -0.3462954 0.001589109
v -0.1629747 -0.2987012 -0.01176326
v -0.1379413 -0.234217 0.07494284
v 0.2512535 -0.03101139 0.08864151
v 0.3405736 -0.02815438 0.01099384
v 0.2982505 -0.1999805 0.0248781
v 0.2261536 -0.1747253 0.09734856
v 0.01305344 0.2493008 0.07226142
v 0.01009568 0.345409 -0.01535453
v 0.173309 0.2814827 -0.01499888
v 0.1540888 0.2046134 0.07394591
v -0.2557389 0.005061416 0.0923239
v -0.3414008 0.01798071 -0.0005056233
v -0.2937813 0.18568 -0.006302238
v -0.2155122 0.1460733 0.08451936
vt 0.3116066 0.9166445
vt 0.3116066 0.907226
vt 0.3116066 0.8673226
vt 0.3116066 0.933391
vt 0.3116066 0.9311592
vt 0.3116066 0.7923315
vt 0.3116066 0.8516756
vt 0.3116066 0.8872876
vt 0.3116066 0.7815121
vt 0.3116066 0.7491028
vt 0.3116066 0.7526763
vt 0.3116066 0.8759037
vt 0.3116066 0.8317041
vt 0.3116066 0.792447
vt 0.3116066 0.7753963
vt 0.3116066 0.8655829
vt 0.3116066 0.7483191
vt 0.3116066 0.7434207
vt 0.3116066 0.9139233
vt 0.3116066 0.8846228
vt 0.3116066 0.8479112
vt 0.3116066 0.9048951
vt 0.3116066 0.9267821
vt 0.3116066 0.9289814
vt 0.3116066 0.8228963
vt 0.3116066 0.8711959
vt 0.3116066 0.7274161
vt 0.3116066 0.8138601
vt 0.3116066 0.9147277
vt 0.3116066 0.8502906
vt 0.3116066 0.7463885
vt 0.3116066 0.8193656
vt 0.3116066 0.9219715
vt 0.3116066 0.866846
vt 0.3116066 0.7510419
vt 0.3116066 0.8322249
vt 0.3116066 0.9279624
vt 0.3116066 0.8686633
vt 0.3116066 0.7512971
vt 0.3116066 0.8230972
vt 0.3116066 0.9225362
vt 0.3116066 0.8692851
vt 0.3116066 0.7610467
vt 0.3116066 0.8148273
vt 0.3116066 0.9242963
vt 0.3116066 0.8534054
vt 0.3116066 0.7463656
vt 0.3116066 0.8091112
vt 0.3116066 0.9276403
vt 0.3116066 0.8498796
vt 0.3116066 0.7609169
vt 0.3116066 0.8080831
vt 0.3116066 0.9253559
vt 0.3116066 0.8636245
vt 0.3116066 0.7681629
vt 0.3116066 0.8222871
vt 0.3116066 0.9296319
vt 0.3116066 0.8657216
vt 0.3116066 0.8339612
vt 0.3116066 0.9234372
vt 0.3116066 0.8671252
vt 0.3116066 0.7509075
vt 0.3116066 0.834966
vt 0.3116066 0.9260836
vt 0.3116066 0.8786252
vt 0.3116066 0.7682948
vt 0.3116066 0.8259028
vt 0.3116066 0.9197537
vt 0.3116066 0.866878
vt 0.3116066 0.7494769
vt 0.3116066 0.8315617
vt 0.3116066 0.9265633
vt 0.3116066 0.9138414
vt 0.3116066 0.7460856
vt 0.3116066 0.8221169
vt 0.3116066 0.928365
vt 0.3116066 0.8661581
vt 0.3116066 0.7732295
vt 0.3116066 0.8161258
vt 0.3116066 0.9315554
vt 0.3116066 0.8664564
vt 0.3116066 0.7654167
vt 0.3116066 0.8202184
vt 0.3116066 0.9321291
vt 0.3116066 0.8717169
vt 0.3116066 0.7765087
vt 0.3116066 0.8125574
vt 0.3116066 0.9242014
vt 0.3116066 0.8578241
vt 0.3116066 0.7603197
vt 0.3116066 0.7577729
vt 0.3116066 0.8236559
vt 0.3116066 0.9176856
vt 0.3116066 0.8691458
vt 0.3116066 0.7422993
vt 0.3116066 0.8189149
vt 0.3116066 0.9171248
vt 0.3116066 0.8658639
vt 0.3116066 0.7620202
vt 0.3116066 0.8302557
vt 0.3116066 0.9221833
vt 0.3116066 0.8751249
vt 0.3116066 0.7475004
vt 0.3116066 0.8180552
vt 0.3116066 0.9190248
vt 0.3116066 0.8675097
vt 0.3116066 0.7776993
vt 0.3116066 0.8450375
vt 0.3116066 0.9321291
vt 0.3116066 0.8824366
vt 0.3116066 0.7642469
vt 0.3116066 0.8262823
vt 0.3116066 0.9258319
vt 0.3116066 0.8766447
vt 0.3116066 0.7638947
vt 0.3116066 0.8155484
vt 0.3116066 0.9186546
vt 0.3116066 0.8772956
vt 0.3116066 0.8264865
vt 0.3116066 0.8252706
vt 0.3116066 0.9237491
vt 0.3116066 0.8660474
vn -0.007868521 -0.09706657 -0.9952468
vn 0.01948665 -0.01533115 -0.9996926
vn -0.007524539 -0.01272697 -0.9998907
vn 0.0009919299 -0.1217586 -0.9925593
vn 0.0009919299 -0.1217586 -0.9925593
vn 0.006090593 -0.03286026 -0.9994413
vn 0.001357306 -0.06275283 -0.9980281
vn 0.001357306 -0.06275283 -0.9980281
vn 0.0342392 0.04431019 -0.9984309
vn 0.1190654 -0.08398486 -0.9893281
vn 0.1190654 -0.08398485 -0.9893281
vn 0.03455064 0.09112462 -0.99524
vn 0.03455064 0.0911246 -0.99524
vn -0.006697631 0.03334897 0.9994214
vn -0.0313387 -0.04320978 0.9985744
vn 0.007483068 0.01230291 0.9998963
vn -0.116276 0.07636238 0.9902771
vn -0.116276 0.07636238 0.9902771
vn 0.006836852 0.09497411 0.9954562
vn -0.004475867 0.06040839 0.9981638
vn -0.004475867 0.06040839 0.9981638
vn -0.01851425 0.01561191 0.9997067
vn -0.001566948 0.1213389 0.9926099
vn -0.001566948 0.1213389 0.9926099
vn -0.02947038 -0.08684179 0.9957861
vn -0.02947038 -0.08684179 0.9957861
vn -0.1637449 -0.7181414 -0.6763582
vn -0.2593254 -0.9640928 -0.05723102
vn -0.07754053 -0.9969293 0.01092325
vn -0.02216642 -0.7341433 -0.6786327
vn 0.7385636 -0.2359291 -0.6315547
vn 0.9702445 -0.2225923 0.09527916
vn 0.9988638 -0.01517972 0.0451736
vn 0.7520549 -0.06630246 -0.6557571
vn 0.2528602 0.6634377 -0.7042102
vn 0.3432114 0.9392293 -0.007365516
vn 0.06432042 0.9979097 0.0062443
vn 0.0985994 0.6758272 -0.7304354
vn -0.6486625 0.1249681 -0.7507463
vn -0.964189 0.2507647 -0.08635207
vn -0.9990716 0.0338103 -0.0266963
vn -0.658873 0.02231131 -0.7519233
vn 0.5590775 -0.5739713 -0.5983221
vn 0.5590775 -0.5739712 -0.5983221
vn 0.5590775 -0.5739713 -0.5983221
vn 0.5590775 -0.5739713 -0.5983221
vn -0.5864075 -0.5685138 0.5769909
vn -0.5864075 -0.5685137 0.5769909
vn -0.5864075 -0.5685137 0.5769909
vn -0.5864075 -0.5685138 0.5769909
vn 0.6138392 0.4762542 -0.62959
vn 0.6138392 0.4762542 -0.62959
vn 0.6138391 0.4762542 -0.62959
vn 0.6138392 0.4762542 -0.62959
vn -0.5382006 0.4840848 -0.6899291
vn -0.5382005 0.4840848 -0.6899291
vn -0.5382005 0.4840848 -0.6899291
vn -0.5382006 0.4840848 -0.6899291
vn 0.0982286 -0.9920758 0.07833832
vn -0.07754053 -0.9969293 0.01092325
vn -0.1043445 -0.7100809 0.6963457
vn 0.01229584 -0.7010365 0.7130194
vn 0.9827755 0.1835662 0.02134962
vn 0.9988638 -0.01517972 0.0451736
vn 0.6777269 0.02471454 0.7348983
vn 0.6742098 0.1511141 0.7229148
vn -0.1888788 0.980935 -0.04572912
vn 0.06432042 0.9979097 0.0062443
vn 0.03841501 0.6943766 0.7185858
vn -0.1838372 0.6744127 0.7151024
vn -0.9771836 -0.201796 -0.06626152
vn -0.9990716 0.0338103 -0.0266963
vn -0.7309515 -0.001079694 0.6824285
vn -0.7311525 -0.2097825 0.649159
vn 0.478718 -0.5682576 0.6692625
vn 0.4787179 -0.5682577 0.6692626
vn 0.478718 -0.5682576 0.6692625
vn 0.4787179 -0.5682577 0.6692626
vn -0.5711991 -0.5104019 -0.6428231
vn -0.5711991 -0.510402 -0.642823
vn -0.5711991 -0.510402 -0.6428231
vn -0.5711991 -0.510402 -0.642823
vn 0.5453007 0.5546306 0.6285157
vn 0.5453007 0.5546306 0.6285157
vn 0.5453007 0.5546306 0.6285157
vn 0.5453007 0.5546306 0.6285157
vn -0.4213682 0.6184043 0.6633438
vn -0.4213682 0.6184043 0.6633438
vn -0.4213682 0.6184043 0.6633438
vn -0.4213682 0.6184043 0.6633438
vn -0.02216642 -0.7341433 -0.6786327
vn -0.07754053 -0.9969293 0.01092325
vn 0.0982286 -0.9920758 0.07833832
vn 0.1355098 -0.7344374 -0.6650104
vn 0.7520549 -0.06630246 -0.6557571
vn 0.9988638 -0.01517972 0.0451736
vn 0.9827755 0.1835662 0.02134962
vn 0.7422188 0.1145839 -0.6602892
vn 0.0985994 0.6758272 -0.7304354
vn 0.06432042 0.9979097 0.0062443
vn -0.1888788 0.980935 -0.04572912
vn -0.07784536 0.6698452 -0.7384087
vn -0.658873 0.02231131 -0.7519233
vn -0.9990716 0.0338103 -0.0266963
vn -0.9771836 -0.201796 -0.06626152
vn -0.6620768 -0.0777823 -0.7453887
vn -0.1043445 -0.7100809 0.6963457
vn -0.07754053 -0.9969293 0.01092325
vn -0.2593254 -0.9640928 -0.05723102
vn -0.2237121 -0.708988 0.6687965
vn 0.6777269 0.02471454 0.7348983
vn 0.9988638 -0.01517972 0.0451736
vn 0.9702445 -0.2225923 0.09527916
vn 0.6714146 -0.09080607 0.7354977
vn 0.03841501 0.6943766 0.7185858
vn 0.06432042 0.9979097 0.0062443
vn 0.3432114 0.9392293 -0.007365516
vn 0.2390203 0.6825171 0.6906807
vn -0.7309515 -0.001079694 0.6824285
vn -0.9990716 0.0338103 -0.0266963
vn -0.964189 0.2507647 -0.08635207
vn -0.693266 0.2274038 0.6838638
g meger3d_Char2_sundries_C6_1_0
f 3/3/3 2/2/2 1/1/1
f 4/4/4 1/1/1 2/2/2
f 5/5/5 4/4/4 2/2/2
f 6/6/6 3/3/3 1/1/1
f 7/7/7 6/6/6 1/1/1
f 8/8/8 7/7/7 1/1/1
f 9/9/9 3/3/3 6/6/6
f 9/9/9 2/2/2 3/3/3
f 10/10/10 9/9/9 6/6/6
f 11/11/11 10/10/10 6/6/6
f 12/12/12 2/2/2 9/9/9
f 13/13/13 12/12/12 9/9/9
f 16/16/16 15/15/15 14/14/14
f 17/17/17 14/14/14 15/15/15
f 18/18/18 17/17/17 15/15/15
f 19/19/19 16/16/16 14/14/14
f 20/20/20 19/19/19 14/14/14
f 21/21/21 20/20/20 14/14/14
f 22/22/22 16/16/16 19/19/19
f 22/22/22 15/15/15 16/16/16
f 23/23/23 22/22/22 19/19/19
f 24/24/24 23/23/23 19/19/19
f 25/25/25 15/15/15 22/22/22
f 26/26/26 25/25/25 22/22/22
f 29/29/29 28/28/28 27/27/27
f 30/30/30 29/29/29 27/27/27
f 33/33/33 32/32/32 31/31/31
f 34/34/34 33/33/33 31/31/31
f 37/37/37 36/36/36 35/35/35
f 38/38/38 37/37/37 35/35/35
f 41/41/41 40/40/40 39/39/39
f 42/42/42 41/41/41 39/39/39
f 45/45/45 44/44/44 43/43/43
f 46/46/46 45/45/45 43/43/43
f 49/49/49 48/48/48 47/47/47
f 50/50/50 49/49/49 47/47/47
f 53/53/53 52/52/52 51/51/51
f 54/54/54 53/53/53 51/51/51
f 57/57/57 56/56/56 55/55/55
f 58/58/58 57/57/57 55/55/55
f 61/61/61 60/60/60 59/59/59
f 62/62/62 61/61/61 59/59/59
f 65/65/65 64/64/64 63/63/63
f 66/66/66 65/65/65 63/63/63
f 69/69/69 68/68/68 67/67/67
f 70/70/70 69/69/69 67/67/67
f 73/73/73 72/72/72 71/71/71
f 74/74/74 73/73/73 71/71/71
f 77/77/77 76/76/76 75/75/75
f 78/78/78 77/77/77 75/75/75
f 81/81/81 80/80/80 79/79/79
f 82/82/82 81/81/81 79/79/79
f 85/85/85 84/84/84 83/83/83
f 86/86/86 85/85/85 83/83/83
f 89/89/89 88/88/88 87/87/87
f 90/90/90 89/89/89 87/87/87
f 93/93/93 92/92/92 91/91/91
f 94/94/94 93/93/93 91/91/91
f 97/97/97 96/96/96 95/95/95
f 98/98/98 97/97/97 95/95/95
f 101/101/101 100/100/100 99/99/99
f 102/102/102 101/101/101 99/99/99
f 105/105/105 104/104/104 103/103/103
f 106/106/106 105/105/105 103/103/103
f 109/109/109 108/108/108 107/107/107
f 110/110/110 109/109/109 107/107/107
f 113/113/113 112/112/112 111/111/111
f 114/114/114 113/113/113 111/111/111
f 117/117/117 116/116/116 115/115/115
f 118/118/118 117/117/117 115/115/115
f 121/121/121 120/120/120 119/119/119
f 122/122/122 121/121/121 119/119/119
