g meger3d_Char_sundries_C15_2
v 0.2092345 -0.2715825 0.1514245
v -0.05199212 0.1112429 0.3541008
v 0.2829233 0.0680015 0.2362113
v -0.125681 -0.2283411 0.2693141
v -0.1308428 -0.2266041 0.2668431
v -0.1277543 -0.2311303 0.2644469
v -0.05715393 0.1129799 0.3516299
v -0.05232298 0.1164836 0.3512385
v 0.2071611 -0.2743716 0.1465574
v 0.2119921 -0.2708679 0.146166
v 0.2856809 0.06871606 0.2309527
v 0.2825925 0.07324222 0.233349
v 0.06582765 -0.1253507 -0.3096208
v -0.1953989 0.2574747 -0.1069445
v -0.2690878 -0.08210935 -0.1917313
v 0.1395165 0.2142333 -0.224834
v 0.1415899 0.2170225 -0.219967
v 0.1446784 0.2124963 -0.2223632
v -0.1933256 0.2602638 -0.1020775
v -0.1981566 0.2567602 -0.1016861
v 0.07098949 -0.1270877 -0.3071499
v 0.06615853 -0.1305914 -0.3067585
v -0.2687569 -0.08735005 -0.1888691
v -0.2718454 -0.08282387 -0.1864728
v 0.1968403 0.1606837 -0.04233983
v -0.1199223 0.1854146 0.1339102
v -0.1380752 0.2039251 0.07554963
v 0.2149932 0.1421732 0.01602078
v 0.1415899 0.2170225 -0.219967
v -0.1933256 0.2602638 -0.1020775
v -0.05232298 0.1164836 0.3512385
v 0.2825925 0.07324222 0.233349
v 0.1262398 -0.1834265 -0.1295229
v 0.2180817 0.137647 0.01362452
v 0.1999287 0.1561575 -0.04473607
v 0.1443927 -0.201937 -0.07116226
v 0.1214089 -0.1869302 -0.1291315
v 0.1395618 -0.2054407 -0.07077086
v -0.2135066 -0.1436888 -0.01124201
v -0.1953537 -0.1621993 0.04711862
v -0.2165951 -0.1391626 -0.008845759
v -0.1984421 -0.1576731 0.04951488
v -0.1429061 0.2004214 0.07594106
v -0.1247532 0.1819109 0.1343017
v 0.07098949 -0.1270877 -0.3071499
v 0.1446784 0.2124963 -0.2223632
v 0.2856809 0.06871606 0.2309527
v 0.2119921 -0.2708679 0.146166
v -0.2687569 -0.08735005 -0.1888691
v 0.06615853 -0.1305914 -0.3067585
v 0.2071611 -0.2743716 0.1465574
v -0.1277543 -0.2311303 0.2644469
v -0.1981566 0.2567602 -0.1016861
v -0.2718454 -0.08282387 -0.1864728
v -0.1308428 -0.2266041 0.2668431
v -0.05715393 0.1129799 0.3516299
v 0.1999287 0.1561575 -0.04473607
v 0.2149932 0.1421732 0.01602078
v 0.1968403 0.1606837 -0.04233983
v 0.2180817 0.137647 0.01362452
v 0.1446784 0.2124963 -0.2223632
v 0.1415899 0.2170225 -0.219967
v 0.2825925 0.07324222 0.233349
v 0.2856809 0.06871606 0.2309527
v -0.1247532 0.1819109 0.1343017
v -0.1380752 0.2039251 0.07554963
v -0.1199223 0.1854146 0.1339102
v -0.1429061 0.2004214 0.07594106
v -0.05715393 0.1129799 0.3516299
v -0.05232298 0.1164836 0.3512385
v -0.1933256 0.2602638 -0.1020775
v -0.1981566 0.2567602 -0.1016861
v -0.09648304 0.2346992 -0.1981938
v -0.1038594 0.2306223 -0.1435796
v -0.1177869 0.2448242 -0.1883559
v -0.08255551 0.2204973 -0.1534176
v -0.08060399 0.2175695 -0.2085661
v -0.06667646 0.2033676 -0.1637898
v -0.07206501 0.1955011 -0.2182216
v -0.05813748 0.1812992 -0.1734454
v -0.07189602 0.1711559 -0.2259959
v -0.0579685 0.156954 -0.1812196
v -0.08011744 0.1474702 -0.2309511
v -0.0661899 0.1332684 -0.1861748
v -0.0957376 0.127301 -0.2324897
v -0.08181006 0.1130991 -0.1877134
v -0.1168725 0.1130808 -0.230426
v -0.102945 0.09887891 -0.1856497
v -0.140973 0.1065249 -0.225009
v -0.1270454 0.092323 -0.1802327
v -0.1651321 0.108424 -0.2168921
v -0.1512046 0.09422208 -0.1721157
v -0.186436 0.118549 -0.2070542
v -0.1725084 0.1043471 -0.1622778
v -0.2023151 0.1356787 -0.1966819
v -0.1883875 0.1214768 -0.1519056
v -0.210854 0.1577471 -0.1870264
v -0.1969265 0.1435452 -0.1422501
v -0.211023 0.1820923 -0.1792521
v -0.1970955 0.1678904 -0.1344758
v -0.2028016 0.2057779 -0.1742969
v -0.1888741 0.191576 -0.1295206
v -0.1871815 0.2259472 -0.1727583
v -0.1732539 0.2117453 -0.127982
v -0.1660466 0.2401674 -0.1748219
v -0.152119 0.2259655 -0.1300456
v -0.1419461 0.2467233 -0.1802389
v -0.152119 0.2259655 -0.1300456
v -0.1660466 0.2401674 -0.1748219
v -0.1280186 0.2325214 -0.1354626
v -0.1871815 0.2259472 -0.1727583
v -0.1419461 0.2467233 -0.1802389
v -0.1660466 0.2401674 -0.1748219
v -0.07206501 0.1955011 -0.2182216
v -0.09648304 0.2346992 -0.1981938
v -0.1177869 0.2448242 -0.1883559
v -0.08060399 0.2175695 -0.2085661
v -0.1168725 0.1130808 -0.230426
v -0.08011744 0.1474702 -0.2309511
v -0.07189602 0.1711559 -0.2259959
v -0.0957376 0.127301 -0.2324897
v -0.2023151 0.1356787 -0.1966819
v -0.1651321 0.108424 -0.2168921
v -0.140973 0.1065249 -0.225009
v -0.186436 0.118549 -0.2070542
v -0.211023 0.1820923 -0.1792521
v -0.210854 0.1577471 -0.1870264
v -0.2028016 0.2057779 -0.1742969
vt 0.4376817 0.2842416
vt 0.4669815 0.2549341
vt 0.4376771 0.2549372
vt 0.4669861 0.2842385
vt 0.4674563 0.2843212
vt 0.4670733 0.2847085
vt 0.4674509 0.2548523
vt 0.4670632 0.2544647
vt 0.4375943 0.284711
vt 0.4372122 0.2843234
vt 0.4372067 0.2548545
vt 0.4375955 0.2544672
vt 0.4376861 0.336555
vt 0.4669913 0.3658588
vt 0.4669898 0.3365549
vt 0.4376848 0.3658588
vt 0.4376026 0.366329
vt 0.4372137 0.3659405
vt 0.4670736 0.3663289
vt 0.4674625 0.3659405
vt 0.4372168 0.3364733
vt 0.4375986 0.3360862
vt 0.4670773 0.336085
vt 0.4674591 0.3364731
vt 0.4081009 0.3158723
vt 0.3786103 0.3106095
vt 0.3786107 0.3158747
vt 0.4081005 0.3106071
vt 0.4081025 0.3360845
vt 0.3786123 0.3360868
vt 0.3786081 0.284711
vt 0.4080984 0.2847086
vt 0.4375912 0.3158723
vt 0.4081005 0.3106095
vt 0.4081009 0.3158747
vt 0.4375907 0.3106071
vt 0.4375969 0.3158743
vt 0.4375964 0.3106092
vt 0.4670757 0.3158726
vt 0.4670753 0.3106074
vt 0.4670814 0.3158747
vt 0.467081 0.3106095
vt 0.4965717 0.3158723
vt 0.4965713 0.3106072
vt 0.4375928 0.3360845
vt 0.4081025 0.3360868
vt 0.4080984 0.284711
vt 0.4375887 0.2847086
vt 0.4670773 0.336085
vt 0.4375986 0.3360862
vt 0.4375943 0.284711
vt 0.4670733 0.2847085
vt 0.4965733 0.3360845
vt 0.4670831 0.3360868
vt 0.4670789 0.2847109
vt 0.4965693 0.2847086
vt 0.4081009 0.3158747
vt 0.4081005 0.3106071
vt 0.4081009 0.3158723
vt 0.4081005 0.3106095
vt 0.4081025 0.3360868
vt 0.4081025 0.3360845
vt 0.4080984 0.2847086
vt 0.4080984 0.284711
vt 0.3786103 0.3106072
vt 0.3786107 0.3158747
vt 0.3786103 0.3106095
vt 0.3786107 0.3158723
vt 0.3786081 0.2847086
vt 0.3786081 0.284711
vt 0.3786123 0.3360868
vt 0.3786123 0.3360845
vt 0.4262582 0.3395956
vt 0.4295075 0.3464591
vt 0.4295076 0.3395958
vt 0.4262581 0.3464591
vt 0.4230087 0.3395955
vt 0.4230086 0.346459
vt 0.4197591 0.3395954
vt 0.419759 0.346459
vt 0.4165095 0.3395953
vt 0.4165094 0.346459
vt 0.4132598 0.3395952
vt 0.4132597 0.3464591
vt 0.4100101 0.339595
vt 0.41001 0.3464591
vt 0.4067603 0.3395949
vt 0.4067602 0.3464591
vt 0.4035104 0.3395948
vt 0.4035103 0.3464591
vt 0.4002605 0.3395947
vt 0.4002604 0.3464592
vt 0.3970104 0.3395946
vt 0.3970104 0.3464592
vt 0.3937604 0.3395946
vt 0.3937603 0.3464592
vt 0.3905103 0.3395945
vt 0.3905102 0.3464592
vt 0.3872601 0.3395944
vt 0.38726 0.3464592
vt 0.3840099 0.3395943
vt 0.3840099 0.3464592
vt 0.3807597 0.3395943
vt 0.3807597 0.3464592
vt 0.3775095 0.3395942
vt 0.3775094 0.3464592
vt 0.432757 0.3395958
vt 0.4360063 0.3464592
vt 0.4360065 0.3395959
vt 0.4327569 0.3464591
vt 0.3951395 0.3495126
vt 0.3998614 0.3551399
vt 0.3979966 0.35191
vt 0.3951395 0.3681131
vt 0.3998614 0.3624859
vt 0.400509 0.3588129
vt 0.3979966 0.3657158
vt 0.3815434 0.3657158
vt 0.3879052 0.3693888
vt 0.3916348 0.3693888
vt 0.3844005 0.3681132
vt 0.3815434 0.35191
vt 0.379031 0.3588129
vt 0.3796786 0.3624859
vt 0.3796786 0.3551399
vt 0.3879052 0.348237
vt 0.3844005 0.3495126
vt 0.3916348 0.348237
vn 0.4979402 -0.6186911 0.6076815
vn -0.005681993 0.1187468 0.9929084
vn 0.6440184 0.03486323 0.7642152
vn -0.1414678 -0.5424884 0.828066
vn -0.7932494 -0.3231545 0.5160683
vn -0.4027214 -0.889468 0.2160144
vn -0.652859 0.3360324 0.6788648
vn -0.04914422 0.7731369 0.6323324
vn 0.2455515 -0.9693772 0.003518651
vn 0.8445799 -0.5333449 -0.04720118
vn 0.9875196 0.1188125 0.1033849
vn 0.6023612 0.6890202 0.403004
vn -0.0002116326 -0.1107258 -0.9938509
vn -0.4930854 0.6106606 -0.6196456
vn -0.6383435 -0.02833588 -0.7692299
vn 0.1273306 0.5305579 -0.8380306
vn 0.4082938 0.8909146 -0.1989155
vn 0.804601 0.3101299 -0.5063958
vn -0.2287279 0.9731612 0.02531477
vn -0.8486218 0.5235795 0.07553507
vn 0.6644422 -0.3357714 -0.6676632
vn 0.0445481 -0.7853532 -0.617443
vn -0.5924735 -0.7031065 -0.3932127
vn -0.9887807 -0.1223219 -0.08573242
vn 0.5486624 0.8308699 0.09287088
vn -0.1679903 0.9233979 0.3451312
vn -0.1679903 0.9233979 0.3451312
vn 0.5486618 0.8308702 0.09287101
vn 0.5486618 0.8308702 0.09287124
vn -0.1679898 0.923398 0.3451311
vn -0.1679911 0.9233978 0.3451313
vn 0.548662 0.83087 0.09287102
vn 0.7862363 -0.475011 -0.3952179
vn 0.9439149 0.2516301 -0.2137915
vn 0.9439152 0.2516291 -0.2137918
vn 0.7862363 -0.4750109 -0.3952179
vn 0.1679911 -0.9233977 -0.3451314
vn 0.1679912 -0.9233977 -0.3451314
vn -0.5486611 -0.8308706 -0.09287152
vn -0.548661 -0.8308706 -0.09287156
vn -0.9439148 -0.2516308 0.2137912
vn -0.9439148 -0.2516307 0.2137912
vn -0.7862358 0.4750115 0.395218
vn -0.7862357 0.4750118 0.3952179
vn 0.7862357 -0.4750117 -0.3952179
vn 0.9439152 0.2516296 -0.2137916
vn 0.9439151 0.2516299 -0.2137915
vn 0.7862363 -0.475011 -0.3952179
vn -0.5486618 -0.8308702 -0.09287117
vn 0.1679903 -0.9233979 -0.3451312
vn 0.1679911 -0.9233978 -0.3451314
vn -0.5486618 -0.8308702 -0.09287117
vn -0.7862357 0.4750117 0.395218
vn -0.9439151 -0.2516301 0.2137913
vn -0.9439151 -0.2516299 0.2137915
vn -0.7862358 0.4750115 0.395218
vn 0.9439152 0.2516291 -0.2137918
vn 0.5486618 0.8308702 0.09287101
vn 0.5486624 0.8308699 0.09287088
vn 0.9439149 0.2516301 -0.2137915
vn 0.9439152 0.2516296 -0.2137916
vn 0.5486618 0.8308702 0.09287124
vn 0.548662 0.83087 0.09287102
vn 0.9439151 0.2516299 -0.2137915
vn -0.7862357 0.4750118 0.3952179
vn -0.1679903 0.9233979 0.3451312
vn -0.1679903 0.9233979 0.3451312
vn -0.7862358 0.4750115 0.395218
vn -0.7862358 0.4750115 0.395218
vn -0.1679911 0.9233978 0.3451313
vn -0.1679898 0.923398 0.3451311
vn -0.7862357 0.4750117 0.395218
vn 0.2743846 0.7864705 -0.5533328
vn 0.3241502 0.9261261 0.1929177
vn 0.0570059 0.891265 -0.4498856
vn 0.6109962 0.789333 0.06030776
vn 0.4395708 0.6111917 -0.6581962
vn 0.8287613 0.5535295 -0.08221825
vn 0.5266973 0.3851177 -0.7578088
vn 0.9426151 0.2586194 -0.2111702
vn 0.5294303 0.1372185 -0.8371826
vn 0.945831 -0.07115415 -0.3167662
vn 0.4445167 -0.10735 -0.8893148
vn 0.8328192 -0.3975829 -0.3851492
vn 0.2848849 -0.3161853 -0.9049129
vn 0.6212263 -0.6703472 -0.4058477
vn 0.06617477 -0.4629046 -0.8839346
vn 0.3329867 -0.8640163 -0.3776186
vn -0.1808227 -0.5299764 -0.8285096
vn 0.009949668 -0.9522596 -0.3051274
vn -0.4287625 -0.5108134 -0.7451392
vn -0.3210173 -0.9269581 -0.1941561
vn -0.6498141 -0.406 -0.6425773
vn -0.6116734 -0.7888364 -0.05993964
vn -0.8121512 -0.2302657 -0.536086
vn -0.828973 -0.5531864 0.08239296
vn -0.8985702 -0.003902814 -0.4388123
vn -0.9425963 -0.2587184 0.2111329
vn -0.900092 0.2462164 -0.3594607
vn -0.9452136 0.0748669 0.3177518
vn -0.8165082 0.4875677 -0.3091799
vn -0.8358758 0.3919405 0.3843102
vn -0.6569659 0.696205 -0.2892997
vn -0.6219525 0.6696674 0.405858
vn -0.440938 0.8403859 -0.3151591
vn -0.3330409 0.8639914 0.3776275
vn -0.191524 0.9096583 -0.3685655
vn -0.3330409 0.8639914 0.3776275
vn -0.440938 0.8403859 -0.3151591
vn -0.004921278 0.9527491 0.3037185
vn -0.6569659 0.696205 -0.2892997
vn -0.191524 0.9096583 -0.3685655
vn -0.440938 0.8403859 -0.3151591
vn 0.5266973 0.3851177 -0.7578088
vn 0.2743846 0.7864705 -0.5533328
vn 0.0570059 0.891265 -0.4498856
vn 0.4395708 0.6111917 -0.6581962
vn 0.06617477 -0.4629046 -0.8839346
vn 0.4445167 -0.10735 -0.8893148
vn 0.5294303 0.1372185 -0.8371826
vn 0.2848849 -0.3161853 -0.9049129
vn -0.8121512 -0.2302657 -0.536086
vn -0.4287625 -0.5108134 -0.7451392
vn -0.1808227 -0.5299764 -0.8285096
vn -0.6498141 -0.406 -0.6425773
vn -0.900092 0.2462164 -0.3594607
vn -0.8985702 -0.003902814 -0.4388123
vn -0.8165082 0.4875677 -0.3091799
g meger3d_Char_sundries_C15_2_0
f 3/3/3 2/2/2 1/1/1
f 4/4/4 1/1/1 2/2/2
f 4/4/4 2/2/2 5/5/5
f 6/6/6 4/4/4 5/5/5
f 7/7/7 5/5/5 2/2/2
f 7/7/7 2/2/2 8/8/8
f 2/2/2 3/3/3 8/8/8
f 1/1/1 4/4/4 9/9/9
f 6/6/6 9/9/9 4/4/4
f 9/9/9 10/10/10 1/1/1
f 3/3/3 1/1/1 11/11/11
f 10/10/10 11/11/11 1/1/1
f 11/11/11 12/12/12 3/3/3
f 12/12/12 8/8/8 3/3/3
f 15/15/15 14/14/14 13/13/13
f 16/16/16 13/13/13 14/14/14
f 16/16/16 14/14/14 17/17/17
f 16/16/16 17/17/17 18/18/18
f 19/19/19 17/17/17 14/14/14
f 14/14/14 20/20/20 19/19/19
f 14/14/14 15/15/15 20/20/20
f 13/13/13 16/16/16 21/21/21
f 18/18/18 21/21/21 16/16/16
f 13/13/13 21/21/21 22/22/22
f 15/15/15 13/13/13 23/23/23
f 22/22/22 23/23/23 13/13/13
f 15/15/15 23/23/23 24/24/24
f 24/24/24 20/20/20 15/15/15
f 27/27/27 26/26/26 25/25/25
f 28/28/28 25/25/25 26/26/26
f 25/25/25 29/29/29 27/27/27
f 30/30/30 27/27/27 29/29/29
f 26/26/26 31/31/31 28/28/28
f 32/32/32 28/28/28 31/31/31
f 35/35/35 34/34/34 33/33/33
f 36/36/36 33/33/33 34/34/34
f 33/33/33 36/36/36 37/37/37
f 38/38/38 37/37/37 36/36/36
f 37/37/37 38/38/38 39/39/39
f 40/40/40 39/39/39 38/38/38
f 39/39/39 40/40/40 41/41/41
f 42/42/42 41/41/41 40/40/40
f 41/41/41 42/42/42 43/43/43
f 44/44/44 43/43/43 42/42/42
f 33/33/33 45/45/45 35/35/35
f 46/46/46 35/35/35 45/45/45
f 34/34/34 47/47/47 36/36/36
f 48/48/48 36/36/36 47/47/47
f 36/36/36 48/48/48 38/38/38
f 39/39/39 49/49/49 37/37/37
f 50/50/50 37/37/37 49/49/49
f 38/38/38 51/51/51 40/40/40
f 51/51/51 38/38/38 48/48/48
f 52/52/52 40/40/40 51/51/51
f 40/40/40 52/52/52 42/42/42
f 43/43/43 53/53/53 41/41/41
f 54/54/54 41/41/41 53/53/53
f 49/49/49 39/39/39 54/54/54
f 41/41/41 54/54/54 39/39/39
f 42/42/42 55/55/55 44/44/44
f 55/55/55 42/42/42 52/52/52
f 56/56/56 44/44/44 55/55/55
f 45/45/45 33/33/33 50/50/50
f 37/37/37 50/50/50 33/33/33
f 59/59/59 58/58/58 57/57/57
f 60/60/60 57/57/57 58/58/58
f 57/57/57 61/61/61 59/59/59
f 62/62/62 59/59/59 61/61/61
f 58/58/58 63/63/63 60/60/60
f 64/64/64 60/60/60 63/63/63
f 67/67/67 66/66/66 65/65/65
f 68/68/68 65/65/65 66/66/66
f 65/65/65 69/69/69 67/67/67
f 70/70/70 67/67/67 69/69/69
f 66/66/66 71/71/71 68/68/68
f 72/72/72 68/68/68 71/71/71
f 75/75/75 74/74/74 73/73/73
f 76/76/76 73/73/73 74/74/74
f 73/73/73 76/76/76 77/77/77
f 78/78/78 77/77/77 76/76/76
f 77/77/77 78/78/78 79/79/79
f 80/80/80 79/79/79 78/78/78
f 79/79/79 80/80/80 81/81/81
f 82/82/82 81/81/81 80/80/80
f 81/81/81 82/82/82 83/83/83
f 84/84/84 83/83/83 82/82/82
f 83/83/83 84/84/84 85/85/85
f 86/86/86 85/85/85 84/84/84
f 85/85/85 86/86/86 87/87/87
f 88/88/88 87/87/87 86/86/86
f 87/87/87 88/88/88 89/89/89
f 90/90/90 89/89/89 88/88/88
f 89/89/89 90/90/90 91/91/91
f 92/92/92 91/91/91 90/90/90
f 91/91/91 92/92/92 93/93/93
f 94/94/94 93/93/93 92/92/92
f 93/93/93 94/94/94 95/95/95
f 96/96/96 95/95/95 94/94/94
f 95/95/95 96/96/96 97/97/97
f 98/98/98 97/97/97 96/96/96
f 97/97/97 98/98/98 99/99/99
f 100/100/100 99/99/99 98/98/98
f 99/99/99 100/100/100 101/101/101
f 102/102/102 101/101/101 100/100/100
f 101/101/101 102/102/102 103/103/103
f 104/104/104 103/103/103 102/102/102
f 103/103/103 104/104/104 105/105/105
f 106/106/106 105/105/105 104/104/104
f 109/109/109 108/108/108 107/107/107
f 110/110/110 107/107/107 108/108/108
f 107/107/107 110/110/110 75/75/75
f 74/74/74 75/75/75 110/110/110
f 113/113/113 112/112/112 111/111/111
f 112/112/112 114/114/114 111/111/111
f 115/115/115 114/114/114 112/112/112
f 116/116/116 115/115/115 112/112/112
f 117/117/117 114/114/114 115/115/115
f 114/114/114 118/118/118 111/111/111
f 119/119/119 118/118/118 114/114/114
f 120/120/120 119/119/119 114/114/114
f 121/121/121 118/118/118 119/119/119
f 118/118/118 122/122/122 111/111/111
f 123/123/123 122/122/122 118/118/118
f 124/124/124 123/123/123 118/118/118
f 125/125/125 122/122/122 123/123/123
f 122/122/122 126/126/126 111/111/111
f 127/127/127 126/126/126 122/122/122
f 126/126/126 128/128/128 111/111/111
