g meger3d_Char_sundries_C2_3
v 0.02333015 -0.3402328 -0.1984542
v 0.2065595 -0.3454076 -0.1351386
v 0.2569803 -0.1596972 -0.1725989
v 0.0369376 -0.1544537 -0.248316
v 0.2887062 -0.1473656 0.1109808
v 0.2221685 -0.3367216 0.1069741
v 0.08541946 -0.1311197 0.2644872
v 0.06340357 -0.3254666 0.2277277
v 0.1142967 -0.03245129 -0.1232356
v 0.1643417 -0.03527336 0.01489075
v 0.02209279 0.00121914 0.1201106
v 0.002625308 -0.3605407 0.01470863
v 0.06340357 -0.3254666 0.2277277
v -0.1326812 -0.3182692 0.2030111
v -0.1515303 -0.1226464 0.2345708
v 0.08541946 -0.1311197 0.2644872
v -0.3063225 -0.1249605 0.0567307
v -0.2610489 -0.31038 0.05548196
v -0.2128975 -0.1410724 -0.1929575
v -0.1840934 -0.3162611 -0.1525621
v 0.0369376 -0.1544537 -0.248316
v 0.02333015 -0.3402328 -0.1984542
v 0.02209279 0.00121914 0.1201106
v -0.1071346 0.02795003 0.1034238
v -0.1926947 0.04062831 0.004598646
v -0.1433461 0.02208469 -0.134786
v -0.006683897 -0.008967618 -0.1658097
v 0.2569803 -0.1596972 -0.1725989
v 0.1142967 -0.03245129 -0.1232356
v 0.002625308 -0.3605407 0.01470863
v 0.01742313 0.1397687 -0.03843895
v 0.03723501 0.1552306 -0.06223126
v 0.1643417 -0.03527336 0.01489075
v 0.0761814 0.1595815 -0.01361109
v 0.01212374 0.1191855 0.02756457
v -0.02104126 0.1345517 -0.008138999
v -0.03355106 0.3169893 -0.1117297
v 0.06401838 0.2215357 -0.1517746
v -0.0228639 0.2551181 0.1325811
v -0.08898067 0.3307581 0.0324247
v -0.06633956 0.124995 -0.02007513
v -0.2716624 0.2886251 0.009975007
v -0.04507383 0.1299953 -0.07585807
v -0.1555328 0.2130233 -0.1311927
v -0.1926947 0.04062831 0.004598646
v -0.06633956 0.124995 -0.02007513
v -0.02104126 0.1345517 -0.008138999
v -0.1071346 0.02795003 0.1034238
v -0.1433461 0.02208469 -0.134786
v -0.04507383 0.1299953 -0.07585807
v -0.006683897 -0.008967618 -0.1658097
v 0.01742313 0.1397687 -0.03843895
v -0.1555328 0.2130233 -0.1311927
v -0.03355106 0.3169893 -0.1117297
v 0.0761814 0.1595815 -0.01361109
v 0.1865891 0.3472235 0.02053001
v 0.06401838 0.2215357 -0.1517746
v 0.03723501 0.1552306 -0.06223126
v 0.01212374 0.1191855 0.02756457
v -0.0228639 0.2551181 0.1325811
v 0.06401838 0.2215357 -0.1517746
v 0.05645479 0.2664084 -0.09931827
v -0.03860363 0.3428217 -0.06937418
v -0.03355106 0.3169893 -0.1117297
v 0.1865891 0.3472235 0.02053001
v 0.1298415 0.3559749 0.009679515
v 0.05645479 0.2664084 -0.09931827
v 0.06401838 0.2215357 -0.1517746
v -0.0228639 0.2551181 0.1325811
v -0.01544618 0.2880302 0.07227955
v -0.08898067 0.3307581 0.0324247
v -0.06073643 0.3382823 -0.004763663
v -0.01544618 0.2880302 0.07227955
v -0.0228639 0.2551181 0.1325811
v -0.2716624 0.2886251 0.009975007
v -0.2025846 0.3055342 -0.00970279
v -0.1555328 0.2130233 -0.1311927
v -0.1500413 0.2557932 -0.09541842
v -0.03355106 0.3169893 -0.1117297
v -0.03860363 0.3428217 -0.06937418
v -0.1500413 0.2557932 -0.09541842
v -0.1555328 0.2130233 -0.1311927
v 0.05645479 0.2664084 -0.09931827
v 0.005299852 0.1692364 -0.03282273
v -0.03860363 0.3428217 -0.06937418
v 0.1298415 0.3559749 0.009679515
v 0.005299852 0.1692364 -0.03282273
v 0.05645479 0.2664084 -0.09931827
v -0.01544618 0.2880302 0.07227955
v -0.06073643 0.3382823 -0.004763663
v 0.005299852 0.1692364 -0.03282273
v -0.01544618 0.2880302 0.07227955
v -0.2025846 0.3055342 -0.00970279
v 0.005299852 0.1692364 -0.03282273
v -0.06073643 0.3382823 -0.004763663
v -0.1500413 0.2557932 -0.09541842
v 0.005299852 0.1692364 -0.03282273
v -0.2025846 0.3055342 -0.00970279
v -0.03860363 0.3428217 -0.06937418
v 0.005299852 0.1692364 -0.03282273
v -0.1500413 0.2557932 -0.09541842
v 0.04985899 0.1242135 -0.09240019
v 0.09975745 0.1300555 -0.007107026
v 0.1024463 0.1775053 -0.005373373
v 0.05304291 0.1658897 -0.09172161
v 0.007055573 0.1429434 0.06700718
v 0.02586579 0.0987728 0.0643897
v -0.07669722 0.1130699 -0.1189723
v -0.08020752 0.1532389 -0.1040473
v 0.02586579 0.0987728 0.0643897
v -0.1134475 0.1135196 -0.002573379
v -0.1085196 0.1555027 -0.001617085
v 0.007055573 0.1429434 0.06700718
v -0.08020752 0.1532389 -0.1040473
v -0.07669722 0.1130699 -0.1189723
v -0.1085196 0.1555027 -0.001617085
v -0.08020752 0.1532389 -0.1040473
v 0.05304291 0.1658897 -0.09172161
v 0.1024463 0.1775053 -0.005373373
v 0.007055573 0.1429434 0.06700718
v 0.04985899 0.1242135 -0.09240019
v -0.07669722 0.1130699 -0.1189723
v -0.1134475 0.1135196 -0.002573379
v 0.09975745 0.1300555 -0.007107026
v 0.02586579 0.0987728 0.0643897
v -0.1286573 0.002077221 -0.1844048
v -0.1586621 -0.1521343 -0.2241102
v -0.09138649 -0.1831002 -0.2439999
v -0.09683813 -0.002542565 -0.1915504
v -0.06601354 0.1265028 -0.09549087
v -0.02814733 0.1357079 -0.08627279
v -0.09318969 -0.02327521 -0.144568
v -0.09683813 -0.002542565 -0.1915504
v -0.09138649 -0.1831002 -0.2439999
v -0.09044683 -0.1994626 -0.1954725
v -0.02526259 0.1191725 -0.05656051
v -0.02814733 0.1357079 -0.08627279
v -0.09044683 -0.1994626 -0.1954725
v -0.09138649 -0.1831002 -0.2439999
v -0.1586621 -0.1521343 -0.2241102
v -0.1575081 -0.1680608 -0.1754474
v -0.1286573 0.002077221 -0.1844048
v -0.1242458 -0.01536957 -0.1362249
v -0.06601354 0.1265028 -0.09549087
v -0.06331953 0.1192232 -0.05275729
v -0.03480413 0.01305439 -0.1674004
v 0.01390457 -0.1089166 -0.2393216
v 0.05353491 -0.04905235 -0.207273
v -0.003174582 0.0215408 -0.1646151
v -0.03726285 0.1213193 -0.08791004
v -0.008766163 0.1396126 -0.06786468
v -0.008560208 0.001441584 -0.1092258
v -0.003174582 0.0215408 -0.1646151
v 0.05353491 -0.04905235 -0.207273
v 0.03745105 -0.05791504 -0.1669222
v 0.01390457 -0.1089166 -0.2393216
v -0.003265544 -0.1208316 -0.1830223
v -0.01038628 0.1276458 -0.03849579
v -0.008766163 0.1396126 -0.06786468
v -0.003265544 -0.1208316 -0.1830223
v 0.01390457 -0.1089166 -0.2393216
v -0.03480413 0.01305439 -0.1674004
v -0.04075003 -0.004742701 -0.1106762
v -0.03726285 0.1213193 -0.08791004
v -0.04535335 0.1143046 -0.04628794
vt 0.6527952 0.8763559
vt 0.6514935 0.8763559
vt 0.6522352 0.7933946
vt 0.6537918 0.824806
vt 0.6456679 0.7930501
vt 0.6458781 0.8763559
vt 0.6419073 0.792812
vt 0.6429223 0.8763559
vt 0.650843 0.7782539
vt 0.6476834 0.7790232
vt 0.6450795 0.7756603
vt 0.6478466 0.880082
vt 0.6429223 0.8763559
vt 0.6433145 0.8763559
vt 0.6423825 0.8241269
vt 0.6419073 0.792812
vt 0.6463755 0.813656
vt 0.6466178 0.875311
vt 0.652271 0.8139858
vt 0.6515222 0.874634
vt 0.6537918 0.824806
vt 0.6527952 0.8763559
vt 0.6450795 0.7756603
vt 0.6453266 0.8041572
vt 0.6475329 0.7918067
vt 0.6508304 0.7932164
vt 0.6517017 0.8069925
vt 0.6522352 0.7933946
vt 0.650843 0.7782539
vt 0.6478466 0.880082
vt 0.6486273 0.8816721
vt 0.6491829 0.860888
vt 0.6476834 0.7790232
vt 0.6480848 0.8603688
vt 0.6471093 0.8660296
vt 0.6478943 0.8826845
vt 0.6501181 0.8010203
vt 0.651224 0.7938102
vt 0.6445131 0.7914002
vt 0.646709 0.7680262
vt 0.64814 0.8654736
vt 0.6471064 0.7556185
vt 0.6494493 0.8644549
vt 0.6505581 0.7961472
vt 0.6475329 0.7918067
vt 0.64814 0.8654736
vt 0.6478943 0.8826845
vt 0.6453266 0.8041572
vt 0.6508304 0.7932164
vt 0.6494493 0.8644549
vt 0.6517017 0.8069925
vt 0.6486273 0.8816721
vt 0.6505581 0.7961472
vt 0.6501181 0.8010203
vt 0.6480848 0.8603688
vt 0.6472157 0.7780702
vt 0.651224 0.7938102
vt 0.6491829 0.860888
vt 0.6471093 0.8660296
vt 0.6445131 0.7914002
vt 0.651224 0.79226
vt 0.6499575 0.7868667
vt 0.6491063 0.7180987
vt 0.6501181 0.7211404
vt 0.6472157 0.7167932
vt 0.6474088 0.7159297
vt 0.6499575 0.7868667
vt 0.651224 0.79226
vt 0.6445131 0.7898499
vt 0.6458892 0.7853431
vt 0.646709 0.7203915
vt 0.6475905 0.7513518
vt 0.6458892 0.7853431
vt 0.6445131 0.7898499
vt 0.6471064 0.7265867
vt 0.6476091 0.7239825
vt 0.6505581 0.794597
vt 0.6496925 0.78932
vt 0.6501181 0.7211404
vt 0.6491063 0.7180987
vt 0.6496925 0.78932
vt 0.6505581 0.794597
vt 0.6499575 0.8354034
vt 0.6484586 0.8605235
vt 0.6491063 0.7831244
vt 0.6474088 0.8025742
vt 0.6484586 0.8605235
vt 0.6499575 0.8354034
vt 0.6458892 0.8338798
vt 0.6475905 0.7841325
vt 0.6484586 0.8605235
vt 0.6458892 0.8338798
vt 0.6476091 0.8322458
vt 0.6484586 0.8605235
vt 0.6475905 0.7841325
vt 0.6496925 0.8378567
vt 0.6484586 0.8605235
vt 0.6476091 0.8322458
vt 0.6491063 0.7831244
vt 0.6484586 0.8605235
vt 0.6496925 0.8378567
vt 0.3564048 0.2220655
vt 0.3533132 0.2164058
vt 0.3531825 0.2302096
vt 0.3563224 0.2352263
vt 0.3504218 0.2255588
vt 0.3506109 0.2122285
vt 0.357224 0.2203344
vt 0.3566075 0.2332323
vt 0.3506109 0.2122285
vt 0.352867 0.2135273
vt 0.3527763 0.2267296
vt 0.3504218 0.2255588
vt 0.3566075 0.2332323
vt 0.357224 0.2203344
vt 0.3527763 0.2226019
vt 0.3566075 0.2229241
vt 0.3563224 0.224918
vt 0.3531825 0.2260819
vt 0.3504218 0.2214311
vt 0.3564048 0.2117572
vt 0.357224 0.2100261
vt 0.352867 0.2093996
vt 0.3533132 0.2122781
vt 0.3506109 0.2081008
vt 0.3597345 0.2361823
vt 0.361389 0.2185305
vt 0.3622661 0.215446
vt 0.3600508 0.2358422
vt 0.356351 0.1999997
vt 0.3560503 0.201173
vt 0.3583495 0.183904
vt 0.3600508 0.1972332
vt 0.3622661 0.1898488
vt 0.3604973 0.1643057
vt 0.3549803 0.1998741
vt 0.3560503 0.2126595
vt 0.3604973 0.1643057
vt 0.3622661 0.1898488
vt 0.361389 0.1929333
vt 0.3596149 0.1674397
vt 0.3597345 0.1975733
vt 0.3579851 0.1846124
vt 0.356351 0.2114862
vt 0.3547855 0.1996853
vt 0.3592228 0.2358315
vt 0.3621326 0.2242686
vt 0.360915 0.2310534
vt 0.3591522 0.2369226
vt 0.3561193 0.1995179
vt 0.3553914 0.2016234
vt 0.3571263 0.1869288
vt 0.3591522 0.2002654
vt 0.360915 0.2054562
vt 0.3594132 0.1807131
vt 0.3621326 0.1986714
vt 0.3600441 0.1735104
vt 0.3543209 0.2008191
vt 0.3553914 0.2131098
vt 0.3600441 0.1735104
vt 0.3621326 0.1986714
vt 0.3592228 0.1991743
vt 0.3571433 0.1860884
vt 0.3561193 0.2110043
vt 0.3545791 0.1991876
vn -0.007373055 -0.7248954 -0.6888195
vn 0.5494187 -0.7168836 -0.4292051
vn 0.7846386 0.1820691 -0.5926154
vn 0.09112089 0.1311527 -0.9871656
vn 0.8947139 0.2590842 0.3638164
vn 0.6316681 -0.6982048 0.336906
vn 0.2880718 0.2999988 0.9094038
vn 0.1600304 -0.6598049 0.7341986
vn 0.524821 0.606567 -0.597193
vn 0.6913018 0.709295 0.1378496
vn 0.217464 0.6925005 0.6878608
vn -0.05533152 -0.998036 0.02937081
vn 0.1600304 -0.6598049 0.7341986
vn -0.373872 -0.6519559 0.6596766
vn -0.4345552 0.2610457 0.8619843
vn 0.2880718 0.2999988 0.9094038
vn -0.9647601 0.1884674 0.1836247
vn -0.7555537 -0.638413 0.1468586
vn -0.6492636 0.1093632 -0.7526596
vn -0.5241209 -0.6587119 -0.539811
vn 0.09112089 0.1311527 -0.9871656
vn -0.007373055 -0.7248954 -0.6888195
vn 0.217464 0.6925005 0.6878608
vn -0.3054959 0.7099334 0.6345603
vn -0.7039627 0.7039735 0.09411569
vn -0.4619094 0.6040819 -0.6494034
vn 0.06704441 0.5121292 -0.8562877
vn 0.7846386 0.1820691 -0.5926154
vn 0.524821 0.606567 -0.597193
vn -0.05533152 -0.998036 0.02937081
vn 0.03560955 0.1496673 -0.9880949
vn 0.3099924 -0.1904158 -0.9314755
vn 0.6913018 0.709295 0.1378496
vn 0.9655664 -0.1282236 0.2263634
vn 0.1153747 0.2348817 0.9651524
vn -0.5334269 0.1324923 0.8354051
vn -0.02989786 -0.3661191 -0.9300876
vn 0.07152455 -0.725311 -0.6846957
vn -0.2672266 -0.6209896 0.7368596
vn -0.4333843 -0.3603757 0.826019
vn -0.7727555 0.3262696 0.5444235
vn -0.4060088 -0.6370662 0.6552126
vn -0.165299 0.1637465 -0.972555
vn -0.2731856 -0.7481631 -0.6046667
vn -0.7039627 0.7039735 0.09411569
vn -0.7727555 0.3262696 0.5444235
vn -0.5334269 0.1324923 0.8354051
vn -0.3054959 0.7099334 0.6345603
vn -0.4619094 0.6040819 -0.6494034
vn -0.165299 0.1637465 -0.972555
vn 0.06704441 0.5121292 -0.8562877
vn 0.03560955 0.1496673 -0.9880949
vn -0.2731856 -0.7481631 -0.6046667
vn -0.02989786 -0.3661191 -0.9300876
vn 0.9655664 -0.1282236 0.2263634
vn 0.7914745 -0.5331398 0.2988815
vn 0.07152455 -0.725311 -0.6846957
vn 0.3099924 -0.1904158 -0.9314755
vn 0.1153747 0.2348817 0.9651524
vn -0.2672266 -0.6209896 0.7368596
vn 0.3437601 0.7404947 -0.5774917
vn 0.3204349 0.7397634 -0.5916684
vn -0.03541502 0.7901139 -0.611936
vn 0.06529755 0.7969579 -0.6004951
vn 0.05848575 0.9882098 -0.1414944
vn 0.03404335 0.9989653 -0.03015875
vn 0.3204349 0.7397634 -0.5916684
vn 0.3437601 0.7404947 -0.5774917
vn 0.04657708 0.8534258 0.5191291
vn 0.09221375 0.8576735 0.5058586
vn 0.003513822 0.9700044 0.243062
vn 0.04071391 0.9604999 0.2752857
vn 0.09221375 0.8576735 0.5058586
vn 0.04657708 0.8534258 0.5191291
vn -0.3592197 0.8075154 -0.4678461
vn -0.3188649 0.9044362 -0.2834081
vn -0.4130566 0.6673629 -0.6196861
vn -0.4110281 0.6665848 -0.6218687
vn 0.06529755 0.7969579 -0.6004951
vn -0.03541502 0.7901139 -0.611936
vn -0.4110281 0.6665848 -0.6218687
vn -0.4130566 0.6673629 -0.6196861
vn -0.3285134 0.6450555 0.6899148
vn -0.1048327 0.9941335 0.02662268
vn 0.00374191 0.2069539 0.9783435
vn -0.7316962 0.5722727 -0.3703032
vn -0.1048327 0.9941335 0.02662268
vn -0.3285134 0.6450555 0.6899148
vn 0.2551729 0.6653073 -0.7016075
vn 0.4054139 0.3016071 -0.8629443
vn -0.1048327 0.9941335 0.02662268
vn 0.2551729 0.6653073 -0.7016075
vn 0.3219348 0.6133603 -0.7212123
vn -0.1048327 0.9941335 0.02662268
vn 0.4054139 0.3016071 -0.8629443
vn 0.3274883 0.8641143 0.3821753
vn -0.1048327 0.9941335 0.02662268
vn 0.3219348 0.6133603 -0.7212123
vn 0.00374191 0.2069539 0.9783435
vn -0.1048327 0.9941335 0.02662268
vn 0.3274883 0.8641143 0.3821753
vn 0.4477972 -0.5470921 -0.7072255
vn 0.8448615 -0.517162 0.1369402
vn 0.7292187 0.6659006 0.1575321
vn 0.4240426 0.6789027 -0.5993987
vn -0.05353032 0.5100439 0.8584811
vn 0.2137311 -0.6560165 0.7238517
vn -0.3337086 -0.5192029 -0.7868082
vn -0.5267282 0.6240714 -0.5771414
vn 0.2137311 -0.6560165 0.7238517
vn -0.7387481 -0.6202694 0.2636606
vn -0.7638163 0.5517419 0.3349113
vn -0.05353032 0.5100439 0.8584811
vn -0.5267282 0.6240714 -0.5771414
vn -0.3337086 -0.5192029 -0.7868082
vn -0.7638163 0.5517419 0.3349113
vn -0.5267282 0.6240714 -0.5771414
vn 0.4240426 0.6789027 -0.5993987
vn 0.7292187 0.6659006 0.1575321
vn -0.05353032 0.5100439 0.8584811
vn 0.4477972 -0.5470921 -0.7072255
vn -0.3337086 -0.5192029 -0.7868082
vn -0.7387481 -0.6202694 0.2636606
vn 0.8448615 -0.517162 0.1369402
vn 0.2137311 -0.6560165 0.7238517
vn -0.7005315 0.4708305 -0.5362596
vn -0.7845043 -0.180779 -0.593188
vn 0.4011095 -0.4771248 -0.7819611
vn 0.54623 0.2701246 -0.7928842
vn -0.6005305 0.6443923 -0.4734148
vn 0.8278725 0.001633059 -0.5609139
vn 0.9818472 -0.1357716 -0.1324467
vn 0.54623 0.2701246 -0.7928842
vn 0.4011095 -0.4771248 -0.7819611
vn 0.4552962 -0.8345507 -0.3102101
vn 0.9280894 -0.2976684 -0.2237039
vn 0.8278725 0.001633059 -0.5609139
vn 0.4552962 -0.8345507 -0.3102101
vn 0.4011095 -0.4771248 -0.7819611
vn -0.7845043 -0.180779 -0.593188
vn -0.9082342 -0.4081257 -0.09243403
vn -0.7005315 0.4708305 -0.5362596
vn -0.9559213 0.257534 0.1410347
vn -0.6005305 0.6443923 -0.4734148
vn -0.9282661 0.3340919 0.1634159
vn -0.6804281 0.2878405 -0.673918
vn 0.02471515 -0.6348311 -0.7722555
vn 0.8586721 0.2104946 -0.4673052
vn 0.5921304 0.6080425 -0.5288345
vn -0.6059334 0.4695039 -0.6421921
vn 0.933724 0.2409768 -0.2647446
vn 0.9704078 0.1628914 0.1782555
vn 0.5921304 0.6080425 -0.5288345
vn 0.8586721 0.2104946 -0.4673052
vn 0.958733 -0.02010966 0.2835959
vn 0.02471515 -0.6348311 -0.7722555
vn -0.4924937 -0.8505814 -0.1842859
vn 0.9970013 -0.02082409 0.07452953
vn 0.933724 0.2409768 -0.2647446
vn -0.4924937 -0.8505814 -0.1842859
vn 0.02471515 -0.6348311 -0.7722555
vn -0.6804281 0.2878405 -0.673918
vn -0.9822036 -0.05411578 -0.1798543
vn -0.6059334 0.4695039 -0.6421921
vn -0.9904059 0.05061872 -0.1285843
g meger3d_Char_sundries_C2_3_0
f 3/3/3 2/2/2 1/1/1
f 4/4/4 3/3/3 1/1/1
f 3/3/3 5/5/5 2/2/2
f 5/5/5 6/6/6 2/2/2
f 5/5/5 7/7/7 6/6/6
f 7/7/7 8/8/8 6/6/6
f 5/5/5 3/3/3 9/9/9
f 10/10/10 5/5/5 9/9/9
f 7/7/7 5/5/5 10/10/10
f 11/11/11 7/7/7 10/10/10
f 2/2/2 12/12/12 1/1/1
f 6/6/6 12/12/12 2/2/2
f 8/8/8 12/12/12 6/6/6
f 15/15/15 14/14/14 13/13/13
f 16/16/16 15/15/15 13/13/13
f 15/15/15 17/17/17 14/14/14
f 17/17/17 18/18/18 14/14/14
f 17/17/17 19/19/19 18/18/18
f 19/19/19 20/20/20 18/18/18
f 19/19/19 21/21/21 20/20/20
f 21/21/21 22/22/22 20/20/20
f 15/15/15 16/16/16 23/23/23
f 24/24/24 15/15/15 23/23/23
f 17/17/17 15/15/15 24/24/24
f 25/25/25 17/17/17 24/24/24
f 19/19/19 17/17/17 25/25/25
f 26/26/26 19/19/19 25/25/25
f 21/21/21 19/19/19 26/26/26
f 27/27/27 21/21/21 26/26/26
f 28/28/28 21/21/21 27/27/27
f 29/29/29 28/28/28 27/27/27
f 18/18/18 30/30/30 14/14/14
f 20/20/20 30/30/30 18/18/18
f 22/22/22 30/30/30 20/20/20
f 27/27/27 31/31/31 29/29/29
f 31/31/31 32/32/32 29/29/29
f 29/29/29 32/32/32 33/33/33
f 32/32/32 34/34/34 33/33/33
f 33/33/33 34/34/34 23/23/23
f 34/34/34 35/35/35 23/23/23
f 23/23/23 35/35/35 24/24/24
f 35/35/35 36/36/36 24/24/24
f 31/31/31 37/37/37 32/32/32
f 37/37/37 38/38/38 32/32/32
f 35/35/35 39/39/39 36/36/36
f 39/39/39 40/40/40 36/36/36
f 36/36/36 40/40/40 41/41/41
f 40/40/40 42/42/42 41/41/41
f 41/41/41 42/42/42 43/43/43
f 42/42/42 44/44/44 43/43/43
f 14/14/14 30/30/30 13/13/13
f 47/47/47 46/46/46 45/45/45
f 48/48/48 47/47/47 45/45/45
f 45/45/45 46/46/46 49/49/49
f 46/46/46 50/50/50 49/49/49
f 49/49/49 50/50/50 51/51/51
f 50/50/50 52/52/52 51/51/51
f 50/50/50 53/53/53 52/52/52
f 53/53/53 54/54/54 52/52/52
f 57/57/57 56/56/56 55/55/55
f 58/58/58 57/57/57 55/55/55
f 55/55/55 56/56/56 59/59/59
f 56/56/56 60/60/60 59/59/59
f 63/63/63 62/62/62 61/61/61
f 64/64/64 63/63/63 61/61/61
f 67/67/67 66/66/66 65/65/65
f 68/68/68 67/67/67 65/65/65
f 65/65/65 66/66/66 69/69/69
f 66/66/66 70/70/70 69/69/69
f 73/73/73 72/72/72 71/71/71
f 74/74/74 73/73/73 71/71/71
f 71/71/71 72/72/72 75/75/75
f 72/72/72 76/76/76 75/75/75
f 75/75/75 76/76/76 77/77/77
f 76/76/76 78/78/78 77/77/77
f 81/81/81 80/80/80 79/79/79
f 82/82/82 81/81/81 79/79/79
f 85/85/85 84/84/84 83/83/83
f 88/88/88 87/87/87 86/86/86
f 86/86/86 87/87/87 89/89/89
f 92/92/92 91/91/91 90/90/90
f 95/95/95 94/94/94 93/93/93
f 98/98/98 97/97/97 96/96/96
f 101/101/101 100/100/100 99/99/99
f 104/104/104 103/103/103 102/102/102
f 105/105/105 104/104/104 102/102/102
f 104/104/104 106/106/106 103/103/103
f 106/106/106 107/107/107 103/103/103
f 105/105/105 102/102/102 108/108/108
f 109/109/109 105/105/105 108/108/108
f 112/112/112 111/111/111 110/110/110
f 113/113/113 112/112/112 110/110/110
f 112/112/112 114/114/114 111/111/111
f 114/114/114 115/115/115 111/111/111
f 118/118/118 117/117/117 116/116/116
f 116/116/116 119/119/119 118/118/118
f 116/116/116 120/120/120 119/119/119
f 123/123/123 122/122/122 121/121/121
f 121/121/121 124/124/124 123/123/123
f 124/124/124 125/125/125 123/123/123
f 128/128/128 127/127/127 126/126/126
f 129/129/129 128/128/128 126/126/126
f 126/126/126 130/130/130 129/129/129
f 130/130/130 131/131/131 129/129/129
f 134/134/134 133/133/133 132/132/132
f 135/135/135 134/134/134 132/132/132
f 132/132/132 133/133/133 136/136/136
f 133/133/133 137/137/137 136/136/136
f 140/140/140 139/139/139 138/138/138
f 141/141/141 140/140/140 138/138/138
f 142/142/142 140/140/140 141/141/141
f 143/143/143 142/142/142 141/141/141
f 144/144/144 142/142/142 143/143/143
f 145/145/145 144/144/144 143/143/143
f 148/148/148 147/147/147 146/146/146
f 149/149/149 148/148/148 146/146/146
f 146/146/146 150/150/150 149/149/149
f 150/150/150 151/151/151 149/149/149
f 154/154/154 153/153/153 152/152/152
f 155/155/155 154/154/154 152/152/152
f 156/156/156 154/154/154 155/155/155
f 157/157/157 156/156/156 155/155/155
f 152/152/152 153/153/153 158/158/158
f 153/153/153 159/159/159 158/158/158
f 162/162/162 161/161/161 160/160/160
f 163/163/163 162/162/162 160/160/160
f 164/164/164 162/162/162 163/163/163
f 165/165/165 164/164/164 163/163/163
