g meger3d_Char2_sundries_C6_6
v -0.0576757 0.2906217 -0.1647244
v 0.0985437 0.3022875 -0.1702188
v 0.1784954 0.2876737 -0.01098234
v -0.1577158 0.3208543 -0.004011684
v 0.1135569 0.3076221 0.1193218
v -0.07601472 0.334081 0.1217813
v -0.03070477 -0.3236015 0.02906125
v -0.1264625 0.1916416 0.2238199
v 0.1591859 0.1712004 0.2484763
v -0.03070477 -0.3236015 0.02906125
v 0.2935475 0.1434068 -0.004224512
v 0.171597 0.1467629 -0.2372701
v -0.03070477 -0.3236015 0.02906125
v -0.1261583 0.1398773 -0.260156
v -0.2794873 0.1929903 -0.01068354
v -0.03070477 -0.3236015 0.02906125
v 0.1591859 0.1712004 0.2484763
v 0.2935475 0.1434068 -0.004224512
v -0.07601472 0.334081 0.1217813
v -0.1264625 0.1916416 0.2238199
v -0.2794873 0.1929903 -0.01068354
v -0.1577158 0.3208543 -0.004011684
v -0.03070477 -0.3236015 0.02906125
v 0.171597 0.1467629 -0.2372701
v -0.1261583 0.1398773 -0.260156
v 0.1591859 0.1712004 0.2484763
v -0.1264625 0.1916416 0.2238199
v -0.07601472 0.334081 0.1217813
v 0.1135569 0.3076221 0.1193218
v 0.171597 0.1467629 -0.2372701
v 0.2935475 0.1434068 -0.004224512
v 0.1784954 0.2876737 -0.01098234
v 0.0985437 0.3022875 -0.1702188
v -0.2794873 0.1929903 -0.01068354
v -0.1261583 0.1398773 -0.260156
v -0.0576757 0.2906217 -0.1647244
v -0.1577158 0.3208543 -0.004011684
v 0.2935475 0.1434068 -0.004224512
v 0.1591859 0.1712004 0.2484763
v 0.1135569 0.3076221 0.1193218
v 0.1784954 0.2876737 -0.01098234
v -0.2794873 0.1929903 -0.01068354
v -0.1264625 0.1916416 0.2238199
v -0.03070477 -0.3236015 0.02906125
v -0.1261583 0.1398773 -0.260156
v 0.171597 0.1467629 -0.2372701
v 0.0985437 0.3022875 -0.1702188
v -0.0576757 0.2906217 -0.1647244
vt 0.5638444 0.2514974
vt 0.5638444 0.2119406
vt 0.5638444 0.1891534
vt 0.5638444 0.2744549
vt 0.5638444 0.2041776
vt 0.5638444 0.2523884
vt 0.5638444 0.1611137
vt 0.5638444 0.2668127
vt 0.5638444 0.2255147
vt 0.5638444 0.1726461
vt 0.5638444 0.2508678
vt 0.5638444 0.2790708
vt 0.5638444 0.1732529
vt 0.5638444 0.2392919
vt 0.5638444 0.2872438
vt 0.5638444 0.162688
vt 0.5638444 0.270584
vt 0.5638444 0.2409098
vt 0.5638444 0.2738045
vt 0.5638444 0.2542149
vt 0.5638444 0.1697869
vt 0.5638444 0.2430322
vt 0.5638444 0.1932641
vt 0.5638444 0.2570351
vt 0.5638444 0.2921649
vt 0.5638444 0.2416382
vt 0.5638444 0.175714
vt 0.5638444 0.2236118
vt 0.5638444 0.2670873
vt 0.5638444 0.2088609
vt 0.5638444 0.1734411
vt 0.5638444 0.2189559
vt 0.5638444 0.2680807
vt 0.5638444 0.2806734
vt 0.5638444 0.2012002
vt 0.5638444 0.1723836
vt 0.5638444 0.207428
vt 0.5638444 0.2701501
vt 0.5638444 0.236275
vt 0.5638444 0.182702
vt 0.5638444 0.2246354
vt 0.5638444 0.2772857
vt 0.5638444 0.2334746
vt 0.5638444 0.1632948
vt 0.5638444 0.2723764
vt 0.5638444 0.2034296
vt 0.5638444 0.1824715
vt 0.5638444 0.2185685
vn 0.07362855 0.9934478 -0.08740877
vn 0.07362855 0.9934478 -0.08740877
vn 0.07362856 0.9934478 -0.08740877
vn 0.07362855 0.9934478 -0.08740877
vn 0.07362855 0.9934478 -0.08740877
vn 0.07362855 0.9934478 -0.08740876
vn -0.1060991 -0.3687745 0.9234438
vn -0.04511052 0.1641588 0.9854019
vn -0.04746414 0.1463446 0.9880943
vn 0.740976 -0.5426662 -0.3955604
vn 0.8908357 -0.03128491 -0.4532472
vn 0.8917139 0.03330893 -0.4513724
vn -0.8098809 -0.4214194 -0.4080425
vn -0.8449427 0.06472839 -0.5309256
vn -0.8312676 0.1393605 -0.5381197
vn 0.7478052 -0.4870571 0.4511791
vn 0.7478052 -0.4870571 0.4511791
vn 0.7478052 -0.4870571 0.4511791
vn -0.6863355 0.5882007 0.4277425
vn -0.6863355 0.5882007 0.4277425
vn -0.6863354 0.5882007 0.4277425
vn -0.6863354 0.5882007 0.4277425
vn 0.07749484 -0.5162696 -0.8529128
vn 0.07749482 -0.5162696 -0.8529128
vn 0.07749484 -0.5162696 -0.8529128
vn -0.04746414 0.1463446 0.9880943
vn -0.04511052 0.1641588 0.9854019
vn 0.02698307 0.6377332 0.7697846
vn 0.02698307 0.6377332 0.7697846
vn 0.8917139 0.03330893 -0.4513724
vn 0.8908357 -0.03128491 -0.4532472
vn 0.7545395 0.5465083 -0.3633163
vn 0.7545394 0.5465084 -0.3633163
vn -0.8312676 0.1393605 -0.5381197
vn -0.8449427 0.06472839 -0.5309256
vn -0.6162639 0.6054157 -0.5036771
vn -0.6162637 0.6054158 -0.5036771
vn 0.7487341 0.5821328 0.3170469
vn 0.7487341 0.5821327 0.3170469
vn 0.7487341 0.5821328 0.3170469
vn 0.7487341 0.5821328 0.3170469
vn -0.7883946 -0.3402479 0.5125088
vn -0.7883946 -0.3402479 0.5125087
vn -0.7883946 -0.340248 0.5125089
vn 0.01467848 0.4687753 -0.8831955
vn 0.01467849 0.4687753 -0.8831955
vn 0.01467849 0.4687753 -0.8831955
vn 0.01467849 0.4687753 -0.8831955
g meger3d_Char2_sundries_C6_6_0
f 3/3/3 2/2/2 1/1/1
f 1/1/1 4/4/4 3/3/3
f 4/4/4 5/5/5 3/3/3
f 4/4/4 6/6/6 5/5/5
f 9/9/9 8/8/8 7/7/7
f 12/12/12 11/11/11 10/10/10
f 15/15/15 14/14/14 13/13/13
f 18/18/18 17/17/17 16/16/16
f 21/21/21 20/20/20 19/19/19
f 22/22/22 21/21/21 19/19/19
f 25/25/25 24/24/24 23/23/23
f 28/28/28 27/27/27 26/26/26
f 29/29/29 28/28/28 26/26/26
f 32/32/32 31/31/31 30/30/30
f 33/33/33 32/32/32 30/30/30
f 36/36/36 35/35/35 34/34/34
f 37/37/37 36/36/36 34/34/34
f 40/40/40 39/39/39 38/38/38
f 41/41/41 40/40/40 38/38/38
f 44/44/44 43/43/43 42/42/42
f 47/47/47 46/46/46 45/45/45
f 48/48/48 47/47/47 45/45/45
