g meger3d_Char_workshop_C3_2
v -0.1843302 0.05894733 -0.5533872
v -0.1843302 -0.0589468 -0.5533872
v -0.1005781 -0.0589468 -0.6312943
v -0.1005781 0.05894733 -0.6312943
v 0.1005842 0.05894733 -0.6312943
v 0.1005842 -0.0589468 -0.6312943
v 0.1843302 -0.0589468 -0.5533872
v 0.1843302 0.05894733 -0.5533872
v 0.2128461 -0.0589468 -0.446964
v 0.2128461 0.05894733 -0.446964
v 0.1843302 -0.05894684 -0.340541
v 0.1843302 0.05894731 -0.340541
v 0.1064231 -0.05894684 -0.2626339
v 0.1064231 0.05894731 -0.2626339
v -2.867118E-17 -0.05894686 -0.234118
v -2.867118E-17 0.05894731 -0.2341179
v -0.1064231 -0.05894684 -0.2626339
v -0.1064231 0.05894731 -0.2626339
v -0.1843302 -0.05894684 -0.340541
v -0.1843302 0.05894731 -0.340541
v -0.2128461 -0.0589468 -0.446964
v -0.2128461 0.05894733 -0.446964
v -0.1843302 -0.0589468 -0.5533872
v -0.1843302 0.05894733 -0.5533872
v 0.1005842 -0.0589468 -0.6312943
v 0.10063 -0.05894748 -0.4501666
v 0.1843302 -0.0589468 -0.5533872
v 0.2128461 -0.0589468 -0.446964
v 0.06899702 -0.05894745 -0.3811696
v 0.1843302 -0.05894684 -0.340541
v 0.1064231 -0.05894684 -0.2626339
v -4.275829E-17 -0.05894748 -0.3491479
v -2.867118E-17 -0.05894686 -0.234118
v -0.06899702 -0.05894745 -0.3811696
v -0.1064231 -0.05894684 -0.2626339
v -0.1843302 -0.05894684 -0.340541
v -0.1006374 -0.05894748 -0.4501666
v -0.2128461 -0.0589468 -0.446964
v -0.1843302 -0.0589468 -0.5533872
v -0.1005781 -0.0589468 -0.6312943
v -0.1005781 0.05894733 -0.6312943
v -0.1006374 0.05894699 -0.4501665
v -0.1843302 0.05894733 -0.5533872
v -0.2128461 0.05894733 -0.446964
v -0.06899702 0.05894703 -0.3811696
v -0.1843302 0.05894731 -0.340541
v -0.1064231 0.05894731 -0.2626339
v -4.275829E-17 0.05894703 -0.3491479
v -2.867118E-17 0.05894731 -0.2341179
v 0.06899702 0.05894703 -0.3811696
v 0.1064231 0.05894731 -0.2626339
v 0.1843302 0.05894731 -0.340541
v 0.10063 0.05894699 -0.4501665
v 0.2128461 0.05894733 -0.446964
v 0.1843302 0.05894733 -0.5533872
v 0.1005842 0.05894733 -0.6312943
v 0.1005842 -0.0589468 -0.6312943
v 0.1005842 0.05894733 -0.6312943
v 0.10063 0.05894699 -0.4501665
v 0.10063 -0.05894748 -0.4501666
v 0.10063 -0.05894748 -0.4501666
v 0.10063 0.05894699 -0.4501665
v 0.06899702 0.05894703 -0.3811696
v 0.06899702 -0.05894745 -0.3811696
v 0.06899702 -0.05894745 -0.3811696
v 0.06899702 0.05894703 -0.3811696
v -4.275829E-17 0.05894703 -0.3491479
v -4.275829E-17 -0.05894748 -0.3491479
v -4.275829E-17 -0.05894748 -0.3491479
v -4.275829E-17 0.05894703 -0.3491479
v -0.06899702 0.05894703 -0.3811696
v -0.06899702 -0.05894745 -0.3811696
v -0.06899702 -0.05894745 -0.3811696
v -0.06899702 0.05894703 -0.3811696
v -0.1006374 0.05894699 -0.4501665
v -0.1006374 -0.05894748 -0.4501666
v -0.1006374 -0.05894748 -0.4501666
v -0.1006374 0.05894699 -0.4501665
v -0.1005781 0.05894733 -0.6312943
v -0.1005781 -0.0589468 -0.6312943
v -0.06594433 0.05304813 0.3771921
v -0.06594433 -0.05304813 0.3771921
v -0.09325937 -0.05304813 0.4431364
v -0.09325937 0.05304813 0.4431364
v 4.284759E-17 0.05304813 0.3498771
v 4.284759E-17 -0.05304815 0.349877
v -0.06594433 -0.05304813 0.3771921
v -0.06594433 0.05304813 0.3771921
v 0.06594433 0.05304813 0.3771921
v 0.06594433 -0.05304813 0.3771921
v 4.284759E-17 -0.05304815 0.349877
v 4.284759E-17 0.05304813 0.3498771
v 0.09325936 0.05304813 0.4431364
v 0.09325936 -0.05304813 0.4431364
v 0.06594433 -0.05304813 0.3771921
v 0.06594433 0.05304813 0.3771921
v 0.06594433 0.05304813 0.5090807
v 0.06594433 -0.05304813 0.5090807
v 0.09325936 -0.05304813 0.4431364
v 0.09325936 0.05304813 0.4431364
v 6.568954E-17 0.05304813 0.5363957
v 6.568954E-17 -0.05304813 0.5363957
v 0.06594433 -0.05304813 0.5090807
v 0.06594433 0.05304813 0.5090807
v -0.06594433 0.05304813 0.5090807
v -0.06594433 -0.05304813 0.5090807
v 6.568954E-17 -0.05304813 0.5363957
v 6.568954E-17 0.05304813 0.5363957
v -0.09325937 0.05304813 0.4431364
v -0.09325937 -0.05304813 0.4431364
v -0.06594433 -0.05304813 0.5090807
v -0.06594433 0.05304813 0.5090807
v -0.06594433 -0.05304813 0.3771921
v -0.1318887 -0.05304815 0.3112477
v -0.1865187 -0.05304813 0.4431364
v -0.09325937 -0.05304813 0.4431364
v 4.284759E-17 -0.05304815 0.349877
v 3.14266E-17 -0.05304815 0.2566177
v 0.06594433 -0.05304813 0.3771921
v 0.1318887 -0.05304815 0.3112477
v 0.09325936 -0.05304813 0.4431364
v 0.1865187 -0.05304813 0.4431364
v 0.06594433 -0.05304813 0.5090807
v 0.1318887 -0.05304813 0.5750251
v 6.568954E-17 -0.05304813 0.5363957
v 7.711052E-17 -0.05304813 0.6296551
v -0.06594433 -0.05304813 0.5090807
v -0.1318887 -0.05304813 0.5750251
v -0.09325937 -0.05304813 0.4431364
v -0.1865187 -0.05304813 0.4431364
v -0.1318887 -0.05304815 0.3112477
v -0.1318887 0.05304813 0.3112477
v -0.1865187 0.05304813 0.4431364
v -0.1865187 -0.05304813 0.4431364
v 3.14266E-17 -0.05304815 0.2566177
v 3.14266E-17 0.05304813 0.2566177
v 0.1318887 -0.05304815 0.3112477
v 0.1318887 0.05304813 0.3112477
v 0.1865187 -0.05304813 0.4431364
v 0.1865187 0.05304813 0.4431364
v 0.1318887 -0.05304813 0.5750251
v 0.1318887 0.05304813 0.5750251
v 7.711052E-17 -0.05304813 0.6296551
v 7.711052E-17 0.05304813 0.6296551
v -0.1318887 -0.05304813 0.5750251
v -0.1318887 0.05304813 0.5750251
v -0.1318887 0.05304813 0.3112477
v -0.06594433 0.05304813 0.3771921
v -0.09325937 0.05304813 0.4431364
v -0.1865187 0.05304813 0.4431364
v 3.14266E-17 0.05304813 0.2566177
v 4.284759E-17 0.05304813 0.3498771
v 0.1318887 0.05304813 0.3112477
v 0.06594433 0.05304813 0.3771921
v 0.1865187 0.05304813 0.4431364
v 0.09325936 0.05304813 0.4431364
v 0.1318887 0.05304813 0.5750251
v 0.06594433 0.05304813 0.5090807
v 7.711052E-17 0.05304813 0.6296551
v 6.568954E-17 0.05304813 0.5363957
v -0.1318887 0.05304813 0.5750251
v -0.06594433 0.05304813 0.5090807
v -0.1865187 0.05304813 0.4431364
v -0.09325937 0.05304813 0.4431364
v 0.06397873 -0.03603872 -0.1828235
v 0.1068433 -0.03603872 -0.2893003
v -0.1068433 -0.03603872 -0.2893003
v -0.06397873 -0.03603872 -0.1828235
v 0.06397873 -0.03603872 0.199234
v -0.06397873 -0.03603872 0.199234
v 0.1103183 -0.03603872 0.3235854
v -0.1103183 -0.03603872 0.3235854
v 0.1068433 0.03603872 -0.2893003
v 0.06397873 0.03603871 -0.1828235
v -0.06397873 0.03603871 -0.1828235
v -0.1068433 0.03603872 -0.2893003
v -0.06397873 0.03603872 0.199234
v 0.06397873 0.03603872 0.199234
v -0.1103183 0.03603874 0.3235854
v 0.1103183 0.03603874 0.3235854
v -0.06397873 -0.03603872 -0.1828235
v -0.1068433 -0.03603872 -0.2893003
v -0.1068433 0.03603872 -0.2893003
v -0.06397873 0.03603871 -0.1828235
v -0.06397873 -0.03603872 0.199234
v -0.06397873 0.03603872 0.199234
v -0.1103183 -0.03603872 0.3235854
v -0.1103183 0.03603874 0.3235854
v 0.06397873 0.03603871 -0.1828235
v 0.1068433 0.03603872 -0.2893003
v 0.1068433 -0.03603872 -0.2893003
v 0.06397873 -0.03603872 -0.1828235
v 0.06397873 0.03603872 0.199234
v 0.06397873 -0.03603872 0.199234
v 0.1103183 0.03603874 0.3235854
v 0.1103183 -0.03603872 0.3235854
vt 0.9527775 0.1040482
vt 0.9527775 0.1040491
vt 0.9527775 0.1040491
vt 0.9527775 0.1040482
vt 0.9527776 0.1040482
vt 0.9527776 0.1040491
vt 0.9527777 0.1040491
vt 0.9527777 0.1040482
vt 0.9527777 0.1040491
vt 0.9527777 0.1040482
vt 0.9527778 0.1040491
vt 0.9527778 0.1040482
vt 0.9527778 0.1040491
vt 0.9527778 0.1040482
vt 0.9527779 0.1040491
vt 0.9527779 0.1040482
vt 0.9527779 0.1040491
vt 0.9527779 0.1040482
vt 0.952778 0.1040491
vt 0.952778 0.1040482
vt 0.952778 0.1040491
vt 0.952778 0.1040482
vt 0.9527781 0.1040491
vt 0.9527781 0.1040482
vt 0.9527776 0.1040498
vt 0.9527776 0.1040495
vt 0.9527774 0.1040497
vt 0.9527774 0.1040495
vt 0.9527777 0.1040494
vt 0.9527774 0.1040493
vt 0.9527776 0.1040491
vt 0.9527778 0.1040493
vt 0.9527778 0.1040491
vt 0.9527779 0.1040494
vt 0.952778 0.1040491
vt 0.9527782 0.1040493
vt 0.952778 0.1040495
vt 0.9527782 0.1040495
vt 0.9527782 0.1040497
vt 0.952778 0.1040498
vt 0.952778 0.1040474
vt 0.952778 0.1040477
vt 0.9527782 0.1040476
vt 0.9527782 0.1040478
vt 0.9527779 0.1040479
vt 0.9527782 0.104048
vt 0.952778 0.1040481
vt 0.9527778 0.104048
vt 0.9527778 0.1040482
vt 0.9527777 0.1040479
vt 0.9527776 0.1040481
vt 0.9527774 0.104048
vt 0.9527776 0.1040477
vt 0.9527774 0.1040478
vt 0.9527774 0.1040476
vt 0.9527776 0.1040474
vt 0.9527766 0.1040474
vt 0.9527766 0.1040499
vt 0.9527771 0.1040499
vt 0.9527771 0.1040474
vt 0.9527766 0.1040499
vt 0.9527766 0.1040474
vt 0.9527768 0.1040474
vt 0.9527768 0.1040499
vt 0.9527766 0.1040499
vt 0.9527766 0.1040474
vt 0.9527768 0.1040474
vt 0.9527768 0.1040499
vt 0.9527766 0.1040499
vt 0.9527766 0.1040474
vt 0.9527768 0.1040474
vt 0.9527768 0.1040499
vt 0.9527766 0.1040499
vt 0.9527766 0.1040474
vt 0.9527768 0.1040474
vt 0.9527768 0.1040499
vt 0.9527766 0.1040474
vt 0.9527766 0.1040499
vt 0.9527771 0.1040499
vt 0.9527771 0.1040474
vt 0.9527768 0.1040499
vt 0.9527768 0.1040493
vt 0.9527766 0.1040493
vt 0.9527766 0.1040499
vt 0.9527771 0.1040499
vt 0.9527771 0.1040493
vt 0.9527768 0.1040493
vt 0.9527768 0.1040499
vt 0.9527775 0.1040499
vt 0.9527775 0.1040493
vt 0.9527771 0.1040493
vt 0.9527771 0.1040499
vt 0.9527778 0.1040499
vt 0.9527778 0.1040493
vt 0.9527775 0.1040493
vt 0.9527775 0.1040499
vt 0.9527781 0.1040499
vt 0.9527781 0.1040493
vt 0.9527778 0.1040493
vt 0.9527778 0.1040499
vt 0.9527784 0.1040499
vt 0.9527784 0.1040493
vt 0.9527781 0.1040493
vt 0.9527781 0.1040499
vt 0.9527788 0.1040499
vt 0.9527788 0.1040493
vt 0.9527784 0.1040493
vt 0.9527784 0.1040499
vt 0.9527791 0.1040499
vt 0.9527791 0.1040493
vt 0.9527788 0.1040493
vt 0.9527788 0.1040499
vt 0.9527768 0.1040493
vt 0.9527768 0.1040486
vt 0.9527766 0.1040486
vt 0.9527766 0.1040493
vt 0.9527771 0.1040493
vt 0.9527771 0.1040486
vt 0.9527775 0.1040493
vt 0.9527775 0.1040486
vt 0.9527778 0.1040493
vt 0.9527778 0.1040486
vt 0.9527781 0.1040493
vt 0.9527781 0.1040486
vt 0.9527784 0.1040493
vt 0.9527784 0.1040486
vt 0.9527788 0.1040493
vt 0.9527788 0.1040486
vt 0.9527791 0.1040493
vt 0.9527791 0.1040486
vt 0.9527768 0.1040486
vt 0.9527768 0.104048
vt 0.9527766 0.104048
vt 0.9527766 0.1040486
vt 0.9527771 0.1040486
vt 0.9527771 0.104048
vt 0.9527775 0.1040486
vt 0.9527775 0.104048
vt 0.9527778 0.1040486
vt 0.9527778 0.104048
vt 0.9527781 0.1040486
vt 0.9527781 0.104048
vt 0.9527784 0.1040486
vt 0.9527784 0.104048
vt 0.9527788 0.1040486
vt 0.9527788 0.104048
vt 0.9527768 0.104048
vt 0.9527768 0.1040474
vt 0.9527766 0.1040474
vt 0.9527766 0.104048
vt 0.9527771 0.104048
vt 0.9527771 0.1040474
vt 0.9527775 0.104048
vt 0.9527775 0.1040474
vt 0.9527778 0.104048
vt 0.9527778 0.1040474
vt 0.9527781 0.104048
vt 0.9527781 0.1040474
vt 0.9527784 0.104048
vt 0.9527784 0.1040474
vt 0.9527788 0.104048
vt 0.9527788 0.1040474
vt 0.9527791 0.104048
vt 0.9527791 0.1040474
vt 0.2671949 0.7236386
vt 0.2671949 0.7236387
vt 0.2671955 0.7236387
vt 0.2671955 0.7236386
vt 0.2671949 0.7236382
vt 0.2671955 0.7236382
vt 0.2671949 0.7236381
vt 0.2671955 0.7236381
vt 0.2671949 0.7236394
vt 0.2671949 0.7236395
vt 0.2671955 0.7236395
vt 0.2671955 0.7236394
vt 0.2671955 0.7236398
vt 0.2671949 0.7236398
vt 0.2671955 0.72364
vt 0.2671949 0.72364
vt 0.2671955 0.7236386
vt 0.2671955 0.7236387
vt 0.2671962 0.7236387
vt 0.2671962 0.7236386
vt 0.2671955 0.7236382
vt 0.2671962 0.7236382
vt 0.2671955 0.7236381
vt 0.2671962 0.7236381
vt 0.2671943 0.7236386
vt 0.2671943 0.7236387
vt 0.2671949 0.7236387
vt 0.2671949 0.7236386
vt 0.2671943 0.7236382
vt 0.2671949 0.7236382
vt 0.2671943 0.7236381
vt 0.2671949 0.7236381
vn -0.8540607 0 -0.5201734
vn -0.8540607 0 -0.5201734
vn -0.6810955 0 -0.7321945
vn -0.6810955 0 -0.7321945
vn 0.681122 0 -0.7321699
vn 0.681122 0 -0.7321699
vn 0.8540732 0 -0.5201528
vn 0.8540732 0 -0.5201528
vn 1 0 0
vn 1 0 -1.354909E-07
vn 0.8660253 0 0.5000001
vn 0.8660253 0 0.5000001
vn 0.4999999 0 0.8660255
vn 0.4999999 0 0.8660255
vn 0 0 1
vn 0 0 1
vn -0.4999999 0 0.8660255
vn -0.4999999 0 0.8660255
vn -0.8660253 0 0.5000001
vn -0.8660253 0 0.5000001
vn -1 0 0
vn -1 0 -1.354909E-07
vn -0.8540607 0 -0.5201734
vn -0.8540607 0 -0.5201734
vn 3.521612E-06 -1 -3.765507E-06
vn 5.146816E-06 -1 2.423247E-07
vn 4.306443E-06 -1 -3.106339E-06
vn 5.569579E-06 -1 5.49776E-07
vn 3.679602E-06 -1 3.434111E-06
vn 4.867078E-06 -1 2.368562E-06
vn 2.507577E-06 -1 4.683521E-06
vn 0 -1 5.005134E-06
vn 0 -1 5.005134E-06
vn -3.667649E-06 -1 3.434284E-06
vn -2.489582E-06 -1 4.683521E-06
vn -4.844364E-06 -1 2.368758E-06
vn -5.141498E-06 -1 2.424338E-07
vn -5.562637E-06 -1 5.499466E-07
vn -4.303374E-06 -1 -3.106607E-06
vn -3.5216E-06 -1 -3.765768E-06
vn 1.811108E-06 1 1.869717E-06
vn 2.423115E-06 1 -1.780949E-07
vn 2.108064E-06 1 1.594675E-06
vn 2.583144E-06 1 -2.996489E-07
vn 1.692651E-06 1 -1.698493E-06
vn 2.284958E-06 1 -1.248527E-06
vn 1.126089E-06 1 -2.218277E-06
vn 0 1 -2.360184E-06
vn 0 1 -2.360184E-06
vn -1.713193E-06 1 -1.698415E-06
vn -1.144084E-06 1 -2.218277E-06
vn -2.321821E-06 1 -1.248437E-06
vn -2.428821E-06 1 -1.780447E-07
vn -2.59356E-06 1 -2.995655E-07
vn -2.067717E-06 1 1.594546E-06
vn -1.760805E-06 1 1.869587E-06
vn -1 0 0.0002530278
vn -1 0 0.0002530278
vn -1 0 0.0002530278
vn -1 0 0.0002530278
vn -0.9090179 3.410351E-07 -0.416757
vn -0.9090179 3.410351E-07 -0.4167571
vn -0.9090179 3.410351E-07 -0.416757
vn -0.9090179 3.41035E-07 -0.416757
vn -0.4209745 0 -0.9070725
vn -0.4209745 0 -0.9070725
vn -0.4209745 0 -0.9070725
vn -0.4209745 0 -0.9070725
vn 0.4209745 0 -0.9070725
vn 0.4209745 0 -0.9070725
vn 0.4209745 0 -0.9070725
vn 0.4209745 0 -0.9070725
vn 0.9089811 3.084273E-07 -0.4168373
vn 0.9089811 3.084273E-07 -0.4168373
vn 0.9089811 3.084273E-07 -0.4168373
vn 0.9089811 3.084273E-07 -0.4168373
vn 1 0 0.0003271997
vn 1 0 0.0003271997
vn 1 0 0.0003271997
vn 1 0 0.0003271997
vn 0.9238794 -1.007461E-07 0.3826838
vn 0.9238794 -1.007461E-07 0.3826838
vn 0.9238794 -1.007461E-07 0.3826838
vn 0.9238794 -1.007461E-07 0.3826838
vn 0.3826832 -6.04476E-07 0.9238796
vn 0.3826832 -6.04476E-07 0.9238796
vn 0.3826832 -6.04476E-07 0.9238796
vn 0.3826832 -6.04476E-07 0.9238796
vn -0.3826833 -8.059681E-07 0.9238796
vn -0.3826833 -8.059681E-07 0.9238796
vn -0.3826833 -8.059679E-07 0.9238795
vn -0.3826833 -8.059679E-07 0.9238795
vn -0.9238794 -2.014921E-07 0.3826838
vn -0.9238794 -2.014922E-07 0.3826838
vn -0.9238794 -2.014921E-07 0.3826838
vn -0.9238794 -2.014922E-07 0.3826838
vn -0.9238796 0 -0.3826833
vn -0.9238796 0 -0.3826833
vn -0.9238796 0 -0.3826833
vn -0.9238796 0 -0.3826833
vn -0.3826833 0 -0.9238796
vn -0.3826833 0 -0.9238796
vn -0.3826833 0 -0.9238796
vn -0.3826833 0 -0.9238796
vn 0.3826833 0 -0.9238796
vn 0.3826833 0 -0.9238796
vn 0.3826833 0 -0.9238796
vn 0.3826833 0 -0.9238796
vn 0.9238795 0 -0.3826834
vn 0.9238795 0 -0.3826834
vn 0.9238795 0 -0.3826834
vn 0.9238795 0 -0.3826834
vn 0 -1 0
vn 0 -1 0
vn 0 -1 0
vn 0 -1 0
vn 0 -1 0
vn 0 -1 0
vn 0 -1 0
vn 0 -1 0
vn 0 -1 0
vn 0 -1 0
vn 0 -1 0
vn 0 -1 0
vn 0 -1 0
vn 0 -1 0
vn 0 -1 0
vn 0 -1 0
vn 0 -1 0
vn 0 -1 0
vn -0.7071066 0 -0.7071069
vn -0.7071066 0 -0.7071069
vn -1 0 0
vn -1 0 0
vn 0 0 -1
vn 0 0 -1
vn 0.7071066 0 -0.7071069
vn 0.7071066 0 -0.7071069
vn 1 0 0
vn 1 0 0
vn 0.7071068 0 0.7071068
vn 0.7071068 0 0.7071068
vn 0 0 1
vn 0 0 1
vn -0.7071068 0 0.7071068
vn -0.7071068 0 0.7071068
vn 0 1 0
vn 0 1 0
vn 0 1 0
vn 0 1 0
vn 0 1 1.70434E-07
vn 0 1 1.70434E-07
vn 0 1 0
vn 0 1 0
vn 0 1 0
vn 0 1 0
vn 0 1 0
vn 0 1 0
vn 0 1 0
vn 0 1 0
vn 0 1 0
vn 0 1 0
vn 0 1 0
vn 0 1 0
vn 0 -1 0
vn 0 -1 1.119579E-07
vn 0 -1 1.119579E-07
vn 0 -1 0
vn 0 -1 0
vn 0 -1 0
vn 0 -1 0
vn 0 -1 0
vn 0 1 1.119579E-07
vn 0 1 0
vn 0 1 0
vn 0 1 1.119579E-07
vn 0 1 0
vn 0 1 0
vn 0 1 0
vn 0 1 0
vn -0.9961728 0 0.08740537
vn -0.9276518 0 0.3734462
vn -0.9276518 0 0.3734462
vn -0.9961728 0 0.08740537
vn -0.9958395 0 -0.09112553
vn -0.9958395 0 -0.09112557
vn -0.9370511 0 -0.3491921
vn -0.9370512 0 -0.3491921
vn 0.9961728 0 0.08740537
vn 0.9276518 0 0.3734462
vn 0.9276518 0 0.3734462
vn 0.9961728 0 0.08740537
vn 0.9958395 0 -0.09112557
vn 0.9958395 0 -0.09112554
vn 0.9370511 0 -0.3491922
vn 0.9370511 0 -0.3491921
g meger3d_Char_workshop_C3_2_0
f 3/3/3 2/2/2 1/1/1
f 4/4/4 3/3/3 1/1/1
f 7/7/7 6/6/6 5/5/5
f 8/8/8 7/7/7 5/5/5
f 9/9/9 7/7/7 8/8/8
f 10/10/10 9/9/9 8/8/8
f 11/11/11 9/9/9 10/10/10
f 12/12/12 11/11/11 10/10/10
f 13/13/13 11/11/11 12/12/12
f 14/14/14 13/13/13 12/12/12
f 15/15/15 13/13/13 14/14/14
f 16/16/16 15/15/15 14/14/14
f 17/17/17 15/15/15 16/16/16
f 18/18/18 17/17/17 16/16/16
f 19/19/19 17/17/17 18/18/18
f 20/20/20 19/19/19 18/18/18
f 21/21/21 19/19/19 20/20/20
f 22/22/22 21/21/21 20/20/20
f 23/23/23 21/21/21 22/22/22
f 24/24/24 23/23/23 22/22/22
f 27/27/27 26/26/26 25/25/25
f 28/28/28 26/26/26 27/27/27
f 29/29/29 26/26/26 28/28/28
f 30/30/30 29/29/29 28/28/28
f 31/31/31 29/29/29 30/30/30
f 32/32/32 29/29/29 31/31/31
f 33/33/33 32/32/32 31/31/31
f 34/34/34 32/32/32 33/33/33
f 35/35/35 34/34/34 33/33/33
f 36/36/36 34/34/34 35/35/35
f 37/37/37 34/34/34 36/36/36
f 38/38/38 37/37/37 36/36/36
f 39/39/39 37/37/37 38/38/38
f 40/40/40 37/37/37 39/39/39
f 43/43/43 42/42/42 41/41/41
f 44/44/44 42/42/42 43/43/43
f 45/45/45 42/42/42 44/44/44
f 46/46/46 45/45/45 44/44/44
f 47/47/47 45/45/45 46/46/46
f 48/48/48 45/45/45 47/47/47
f 49/49/49 48/48/48 47/47/47
f 50/50/50 48/48/48 49/49/49
f 51/51/51 50/50/50 49/49/49
f 52/52/52 50/50/50 51/51/51
f 53/53/53 50/50/50 52/52/52
f 54/54/54 53/53/53 52/52/52
f 55/55/55 53/53/53 54/54/54
f 56/56/56 53/53/53 55/55/55
f 59/59/59 58/58/58 57/57/57
f 60/60/60 59/59/59 57/57/57
f 63/63/63 62/62/62 61/61/61
f 64/64/64 63/63/63 61/61/61
f 67/67/67 66/66/66 65/65/65
f 68/68/68 67/67/67 65/65/65
f 71/71/71 70/70/70 69/69/69
f 72/72/72 71/71/71 69/69/69
f 75/75/75 74/74/74 73/73/73
f 76/76/76 75/75/75 73/73/73
f 79/79/79 78/78/78 77/77/77
f 80/80/80 79/79/79 77/77/77
f 83/83/83 82/82/82 81/81/81
f 84/84/84 83/83/83 81/81/81
f 87/87/87 86/86/86 85/85/85
f 88/88/88 87/87/87 85/85/85
f 91/91/91 90/90/90 89/89/89
f 92/92/92 91/91/91 89/89/89
f 95/95/95 94/94/94 93/93/93
f 96/96/96 95/95/95 93/93/93
f 99/99/99 98/98/98 97/97/97
f 100/100/100 99/99/99 97/97/97
f 103/103/103 102/102/102 101/101/101
f 104/104/104 103/103/103 101/101/101
f 107/107/107 106/106/106 105/105/105
f 108/108/108 107/107/107 105/105/105
f 111/111/111 110/110/110 109/109/109
f 112/112/112 111/111/111 109/109/109
f 115/115/115 114/114/114 113/113/113
f 116/116/116 115/115/115 113/113/113
f 113/113/113 114/114/114 117/117/117
f 114/114/114 118/118/118 117/117/117
f 117/117/117 118/118/118 119/119/119
f 118/118/118 120/120/120 119/119/119
f 119/119/119 120/120/120 121/121/121
f 120/120/120 122/122/122 121/121/121
f 121/121/121 122/122/122 123/123/123
f 122/122/122 124/124/124 123/123/123
f 123/123/123 124/124/124 125/125/125
f 124/124/124 126/126/126 125/125/125
f 125/125/125 126/126/126 127/127/127
f 126/126/126 128/128/128 127/127/127
f 127/127/127 128/128/128 129/129/129
f 128/128/128 130/130/130 129/129/129
f 133/133/133 132/132/132 131/131/131
f 134/134/134 133/133/133 131/131/131
f 131/131/131 132/132/132 135/135/135
f 132/132/132 136/136/136 135/135/135
f 135/135/135 136/136/136 137/137/137
f 136/136/136 138/138/138 137/137/137
f 137/137/137 138/138/138 139/139/139
f 138/138/138 140/140/140 139/139/139
f 139/139/139 140/140/140 141/141/141
f 140/140/140 142/142/142 141/141/141
f 141/141/141 142/142/142 143/143/143
f 142/142/142 144/144/144 143/143/143
f 143/143/143 144/144/144 145/145/145
f 144/144/144 146/146/146 145/145/145
f 146/146/146 133/133/133 134/134/134
f 145/145/145 146/146/146 134/134/134
f 149/149/149 148/148/148 147/147/147
f 150/150/150 149/149/149 147/147/147
f 147/147/147 148/148/148 151/151/151
f 148/148/148 152/152/152 151/151/151
f 151/151/151 152/152/152 153/153/153
f 152/152/152 154/154/154 153/153/153
f 153/153/153 154/154/154 155/155/155
f 154/154/154 156/156/156 155/155/155
f 155/155/155 156/156/156 157/157/157
f 156/156/156 158/158/158 157/157/157
f 157/157/157 158/158/158 159/159/159
f 158/158/158 160/160/160 159/159/159
f 159/159/159 160/160/160 161/161/161
f 160/160/160 162/162/162 161/161/161
f 161/161/161 162/162/162 163/163/163
f 162/162/162 164/164/164 163/163/163
f 167/167/167 166/166/166 165/165/165
f 168/168/168 167/167/167 165/165/165
f 168/168/168 165/165/165 169/169/169
f 170/170/170 168/168/168 169/169/169
f 170/170/170 169/169/169 171/171/171
f 172/172/172 170/170/170 171/171/171
f 175/175/175 174/174/174 173/173/173
f 176/176/176 175/175/175 173/173/173
f 175/175/175 177/177/177 174/174/174
f 177/177/177 178/178/178 174/174/174
f 177/177/177 179/179/179 178/178/178
f 179/179/179 180/180/180 178/178/178
f 183/183/183 182/182/182 181/181/181
f 184/184/184 183/183/183 181/181/181
f 184/184/184 181/181/181 185/185/185
f 186/186/186 184/184/184 185/185/185
f 186/186/186 185/185/185 187/187/187
f 188/188/188 186/186/186 187/187/187
f 191/191/191 190/190/190 189/189/189
f 192/192/192 191/191/191 189/189/189
f 192/192/192 189/189/189 193/193/193
f 194/194/194 192/192/192 193/193/193
f 194/194/194 193/193/193 195/195/195
f 196/196/196 194/194/194 195/195/195
