g merge2d_element_ball_6
v 0.1175181 -0.4012321 -0.1175181
v 0.2171451 -0.3070895 -0.2171452
v 0 -0.3070895 -0.3070897
v 0 -0.4012321 -0.1661958
v 0 -0.1661955 -0.4012321
v 0.2837138 -0.1661955 -0.2837139
v 0 0 -0.4342904
v 0.3070897 0 -0.3070897
v 0 0.1661955 -0.4012321
v 0.2837138 0.1661955 -0.2837139
v 0 0.3070901 -0.3070897
v 0.2171451 0.3070901 -0.2171452
v 0 0.4012325 -0.1661958
v 0.1175181 0.4012325 -0.1175181
v 0.03903626 -0.4271961 -0.03903626
v 0 -0.4271961 -0.05520558
v 0 0.4271961 -0.05520558
v 0.03903626 0.4271961 -0.03903626
v 0 0.4271961 0
v 0 -0.4271961 0
v 0 -0.4012321 -0.1661958
v 0 -0.3070895 -0.3070897
v -0.2171452 -0.3070895 -0.2171452
v -0.1175181 -0.4012321 -0.1175181
v -0.2837139 -0.1661955 -0.2837139
v 0 -0.1661955 -0.4012321
v -0.3070897 0 -0.3070897
v 0 0 -0.4342904
v -0.2837139 0.1661955 -0.2837139
v 0 0.1661955 -0.4012321
v -0.2171452 0.3070901 -0.2171452
v 0 0.3070901 -0.3070897
v -0.1175181 0.4012325 -0.1175181
v 0 0.4012325 -0.1661958
v 0 -0.4271961 -0.05520558
v -0.03903626 -0.4271961 -0.03903626
v -0.03903626 0.4271961 -0.03903626
v 0 0.4271961 -0.05520558
v 0 0.4271961 0
v 0 -0.4271961 0
v -0.1175181 -0.4012321 -0.1175181
v -0.2171452 -0.3070895 -0.2171452
v -0.3070897 -0.3070895 0
v -0.1661958 -0.4012321 0
v -0.4012321 -0.1661955 0
v -0.2837139 -0.1661955 -0.2837139
v -0.4342904 0 0
v -0.3070897 0 -0.3070897
v -0.4012321 0.1661955 0
v -0.2837139 0.1661955 -0.2837139
v -0.3070897 0.3070901 0
v -0.2171452 0.3070901 -0.2171452
v -0.1661958 0.4012325 0
v -0.1175181 0.4012325 -0.1175181
v -0.03903626 -0.4271961 -0.03903626
v -0.05520558 -0.4271961 0
v -0.05520558 0.4271961 0
v -0.03903626 0.4271961 -0.03903626
v 0 0.4271961 0
v 0 -0.4271961 0
v -0.1661958 -0.4012321 0
v -0.3070897 -0.3070895 0
v -0.2171452 -0.3070895 0.2171452
v -0.1175181 -0.4012321 0.1175181
v -0.2837139 -0.1661955 0.2837139
v -0.4012321 -0.1661955 0
v -0.3070897 0 0.3070897
v -0.4342904 0 0
v -0.2837139 0.1661955 0.2837139
v -0.4012321 0.1661955 0
v -0.2171452 0.3070901 0.2171452
v -0.3070897 0.3070901 0
v -0.1175181 0.4012325 0.1175181
v -0.1661958 0.4012325 0
v -0.05520558 -0.4271961 0
v -0.03903626 -0.4271961 0.03903626
v -0.03903626 0.4271961 0.03903626
v -0.05520558 0.4271961 0
v 0 0.4271961 0
v 0 -0.4271961 0
v -0.1175181 -0.4012321 0.1175181
v -0.2171452 -0.3070895 0.2171452
v 0 -0.3070895 0.3070897
v 0 -0.4012321 0.1661958
v 0 -0.1661955 0.4012321
v -0.2837139 -0.1661955 0.2837139
v 0 0 0.4342904
v -0.3070897 0 0.3070897
v 0 0.1661955 0.4012321
v -0.2837139 0.1661955 0.2837139
v 0 0.3070901 0.3070897
v -0.2171452 0.3070901 0.2171452
v 0 0.4012325 0.1661958
v -0.1175181 0.4012325 0.1175181
v -0.03903626 -0.4271961 0.03903626
v 0 -0.4271961 0.05520558
v 0 0.4271961 0.05520558
v -0.03903626 0.4271961 0.03903626
v 0 0.4271961 0
v 0 -0.4271961 0
v 0 -0.4012321 0.1661958
v 0 -0.3070895 0.3070897
v 0.2171452 -0.3070895 0.2171452
v 0.1175181 -0.4012321 0.1175181
v 0.2837139 -0.1661955 0.2837139
v 0 -0.1661955 0.4012321
v 0.3070897 0 0.3070897
v 0 0 0.4342904
v 0.2837139 0.1661955 0.2837139
v 0 0.1661955 0.4012321
v 0.2171452 0.3070901 0.2171452
v 0 0.3070901 0.3070897
v 0.1175181 0.4012325 0.1175181
v 0 0.4012325 0.1661958
v 0 -0.4271961 0.05520558
v 0.03903626 -0.4271961 0.03903626
v 0.03903626 0.4271961 0.03903626
v 0 0.4271961 0.05520558
v 0 0.4271961 0
v 0 -0.4271961 0
v 0.1175181 -0.4012321 0.1175181
v 0.2171452 -0.3070895 0.2171452
v 0.3070897 -0.3070895 0
v 0.1661958 -0.4012321 0
v 0.4012321 -0.1661955 0
v 0.2837139 -0.1661955 0.2837139
v 0.4342905 0 0
v 0.3070897 0 0.3070897
v 0.4012321 0.1661955 0
v 0.2837139 0.1661955 0.2837139
v 0.3070897 0.3070901 0
v 0.2171452 0.3070901 0.2171452
v 0.1661958 0.4012325 0
v 0.1175181 0.4012325 0.1175181
v 0.03903626 -0.4271961 0.03903626
v 0.05520558 -0.4271961 0
v 0.05520558 0.4271961 0
v 0.03903626 0.4271961 0.03903626
v 0 0.4271961 0
v 0 -0.4271961 0
v 0.1661958 -0.4012321 0
v 0.3070897 -0.3070895 0
v 0.2171451 -0.3070895 -0.2171452
v 0.1175181 -0.4012321 -0.1175181
v 0.2837138 -0.1661955 -0.2837139
v 0.4012321 -0.1661955 0
v 0.3070897 0 -0.3070897
v 0.4342905 0 0
v 0.2837138 0.1661955 -0.2837139
v 0.4012321 0.1661955 0
v 0.2171451 0.3070901 -0.2171452
v 0.3070897 0.3070901 0
v 0.1175181 0.4012325 -0.1175181
v 0.1661958 0.4012325 0
v 0.05520558 -0.4271961 0
v 0.03903626 -0.4271961 -0.03903626
v 0.03903626 0.4271961 -0.03903626
v 0.05520558 0.4271961 0
v 0 0.4271961 0
v 0 -0.4271961 0
vt 0.06975502 0.3515913
vt 0.09751272 0.3609057
vt 0.09751171 0.3202995
vt 0.06975561 0.3296155
vt 0.1261223 0.3140742
vt 0.1261228 0.367128
vt 0.155318 0.3118873
vt 0.1553244 0.3693125
vt 0.1845116 0.3140642
vt 0.1845281 0.3671181
vt 0.2131226 0.3202755
vt 0.2131386 0.3608818
vt 0.2408788 0.3295785
vt 0.2408968 0.3515543
vt 0.05147808 0.344252
vt 0.05147963 0.3369522
vt 0.2591597 0.3368943
vt 0.2591682 0.3441941
vt 0.2679759 0.3405342
vt 0.04266691 0.3405986
vt 0.2408537 0.04688033
vt 0.2131005 0.03756484
vt 0.2131 0.07817057
vt 0.2408547 0.06885611
vt 0.1844916 0.08439438
vt 0.1844965 0.03134057
vt 0.1552933 0.08657534
vt 0.1553063 0.0291501
vt 0.1260952 0.0843824
vt 0.1261151 0.03132859
vt 0.09748715 0.0781451
vt 0.09750915 0.03753939
vt 0.06973594 0.06881367
vt 0.06975192 0.0468379
vt 0.2591282 0.05421707
vt 0.2591296 0.06151687
vt 0.05146598 0.06146044
vt 0.05147248 0.05416062
vt 0.04265785 0.05780156
vt 0.2679404 0.05786346
vt 0.2413481 0.1142202
vt 0.2135834 0.1048852
vt 0.2135593 0.145491
vt 0.2413316 0.136196
vt 0.1849354 0.1517003
vt 0.1849578 0.09864596
vt 0.1557242 0.1538757
vt 0.1557388 0.09645003
vt 0.1265136 0.1516853
vt 0.1265185 0.09863149
vt 0.09789211 0.145462
vt 0.09788913 0.1048563
vt 0.07012498 0.1361525
vt 0.07011944 0.1141767
vt 0.2596259 0.1215744
vt 0.25962 0.1288742
vt 0.05184054 0.1288213
vt 0.05183756 0.1215215
vt 0.04302477 0.1251759
vt 0.2684371 0.1252323
vt 0.2420455 0.1829032
vt 0.2142918 0.1735867
vt 0.2142909 0.2141924
vt 0.2420465 0.2048789
vt 0.1856838 0.2204147
vt 0.1856854 0.1673609
vt 0.1564857 0.2225982
vt 0.1564931 0.1651729
vt 0.127286 0.2204052
vt 0.127302 0.1673509
vt 0.09867752 0.2141689
vt 0.09869552 0.1735632
vt 0.07092381 0.204839
vt 0.07093883 0.1828632
vt 0.26032 0.1902399
vt 0.260322 0.1975397
vt 0.05265236 0.1974853
vt 0.05265933 0.1901855
vt 0.04384416 0.1938269
vt 0.2691327 0.1938863
vt 0.2413011 0.2594746
vt 0.2135359 0.2501402
vt 0.2135115 0.2907459
vt 0.2412837 0.2814504
vt 0.1848875 0.2969542
vt 0.1849104 0.2439004
vt 0.1556763 0.2991296
vt 0.1556913 0.2417044
vt 0.1264657 0.2969392
vt 0.1264706 0.2438854
vt 0.09784371 0.2907155
vt 0.09784114 0.2501097
vt 0.070077 0.2814054
vt 0.07007146 0.2594296
vt 0.259579 0.2668298
vt 0.2595716 0.2741296
vt 0.05179256 0.2740742
vt 0.05178952 0.2667744
vt 0.04297685 0.2704283
vt 0.2683897 0.2704892
vt 0.07021993 0.5641875
vt 0.09799206 0.573483
vt 0.09796762 0.5328773
vt 0.07020241 0.5422117
vt 0.1265931 0.5266376
vt 0.1266161 0.5796914
vt 0.1558122 0.5244415
vt 0.1558273 0.5818668
vt 0.185033 0.5266225
vt 0.1850379 0.5796764
vt 0.2136624 0.5328469
vt 0.2136598 0.5734525
vt 0.241432 0.5421667
vt 0.2414265 0.5641426
vt 0.05193191 0.5568668
vt 0.05192446 0.549567
vt 0.259714 0.5495115
vt 0.259711 0.5568113
vt 0.2685266 0.5531654
vt 0.04311376 0.5532264
vt 0.07092988 0.4876161
vt 0.09868562 0.4969295
vt 0.09868461 0.4563238
vt 0.0709309 0.4656403
vt 0.1272911 0.450098
vt 0.1272926 0.5031518
vt 0.1564833 0.4479101
vt 0.1564908 0.5053353
vt 0.1856745 0.450088
vt 0.1856905 0.5031424
vt 0.214281 0.4563004
vt 0.214299 0.4969061
vt 0.2420377 0.4656004
vt 0.2420527 0.4875761
vt 0.05265444 0.4802768
vt 0.05265647 0.472977
vt 0.2603171 0.4729226
vt 0.2603241 0.4802224
vt 0.2691323 0.476564
vt 0.04384374 0.4766234
vt 0.07026637 0.4189331
vt 0.09803855 0.4282281
vt 0.09801459 0.3876224
vt 0.07024986 0.3969574
vt 0.12664 0.3813831
vt 0.1266625 0.4344375
vt 0.1558592 0.3791871
vt 0.1558737 0.4366128
vt 0.1850793 0.3813686
vt 0.1850843 0.4344225
vt 0.2137088 0.3875934
vt 0.2137058 0.4281991
vt 0.2414785 0.3969139
vt 0.241473 0.4188897
vt 0.05197793 0.4116113
vt 0.05197191 0.4043115
vt 0.2597604 0.4042586
vt 0.2597574 0.4115584
vt 0.2685731 0.407913
vt 0.04316073 0.4079694
vn 0.3577847 -0.8625429 -0.3577847
vn 0.5347602 -0.6542653 -0.5347602
vn 0 -0.6542654 -0.756265
vn 0 -0.8625429 -0.5059839
vn 0 -0.3498941 -0.9367893
vn 0.66241 -0.3498942 -0.66241
vn 0 0 -1
vn 0.7071068 0 -0.7071068
vn 0 0.3498937 -0.9367894
vn 0.6624101 0.3498939 -0.6624101
vn 0 0.6542643 -0.756266
vn 0.5347608 0.6542643 -0.5347608
vn 0 0.8625435 -0.5059829
vn 0.3577841 0.8625434 -0.3577841
vn 0.1503778 -0.9771249 -0.1503778
vn 0 -0.9771249 -0.2126661
vn 0 0.9771258 -0.2126623
vn 0.1503752 0.9771258 -0.1503752
vn 0 1 0
vn 0 -1 0
vn 0 -0.8625429 -0.5059839
vn 0 -0.6542654 -0.756265
vn -0.5347602 -0.6542654 -0.5347601
vn -0.3577846 -0.8625429 -0.3577847
vn -0.66241 -0.3498942 -0.66241
vn 0 -0.3498941 -0.9367893
vn -0.7071068 0 -0.7071066
vn 0 0 -1
vn -0.6624101 0.3498937 -0.6624101
vn 0 0.3498937 -0.9367894
vn -0.5347608 0.6542643 -0.5347608
vn 0 0.6542643 -0.756266
vn -0.3577839 0.8625435 -0.3577839
vn 0 0.8625435 -0.5059829
vn 0 -0.9771249 -0.2126661
vn -0.1503777 -0.9771249 -0.1503779
vn -0.1503752 0.9771258 -0.150375
vn 0 0.9771258 -0.2126623
vn 0 1 0
vn 0 -1 0
vn -0.3577846 -0.8625429 -0.3577847
vn -0.5347602 -0.6542654 -0.5347601
vn -0.7562651 -0.6542654 0
vn -0.5059839 -0.8625429 0
vn -0.9367893 -0.3498942 0
vn -0.66241 -0.3498942 -0.66241
vn -1 0 0
vn -0.7071068 0 -0.7071066
vn -0.9367894 0.3498937 0
vn -0.6624101 0.3498937 -0.6624101
vn -0.756266 0.6542644 0
vn -0.5347608 0.6542643 -0.5347608
vn -0.5059829 0.8625435 0
vn -0.3577839 0.8625435 -0.3577839
vn -0.1503777 -0.9771249 -0.1503779
vn -0.2126661 -0.9771249 0
vn -0.2126626 0.9771258 1.699535E-07
vn -0.1503752 0.9771258 -0.150375
vn 0 1 0
vn 0 -1 0
vn -0.5059839 -0.8625429 0
vn -0.7562651 -0.6542654 0
vn -0.5347602 -0.6542653 0.5347602
vn -0.3577846 -0.8625429 0.3577846
vn -0.66241 -0.3498942 0.66241
vn -0.9367893 -0.3498942 0
vn -0.7071068 0 0.7071066
vn -1 0 0
vn -0.6624101 0.3498937 0.6624101
vn -0.9367894 0.3498937 0
vn -0.5347608 0.6542643 0.5347608
vn -0.756266 0.6542644 0
vn -0.3577839 0.8625435 0.3577839
vn -0.5059829 0.8625435 0
vn -0.2126661 -0.9771249 0
vn -0.1503778 -0.9771249 0.1503778
vn -0.1503752 0.9771258 0.1503752
vn -0.2126626 0.9771258 1.699535E-07
vn 0 1 0
vn 0 -1 0
vn -0.3577846 -0.8625429 0.3577846
vn -0.5347602 -0.6542653 0.5347602
vn 0 -0.6542654 0.756265
vn 0 -0.8625429 0.5059838
vn 0 -0.3498941 0.9367893
vn -0.66241 -0.3498942 0.66241
vn 0 0 1
vn -0.7071068 0 0.7071066
vn 0 0.3498937 0.9367895
vn -0.6624101 0.3498937 0.6624101
vn 0 0.6542644 0.756266
vn -0.5347608 0.6542643 0.5347608
vn 0 0.8625435 0.5059829
vn -0.3577839 0.8625435 0.3577839
vn -0.1503778 -0.9771249 0.1503778
vn 0 -0.9771249 0.2126661
vn 0 0.9771258 0.2126623
vn -0.1503752 0.9771258 0.1503752
vn 0 1 0
vn 0 -1 0
vn 0 -0.8625429 0.5059838
vn 0 -0.6542654 0.756265
vn 0.5347602 -0.6542654 0.5347601
vn 0.3577846 -0.8625429 0.3577847
vn 0.66241 -0.3498941 0.66241
vn 0 -0.3498941 0.9367893
vn 0.7071068 0 0.7071068
vn 0 0 1
vn 0.6624101 0.3498937 0.6624101
vn 0 0.3498937 0.9367895
vn 0.5347608 0.6542643 0.5347608
vn 0 0.6542644 0.756266
vn 0.3577839 0.8625435 0.3577839
vn 0 0.8625435 0.5059829
vn 0 -0.9771249 0.2126661
vn 0.1503777 -0.9771249 0.1503779
vn 0.1503752 0.9771258 0.150375
vn 0 0.9771258 0.2126623
vn 0 1 0
vn 0 -1 0
vn 0.3577846 -0.8625429 0.3577847
vn 0.5347602 -0.6542654 0.5347601
vn 0.7562651 -0.6542654 0
vn 0.5059839 -0.8625429 0
vn 0.9367892 -0.3498943 0
vn 0.66241 -0.3498941 0.66241
vn 1 0 0
vn 0.7071068 0 0.7071068
vn 0.9367894 0.3498938 0
vn 0.6624101 0.3498937 0.6624101
vn 0.756266 0.6542643 -1.07902E-07
vn 0.5347608 0.6542643 0.5347608
vn 0.5059829 0.8625435 0
vn 0.3577839 0.8625435 0.3577839
vn 0.1503777 -0.9771249 0.1503779
vn 0.2126661 -0.9771249 0
vn 0.2126626 0.9771258 -1.699535E-07
vn 0.1503752 0.9771258 0.150375
vn 0 1 0
vn 0 -1 0
vn 0.5059839 -0.8625429 0
vn 0.7562651 -0.6542654 0
vn 0.5347602 -0.6542653 -0.5347602
vn 0.3577847 -0.8625429 -0.3577847
vn 0.66241 -0.3498942 -0.66241
vn 0.9367892 -0.3498943 0
vn 0.7071068 0 -0.7071068
vn 1 0 0
vn 0.6624101 0.3498939 -0.6624101
vn 0.9367894 0.3498938 0
vn 0.5347608 0.6542643 -0.5347608
vn 0.756266 0.6542643 -1.07902E-07
vn 0.3577841 0.8625434 -0.3577841
vn 0.5059829 0.8625435 0
vn 0.2126661 -0.9771249 0
vn 0.1503778 -0.9771249 -0.1503778
vn 0.1503752 0.9771258 -0.1503752
vn 0.2126626 0.9771258 -1.699535E-07
vn 0 1 0
vn 0 -1 0
g merge2d_element_ball_6_0
f 3/3/3 2/2/2 1/1/1
f 4/4/4 3/3/3 1/1/1
f 3/3/3 5/5/5 2/2/2
f 5/5/5 6/6/6 2/2/2
f 5/5/5 7/7/7 6/6/6
f 7/7/7 8/8/8 6/6/6
f 7/7/7 9/9/9 8/8/8
f 9/9/9 10/10/10 8/8/8
f 9/9/9 11/11/11 10/10/10
f 11/11/11 12/12/12 10/10/10
f 11/11/11 13/13/13 12/12/12
f 13/13/13 14/14/14 12/12/12
f 1/1/1 15/15/15 4/4/4
f 15/15/15 16/16/16 4/4/4
f 13/13/13 17/17/17 14/14/14
f 17/17/17 18/18/18 14/14/14
f 17/17/17 19/19/19 18/18/18
f 15/15/15 20/20/20 16/16/16
f 23/23/23 22/22/22 21/21/21
f 24/24/24 23/23/23 21/21/21
f 23/23/23 25/25/25 22/22/22
f 25/25/25 26/26/26 22/22/22
f 25/25/25 27/27/27 26/26/26
f 27/27/27 28/28/28 26/26/26
f 27/27/27 29/29/29 28/28/28
f 29/29/29 30/30/30 28/28/28
f 29/29/29 31/31/31 30/30/30
f 31/31/31 32/32/32 30/30/30
f 31/31/31 33/33/33 32/32/32
f 33/33/33 34/34/34 32/32/32
f 21/21/21 35/35/35 24/24/24
f 35/35/35 36/36/36 24/24/24
f 33/33/33 37/37/37 34/34/34
f 37/37/37 38/38/38 34/34/34
f 37/37/37 39/39/39 38/38/38
f 35/35/35 40/40/40 36/36/36
f 43/43/43 42/42/42 41/41/41
f 44/44/44 43/43/43 41/41/41
f 43/43/43 45/45/45 42/42/42
f 45/45/45 46/46/46 42/42/42
f 45/45/45 47/47/47 46/46/46
f 47/47/47 48/48/48 46/46/46
f 47/47/47 49/49/49 48/48/48
f 49/49/49 50/50/50 48/48/48
f 49/49/49 51/51/51 50/50/50
f 51/51/51 52/52/52 50/50/50
f 51/51/51 53/53/53 52/52/52
f 53/53/53 54/54/54 52/52/52
f 41/41/41 55/55/55 44/44/44
f 55/55/55 56/56/56 44/44/44
f 53/53/53 57/57/57 54/54/54
f 57/57/57 58/58/58 54/54/54
f 57/57/57 59/59/59 58/58/58
f 55/55/55 60/60/60 56/56/56
f 63/63/63 62/62/62 61/61/61
f 64/64/64 63/63/63 61/61/61
f 63/63/63 65/65/65 62/62/62
f 65/65/65 66/66/66 62/62/62
f 65/65/65 67/67/67 66/66/66
f 67/67/67 68/68/68 66/66/66
f 67/67/67 69/69/69 68/68/68
f 69/69/69 70/70/70 68/68/68
f 69/69/69 71/71/71 70/70/70
f 71/71/71 72/72/72 70/70/70
f 71/71/71 73/73/73 72/72/72
f 73/73/73 74/74/74 72/72/72
f 61/61/61 75/75/75 64/64/64
f 75/75/75 76/76/76 64/64/64
f 73/73/73 77/77/77 74/74/74
f 77/77/77 78/78/78 74/74/74
f 77/77/77 79/79/79 78/78/78
f 75/75/75 80/80/80 76/76/76
f 83/83/83 82/82/82 81/81/81
f 84/84/84 83/83/83 81/81/81
f 83/83/83 85/85/85 82/82/82
f 85/85/85 86/86/86 82/82/82
f 85/85/85 87/87/87 86/86/86
f 87/87/87 88/88/88 86/86/86
f 87/87/87 89/89/89 88/88/88
f 89/89/89 90/90/90 88/88/88
f 89/89/89 91/91/91 90/90/90
f 91/91/91 92/92/92 90/90/90
f 91/91/91 93/93/93 92/92/92
f 93/93/93 94/94/94 92/92/92
f 81/81/81 95/95/95 84/84/84
f 95/95/95 96/96/96 84/84/84
f 93/93/93 97/97/97 94/94/94
f 97/97/97 98/98/98 94/94/94
f 97/97/97 99/99/99 98/98/98
f 95/95/95 100/100/100 96/96/96
f 103/103/103 102/102/102 101/101/101
f 104/104/104 103/103/103 101/101/101
f 103/103/103 105/105/105 102/102/102
f 105/105/105 106/106/106 102/102/102
f 105/105/105 107/107/107 106/106/106
f 107/107/107 108/108/108 106/106/106
f 107/107/107 109/109/109 108/108/108
f 109/109/109 110/110/110 108/108/108
f 109/109/109 111/111/111 110/110/110
f 111/111/111 112/112/112 110/110/110
f 111/111/111 113/113/113 112/112/112
f 113/113/113 114/114/114 112/112/112
f 101/101/101 115/115/115 104/104/104
f 115/115/115 116/116/116 104/104/104
f 113/113/113 117/117/117 114/114/114
f 117/117/117 118/118/118 114/114/114
f 117/117/117 119/119/119 118/118/118
f 115/115/115 120/120/120 116/116/116
f 123/123/123 122/122/122 121/121/121
f 124/124/124 123/123/123 121/121/121
f 123/123/123 125/125/125 122/122/122
f 125/125/125 126/126/126 122/122/122
f 125/125/125 127/127/127 126/126/126
f 127/127/127 128/128/128 126/126/126
f 127/127/127 129/129/129 128/128/128
f 129/129/129 130/130/130 128/128/128
f 129/129/129 131/131/131 130/130/130
f 131/131/131 132/132/132 130/130/130
f 131/131/131 133/133/133 132/132/132
f 133/133/133 134/134/134 132/132/132
f 121/121/121 135/135/135 124/124/124
f 135/135/135 136/136/136 124/124/124
f 133/133/133 137/137/137 134/134/134
f 137/137/137 138/138/138 134/134/134
f 137/137/137 139/139/139 138/138/138
f 135/135/135 140/140/140 136/136/136
f 143/143/143 142/142/142 141/141/141
f 144/144/144 143/143/143 141/141/141
f 143/143/143 145/145/145 142/142/142
f 145/145/145 146/146/146 142/142/142
f 145/145/145 147/147/147 146/146/146
f 147/147/147 148/148/148 146/146/146
f 147/147/147 149/149/149 148/148/148
f 149/149/149 150/150/150 148/148/148
f 149/149/149 151/151/151 150/150/150
f 151/151/151 152/152/152 150/150/150
f 151/151/151 153/153/153 152/152/152
f 153/153/153 154/154/154 152/152/152
f 141/141/141 155/155/155 144/144/144
f 155/155/155 156/156/156 144/144/144
f 153/153/153 157/157/157 154/154/154
f 157/157/157 158/158/158 154/154/154
f 157/157/157 159/159/159 158/158/158
f 155/155/155 160/160/160 156/156/156
