g merge2d_element_text_5
v -0.2895739 -2.9E-07 -0.1220327
v -0.2895749 -0.4428792 -0.1220326
v -0.05110198 -0.272541 -0.1220326
v -0.05110198 -0.06813531 -0.1220327
v 0.2895739 -0.4428792 -0.1220326
v 0.2895739 -0.272541 -0.1220326
v -0.05110198 0.1022028 -0.1220327
v 0.2555071 0.1022028 -0.1220327
v -0.05110198 0.272541 -0.1220327
v -0.2895749 0.4428791 -0.1220326
v 0.2895739 0.4428791 -0.1220326
v 0.2555071 -0.06813531 -0.1220327
v 0.2895739 0.272541 -0.1220327
v -0.2895739 -2.9E-07 0.1220327
v -0.05110198 -0.272541 0.1220326
v -0.2895749 -0.4428791 0.1220327
v -0.05110198 -0.06813531 0.1220327
v 0.2895739 -0.4428791 0.1220327
v 0.2895739 -0.272541 0.1220326
v -0.05110198 0.1022028 0.1220326
v 0.2555071 0.1022028 0.1220326
v -0.05110198 0.272541 0.1220326
v -0.2895749 0.4428791 0.1220326
v 0.2895739 0.4428791 0.1220326
v 0.2555071 -0.06813531 0.1220327
v 0.2895739 0.272541 0.1220326
v -0.2895739 -2.9E-07 0.1220327
v -0.2895749 -0.4428791 0.1220327
v -0.2895749 -0.4428792 -0.1220326
v -0.2895739 -2.9E-07 -0.1220327
v -0.2895749 0.4428791 0.1220326
v -0.2895749 0.4428791 -0.1220326
v -0.05110198 -0.272541 0.1220326
v -0.05110198 -0.06813531 0.1220327
v -0.05110198 -0.06813531 -0.1220327
v -0.05110198 -0.272541 -0.1220326
v -0.2895749 -0.4428791 0.1220327
v 0.2895739 -0.4428791 0.1220327
v 0.2895739 -0.4428792 -0.1220326
v -0.2895749 -0.4428792 -0.1220326
v 0.2895739 -0.4428791 0.1220327
v 0.2895739 -0.272541 0.1220326
v 0.2895739 -0.272541 -0.1220326
v 0.2895739 -0.4428792 -0.1220326
v 0.2895739 -0.272541 0.1220326
v -0.05110198 -0.272541 0.1220326
v -0.05110198 -0.272541 -0.1220326
v 0.2895739 -0.272541 -0.1220326
v 0.2555071 0.1022028 0.1220326
v -0.05110198 0.1022028 0.1220326
v -0.05110198 0.1022028 -0.1220327
v 0.2555071 0.1022028 -0.1220327
v -0.05110198 0.1022028 0.1220326
v -0.05110198 0.272541 0.1220326
v -0.05110198 0.272541 -0.1220327
v -0.05110198 0.1022028 -0.1220327
v 0.2895739 0.4428791 0.1220326
v -0.2895749 0.4428791 0.1220326
v -0.2895749 0.4428791 -0.1220326
v 0.2895739 0.4428791 -0.1220326
v -0.05110198 -0.06813531 0.1220327
v 0.2555071 -0.06813531 0.1220327
v 0.2555071 -0.06813531 -0.1220327
v -0.05110198 -0.06813531 -0.1220327
v 0.2555071 -0.06813531 0.1220327
v 0.2555071 0.1022028 0.1220326
v 0.2555071 0.1022028 -0.1220327
v 0.2555071 -0.06813531 -0.1220327
v -0.05110198 0.272541 0.1220326
v 0.2895739 0.272541 0.1220326
v 0.2895739 0.272541 -0.1220327
v -0.05110198 0.272541 -0.1220327
v 0.2895739 0.272541 0.1220326
v 0.2895739 0.4428791 0.1220326
v 0.2895739 0.4428791 -0.1220326
v 0.2895739 0.272541 -0.1220327
vt 0.6388776 0.2945777
vt 0.6388776 0.2019296
vt 0.5889903 0.2375635
vt 0.5889903 0.2803243
vt 0.5177235 0.2019296
vt 0.5177235 0.2375635
vt 0.5889903 0.3159582
vt 0.5248498 0.3159582
vt 0.5889903 0.351592
vt 0.6388776 0.3872258
vt 0.5177235 0.3872258
vt 0.5248498 0.2803243
vt 0.5177235 0.351592
vt 0.3844543 0.2945777
vt 0.4343415 0.2375635
vt 0.3844543 0.2019296
vt 0.4343415 0.2803243
vt 0.5056084 0.2019296
vt 0.5056084 0.2375635
vt 0.4343415 0.3159582
vt 0.498482 0.3159582
vt 0.4343415 0.351592
vt 0.3844543 0.3872258
vt 0.5056084 0.3872258
vt 0.498482 0.2803243
vt 0.5056084 0.351592
vt 0.7833667 0.4097936
vt 0.8760147 0.4097936
vt 0.8760147 0.3587364
vt 0.7833667 0.3587364
vt 0.6907187 0.4097936
vt 0.6907187 0.3587364
vt 0.5743697 0.9819999
vt 0.6171457 0.9818327
vt 0.6169302 0.9307763
vt 0.5741845 0.9309427
vt 0.346336 0.9829155
vt 0.4674833 0.9823763
vt 0.4672703 0.93132
vt 0.3461101 0.931859
vt 0.4674833 0.9823763
vt 0.5031022 0.9822386
vt 0.5029185 0.9311814
vt 0.4672703 0.93132
vt 0.5031022 0.9822386
vt 0.5743697 0.9819999
vt 0.5741845 0.9309427
vt 0.5029185 0.9311814
vt 0.7591243 0.153381
vt 0.8232566 0.1538538
vt 0.8236392 0.1027989
vt 0.7594925 0.1023261
vt 0.8232566 0.1538538
vt 0.8588867 0.1541249
vt 0.8592752 0.1030699
vt 0.8236392 0.1027989
vt 0.8056331 0.5517025
vt 0.9267902 0.550985
vt 0.9264875 0.4999284
vt 0.8053395 0.5006468
vt 0.6171457 0.9818327
vt 0.6812923 0.9815437
vt 0.6810626 0.9304872
vt 0.6169302 0.9307763
vt 0.7234958 0.1531303
vt 0.7591243 0.153381
vt 0.7594925 0.1023261
vt 0.7238549 0.1020746
vt 0.6987159 0.5522627
vt 0.7699888 0.5519028
vt 0.7697178 0.5008463
vt 0.6984584 0.5012062
vt 0.7699888 0.5519028
vt 0.8056331 0.5517025
vt 0.8053395 0.5006468
vt 0.7697178 0.5008463
vn 0 0 -1
vn 0 0 -1
vn 0 0 -1
vn 0 0 -1
vn 0 0 -1
vn 0 0 -1
vn 0 0 -1
vn 0 0 -1
vn 0 0 -1
vn 0 0 -1
vn 0 1.119743E-07 -1
vn 0 0 -1
vn 0 1.119743E-07 -1
vn 0 0 1
vn 0 0 1
vn 0 0 1
vn 0 0 1
vn 0 2.239486E-07 1
vn 0 2.239486E-07 1
vn 0 1.119743E-07 1
vn 0 1.119743E-07 1
vn 0 0 1
vn 0 0 1
vn 0 0 1
vn 0 1.119743E-07 1
vn 0 0 1
vn -1 2.151087E-06 0
vn -1 2.151087E-06 0
vn -1 2.151087E-06 0
vn -1 2.151087E-06 0
vn -1 -2.140347E-06 0
vn -1 -2.140346E-06 0
vn 1 0 0
vn 1 0 0
vn 1 0 0
vn 1 0 0
vn 0 -1 3.454409E-07
vn 0 -1 3.454409E-07
vn 0 -1 3.454409E-07
vn 0 -1 3.454409E-07
vn 1 0 0
vn 1 0 0
vn 1 0 0
vn 1 0 0
vn 0 1 0
vn 0 1 0
vn 0 1 0
vn 0 1 0
vn 0 1 0
vn 0 1 0
vn 0 1 0
vn 0 1 0
vn 1 0 0
vn 1 0 0
vn 1 0 0
vn 1 0 0
vn 0 1 -3.45441E-07
vn 0 1 -3.45441E-07
vn 0 1 -3.45441E-07
vn 0 1 -3.45441E-07
vn 0 -1 0
vn 0 -1 0
vn 0 -1 0
vn 0 -1 0
vn 1 0 0
vn 1 0 0
vn 1 0 0
vn 1 0 0
vn 0 -1 0
vn 0 -1 0
vn 0 -1 0
vn 0 -1 0
vn 1 0 0
vn 1 0 0
vn 1 0 0
vn 1 0 0
g merge2d_element_text_5_0
f 3/3/3 2/2/2 1/1/1
f 3/3/3 1/1/1 4/4/4
f 5/5/5 2/2/2 3/3/3
f 3/3/3 6/6/6 5/5/5
f 7/7/7 4/4/4 1/1/1
f 7/7/7 8/8/8 4/4/4
f 7/7/7 1/1/1 9/9/9
f 1/1/1 10/10/10 9/9/9
f 9/9/9 10/10/10 11/11/11
f 12/12/12 4/4/4 8/8/8
f 11/11/11 13/13/13 9/9/9
f 16/16/16 15/15/15 14/14/14
f 14/14/14 15/15/15 17/17/17
f 16/16/16 18/18/18 15/15/15
f 19/19/19 15/15/15 18/18/18
f 17/17/17 20/20/20 14/14/14
f 21/21/21 20/20/20 17/17/17
f 14/14/14 20/20/20 22/22/22
f 23/23/23 14/14/14 22/22/22
f 23/23/23 22/22/22 24/24/24
f 17/17/17 25/25/25 21/21/21
f 26/26/26 24/24/24 22/22/22
f 29/29/29 28/28/28 27/27/27
f 30/30/30 29/29/29 27/27/27
f 30/30/30 27/27/27 31/31/31
f 32/32/32 30/30/30 31/31/31
f 35/35/35 34/34/34 33/33/33
f 36/36/36 35/35/35 33/33/33
f 39/39/39 38/38/38 37/37/37
f 40/40/40 39/39/39 37/37/37
f 43/43/43 42/42/42 41/41/41
f 44/44/44 43/43/43 41/41/41
f 47/47/47 46/46/46 45/45/45
f 48/48/48 47/47/47 45/45/45
f 51/51/51 50/50/50 49/49/49
f 52/52/52 51/51/51 49/49/49
f 55/55/55 54/54/54 53/53/53
f 56/56/56 55/55/55 53/53/53
f 59/59/59 58/58/58 57/57/57
f 60/60/60 59/59/59 57/57/57
f 63/63/63 62/62/62 61/61/61
f 64/64/64 63/63/63 61/61/61
f 67/67/67 66/66/66 65/65/65
f 68/68/68 67/67/67 65/65/65
f 71/71/71 70/70/70 69/69/69
f 72/72/72 71/71/71 69/69/69
f 75/75/75 74/74/74 73/73/73
f 76/76/76 75/75/75 73/73/73
