g merge2d_element_number_5
v -0.3213169 -0.3916335 -0.1220326
v -0.2134401 -0.4240372 -0.1220326
v -0.2596692 -0.2269093 -0.1220326
v -0.3213169 -0.2008107 -0.1220326
v -0.1224648 -0.268018 -0.1220326
v -0.05820648 -0.4424908 -0.1220326
v 0.00232725 -0.2574849 -0.1220326
v 0.07424629 -0.4319255 -0.1220326
v 0.1997484 -0.3812928 -0.1220326
v 0.2686871 -0.3153379 -0.1220326
v 0.06397797 -0.2217732 -0.1220327
v 0.08742391 -0.1483929 -0.1220326
v 0.320256 -0.1809847 -0.1220326
v 0.3213167 -0.07416194 -0.1220327
v 0.04769897 -0.06735631 -0.1220327
v 0.2707612 0.03244381 -0.1220327
v 0.1462058 0.1145167 -0.1220327
v 0.00232383 0.1347067 -0.1220327
v -0.08050506 -0.03608671 -0.1220327
v -0.08284332 0.1326888 -0.1220327
v -0.1774758 -0.04243514 -0.1220327
v -0.2872492 -0.06852347 -0.1220327
v -0.2872492 0.2210674 -0.1220327
v -0.08284332 0.2721528 -0.1220327
v -0.2872492 0.4424908 -0.1220326
v 0.2919003 0.2721528 -0.1220327
v 0.2919003 0.4424908 -0.1220326
v -0.3213169 -0.3916334 0.1220326
v -0.2596692 -0.2269093 0.1220326
v -0.2134401 -0.4240372 0.1220326
v -0.3213169 -0.2008107 0.1220326
v -0.1224648 -0.268018 0.1220327
v -0.05820648 -0.4424908 0.1220326
v 0.00232725 -0.2574849 0.1220326
v 0.07424629 -0.4319254 0.1220326
v 0.1997484 -0.3812928 0.1220326
v 0.2686871 -0.3153379 0.1220326
v 0.06397797 -0.2217732 0.1220327
v 0.08742391 -0.1483929 0.1220327
v 0.320256 -0.1809847 0.1220327
v 0.3213167 -0.07416195 0.1220327
v 0.04769897 -0.06735633 0.1220327
v 0.2707612 0.03244381 0.1220327
v 0.1462058 0.1145167 0.1220326
v 0.00232383 0.1347067 0.1220326
v -0.08050506 -0.03608671 0.1220327
v -0.08284332 0.1326888 0.1220326
v -0.1774758 -0.04243514 0.1220327
v -0.2872492 -0.06852349 0.1220327
v -0.2872492 0.2210673 0.1220326
v -0.08284332 0.2721528 0.1220326
v -0.2872492 0.4424909 0.1220326
v 0.2919003 0.2721528 0.1220326
v 0.2919003 0.4424909 0.1220326
v -0.3213169 -0.3916334 0.1220326
v -0.2134401 -0.4240372 0.1220326
v -0.2134401 -0.4240372 -0.1220326
v -0.3213169 -0.3916335 -0.1220326
v -0.05820648 -0.4424908 -0.1220326
v -0.05820648 -0.4424908 0.1220326
v 0.07424629 -0.4319255 -0.1220326
v 0.07424629 -0.4319254 0.1220326
v 0.1997484 -0.3812928 -0.1220326
v 0.1997484 -0.3812928 0.1220326
v 0.2686871 -0.3153379 -0.1220326
v 0.2686871 -0.3153379 0.1220326
v 0.320256 -0.1809847 -0.1220326
v 0.320256 -0.1809847 0.1220327
v 0.00232725 -0.2574849 0.1220326
v -0.1224648 -0.268018 0.1220327
v -0.1224648 -0.268018 -0.1220326
v 0.00232725 -0.2574849 -0.1220326
v 0.06397797 -0.2217732 0.1220327
v 0.06397797 -0.2217732 -0.1220327
v 0.08742391 -0.1483929 0.1220327
v 0.08742391 -0.1483929 -0.1220326
v 0.04769897 -0.06735633 0.1220327
v 0.04769897 -0.06735631 -0.1220327
v -0.08050506 -0.03608671 0.1220327
v -0.08050506 -0.03608671 -0.1220327
v -0.1774758 -0.04243514 0.1220327
v -0.1774758 -0.04243514 -0.1220327
v -0.2872492 -0.06852349 0.1220327
v -0.2872492 -0.06852347 -0.1220327
v -0.2596692 -0.2269093 -0.1220326
v -0.2596692 -0.2269093 0.1220326
v -0.3213169 -0.2008107 -0.1220326
v -0.3213169 -0.2008107 0.1220326
v -0.3213169 -0.2008107 0.1220326
v -0.3213169 -0.3916334 0.1220326
v -0.3213169 -0.3916335 -0.1220326
v -0.3213169 -0.2008107 -0.1220326
v 0.3213167 -0.07416195 0.1220327
v 0.2707612 0.03244381 0.1220327
v 0.2707612 0.03244381 -0.1220327
v 0.3213167 -0.07416194 -0.1220327
v 0.1462058 0.1145167 -0.1220327
v 0.1462058 0.1145167 0.1220326
v 0.00232383 0.1347067 -0.1220327
v 0.00232383 0.1347067 0.1220326
v -0.08284332 0.1326888 -0.1220327
v -0.08284332 0.1326888 0.1220326
v 0.320256 -0.1809847 0.1220327
v 0.320256 -0.1809847 -0.1220326
v -0.08284332 0.2721528 0.1220326
v 0.2919003 0.2721528 0.1220326
v 0.2919003 0.2721528 -0.1220327
v -0.08284332 0.2721528 -0.1220327
v -0.08284332 0.1326888 0.1220326
v -0.08284332 0.2721528 0.1220326
v -0.08284332 0.2721528 -0.1220327
v -0.08284332 0.1326888 -0.1220327
v -0.2872492 0.2210673 0.1220326
v -0.2872492 -0.06852349 0.1220327
v -0.2872492 -0.06852347 -0.1220327
v -0.2872492 0.2210674 -0.1220327
v -0.2872492 0.4424909 0.1220326
v -0.2872492 0.4424908 -0.1220326
v 0.2919003 0.4424909 0.1220326
v -0.2872492 0.4424909 0.1220326
v -0.2872492 0.4424908 -0.1220326
v 0.2919003 0.4424908 -0.1220326
v 0.2919003 0.2721528 0.1220326
v 0.2919003 0.4424909 0.1220326
v 0.2919003 0.4424908 -0.1220326
v 0.2919003 0.2721528 -0.1220327
vt 0.9919089 0.1097752
vt 0.9678333 0.1025438
vt 0.9781506 0.146538
vt 0.9919089 0.152363
vt 0.9475298 0.1373639
vt 0.9331884 0.09842557
vt 0.9196793 0.1397148
vt 0.9036286 0.1007832
vt 0.8756191 0.1120834
vt 0.8602338 0.1268027
vt 0.9059203 0.1476843
vt 0.9006872 0.1640613
vt 0.8487242 0.1567874
vt 0.848488 0.1806283
vt 0.9095532 0.1821474
vt 0.8597709 0.2044197
vt 0.8875688 0.2227367
vt 0.91968 0.2272427
vt 0.9381651 0.1891258
vt 0.9386871 0.2267927
vt 0.9598073 0.1877088
vt 0.9843062 0.1818862
vt 0.9843062 0.2465169
vt 0.9386871 0.2579175
vt 0.9843062 0.2959332
vt 0.8550525 0.2579175
vt 0.8550525 0.2959332
vt 0.6907251 0.1097752
vt 0.7044835 0.146538
vt 0.714801 0.1025438
vt 0.6907251 0.152363
vt 0.7351042 0.1373639
vt 0.7494454 0.09842557
vt 0.7629547 0.1397148
vt 0.7790055 0.1007832
vt 0.8070149 0.1120834
vt 0.8224003 0.1268027
vt 0.7767137 0.1476843
vt 0.7819468 0.1640613
vt 0.8339097 0.1567874
vt 0.8341461 0.1806283
vt 0.7730808 0.1821474
vt 0.8228632 0.2044197
vt 0.7950652 0.2227367
vt 0.7629539 0.2272427
vt 0.7444689 0.1891258
vt 0.7439469 0.2267927
vt 0.7228265 0.1877088
vt 0.6983278 0.1818862
vt 0.6983278 0.2465169
vt 0.7439469 0.2579175
vt 0.6983278 0.2959332
vt 0.8275815 0.2579175
vt 0.8275815 0.2959332
vt 0.6274335 0.1325744
vt 0.6274276 0.1577275
vt 0.681896 0.157752
vt 0.6819042 0.1325752
vt 0.6818756 0.1926898
vt 0.6274058 0.1926435
vt 0.6818435 0.2223985
vt 0.6273736 0.2223293
vt 0.6817979 0.2526501
vt 0.6273279 0.25256
vt 0.6817572 0.2739766
vt 0.6272879 0.2738733
vt 0.6816927 0.3061067
vt 0.6272219 0.3059972
vt 0.9730169 0.8400719
vt 0.9730138 0.8121308
vt 0.9185439 0.8121352
vt 0.9185469 0.8400818
vt 0.9730176 0.8559667
vt 0.9185476 0.8559735
vt 0.9730176 0.8731532
vt 0.9185476 0.8731571
vt 0.9730176 0.8932886
vt 0.9185476 0.8932909
vt 0.9730199 0.9227329
vt 0.9185498 0.9227368
vt 0.9730221 0.9444172
vt 0.9185521 0.9444202
vt 0.9730228 0.9695989
vt 0.9185528 0.9695996
vt 0.9185476 0.7801696
vt 0.9730176 0.7801718
vt 0.9185484 0.7652305
vt 0.9730184 0.7652319
vt 0.6274267 0.08998361
vt 0.6274335 0.1325744
vt 0.6819042 0.1325752
vt 0.681896 0.08997226
vt 0.6888317 0.5091054
vt 0.7151728 0.5091025
vt 0.7151465 0.4546324
vt 0.6888249 0.4546355
vt 0.7484213 0.454613
vt 0.748479 0.5090821
vt 0.7808259 0.4545717
vt 0.7809279 0.5090409
vt 0.7998127 0.4545298
vt 0.7999671 0.5089989
vt 0.6649861 0.5091045
vt 0.6649868 0.4546346
vt 0.831119 0.5088938
vt 0.9147708 0.5085316
vt 0.9145271 0.4540623
vt 0.8309112 0.4544239
vt 0.7999671 0.5089989
vt 0.831119 0.5088938
vt 0.8309112 0.4544239
vt 0.7998127 0.4545298
vt 0.5944481 0.06586716
vt 0.6590788 0.06586716
vt 0.6590788 0.01139721
vt 0.5944481 0.01139721
vt 0.5450305 0.06586716
vt 0.5450305 0.01139721
vt 0.4157766 0.06586716
vt 0.5450305 0.06586716
vt 0.5450305 0.01139721
vt 0.4157766 0.01139721
vt 0.9147708 0.5085316
vt 0.952792 0.5083531
vt 0.9525375 0.4538838
vt 0.9145271 0.4540623
vn 0 0 -1
vn 0 0 -1
vn 0 0 -1
vn 1.297098E-07 0 -1
vn 1.359378E-07 0 -1
vn 1.359378E-07 0 -1
vn 1.359378E-07 0 -1
vn 0 0 -1
vn 0 0 -1
vn -1.166677E-07 -3.884451E-07 -1
vn -1.166677E-07 -3.88445E-07 -1
vn 0 0 -1
vn 0 0 -1
vn 0 -2.382739E-07 -1
vn 0 -2.382739E-07 -1
vn 0 0 -1
vn 1.083832E-07 0 -1
vn 1.083832E-07 0 -1
vn 0 0 -1
vn 0 0 -1
vn 0 0 -1
vn 0 0 -1
vn 0 0 -1
vn 0 1.119744E-07 -1
vn 0 1.119743E-07 -1
vn 0 1.119743E-07 -1
vn 0 1.119743E-07 -1
vn 0 0 1
vn 0 0 1
vn 0 0 1
vn 0 0 1
vn 1.359378E-07 0 1
vn 1.359378E-07 0 1
vn 1.359378E-07 0 1
vn 0 0 1
vn 0 0 1
vn -1.166678E-07 -3.884453E-07 1
vn -1.166678E-07 -3.884453E-07 1
vn 0 -1.347266E-07 1
vn 0 -1.347266E-07 1
vn 0 0 1
vn 0 0 1
vn 0 0 1
vn 0 0 1
vn 0 0 1
vn 0 1.129085E-07 1
vn 0 0 1
vn 0 1.249623E-07 1
vn 0 1.249623E-07 1
vn 0 0 1
vn 0 0 1
vn 0 0 1
vn 0 0 1
vn 0 0 1
vn -0.28768 -0.9577265 1.110088E-07
vn -0.1897803 -0.9818267 0
vn -0.1897803 -0.9818267 0
vn -0.28768 -0.9577265 1.110088E-07
vn -0.02740922 -0.9996243 0
vn -0.02740922 -0.9996243 0
vn 0.2308361 -0.9729927 0
vn 0.2308361 -0.9729927 0
vn 0.514246 -0.8576427 0
vn 0.514246 -0.8576427 0
vn 0.856883 -0.515511 0
vn 0.856883 -0.5155109 0
vn 0.9770079 -0.2132031 0
vn 0.9770079 -0.2132031 0
vn -0.2407424 0.970589 0
vn 0.1159156 0.9932591 0
vn 0.1159156 0.9932591 0
vn -0.2407424 0.970589 0
vn -0.7884851 0.6150539 0
vn -0.7884851 0.6150539 0
vn -0.994489 -0.1048414 0
vn -0.994489 -0.1048414 0
vn -0.5559112 -0.8312417 0
vn -0.5559112 -0.8312417 0
vn -0.1100032 -0.9939313 0
vn -0.1100032 -0.9939313 0
vn 0.1549972 -0.9879149 0
vn 0.1549972 -0.9879149 0
vn 0.2312165 -0.9729023 0
vn 0.2312165 -0.9729023 0
vn 0.3201839 0.9473554 -1.191398E-07
vn 0.3201838 0.9473554 -1.191398E-07
vn 0.3898543 0.9208766 0
vn 0.3898543 0.9208766 0
vn -1 0 0
vn -1 0 0
vn -1 0 0
vn -1 0 0
vn 0.9741485 0.2259084 0
vn 0.7329693 0.6802617 0
vn 0.7329693 0.6802617 0
vn 0.9741485 0.2259084 0
vn 0.3559983 0.9344866 0
vn 0.3559983 0.9344866 0
vn 0.07908865 0.9968676 0
vn 0.07908865 0.9968676 0
vn -0.02368585 0.9997194 0
vn -0.02368585 0.9997194 0
vn 0.9770079 -0.2132031 0
vn 0.9770079 -0.2132031 0
vn 0 -1 0
vn 0 -1 0
vn 0 -1 0
vn 0 -1 0
vn 1 0 0
vn 1 0 0
vn 1 0 0
vn 1 0 0
vn -1 0 0
vn -1 0 0
vn -1 0 0
vn -1 0 0
vn -1 0 0
vn -1 0 0
vn 0 1 -1.727203E-07
vn 0 1 -1.727203E-07
vn 0 1 -1.727203E-07
vn 0 1 -1.727203E-07
vn 1 0 0
vn 1 0 0
vn 1 0 0
vn 1 0 0
g merge2d_element_number_5_0
f 3/3/3 2/2/2 1/1/1
f 1/1/1 4/4/4 3/3/3
f 5/5/5 2/2/2 3/3/3
f 6/6/6 2/2/2 5/5/5
f 5/5/5 7/7/7 6/6/6
f 8/8/8 6/6/6 7/7/7
f 9/9/9 8/8/8 7/7/7
f 10/10/10 9/9/9 7/7/7
f 10/10/10 7/7/7 11/11/11
f 12/12/12 10/10/10 11/11/11
f 13/13/13 10/10/10 12/12/12
f 13/13/13 12/12/12 14/14/14
f 12/12/12 15/15/15 14/14/14
f 14/14/14 15/15/15 16/16/16
f 15/15/15 17/17/17 16/16/16
f 18/18/18 17/17/17 15/15/15
f 15/15/15 19/19/19 18/18/18
f 18/18/18 19/19/19 20/20/20
f 19/19/19 21/21/21 20/20/20
f 22/22/22 20/20/20 21/21/21
f 23/23/23 20/20/20 22/22/22
f 20/20/20 23/23/23 24/24/24
f 25/25/25 24/24/24 23/23/23
f 24/24/24 25/25/25 26/26/26
f 26/26/26 25/25/25 27/27/27
f 30/30/30 29/29/29 28/28/28
f 31/31/31 28/28/28 29/29/29
f 30/30/30 32/32/32 29/29/29
f 30/30/30 33/33/33 32/32/32
f 34/34/34 32/32/32 33/33/33
f 33/33/33 35/35/35 34/34/34
f 35/35/35 36/36/36 34/34/34
f 36/36/36 37/37/37 34/34/34
f 34/34/34 37/37/37 38/38/38
f 37/37/37 39/39/39 38/38/38
f 37/37/37 40/40/40 39/39/39
f 39/39/39 40/40/40 41/41/41
f 42/42/42 39/39/39 41/41/41
f 42/42/42 41/41/41 43/43/43
f 44/44/44 42/42/42 43/43/43
f 44/44/44 45/45/45 42/42/42
f 46/46/46 42/42/42 45/45/45
f 46/46/46 45/45/45 47/47/47
f 48/48/48 46/46/46 47/47/47
f 47/47/47 49/49/49 48/48/48
f 47/47/47 50/50/50 49/49/49
f 50/50/50 47/47/47 51/51/51
f 51/51/51 52/52/52 50/50/50
f 52/52/52 51/51/51 53/53/53
f 52/52/52 53/53/53 54/54/54
f 57/57/57 56/56/56 55/55/55
f 58/58/58 57/57/57 55/55/55
f 57/57/57 59/59/59 56/56/56
f 59/59/59 60/60/60 56/56/56
f 59/59/59 61/61/61 60/60/60
f 61/61/61 62/62/62 60/60/60
f 61/61/61 63/63/63 62/62/62
f 63/63/63 64/64/64 62/62/62
f 63/63/63 65/65/65 64/64/64
f 65/65/65 66/66/66 64/64/64
f 65/65/65 67/67/67 66/66/66
f 67/67/67 68/68/68 66/66/66
f 71/71/71 70/70/70 69/69/69
f 72/72/72 71/71/71 69/69/69
f 72/72/72 69/69/69 73/73/73
f 74/74/74 72/72/72 73/73/73
f 74/74/74 73/73/73 75/75/75
f 76/76/76 74/74/74 75/75/75
f 76/76/76 75/75/75 77/77/77
f 78/78/78 76/76/76 77/77/77
f 78/78/78 77/77/77 79/79/79
f 80/80/80 78/78/78 79/79/79
f 80/80/80 79/79/79 81/81/81
f 82/82/82 80/80/80 81/81/81
f 82/82/82 81/81/81 83/83/83
f 84/84/84 82/82/82 83/83/83
f 71/71/71 85/85/85 70/70/70
f 85/85/85 86/86/86 70/70/70
f 85/85/85 87/87/87 86/86/86
f 87/87/87 88/88/88 86/86/86
f 91/91/91 90/90/90 89/89/89
f 92/92/92 91/91/91 89/89/89
f 95/95/95 94/94/94 93/93/93
f 96/96/96 95/95/95 93/93/93
f 95/95/95 97/97/97 94/94/94
f 97/97/97 98/98/98 94/94/94
f 97/97/97 99/99/99 98/98/98
f 99/99/99 100/100/100 98/98/98
f 99/99/99 101/101/101 100/100/100
f 101/101/101 102/102/102 100/100/100
f 96/96/96 93/93/93 103/103/103
f 104/104/104 96/96/96 103/103/103
f 107/107/107 106/106/106 105/105/105
f 108/108/108 107/107/107 105/105/105
f 111/111/111 110/110/110 109/109/109
f 112/112/112 111/111/111 109/109/109
f 115/115/115 114/114/114 113/113/113
f 116/116/116 115/115/115 113/113/113
f 116/116/116 113/113/113 117/117/117
f 118/118/118 116/116/116 117/117/117
f 121/121/121 120/120/120 119/119/119
f 122/122/122 121/121/121 119/119/119
f 125/125/125 124/124/124 123/123/123
f 126/126/126 125/125/125 123/123/123
