g merge2d_element_cake_5
v -0.5348483 -0.08138003 0.3474568
v -0.5348483 -0.05302001 0.3474568
v 0.5348483 -0.05302001 0.3474568
v 0.5348483 -0.08138003 0.3474568
v -0.3843883 -0.1055408 0.2497125
v -0.3843883 -0.1055408 -0.2497125
v 0.3843883 -0.1055408 -0.2497125
v 0.3843883 -0.1055408 0.2497125
v -0.5348483 -0.05302001 0.3474568
v 0.5348483 -0.05302001 0.3474568
v 0.5348483 -0.05302001 -0.3474568
v -0.5348483 -0.05302001 -0.3474568
v -0.5348483 -0.05302001 -0.3474568
v -0.5348483 -0.08138003 -0.3474568
v 0.5348483 -0.08138003 -0.3474568
v 0.5348483 -0.05302001 -0.3474568
v -0.3750474 -0.1975438 -0.2436444
v -0.3750474 -0.1975438 0.2436444
v 0.3750474 -0.1975438 0.2436444
v 0.3750474 -0.1975438 -0.2436444
v -0.5348483 -0.08138003 -0.3474568
v 0.5348483 -0.08138003 -0.3474568
v 0.5348483 -0.08138003 0.3474568
v -0.5348483 -0.08138003 0.3474568
v 0.5348483 -0.08138003 0.3474568
v 0.5348483 -0.05302001 0.3474568
v 0.5348483 -0.05302001 -0.3474568
v 0.5348483 -0.08138003 -0.3474568
v -0.5348483 -0.08138003 -0.3474568
v -0.5348483 -0.05302001 -0.3474568
v -0.5348483 -0.05302001 0.3474568
v -0.5348483 -0.08138003 0.3474568
v 0.01070182 0.3019599 -0.1122036
v 0.01070182 0.2198211 -0.1969986
v 0.02804104 0.2108455 -0.1818926
v 0.02804104 0.2864141 -0.1032283
v 0.01070182 0.3320246 0
v 0.02804104 0.3140739 0
v 0.02804104 0.1076173 -0.2243096
v 0.01070182 0.1076173 -0.2434984
v 0.02804104 0.00438919 -0.2021369
v 0.01070182 -0.004586302 -0.2202043
v 0.02804104 -0.07117932 -0.1167037
v 0.01070182 -0.08672526 -0.1271349
v 0.02804104 -0.09883939 0
v 0.01070182 -0.1167901 0
v 0.02804104 -0.07117932 0.1167037
v 0.01070182 -0.08672526 0.1271349
v 0.02804104 0.00438919 0.2021369
v 0.01070182 -0.004586302 0.2202043
v 0.02804104 0.1076173 0.2243096
v 0.01070182 0.1076173 0.2434984
v 0.02804104 0.2108455 0.1818926
v 0.01070182 0.2198211 0.1969986
v 0.02804104 0.2864141 0.1032283
v 0.01070182 0.3019599 0.1122036
v 0.02804104 0.1076173 0
v -0.4378225 0.3019599 -0.1122036
v -0.4378225 0.3320246 0
v -0.4551616 0.3140739 0
v -0.4551616 0.2864141 -0.1032283
v -0.4378225 0.2198211 -0.1969986
v -0.4551616 0.2108455 -0.1818926
v -0.4378225 0.1076173 -0.2434984
v -0.4551616 0.1076173 -0.2243096
v -0.4378225 -0.004586302 -0.2202043
v -0.4551616 0.00438919 -0.2021369
v -0.4378225 -0.08672526 -0.1271349
v -0.4551616 -0.07117932 -0.1167037
v -0.4378225 -0.1167901 0
v -0.4551616 -0.09883939 0
v -0.4378225 -0.08672526 0.1271349
v -0.4551616 -0.07117932 0.1167037
v -0.4378225 -0.004586302 0.2202043
v -0.4551616 0.00438919 0.2021369
v -0.4378225 0.1076173 0.2434984
v -0.4551616 0.1076173 0.2243096
v -0.4378225 0.2198211 0.1969986
v -0.4551616 0.2108455 0.1818926
v -0.4378225 0.3019599 0.1122036
v -0.4551616 0.2864141 0.1032283
v -0.4551616 0.1076173 0
v 0.01070182 0.3019599 -0.1122036
v -0.4378225 0.3019599 -0.1122036
v -0.4378225 0.2198211 -0.1969986
v 0.01070182 0.2198211 -0.1969986
v -0.4378225 0.1076173 -0.2434984
v 0.01070182 0.1076173 -0.2434984
v -0.4378225 -0.004586302 -0.2202043
v 0.01070182 -0.004586302 -0.2202043
v -0.4378225 -0.08672526 -0.1271349
v 0.01070182 -0.08672526 -0.1271349
v -0.4378225 -0.1167901 0
v 0.01070182 -0.1167901 0
v 0.01070182 0.3320246 0
v -0.4378225 0.3320246 0
v 0.01070182 0.3019599 0.1122036
v -0.4378225 0.3019599 0.1122036
v 0.01070182 0.2198211 0.1969986
v -0.4378225 0.2198211 0.1969986
v 0.01070182 0.1076173 0.2434984
v -0.4378225 0.1076173 0.2434984
v 0.01070182 -0.004586302 0.2202043
v -0.4378225 -0.004586302 0.2202043
v 0.01070182 -0.08672526 0.1271349
v -0.4378225 -0.08672526 0.1271349
v 0.01070182 -0.1167901 0
v -0.4378225 -0.1167901 0
v 0.4951558 -0.0399378 -0.1122036
v 0.4135672 -0.04942843 -0.1969986
v 0.4066552 -0.06768853 -0.1818926
v 0.4817175 -0.05895704 -0.1032283
v 0.5250192 -0.0364641 0
v 0.5091922 -0.05576102 0
v 0.3041184 -0.07961603 -0.2243096
v 0.302115 -0.06239311 -0.2434984
v 0.2015814 -0.09154377 -0.2021369
v 0.1906627 -0.07535765 -0.2202043
v 0.1265192 -0.100275 -0.1167037
v 0.1090741 -0.08484844 -0.1271349
v 0.09904455 -0.1034713 0
v 0.07921052 -0.08832232 0
v 0.1265192 -0.100275 0.1167037
v 0.1090741 -0.08484844 0.1271349
v 0.2015814 -0.09154377 0.2021369
v 0.1906627 -0.07535765 0.2202043
v 0.3041184 -0.07961603 0.2243096
v 0.302115 -0.06239311 0.2434984
v 0.4066552 -0.06768853 0.1818926
v 0.4135672 -0.04942843 0.1969986
v 0.4817175 -0.05895704 0.1032283
v 0.4951558 -0.0399378 0.1122036
v 0.3041184 -0.07961603 0
v 0.4835959 0.05943871 -0.1122036
v 0.5134593 0.0629124 0
v 0.4936253 0.07806154 0
v 0.4661508 0.07486556 -0.1032283
v 0.4020072 0.04994816 -0.1969986
v 0.3910885 0.06613404 -0.1818926
v 0.290555 0.03698337 -0.2434984
v 0.2885515 0.05420654 -0.2243096
v 0.1791028 0.0240189 -0.2202043
v 0.1860146 0.04227909 -0.2021369
v 0.09751414 0.0145281 -0.1271349
v 0.1109525 0.03354749 -0.1167037
v 0.06765056 0.01105421 0
v 0.08347788 0.03035154 0
v 0.09751414 0.0145281 0.1271349
v 0.1109525 0.03354749 0.1167037
v 0.1791028 0.0240189 0.2202043
v 0.1860146 0.04227909 0.2021369
v 0.290555 0.03698337 0.2434984
v 0.2885515 0.05420654 0.2243096
v 0.4020072 0.04994816 0.1969986
v 0.3910885 0.06613404 0.1818926
v 0.4835959 0.05943871 0.1122036
v 0.4661508 0.07486556 0.1032283
v 0.2885515 0.05420654 0
v 0.4951558 -0.0399378 -0.1122036
v 0.4835959 0.05943871 -0.1122036
v 0.4020072 0.04994816 -0.1969986
v 0.4135672 -0.04942843 -0.1969986
v 0.290555 0.03698337 -0.2434984
v 0.302115 -0.06239311 -0.2434984
v 0.1791028 0.0240189 -0.2202043
v 0.1906627 -0.07535765 -0.2202043
v 0.09751414 0.0145281 -0.1271349
v 0.1090741 -0.08484844 -0.1271349
v 0.06765056 0.01105421 0
v 0.07921052 -0.08832232 0
v 0.5250192 -0.0364641 0
v 0.5134593 0.0629124 0
v 0.4951558 -0.0399378 0.1122036
v 0.4835959 0.05943871 0.1122036
v 0.4135672 -0.04942843 0.1969986
v 0.4020072 0.04994816 0.1969986
v 0.302115 -0.06239311 0.2434984
v 0.290555 0.03698337 0.2434984
v 0.1906627 -0.07535765 0.2202043
v 0.1791028 0.0240189 0.2202043
v 0.1090741 -0.08484844 0.1271349
v 0.09751414 0.0145281 0.1271349
v 0.07921052 -0.08832232 0
v 0.06765056 0.01105421 0
vt 0.4899267 0.6394687
vt 0.490966 0.6440279
vt 0.6612679 0.6440632
vt 0.6623095 0.6395045
vt 0.8144913 0.6220592
vt 0.8144913 0.5431423
vt 0.6924921 0.5431423
vt 0.6924921 0.6220592
vt 0.8390552 0.6385238
vt 0.6679286 0.6385238
vt 0.6679286 0.5266777
vt 0.8390552 0.5266777
vt 0.4909917 0.5214657
vt 0.4899502 0.5260246
vt 0.662333 0.526061
vt 0.6612936 0.5215015
vt 0.5174133 0.5453312
vt 0.5173978 0.6201736
vt 0.6348462 0.6201982
vt 0.6348621 0.5453559
vt 0.4899502 0.5260246
vt 0.662333 0.526061
vt 0.6623095 0.6395045
vt 0.4899267 0.6394687
vt 0.6623095 0.6395045
vt 0.6668908 0.6381007
vt 0.6669139 0.5274666
vt 0.662333 0.526061
vt 0.4899502 0.5260246
vt 0.4853688 0.5274286
vt 0.4853457 0.6380629
vt 0.4899267 0.6394687
vt 0.954578 0.6475216
vt 0.9803326 0.6227278
vt 0.9741854 0.6189384
vt 0.9509704 0.6412066
vt 0.9205474 0.6566164
vt 0.9205478 0.6493502
vt 0.9866359 0.5884943
vt 0.9941548 0.5886472
vt 0.9801043 0.5581307
vt 0.9869774 0.5545856
vt 0.9549659 0.5358432
vt 0.9589415 0.5295455
vt 0.9205469 0.5276741
vt 0.9205469 0.5203891
vt 0.8861277 0.5358437
vt 0.8821516 0.5295461
vt 0.8609891 0.5581307
vt 0.8541161 0.5545862
vt 0.8544579 0.5884948
vt 0.8469394 0.5886478
vt 0.8669088 0.6189389
vt 0.8607614 0.6227285
vt 0.890125 0.6412071
vt 0.8865167 0.6475216
vt 0.9205469 0.5885246
vt 0.8865156 0.6474843
vt 0.9205463 0.6565806
vt 0.9205463 0.6493137
vt 0.8901235 0.6411693
vt 0.8607606 0.6226906
vt 0.8669077 0.6189012
vt 0.8469395 0.5886099
vt 0.8544579 0.5884568
vt 0.8541168 0.5545478
vt 0.8609902 0.5580931
vt 0.8821527 0.5295088
vt 0.8861287 0.5358064
vt 0.920548 0.5203524
vt 0.920548 0.5276372
vt 0.9589421 0.52951
vt 0.9549666 0.5358074
vt 0.9869775 0.5545501
vt 0.9801046 0.5580949
vt 0.9941547 0.5886113
vt 0.986636 0.5884585
vt 0.9803321 0.6226918
vt 0.9741853 0.6189021
vt 0.9545777 0.6474848
vt 0.9509698 0.64117
vt 0.9205474 0.5884883
vt 0.834238 0.3916207
vt 0.8342435 0.5026541
vt 0.8634956 0.5026537
vt 0.8634858 0.3916203
vt 0.8935899 0.5026526
vt 0.8935684 0.391619
vt 0.9219841 0.5026466
vt 0.9219427 0.3916137
vt 0.9527242 0.502634
vt 0.9526802 0.3916011
vt 0.9850644 0.5026248
vt 0.9850284 0.3915913
vt 0.8054565 0.3916212
vt 0.8054581 0.5026546
vt 0.776675 0.3916215
vt 0.7766728 0.5026546
vt 0.7474273 0.3916216
vt 0.7474203 0.5026546
vt 0.7173434 0.3916202
vt 0.7173265 0.5026538
vt 0.6889657 0.3916162
vt 0.6889344 0.5026495
vt 0.658224 0.3916069
vt 0.6581978 0.50264
vt 0.625874 0.3916028
vt 0.6258597 0.5026358
vt 0.9545776 0.6474629
vt 0.9803331 0.6226704
vt 0.9741858 0.6188809
vt 0.9509695 0.641148
vt 0.9205467 0.6565588
vt 0.9205467 0.6492921
vt 0.9866361 0.5884367
vt 0.994155 0.5885897
vt 0.9801043 0.5580728
vt 0.9869774 0.5545279
vt 0.9549662 0.5357854
vt 0.9589419 0.5294881
vt 0.9205476 0.5276155
vt 0.9205476 0.5203305
vt 0.8861287 0.535785
vt 0.8821523 0.5294876
vt 0.8609895 0.5580719
vt 0.8541161 0.554527
vt 0.8544581 0.5884361
vt 0.8469393 0.588589
vt 0.8669081 0.6188802
vt 0.8607609 0.6226701
vt 0.8901238 0.641148
vt 0.886516 0.6474629
vt 0.9205471 0.5884665
vt 0.8865167 0.6475
vt 0.9205474 0.6565946
vt 0.9205474 0.6493276
vt 0.890125 0.6411855
vt 0.8607616 0.6227067
vt 0.8669086 0.618917
vt 0.8469393 0.5886258
vt 0.8544582 0.588473
vt 0.8541173 0.5545636
vt 0.8609893 0.5581086
vt 0.8821518 0.5295237
vt 0.8861282 0.5358212
vt 0.9205474 0.5203667
vt 0.9205474 0.5276517
vt 0.9589412 0.5295243
vt 0.9549662 0.5358217
vt 0.9869773 0.5545636
vt 0.9801046 0.5581086
vt 0.9941547 0.5886258
vt 0.9866356 0.588473
vt 0.9803325 0.6227067
vt 0.9741852 0.618917
vt 0.9545774 0.6475005
vt 0.9509696 0.6411855
vt 0.9205474 0.5885027
vt 0.8343364 0.3668313
vt 0.8343361 0.391598
vt 0.8636705 0.3915979
vt 0.8636709 0.3668313
vt 0.8938316 0.3915984
vt 0.8938316 0.3668317
vt 0.9222721 0.3915985
vt 0.922272 0.3668318
vt 0.9530461 0.3915984
vt 0.9530461 0.3668317
vt 0.9854026 0.3915985
vt 0.9854025 0.3668317
vt 0.8054624 0.3668312
vt 0.8054623 0.3915979
vt 0.7765884 0.3668313
vt 0.7765885 0.391598
vt 0.7472538 0.3668313
vt 0.7472541 0.3915979
vt 0.7170927 0.3668319
vt 0.7170932 0.3915984
vt 0.6886523 0.3668318
vt 0.6886523 0.3915983
vt 0.657878 0.3668318
vt 0.6578782 0.3915983
vt 0.6255217 0.3668319
vt 0.6255217 0.3915985
vn -0.5447739 0 0.838583
vn -0.5447739 0 0.838583
vn 0.5447739 0 0.838583
vn 0.5447739 0 0.838583
vn 0.06469954 0.9909416 -0.1176804
vn 0.06469954 0.9909416 0.1176804
vn -0.06469954 0.9909416 0.1176804
vn -0.06469954 0.9909416 -0.1176804
vn 0.2061706 0.9583589 -0.1975901
vn -0.2061706 0.9583589 -0.1975901
vn -0.2061706 0.9583589 0.1975901
vn 0.2061706 0.9583589 0.1975901
vn -0.5447739 0 -0.838583
vn -0.5447739 0 -0.838583
vn 0.5447739 0 -0.838583
vn 0.5447739 0 -0.838583
vn -0.1366016 -0.9605016 -0.2424388
vn -0.1366016 -0.9605016 0.2424388
vn 0.1366016 -0.9605017 0.2424388
vn 0.1366016 -0.9605016 -0.2424388
vn -0.3595219 -0.8461534 -0.3934062
vn 0.3595219 -0.8461534 -0.3934062
vn 0.3595219 -0.8461534 0.3934062
vn -0.3595219 -0.8461534 0.3934062
vn 0.5447739 0 0.838583
vn 0.5447739 0 0.838583
vn 0.5447739 0 -0.838583
vn 0.5447739 0 -0.838583
vn -0.5447739 0 -0.838583
vn -0.5447739 0 -0.838583
vn -0.5447739 0 0.838583
vn -0.5447739 0 0.838583
vn 0.03269732 0.8684706 -0.4946613
vn 0.0333845 0.559338 -0.8282672
vn 0.9844574 0.09915704 -0.1449529
vn 0.9828688 0.1603146 -0.09093033
vn 0.03275224 0.9994635 0
vn 0.9825553 0.1859705 0
vn 0.9837023 0.0200319 -0.1786855
vn 0.03423474 0.1022419 -0.9941703
vn 0.9837164 -0.09390786 -0.1532426
vn 0.03488084 -0.5131121 -0.8576125
vn 0.9838964 -0.1601551 -0.07936157
vn 0.03413294 -0.8902616 -0.4541688
vn 0.983438 -0.1812453 0
vn 0.03325726 -0.9994468 0
vn 0.9838964 -0.1601552 0.07936159
vn 0.03413294 -0.8902616 0.4541688
vn 0.9837164 -0.09390788 0.1532426
vn 0.03488084 -0.5131121 0.8576125
vn 0.9837023 0.0200319 0.1786855
vn 0.03423474 0.1022419 0.9941703
vn 0.9844574 0.09915703 0.1449529
vn 0.0333845 0.559338 0.8282672
vn 0.9828688 0.1603146 0.09093033
vn 0.03269732 0.8684706 0.4946613
vn 1 0 0
vn -0.03269731 0.8684706 -0.4946613
vn -0.03275224 0.9994635 0
vn -0.9825555 0.1859698 0
vn -0.9828688 0.1603142 -0.09093005
vn -0.03338448 0.559338 -0.8282672
vn -0.9844576 0.09915695 -0.1449525
vn -0.03423473 0.1022419 -0.9941703
vn -0.9837024 0.02003189 -0.178685
vn -0.03488083 -0.5131121 -0.8576125
vn -0.9837165 -0.09390789 -0.1532422
vn -0.03413294 -0.8902616 -0.4541688
vn -0.9838965 -0.160155 -0.07936139
vn -0.03325726 -0.9994468 0
vn -0.9834381 -0.1812447 0
vn -0.03413294 -0.8902616 0.4541688
vn -0.9838965 -0.1601548 0.07936137
vn -0.03488084 -0.5131121 0.8576125
vn -0.9837165 -0.09390751 0.1532422
vn -0.03423474 0.1022419 0.9941703
vn -0.9837024 0.02003215 0.178685
vn -0.03338449 0.5593379 0.8282672
vn -0.9844576 0.09915677 0.1449525
vn -0.03269731 0.8684706 0.4946613
vn -0.9828689 0.1603141 0.09093007
vn -1 0 0
vn 0.03269732 0.8684706 -0.4946613
vn -0.03269731 0.8684706 -0.4946613
vn -0.03338448 0.559338 -0.8282672
vn 0.0333845 0.559338 -0.8282672
vn -0.03423473 0.1022419 -0.9941703
vn 0.03423474 0.1022419 -0.9941703
vn -0.03488083 -0.5131121 -0.8576125
vn 0.03488084 -0.5131121 -0.8576125
vn -0.03413294 -0.8902616 -0.4541688
vn 0.03413294 -0.8902616 -0.4541688
vn -0.03325726 -0.9994468 0
vn 0.03325726 -0.9994468 0
vn 0.03275224 0.9994635 0
vn -0.03275224 0.9994635 0
vn 0.03269732 0.8684706 0.4946613
vn -0.03269731 0.8684706 0.4946613
vn 0.0333845 0.559338 0.8282672
vn -0.03338449 0.5593379 0.8282672
vn 0.03423474 0.1022419 0.9941703
vn -0.03423474 0.1022419 0.9941703
vn 0.03488084 -0.5131121 0.8576125
vn -0.03488084 -0.5131121 0.8576125
vn 0.03413294 -0.8902616 0.4541688
vn -0.03413294 -0.8902616 0.4541688
vn 0.03325726 -0.9994468 0
vn -0.03325726 -0.9994468 0
vn 0.8707988 -0.03048366 -0.4906934
vn 0.5658786 -0.06834628 -0.8216509
vn 0.2122414 -0.966407 -0.1449521
vn 0.2728048 -0.9577627 -0.0909298
vn 0.9998759 -0.01575466 0
vn 0.2982526 -0.954487 0
vn 0.1335603 -0.9747992 -0.1786845
vn 0.1148489 -0.1249091 -0.9854985
vn 0.02038525 -0.9879785 -0.1532412
vn -0.4879136 -0.1977872 -0.8501886
vn -0.04539783 -0.9958117 -0.07936116
vn -0.8600889 -0.2375361 -0.4514683
vn -0.0663976 -0.9977933 0
vn -0.9691122 -0.2466205 0
vn -0.04539788 -0.9958117 0.07936121
vn -0.8600888 -0.237536 0.4514684
vn 0.02038517 -0.9879785 0.1532412
vn -0.4879136 -0.1977872 0.8501886
vn 0.1335603 -0.9747992 0.1786846
vn 0.1148489 -0.124909 0.9854985
vn 0.2122415 -0.966407 0.1449521
vn 0.5658786 -0.06834626 0.821651
vn 0.2728048 -0.9577627 0.09092983
vn 0.8707988 -0.03048365 0.4906934
vn 0.1155451 -0.9933022 0
vn 0.8405501 0.2295551 -0.4906933
vn 0.9695615 0.2448478 0
vn 0.07119651 0.9974623 0
vn 0.04567576 0.9948093 -0.09093007
vn 0.5350801 0.1964149 -0.8216512
vn -0.01525613 0.989321 -0.1449524
vn 0.08311033 0.1479363 -0.9854987
vn -0.09376405 0.9794282 -0.1786854
vn -0.5202863 0.08050898 -0.8501886
vn -0.2069426 0.9662771 -0.1532429
vn -0.8916481 0.03376682 -0.4514681
vn -0.2727675 0.9588012 -0.07936146
vn -0.9998454 0.01758341 0
vn -0.2936632 0.955909 0
vn -0.8916481 0.03376682 0.4514681
vn -0.2727676 0.9588012 0.07936145
vn -0.5202863 0.08050898 0.8501886
vn -0.2069426 0.9662771 0.1532429
vn 0.08311033 0.1479363 0.9854987
vn -0.09376406 0.9794284 0.1786854
vn 0.5350801 0.1964148 0.8216511
vn -0.01525611 0.989321 0.1449524
vn 0.8405501 0.2295551 0.4906933
vn 0.04567594 0.9948093 0.09093012
vn -0.1155448 0.9933023 0
vn 0.8707988 -0.03048366 -0.4906934
vn 0.8405501 0.2295551 -0.4906933
vn 0.5350801 0.1964149 -0.8216512
vn 0.5658786 -0.06834628 -0.8216509
vn 0.08311033 0.1479363 -0.9854987
vn 0.1148489 -0.1249091 -0.9854985
vn -0.5202863 0.08050898 -0.8501886
vn -0.4879136 -0.1977872 -0.8501886
vn -0.8916481 0.03376682 -0.4514681
vn -0.8600889 -0.2375361 -0.4514683
vn -0.9998454 0.01758341 0
vn -0.9691122 -0.2466205 0
vn 0.9998759 -0.01575466 0
vn 0.9695615 0.2448478 0
vn 0.8707988 -0.03048365 0.4906934
vn 0.8405501 0.2295551 0.4906933
vn 0.5658786 -0.06834626 0.821651
vn 0.5350801 0.1964148 0.8216511
vn 0.1148489 -0.124909 0.9854985
vn 0.08311033 0.1479363 0.9854987
vn -0.4879136 -0.1977872 0.8501886
vn -0.5202863 0.08050898 0.8501886
vn -0.8600888 -0.237536 0.4514684
vn -0.8916481 0.03376682 0.4514681
vn -0.9691122 -0.2466205 0
vn -0.9998454 0.01758341 0
g merge2d_element_cake_5_0
f 3/3/3 2/2/2 1/1/1
f 4/4/4 3/3/3 1/1/1
f 7/7/7 6/6/6 5/5/5
f 8/8/8 7/7/7 5/5/5
f 8/8/8 5/5/5 9/9/9
f 10/10/10 8/8/8 9/9/9
f 7/7/7 8/8/8 10/10/10
f 11/11/11 7/7/7 10/10/10
f 6/6/6 7/7/7 11/11/11
f 12/12/12 6/6/6 11/11/11
f 5/5/5 6/6/6 12/12/12
f 9/9/9 5/5/5 12/12/12
f 15/15/15 14/14/14 13/13/13
f 16/16/16 15/15/15 13/13/13
f 19/19/19 18/18/18 17/17/17
f 20/20/20 19/19/19 17/17/17
f 20/20/20 17/17/17 21/21/21
f 22/22/22 20/20/20 21/21/21
f 19/19/19 20/20/20 22/22/22
f 23/23/23 19/19/19 22/22/22
f 18/18/18 19/19/19 23/23/23
f 24/24/24 18/18/18 23/23/23
f 17/17/17 18/18/18 24/24/24
f 21/21/21 17/17/17 24/24/24
f 27/27/27 26/26/26 25/25/25
f 28/28/28 27/27/27 25/25/25
f 31/31/31 30/30/30 29/29/29
f 32/32/32 31/31/31 29/29/29
f 35/35/35 34/34/34 33/33/33
f 36/36/36 35/35/35 33/33/33
f 33/33/33 37/37/37 36/36/36
f 37/37/37 38/38/38 36/36/36
f 35/35/35 39/39/39 34/34/34
f 39/39/39 40/40/40 34/34/34
f 39/39/39 41/41/41 40/40/40
f 41/41/41 42/42/42 40/40/40
f 41/41/41 43/43/43 42/42/42
f 43/43/43 44/44/44 42/42/42
f 43/43/43 45/45/45 44/44/44
f 45/45/45 46/46/46 44/44/44
f 45/45/45 47/47/47 46/46/46
f 47/47/47 48/48/48 46/46/46
f 47/47/47 49/49/49 48/48/48
f 49/49/49 50/50/50 48/48/48
f 49/49/49 51/51/51 50/50/50
f 51/51/51 52/52/52 50/50/50
f 51/51/51 53/53/53 52/52/52
f 53/53/53 54/54/54 52/52/52
f 53/53/53 55/55/55 54/54/54
f 55/55/55 56/56/56 54/54/54
f 55/55/55 38/38/38 56/56/56
f 38/38/38 37/37/37 56/56/56
f 43/43/43 57/57/57 45/45/45
f 45/45/45 57/57/57 47/47/47
f 47/47/47 57/57/57 49/49/49
f 49/49/49 57/57/57 51/51/51
f 51/51/51 57/57/57 53/53/53
f 53/53/53 57/57/57 55/55/55
f 55/55/55 57/57/57 38/38/38
f 41/41/41 57/57/57 43/43/43
f 39/39/39 57/57/57 41/41/41
f 35/35/35 57/57/57 39/39/39
f 36/36/36 57/57/57 35/35/35
f 38/38/38 57/57/57 36/36/36
f 60/60/60 59/59/59 58/58/58
f 61/61/61 60/60/60 58/58/58
f 58/58/58 62/62/62 61/61/61
f 62/62/62 63/63/63 61/61/61
f 62/62/62 64/64/64 63/63/63
f 64/64/64 65/65/65 63/63/63
f 64/64/64 66/66/66 65/65/65
f 66/66/66 67/67/67 65/65/65
f 66/66/66 68/68/68 67/67/67
f 68/68/68 69/69/69 67/67/67
f 68/68/68 70/70/70 69/69/69
f 70/70/70 71/71/71 69/69/69
f 70/70/70 72/72/72 71/71/71
f 72/72/72 73/73/73 71/71/71
f 72/72/72 74/74/74 73/73/73
f 74/74/74 75/75/75 73/73/73
f 74/74/74 76/76/76 75/75/75
f 76/76/76 77/77/77 75/75/75
f 76/76/76 78/78/78 77/77/77
f 78/78/78 79/79/79 77/77/77
f 78/78/78 80/80/80 79/79/79
f 80/80/80 81/81/81 79/79/79
f 80/80/80 59/59/59 81/81/81
f 59/59/59 60/60/60 81/81/81
f 71/71/71 82/82/82 69/69/69
f 73/73/73 82/82/82 71/71/71
f 75/75/75 82/82/82 73/73/73
f 77/77/77 82/82/82 75/75/75
f 79/79/79 82/82/82 77/77/77
f 81/81/81 82/82/82 79/79/79
f 60/60/60 82/82/82 81/81/81
f 69/69/69 82/82/82 67/67/67
f 67/67/67 82/82/82 65/65/65
f 65/65/65 82/82/82 63/63/63
f 63/63/63 82/82/82 61/61/61
f 61/61/61 82/82/82 60/60/60
f 85/85/85 84/84/84 83/83/83
f 86/86/86 85/85/85 83/83/83
f 87/87/87 85/85/85 86/86/86
f 88/88/88 87/87/87 86/86/86
f 89/89/89 87/87/87 88/88/88
f 90/90/90 89/89/89 88/88/88
f 91/91/91 89/89/89 90/90/90
f 92/92/92 91/91/91 90/90/90
f 93/93/93 91/91/91 92/92/92
f 94/94/94 93/93/93 92/92/92
f 83/83/83 84/84/84 95/95/95
f 84/84/84 96/96/96 95/95/95
f 95/95/95 96/96/96 97/97/97
f 96/96/96 98/98/98 97/97/97
f 97/97/97 98/98/98 99/99/99
f 98/98/98 100/100/100 99/99/99
f 99/99/99 100/100/100 101/101/101
f 100/100/100 102/102/102 101/101/101
f 101/101/101 102/102/102 103/103/103
f 102/102/102 104/104/104 103/103/103
f 103/103/103 104/104/104 105/105/105
f 104/104/104 106/106/106 105/105/105
f 105/105/105 106/106/106 107/107/107
f 106/106/106 108/108/108 107/107/107
f 111/111/111 110/110/110 109/109/109
f 112/112/112 111/111/111 109/109/109
f 109/109/109 113/113/113 112/112/112
f 113/113/113 114/114/114 112/112/112
f 111/111/111 115/115/115 110/110/110
f 115/115/115 116/116/116 110/110/110
f 115/115/115 117/117/117 116/116/116
f 117/117/117 118/118/118 116/116/116
f 117/117/117 119/119/119 118/118/118
f 119/119/119 120/120/120 118/118/118
f 119/119/119 121/121/121 120/120/120
f 121/121/121 122/122/122 120/120/120
f 121/121/121 123/123/123 122/122/122
f 123/123/123 124/124/124 122/122/122
f 123/123/123 125/125/125 124/124/124
f 125/125/125 126/126/126 124/124/124
f 125/125/125 127/127/127 126/126/126
f 127/127/127 128/128/128 126/126/126
f 127/127/127 129/129/129 128/128/128
f 129/129/129 130/130/130 128/128/128
f 129/129/129 131/131/131 130/130/130
f 131/131/131 132/132/132 130/130/130
f 131/131/131 114/114/114 132/132/132
f 114/114/114 113/113/113 132/132/132
f 119/119/119 133/133/133 121/121/121
f 121/121/121 133/133/133 123/123/123
f 123/123/123 133/133/133 125/125/125
f 125/125/125 133/133/133 127/127/127
f 127/127/127 133/133/133 129/129/129
f 129/129/129 133/133/133 131/131/131
f 131/131/131 133/133/133 114/114/114
f 117/117/117 133/133/133 119/119/119
f 115/115/115 133/133/133 117/117/117
f 111/111/111 133/133/133 115/115/115
f 112/112/112 133/133/133 111/111/111
f 114/114/114 133/133/133 112/112/112
f 136/136/136 135/135/135 134/134/134
f 137/137/137 136/136/136 134/134/134
f 134/134/134 138/138/138 137/137/137
f 138/138/138 139/139/139 137/137/137
f 138/138/138 140/140/140 139/139/139
f 140/140/140 141/141/141 139/139/139
f 140/140/140 142/142/142 141/141/141
f 142/142/142 143/143/143 141/141/141
f 142/142/142 144/144/144 143/143/143
f 144/144/144 145/145/145 143/143/143
f 144/144/144 146/146/146 145/145/145
f 146/146/146 147/147/147 145/145/145
f 146/146/146 148/148/148 147/147/147
f 148/148/148 149/149/149 147/147/147
f 148/148/148 150/150/150 149/149/149
f 150/150/150 151/151/151 149/149/149
f 150/150/150 152/152/152 151/151/151
f 152/152/152 153/153/153 151/151/151
f 152/152/152 154/154/154 153/153/153
f 154/154/154 155/155/155 153/153/153
f 154/154/154 156/156/156 155/155/155
f 156/156/156 157/157/157 155/155/155
f 156/156/156 135/135/135 157/157/157
f 135/135/135 136/136/136 157/157/157
f 147/147/147 158/158/158 145/145/145
f 149/149/149 158/158/158 147/147/147
f 151/151/151 158/158/158 149/149/149
f 153/153/153 158/158/158 151/151/151
f 155/155/155 158/158/158 153/153/153
f 157/157/157 158/158/158 155/155/155
f 136/136/136 158/158/158 157/157/157
f 145/145/145 158/158/158 143/143/143
f 143/143/143 158/158/158 141/141/141
f 141/141/141 158/158/158 139/139/139
f 139/139/139 158/158/158 137/137/137
f 137/137/137 158/158/158 136/136/136
f 161/161/161 160/160/160 159/159/159
f 162/162/162 161/161/161 159/159/159
f 163/163/163 161/161/161 162/162/162
f 164/164/164 163/163/163 162/162/162
f 165/165/165 163/163/163 164/164/164
f 166/166/166 165/165/165 164/164/164
f 167/167/167 165/165/165 166/166/166
f 168/168/168 167/167/167 166/166/166
f 169/169/169 167/167/167 168/168/168
f 170/170/170 169/169/169 168/168/168
f 159/159/159 160/160/160 171/171/171
f 160/160/160 172/172/172 171/171/171
f 171/171/171 172/172/172 173/173/173
f 172/172/172 174/174/174 173/173/173
f 173/173/173 174/174/174 175/175/175
f 174/174/174 176/176/176 175/175/175
f 175/175/175 176/176/176 177/177/177
f 176/176/176 178/178/178 177/177/177
f 177/177/177 178/178/178 179/179/179
f 178/178/178 180/180/180 179/179/179
f 179/179/179 180/180/180 181/181/181
f 180/180/180 182/182/182 181/181/181
f 181/181/181 182/182/182 183/183/183
f 182/182/182 184/184/184 183/183/183
