g merge3d_element_food_1
v 0.2340259 -0.1055041 -0.006107271
v 0.3516772 -0.1379357 0.0008187413
v 0.3301776 -0.1352533 -0.1842086
v 0.2161651 -0.1036069 -0.1374667
v 0.1753941 0.001866861 -0.006660519
v 0.1646343 0.003191448 -0.1015146
v 0.191874 -0.1330902 -0.3204959
v 0.1265898 -0.1026452 -0.2211739
v 0.08992822 0.003809247 -0.1729981
v 0.004870907 -0.1427342 -0.3566021
v 0.006102645 -0.1108007 -0.2400291
v 0.007360592 -0.007093336 -0.1821628
v 0.4167833 -0.09821875 0.004316492
v 0.3838842 -0.09524571 -0.200775
v 0.405576 0.006477345 -0.2111656
v 0.4416842 0.003294277 0.007465429
v 0.2273912 0.009660164 -0.3951591
v 0.2170518 -0.09235223 -0.3712974
v 0.004870693 -0.00648524 -0.4414172
v 0.004870271 -0.1018756 -0.414306
v 0.33696 -0.1018898 0.2127766
v 0.2833219 -0.1409643 0.1708701
v 0.1911948 -0.1074263 0.09887091
v 0.1469154 0.0006762793 0.0679405
v 0.3566552 -0.0001763887 0.2300775
v 0.0867435 0.0001740938 0.1049103
v 0.1051712 -0.1084461 0.1497671
v 0.1388419 -0.1427466 0.2596539
v 0.1573308 -0.1041932 0.3284962
v 0.1637007 -0.002208372 0.3549189
v 0.01217989 -0.1087462 0.1645739
v 0.01217993 5.756602E-05 0.1173555
v 0.01217979 -0.1431951 0.2797892
v 0.01217979 -0.002534884 0.3795251
v 0.01217979 -0.1047293 0.3522445
v -0.07750148 -0.1084461 0.1497671
v -0.05907417 0.0001740938 0.1049103
v -0.1181424 0.0006762793 0.06341133
v -0.1624213 -0.1074263 0.09434174
v -0.1518767 0.001866861 -0.01580421
v -0.2105043 -0.1055041 -0.01670847
v -0.1391367 0.003191448 -0.09570678
v -0.1899714 -0.1036069 -0.1326877
v -0.3282836 -0.1379357 -0.01270876
v -0.3030709 -0.1352533 -0.1817124
v -0.09600779 -0.1026452 -0.2113678
v -0.1624052 -0.1330902 -0.3099089
v -0.05880677 0.003809247 -0.16363
v 0.006102645 -0.1108007 -0.2400291
v 0.004870907 -0.1427342 -0.3566021
v 0.007360592 -0.007093336 -0.1821628
v -0.3564508 -0.09524571 -0.1993549
v -0.3934535 -0.09821872 -0.01083114
v -0.4184219 0.003294277 -0.00830133
v -0.3779405 0.006477358 -0.2101804
v -0.1881536 -0.09235223 -0.3604084
v -0.1987612 0.009660164 -0.3841459
v 0.004870271 -0.1018756 -0.414306
v 0.004870693 -0.00648524 -0.4414172
v -0.3081869 -0.1018898 0.2082474
v -0.3278825 -0.0001763887 0.2255483
v -0.1360306 -0.002208372 0.3549189
v -0.1296611 -0.1041932 0.3284962
v -0.2545496 -0.1409643 0.1663409
v -0.1111723 -0.1427466 0.2596539
v 0.3519749 0.1409433 0.005676992
v 0.2394056 0.1427121 -0.00232717
v 0.2213231 0.1446542 -0.1366318
v 0.3308187 0.1436257 -0.1793855
v 0.1301647 0.1456387 -0.220937
v 0.191874 0.1457889 -0.315628
v 0.005958571 0.1316075 -0.2407963
v 0.004870907 0.1294683 -0.3518508
v 0.004870271 0.09064774 -0.4109455
v 0.2170518 0.1068478 -0.3678203
v 0.3843421 0.1039544 -0.1973298
v 0.416996 0.1009813 0.007786679
v 0.405576 0.006477345 -0.2111656
v 0.4416842 0.003294277 0.007465429
v 0.2273912 0.009660164 -0.3951591
v 0.004870693 -0.00648524 -0.4414172
v 0.08992822 0.003809247 -0.1729981
v 0.007360592 -0.007093336 -0.1821628
v 0.1646343 0.003191448 -0.1015146
v 0.1753941 0.001866861 -0.006660519
v 0.195017 0.1412945 0.1052517
v 0.2833223 0.13866 0.1757509
v 0.1469154 0.0006762793 0.0679405
v 0.3566552 -0.0001763887 0.2300775
v 0.3369638 0.0981505 0.2162705
v 0.1388419 0.137636 0.2645493
v 0.1068776 0.1408137 0.157172
v 0.01217988 0.1408003 0.1721996
v 0.01252617 0.1375861 0.2846924
v 0.01217993 5.756602E-05 0.1173555
v 0.0867435 0.0001740938 0.1049103
v 0.1573329 0.09670716 0.3320115
v 0.01217979 0.09662089 0.3557705
v 0.1637007 -0.002208372 0.3549189
v 0.01217979 -0.002534884 0.3795251
v -0.07920793 0.1408137 0.157172
v -0.1111731 0.137636 0.2645493
v -0.05907417 0.0001740938 0.1049103
v -0.1296633 0.09670719 0.3320109
v -0.1360306 -0.002208372 0.3549189
v -0.2545496 0.13866 0.1712218
v -0.1662446 0.1412945 0.1007226
v -0.3286959 0.1409433 -0.007859345
v -0.2159715 0.1427121 -0.01306319
v -0.3038038 0.1436257 -0.176903
v -0.1951444 0.1446542 -0.1319567
v -0.1623504 0.1457889 -0.3050413
v -0.09957981 0.1456387 -0.2110886
v 0.004870907 0.1294683 -0.3518508
v 0.005958571 0.1316075 -0.2407963
v 0.004870271 0.09064774 -0.4109455
v -0.1881145 0.1068478 -0.3569315
v -0.3569743 0.1039544 -0.1959196
v -0.393748 0.1009813 -0.007367253
v -0.4184219 0.003294277 -0.00830133
v -0.3779405 0.006477358 -0.2101804
v -0.1987612 0.009660164 -0.3841459
v 0.004870693 -0.00648524 -0.4414172
v 0.007360592 -0.007093336 -0.1821628
v -0.05880677 0.003809247 -0.16363
v -0.1391367 0.003191448 -0.09570678
v -0.1518767 0.001866861 -0.01580421
v -0.1181424 0.0006762793 0.06341133
v -0.3081907 0.0981505 0.2117413
v -0.3278825 -0.0001763887 0.2255483
vt 0.04460204 0.8591711
vt 0.03725457 0.8565686
vt 0.03991514 0.8436074
vt 0.0480119 0.8458745
vt 0.05361736 0.8613381
vt 0.05654806 0.8498174
vt 0.04563683 0.8320152
vt 0.05225849 0.8373944
vt 0.05972546 0.8432353
vt 0.05500585 0.8233557
vt 0.05914837 0.8300142
vt 0.06458372 0.8374993
vt 0.03051043 0.854062
vt 0.03355211 0.8415931
vt 0.02491212 0.8378857
vt 0.02141261 0.8517032
vt 0.03344309 0.8213129
vt 0.04049724 0.8275381
vt 0.04776728 0.8098512
vt 0.05210662 0.8179255
vt 0.02787739 0.8700374
vt 0.03493148 0.8714707
vt 0.04272544 0.873017
vt 0.05202419 0.874016
vt 0.01859713 0.8689304
vt 0.05197614 0.8857836
vt 0.04275399 0.8859069
vt 0.03491002 0.8864931
vt 0.02772152 0.8869549
vt 0.01838195 0.8871342
vt 0.04297531 0.8957703
vt 0.05215061 0.8955379
vt 0.03515464 0.896062
vt 0.01860833 0.8965807
vt 0.02795291 0.896336
vt 0.043064 0.9055828
vt 0.05226874 0.9051658
vt 0.05280089 0.916492
vt 0.04362559 0.918281
vt 0.05530041 0.9282523
vt 0.04670298 0.9316275
vt 0.05949706 0.9382575
vt 0.05211389 0.9439638
vt 0.03979999 0.9352767
vt 0.04465312 0.9477661
vt 0.05822086 0.9509587
vt 0.05293649 0.9582309
vt 0.06341046 0.9428436
vt 0.06629938 0.9571779
vt 0.06427389 0.9653562
vt 0.06818604 0.9490535
vt 0.03871024 0.9507294
vt 0.03344423 0.9386724
vt 0.02474785 0.9422055
vt 0.03074783 0.9556774
vt 0.04837781 0.9636691
vt 0.04185396 0.9706824
vt 0.06212604 0.9716282
vt 0.05881208 0.9791554
vt 0.02904254 0.9228324
vt 0.01989162 0.9247661
vt 0.01868689 0.9061608
vt 0.02802521 0.9057785
vt 0.03597528 0.920652
vt 0.03522086 0.9056399
vt 0.2350979 0.8565686
vt 0.2277504 0.8591711
vt 0.2243407 0.8458745
vt 0.2324375 0.8436074
vt 0.2200938 0.8373944
vt 0.2267157 0.8320152
vt 0.2132041 0.8300142
vt 0.2173467 0.8233557
vt 0.2202457 0.8179255
vt 0.2318553 0.8275381
vt 0.2388003 0.8415931
vt 0.241842 0.854062
vt 0.2474404 0.8378857
vt 0.2509399 0.8517032
vt 0.2389094 0.8213129
vt 0.2245852 0.8098512
vt 0.212627 0.8432353
vt 0.2077687 0.8374993
vt 0.2158045 0.8498174
vt 0.2187351 0.8613381
vt 0.2296271 0.873017
vt 0.2374212 0.8714707
vt 0.2203284 0.874016
vt 0.2537555 0.8689304
vt 0.2444751 0.8700374
vt 0.2374426 0.8864931
vt 0.2295986 0.8859069
vt 0.2293773 0.8957703
vt 0.2371978 0.896062
vt 0.220202 0.8955379
vt 0.2203764 0.8857836
vt 0.244631 0.8869549
vt 0.2443997 0.896336
vt 0.2539705 0.8871342
vt 0.2537441 0.8965807
vt 0.2292886 0.9055828
vt 0.2371317 0.9056399
vt 0.2200837 0.9051658
vt 0.2443272 0.9057785
vt 0.2536656 0.9061608
vt 0.2363772 0.920652
vt 0.2287269 0.918281
vt 0.2325526 0.9352767
vt 0.2256495 0.9316275
vt 0.2276993 0.9477661
vt 0.2202387 0.9439638
vt 0.219416 0.9582309
vt 0.2141316 0.9509587
vt 0.2080787 0.9653562
vt 0.2060531 0.9571779
vt 0.2102265 0.9716282
vt 0.2239745 0.9636691
vt 0.2336423 0.9507294
vt 0.2389082 0.9386724
vt 0.2476046 0.9422055
vt 0.2416045 0.9556774
vt 0.2304986 0.9706824
vt 0.2135406 0.9791554
vt 0.2041663 0.9490535
vt 0.2089421 0.9428436
vt 0.2128555 0.9382575
vt 0.2170522 0.9282523
vt 0.2195516 0.916492
vt 0.2433099 0.9228324
vt 0.2524608 0.9247661
vn -0.746789 -0.6231015 -0.2324879
vn 0.1158418 -0.9930107 0.02259159
vn 0.1700715 -0.9810236 -0.09310472
vn -0.7157813 -0.6768469 0.1718588
vn -0.9574934 0.005153004 -0.2884094
vn -0.9786301 -0.003373213 0.2056007
vn 0.1281159 -0.9697976 -0.2075544
vn -0.3550769 -0.7297983 0.5842216
vn -0.5178748 -0.01465113 0.8553309
vn -0.2190489 -0.9548162 -0.2008572
vn 0.01640071 -0.7570165 0.6531898
vn 0.2356617 -0.07884488 0.9686316
vn 0.8463905 -0.4882705 0.212638
vn 0.843102 -0.4576551 -0.2823664
vn 0.9457801 0.005423615 -0.3247623
vn 0.9691217 -0.004488867 0.246542
vn 0.5367648 0.01435306 -0.8436098
vn 0.4852779 -0.4440652 -0.7532008
vn -0.2778499 0.009129983 -0.9605811
vn -0.2958987 -0.4522024 -0.8414016
vn 0.6398585 -0.4966491 0.5864477
vn 0.1100758 -0.9894972 0.09369484
vn -0.5287938 -0.6300111 -0.5687383
vn -0.6802277 0.01291414 -0.7328871
vn 0.7358873 -0.01205635 0.6769966
vn -0.3001661 0.0166942 -0.9537409
vn -0.2424509 -0.6121218 -0.7526782
vn 0.05625477 -0.9942432 0.09119125
vn 0.3278814 -0.5150927 0.7919428
vn 0.3796285 -0.01633351 0.9249948
vn 0 -0.6092555 -0.7929739
vn 0 0.01748236 -0.9998472
vn 0 -0.9977471 0.06708568
vn -6.158085E-07 -0.01759874 0.9998451
vn 0 -0.5416501 0.8406041
vn 0.2424519 -0.612123 -0.7526769
vn 0.3001682 0.01669525 -0.9537401
vn 0.680228 0.01291657 -0.7328869
vn 0.5287936 -0.6300108 -0.5687385
vn 0.9574931 0.005154364 -0.2884098
vn 0.746789 -0.6231012 -0.2324887
vn 0.97863 -0.003373207 0.2056015
vn 0.715782 -0.6768457 0.1718601
vn -0.1158403 -0.9930109 0.02259118
vn -0.1700727 -0.9810233 -0.09310509
vn 0.2496733 -0.7341531 0.631413
vn -0.2345568 -0.9542578 -0.1854055
vn 0.5464547 0.03448383 0.8367784
vn -0.2957157 -0.7409524 0.6029441
vn -0.1102389 -0.9600115 -0.257343
vn -0.1327673 -0.02446683 0.9908453
vn -0.8431007 -0.4576581 -0.2823657
vn -0.8463901 -0.4882719 0.2126367
vn -0.9691216 -0.004488901 0.2465427
vn -0.9457796 0.005423656 -0.3247637
vn -0.5199922 -0.4353299 -0.7349122
vn -0.537268 0.03481568 -0.8426926
vn 0.1135313 -0.4954896 -0.8611624
vn 0.2236928 0.0148215 -0.974547
vn -0.6398585 -0.4966494 0.5864474
vn -0.7358879 -0.01205571 0.6769961
vn -0.379629 -0.01633226 0.9249946
vn -0.3278829 -0.5150918 0.7919427
vn -0.1100773 -0.9894969 0.09369536
vn -0.05625487 -0.9942432 0.09119133
vn 0.11585 0.9916195 0.05718122
vn -0.739096 0.6406068 -0.2082305
vn -0.7074949 0.6795654 0.1940151
vn 0.1700746 0.9836746 -0.05881217
vn -0.3508501 0.717059 0.6022713
vn 0.1281182 0.9764495 -0.173586
vn 0.3298787 0.6908983 0.6433037
vn 0.1031069 0.962762 -0.2499164
vn -0.1820361 0.486704 -0.8543898
vn 0.4821581 0.481163 -0.7321241
vn 0.8376443 0.4782482 -0.2638763
vn 0.840377 0.4916221 0.2281977
vn 0.9457801 0.005423615 -0.3247623
vn 0.9691217 -0.004488867 0.246542
vn 0.5367648 0.01435306 -0.8436098
vn -0.2778499 0.009129983 -0.9605811
vn -0.5178748 -0.01465113 0.8553309
vn 0.2356617 -0.07884488 0.9686316
vn -0.9786301 -0.003373213 0.2056007
vn -0.9574934 0.005153004 -0.2884094
vn -0.5232483 0.6588978 -0.5404303
vn 0.1101115 0.9856331 0.1280734
vn -0.6802277 0.01291414 -0.7328871
vn 0.7358873 -0.01205635 0.6769966
vn 0.6352522 0.487138 0.5992922
vn 0.05634697 0.9904614 0.125742
vn -0.2402104 0.6475874 -0.7231386
vn 7.862441E-05 0.646486 -0.7629258
vn 5.342663E-05 0.9948058 0.1017911
vn 0 0.01748236 -0.9998472
vn -0.3001661 0.0166942 -0.9537409
vn 0.325444 0.4982556 0.803634
vn -9.119177E-05 0.5232536 0.8521771
vn 0.3796285 -0.01633351 0.9249948
vn -6.158085E-07 -0.01759874 0.9998451
vn 0.2400423 0.6477914 -0.7230117
vn -0.05628456 0.9904648 0.1257443
vn 0.3001682 0.01669525 -0.9537401
vn -0.3252961 0.4985452 0.8035142
vn -0.379629 -0.01633226 0.9249946
vn -0.1101128 0.985633 0.1280733
vn 0.5232495 0.6588978 -0.5404292
vn -0.115849 0.9916196 0.05718151
vn 0.7390976 0.6406052 -0.20823
vn -0.1700757 0.9836744 -0.05881251
vn 0.7074957 0.6795642 0.1940163
vn 0.01401396 0.9806122 -0.1954568
vn 0.4853215 0.7067528 0.514746
vn 0.2891276 0.9467713 -0.1415253
vn 0.1464197 0.6659721 0.7314659
vn 0.2709545 0.485793 -0.8310168
vn -0.4384166 0.5084646 -0.7411171
vn -0.837643 0.4782511 -0.2638754
vn -0.8403763 0.4916239 0.2281965
vn -0.9691216 -0.004488901 0.2465427
vn -0.9457796 0.005423656 -0.3247637
vn -0.537268 0.03481568 -0.8426926
vn 0.2236928 0.0148215 -0.974547
vn -0.1327673 -0.02446683 0.9908453
vn 0.5464547 0.03448383 0.8367784
vn 0.97863 -0.003373207 0.2056015
vn 0.9574931 0.005154364 -0.2884098
vn 0.680228 0.01291657 -0.7328869
vn -0.6352521 0.4871384 0.599292
vn -0.7358879 -0.01205571 0.6769961
g merge3d_element_food_1_0
f 3/3/3 2/2/2 1/1/1
f 4/4/4 3/3/3 1/1/1
f 4/4/4 1/1/1 5/5/5
f 6/6/6 4/4/4 5/5/5
f 7/7/7 3/3/3 4/4/4
f 8/8/8 7/7/7 4/4/4
f 8/8/8 4/4/4 6/6/6
f 9/9/9 8/8/8 6/6/6
f 10/10/10 7/7/7 8/8/8
f 11/11/11 10/10/10 8/8/8
f 11/11/11 8/8/8 9/9/9
f 12/12/12 11/11/11 9/9/9
f 13/13/13 2/2/2 3/3/3
f 14/14/14 13/13/13 3/3/3
f 14/14/14 3/3/3 7/7/7
f 14/14/14 15/15/15 13/13/13
f 15/15/15 16/16/16 13/13/13
f 17/17/17 15/15/15 14/14/14
f 18/18/18 17/17/17 14/14/14
f 18/18/18 14/14/14 7/7/7
f 18/18/18 7/7/7 10/10/10
f 19/19/19 17/17/17 18/18/18
f 20/20/20 19/19/19 18/18/18
f 20/20/20 18/18/18 10/10/10
f 21/21/21 13/13/13 16/16/16
f 21/21/21 22/22/22 13/13/13
f 22/22/22 2/2/2 13/13/13
f 22/22/22 23/23/23 2/2/2
f 23/23/23 1/1/1 2/2/2
f 23/23/23 24/24/24 1/1/1
f 24/24/24 5/5/5 1/1/1
f 25/25/25 21/21/21 16/16/16
f 26/26/26 24/24/24 23/23/23
f 27/27/27 26/26/26 23/23/23
f 27/27/27 23/23/23 22/22/22
f 28/28/28 27/27/27 22/22/22
f 28/28/28 22/22/22 21/21/21
f 29/29/29 28/28/28 21/21/21
f 29/29/29 21/21/21 25/25/25
f 30/30/30 29/29/29 25/25/25
f 27/27/27 31/31/31 26/26/26
f 31/31/31 32/32/32 26/26/26
f 33/33/33 31/31/31 27/27/27
f 28/28/28 33/33/33 27/27/27
f 28/28/28 29/29/29 33/33/33
f 30/30/30 34/34/34 29/29/29
f 34/34/34 35/35/35 29/29/29
f 29/29/29 35/35/35 33/33/33
f 32/32/32 31/31/31 36/36/36
f 37/37/37 32/32/32 36/36/36
f 37/37/37 36/36/36 38/38/38
f 36/36/36 39/39/39 38/38/38
f 38/38/38 39/39/39 40/40/40
f 39/39/39 41/41/41 40/40/40
f 42/42/42 40/40/40 41/41/41
f 43/43/43 42/42/42 41/41/41
f 43/43/43 41/41/41 44/44/44
f 45/45/45 43/43/43 44/44/44
f 46/46/46 43/43/43 45/45/45
f 47/47/47 46/46/46 45/45/45
f 48/48/48 42/42/42 43/43/43
f 46/46/46 48/48/48 43/43/43
f 49/49/49 46/46/46 47/47/47
f 50/50/50 49/49/49 47/47/47
f 51/51/51 48/48/48 46/46/46
f 49/49/49 51/51/51 46/46/46
f 45/45/45 44/44/44 52/52/52
f 44/44/44 53/53/53 52/52/52
f 52/52/52 53/53/53 54/54/54
f 55/55/55 52/52/52 54/54/54
f 56/56/56 52/52/52 55/55/55
f 45/45/45 52/52/52 56/56/56
f 47/47/47 45/45/45 56/56/56
f 57/57/57 56/56/56 55/55/55
f 58/58/58 56/56/56 57/57/57
f 47/47/47 56/56/56 58/58/58
f 50/50/50 47/47/47 58/58/58
f 59/59/59 58/58/58 57/57/57
f 60/60/60 53/53/53 44/44/44
f 61/61/61 54/54/54 53/53/53
f 60/60/60 61/61/61 53/53/53
f 62/62/62 61/61/61 60/60/60
f 63/63/63 62/62/62 60/60/60
f 63/63/63 60/60/60 64/64/64
f 64/64/64 60/60/60 44/44/44
f 64/64/64 44/44/44 41/41/41
f 39/39/39 64/64/64 41/41/41
f 65/65/65 64/64/64 39/39/39
f 65/65/65 63/63/63 64/64/64
f 36/36/36 65/65/65 39/39/39
f 36/36/36 31/31/31 65/65/65
f 31/31/31 33/33/33 65/65/65
f 65/65/65 33/33/33 63/63/63
f 33/33/33 35/35/35 63/63/63
f 63/63/63 35/35/35 62/62/62
f 35/35/35 34/34/34 62/62/62
f 68/68/68 67/67/67 66/66/66
f 69/69/69 68/68/68 66/66/66
f 70/70/70 68/68/68 69/69/69
f 71/71/71 70/70/70 69/69/69
f 72/72/72 70/70/70 71/71/71
f 73/73/73 72/72/72 71/71/71
f 74/74/74 73/73/73 71/71/71
f 75/75/75 74/74/74 71/71/71
f 75/75/75 71/71/71 69/69/69
f 76/76/76 75/75/75 69/69/69
f 76/76/76 69/69/69 66/66/66
f 77/77/77 76/76/76 66/66/66
f 76/76/76 77/77/77 78/78/78
f 77/77/77 79/79/79 78/78/78
f 76/76/76 78/78/78 80/80/80
f 75/75/75 76/76/76 80/80/80
f 75/75/75 80/80/80 81/81/81
f 74/74/74 75/75/75 81/81/81
f 70/70/70 72/72/72 82/82/82
f 72/72/72 83/83/83 82/82/82
f 70/70/70 82/82/82 84/84/84
f 68/68/68 70/70/70 84/84/84
f 68/68/68 84/84/84 85/85/85
f 67/67/67 68/68/68 85/85/85
f 86/86/86 67/67/67 85/85/85
f 86/86/86 87/87/87 67/67/67
f 87/87/87 66/66/66 67/67/67
f 88/88/88 86/86/86 85/85/85
f 89/89/89 79/79/79 77/77/77
f 90/90/90 89/89/89 77/77/77
f 87/87/87 90/90/90 66/66/66
f 90/90/90 77/77/77 66/66/66
f 91/91/91 87/87/87 86/86/86
f 92/92/92 91/91/91 86/86/86
f 92/92/92 86/86/86 88/88/88
f 92/92/92 93/93/93 91/91/91
f 93/93/93 94/94/94 91/91/91
f 95/95/95 93/93/93 92/92/92
f 96/96/96 95/95/95 92/92/92
f 96/96/96 92/92/92 88/88/88
f 91/91/91 94/94/94 97/97/97
f 97/97/97 90/90/90 87/87/87
f 91/91/91 97/97/97 87/87/87
f 94/94/94 98/98/98 97/97/97
f 97/97/97 98/98/98 99/99/99
f 99/99/99 89/89/89 90/90/90
f 97/97/97 99/99/99 90/90/90
f 98/98/98 100/100/100 99/99/99
f 94/94/94 93/93/93 101/101/101
f 102/102/102 94/94/94 101/101/101
f 98/98/98 94/94/94 102/102/102
f 93/93/93 95/95/95 103/103/103
f 101/101/101 93/93/93 103/103/103
f 100/100/100 98/98/98 104/104/104
f 104/104/104 98/98/98 102/102/102
f 105/105/105 100/100/100 104/104/104
f 102/102/102 101/101/101 106/106/106
f 101/101/101 107/107/107 106/106/106
f 101/101/101 103/103/103 107/107/107
f 106/106/106 107/107/107 108/108/108
f 107/107/107 109/109/109 108/108/108
f 110/110/110 108/108/108 109/109/109
f 111/111/111 110/110/110 109/109/109
f 112/112/112 110/110/110 111/111/111
f 113/113/113 112/112/112 111/111/111
f 114/114/114 112/112/112 113/113/113
f 115/115/115 114/114/114 113/113/113
f 112/112/112 114/114/114 116/116/116
f 117/117/117 112/112/112 116/116/116
f 110/110/110 112/112/112 117/117/117
f 118/118/118 110/110/110 117/117/117
f 108/108/108 110/110/110 118/118/118
f 119/119/119 108/108/108 118/118/118
f 106/106/106 108/108/108 119/119/119
f 120/120/120 119/119/119 118/118/118
f 121/121/121 120/120/120 118/118/118
f 121/121/121 118/118/118 117/117/117
f 122/122/122 121/121/121 117/117/117
f 122/122/122 117/117/117 116/116/116
f 123/123/123 122/122/122 116/116/116
f 124/124/124 115/115/115 113/113/113
f 125/125/125 124/124/124 113/113/113
f 125/125/125 113/113/113 111/111/111
f 126/126/126 125/125/125 111/111/111
f 126/126/126 111/111/111 109/109/109
f 127/127/127 126/126/126 109/109/109
f 128/128/128 127/127/127 109/109/109
f 107/107/107 128/128/128 109/109/109
f 129/129/129 119/119/119 120/120/120
f 130/130/130 129/129/129 120/120/120
f 129/129/129 106/106/106 119/119/119
f 103/103/103 128/128/128 107/107/107
f 104/104/104 129/129/129 130/130/130
f 105/105/105 104/104/104 130/130/130
f 102/102/102 106/106/106 129/129/129
f 104/104/104 102/102/102 129/129/129
