g merge3d_element_ice_1
v 0.129244 0.1322548 0.2266466
v 0.1434288 -0.04177887 0.2507249
v 0.06410558 -0.08194999 0.3693678
v 0.0577619 0.1323879 0.3372445
v -0.06588914 -0.08246742 0.3692416
v -0.06119223 0.1319153 0.3371317
v 0.2607798 0.1327534 0.2202914
v 0.2859628 -0.08155132 0.2415599
v 0.3203558 0.1326018 0.1173325
v 0.3510684 -0.08171736 0.1290419
v -0.1453056 -0.04292662 0.2504517
v -0.1324603 0.1312135 0.2263958
v -0.2875006 -0.08383192 0.2410134
v -0.2639831 0.1306663 0.2197931
v -0.3523892 -0.08451471 0.1283741
v -0.3233614 0.1300409 0.1167192
v -0.2894332 -0.04444408 0.0002632618
v -0.2630927 0.1298393 -0.0003686428
v -0.3676731 -0.1492261 0.1342559
v -0.2999196 -0.1485127 0.2518715
v -0.3842526 -0.149269 0.1402741
v -0.3134408 -0.148523 0.2631996
v -0.2031612 -0.147751 0.3515562
v -0.212318 -0.1477278 0.3673781
v -0.3133016 -0.1835672 0.2633298
v -0.2121788 -0.1827724 0.3675097
v -0.07160007 -0.1470337 0.4031348
v -0.07145976 -0.1820779 0.4032637
v 0.0702621 -0.1464696 0.4032678
v 0.07040019 -0.1815134 0.4033993
v 0.2110487 -0.1460442 0.3677797
v 0.2019229 -0.1461401 0.3519396
v 0.06721585 -0.1465479 0.3858941
v 0.2988743 -0.1461308 0.2524414
v 0.3123752 -0.146034 0.2637911
v 0.3668547 -0.1463046 0.134956
v 0.383424 -0.146216 0.1410013
v 0.4048045 -0.1466586 0.001316738
v 0.4230864 -0.1465858 0.001332378
v 0.367112 -0.1473129 -0.1323919
v 0.383693 -0.1472695 -0.1384078
v 0.3835628 -0.1812594 0.141134
v 0.423226 -0.1816293 0.001467514
v 0.3838323 -0.1823136 -0.138275
v 0.3128795 -0.1480155 -0.2613306
v 0.3130193 -0.1830597 -0.2612003
v 0.2117573 -0.14881 -0.3655105
v 0.2118972 -0.1838539 -0.3653791
v 0.07103993 -0.1495049 -0.4012671
v 0.06795816 -0.1494516 -0.3839001
v 0.2025998 -0.1487873 -0.3496884
v 0.07117811 -0.1845484 -0.4011344
v -0.07082223 -0.1500682 -0.4014003
v -0.07068358 -0.1851131 -0.4012685
v -0.2116095 -0.1504941 -0.3659133
v -0.2114681 -0.1855374 -0.3657784
v -0.3129361 -0.1505043 -0.2619246
v -0.299435 -0.1504068 -0.2505727
v -0.2024867 -0.1503975 -0.3500732
v -0.3674161 -0.1502344 -0.1330893
v -0.3839842 -0.1503223 -0.139135
v -0.312796 -0.1855484 -0.2617907
v -0.3838455 -0.1853665 -0.1390034
v -0.4236467 -0.1499526 0.0005327224
v -0.423508 -0.1849963 0.0006654548
v -0.3841144 -0.1843124 0.1404068
v -0.2870373 -0.08564715 -0.2401824
v -0.1448234 -0.04481317 -0.2496513
v -0.2635584 0.1290054 -0.2205326
v -0.1320226 0.1295044 -0.2268866
v -0.06518008 -0.08524826 -0.3679891
v -0.06054067 0.1293706 -0.3374869
v -0.3231345 0.1291578 -0.1175739
v -0.3521417 -0.08548111 -0.1276632
v 0.06481463 -0.0847307 -0.3678629
v -0.06777622 -0.1499916 -0.3840287
v 0.05841285 0.1298431 -0.337374
v 0.1439122 -0.04366519 -0.2493784
v 0.1296808 0.1305447 -0.2266392
v 0.286426 -0.08336668 -0.2396358
v 0.2612036 0.1310918 -0.2200366
v 0.3513148 -0.08268305 -0.1269942
v 0.320582 0.1317174 -0.1169614
v 0.2880369 -0.04214771 0.0008103943
v 0.2603141 0.1319206 0.0001271439
v 0.299358 -0.148026 -0.2500062
v -0.0685201 -0.1470855 0.3857675
v -0.06054067 0.1293706 -0.3374869
v -0.05210656 0.2330368 -0.2874322
v -0.1129004 0.2331508 -0.1933693
v -0.1320226 0.1295044 -0.2268866
v 0.04905961 0.2334388 -0.2873363
v 0.1096719 0.234036 -0.1931577
v -0.2243711 0.2334352 -0.0007230377
v -0.2247655 0.2327269 -0.1879654
v -0.2754355 0.2328558 -0.1004009
v 0.2207698 0.2352058 -0.0002995872
v 0.2720252 0.2350332 -0.09988122
v 0.2215259 0.2345013 -0.187541
v -0.1132721 0.2346044 0.1921339
v -0.2756258 0.2336083 0.09885967
v -0.2251292 0.2341388 0.1865176
v 0.1092991 0.2354903 0.1923467
v -0.05266083 0.2352018 0.2863151
v 0.04850567 0.2356036 0.2864072
v 0.2211649 0.2359144 0.1869427
v 0.2718329 0.2357849 0.09937723
v 0.320582 0.1317174 -0.1169614
v 0.2612036 0.1310918 -0.2200366
v 0.0577619 0.1323879 0.3372445
v 0.129244 0.1322548 0.2266466
v 0.1296808 0.1305447 -0.2266392
v 0.2607798 0.1327534 0.2202914
v -0.3233614 0.1300409 0.1167192
v -0.2630927 0.1298393 -0.0003686428
v -0.2639831 0.1306663 0.2197931
v 0.05841285 0.1298431 -0.337374
v 0.3203558 0.1326018 0.1173325
v -0.3231345 0.1291578 -0.1175739
v -0.2635584 0.1290054 -0.2205326
v -0.1324603 0.1312135 0.2263958
v -0.06119223 0.1319153 0.3371317
v 0.2603141 0.1319206 0.0001271439
v 0.2111869 -0.1810876 0.3679137
v 0.3125145 -0.1810784 0.2639227
v -0.405366 -0.1498801 0.0005498505
v -0.07068358 -0.1851131 -0.4012685
v -0.0001414442 -0.1833134 0.001064796
v 0.2118972 -0.1838539 -0.3653791
v 0.07117811 -0.1845484 -0.4011344
v -0.2114681 -0.1855374 -0.3657784
v -0.312796 -0.1855484 -0.2617907
v 0.3130193 -0.1830597 -0.2612003
v 0.3838323 -0.1823136 -0.138275
v 0.3835628 -0.1812594 0.141134
v 0.3125145 -0.1810784 0.2639227
v 0.2111869 -0.1810876 0.3679137
v 0.423226 -0.1816293 0.001467514
v -0.3838455 -0.1853665 -0.1390034
v -0.423508 -0.1849963 0.0006654548
v -0.3841144 -0.1843124 0.1404068
v -0.3133016 -0.1835672 0.2633298
v -0.07145976 -0.1820779 0.4032637
v -0.2121788 -0.1827724 0.3675097
v 0.07040019 -0.1815134 0.4033993
vt 0.2793291 0.9077136
vt 0.2998076 0.9195393
vt 0.3192788 0.9005395
vt 0.2924462 0.8946719
vt 0.3192788 0.8745634
vt 0.292444 0.8804333
vt 0.2745937 0.9255962
vt 0.2930941 0.9459048
vt 0.2622644 0.9327167
vt 0.2705986 0.9588992
vt 0.2998054 0.8555617
vt 0.2793312 0.8673872
vt 0.2930941 0.8291962
vt 0.2745937 0.8495089
vt 0.2705986 0.8162081
vt 0.2622666 0.8423929
vt 0.244414 0.8235739
vt 0.244414 0.8472251
vt 0.2725338 0.8111499
vt 0.2965057 0.8249924
vt 0.2730482 0.8091633
vt 0.2979715 0.8235589
vt 0.3156648 0.8464072
vt 0.3173545 0.8454322
vt 0.3010259 0.8198157
vt 0.321358 0.8431204
vt 0.3265993 0.8731579
vt 0.331367 0.8723875
vt 0.3265993 0.9019429
vt 0.3313649 0.9027156
vt 0.3173523 0.9296709
vt 0.3156648 0.9286937
vt 0.3246234 0.9013919
vt 0.2965057 0.9501106
vt 0.2979693 0.9515463
vt 0.272536 0.9639575
vt 0.2730439 0.9659418
vt 0.244414 0.9698464
vt 0.244414 0.9717966
vt 0.2162921 0.9639575
vt 0.2157842 0.9659418
vt 0.2747615 0.9704577
vt 0.244414 0.9764201
vt 0.2140664 0.9704577
vt 0.1908585 0.9515463
vt 0.1878064 0.9552894
vt 0.1714758 0.9296709
vt 0.1674721 0.9319806
vt 0.1622288 0.9019429
vt 0.1642047 0.9013919
vt 0.1731632 0.9286937
vt 0.1574632 0.9027156
vt 0.1622288 0.8731579
vt 0.157461 0.8723875
vt 0.1714736 0.8454322
vt 0.16747 0.8431204
vt 0.1908565 0.8235589
vt 0.1923223 0.8249924
vt 0.1731632 0.8464072
vt 0.2162943 0.8111499
vt 0.2157798 0.8091633
vt 0.1878021 0.8198157
vt 0.2140664 0.8046474
vt 0.244414 0.8033063
vt 0.244414 0.7986829
vt 0.2747615 0.8046474
vt 0.195734 0.8291962
vt 0.1890225 0.8555617
vt 0.2142344 0.8495089
vt 0.2094967 0.8673872
vt 0.1695493 0.8745634
vt 0.1963841 0.8804333
vt 0.2265615 0.8423929
vt 0.2182294 0.8162081
vt 0.1695493 0.9005395
vt 0.1642047 0.8737113
vt 0.1963819 0.8946719
vt 0.1890205 0.9195393
vt 0.2094989 0.9077136
vt 0.195734 0.9459048
vt 0.2142344 0.9255962
vt 0.2182294 0.9588992
vt 0.2265637 0.9327167
vt 0.244414 0.9515312
vt 0.244414 0.92788
vt 0.1923223 0.9501106
vt 0.3246234 0.8737113
vt 0.01749725 0.8754095
vt 0.03559518 0.8790708
vt 0.04923529 0.8675659
vt 0.03208882 0.8575291
vt 0.03559518 0.8939034
vt 0.04923529 0.9054083
vt 0.08241981 0.848958
vt 0.05263186 0.8500535
vt 0.06557465 0.8427781
vt 0.08242196 0.9240164
vt 0.06557465 0.9301961
vt 0.05263186 0.9229228
vt 0.1156021 0.8675637
vt 0.09926283 0.8427781
vt 0.1122055 0.8500513
vt 0.1156043 0.9054083
vt 0.1292423 0.8790686
vt 0.1292423 0.8939013
vt 0.1122098 0.9229206
vt 0.09926492 0.9301961
vt 0.05978454 0.9477343
vt 0.04054582 0.9368901
vt 0.1473401 0.8975604
vt 0.1327487 0.9154431
vt 0.03208882 0.9154453
vt 0.1242959 0.9368882
vt 0.1050529 0.82524
vt 0.08241981 0.829024
vt 0.1242917 0.8360839
vt 0.01749725 0.8975648
vt 0.1050572 0.9477343
vt 0.05978454 0.825242
vt 0.04054582 0.8360862
vt 0.1327487 0.8575268
vt 0.1473401 0.8754073
vt 0.08242196 0.9439504
vt 0.3213559 0.9319806
vt 0.3010215 0.9552894
vt 0.244414 0.8052587
vt 0.4711456 0.8540742
vt 0.4121402 0.8883479
vt 0.481824 0.9004468
vt 0.4793099 0.876322
vt 0.4574603 0.8340499
vt 0.4353093 0.8241636
vt 0.4713264 0.9223115
vt 0.456143 0.9405043
vt 0.4123275 0.9565874
vt 0.3889776 0.9525364
vt 0.3668266 0.9426524
vt 0.4365104 0.954745
vt 0.4119594 0.8201105
vt 0.3877765 0.821951
vt 0.3681418 0.8361894
vt 0.352954 0.8543864
vt 0.3449727 0.9003801
vt 0.3424565 0.8762553
vt 0.353137 0.9226279
vn 0.4866856 0.2196428 0.8455141
vn 0.4815566 0.2607099 0.8367398
vn 0.3496969 0.2993867 0.8877385
vn 0.4559993 0.2363981 0.8580096
vn -0.3537513 0.2965964 0.8870685
vn -0.4594997 0.2327538 0.8571381
vn 0.5128462 0.2365014 0.8252612
vn 0.5917171 0.2998186 0.7483178
vn 0.9713601 0.2353306 0.03284843
vn 0.9440369 0.2989187 0.1394341
vn -0.4852055 0.2568701 0.8358189
vn -0.4900242 0.2157556 0.8445862
vn -0.5955074 0.2950991 0.7471864
vn -0.5162742 0.2324065 0.8242864
vn -0.9466472 0.2913952 0.1376513
vn -0.9732627 0.2275933 0.03099941
vn -0.9677812 0.2517854 -0.001884572
vn -0.9775655 0.2106247 -0.00173936
vn -0.7427225 0.6455831 0.1777238
vn -0.529735 0.6478297 0.5474466
vn -0.8414851 0.4108831 0.3508248
vn -0.7277871 0.4120694 0.5482013
vn -0.3425347 0.7358261 0.5841488
vn -0.4631694 0.3890002 0.7963371
vn -0.06939986 -0.9958252 0.05929527
vn -0.04607808 -0.9948552 0.09022219
vn -0.1164122 0.4157752 0.9019862
vn -0.007635886 -0.9954448 0.09503402
vn 0.1113844 0.4167224 0.9021839
vn 0.01548078 -0.9952713 0.0958936
vn 0.4585499 0.392704 0.7971923
vn 0.3355633 0.7385157 0.5848008
vn 0.2100702 0.6514518 0.7290275
vn 0.5235218 0.6520125 0.5484565
vn 0.7234505 0.4178263 0.5495822
vn 0.7372287 0.6514663 0.1791246
vn 0.8375301 0.4175493 0.3524143
vn 0.6751775 0.7376522 -0.002132069
vn 0.9201619 0.3915376 -0.0006038024
vn 0.7375733 0.6501047 -0.1826185
vn 0.838205 0.4148911 -0.353946
vn 0.08872797 -0.9952716 0.03951889
vn 0.103849 -0.9945857 0.003853555
vn 0.08879754 -0.9955407 -0.03183819
vn 0.7245054 0.4137007 -0.5513108
vn 0.07798345 -0.9955825 -0.05228759
vn 0.4600826 0.386699 -0.7992421
vn 0.05487121 -0.9949335 -0.08423971
vn 0.1131275 0.4099132 -0.9050819
vn 0.211478 0.6459372 -0.7335136
vn 0.3366949 0.7340856 -0.5897075
vn 0.01565907 -0.9959662 -0.08835226
vn -0.1146701 0.408987 -0.9053068
vn -0.007461011 -0.9961333 -0.08753657
vn -0.4616402 0.3829604 -0.8001435
vn -0.04591205 -0.9955076 -0.08280511
vn -0.7267389 0.4078689 -0.5527147
vn -0.5286815 0.6436644 -0.5533462
vn -0.3414062 0.7313866 -0.5903519
vn -0.7423723 0.6442198 -0.1840221
vn -0.8408144 0.4081982 -0.3555352
vn -0.06929313 -0.9962445 -0.05191594
vn -0.08159745 -0.996141 -0.03232498
vn -0.9232467 0.3842005 -0.002339073
vn -0.09771422 -0.9952077 0.00366075
vn -0.08166555 -0.9958695 0.03968269
vn -0.5940605 0.2894495 -0.7505405
vn -0.4835892 0.2505525 -0.8386686
vn -0.5146842 0.2261793 -0.8270085
vn -0.4883925 0.2093764 -0.847133
vn -0.3520373 0.2898907 -0.8899624
vn -0.4578406 0.2262791 -0.8597557
vn -0.9731988 0.2273475 -0.03459791
vn -0.9463767 0.2903495 -0.1416631
vn 0.3514112 0.292684 -0.8892954
vn -0.2152107 0.6442363 -0.7339237
vn 0.4576576 0.2299168 -0.8588876
vn 0.4831677 0.2543938 -0.8377546
vn 0.4883183 0.2132592 -0.8462066
vn 0.5931704 0.2941658 -0.74941
vn 0.5144415 0.2302698 -0.8260301
vn 0.9443062 0.2978638 -0.1398681
vn 0.9714239 0.2350806 -0.03275086
vn 0.9657506 0.2594723 -4.796683E-05
vn 0.9758611 0.2183924 0.0001175255
vn 0.5245863 0.6478593 -0.5523471
vn -0.2166219 0.6497654 0.7286152
vn -0.4578406 0.2262791 -0.8597557
vn -0.3252361 0.7952266 -0.5116991
vn -0.09153005 0.9835365 -0.1558145
vn -0.4883925 0.2093764 -0.847133
vn 0.3198736 0.7977906 -0.5110881
vn 0.08399849 0.9842348 -0.1556477
vn -0.1794413 0.983761 -0.003883197
vn -0.281641 0.7953063 -0.5368112
vn -0.6047453 0.7961268 0.02156906
vn 0.1716159 0.9851576 -0.003550806
vn 0.5983513 0.8009121 0.02270657
vn 0.2763322 0.7975241 -0.5362796
vn -0.09182524 0.9846831 0.1482134
vn -0.6046882 0.7959436 -0.02873815
vn -0.2826731 0.7993286 0.5302542
vn 0.08370467 0.9853815 0.148381
vn -0.3262209 0.7990568 0.5050626
vn 0.3188897 0.8016325 0.5056627
vn 0.2753012 0.8015488 0.5307813
vn 0.5983969 0.8007242 -0.02760125
vn 0.9714239 0.2350806 -0.03275086
vn 0.5144415 0.2302698 -0.8260301
vn 0.4559993 0.2363981 0.8580096
vn 0.4866856 0.2196428 0.8455141
vn 0.4883183 0.2132592 -0.8462066
vn 0.5128462 0.2365014 0.8252612
vn -0.9732627 0.2275933 0.03099941
vn -0.9775655 0.2106247 -0.00173936
vn -0.5162742 0.2324065 0.8242864
vn 0.4576576 0.2299168 -0.8588876
vn 0.9713601 0.2353306 0.03284843
vn -0.9731988 0.2273475 -0.03459791
vn -0.5146842 0.2261793 -0.8270085
vn -0.4900242 0.2157556 0.8445862
vn -0.4594997 0.2327538 0.8571381
vn 0.9758611 0.2183924 0.0001175255
vn 0.05470086 -0.9942691 0.09185112
vn 0.07787581 -0.9951591 0.05994763
vn -0.6810211 0.7322558 -0.003418762
vn -0.007461011 -0.9961333 -0.08753657
vn 0.003973272 -0.999985 0.003776034
vn 0.05487121 -0.9949335 -0.08423971
vn 0.01565907 -0.9959662 -0.08835226
vn -0.04591205 -0.9955076 -0.08280511
vn -0.06929313 -0.9962445 -0.05191594
vn 0.07798345 -0.9955825 -0.05228759
vn 0.08879754 -0.9955407 -0.03183819
vn 0.08872797 -0.9952716 0.03951889
vn 0.07787581 -0.9951591 0.05994763
vn 0.05470086 -0.9942691 0.09185112
vn 0.103849 -0.9945857 0.003853555
vn -0.08159745 -0.996141 -0.03232498
vn -0.09771422 -0.9952077 0.00366075
vn -0.08166555 -0.9958695 0.03968269
vn -0.06939986 -0.9958252 0.05929527
vn -0.007635886 -0.9954448 0.09503402
vn -0.04607808 -0.9948552 0.09022219
vn 0.01548078 -0.9952713 0.0958936
g merge3d_element_ice_1_0
f 3/3/3 2/2/2 1/1/1
f 4/4/4 3/3/3 1/1/1
f 5/5/5 3/3/3 4/4/4
f 6/6/6 5/5/5 4/4/4
f 1/1/1 2/2/2 7/7/7
f 2/2/2 8/8/8 7/7/7
f 7/7/7 8/8/8 9/9/9
f 8/8/8 10/10/10 9/9/9
f 11/11/11 5/5/5 6/6/6
f 12/12/12 11/11/11 6/6/6
f 13/13/13 11/11/11 12/12/12
f 14/14/14 13/13/13 12/12/12
f 15/15/15 13/13/13 14/14/14
f 16/16/16 15/15/15 14/14/14
f 17/17/17 15/15/15 16/16/16
f 18/18/18 17/17/17 16/16/16
f 15/15/15 19/19/19 13/13/13
f 19/19/19 20/20/20 13/13/13
f 13/13/13 20/20/20 11/11/11
f 19/19/19 21/21/21 20/20/20
f 21/21/21 22/22/22 20/20/20
f 20/20/20 22/22/22 23/23/23
f 20/20/20 23/23/23 11/11/11
f 22/22/22 24/24/24 23/23/23
f 22/22/22 25/25/25 24/24/24
f 25/25/25 26/26/26 24/24/24
f 24/24/24 26/26/26 27/27/27
f 26/26/26 28/28/28 27/27/27
f 27/27/27 28/28/28 29/29/29
f 28/28/28 30/30/30 29/29/29
f 29/29/29 30/30/30 31/31/31
f 29/29/29 31/31/31 32/32/32
f 33/33/33 29/29/29 32/32/32
f 27/27/27 29/29/29 33/33/33
f 32/32/32 31/31/31 34/34/34
f 31/31/31 35/35/35 34/34/34
f 34/34/34 35/35/35 36/36/36
f 35/35/35 37/37/37 36/36/36
f 36/36/36 37/37/37 38/38/38
f 37/37/37 39/39/39 38/38/38
f 38/38/38 39/39/39 40/40/40
f 39/39/39 41/41/41 40/40/40
f 37/37/37 42/42/42 39/39/39
f 42/42/42 43/43/43 39/39/39
f 39/39/39 43/43/43 41/41/41
f 43/43/43 44/44/44 41/41/41
f 41/41/41 44/44/44 45/45/45
f 44/44/44 46/46/46 45/45/45
f 45/45/45 46/46/46 47/47/47
f 46/46/46 48/48/48 47/47/47
f 47/47/47 48/48/48 49/49/49
f 47/47/47 49/49/49 50/50/50
f 51/51/51 47/47/47 50/50/50
f 45/45/45 47/47/47 51/51/51
f 48/48/48 52/52/52 49/49/49
f 49/49/49 52/52/52 53/53/53
f 52/52/52 54/54/54 53/53/53
f 55/55/55 53/53/53 54/54/54
f 56/56/56 55/55/55 54/54/54
f 55/55/55 56/56/56 57/57/57
f 55/55/55 57/57/57 58/58/58
f 59/59/59 55/55/55 58/58/58
f 53/53/53 55/55/55 59/59/59
f 58/58/58 57/57/57 60/60/60
f 57/57/57 61/61/61 60/60/60
f 56/56/56 62/62/62 57/57/57
f 57/57/57 62/62/62 61/61/61
f 62/62/62 63/63/63 61/61/61
f 61/61/61 63/63/63 64/64/64
f 63/63/63 65/65/65 64/64/64
f 64/64/64 65/65/65 21/21/21
f 65/65/65 66/66/66 21/21/21
f 21/21/21 66/66/66 22/22/22
f 66/66/66 25/25/25 22/22/22
f 58/58/58 67/67/67 59/59/59
f 67/67/67 68/68/68 59/59/59
f 68/68/68 67/67/67 69/69/69
f 70/70/70 68/68/68 69/69/69
f 68/68/68 70/70/70 71/71/71
f 68/68/68 71/71/71 59/59/59
f 70/70/70 72/72/72 71/71/71
f 69/69/69 67/67/67 73/73/73
f 67/67/67 74/74/74 73/73/73
f 73/73/73 74/74/74 18/18/18
f 74/74/74 17/17/17 18/18/18
f 75/75/75 71/71/71 72/72/72
f 75/75/75 50/50/50 71/71/71
f 50/50/50 76/76/76 71/71/71
f 77/77/77 75/75/75 72/72/72
f 78/78/78 75/75/75 77/77/77
f 79/79/79 78/78/78 77/77/77
f 80/80/80 78/78/78 79/79/79
f 81/81/81 80/80/80 79/79/79
f 82/82/82 80/80/80 81/81/81
f 83/83/83 82/82/82 81/81/81
f 84/84/84 82/82/82 83/83/83
f 85/85/85 84/84/84 83/83/83
f 10/10/10 84/84/84 85/85/85
f 9/9/9 10/10/10 85/85/85
f 51/51/51 50/50/50 75/75/75
f 78/78/78 51/51/51 75/75/75
f 10/10/10 36/36/36 84/84/84
f 34/34/34 36/36/36 10/10/10
f 8/8/8 34/34/34 10/10/10
f 36/36/36 38/38/38 84/84/84
f 84/84/84 38/38/38 82/82/82
f 32/32/32 34/34/34 8/8/8
f 2/2/2 32/32/32 8/8/8
f 82/82/82 40/40/40 80/80/80
f 38/38/38 40/40/40 82/82/82
f 40/40/40 86/86/86 80/80/80
f 86/86/86 45/45/45 51/51/51
f 41/41/41 45/45/45 86/86/86
f 40/40/40 41/41/41 86/86/86
f 86/86/86 51/51/51 78/78/78
f 80/80/80 86/86/86 78/78/78
f 33/33/33 32/32/32 2/2/2
f 3/3/3 33/33/33 2/2/2
f 87/87/87 33/33/33 3/3/3
f 87/87/87 27/27/27 33/33/33
f 24/24/24 27/27/27 87/87/87
f 23/23/23 24/24/24 87/87/87
f 5/5/5 87/87/87 3/3/3
f 23/23/23 87/87/87 5/5/5
f 11/11/11 23/23/23 5/5/5
f 90/90/90 89/89/89 88/88/88
f 91/91/91 90/90/90 88/88/88
f 89/89/89 90/90/90 92/92/92
f 90/90/90 93/93/93 92/92/92
f 93/93/93 90/90/90 94/94/94
f 94/94/94 90/90/90 95/95/95
f 90/90/90 91/91/91 95/95/95
f 96/96/96 94/94/94 95/95/95
f 97/97/97 93/93/93 94/94/94
f 93/93/93 97/97/97 98/98/98
f 99/99/99 93/93/93 98/98/98
f 94/94/94 100/100/100 97/97/97
f 100/100/100 94/94/94 101/101/101
f 102/102/102 100/100/100 101/101/101
f 100/100/100 103/103/103 97/97/97
f 103/103/103 100/100/100 104/104/104
f 105/105/105 103/103/103 104/104/104
f 97/97/97 103/103/103 106/106/106
f 107/107/107 97/97/97 106/106/106
f 98/98/98 108/108/108 99/99/99
f 108/108/108 109/109/109 99/99/99
f 105/105/105 110/110/110 103/103/103
f 110/110/110 111/111/111 103/103/103
f 103/103/103 111/111/111 106/106/106
f 99/99/99 109/109/109 93/93/93
f 109/109/109 112/112/112 93/93/93
f 111/111/111 113/113/113 106/106/106
f 106/106/106 113/113/113 107/107/107
f 101/101/101 114/114/114 102/102/102
f 115/115/115 114/114/114 101/101/101
f 94/94/94 115/115/115 101/101/101
f 114/114/114 116/116/116 102/102/102
f 93/93/93 112/112/112 92/92/92
f 112/112/112 117/117/117 92/92/92
f 113/113/113 118/118/118 107/107/107
f 92/92/92 117/117/117 89/89/89
f 117/117/117 88/88/88 89/89/89
f 119/119/119 115/115/115 94/94/94
f 96/96/96 119/119/119 94/94/94
f 120/120/120 119/119/119 96/96/96
f 95/95/95 120/120/120 96/96/96
f 91/91/91 120/120/120 95/95/95
f 116/116/116 121/121/121 100/100/100
f 102/102/102 116/116/116 100/100/100
f 100/100/100 121/121/121 104/104/104
f 121/121/121 122/122/122 104/104/104
f 104/104/104 122/122/122 105/105/105
f 122/122/122 110/110/110 105/105/105
f 118/118/118 123/123/123 97/97/97
f 107/107/107 118/118/118 97/97/97
f 97/97/97 123/123/123 98/98/98
f 123/123/123 108/108/108 98/98/98
f 30/30/30 124/124/124 31/31/31
f 31/31/31 124/124/124 35/35/35
f 124/124/124 125/125/125 35/35/35
f 35/35/35 125/125/125 37/37/37
f 125/125/125 42/42/42 37/37/37
f 64/64/64 21/21/21 19/19/19
f 126/126/126 64/64/64 19/19/19
f 61/61/61 64/64/64 126/126/126
f 60/60/60 61/61/61 126/126/126
f 60/60/60 126/126/126 17/17/17
f 74/74/74 60/60/60 17/17/17
f 58/58/58 60/60/60 74/74/74
f 67/67/67 58/58/58 74/74/74
f 126/126/126 19/19/19 15/15/15
f 17/17/17 126/126/126 15/15/15
f 71/71/71 76/76/76 59/59/59
f 76/76/76 53/53/53 59/59/59
f 49/49/49 53/53/53 76/76/76
f 50/50/50 49/49/49 76/76/76
f 129/129/129 128/128/128 127/127/127
f 130/130/130 129/129/129 127/127/127
f 127/127/127 128/128/128 131/131/131
f 128/128/128 132/132/132 131/131/131
f 128/128/128 129/129/129 133/133/133
f 134/134/134 128/128/128 133/133/133
f 135/135/135 128/128/128 134/134/134
f 128/128/128 135/135/135 136/136/136
f 137/137/137 128/128/128 136/136/136
f 138/138/138 135/135/135 134/134/134
f 132/132/132 128/128/128 139/139/139
f 128/128/128 140/140/140 139/139/139
f 140/140/140 128/128/128 141/141/141
f 128/128/128 142/142/142 141/141/141
f 142/142/142 128/128/128 143/143/143
f 144/144/144 142/142/142 143/143/143
f 128/128/128 137/137/137 145/145/145
f 143/143/143 128/128/128 145/145/145
