g merge3d_element_arms_4
v 0.04534168 -0.04004794 -0.2300838
v 0.04536255 0.0638432 -0.2304061
v 0.05053134 0.06349181 -0.3435698
v 0.05051006 -0.04039958 -0.3432476
v 0.05754287 -0.03957042 -0.07546273
v 0.05756474 0.06431904 -0.07578479
v 0.07837313 -0.03908604 0.0822418
v 0.07839493 0.0648045 0.08191957
v 0.106885 -0.03859282 0.2430634
v 0.1069068 0.06529775 0.2427415
v 0.1198653 -0.03808788 0.4066956
v 0.1198857 0.06580414 0.4063734
v 0.1228358 0.06640953 0.6023095
v 0.1228138 -0.03748022 0.6026304
v 0.04477016 -0.04107664 -0.5618153
v 0.04479203 0.06281399 -0.5621374
v -0.05906384 0.06284443 -0.5594103
v -0.05908476 -0.04104786 -0.5590879
v 0.04477016 -0.04107664 -0.5618153
v 0.04479203 0.06281399 -0.5621374
v -0.05332404 0.06352143 -0.3408426
v 0.05053134 0.06349181 -0.3435698
v 0.04536255 0.0638432 -0.2304061
v -0.05849343 0.06387358 -0.227679
v 0.05756474 0.06431904 -0.07578479
v -0.04629165 0.06435033 -0.07305784
v 0.07839493 0.0648045 0.08191957
v -0.02546101 0.06483495 0.08464689
v 0.1069068 0.06529775 0.2427415
v -0.007612419 0.0653304 0.2457489
v 0.1198857 0.06580414 0.4063734
v -0.0132152 0.06584129 0.409869
v -0.04743963 0.06645928 0.6067803
v 0.1228358 0.06640953 0.6023095
v 0.04479203 0.06281399 -0.5621374
v -0.05906384 0.06284443 -0.5594103
v -0.05849343 0.06387358 -0.227679
v -0.0585148 -0.04001672 -0.2273569
v -0.05334502 -0.04036978 -0.3405203
v -0.05332404 0.06352143 -0.3408426
v -0.04629165 0.06435033 -0.07305784
v -0.04631203 -0.03954165 -0.07273541
v -0.02546101 0.06483495 0.08464689
v -0.0254818 -0.03905611 0.08496933
v -0.0076338 -0.0385599 0.2460712
v -0.007612419 0.0653304 0.2457489
v -0.0132152 0.06584129 0.409869
v -0.01323635 -0.03805008 0.4101909
v -0.04743963 0.06645928 0.6067803
v -0.04746097 -0.03743101 0.6071026
v -0.05908476 -0.04104786 -0.5590879
v -0.05906384 0.06284443 -0.5594103
v 0.05051006 -0.04039958 -0.3432476
v -0.05334502 -0.04036978 -0.3405203
v -0.0585148 -0.04001672 -0.2273569
v 0.04534168 -0.04004794 -0.2300838
v -0.04631203 -0.03954165 -0.07273541
v 0.05754287 -0.03957042 -0.07546273
v 0.07837313 -0.03908604 0.0822418
v -0.0254818 -0.03905611 0.08496933
v -0.0076338 -0.0385599 0.2460712
v 0.106885 -0.03859282 0.2430634
v -0.01323635 -0.03805008 0.4101909
v 0.1198653 -0.03808788 0.4066956
v -0.04746097 -0.03743101 0.6071026
v 0.1228138 -0.03748022 0.6026304
v -0.05908476 -0.04104786 -0.5590879
v 0.04477016 -0.04107664 -0.5618153
v -0.04746097 -0.03743101 0.6071026
v -0.04743963 0.06645928 0.6067803
v 0.1228358 0.06640953 0.6023095
v 0.1228138 -0.03748022 0.6026304
v 0.4801703 0.03277773 -0.3539881
v 0.4801606 -0.009928703 -0.3538559
v 0.4831345 -0.009673366 -0.2714994
v 0.4831437 0.03303389 -0.2716318
v 0.08346855 -0.07380508 -0.358302
v -0.08706636 -0.0737555 -0.3538238
v -0.08703142 0.09683689 -0.354353
v 0.08350247 0.09678897 -0.3588313
v 0.2433252 0.07350817 -0.3457015
v 0.2432996 -0.05050948 -0.3453169
v -0.245983 -0.05036836 -0.3324682
v -0.2459576 0.07364914 -0.3328528
v 0.4831345 -0.009673366 -0.2714994
v 0.4831437 0.03303389 -0.2716318
v -0.4815823 0.03331211 -0.2462978
v -0.4815905 -0.009396819 -0.2461652
v -0.09167586 -0.07429838 -0.5293303
v 0.07885882 -0.07434802 -0.5338078
v 0.07889405 0.09624455 -0.5343369
v -0.09164102 0.09629509 -0.5298594
v 0.2396727 -0.05093612 -0.483416
v 0.2396986 0.07308058 -0.4838006
v -0.249585 0.0732222 -0.4709521
v -0.2496106 -0.05079538 -0.4705672
v 0.4801703 0.03277773 -0.3539881
v 0.4801606 -0.009928703 -0.3538559
v -0.4829428 -0.009652671 -0.3285636
v -0.4829341 0.03305542 -0.3286961
v -0.08703142 0.09683689 -0.354353
v -0.09164102 0.09629509 -0.5298594
v 0.07889405 0.09624455 -0.5343369
v 0.08350247 0.09678897 -0.3588313
v -0.249585 0.0732222 -0.4709521
v -0.2462913 0.07361036 -0.3455292
v -0.2459576 0.07364914 -0.3328528
v 0.2433252 0.07350817 -0.3457015
v 0.2396986 0.07308058 -0.4838006
v 0.4831437 0.03303389 -0.2716318
v 0.4801703 0.03277773 -0.3539881
v -0.4829341 0.03305542 -0.3286961
v -0.4815823 0.03331211 -0.2462978
v 0.2396727 -0.05093612 -0.483416
v 0.07885882 -0.07434802 -0.5338078
v 0.08346855 -0.07380508 -0.358302
v 0.2429664 -0.05054794 -0.3579932
v 0.2432996 -0.05050948 -0.3453169
v -0.09167586 -0.07429838 -0.5293303
v -0.08706636 -0.0737555 -0.3538238
v -0.2496106 -0.05079538 -0.4705672
v -0.245983 -0.05036836 -0.3324682
v -0.4815905 -0.009396819 -0.2461652
v -0.4829428 -0.009652671 -0.3285636
v 0.4801606 -0.009928703 -0.3538559
v 0.4831345 -0.009673366 -0.2714994
v -0.4815905 -0.009396819 -0.2461652
v -0.4829428 -0.009652671 -0.3285636
v -0.4829341 0.03305542 -0.3286961
v -0.4815823 0.03331211 -0.2462978
vt 0.731446 0.6943932
vt 0.7141697 0.6945522
vt 0.7147073 0.7131134
vt 0.7312403 0.7129626
vt 0.7310826 0.6688353
vt 0.7140641 0.6689958
vt 0.7308728 0.6427482
vt 0.713783 0.6429114
vt 0.7303599 0.6163113
vt 0.7137803 0.6164731
vt 0.7301515 0.5899526
vt 0.713469 0.5901158
vt 0.71293 0.5584034
vt 0.7300609 0.5582347
vt 0.7317517 0.7485134
vt 0.714828 0.7486671
vt 0.7149885 0.7655689
vt 0.731893 0.7654181
vt 0.7317517 0.7485134
vt 0.714828 0.7486671
vt 0.6979905 0.7130339
vt 0.7147073 0.7131134
vt 0.7141697 0.6945522
vt 0.6970923 0.6949279
vt 0.7140641 0.6689958
vt 0.697165 0.6703411
vt 0.713783 0.6429114
vt 0.69691 0.6448778
vt 0.7137803 0.6164731
vt 0.6954055 0.6182805
vt 0.713469 0.5901158
vt 0.6919402 0.5910854
vt 0.684993 0.5589985
vt 0.71293 0.5584034
vt 0.714828 0.7486671
vt 0.6979027 0.7486546
vt 0.7798148 0.6949582
vt 0.7629102 0.6951063
vt 0.7630721 0.7135399
vt 0.7799766 0.7133918
vt 0.7795982 0.6697212
vt 0.7626935 0.6698666
vt 0.7793732 0.6438357
vt 0.7624687 0.6439824
vt 0.7622396 0.6176099
vt 0.7791429 0.6174605
vt 0.7789056 0.5907384
vt 0.762001 0.5908933
vt 0.7786011 0.5582169
vt 0.7616966 0.5583759
vt 0.763382 0.7491155
vt 0.7802866 0.7489673
vt 0.7312403 0.7129626
vt 0.7479542 0.7125841
vt 0.7485275 0.6944576
vt 0.731446 0.6943932
vt 0.7480036 0.669868
vt 0.7310826 0.6688353
vt 0.7308728 0.6427482
vt 0.7477801 0.6443924
vt 0.7487662 0.6177608
vt 0.7303599 0.6163113
vt 0.751694 0.5904984
vt 0.7301515 0.5899526
vt 0.7580049 0.5582772
vt 0.7300609 0.5582347
vt 0.7486756 0.7481993
vt 0.7317517 0.7485134
vt 0.7296715 0.5305198
vt 0.7127669 0.5306884
vt 0.71293 0.5584034
vt 0.7300609 0.5582347
vt 0.6046813 0.5617865
vt 0.6128093 0.5617796
vt 0.6123183 0.5484021
vt 0.6053697 0.5483596
vt 0.6579691 0.6246876
vt 0.6579664 0.6524491
vt 0.6857252 0.6524504
vt 0.6857266 0.6246902
vt 0.6819389 0.5985921
vt 0.6617595 0.5985935
vt 0.6617568 0.6785473
vt 0.6819361 0.6785473
vt 0.6683694 0.5577561
vt 0.675318 0.5577547
vt 0.6753222 0.7193847
vt 0.6683722 0.7193847
vt 0.6223072 0.6542785
vt 0.6218588 0.6300454
vt 0.5957977 0.6304431
vt 0.5962461 0.6546762
vt 0.6185771 0.605372
vt 0.5978917 0.605431
vt 0.5995263 0.6793494
vt 0.6202132 0.6792905
vt 0.6046813 0.5617865
vt 0.6128093 0.5617796
vt 0.6134208 0.7229337
vt 0.6052915 0.7229432
vt 0.5697846 0.6606662
vt 0.5962461 0.6546762
vt 0.5957977 0.6304431
vt 0.5690317 0.6259409
vt 0.5995263 0.6793494
vt 0.5817661 0.6891326
vt 0.5799929 0.6901667
vt 0.5781073 0.595113
vt 0.5978917 0.605431
vt 0.5928891 0.5540726
vt 0.6046813 0.5617865
vt 0.6052915 0.7229432
vt 0.5933197 0.730572
vt 0.6185771 0.605372
vt 0.6218588 0.6300454
vt 0.648319 0.6240526
vt 0.6363361 0.5955875
vt 0.638112 0.5945535
vt 0.6223072 0.6542785
vt 0.6490732 0.658782
vt 0.6202132 0.6792905
vt 0.6399963 0.6896098
vt 0.6252131 0.7306502
vt 0.6134208 0.7229337
vt 0.6128093 0.5617796
vt 0.6247798 0.5541494
vt 0.6127353 0.7363632
vt 0.6134208 0.7229337
vt 0.6052915 0.7229432
vt 0.6057866 0.7363207
vn 0.9996552 -0.000285808 -0.02625385
vn 0.9996552 -0.0002858313 -0.0262535
vn 0.9999986 -0.0002114005 -0.001720652
vn 0.9999986 -0.0002113707 -0.001720637
vn 0.9944538 -0.0005329027 -0.1051728
vn 0.9944537 -0.0005329633 -0.1051729
vn 0.9882135 -0.0006820224 -0.1530797
vn 0.9882135 -0.0006820223 -0.1530797
vn 0.9919223 -0.000597817 -0.1268462
vn 0.9919223 -0.0005977801 -0.1268458
vn 0.9990202 -0.0003405996 -0.04425562
vn 0.9990202 -0.0003405405 -0.04425564
vn 0.9998868 -0.0002507613 -0.01504965
vn 0.9998868 -0.0002507914 -0.01504965
vn 0.9996554 -0.0002891389 -0.02625017
vn 0.9996554 -0.0002890788 -0.02625014
vn -0.02625178 -0.003095378 -0.9996506
vn -0.02625176 -0.00309537 -0.9996506
vn -0.02625178 -0.003095378 -0.9996506
vn -0.02625178 -0.003095378 -0.9996506
vn 0.0002076645 0.9999952 -0.003102717
vn 0.0002076302 0.9999952 -0.003102846
vn 0.0002121893 0.9999952 -0.003098075
vn 0.0002123057 0.9999952 -0.003098048
vn 0.0002156422 0.9999952 -0.003100974
vn 0.0002156892 0.9999952 -0.003100625
vn 0.000211135 0.9999952 -0.003102416
vn 0.0002117863 0.9999952 -0.003102614
vn 0.0002034016 0.9999952 -0.003105164
vn 0.0002037378 0.9999952 -0.003104882
vn 0.0002031823 0.9999952 -0.003101991
vn 0.0002034134 0.9999952 -0.003101649
vn 0.0002052388 0.9999952 -0.003097775
vn 0.0002052102 0.9999952 -0.003097781
vn 0.000207613 0.9999952 -0.003104762
vn 0.0002077006 0.9999952 -0.003104744
vn -0.9996552 0.0002835216 0.02625267
vn -0.9996552 0.0002835225 0.02625275
vn -0.9999986 0.0002077241 0.001718492
vn -0.9999986 0.0002077509 0.001718327
vn -0.9944535 0.00052481 0.1051753
vn -0.9944535 0.0005247844 0.1051755
vn -0.9927207 0.0005729381 0.1204386
vn -0.9927207 0.0005729381 0.1204386
vn -0.9992919 0.0003205966 0.03762542
vn -0.9992919 0.0003205677 0.03762547
vn -0.9939703 -0.0001365163 -0.1096497
vn -0.9939704 -0.0001365666 -0.1096492
vn -0.9852296 -0.0003294302 -0.1712383
vn -0.9852296 -0.0003294007 -0.1712383
vn -0.9996554 0.0002831006 0.0262509
vn -0.9996554 0.000283041 0.0262509
vn -0.000204369 -0.9999952 0.003104842
vn -0.0002046065 -0.9999952 0.003104812
vn -0.0002095581 -0.9999952 0.003099739
vn -0.0002095683 -0.9999952 0.003099787
vn -0.0002045094 -0.9999952 0.00309907
vn -0.0002042251 -0.9999952 0.003099307
vn -0.0002040235 -0.9999952 0.003102504
vn -0.0002036642 -0.9999952 0.003102395
vn -0.0002052046 -0.9999952 0.003101902
vn -0.0002050374 -0.9999952 0.003101833
vn -0.0002047962 -0.9999952 0.003104272
vn -0.0002048181 -0.9999952 0.003104088
vn -0.0002052591 -0.9999952 0.003106299
vn -0.0002052591 -0.9999952 0.003106299
vn -0.0002004733 -0.9999952 0.003105291
vn -0.0002004444 -0.9999952 0.003105298
vn 0.02625223 0.003088984 0.9996506
vn 0.02625222 0.003088986 0.9996506
vn 0.02625224 0.003088978 0.9996506
vn 0.02625223 0.003088993 0.9996506
vn 0.9993487 -0.0003327415 -0.03608242
vn 0.9993487 -0.000332742 -0.03608245
vn 0.9993487 -0.0003326824 -0.03608245
vn 0.9993487 -0.0003326814 -0.0360824
vn -0.0194692 0.003105631 0.9998056
vn 0.07191757 0.003079426 0.9974058
vn 0.07191769 0.003079433 0.9974058
vn -0.01946875 0.003105631 0.9998056
vn -0.1722616 0.003090895 0.9850464
vn -0.1722613 0.0030909 0.9850464
vn 0.2237262 0.00297815 0.9746474
vn 0.2237267 0.002978131 0.9746473
vn -0.2946353 0.003024646 0.9556051
vn -0.2946353 0.00302465 0.9556051
vn 0.3443849 0.002843299 0.9388242
vn 0.3443849 0.002843299 0.9388242
vn -0.1698414 -0.003022061 -0.9854668
vn 0.1178872 -0.003104289 -0.9930221
vn 0.1178871 -0.00310428 -0.9930221
vn -0.1698425 -0.003022042 -0.9854666
vn 0.3770118 -0.002951228 -0.9262038
vn 0.3770122 -0.002951226 -0.9262035
vn -0.4251084 -0.00272116 -0.9051383
vn -0.4251088 -0.002721129 -0.9051381
vn 0.4746606 -0.002829611 -0.8801644
vn 0.4746606 -0.002829619 -0.8801644
vn -0.5202064 -0.002543363 -0.8540369
vn -0.5202064 -0.002543393 -0.8540369
vn -0.06845693 0.9976533 -0.001286628
vn -0.05780738 0.9983265 -0.001568816
vn 0.05822263 0.998293 -0.004620074
vn 0.0688722 0.9976135 -0.004897988
vn -0.1533389 0.9881734 0.0007416011
vn -0.1568596 0.9876205 0.000745017
vn -0.1584176 0.9873719 0.0007465333
vn 0.1588087 0.9872802 -0.007589635
vn 0.153738 0.9880845 -0.007329817
vn 0.1692011 0.9855481 -0.008122194
vn 0.1692011 0.9855481 -0.008122198
vn -0.1688276 0.9856452 0.0007566214
vn -0.1688277 0.9856452 0.0007566138
vn 0.1533341 -0.9881737 -0.00120024
vn 0.05780992 -0.9983264 0.001569197
vn 0.06846121 -0.9976529 0.001287233
vn 0.1568483 -0.9876217 -0.001382973
vn 0.1584039 -0.9873733 -0.001463898
vn -0.05822439 -0.9982929 0.004617134
vn -0.0688737 -0.9976134 0.004894705
vn -0.1537489 -0.9880861 0.006866088
vn -0.1588253 -0.9872828 0.006868917
vn -0.1692298 -0.9855526 0.006874195
vn -0.1692298 -0.9855526 0.006874186
vn 0.1687944 -0.9856493 -0.002004799
vn 0.1687944 -0.9856493 -0.002004795
vn -0.9998654 0.0002486107 0.01640522
vn -0.9998654 0.0002486105 0.01640522
vn -0.9998654 0.0002486105 0.01640522
vn -0.9998654 0.0002485809 0.01640522
g merge3d_element_arms_4_0
f 3/3/3 2/2/2 1/1/1
f 4/4/4 3/3/3 1/1/1
f 1/1/1 2/2/2 5/5/5
f 2/2/2 6/6/6 5/5/5
f 5/5/5 6/6/6 7/7/7
f 6/6/6 8/8/8 7/7/7
f 7/7/7 8/8/8 9/9/9
f 8/8/8 10/10/10 9/9/9
f 9/9/9 10/10/10 11/11/11
f 10/10/10 12/12/12 11/11/11
f 12/12/12 13/13/13 11/11/11
f 13/13/13 14/14/14 11/11/11
f 4/4/4 15/15/15 3/3/3
f 15/15/15 16/16/16 3/3/3
f 19/19/19 18/18/18 17/17/17
f 20/20/20 19/19/19 17/17/17
f 23/23/23 22/22/22 21/21/21
f 24/24/24 23/23/23 21/21/21
f 23/23/23 24/24/24 25/25/25
f 24/24/24 26/26/26 25/25/25
f 25/25/25 26/26/26 27/27/27
f 26/26/26 28/28/28 27/27/27
f 27/27/27 28/28/28 29/29/29
f 28/28/28 30/30/30 29/29/29
f 29/29/29 30/30/30 31/31/31
f 30/30/30 32/32/32 31/31/31
f 32/32/32 33/33/33 31/31/31
f 33/33/33 34/34/34 31/31/31
f 22/22/22 35/35/35 21/21/21
f 35/35/35 36/36/36 21/21/21
f 39/39/39 38/38/38 37/37/37
f 40/40/40 39/39/39 37/37/37
f 37/37/37 38/38/38 41/41/41
f 38/38/38 42/42/42 41/41/41
f 41/41/41 42/42/42 43/43/43
f 42/42/42 44/44/44 43/43/43
f 44/44/44 45/45/45 43/43/43
f 45/45/45 46/46/46 43/43/43
f 46/46/46 45/45/45 47/47/47
f 45/45/45 48/48/48 47/47/47
f 47/47/47 48/48/48 49/49/49
f 48/48/48 50/50/50 49/49/49
f 39/39/39 40/40/40 51/51/51
f 40/40/40 52/52/52 51/51/51
f 55/55/55 54/54/54 53/53/53
f 56/56/56 55/55/55 53/53/53
f 55/55/55 56/56/56 57/57/57
f 56/56/56 58/58/58 57/57/57
f 58/58/58 59/59/59 57/57/57
f 59/59/59 60/60/60 57/57/57
f 61/61/61 60/60/60 59/59/59
f 62/62/62 61/61/61 59/59/59
f 61/61/61 62/62/62 63/63/63
f 62/62/62 64/64/64 63/63/63
f 63/63/63 64/64/64 65/65/65
f 64/64/64 66/66/66 65/65/65
f 54/54/54 67/67/67 53/53/53
f 67/67/67 68/68/68 53/53/53
f 71/71/71 70/70/70 69/69/69
f 72/72/72 71/71/71 69/69/69
f 75/75/75 74/74/74 73/73/73
f 76/76/76 75/75/75 73/73/73
f 79/79/79 78/78/78 77/77/77
f 80/80/80 79/79/79 77/77/77
f 81/81/81 80/80/80 77/77/77
f 82/82/82 81/81/81 77/77/77
f 83/83/83 78/78/78 79/79/79
f 84/84/84 83/83/83 79/79/79
f 82/82/82 85/85/85 81/81/81
f 85/85/85 86/86/86 81/81/81
f 83/83/83 84/84/84 87/87/87
f 88/88/88 83/83/83 87/87/87
f 91/91/91 90/90/90 89/89/89
f 92/92/92 91/91/91 89/89/89
f 93/93/93 90/90/90 91/91/91
f 94/94/94 93/93/93 91/91/91
f 95/95/95 92/92/92 89/89/89
f 96/96/96 95/95/95 89/89/89
f 93/93/93 94/94/94 97/97/97
f 98/98/98 93/93/93 97/97/97
f 96/96/96 99/99/99 95/95/95
f 99/99/99 100/100/100 95/95/95
f 103/103/103 102/102/102 101/101/101
f 104/104/104 103/103/103 101/101/101
f 101/101/101 102/102/102 105/105/105
f 105/105/105 106/106/106 101/101/101
f 106/106/106 107/107/107 101/101/101
f 104/104/104 108/108/108 103/103/103
f 108/108/108 109/109/109 103/103/103
f 108/108/108 110/110/110 109/109/109
f 110/110/110 111/111/111 109/109/109
f 106/106/106 105/105/105 112/112/112
f 112/112/112 107/107/107 106/106/106
f 112/112/112 113/113/113 107/107/107
f 116/116/116 115/115/115 114/114/114
f 114/114/114 117/117/117 116/116/116
f 117/117/117 118/118/118 116/116/116
f 119/119/119 115/115/115 116/116/116
f 120/120/120 119/119/119 116/116/116
f 121/121/121 119/119/119 120/120/120
f 122/122/122 121/121/121 120/120/120
f 122/122/122 123/123/123 121/121/121
f 123/123/123 124/124/124 121/121/121
f 117/117/117 114/114/114 125/125/125
f 125/125/125 118/118/118 117/117/117
f 125/125/125 126/126/126 118/118/118
f 129/129/129 128/128/128 127/127/127
f 130/130/130 129/129/129 127/127/127
