g merge2d_element_number_7
v -0.3236426 0.4428791 -0.1220326
v -0.3236426 0.272541 -0.1220326
v 0.3236421 0.4428791 -0.1220326
v 0.06228012 0.272541 -0.1220326
v 0.3236421 0.263492 -0.1220326
v -0.02342146 -0.4428792 -0.1220326
v -0.2895749 -0.4428791 -0.1220326
v -0.3236426 0.4428791 0.1220327
v 0.3236421 0.4428791 0.1220327
v -0.3236426 0.272541 0.1220327
v 0.06228012 0.272541 0.1220327
v 0.3236421 0.263492 0.1220327
v -0.02342146 -0.4428792 0.1220326
v -0.2895749 -0.4428791 0.1220327
v -0.3236426 0.4428791 0.1220327
v -0.3236426 0.272541 0.1220327
v -0.3236426 0.272541 -0.1220326
v -0.3236426 0.4428791 -0.1220326
v 0.3236421 0.4428791 0.1220327
v -0.3236426 0.4428791 0.1220327
v -0.3236426 0.4428791 -0.1220326
v 0.3236421 0.4428791 -0.1220326
v 0.06228012 0.272541 0.1220327
v -0.2895749 -0.4428791 0.1220327
v -0.2895749 -0.4428791 -0.1220326
v 0.06228012 0.272541 -0.1220326
v -0.2895749 -0.4428791 0.1220327
v -0.02342146 -0.4428792 0.1220326
v -0.02342146 -0.4428792 -0.1220326
v -0.2895749 -0.4428791 -0.1220326
v -0.02342146 -0.4428792 0.1220326
v 0.3236421 0.263492 0.1220327
v 0.3236421 0.263492 -0.1220326
v -0.02342146 -0.4428792 -0.1220326
v 0.3236421 0.263492 0.1220327
v 0.3236421 0.4428791 0.1220327
v 0.3236421 0.4428791 -0.1220326
v 0.3236421 0.263492 -0.1220326
v -0.3236426 0.272541 0.1220327
v 0.06228012 0.272541 0.1220327
v 0.06228012 0.272541 -0.1220326
v -0.3236426 0.272541 -0.1220326
vt 0.9833053 0.7413087
vt 0.9833053 0.703293
vt 0.8388463 0.7413087
vt 0.8971764 0.703293
vt 0.8388463 0.7012737
vt 0.9163027 0.543627
vt 0.9757026 0.543627
vt 0.6799409 0.7413087
vt 0.8243999 0.7413087
vt 0.6799409 0.703293
vt 0.7660699 0.703293
vt 0.8243999 0.7012737
vt 0.7469436 0.543627
vt 0.6875436 0.543627
vt 0.6334961 0.7838722
vt 0.671512 0.7838724
vt 0.671512 0.7294024
vt 0.6334962 0.7294024
vt 0.4890362 0.7838722
vt 0.6334961 0.7838722
vt 0.6334962 0.7294024
vt 0.4890363 0.7294024
vt 0.8058019 0.3762459
vt 0.9837331 0.3762459
vt 0.9837331 0.3217759
vt 0.8058019 0.3217759
vt 0.7100292 0.4506329
vt 0.7694292 0.4506329
vt 0.7694292 0.3961629
vt 0.7100292 0.3961629
vt 0.7694292 0.4506329
vt 0.9450768 0.4506329
vt 0.9450768 0.3961629
vt 0.7694292 0.3961629
vt 0.9450768 0.4506329
vt 0.985112 0.4506329
vt 0.985112 0.3961629
vt 0.9450768 0.3961629
vt 0.719673 0.3762459
vt 0.8058019 0.3762459
vt 0.8058019 0.3217759
vt 0.719673 0.3217759
vn 0 0 -1
vn 0 0 -1
vn 0 0 -1
vn 0 0 -1
vn 0 0 -1
vn 0 0 -1
vn 0 0 -1
vn 0 0 1
vn 0 0 1
vn 0 0 1
vn 1.92326E-07 0 1
vn 0 0 1
vn 1.92326E-07 0 1
vn 1.92326E-07 0 1
vn -1 2.21054E-07 0
vn -1 2.21054E-07 0
vn -1 2.21054E-07 0
vn -1 2.21054E-07 0
vn 0 1 0
vn 0 1 0
vn 0 1 0
vn 0 1 0
vn -0.8973455 0.4413287 0
vn -0.8973455 0.4413287 0
vn -0.8973455 0.4413287 0
vn -0.8973455 0.4413287 0
vn -2.86654E-07 -1 0
vn -2.86654E-07 -1 0
vn -2.866541E-07 -1 0
vn -2.866541E-07 -1 0
vn 0.897517 -0.4409798 0
vn 0.897517 -0.4409798 0
vn 0.897517 -0.4409798 0
vn 0.897517 -0.4409798 0
vn 1 0 0
vn 1 0 0
vn 1 0 0
vn 1 0 0
vn 0 -1 0
vn 0 -1 0
vn 0 -1 0
vn 0 -1 0
g merge2d_element_number_7_0
f 3/3/3 2/2/2 1/1/1
f 4/4/4 2/2/2 3/3/3
f 5/5/5 4/4/4 3/3/3
f 5/5/5 6/6/6 4/4/4
f 6/6/6 7/7/7 4/4/4
f 10/10/10 9/9/9 8/8/8
f 10/10/10 11/11/11 9/9/9
f 11/11/11 12/12/12 9/9/9
f 13/13/13 12/12/12 11/11/11
f 14/14/14 13/13/13 11/11/11
f 17/17/17 16/16/16 15/15/15
f 18/18/18 17/17/17 15/15/15
f 21/21/21 20/20/20 19/19/19
f 22/22/22 21/21/21 19/19/19
f 25/25/25 24/24/24 23/23/23
f 26/26/26 25/25/25 23/23/23
f 29/29/29 28/28/28 27/27/27
f 30/30/30 29/29/29 27/27/27
f 33/33/33 32/32/32 31/31/31
f 34/34/34 33/33/33 31/31/31
f 37/37/37 36/36/36 35/35/35
f 38/38/38 37/37/37 35/35/35
f 41/41/41 40/40/40 39/39/39
f 42/42/42 41/41/41 39/39/39
