g merge2d_element_text_3
v -0.125441 -0.4101236 -0.1220326
v -0.05552032 -0.2133909 -0.1220327
v -0.2102023 -0.3635463 -0.1220326
v -0.2929637 -0.2832698 -0.1220326
v -0.1217715 -0.1097177 -0.1220326
v -0.3400364 -0.2014485 -0.1220326
v -0.3641194 -0.1209248 -0.1220326
v -0.0421646 -0.4335301 -0.1220326
v 0.04111265 -0.4425181 -0.1220326
v 0.04111265 -0.264523 -0.1220326
v 0.1243909 -0.4416767 -0.1220326
v 0.1162271 -0.2724673 -0.1220326
v 0.2076645 -0.2554193 -0.1220326
v 0.3011334 -0.208136 -0.1220326
v 0.2076763 -0.4290249 -0.1220326
v 0.2909326 -0.4048538 -0.1220326
v 0.3742182 -0.3700927 -0.1220326
v 0.3742182 -0.1655586 -0.1220326
v -0.3742186 -0.04040285 -0.1220327
v -0.3739939 0.04012302 -0.1220327
v -0.1353451 -0.04040672 -0.1220327
v -0.1349222 0.04012302 -0.1220327
v -0.3629026 0.1206408 -0.1220327
v -0.12129 0.107571 -0.1220327
v -0.3371942 0.2011443 -0.1220327
v -0.2911962 0.2806414 -0.1220326
v -0.2085607 0.3620358 -0.1220326
v -0.05538939 0.2130029 -0.1220326
v -0.1253741 0.4081962 -0.1220326
v -0.04216094 0.4327508 -0.1220326
v 0.04111082 0.2654343 -0.1220326
v 0.05462768 0.4425181 -0.1220326
v 0.1243927 0.4410564 -0.1220326
v 0.1154278 0.272146 -0.1220327
v 0.2076645 0.2537219 -0.1220326
v 0.2076654 0.4304164 -0.1220326
v 0.2909427 0.4071113 -0.1220326
v 0.290939 0.2119787 -0.1220326
v 0.3742182 0.1543356 -0.1220327
v 0.3742182 0.3719434 -0.1220326
v -0.125441 -0.4101236 0.1220327
v -0.2102023 -0.3635463 0.1220326
v -0.05552032 -0.2133908 0.1220327
v -0.2929637 -0.2832698 0.1220327
v -0.1217715 -0.1097176 0.1220327
v -0.3400364 -0.2014485 0.1220327
v -0.3641194 -0.1209248 0.1220327
v -0.0421646 -0.4335301 0.1220326
v 0.04111265 -0.4425181 0.1220327
v 0.04111265 -0.264523 0.1220326
v 0.1243909 -0.4416767 0.1220327
v 0.1162271 -0.2724673 0.1220326
v 0.2076645 -0.2554193 0.1220326
v 0.3011334 -0.208136 0.1220326
v 0.2076763 -0.4290249 0.1220326
v 0.2909326 -0.4048538 0.1220327
v 0.3742182 -0.3700927 0.1220326
v 0.3742182 -0.1655586 0.1220327
v -0.3742186 -0.04040284 0.1220327
v -0.3739939 0.04012303 0.1220327
v -0.1353451 -0.04040672 0.1220327
v -0.1349222 0.04012303 0.1220327
v -0.3629026 0.1206408 0.1220327
v -0.12129 0.1075711 0.1220326
v -0.3371942 0.2011443 0.1220326
v -0.2911962 0.2806414 0.1220326
v -0.2085607 0.3620358 0.1220326
v -0.05538939 0.2130029 0.1220326
v -0.1253741 0.4081962 0.1220326
v -0.04216094 0.4327508 0.1220326
v 0.04111082 0.2654343 0.1220326
v 0.05462768 0.4425181 0.1220326
v 0.1243927 0.4410564 0.1220326
v 0.1154278 0.272146 0.1220326
v 0.2076645 0.2537219 0.1220326
v 0.2076654 0.4304164 0.1220326
v 0.2909427 0.4071113 0.1220326
v 0.290939 0.2119787 0.1220326
v 0.3742182 0.1543356 0.1220326
v 0.3742182 0.3719434 0.1220326
v -0.2102023 -0.3635463 0.1220326
v -0.125441 -0.4101236 0.1220327
v -0.125441 -0.4101236 -0.1220326
v -0.2102023 -0.3635463 -0.1220326
v -0.2929637 -0.2832698 0.1220327
v -0.2929637 -0.2832698 -0.1220326
v -0.3400364 -0.2014485 0.1220327
v -0.3400364 -0.2014485 -0.1220326
v -0.3641194 -0.1209248 0.1220327
v -0.3641194 -0.1209248 -0.1220326
v -0.0421646 -0.4335301 -0.1220326
v -0.0421646 -0.4335301 0.1220326
v 0.04111265 -0.4425181 -0.1220326
v 0.04111265 -0.4425181 0.1220327
v 0.1243909 -0.4416767 -0.1220326
v 0.1243909 -0.4416767 0.1220327
v 0.2076763 -0.4290249 -0.1220326
v 0.2076763 -0.4290249 0.1220326
v 0.2909326 -0.4048538 -0.1220326
v 0.2909326 -0.4048538 0.1220327
v 0.3742182 -0.3700927 -0.1220326
v 0.3742182 -0.3700927 0.1220326
v -0.3742186 -0.04040284 0.1220327
v -0.3742186 -0.04040285 -0.1220327
v -0.3739939 0.04012303 0.1220327
v -0.3739939 0.04012302 -0.1220327
v -0.3629026 0.1206408 0.1220327
v -0.3629026 0.1206408 -0.1220327
v -0.3371942 0.2011443 0.1220326
v -0.3371942 0.2011443 -0.1220327
v -0.2911962 0.2806414 0.1220326
v -0.2911962 0.2806414 -0.1220326
v -0.2085607 0.3620358 0.1220326
v -0.2085607 0.3620358 -0.1220326
v -0.1253741 0.4081962 0.1220326
v -0.1253741 0.4081962 -0.1220326
v -0.04216094 0.4327508 0.1220326
v -0.04216094 0.4327508 -0.1220326
v 0.05462768 0.4425181 0.1220326
v 0.05462768 0.4425181 -0.1220326
v 0.1243927 0.4410564 0.1220326
v 0.1243927 0.4410564 -0.1220326
v 0.2076654 0.4304164 0.1220326
v 0.2076654 0.4304164 -0.1220326
v 0.2909427 0.4071113 0.1220326
v 0.2909427 0.4071113 -0.1220326
v 0.3742182 0.3719434 0.1220326
v 0.3742182 0.3719434 -0.1220326
v -0.1217715 -0.1097176 0.1220327
v -0.1353451 -0.04040672 0.1220327
v -0.1353451 -0.04040672 -0.1220327
v -0.1217715 -0.1097177 -0.1220326
v -0.05552032 -0.2133908 0.1220327
v -0.05552032 -0.2133909 -0.1220327
v 0.04111265 -0.264523 0.1220326
v 0.04111265 -0.264523 -0.1220326
v -0.1349222 0.04012302 -0.1220327
v -0.1349222 0.04012303 0.1220327
v -0.12129 0.107571 -0.1220327
v -0.12129 0.1075711 0.1220326
v -0.05538939 0.2130029 -0.1220326
v -0.05538939 0.2130029 0.1220326
v 0.04111082 0.2654343 -0.1220326
v 0.04111082 0.2654343 0.1220326
v 0.1154278 0.272146 -0.1220327
v 0.1154278 0.272146 0.1220326
v 0.2076645 0.2537219 -0.1220326
v 0.2076645 0.2537219 0.1220326
v 0.290939 0.2119787 -0.1220326
v 0.290939 0.2119787 0.1220326
v 0.3742182 0.1543356 -0.1220327
v 0.3742182 0.1543356 0.1220326
v 0.3742182 -0.3700927 0.1220326
v 0.3742182 -0.1655586 0.1220327
v 0.3742182 -0.1655586 -0.1220326
v 0.3742182 -0.3700927 -0.1220326
v 0.3742182 -0.1655586 0.1220327
v 0.3011334 -0.208136 0.1220326
v 0.3011334 -0.208136 -0.1220326
v 0.3742182 -0.1655586 -0.1220326
v 0.2076645 -0.2554193 -0.1220326
v 0.2076645 -0.2554193 0.1220326
v 0.1162271 -0.2724673 -0.1220326
v 0.1162271 -0.2724673 0.1220326
v 0.3742182 0.1543356 0.1220326
v 0.3742182 0.3719434 0.1220326
v 0.3742182 0.3719434 -0.1220326
v 0.3742182 0.1543356 -0.1220327
vt 0.3047004 0.411675
vt 0.2900736 0.4528307
vt 0.3224322 0.4214192
vt 0.3397455 0.4382122
vt 0.3039332 0.4745184
vt 0.3495928 0.4553289
vt 0.3546306 0.4721738
vt 0.2872796 0.4067788
vt 0.2698587 0.4048988
vt 0.2698587 0.4421341
vt 0.2524371 0.405075
vt 0.2541454 0.4404724
vt 0.2350169 0.4440389
vt 0.2154638 0.45393
vt 0.2350146 0.4077215
vt 0.2175976 0.412778
vt 0.2001752 0.4200497
vt 0.2001752 0.4628369
vt 0.3567432 0.4890187
vt 0.3566965 0.5058643
vt 0.3067724 0.4890179
vt 0.3066843 0.5058643
vt 0.354376 0.5227085
vt 0.3038324 0.5199739
vt 0.348998 0.5395489
vt 0.3393758 0.5561792
vt 0.322089 0.5732063
vt 0.2900465 0.5420297
vt 0.3046869 0.5828631
vt 0.2872788 0.5879995
vt 0.2698587 0.5529981
vt 0.2670315 0.5900429
vt 0.2524371 0.5897372
vt 0.2543125 0.5544023
vt 0.2350169 0.5505481
vt 0.2350169 0.5875117
vt 0.2175953 0.5826365
vt 0.2175961 0.5418159
vt 0.2001752 0.5297572
vt 0.2001752 0.5752791
vt 0.0799931 0.411675
vt 0.06226119 0.4214192
vt 0.09461996 0.4528307
vt 0.04494801 0.4382122
vt 0.08076033 0.4745184
vt 0.03510066 0.4553289
vt 0.03006294 0.4721738
vt 0.09741402 0.4067788
vt 0.1148349 0.4048988
vt 0.1148349 0.4421341
vt 0.1322565 0.405075
vt 0.1305481 0.4404724
vt 0.1496766 0.4440389
vt 0.1692297 0.45393
vt 0.1496789 0.4077215
vt 0.167096 0.412778
vt 0.1845184 0.4200497
vt 0.1845184 0.4628369
vt 0.02795025 0.4890187
vt 0.02799698 0.5058643
vt 0.07792106 0.4890179
vt 0.07800922 0.5058643
vt 0.03031739 0.5227085
vt 0.08086124 0.5199739
vt 0.03569546 0.5395489
vt 0.04531768 0.5561792
vt 0.06260464 0.5732063
vt 0.09464702 0.5420297
vt 0.08000669 0.5828631
vt 0.0974147 0.5879995
vt 0.1148349 0.5529981
vt 0.1176621 0.5900429
vt 0.1322565 0.5897372
vt 0.130381 0.5544023
vt 0.1496766 0.5505481
vt 0.1496766 0.5875117
vt 0.1670983 0.5826365
vt 0.1670975 0.5418159
vt 0.1845184 0.5297572
vt 0.1845184 0.5752791
vt 0.7358856 0.6292472
vt 0.7560869 0.6292524
vt 0.7560946 0.5781952
vt 0.7358968 0.5781907
vt 0.7117991 0.6292396
vt 0.7118143 0.5781832
vt 0.692088 0.6292321
vt 0.692106 0.5781749
vt 0.6745421 0.6292245
vt 0.6745609 0.5781673
vt 0.7741576 0.5781983
vt 0.7741561 0.6292555
vt 0.7916508 0.5781989
vt 0.7916561 0.6292562
vt 0.8090469 0.5781974
vt 0.8090611 0.6292539
vt 0.8266469 0.5781915
vt 0.8266732 0.6292486
vt 0.8447634 0.5781801
vt 0.8448056 0.6292374
vt 0.8636284 0.5781621
vt 0.8636872 0.6292193
vt 0.6576023 0.629217
vt 0.6576197 0.5781598
vt 0.6407928 0.6292103
vt 0.6408064 0.5781531
vt 0.6238259 0.6292043
vt 0.6238312 0.578147
vt 0.60618 0.6292012
vt 0.6061754 0.578144
vt 0.5869972 0.6292027
vt 0.5869777 0.5781462
vt 0.562761 0.629214
vt 0.5627219 0.5781575
vt 0.5428841 0.6292313
vt 0.5428231 0.5781749
vt 0.5247465 0.6292555
vt 0.5246825 0.5781989
vt 0.5043938 0.6292758
vt 0.5043471 0.5782185
vt 0.4897956 0.6292848
vt 0.4897586 0.5782275
vt 0.4722369 0.6292953
vt 0.472197 0.5782388
vt 0.4541497 0.6293089
vt 0.454103 0.5782517
vt 0.4352441 0.6293262
vt 0.4351853 0.5782697
vt 0.5138021 0.7023429
vt 0.5285795 0.7023489
vt 0.5285984 0.6512924
vt 0.513821 0.6512856
vt 0.4880609 0.7023338
vt 0.488082 0.6512766
vt 0.4651836 0.7023218
vt 0.4652137 0.6512646
vt 0.545447 0.651297
vt 0.5454304 0.7023541
vt 0.5598442 0.6513007
vt 0.5598292 0.7023579
vt 0.5858566 0.6513067
vt 0.585843 0.7023633
vt 0.6088355 0.651312
vt 0.6088189 0.7023692
vt 0.6244516 0.6513173
vt 0.6244268 0.7023745
vt 0.644135 0.6513286
vt 0.6440988 0.7023858
vt 0.6636279 0.6513444
vt 0.6635812 0.7024016
vt 0.6848193 0.6513662
vt 0.6847659 0.7024235
vt 0.8636872 0.6292193
vt 0.9064766 0.6291636
vt 0.9064096 0.5781063
vt 0.8636284 0.5781621
vt 0.390296 0.702248
vt 0.4079932 0.7022706
vt 0.4080534 0.6512134
vt 0.3903622 0.6511908
vt 0.4299616 0.6512374
vt 0.4299127 0.7022939
vt 0.4494154 0.6512541
vt 0.4493762 0.7023112
vt 0.3897245 0.6293842
vt 0.4352441 0.6293262
vt 0.4351853 0.5782697
vt 0.3896597 0.5783269
vn 0 0 -1
vn 0 0 -1
vn 0 0 -1
vn 0 0 -1
vn -1.975518E-07 -2.946593E-07 -1
vn 0 0 -1
vn 0 0 -1
vn 0 0 -1
vn 0 0 -1
vn 0 0 -1
vn 0 0 -1
vn 0 0 -1
vn 0 0 -1
vn 0 0 -1
vn 0 0 -1
vn 0 0 -1
vn 0 0 -1
vn 0 0 -1
vn 1.50007E-07 0 -1
vn -1.975518E-07 -2.946593E-07 -1
vn -1.975518E-07 -2.946593E-07 -1
vn 0 0 -1
vn 0 0 -1
vn 0 0 -1
vn 0 0 -1
vn 1.421541E-07 1.91823E-07 -1
vn 0 1.124935E-07 -1
vn 0 1.124935E-07 -1
vn 0 0 -1
vn 0 0 -1
vn 0 0 -1
vn 0 0 -1
vn 0 0 -1
vn -1.068736E-07 1.271519E-07 -1
vn 2.422816E-07 1.008761E-07 -1
vn -1.555555E-07 0 -1
vn 0 0 -1
vn 0 0 -1
vn 0 0 -1
vn 0 0 -1
vn -3.062164E-07 2.149281E-07 1
vn -3.062164E-07 2.149281E-07 1
vn -3.062164E-07 2.149282E-07 1
vn 0 0 1
vn 0 0 1
vn 0 0 1
vn 0 0 1
vn -6.702537E-07 -1.15188E-07 1
vn -2.058782E-07 2.143146E-07 1
vn -2.058782E-07 2.143146E-07 1
vn -2.058782E-07 2.143146E-07 1
vn 0 2.234325E-07 1
vn 0 2.234325E-07 1
vn 3.331787E-07 1.739305E-07 1
vn 7.091168E-07 -2.071E-07 1
vn 3.331787E-07 1.739305E-07 1
vn 3.331787E-07 1.739305E-07 1
vn -2.041538E-07 0 1
vn 1.500071E-07 0 1
vn 0 0 1
vn 0 0 1
vn 0 0 1
vn 0 2.081224E-07 1
vn 0 2.081224E-07 1
vn 0 2.081224E-07 1
vn 0 0 1
vn 0 0 1
vn 0 0 1
vn 0 0 1
vn 0 0 1
vn 0 0 1
vn 0 0 1
vn 0 0 1
vn 2.442825E-07 0 1
vn 0 0 1
vn -2.074073E-07 0 1
vn 0 0 1
vn 0 0 1
vn 0 0 1
vn -3.368127E-07 0 1
vn -0.6036841 -0.7972236 0
vn -0.3844659 -0.9231392 0
vn -0.3844659 -0.9231392 0
vn -0.6036841 -0.7972236 0
vn -0.7805027 -0.6251523 0
vn -0.7805027 -0.6251523 0
vn -0.9158885 -0.4014329 0
vn -0.9158885 -0.4014329 0
vn -0.9782082 -0.2076264 0
vn -0.9782082 -0.2076264 0
vn -0.1909217 -0.9816052 0
vn -0.1909218 -0.9816052 0
vn -0.04885412 -0.9988059 0
vn -0.04885411 -0.9988059 0
vn 0.08074506 -0.9967348 0
vn 0.08074503 -0.9967348 0
vn 0.2158895 -0.9764178 2.199267E-07
vn 0.2158895 -0.9764178 2.199267E-07
vn 0.3335886 -0.9427187 1.415574E-07
vn 0.3335886 -0.9427187 1.415575E-07
vn 0.3851697 -0.9228458 0
vn 0.3851697 -0.9228458 0
vn -0.9981256 -0.06119913 0
vn -0.9981256 -0.06119913 0
vn -0.9975404 0.0700936 0
vn -0.9975404 0.0700936 0
vn -0.9748653 0.2227949 0
vn -0.9748653 0.2227949 0
vn -0.9125476 0.4089703 0
vn -0.9125476 0.4089704 0
vn -0.7810575 0.6244591 0
vn -0.7810575 0.6244591 0
vn -0.609709 0.7926253 0
vn -0.609709 0.7926253 0
vn -0.3911176 0.9203408 0
vn -0.3911176 0.9203408 0
vn -0.1873008 0.9823026 0
vn -0.1873008 0.9823026 0
vn -0.04980569 0.9987589 0
vn -0.04980569 0.9987589 0
vn 0.0788308 0.996888 0
vn 0.0788308 0.996888 0
vn 0.1997073 0.9798557 0
vn 0.1997073 0.9798557 0
vn 0.3312565 0.9435407 0
vn 0.3312565 0.9435407 0
vn 0.3890398 0.9212209 0
vn 0.3890398 0.9212209 0
vn 0.9079874 0.4189977 0
vn 0.9961708 0.08742819 0
vn 0.9961708 0.08742818 0
vn 0.9079874 0.4189977 0
vn 0.6889024 0.7248541 -1.112873E-07
vn 0.6889023 0.7248542 -1.112873E-07
vn 0.325268 0.9456219 -1.376896E-07
vn 0.325268 0.9456219 -1.376896E-07
vn 0.9955195 -0.09455617 0
vn 0.9955195 -0.09455618 0
vn 0.9084744 -0.4179405 0
vn 0.9084744 -0.4179404 0
vn 0.6970184 -0.7170533 0
vn 0.6970184 -0.7170533 0
vn 0.3271801 -0.944962 0
vn 0.3271801 -0.944962 0
vn -0.07014862 -0.9975365 -1.123337E-07
vn -0.07014861 -0.9975365 -1.123337E-07
vn -0.3242862 -0.945959 0
vn -0.3242862 -0.945959 0
vn -0.5124247 -0.8587322 0
vn -0.5124247 -0.8587322 0
vn -0.5691318 -0.8222464 0
vn -0.5691317 -0.8222464 0
vn 1 0 0
vn 1 0 0
vn 1 0 0
vn 1 0 0
vn -0.5033829 0.8640634 0
vn -0.4748287 0.8800783 0
vn -0.4748287 0.8800783 0
vn -0.5033829 0.8640634 0
vn -0.3285937 0.9444714 0
vn -0.3285937 0.9444714 0
vn -0.05457852 0.9985095 -1.124445E-07
vn -0.05457851 0.9985095 -1.124445E-07
vn 1 0 0
vn 1 0 0
vn 1 0 0
vn 1 0 0
g merge2d_element_text_3_0
f 3/3/3 2/2/2 1/1/1
f 3/3/3 4/4/4 2/2/2
f 2/2/2 4/4/4 5/5/5
f 5/5/5 4/4/4 6/6/6
f 5/5/5 6/6/6 7/7/7
f 2/2/2 8/8/8 1/1/1
f 9/9/9 8/8/8 2/2/2
f 9/9/9 2/2/2 10/10/10
f 11/11/11 9/9/9 10/10/10
f 10/10/10 12/12/12 11/11/11
f 11/11/11 12/12/12 13/13/13
f 11/11/11 13/13/13 14/14/14
f 15/15/15 11/11/11 14/14/14
f 16/16/16 15/15/15 14/14/14
f 16/16/16 14/14/14 17/17/17
f 14/14/14 18/18/18 17/17/17
f 7/7/7 19/19/19 5/5/5
f 5/5/5 19/19/19 20/20/20
f 5/5/5 20/20/20 21/21/21
f 22/22/22 21/21/21 20/20/20
f 23/23/23 22/22/22 20/20/20
f 24/24/24 22/22/22 23/23/23
f 23/23/23 25/25/25 24/24/24
f 24/24/24 25/25/25 26/26/26
f 24/24/24 26/26/26 27/27/27
f 28/28/28 24/24/24 27/27/27
f 27/27/27 29/29/29 28/28/28
f 29/29/29 30/30/30 28/28/28
f 28/28/28 30/30/30 31/31/31
f 31/31/31 30/30/30 32/32/32
f 31/31/31 32/32/32 33/33/33
f 33/33/33 34/34/34 31/31/31
f 33/33/33 35/35/35 34/34/34
f 35/35/35 33/33/33 36/36/36
f 35/35/35 36/36/36 37/37/37
f 37/37/37 38/38/38 35/35/35
f 37/37/37 39/39/39 38/38/38
f 37/37/37 40/40/40 39/39/39
f 43/43/43 42/42/42 41/41/41
f 44/44/44 42/42/42 43/43/43
f 44/44/44 43/43/43 45/45/45
f 44/44/44 45/45/45 46/46/46
f 46/46/46 45/45/45 47/47/47
f 48/48/48 43/43/43 41/41/41
f 48/48/48 49/49/49 43/43/43
f 43/43/43 49/49/49 50/50/50
f 49/49/49 51/51/51 50/50/50
f 52/52/52 50/50/50 51/51/51
f 52/52/52 51/51/51 53/53/53
f 53/53/53 51/51/51 54/54/54
f 51/51/51 55/55/55 54/54/54
f 55/55/55 56/56/56 54/54/54
f 54/54/54 56/56/56 57/57/57
f 58/58/58 54/54/54 57/57/57
f 59/59/59 47/47/47 45/45/45
f 59/59/59 45/45/45 60/60/60
f 60/60/60 45/45/45 61/61/61
f 61/61/61 62/62/62 60/60/60
f 62/62/62 63/63/63 60/60/60
f 62/62/62 64/64/64 63/63/63
f 65/65/65 63/63/63 64/64/64
f 65/65/65 64/64/64 66/66/66
f 66/66/66 64/64/64 67/67/67
f 64/64/64 68/68/68 67/67/67
f 69/69/69 67/67/67 68/68/68
f 70/70/70 69/69/69 68/68/68
f 70/70/70 68/68/68 71/71/71
f 70/70/70 71/71/71 72/72/72
f 72/72/72 71/71/71 73/73/73
f 74/74/74 73/73/73 71/71/71
f 75/75/75 73/73/73 74/74/74
f 73/73/73 75/75/75 76/76/76
f 76/76/76 75/75/75 77/77/77
f 78/78/78 77/77/77 75/75/75
f 79/79/79 77/77/77 78/78/78
f 80/80/80 77/77/77 79/79/79
f 83/83/83 82/82/82 81/81/81
f 84/84/84 83/83/83 81/81/81
f 84/84/84 81/81/81 85/85/85
f 86/86/86 84/84/84 85/85/85
f 86/86/86 85/85/85 87/87/87
f 88/88/88 86/86/86 87/87/87
f 88/88/88 87/87/87 89/89/89
f 90/90/90 88/88/88 89/89/89
f 83/83/83 91/91/91 82/82/82
f 91/91/91 92/92/92 82/82/82
f 91/91/91 93/93/93 92/92/92
f 93/93/93 94/94/94 92/92/92
f 93/93/93 95/95/95 94/94/94
f 95/95/95 96/96/96 94/94/94
f 95/95/95 97/97/97 96/96/96
f 97/97/97 98/98/98 96/96/96
f 97/97/97 99/99/99 98/98/98
f 99/99/99 100/100/100 98/98/98
f 99/99/99 101/101/101 100/100/100
f 101/101/101 102/102/102 100/100/100
f 90/90/90 89/89/89 103/103/103
f 104/104/104 90/90/90 103/103/103
f 104/104/104 103/103/103 105/105/105
f 106/106/106 104/104/104 105/105/105
f 106/106/106 105/105/105 107/107/107
f 108/108/108 106/106/106 107/107/107
f 108/108/108 107/107/107 109/109/109
f 110/110/110 108/108/108 109/109/109
f 110/110/110 109/109/109 111/111/111
f 112/112/112 110/110/110 111/111/111
f 112/112/112 111/111/111 113/113/113
f 114/114/114 112/112/112 113/113/113
f 114/114/114 113/113/113 115/115/115
f 116/116/116 114/114/114 115/115/115
f 116/116/116 115/115/115 117/117/117
f 118/118/118 116/116/116 117/117/117
f 118/118/118 117/117/117 119/119/119
f 120/120/120 118/118/118 119/119/119
f 120/120/120 119/119/119 121/121/121
f 122/122/122 120/120/120 121/121/121
f 122/122/122 121/121/121 123/123/123
f 124/124/124 122/122/122 123/123/123
f 124/124/124 123/123/123 125/125/125
f 126/126/126 124/124/124 125/125/125
f 126/126/126 125/125/125 127/127/127
f 128/128/128 126/126/126 127/127/127
f 131/131/131 130/130/130 129/129/129
f 132/132/132 131/131/131 129/129/129
f 132/132/132 129/129/129 133/133/133
f 134/134/134 132/132/132 133/133/133
f 134/134/134 133/133/133 135/135/135
f 136/136/136 134/134/134 135/135/135
f 131/131/131 137/137/137 130/130/130
f 137/137/137 138/138/138 130/130/130
f 137/137/137 139/139/139 138/138/138
f 139/139/139 140/140/140 138/138/138
f 139/139/139 141/141/141 140/140/140
f 141/141/141 142/142/142 140/140/140
f 141/141/141 143/143/143 142/142/142
f 143/143/143 144/144/144 142/142/142
f 143/143/143 145/145/145 144/144/144
f 145/145/145 146/146/146 144/144/144
f 145/145/145 147/147/147 146/146/146
f 147/147/147 148/148/148 146/146/146
f 147/147/147 149/149/149 148/148/148
f 149/149/149 150/150/150 148/148/148
f 149/149/149 151/151/151 150/150/150
f 151/151/151 152/152/152 150/150/150
f 155/155/155 154/154/154 153/153/153
f 156/156/156 155/155/155 153/153/153
f 159/159/159 158/158/158 157/157/157
f 160/160/160 159/159/159 157/157/157
f 159/159/159 161/161/161 158/158/158
f 161/161/161 162/162/162 158/158/158
f 161/161/161 163/163/163 162/162/162
f 163/163/163 164/164/164 162/162/162
f 163/163/163 136/136/136 164/164/164
f 136/136/136 135/135/135 164/164/164
f 167/167/167 166/166/166 165/165/165
f 168/168/168 167/167/167 165/165/165
