g merge3d_element_food_2
v 0.403058 0.01174061 0.1467009
v 0.3457299 0.128137 0.1258535
v 0.3679183 0.128156 1.796722E-05
v 0.4289253 0.01176275 4.065037E-07
v 0.328576 0.01172115 0.2757078
v 0.2818416 0.1281203 0.2365111
v 0.2144622 0.0117067 0.3714609
v 0.1839589 0.1281079 0.3186443
v 0.07448177 0.01169902 0.4224091
v 0.06388807 0.1281013 0.3623467
v -0.0744826 0.01169902 0.4224091
v -0.06388807 0.1281013 0.3623467
v -0.2144631 0.0117067 0.3714609
v -0.1839597 0.1281079 0.3186443
v -0.3285762 0.01172115 0.2757078
v -0.2818424 0.1281203 0.2365111
v -0.4030589 0.01174061 0.1467009
v -0.3457305 0.128137 0.1258535
v -0.4289253 0.01176275 4.065037E-07
v -0.3679186 0.128156 1.796722E-05
v -0.4030589 0.01178488 -0.1467009
v -0.3457305 0.128175 -0.1258177
v -0.3285762 0.01180435 -0.2757079
v -0.2818424 0.1281917 -0.2364759
v -0.2144631 0.01181879 -0.3714601
v -0.1839597 0.1282041 -0.3186091
v -0.0744826 0.01182648 -0.4224091
v -0.06388807 0.1282106 -0.3623108
v 0.07448177 0.01182648 -0.4224091
v 0.06388807 0.1282106 -0.3623108
v 0.2144622 0.01181879 -0.3714601
v 0.1839589 0.1282041 -0.3186091
v 0.328576 0.01180435 -0.2757079
v 0.2818416 0.1281917 -0.2364759
v 0.403058 0.01178488 -0.1467009
v 0.3457299 0.128175 -0.1258177
v 0.1882687 0.1829619 -0.1579503
v 0.2309454 0.1829508 -0.08403136
v 0.08789735 0.06878814 -0.07374561
v 0.05134758 0.06280369 -0.08892789
v 0.1228836 0.1829702 -0.212815
v 0.01992452 0.06879406 -0.1129898
v 0.0426767 0.1829746 -0.2420078
v -0.01992453 0.06879406 -0.1129898
v -0.04267795 0.1829746 -0.2420078
v -0.05134677 0.06280369 -0.08892789
v -0.1228844 0.1829702 -0.212815
v -0.08789819 0.06878814 -0.07374561
v -0.1882695 0.1829619 -0.1579503
v -0.1078219 0.06878293 -0.03923513
v -0.2309462 0.1829508 -0.08403136
v -0.1026944 0.06279027 8.105039E-06
v -0.2457676 0.1829381 2.6232E-05
v -0.1078219 0.06877109 0.03925304
v -0.2309462 0.1829254 0.08408372
v -0.08789819 0.06876588 0.07376353
v -0.1882695 0.1829143 0.1580026
v -0.05134677 0.06277686 0.08894338
v -0.1228844 0.182906 0.2128673
v -0.01992453 0.06875996 0.1130077
v -0.04267795 0.1829016 0.2420595
v 0.01992452 0.06875996 0.1130077
v 0.0426767 0.1829016 0.2420595
v 0.05134758 0.06277686 0.08894338
v 0.1228836 0.182906 0.2128673
v 0.08789735 0.06876588 0.07376353
v 0.1882687 0.1829143 0.1580026
v 0.1078219 0.06877109 0.03925304
v 0.2309454 0.1829254 0.08408372
v 0.1026935 0.06279027 8.105039E-06
v 0.2457668 0.1829381 2.6232E-05
v 0.1078219 -0.04525661 0.03923584
v 0.1026935 -0.03926416 -7.292032E-06
v 0.08789735 -0.04526182 0.07374632
v 0.05134758 -0.03927758 0.08892797
v 0.01992452 -0.04526773 0.1129905
v -0.01992453 -0.04526773 0.1129905
v -0.05134677 -0.03927758 0.08892797
v -0.08789819 -0.04526182 0.07374632
v -0.1078219 -0.04525661 0.03923584
v -0.1026944 -0.03926416 -7.292032E-06
v -0.1078219 -0.04524476 -0.03925233
v -0.08789819 -0.04523956 -0.07376283
v -0.05134677 -0.03925074 -0.08894329
v -0.01992453 -0.04523363 -0.1130069
v 0.01992452 -0.04523363 -0.1130069
v 0.05134758 -0.03925074 -0.08894329
v 0.08789735 -0.04523956 -0.07376283
v 0.1078219 -0.04524476 -0.03925233
v 0.1078219 0.06878293 -0.03923513
v 0.1078219 -0.04525661 0.03923584
v 0.2309454 -0.1594249 0.08403207
v 0.2457668 -0.1594122 -2.542019E-05
v 0.1026935 -0.03926416 -7.292032E-06
v 0.3679183 -0.104629 -1.715481E-05
v 0.3457299 -0.104648 0.1258184
v 0.08789735 -0.04526182 0.07374632
v 0.1882687 -0.159436 0.157951
v 0.2818416 -0.1046647 0.236476
v 0.05134758 -0.03927758 0.08892797
v 0.1228836 -0.1594443 0.2128157
v 0.1839589 -0.1046771 0.3186092
v 0.01992452 -0.04526773 0.1129905
v 0.0426767 -0.1594487 0.2420078
v 0.06388807 -0.1046837 0.3623115
v -0.01992453 -0.04526773 0.1129905
v -0.04267795 -0.1594487 0.2420078
v -0.06388807 -0.1046837 0.3623115
v -0.05134677 -0.03927758 0.08892797
v -0.1228844 -0.1594443 0.2128157
v -0.1839597 -0.1046771 0.3186092
v -0.08789819 -0.04526182 0.07374632
v -0.1882695 -0.159436 0.157951
v -0.2818424 -0.1046647 0.236476
v -0.1078219 -0.04525661 0.03923584
v -0.2309462 -0.1594249 0.08403207
v -0.3457305 -0.104648 0.1258184
v -0.1026944 -0.03926416 -7.292032E-06
v -0.2457676 -0.1594122 -2.542019E-05
v -0.3679186 -0.104629 -1.715481E-05
v -0.1078219 -0.04524476 -0.03925233
v -0.2309462 -0.1593995 -0.08408301
v -0.3457305 -0.10461 -0.1258528
v -0.08789819 -0.04523956 -0.07376283
v -0.1882695 -0.1593883 -0.158002
v -0.2818424 -0.1045934 -0.236511
v -0.05134677 -0.03925074 -0.08894329
v -0.1228844 -0.1593801 -0.2128666
v -0.1839597 -0.104581 -0.3186443
v -0.01992453 -0.04523363 -0.1130069
v -0.04267795 -0.1593757 -0.2420595
v -0.06388807 -0.1045744 -0.362346
v 0.01992452 -0.04523363 -0.1130069
v 0.0426767 -0.1593757 -0.2420595
v 0.06388807 -0.1045744 -0.362346
v 0.05134758 -0.03925074 -0.08894329
v 0.1228836 -0.1593801 -0.2128666
v 0.1839589 -0.104581 -0.3186443
v 0.08789735 -0.04523956 -0.07376283
v 0.1882687 -0.1593883 -0.158002
v 0.2818416 -0.1045934 -0.236511
v 0.1078219 -0.04524476 -0.03925233
v 0.2309454 -0.1593995 -0.08408301
v 0.3457299 -0.10461 -0.1258528
v 0.2818416 -0.1045934 -0.236511
v 0.1839589 -0.104581 -0.3186443
v 0.3457299 -0.10461 -0.1258528
v 0.3679183 -0.104629 -1.715481E-05
v 0.3457299 -0.104648 0.1258184
v 0.2818416 -0.1046647 0.236476
v 0.1839589 -0.1046771 0.3186092
v 0.06388807 -0.1046837 0.3623115
v -0.06388807 -0.1046837 0.3623115
v -0.1839597 -0.1046771 0.3186092
v -0.2818424 -0.1046647 0.236476
v -0.3457305 -0.104648 0.1258184
v -0.3679186 -0.104629 -1.715481E-05
v -0.3457305 -0.10461 -0.1258528
v -0.2818424 -0.1045934 -0.236511
v -0.1839597 -0.104581 -0.3186443
v -0.06388807 -0.1045744 -0.362346
v 0.06388807 -0.1045744 -0.362346
vt 0.2997531 0.9058659
vt 0.3220297 0.8930168
vt 0.3106084 0.8615519
vt 0.2852872 0.8660138
vt 0.3269495 0.9383779
vt 0.343483 0.918696
vt 0.363628 0.9596075
vt 0.3724362 0.9354334
vt 0.4053496 0.9669835
vt 0.4053496 0.9412507
vt 0.447071 0.9596075
vt 0.4382625 0.9354334
vt 0.4837496 0.9383779
vt 0.4672155 0.918696
vt 0.5109454 0.9058659
vt 0.488669 0.8930168
vt 0.5254116 0.8660138
vt 0.5000904 0.8615519
vt 0.525422 0.8236109
vt 0.5001186 0.8280622
vt 0.5109529 0.7837535
vt 0.4886768 0.7965946
vt 0.4837542 0.7512391
vt 0.4672079 0.7709284
vt 0.4470761 0.7299934
vt 0.4382757 0.7541449
vt 0.4053496 0.7226258
vt 0.4053496 0.7483509
vt 0.3636227 0.7299934
vt 0.3724232 0.7541449
vt 0.3269441 0.7512391
vt 0.3434909 0.7709284
vt 0.2997455 0.7837535
vt 0.3220221 0.7965946
vt 0.2852768 0.8236109
vt 0.3105801 0.8280622
vt 0.3439385 0.8092527
vt 0.3354414 0.8324397
vt 0.3732333 0.8262316
vt 0.3815993 0.8162401
vt 0.3597884 0.790309
vt 0.393514 0.8121279
vt 0.3810744 0.7779001
vt 0.4053496 0.8076142
vt 0.4053496 0.7736931
vt 0.4171847 0.8121279
vt 0.429624 0.7779001
vt 0.4290996 0.8162401
vt 0.4509104 0.790309
vt 0.4374656 0.8262316
vt 0.4667602 0.8092527
vt 0.4394558 0.8387506
vt 0.4752572 0.8324397
vt 0.4418553 0.8512132
vt 0.4751775 0.8571441
vt 0.4373857 0.8634883
vt 0.4667371 0.8803822
vt 0.4275717 0.8714479
vt 0.4509644 0.8993411
vt 0.4180564 0.8797212
vt 0.429606 0.9116108
vt 0.4053496 0.881969
vt 0.4053496 0.9158983
vt 0.3926422 0.8797212
vt 0.3810927 0.9116108
vt 0.3831268 0.8714479
vt 0.3597341 0.8993411
vt 0.3733131 0.8634883
vt 0.3439615 0.8803822
vt 0.3688434 0.8512132
vt 0.3355209 0.8571441
vt 0.3890677 0.8538801
vt 0.3870229 0.8481735
vt 0.3936273 0.8586665
vt 0.3990926 0.8623725
vt 0.4053496 0.8634496
vt 0.4116063 0.8623725
vt 0.4170715 0.8586665
vt 0.421631 0.8538801
vt 0.4236755 0.8481735
vt 0.4232103 0.8415897
vt 0.4213714 0.835248
vt 0.4174753 0.830606
vt 0.4115421 0.8276997
vt 0.4053496 0.826126
vt 0.3991565 0.8276997
vt 0.3932233 0.830606
vt 0.3893272 0.835248
vt 0.3874885 0.8415897
vt 0.3712429 0.8387506
vt 0.6752005 0.9027334
vt 0.7105185 0.9231511
vt 0.7176602 0.9035309
vt 0.677484 0.8964661
vt 0.7485934 0.9089857
vt 0.7377198 0.9388563
vt 0.6688815 0.9055188
vt 0.6970888 0.9391368
vt 0.7172821 0.9632035
vt 0.6650394 0.9112616
vt 0.6790145 0.9495858
vt 0.6897594 0.9791019
vt 0.6584534 0.9124188
vt 0.6584534 0.953212
vt 0.6584534 0.9846235
vt 0.6518668 0.9112616
vt 0.6378921 0.9495858
vt 0.6271473 0.9791019
vt 0.6480249 0.9055188
vt 0.6198177 0.9391368
vt 0.5996242 0.9632035
vt 0.6417061 0.9027334
vt 0.6063881 0.9231511
vt 0.5791867 0.9388563
vt 0.6394224 0.8964661
vt 0.5992464 0.9035309
vt 0.5683133 0.9089857
vt 0.6424723 0.8902735
vt 0.5992566 0.8826509
vt 0.5683159 0.8771986
vt 0.6417265 0.8834069
vt 0.6063881 0.8630286
vt 0.5791867 0.8473224
vt 0.6460134 0.8782992
vt 0.6198101 0.8470318
vt 0.5996217 0.8229707
vt 0.6529085 0.8778391
vt 0.6378974 0.8366008
vt 0.62715 0.8070795
vt 0.6584534 0.87376
vt 0.6584534 0.8329646
vt 0.6584534 0.8015528
vt 0.6639981 0.8778391
vt 0.6790094 0.8366008
vt 0.6897565 0.8070795
vt 0.6708926 0.8782992
vt 0.6970963 0.8470318
vt 0.7172844 0.8229707
vt 0.6751798 0.8834069
vt 0.7105185 0.8630286
vt 0.7377198 0.8473224
vt 0.6744338 0.8902735
vt 0.7176498 0.8826509
vt 0.7485907 0.8771986
vt 0.2756865 0.769897
vt 0.3090757 0.7299934
vt 0.2579364 0.8188018
vt 0.2579442 0.8708256
vt 0.2756969 0.9197272
vt 0.3090838 0.9596258
vt 0.354115 0.9856905
vt 0.4053496 0.9947455
vt 0.4565838 0.9856905
vt 0.501615 0.9596258
vt 0.5350018 0.9197272
vt 0.5527545 0.8708256
vt 0.5527622 0.8188018
vt 0.5350122 0.769897
vt 0.5016229 0.7299934
vt 0.4565864 0.7039186
vt 0.4053496 0.6948661
vt 0.3541121 0.7039186
vn 0.9396926 -5.146721E-05 0.3420199
vn 0.6889306 0.6800347 0.2508533
vn 0.7331445 0.6800728 0.0001026578
vn 1 1.531057E-07 0
vn 0.7660445 -9.678024E-05 0.6427875
vn 0.561622 0.6800005 0.4713597
vn 0.4999996 -0.0001304867 0.8660256
vn 0.3665725 0.6799762 0.6350253
vn 0.1736476 -0.0001484044 0.9848078
vn 0.1273087 0.6799632 0.7221097
vn -0.173648 -0.0001484044 0.9848077
vn -0.127308 0.6799632 0.7221099
vn -0.4999994 -0.0001304848 0.8660258
vn -0.3665724 0.6799759 0.6350255
vn -0.7660445 -9.681749E-05 0.6427875
vn -0.5616228 0.6799998 0.4713598
vn -0.9396932 -5.139038E-05 0.3420185
vn -0.6889315 0.6800341 0.2508525
vn -1 2.257283E-07 0
vn -0.7331449 0.6800725 0.0001026243
vn -0.9396934 5.170517E-05 -0.3420182
vn -0.6889315 0.6801102 -0.2506462
vn -0.7660444 9.708385E-05 -0.6427876
vn -0.5616224 0.6801426 -0.4711542
vn -0.4999987 0.0001308145 -0.866026
vn -0.3665719 0.6801673 -0.6348208
vn -0.1736482 0.000148762 -0.9848077
vn -0.1273083 0.6801816 -0.7219042
vn 0.1736478 0.0001487713 -0.9848078
vn 0.127309 0.6801816 -0.721904
vn 0.499999 0.000130848 -0.866026
vn 0.366572 0.6801675 -0.6348205
vn 0.7660445 9.717888E-05 -0.6427876
vn 0.5616217 0.6801433 -0.4711541
vn 0.9396929 5.184719E-05 -0.3420196
vn 0.6889306 0.6801108 -0.2506469
vn -0.0003908039 0.9999619 0.008729324
vn -0.007625836 0.9999638 -0.003800932
vn -0.5666013 0.6193964 0.5434253
vn -0.4159209 0.5549042 0.7204798
vn -0.004981783 0.9999491 0.008779182
vn -0.1872412 0.6193634 0.7624499
vn -0.007234696 0.9999624 0.00478092
vn 0.1872418 0.6193653 0.7624481
vn 0.007234618 0.9999624 0.004778938
vn 0.4159191 0.5549031 0.7204816
vn 0.004982026 0.9999491 0.008779534
vn 0.5665982 0.6193983 0.5434263
vn 0.0003907918 0.9999619 0.00873038
vn 0.7538425 0.6194454 0.2191096
vn 0.007625879 0.9999638 -0.003800523
vn 0.8318414 0.5550134 8.388795E-05
vn 0.00996367 0.9999504 0.0001509748
vn 0.7538423 0.6195114 -0.2189229
vn 0.007626208 0.9999626 0.004102329
vn 0.5665956 0.6195635 -0.5432408
vn 0.0003906582 0.9999645 -0.00842881
vn 0.4159184 0.5551193 -0.7203155
vn 0.004980684 0.9999517 -0.00847643
vn 0.1872437 0.6195943 -0.7622616
vn 0.007235042 0.9999639 -0.00447841
vn -0.1872431 0.6195922 -0.7622633
vn -0.007235136 0.9999638 -0.004480405
vn -0.4159202 0.5551203 -0.7203137
vn -0.004980462 0.9999517 -0.008476114
vn -0.5665987 0.6195617 -0.5432395
vn -0.0003906927 0.9999645 -0.008427711
vn -0.7538422 0.6195115 -0.2189229
vn -0.007626164 0.9999626 0.00410278
vn -0.8318436 0.55501 8.381157E-05
vn -0.009963667 0.9999504 0.0001509655
vn -0.7538434 -0.6194443 -0.2191096
vn -0.8318434 -0.5550102 -8.37231E-05
vn -0.566599 -0.6193966 -0.5434275
vn -0.4159202 -0.5549033 -0.720481
vn -0.1872439 -0.6193612 -0.762451
vn 0.1872445 -0.6193631 -0.7624492
vn 0.4159184 -0.5549021 -0.7204828
vn 0.5665958 -0.6193985 -0.5434286
vn 0.7538434 -0.6194443 -0.2191095
vn 0.8318412 -0.5550137 -8.372682E-05
vn 0.7538435 -0.6195104 0.2189222
vn 0.5665982 -0.6195613 0.5432405
vn 0.415919 -0.5551206 0.7203141
vn 0.1872427 -0.6195944 0.7622617
vn -0.1872421 -0.6195923 0.7622636
vn -0.4159208 -0.5551217 0.7203122
vn -0.5666014 -0.6195593 0.5432394
vn -0.7538434 -0.6195104 0.2189223
vn -0.7538424 0.6194454 0.2191097
vn -0.7538434 -0.6194443 -0.2191096
vn -0.007621945 -0.9999638 0.003802826
vn -0.009959223 -0.9999504 -0.0001509115
vn -0.8318434 -0.5550102 -8.37231E-05
vn 0.7331429 -0.6800746 -0.0001026439
vn 0.6889291 -0.6801121 0.2506475
vn -0.566599 -0.6193966 -0.5434275
vn -0.0003870999 -0.9999619 -0.008726778
vn 0.5616208 -0.6801445 0.4711535
vn -0.4159202 -0.5549033 -0.720481
vn -0.004978333 -0.9999491 -0.008773937
vn 0.3665718 -0.6801695 0.6348186
vn -0.1872439 -0.6193612 -0.762451
vn -0.00723466 -0.9999624 -0.00477761
vn 0.1273085 -0.6801829 0.7219029
vn 0.1872445 -0.6193631 -0.7624492
vn 0.007234592 -0.9999624 -0.004775727
vn -0.1273077 -0.6801829 0.721903
vn 0.4159184 -0.5549021 -0.7204828
vn 0.00497856 -0.9999491 -0.0087743
vn -0.3665717 -0.6801693 0.6348188
vn 0.5665958 -0.6193985 -0.5434286
vn 0.0003870431 -0.9999619 -0.008727775
vn -0.5616215 -0.6801438 0.4711534
vn 0.7538434 -0.6194443 -0.2191095
vn 0.007621954 -0.9999638 0.003802411
vn -0.68893 -0.6801115 0.2506467
vn 0.8318412 -0.5550137 -8.372682E-05
vn 0.009959222 -0.9999504 -0.0001509245
vn -0.7331433 -0.6800742 -0.0001026401
vn 0.7538435 -0.6195104 0.2189222
vn 0.007621805 -0.9999626 -0.004104109
vn -0.6889299 -0.6800364 -0.2508509
vn 0.5665982 -0.6195613 0.5432405
vn 0.000387098 -0.9999645 0.008426
vn -0.5616211 -0.6800023 -0.4713583
vn 0.415919 -0.5551206 0.7203141
vn 0.004979804 -0.9999517 0.008473941
vn -0.366571 -0.6799775 -0.6350245
vn 0.1872427 -0.6195944 0.7622617
vn 0.007234176 -0.9999639 0.004472843
vn -0.127308 -0.6799656 -0.7221078
vn -0.1872421 -0.6195923 0.7622636
vn -0.00723425 -0.9999639 0.00447475
vn 0.1273088 -0.6799656 -0.7221076
vn -0.4159208 -0.5551217 0.7203122
vn -0.004979548 -0.9999517 0.008473549
vn 0.3665711 -0.6799778 -0.6350242
vn -0.5666014 -0.6195593 0.5432394
vn -0.0003870651 -0.9999645 0.008424888
vn 0.5616204 -0.6800029 -0.4713582
vn -0.7538434 -0.6195104 0.2189223
vn -0.007621716 -0.9999626 -0.004104558
vn 0.688929 -0.6800368 -0.2508517
vn 0.5616204 -0.6800029 -0.4713582
vn 0.3665711 -0.6799778 -0.6350242
vn 0.688929 -0.6800368 -0.2508517
vn 0.7331429 -0.6800746 -0.0001026439
vn 0.6889291 -0.6801121 0.2506475
vn 0.5616208 -0.6801445 0.4711535
vn 0.3665718 -0.6801695 0.6348186
vn 0.1273085 -0.6801829 0.7219029
vn -0.1273077 -0.6801829 0.721903
vn -0.3665717 -0.6801693 0.6348188
vn -0.5616215 -0.6801438 0.4711534
vn -0.68893 -0.6801115 0.2506467
vn -0.7331433 -0.6800742 -0.0001026401
vn -0.6889299 -0.6800364 -0.2508509
vn -0.5616211 -0.6800023 -0.4713583
vn -0.366571 -0.6799775 -0.6350245
vn -0.127308 -0.6799656 -0.7221078
vn 0.1273088 -0.6799656 -0.7221076
g merge3d_element_food_2_0
f 3/3/3 2/2/2 1/1/1
f 4/4/4 3/3/3 1/1/1
f 1/1/1 2/2/2 5/5/5
f 2/2/2 6/6/6 5/5/5
f 5/5/5 6/6/6 7/7/7
f 6/6/6 8/8/8 7/7/7
f 7/7/7 8/8/8 9/9/9
f 8/8/8 10/10/10 9/9/9
f 9/9/9 10/10/10 11/11/11
f 10/10/10 12/12/12 11/11/11
f 11/11/11 12/12/12 13/13/13
f 12/12/12 14/14/14 13/13/13
f 13/13/13 14/14/14 15/15/15
f 14/14/14 16/16/16 15/15/15
f 15/15/15 16/16/16 17/17/17
f 16/16/16 18/18/18 17/17/17
f 17/17/17 18/18/18 19/19/19
f 18/18/18 20/20/20 19/19/19
f 19/19/19 20/20/20 21/21/21
f 20/20/20 22/22/22 21/21/21
f 21/21/21 22/22/22 23/23/23
f 22/22/22 24/24/24 23/23/23
f 23/23/23 24/24/24 25/25/25
f 24/24/24 26/26/26 25/25/25
f 25/25/25 26/26/26 27/27/27
f 26/26/26 28/28/28 27/27/27
f 27/27/27 28/28/28 29/29/29
f 28/28/28 30/30/30 29/29/29
f 29/29/29 30/30/30 31/31/31
f 30/30/30 32/32/32 31/31/31
f 31/31/31 32/32/32 33/33/33
f 32/32/32 34/34/34 33/33/33
f 33/33/33 34/34/34 35/35/35
f 34/34/34 36/36/36 35/35/35
f 35/35/35 36/36/36 3/3/3
f 4/4/4 35/35/35 3/3/3
f 34/34/34 37/37/37 36/36/36
f 37/37/37 38/38/38 36/36/36
f 37/37/37 39/39/39 38/38/38
f 40/40/40 39/39/39 37/37/37
f 41/41/41 40/40/40 37/37/37
f 41/41/41 37/37/37 34/34/34
f 32/32/32 41/41/41 34/34/34
f 42/42/42 40/40/40 41/41/41
f 43/43/43 42/42/42 41/41/41
f 43/43/43 41/41/41 32/32/32
f 30/30/30 43/43/43 32/32/32
f 44/44/44 42/42/42 43/43/43
f 45/45/45 44/44/44 43/43/43
f 46/46/46 44/44/44 45/45/45
f 47/47/47 46/46/46 45/45/45
f 48/48/48 46/46/46 47/47/47
f 49/49/49 48/48/48 47/47/47
f 50/50/50 48/48/48 49/49/49
f 51/51/51 50/50/50 49/49/49
f 52/52/52 50/50/50 51/51/51
f 53/53/53 52/52/52 51/51/51
f 54/54/54 52/52/52 53/53/53
f 55/55/55 54/54/54 53/53/53
f 56/56/56 54/54/54 55/55/55
f 57/57/57 56/56/56 55/55/55
f 58/58/58 56/56/56 57/57/57
f 59/59/59 58/58/58 57/57/57
f 60/60/60 58/58/58 59/59/59
f 61/61/61 60/60/60 59/59/59
f 62/62/62 60/60/60 61/61/61
f 63/63/63 62/62/62 61/61/61
f 64/64/64 62/62/62 63/63/63
f 65/65/65 64/64/64 63/63/63
f 66/66/66 64/64/64 65/65/65
f 67/67/67 66/66/66 65/65/65
f 68/68/68 66/66/66 67/67/67
f 69/69/69 68/68/68 67/67/67
f 70/70/70 68/68/68 69/69/69
f 71/71/71 70/70/70 69/69/69
f 72/72/72 68/68/68 70/70/70
f 73/73/73 72/72/72 70/70/70
f 74/74/74 66/66/66 68/68/68
f 72/72/72 74/74/74 68/68/68
f 75/75/75 64/64/64 66/66/66
f 74/74/74 75/75/75 66/66/66
f 76/76/76 62/62/62 64/64/64
f 75/75/75 76/76/76 64/64/64
f 76/76/76 77/77/77 62/62/62
f 77/77/77 60/60/60 62/62/62
f 77/77/77 78/78/78 60/60/60
f 78/78/78 58/58/58 60/60/60
f 78/78/78 79/79/79 58/58/58
f 79/79/79 56/56/56 58/58/58
f 79/79/79 80/80/80 56/56/56
f 80/80/80 54/54/54 56/56/56
f 80/80/80 81/81/81 54/54/54
f 81/81/81 52/52/52 54/54/54
f 81/81/81 82/82/82 52/52/52
f 82/82/82 50/50/50 52/52/52
f 82/82/82 83/83/83 50/50/50
f 83/83/83 48/48/48 50/50/50
f 83/83/83 84/84/84 48/48/48
f 84/84/84 46/46/46 48/48/48
f 84/84/84 85/85/85 46/46/46
f 85/85/85 44/44/44 46/46/46
f 85/85/85 86/86/86 44/44/44
f 86/86/86 42/42/42 44/44/44
f 86/86/86 87/87/87 42/42/42
f 87/87/87 40/40/40 42/42/42
f 87/87/87 88/88/88 40/40/40
f 88/88/88 39/39/39 40/40/40
f 88/88/88 89/89/89 39/39/39
f 89/89/89 90/90/90 39/39/39
f 39/39/39 90/90/90 38/38/38
f 38/38/38 90/90/90 70/70/70
f 71/71/71 38/38/38 70/70/70
f 73/73/73 70/70/70 90/90/90
f 89/89/89 73/73/73 90/90/90
f 36/36/36 38/38/38 71/71/71
f 3/3/3 36/36/36 71/71/71
f 3/3/3 71/71/71 2/2/2
f 71/71/71 69/69/69 2/2/2
f 2/2/2 69/69/69 6/6/6
f 69/69/69 67/67/67 6/6/6
f 6/6/6 67/67/67 8/8/8
f 67/67/67 65/65/65 8/8/8
f 8/8/8 65/65/65 10/10/10
f 65/65/65 63/63/63 10/10/10
f 10/10/10 63/63/63 12/12/12
f 63/63/63 61/61/61 12/12/12
f 12/12/12 61/61/61 14/14/14
f 61/61/61 59/59/59 14/14/14
f 14/14/14 59/59/59 16/16/16
f 59/59/59 57/57/57 16/16/16
f 16/16/16 57/57/57 18/18/18
f 57/57/57 55/55/55 18/18/18
f 18/18/18 55/55/55 20/20/20
f 55/55/55 53/53/53 20/20/20
f 20/20/20 53/53/53 22/22/22
f 53/53/53 51/51/51 22/22/22
f 22/22/22 51/51/51 24/24/24
f 51/51/51 49/49/49 24/24/24
f 24/24/24 49/49/49 26/26/26
f 49/49/49 47/47/47 26/26/26
f 26/26/26 47/47/47 28/28/28
f 47/47/47 45/45/45 28/28/28
f 28/28/28 45/45/45 30/30/30
f 45/45/45 43/43/43 30/30/30
f 93/93/93 92/92/92 91/91/91
f 94/94/94 93/93/93 91/91/91
f 93/93/93 95/95/95 92/92/92
f 95/95/95 96/96/96 92/92/92
f 91/91/91 92/92/92 97/97/97
f 92/92/92 98/98/98 97/97/97
f 92/92/92 96/96/96 98/98/98
f 96/96/96 99/99/99 98/98/98
f 97/97/97 98/98/98 100/100/100
f 98/98/98 101/101/101 100/100/100
f 98/98/98 99/99/99 101/101/101
f 99/99/99 102/102/102 101/101/101
f 100/100/100 101/101/101 103/103/103
f 101/101/101 104/104/104 103/103/103
f 101/101/101 102/102/102 104/104/104
f 102/102/102 105/105/105 104/104/104
f 103/103/103 104/104/104 106/106/106
f 104/104/104 107/107/107 106/106/106
f 104/104/104 105/105/105 107/107/107
f 105/105/105 108/108/108 107/107/107
f 106/106/106 107/107/107 109/109/109
f 107/107/107 110/110/110 109/109/109
f 107/107/107 108/108/108 110/110/110
f 108/108/108 111/111/111 110/110/110
f 109/109/109 110/110/110 112/112/112
f 110/110/110 113/113/113 112/112/112
f 110/110/110 111/111/111 113/113/113
f 111/111/111 114/114/114 113/113/113
f 112/112/112 113/113/113 115/115/115
f 113/113/113 116/116/116 115/115/115
f 113/113/113 114/114/114 116/116/116
f 114/114/114 117/117/117 116/116/116
f 115/115/115 116/116/116 118/118/118
f 116/116/116 119/119/119 118/118/118
f 116/116/116 117/117/117 119/119/119
f 117/117/117 120/120/120 119/119/119
f 118/118/118 119/119/119 121/121/121
f 119/119/119 122/122/122 121/121/121
f 119/119/119 120/120/120 122/122/122
f 120/120/120 123/123/123 122/122/122
f 121/121/121 122/122/122 124/124/124
f 122/122/122 125/125/125 124/124/124
f 122/122/122 123/123/123 125/125/125
f 123/123/123 126/126/126 125/125/125
f 124/124/124 125/125/125 127/127/127
f 125/125/125 128/128/128 127/127/127
f 125/125/125 126/126/126 128/128/128
f 126/126/126 129/129/129 128/128/128
f 127/127/127 128/128/128 130/130/130
f 128/128/128 131/131/131 130/130/130
f 128/128/128 129/129/129 131/131/131
f 129/129/129 132/132/132 131/131/131
f 130/130/130 131/131/131 133/133/133
f 131/131/131 134/134/134 133/133/133
f 131/131/131 132/132/132 134/134/134
f 132/132/132 135/135/135 134/134/134
f 133/133/133 134/134/134 136/136/136
f 134/134/134 137/137/137 136/136/136
f 134/134/134 135/135/135 137/137/137
f 135/135/135 138/138/138 137/137/137
f 136/136/136 137/137/137 139/139/139
f 137/137/137 140/140/140 139/139/139
f 137/137/137 138/138/138 140/140/140
f 138/138/138 141/141/141 140/140/140
f 139/139/139 140/140/140 142/142/142
f 140/140/140 143/143/143 142/142/142
f 140/140/140 141/141/141 143/143/143
f 141/141/141 144/144/144 143/143/143
f 142/142/142 143/143/143 93/93/93
f 93/93/93 143/143/143 144/144/144
f 94/94/94 142/142/142 93/93/93
f 95/95/95 93/93/93 144/144/144
f 31/31/31 33/33/33 145/145/145
f 146/146/146 31/31/31 145/145/145
f 145/145/145 33/33/33 147/147/147
f 33/33/33 35/35/35 147/147/147
f 147/147/147 35/35/35 4/4/4
f 148/148/148 147/147/147 4/4/4
f 148/148/148 4/4/4 149/149/149
f 4/4/4 1/1/1 149/149/149
f 149/149/149 1/1/1 150/150/150
f 1/1/1 5/5/5 150/150/150
f 150/150/150 5/5/5 151/151/151
f 5/5/5 7/7/7 151/151/151
f 151/151/151 7/7/7 152/152/152
f 7/7/7 9/9/9 152/152/152
f 152/152/152 9/9/9 153/153/153
f 9/9/9 11/11/11 153/153/153
f 153/153/153 11/11/11 154/154/154
f 11/11/11 13/13/13 154/154/154
f 154/154/154 13/13/13 155/155/155
f 13/13/13 15/15/15 155/155/155
f 155/155/155 15/15/15 156/156/156
f 15/15/15 17/17/17 156/156/156
f 156/156/156 17/17/17 157/157/157
f 17/17/17 19/19/19 157/157/157
f 157/157/157 19/19/19 158/158/158
f 19/19/19 21/21/21 158/158/158
f 158/158/158 21/21/21 159/159/159
f 21/21/21 23/23/23 159/159/159
f 159/159/159 23/23/23 160/160/160
f 23/23/23 25/25/25 160/160/160
f 160/160/160 25/25/25 161/161/161
f 25/25/25 27/27/27 161/161/161
f 161/161/161 27/27/27 162/162/162
f 27/27/27 29/29/29 162/162/162
f 162/162/162 29/29/29 146/146/146
f 29/29/29 31/31/31 146/146/146
