g merge2d_element_text_7
v 4.57E-06 0.03393866 -0.1220327
v 4.57E-06 -0.1363995 -0.1220326
v 0.2044097 -0.1363994 -0.1220326
v 0.408815 0.03393866 -0.1220327
v 0.408815 -0.08870479 -0.1220327
v 0.2044097 -0.2710732 -0.1220326
v 0.408815 -0.3780664 -0.1220326
v 0.3270538 -0.4037309 -0.1220326
v 0.2452798 -0.4232537 -0.1220326
v 0.1542535 -0.2725349 -0.1220326
v 0.1635315 -0.4369617 -0.1220326
v 0.07229185 -0.4429464 -0.1220326
v 0.08176205 -0.269336 -0.1220326
v 0.03896575 -0.2617987 -0.1220326
v 0.02044278 -0.4418819 -0.1220326
v -0.08181426 -0.2083994 -0.1220327
v -0.08175199 -0.427913 -0.1220326
v -0.1635068 -0.4017566 -0.1220326
v -0.1143567 -0.1772819 -0.1220326
v -0.2459674 -0.3549251 -0.1220326
v -0.3310363 -0.2713492 -0.1220326
v -0.3805975 -0.1772752 -0.1220326
v -0.1620291 -0.0822773 -0.1220327
v -0.4025162 -0.08870891 -0.1220327
v -0.170452 0.00196793 -0.1220327
v -0.4088158 0.00066941 -0.1220327
v -0.4021674 0.08844714 -0.1220327
v -0.1624475 0.08420417 -0.1220327
v -0.3785531 0.177023 -0.1220327
v -0.3287201 0.2678599 -0.1220327
v -0.1178421 0.1769934 -0.1220327
v -0.2434634 0.3528377 -0.1220326
v -0.08167236 0.2141758 -0.1220326
v -0.163504 0.3988628 -0.1220326
v -0.08175567 0.4260704 -0.1220326
v 0.02613555 0.2644787 -0.1220327
v 0.02044278 0.4411213 -0.1220326
v 0.07681639 0.4429462 -0.1220326
v 0.0927255 0.2723538 -0.1220326
v 0.1635306 0.4391796 -0.1220326
v 0.1705454 0.2667997 -0.1220327
v 0.2452981 0.2467931 -0.1220326
v 0.2452579 0.426097 -0.1220326
v 0.3270538 0.4008316 -0.1220326
v 0.3270456 0.2080846 -0.1220327
v 0.408815 0.3676952 -0.1220326
v 0.408815 0.1568821 -0.1220327
v 4.57E-06 0.03393866 0.1220327
v 0.2044097 -0.1363994 0.1220327
v 4.57E-06 -0.1363995 0.1220327
v 0.408815 0.03393866 0.1220327
v 0.408815 -0.08870479 0.1220327
v 0.2044097 -0.2710732 0.1220326
v 0.408815 -0.3780663 0.1220326
v 0.3270538 -0.4037308 0.1220326
v 0.2452798 -0.4232537 0.1220327
v 0.1542535 -0.2725349 0.1220327
v 0.1635315 -0.4369617 0.1220327
v 0.07229185 -0.4429464 0.1220326
v 0.08176205 -0.269336 0.1220326
v 0.03896575 -0.2617987 0.1220326
v 0.02044278 -0.4418819 0.1220326
v -0.08181426 -0.2083994 0.1220326
v -0.08175199 -0.427913 0.1220326
v -0.1635068 -0.4017566 0.1220326
v -0.1143567 -0.1772819 0.1220327
v -0.2459674 -0.354925 0.1220326
v -0.3310363 -0.2713492 0.1220326
v -0.3805975 -0.1772752 0.1220327
v -0.1620291 -0.08227727 0.1220327
v -0.4025162 -0.08870891 0.1220327
v -0.170452 0.00196793 0.1220327
v -0.4088158 0.00066941 0.1220327
v -0.4021674 0.08844715 0.1220327
v -0.1624475 0.08420418 0.1220327
v -0.3785531 0.177023 0.1220326
v -0.3287201 0.2678599 0.1220326
v -0.1178421 0.1769934 0.1220326
v -0.2434634 0.3528377 0.1220326
v -0.08167236 0.2141758 0.1220326
v -0.163504 0.3988629 0.1220326
v -0.08175567 0.4260705 0.1220326
v 0.02613555 0.2644787 0.1220326
v 0.02044278 0.4411213 0.1220326
v 0.07681639 0.4429462 0.1220326
v 0.0927255 0.2723538 0.1220326
v 0.1635306 0.4391796 0.1220326
v 0.1705454 0.2667997 0.1220326
v 0.2452981 0.2467931 0.1220326
v 0.2452579 0.4260971 0.1220326
v 0.3270538 0.4008316 0.1220326
v 0.3270456 0.2080845 0.1220326
v 0.408815 0.3676952 0.1220326
v 0.408815 0.1568821 0.1220326
v 4.57E-06 0.03393866 0.1220327
v 4.57E-06 -0.1363995 0.1220327
v 4.57E-06 -0.1363995 -0.1220326
v 4.57E-06 0.03393866 -0.1220327
v 4.57E-06 -0.1363995 0.1220327
v 0.2044097 -0.1363994 0.1220327
v 0.2044097 -0.1363994 -0.1220326
v 4.57E-06 -0.1363995 -0.1220326
v 0.03896575 -0.2617987 0.1220326
v -0.08181426 -0.2083994 0.1220326
v -0.08181426 -0.2083994 -0.1220327
v 0.03896575 -0.2617987 -0.1220326
v -0.1143567 -0.1772819 -0.1220326
v -0.1143567 -0.1772819 0.1220327
v 0.08176205 -0.269336 0.1220326
v 0.08176205 -0.269336 -0.1220326
v 0.1542535 -0.2725349 0.1220327
v 0.1542535 -0.2725349 -0.1220326
v 0.2044097 -0.2710732 0.1220326
v 0.2044097 -0.2710732 -0.1220326
v -0.1620291 -0.0822773 -0.1220327
v -0.1620291 -0.08227727 0.1220327
v -0.170452 0.00196793 -0.1220327
v -0.170452 0.00196793 0.1220327
v -0.1624475 0.08420417 -0.1220327
v -0.1624475 0.08420418 0.1220327
v -0.1178421 0.1769934 -0.1220327
v -0.1178421 0.1769934 0.1220326
v -0.08167236 0.2141758 -0.1220326
v -0.08167236 0.2141758 0.1220326
v 0.02613555 0.2644787 -0.1220327
v 0.02613555 0.2644787 0.1220326
v 0.0927255 0.2723538 -0.1220326
v 0.0927255 0.2723538 0.1220326
v 0.1705454 0.2667997 -0.1220327
v 0.1705454 0.2667997 0.1220326
v 0.2452981 0.2467931 -0.1220326
v 0.2452981 0.2467931 0.1220326
v 0.3270456 0.2080846 -0.1220327
v 0.3270456 0.2080845 0.1220326
v 0.408815 0.1568821 -0.1220327
v 0.408815 0.1568821 0.1220326
v -0.3310363 -0.2713492 0.1220326
v -0.2459674 -0.354925 0.1220326
v -0.2459674 -0.3549251 -0.1220326
v -0.3310363 -0.2713492 -0.1220326
v -0.1635068 -0.4017566 -0.1220326
v -0.1635068 -0.4017566 0.1220326
v -0.08175199 -0.427913 -0.1220326
v -0.08175199 -0.427913 0.1220326
v 0.02044278 -0.4418819 -0.1220326
v 0.02044278 -0.4418819 0.1220326
v -0.3805975 -0.1772752 0.1220327
v -0.3805975 -0.1772752 -0.1220326
v -0.4025162 -0.08870891 0.1220327
v -0.4025162 -0.08870891 -0.1220327
v -0.4088158 0.00066941 0.1220327
v -0.4088158 0.00066941 -0.1220327
v -0.4021674 0.08844715 0.1220327
v -0.4021674 0.08844714 -0.1220327
v -0.3785531 0.177023 0.1220326
v -0.3785531 0.177023 -0.1220327
v -0.3287201 0.2678599 0.1220326
v -0.3287201 0.2678599 -0.1220327
v -0.2434634 0.3528377 0.1220326
v -0.2434634 0.3528377 -0.1220326
v -0.163504 0.3988629 0.1220326
v -0.163504 0.3988628 -0.1220326
v -0.08175567 0.4260705 0.1220326
v -0.08175567 0.4260704 -0.1220326
v 0.02044278 0.4411213 0.1220326
v 0.02044278 0.4411213 -0.1220326
v 0.07681639 0.4429462 0.1220326
v 0.07681639 0.4429462 -0.1220326
v 0.1635306 0.4391796 0.1220326
v 0.1635306 0.4391796 -0.1220326
v 0.2452579 0.4260971 0.1220326
v 0.2452579 0.426097 -0.1220326
v 0.3270538 0.4008316 0.1220326
v 0.3270538 0.4008316 -0.1220326
v 0.408815 0.3676952 0.1220326
v 0.408815 0.3676952 -0.1220326
v 0.2452798 -0.4232537 0.1220327
v 0.3270538 -0.4037308 0.1220326
v 0.3270538 -0.4037309 -0.1220326
v 0.2452798 -0.4232537 -0.1220326
v 0.408815 -0.3780664 -0.1220326
v 0.408815 -0.3780663 0.1220326
v 0.1635315 -0.4369617 0.1220327
v 0.1635315 -0.4369617 -0.1220326
v 0.07229185 -0.4429464 0.1220326
v 0.07229185 -0.4429464 -0.1220326
v 0.408815 0.03393866 0.1220327
v 4.57E-06 0.03393866 0.1220327
v 4.57E-06 0.03393866 -0.1220327
v 0.408815 0.03393866 -0.1220327
v 0.408815 -0.3780663 0.1220326
v 0.408815 -0.08870479 0.1220327
v 0.408815 -0.08870479 -0.1220327
v 0.408815 -0.3780664 -0.1220326
v 0.408815 0.03393866 -0.1220327
v 0.408815 0.03393866 0.1220327
v 0.2044097 -0.1363994 0.1220327
v 0.2044097 -0.2710732 0.1220326
v 0.2044097 -0.2710732 -0.1220326
v 0.2044097 -0.1363994 -0.1220326
v 0.408815 0.1568821 0.1220326
v 0.408815 0.3676952 0.1220326
v 0.408815 0.3676952 -0.1220326
v 0.408815 0.1568821 -0.1220327
vt 0.2902877 0.1099455
vt 0.2902877 0.07431164
vt 0.2475268 0.07431164
vt 0.2047666 0.1099455
vt 0.2047666 0.08428927
vt 0.2475268 0.04613845
vt 0.2047666 0.02375583
vt 0.2218705 0.0183876
vt 0.2389775 0.01430307
vt 0.2580194 0.04583277
vt 0.2560784 0.01143597
vt 0.2751654 0.01018386
vt 0.2731846 0.04650213
vt 0.2821367 0.04807867
vt 0.2860119 0.01040678
vt 0.3074036 0.05924969
vt 0.3073901 0.01332884
vt 0.3244932 0.01880024
vt 0.3142115 0.06575935
vt 0.3417431 0.02859711
vt 0.359539 0.0460812
vt 0.3699073 0.0657609
vt 0.3241838 0.08563395
vt 0.3744926 0.08428849
vt 0.3259456 0.1032574
vt 0.3758102 0.1029856
vt 0.3744195 0.1213484
vt 0.3242711 0.1204607
vt 0.3694797 0.1398775
vt 0.3590548 0.1588803
vt 0.3149403 0.1398715
vt 0.3412192 0.1766573
vt 0.3073735 0.1476498
vt 0.3244925 0.1862855
vt 0.3073909 0.1919768
vt 0.2848208 0.1581733
vt 0.2860119 0.1951254
vt 0.2742191 0.1955072
vt 0.2708904 0.1598207
vt 0.2560784 0.1947196
vt 0.254611 0.1586582
vt 0.2389737 0.1544735
vt 0.238982 0.1919828
vt 0.2218705 0.1866974
vt 0.2218721 0.1463759
vt 0.2047666 0.1797653
vt 0.2047666 0.1356643
vt 0.102141 0.1099455
vt 0.1449019 0.07431164
vt 0.102141 0.07431164
vt 0.187662 0.1099455
vt 0.187662 0.08428927
vt 0.1449019 0.04613845
vt 0.187662 0.02375583
vt 0.1705581 0.0183876
vt 0.1534512 0.01430307
vt 0.1344093 0.04583277
vt 0.1363503 0.01143597
vt 0.1172632 0.01018386
vt 0.1192441 0.04650213
vt 0.110292 0.04807867
vt 0.1064167 0.01040678
vt 0.08502503 0.05924969
vt 0.08503856 0.01332884
vt 0.06793548 0.01880024
vt 0.07821722 0.06575935
vt 0.05068542 0.02859711
vt 0.03288968 0.0460812
vt 0.02252127 0.0657609
vt 0.06824489 0.08563395
vt 0.01793607 0.08428849
vt 0.0664831 0.1032574
vt 0.01661839 0.1029856
vt 0.01800908 0.1213484
vt 0.06815757 0.1204607
vt 0.02294888 0.1398775
vt 0.03337373 0.1588803
vt 0.07748838 0.1398715
vt 0.05120946 0.1766573
vt 0.08505513 0.1476498
vt 0.0679362 0.1862855
vt 0.08503778 0.1919768
vt 0.1076079 0.1581733
vt 0.1064167 0.1951254
vt 0.1182096 0.1955072
vt 0.1215383 0.1598207
vt 0.1363503 0.1947196
vt 0.1378177 0.1586582
vt 0.1534549 0.1544735
vt 0.1534467 0.1919828
vt 0.1705581 0.1866974
vt 0.1705566 0.1463759
vt 0.187662 0.1797653
vt 0.187662 0.1356643
vt 0.4010386 0.0717282
vt 0.4366702 0.07173428
vt 0.4366829 0.020677
vt 0.4010476 0.02067104
vt 0.4366702 0.07173428
vt 0.4794258 0.07174784
vt 0.4794453 0.02069059
vt 0.4366829 0.020677
vt 0.5423609 0.07176888
vt 0.5699807 0.07177117
vt 0.569986 0.0207139
vt 0.5423663 0.02071241
vt 0.5793982 0.02071467
vt 0.5793945 0.07177117
vt 0.5332726 0.07176813
vt 0.5332824 0.02071092
vt 0.518093 0.07176435
vt 0.5181088 0.02070716
vt 0.5075967 0.07176057
vt 0.5076163 0.02070335
vt 0.6016257 0.0207139
vt 0.6016248 0.07177037
vt 0.6193296 0.02071318
vt 0.6193296 0.07176965
vt 0.6366075 0.02071241
vt 0.6366075 0.07176965
vt 0.6581392 0.02071169
vt 0.658137 0.07176888
vt 0.6689843 0.02071318
vt 0.6689843 0.07177037
vt 0.6938628 0.02071241
vt 0.6938679 0.07176965
vt 0.7078856 0.02071169
vt 0.7078902 0.07176813
vt 0.724205 0.02071169
vt 0.7242043 0.07176813
vt 0.7403911 0.02071241
vt 0.7403889 0.07176965
vt 0.7593081 0.02071241
vt 0.7593111 0.07176965
vt 0.7794883 0.02071014
vt 0.7794951 0.07176742
vt 0.988983 0.2706204
vt 0.9893278 0.2456493
vt 0.9382744 0.2450019
vt 0.9379303 0.269933
vt 0.9385281 0.2251927
vt 0.9895816 0.2257732
vt 0.9387299 0.2072735
vt 0.9897841 0.2077696
vt 0.9389279 0.1857417
vt 0.9899837 0.186137
vt 0.9886623 0.2928743
vt 0.9376103 0.2921763
vt 0.9883875 0.3119575
vt 0.9373348 0.3112754
vt 0.9881277 0.330687
vt 0.937075 0.3300433
vt 0.9878921 0.3490768
vt 0.9368379 0.3484934
vt 0.9876752 0.3682174
vt 0.9366203 0.3677144
vt 0.9874712 0.3898463
vt 0.9364162 0.3894412
vt 0.9872912 0.4149724
vt 0.9362348 0.4146826
vt 0.9872001 0.4342117
vt 0.9361436 0.4340467
vt 0.9871625 0.4521701
vt 0.936106 0.4521362
vt 0.9871761 0.4737154
vt 0.9361188 0.4738111
vt 0.9872152 0.4854503
vt 0.9361587 0.4856739
vt 0.9873214 0.5035465
vt 0.9362656 0.5038922
vt 0.9874637 0.5208048
vt 0.9364086 0.5212618
vt 0.9876488 0.5386624
vt 0.9365946 0.5392196
vt 0.987871 0.5570726
vt 0.9368183 0.5577171
vt 0.9901929 0.138635
vt 0.9901884 0.1209835
vt 0.939132 0.121062
vt 0.9391357 0.138589
vt 0.939083 0.1031652
vt 0.9901395 0.1030251
vt 0.9901531 0.1560386
vt 0.9390966 0.1558713
vt 0.9900635 0.1752287
vt 0.939007 0.1749442
vt 0.8961755 0.06781287
vt 0.9816965 0.06781287
vt 0.9816965 0.01675569
vt 0.8961755 0.01675569
vt 0.8099859 0.06781287
vt 0.8705186 0.06781287
vt 0.8705186 0.01675569
vt 0.8099859 0.01675569
vt 0.8961755 0.01675569
vt 0.8961755 0.06781287
vt 0.4794258 0.07174784
vt 0.5075967 0.07176057
vt 0.5076163 0.02070335
vt 0.4794453 0.02069059
vt 0.9884651 0.6011488
vt 0.987871 0.5570726
vt 0.9368183 0.5577171
vt 0.9374123 0.6018347
vn 0 -1.119743E-07 -1
vn 0 -1.119743E-07 -1
vn 0 -1.119743E-07 -1
vn 0 -1.119743E-07 -1
vn 0 0 -1
vn -1.363714E-07 0 -1
vn 0 0 -1
vn 0 0 -1
vn -1.363715E-07 0 -1
vn 0 0 -1
vn 0 0 -1
vn 0 0 -1
vn 0 0 -1
vn 1.342047E-07 0 -1
vn 1.342047E-07 0 -1
vn 1.342047E-07 0 -1
vn 0 0 -1
vn 2.932677E-07 0 -1
vn 0 0 -1
vn 0 0 -1
vn 0 0 -1
vn 0 0 -1
vn 0 0 -1
vn 0 0 -1
vn 0 0 -1
vn 0 0 -1
vn 0 0 -1
vn 0 0 -1
vn 0 0 -1
vn 0 0 -1
vn 0 0 -1
vn 0 1.567066E-07 -1
vn 2.766494E-07 2.797462E-07 -1
vn 0 0 -1
vn 1.682495E-07 1.074678E-07 -1
vn 1.682495E-07 1.074678E-07 -1
vn 1.682495E-07 1.074678E-07 -1
vn 0 0 -1
vn 0 0 -1
vn 0 0 -1
vn -1.925086E-07 1.009673E-07 -1
vn 0 0 -1
vn 0 0 -1
vn 1.936456E-07 0 -1
vn 1.936456E-07 0 -1
vn 1.936456E-07 0 -1
vn 0 0 -1
vn 0 0 1
vn 0 0 1
vn 0 0 1
vn 0 0 1
vn 0 0 1
vn 7.934332E-07 3.50059E-07 1
vn 0 0 1
vn 2.304554E-07 3.532998E-07 1
vn 7.934332E-07 3.500589E-07 1
vn -2.41904E-07 0 1
vn -4.053401E-07 0 1
vn -2.41904E-07 0 1
vn -2.41904E-07 0 1
vn 0 0 1
vn 0 0 1
vn 0 0 1
vn 0 0 1
vn -1.099754E-07 0 1
vn 0 0 1
vn 0 0 1
vn 0 0 1
vn 0 -2.027525E-07 1
vn 0 0 1
vn 0 0 1
vn 0 0 1
vn 0 0 1
vn 0 2.143237E-07 1
vn 0 2.143237E-07 1
vn 0 2.143237E-07 1
vn -1.258156E-07 0 1
vn 1.292004E-07 1.702846E-07 1
vn 0 0 1
vn 1.383246E-07 0 1
vn 0 0 1
vn 0 0 1
vn 0 0 1
vn 0 0 1
vn 0 0 1
vn 0 0 1
vn 0 0 1
vn 0 0 1
vn 2.082613E-07 0 1
vn 2.082613E-07 0 1
vn 0 0 1
vn 0 0 1
vn 0 0 1
vn -3.540719E-07 0 1
vn -1 0 0
vn -1 0 0
vn -1 0 0
vn -1 0 0
vn 3.265926E-07 -1 0
vn 3.265926E-07 -1 0
vn 3.265926E-07 -1 0
vn 3.265926E-07 -1 0
vn 0.3490911 0.9370888 0
vn 0.4827491 0.8757587 0
vn 0.4827491 0.8757587 0
vn 0.3490911 0.9370888 0
vn 0.8437968 0.5366628 0
vn 0.8437968 0.5366627 0
vn 0.09272424 0.9956918 0
vn 0.09272423 0.9956918 0
vn 0.01416252 0.9998997 0
vn 0.01416252 0.9998997 0
vn -0.0291309 0.9995756 0
vn -0.0291309 0.9995756 0
vn 0.9543592 0.2986615 0
vn 0.9543592 0.2986615 0
vn 0.9999969 0.002513129 0
vn 0.9999969 0.002513129 0
vn 0.9576722 -0.2878609 0
vn 0.9576722 -0.2878609 0
vn 0.8493382 -0.5278491 0
vn 0.8493382 -0.527849 0
vn 0.5192831 -0.8546023 0
vn 0.5192831 -0.8546023 0
vn 0.3164497 -0.9486093 0
vn 0.3164497 -0.9486093 0
vn 0.01607034 -0.9998709 0
vn 0.01607034 -0.9998709 0
vn -0.1652287 -0.9862553 0
vn -0.1652287 -0.9862553 0
vn -0.3512683 -0.9362749 0
vn -0.3512683 -0.9362749 0
vn -0.481823 -0.8762686 0
vn -0.481823 -0.8762685 0
vn -0.5307189 -0.8475479 0
vn -0.5307189 -0.8475479 0
vn -0.7969908 -0.6039914 0
vn -0.6142535 -0.7891088 0
vn -0.6142535 -0.7891088 0
vn -0.7969908 -0.6039914 0
vn -0.4061539 -0.9138047 0
vn -0.4061539 -0.9138047 0
vn -0.2131207 -0.9770258 0
vn -0.2131207 -0.9770258 0
vn -0.09713013 -0.9952717 0
vn -0.09713013 -0.9952717 0
vn -0.9312222 -0.364452 0
vn -0.9312222 -0.364452 0
vn -0.9876586 -0.156622 0
vn -0.9876586 -0.156622 0
vn -0.9999981 0.001968778 0
vn -0.9999981 0.001968778 0
vn -0.9855937 0.1691302 0
vn -0.9855937 0.1691302 0
vn -0.9254546 0.3788587 0
vn -0.9254546 0.3788587 0
vn -0.792956 0.6092788 0
vn -0.792956 0.6092789 0
vn -0.6213059 0.7835681 0
vn -0.6213059 0.7835681 0
vn -0.4125383 0.9109402 -2.113121E-07
vn -0.4125383 0.9109402 -2.113121E-07
vn -0.2238995 0.9746123 -3.312483E-07
vn -0.2238995 0.9746123 -3.312483E-07
vn -0.1058256 0.9943848 -2.352302E-07
vn -0.1058256 0.9943848 -2.352302E-07
vn 0.01356901 0.999908 0
vn 0.01356901 0.999908 0
vn 0.09953324 0.9950342 0
vn 0.09953324 0.9950342 0
vn 0.228317 0.9735869 -2.23337E-07
vn 0.228317 0.9735869 -2.23337E-07
vn 0.3362779 0.9417628 -1.439945E-07
vn 0.3362779 0.9417628 -1.439945E-07
vn 0.3756065 0.9267792 0
vn 0.3756065 0.9267792 0
vn 0.1991487 -0.9799693 0
vn 0.2663354 -0.9638804 0
vn 0.2663354 -0.9638804 0
vn 0.1991487 -0.9799693 0
vn 0.2994881 -0.9541001 1.459118E-07
vn 0.2994881 -0.9541001 1.459118E-07
vn 0.1131079 -0.9935827 0
vn 0.1131079 -0.9935827 0
vn 0.03436507 -0.9994093 0
vn 0.03436507 -0.9994093 0
vn 0 1 0
vn 0 1 0
vn 0 1 0
vn 0 1 0
vn 1 0 0
vn 1 0 0
vn 1 0 0
vn 1 0 0
vn 1 0 0
vn 1 0 0
vn -1 0 0
vn -1 0 0
vn -1 0 0
vn -1 0 0
vn 1 0 0
vn 1 0 0
vn 1 0 0
vn 1 0 0
g merge2d_element_text_7_0
f 3/3/3 2/2/2 1/1/1
f 1/1/1 4/4/4 3/3/3
f 5/5/5 3/3/3 4/4/4
f 3/3/3 5/5/5 6/6/6
f 5/5/5 7/7/7 6/6/6
f 6/6/6 7/7/7 8/8/8
f 9/9/9 6/6/6 8/8/8
f 9/9/9 10/10/10 6/6/6
f 11/11/11 10/10/10 9/9/9
f 11/11/11 12/12/12 10/10/10
f 12/12/12 13/13/13 10/10/10
f 12/12/12 14/14/14 13/13/13
f 15/15/15 14/14/14 12/12/12
f 16/16/16 14/14/14 15/15/15
f 16/16/16 15/15/15 17/17/17
f 16/16/16 17/17/17 18/18/18
f 18/18/18 19/19/19 16/16/16
f 20/20/20 19/19/19 18/18/18
f 19/19/19 20/20/20 21/21/21
f 22/22/22 19/19/19 21/21/21
f 23/23/23 19/19/19 22/22/22
f 24/24/24 23/23/23 22/22/22
f 23/23/23 24/24/24 25/25/25
f 24/24/24 26/26/26 25/25/25
f 25/25/25 26/26/26 27/27/27
f 27/27/27 28/28/28 25/25/25
f 27/27/27 29/29/29 28/28/28
f 30/30/30 28/28/28 29/29/29
f 28/28/28 30/30/30 31/31/31
f 31/31/31 30/30/30 32/32/32
f 31/31/31 32/32/32 33/33/33
f 32/32/32 34/34/34 33/33/33
f 33/33/33 34/34/34 35/35/35
f 33/33/33 35/35/35 36/36/36
f 35/35/35 37/37/37 36/36/36
f 38/38/38 36/36/36 37/37/37
f 39/39/39 36/36/36 38/38/38
f 38/38/38 40/40/40 39/39/39
f 40/40/40 41/41/41 39/39/39
f 40/40/40 42/42/42 41/41/41
f 40/40/40 43/43/43 42/42/42
f 42/42/42 43/43/43 44/44/44
f 44/44/44 45/45/45 42/42/42
f 44/44/44 46/46/46 45/45/45
f 46/46/46 47/47/47 45/45/45
f 50/50/50 49/49/49 48/48/48
f 51/51/51 48/48/48 49/49/49
f 49/49/49 52/52/52 51/51/51
f 52/52/52 49/49/49 53/53/53
f 54/54/54 52/52/52 53/53/53
f 54/54/54 53/53/53 55/55/55
f 53/53/53 56/56/56 55/55/55
f 57/57/57 56/56/56 53/53/53
f 57/57/57 58/58/58 56/56/56
f 59/59/59 58/58/58 57/57/57
f 60/60/60 59/59/59 57/57/57
f 61/61/61 59/59/59 60/60/60
f 61/61/61 62/62/62 59/59/59
f 61/61/61 63/63/63 62/62/62
f 62/62/62 63/63/63 64/64/64
f 64/64/64 63/63/63 65/65/65
f 66/66/66 65/65/65 63/63/63
f 66/66/66 67/67/67 65/65/65
f 67/67/67 66/66/66 68/68/68
f 66/66/66 69/69/69 68/68/68
f 66/66/66 70/70/70 69/69/69
f 70/70/70 71/71/71 69/69/69
f 71/71/71 70/70/70 72/72/72
f 73/73/73 71/71/71 72/72/72
f 73/73/73 72/72/72 74/74/74
f 75/75/75 74/74/74 72/72/72
f 76/76/76 74/74/74 75/75/75
f 75/75/75 77/77/77 76/76/76
f 77/77/77 75/75/75 78/78/78
f 77/77/77 78/78/78 79/79/79
f 79/79/79 78/78/78 80/80/80
f 81/81/81 79/79/79 80/80/80
f 81/81/81 80/80/80 82/82/82
f 82/82/82 80/80/80 83/83/83
f 84/84/84 82/82/82 83/83/83
f 83/83/83 85/85/85 84/84/84
f 83/83/83 86/86/86 85/85/85
f 87/87/87 85/85/85 86/86/86
f 88/88/88 87/87/87 86/86/86
f 89/89/89 87/87/87 88/88/88
f 90/90/90 87/87/87 89/89/89
f 90/90/90 89/89/89 91/91/91
f 92/92/92 91/91/91 89/89/89
f 93/93/93 91/91/91 92/92/92
f 94/94/94 93/93/93 92/92/92
f 97/97/97 96/96/96 95/95/95
f 98/98/98 97/97/97 95/95/95
f 101/101/101 100/100/100 99/99/99
f 102/102/102 101/101/101 99/99/99
f 105/105/105 104/104/104 103/103/103
f 106/106/106 105/105/105 103/103/103
f 105/105/105 107/107/107 104/104/104
f 107/107/107 108/108/108 104/104/104
f 106/106/106 103/103/103 109/109/109
f 110/110/110 106/106/106 109/109/109
f 110/110/110 109/109/109 111/111/111
f 112/112/112 110/110/110 111/111/111
f 112/112/112 111/111/111 113/113/113
f 114/114/114 112/112/112 113/113/113
f 107/107/107 115/115/115 108/108/108
f 115/115/115 116/116/116 108/108/108
f 115/115/115 117/117/117 116/116/116
f 117/117/117 118/118/118 116/116/116
f 117/117/117 119/119/119 118/118/118
f 119/119/119 120/120/120 118/118/118
f 119/119/119 121/121/121 120/120/120
f 121/121/121 122/122/122 120/120/120
f 121/121/121 123/123/123 122/122/122
f 123/123/123 124/124/124 122/122/122
f 123/123/123 125/125/125 124/124/124
f 125/125/125 126/126/126 124/124/124
f 125/125/125 127/127/127 126/126/126
f 127/127/127 128/128/128 126/126/126
f 127/127/127 129/129/129 128/128/128
f 129/129/129 130/130/130 128/128/128
f 129/129/129 131/131/131 130/130/130
f 131/131/131 132/132/132 130/130/130
f 131/131/131 133/133/133 132/132/132
f 133/133/133 134/134/134 132/132/132
f 133/133/133 135/135/135 134/134/134
f 135/135/135 136/136/136 134/134/134
f 139/139/139 138/138/138 137/137/137
f 140/140/140 139/139/139 137/137/137
f 139/139/139 141/141/141 138/138/138
f 141/141/141 142/142/142 138/138/138
f 141/141/141 143/143/143 142/142/142
f 143/143/143 144/144/144 142/142/142
f 143/143/143 145/145/145 144/144/144
f 145/145/145 146/146/146 144/144/144
f 140/140/140 137/137/137 147/147/147
f 148/148/148 140/140/140 147/147/147
f 148/148/148 147/147/147 149/149/149
f 150/150/150 148/148/148 149/149/149
f 150/150/150 149/149/149 151/151/151
f 152/152/152 150/150/150 151/151/151
f 152/152/152 151/151/151 153/153/153
f 154/154/154 152/152/152 153/153/153
f 154/154/154 153/153/153 155/155/155
f 156/156/156 154/154/154 155/155/155
f 156/156/156 155/155/155 157/157/157
f 158/158/158 156/156/156 157/157/157
f 158/158/158 157/157/157 159/159/159
f 160/160/160 158/158/158 159/159/159
f 160/160/160 159/159/159 161/161/161
f 162/162/162 160/160/160 161/161/161
f 162/162/162 161/161/161 163/163/163
f 164/164/164 162/162/162 163/163/163
f 164/164/164 163/163/163 165/165/165
f 166/166/166 164/164/164 165/165/165
f 166/166/166 165/165/165 167/167/167
f 168/168/168 166/166/166 167/167/167
f 168/168/168 167/167/167 169/169/169
f 170/170/170 168/168/168 169/169/169
f 170/170/170 169/169/169 171/171/171
f 172/172/172 170/170/170 171/171/171
f 172/172/172 171/171/171 173/173/173
f 174/174/174 172/172/172 173/173/173
f 174/174/174 173/173/173 175/175/175
f 176/176/176 174/174/174 175/175/175
f 179/179/179 178/178/178 177/177/177
f 180/180/180 179/179/179 177/177/177
f 179/179/179 181/181/181 178/178/178
f 181/181/181 182/182/182 178/178/178
f 180/180/180 177/177/177 183/183/183
f 184/184/184 180/180/180 183/183/183
f 184/184/184 183/183/183 185/185/185
f 186/186/186 184/184/184 185/185/185
f 186/186/186 185/185/185 146/146/146
f 145/145/145 186/186/186 146/146/146
f 189/189/189 188/188/188 187/187/187
f 190/190/190 189/189/189 187/187/187
f 193/193/193 192/192/192 191/191/191
f 194/194/194 193/193/193 191/191/191
f 193/193/193 195/195/195 192/192/192
f 195/195/195 196/196/196 192/192/192
f 199/199/199 198/198/198 197/197/197
f 200/200/200 199/199/199 197/197/197
f 203/203/203 202/202/202 201/201/201
f 204/204/204 203/203/203 201/201/201
