g merge3d_element_tree_2
v 0.006954404 -0.6106291 0.0004575348
v 0.03477088 -0.6115643 0.03643486
v 0.05207033 -0.6112939 0.006223831
v 0.03824079 -0.6101691 0.04092338
v 0.05768545 -0.6098648 0.006963958
v 0.04081854 -0.6061245 0.04425644
v 0.06183442 -0.6057952 0.007554092
v 0.001178147 -0.6112875 0.04557068
v 0.0004801543 -0.6098574 0.05119087
v 7.52526E-06 -0.6057876 0.05535469
v -0.0290323 -0.610625 0.02827911
v -0.03347643 -0.6091131 0.03175438
v -0.03669202 -0.604983 0.03434776
v -0.03816077 -0.6099651 -0.005311737
v -0.04373766 -0.6083711 -0.006002808
v -0.0477823 -0.6041812 -0.006458435
v -0.0208617 -0.6096939 -0.03552277
v -0.024293 -0.6080663 -0.03996071
v -0.02676642 -0.6038521 -0.04316154
v 0.01346727 -0.6083779 -0.05022964
v 0.01273178 -0.6099712 -0.04465858
v 0.0140446 -0.6041888 -0.0542575
v 0.04294148 -0.6106339 -0.02736549
v 0.04742422 -0.6091225 -0.03079323
v 0.05074488 -0.6049936 -0.03325211
v 0.04081854 -0.6061245 0.04425644
v 0.04597923 -0.271381 0.05087923
v 0.06757021 -0.2710428 0.01317295
v 0.06183442 -0.6057952 0.007554092
v 7.52526E-06 -0.6057876 0.05535469
v 0.004052167 -0.2710356 0.06228134
v -0.03669202 -0.604983 0.03434776
v -0.03365241 -0.2702086 0.04070001
v -0.0477823 -0.6041812 -0.006458435
v -0.04504566 -0.2693844 -0.001224251
v -0.02676642 -0.6038521 -0.04316154
v -0.02345541 -0.2690461 -0.03892979
v 0.0140446 -0.6041888 -0.0542575
v 0.01847239 -0.2693922 -0.05033192
v 0.05074488 -0.6049936 -0.03325211
v 0.05617549 -0.2702186 -0.02874985
v 0.06183442 -0.6057952 0.007554092
v 0.06757021 -0.2710428 0.01317295
v -0.1515455 -0.3190554 -0.2045993
v 0.04514535 -0.320567 -0.2648678
v 0.04586079 -0.2396845 -0.2611486
v -0.1490758 -0.2381864 -0.2014172
v 0.2194663 -0.2436126 -0.1543026
v 0.220313 -0.3245314 -0.1570608
v 0.04725567 -0.01341484 -0.2459953
v -0.1393158 -0.01198097 -0.1888279
v 0.2751062 -0.2474681 0.04009363
v 0.2764542 -0.3284204 0.03908386
v 0.2666633 -0.02086511 0.0423186
v 0.2134107 -0.01717518 -0.1437353
v -0.2553043 -0.320591 -0.02889461
v -0.2519083 -0.2397082 -0.02728226
v 0.1958293 0.2060862 -0.124339
v 0.04671732 0.2094603 -0.2161098
v 0.1664456 0.4251292 -0.0959269
v 0.04418859 0.427896 -0.1711715
v 0.1119711 0.5354444 -0.05094425
v 0.03512508 0.5578943 -0.08530284
v -0.09309091 0.428951 -0.1291067
v -0.04850926 0.5378077 -0.07145977
v 0.1248149 0.5548484 0.03255508
v 0.2056288 0.4224142 0.04097038
v -0.1655084 0.4278795 -0.006475487
v -0.2090412 0.20944 -0.01523668
v -0.1207173 0.2107471 -0.164806
v -0.08137281 0.5578851 0.006194
v 0.0221465 0.5900565 0.01992065
v 0.2436191 0.2027744 0.04263149
v -0.237735 -0.01343791 -0.0221645
v 0.2764542 -0.3284204 0.03908386
v 0.1726958 -0.3299568 0.2147889
v 0.1722737 -0.248991 0.2142304
v 0.2751062 -0.2474681 0.04009363
v -0.02266275 -0.2474924 0.2739611
v -0.02399487 -0.328445 0.2750579
v -0.196269 -0.2435637 0.1671151
v -0.1991631 -0.3244813 0.16725
v -0.0183274 -0.02088753 0.2661505
v 0.1682433 -0.02232141 0.2089828
v -0.2519083 -0.2397082 -0.02728226
v -0.2553043 -0.320591 -0.02889461
v -0.237735 -0.01343791 -0.0221645
v -0.1844834 -0.01712774 0.1638894
v -0.1612514 0.2061283 0.1517323
v -0.0121394 0.2027542 0.2435031
v -0.126325 0.4251644 0.1304229
v -0.004067934 0.4223975 0.2056668
v -0.06905919 0.5354664 0.089016
v 0.008316233 0.5548393 0.1240515
v 0.1332116 0.4213425 0.1636028
v 0.09142075 0.5331032 0.1095316
v 0.2056288 0.4224142 0.04097038
v 0.2436191 0.2027744 0.04263149
v 0.1552945 0.2014675 0.1921989
v 0.1248149 0.5548484 0.03255508
v -0.08137281 0.5578851 0.006194
v -0.1655084 0.4278795 -0.006475487
v 0.0221465 0.5900565 0.01992065
v 0.2666633 -0.02086511 0.0423186
v -0.2090412 0.20944 -0.01523668
v -0.1991631 -0.3244813 0.16725
v -0.02399487 -0.328445 0.2750579
v 0.01057505 -0.324506 0.005094643
v -0.2553043 -0.320591 -0.02889461
v 0.2764542 -0.3284204 0.03908386
v 0.1726958 -0.3299568 0.2147889
v 0.04514535 -0.320567 -0.2648678
v -0.1515455 -0.3190554 -0.2045993
v 0.220313 -0.3245314 -0.1570608
vt 0.8924243 0.6099908
vt 0.885954 0.6164612
vt 0.8924243 0.6191423
vt 0.8851526 0.6172625
vt 0.8924243 0.6202741
vt 0.8843451 0.6180698
vt 0.8924243 0.6214158
vt 0.8832746 0.6099908
vt 0.882141 0.6099908
vt 0.8809993 0.6099908
vt 0.885954 0.6035203
vt 0.8851526 0.602719
vt 0.8843451 0.6019116
vt 0.8924243 0.6008392
vt 0.8924243 0.5997074
vt 0.8924243 0.5985657
vt 0.8988947 0.6035203
vt 0.8996961 0.602719
vt 0.9005034 0.6019116
vt 0.9027077 0.6099908
vt 0.9015739 0.6099908
vt 0.9038494 0.6099908
vt 0.8988947 0.6164612
vt 0.8996961 0.6172625
vt 0.9005034 0.6180698
vt 0.8139051 0.6183548
vt 0.8132104 0.5507046
vt 0.804437 0.5508095
vt 0.805365 0.6184558
vt 0.8224393 0.6182815
vt 0.8219763 0.5506314
vt 0.8309695 0.6182401
vt 0.830736 0.5505879
vt 0.8394957 0.6182261
vt 0.8394957 0.5505741
vt 0.8480221 0.6182401
vt 0.8482555 0.5505879
vt 0.8565522 0.6182815
vt 0.8570153 0.5506314
vt 0.8650866 0.6183548
vt 0.8657809 0.5507046
vt 0.8736264 0.6184558
vt 0.8745545 0.5508095
vt 0.8766302 0.6409517
vt 0.8341354 0.6391292
vt 0.8341434 0.6553626
vt 0.8757734 0.6572523
vt 0.7925133 0.6572859
vt 0.7916446 0.6409833
vt 0.834161 0.7003981
vt 0.8732921 0.7027605
vt 0.7516567 0.6612869
vt 0.7502302 0.6448419
vt 0.756378 0.7080319
vt 0.795032 0.7027923
vt 0.9180448 0.6447765
vt 0.9166358 0.6612216
vt 0.7994111 0.7474183
vt 0.834177 0.7439892
vt 0.8077573 0.7906985
vt 0.8341968 0.7863177
vt 0.8172767 0.8146964
vt 0.8342107 0.8151317
vt 0.8606424 0.7906749
vt 0.8511446 0.8146807
vt 0.8077356 0.8288403
vt 0.7826455 0.8021019
vt 0.885762 0.8020564
vt 0.9028955 0.7553884
vt 0.8689487 0.7473886
vt 0.8606956 0.8288165
vt 0.8342205 0.8360131
vt 0.7654721 0.755446
vt 0.9119483 0.7079707
vt 0.7334486 0.6448419
vt 0.6920344 0.6409833
vt 0.6911656 0.6572859
vt 0.7320222 0.6612869
vt 0.6495353 0.6553626
vt 0.6495434 0.6391292
vt 0.6079054 0.6572523
vt 0.6070486 0.6409517
vt 0.6495175 0.7003981
vt 0.6886466 0.7027923
vt 0.5670431 0.6612216
vt 0.5656341 0.6447765
vt 0.5717306 0.7079707
vt 0.6103864 0.7027605
vt 0.6147299 0.7473886
vt 0.6495017 0.7439892
vt 0.6230365 0.7906749
vt 0.6494821 0.7863177
vt 0.6325343 0.8146807
vt 0.6494682 0.8151317
vt 0.6759216 0.7906985
vt 0.6664019 0.8146964
vt 0.7010334 0.8021019
vt 0.7182068 0.755446
vt 0.6842678 0.7474183
vt 0.6759433 0.8288403
vt 0.6229833 0.8288165
vt 0.5979168 0.8020564
vt 0.6494583 0.8360131
vt 0.7273008 0.7080319
vt 0.5807832 0.7553884
vt 0.6944423 0.5278901
vt 0.6773264 0.5657645
vt 0.7323188 0.5657645
vt 0.7323188 0.5116033
vt 0.7323188 0.6199259
vt 0.6944443 0.6036409
vt 0.7873112 0.5657645
vt 0.7701954 0.5278901
vt 0.7701932 0.6036409
vn -0.01265163 -0.9997887 -0.01620636
vn 0.03696642 -0.9981642 0.04797605
vn 0.06780315 -0.9976814 -0.005874712
vn 0.3313827 -0.8404415 0.4287699
vn 0.5439912 -0.8371214 0.05745774
vn 0.6112831 -0.03459299 0.7906556
vn 0.9915459 -0.02863841 0.1265563
vn -0.02290463 -0.9976701 0.06426294
vn -0.08149363 -0.8370414 0.5410365
vn -0.1271623 -0.02850511 0.9914723
vn -0.07675201 -0.9964893 0.03344261
vn -0.4527686 -0.8289041 0.3285098
vn -0.7912301 -0.01394131 0.6113595
vn -0.09302264 -0.9953129 -0.02643919
vn -0.564969 -0.8207899 -0.08434306
vn -0.9919013 0.0005678959 -0.1270093
vn -0.06219583 -0.994829 -0.08029292
vn -0.3523823 -0.8174487 -0.4556362
vn -0.6116278 0.006522277 -0.7911189
vn 0.06049984 -0.8208498 -0.5679308
vn -0.002314822 -0.9953232 -0.09657345
vn 0.1268171 0.0004334983 -0.991926
vn 0.05153842 -0.9965044 -0.0657478
vn 0.4317868 -0.8290051 -0.3554022
vn 0.790869 -0.01412915 -0.6118225
vn 0.6112831 -0.03459299 0.7906556
vn 0.6114581 -0.02507447 0.7908794
vn 0.9917542 -0.01911862 0.1267208
vn 0.9915459 -0.02863841 0.1265563
vn -0.1271623 -0.02850511 0.9914723
vn -0.1270512 -0.01898563 0.9917144
vn -0.7912301 -0.01394131 0.6113595
vn -0.7911795 -0.004419422 0.611568
vn -0.9919013 0.0005678959 -0.1270093
vn -0.991868 0.01009063 -0.1268703
vn -0.6116278 0.006522277 -0.7911189
vn -0.6115632 0.01604397 -0.7910329
vn 0.1268171 0.0004334983 -0.991926
vn 0.126948 0.009954784 -0.9918595
vn 0.790869 -0.01412915 -0.6118225
vn 0.791059 -0.00460865 -0.6117225
vn 0.9915459 -0.02863841 0.1265563
vn 0.9917542 -0.01911862 0.1267208
vn -0.2408532 -0.9207968 -0.3067948
vn 0.03653033 -0.9193925 -0.3916413
vn 0.127447 0.05975896 -0.9900435
vn -0.616329 0.06467685 -0.7848284
vn 0.7955206 0.04388789 -0.604335
vn 0.2834962 -0.9285172 -0.2397616
vn 0.1276145 0.09673015 -0.9870956
vn -0.6144795 0.1007778 -0.7824696
vn 0.9913975 0.03003245 0.1273933
vn 0.3598367 -0.9324501 0.03247172
vn 0.9895784 0.06655276 0.1276918
vn 0.7941839 0.08003346 -0.6023842
vn -0.3832922 -0.9215083 -0.0625257
vn -0.9902679 0.05921315 -0.1259496
vn 0.7891907 0.1445425 -0.5968965
vn 0.127476 0.1626884 -0.9784081
vn 0.7664872 0.284093 -0.5760109
vn 0.1252246 0.3034404 -0.9445859
vn 0.6207636 0.638391 -0.4550929
vn 0.09685142 0.7331512 -0.6731338
vn -0.5884071 0.3040425 -0.7492231
vn -0.4675804 0.654416 -0.5942292
vn 0.6953018 0.7118075 0.09942514
vn 0.9538829 0.2723972 0.1261238
vn -0.9466358 0.3003824 -0.1168383
vn -0.9793018 0.160701 -0.1230582
vn -0.6091616 0.165134 -0.7756629
vn -0.6770322 0.7320167 -0.07601883
vn 0.01265103 0.9997886 0.01620772
vn 0.9830024 0.1318054 0.1278033
vn -0.9875258 0.09566667 -0.1250625
vn 0.3598367 -0.9324501 0.03247172
vn 0.2173603 -0.9360539 0.2766905
vn 0.6174476 0.02359713 0.7862579
vn 0.9913975 0.03003245 0.1273933
vn -0.1263027 0.03084635 0.991512
vn -0.0599337 -0.9303844 0.361653
vn -0.7944048 0.04438817 0.6057646
vn -0.306989 -0.9283319 0.2096608
vn -0.1255328 0.06788531 0.9897642
vn 0.6165116 0.05978952 0.7850723
vn -0.9902679 0.05921315 -0.1259496
vn -0.3832922 -0.9215083 -0.0625257
vn -0.9875258 0.09566667 -0.1250625
vn -0.792153 0.08053157 0.6049861
vn -0.7855262 0.1450375 0.6015918
vn -0.1237214 0.1340659 0.9832188
vn -0.759291 0.2845735 0.5852309
vn -0.1178964 0.2757375 0.9539755
vn -0.6046022 0.6388066 0.4757965
vn -0.07854951 0.7131686 0.6965777
vn 0.5956013 0.2646207 0.7584424
vn 0.4837375 0.6227812 0.6149322
vn 0.9538829 0.2723972 0.1261238
vn 0.9830024 0.1318054 0.1278033
vn 0.6128252 0.1244467 0.7803578
vn 0.6953018 0.7118075 0.09942514
vn -0.6770322 0.7320167 -0.07601883
vn -0.9466358 0.3003824 -0.1168383
vn 0.01265103 0.9997886 0.01620772
vn 0.9895784 0.06655276 0.1276918
vn -0.9793018 0.160701 -0.1230582
vn -0.306989 -0.9283319 0.2096608
vn -0.0599337 -0.9303844 0.361653
vn -0.01264946 -0.9997887 -0.01620769
vn -0.3832922 -0.9215083 -0.0625257
vn 0.3598367 -0.9324501 0.03247172
vn 0.2173603 -0.9360539 0.2766905
vn 0.03653033 -0.9193925 -0.3916413
vn -0.2408532 -0.9207968 -0.3067948
vn 0.2834962 -0.9285172 -0.2397616
g merge3d_element_tree_2_0
f 3/3/3 2/2/2 1/1/1
f 4/4/4 2/2/2 3/3/3
f 5/5/5 4/4/4 3/3/3
f 6/6/6 4/4/4 5/5/5
f 7/7/7 6/6/6 5/5/5
f 2/2/2 8/8/8 1/1/1
f 9/9/9 8/8/8 2/2/2
f 4/4/4 9/9/9 2/2/2
f 10/10/10 9/9/9 4/4/4
f 6/6/6 10/10/10 4/4/4
f 8/8/8 11/11/11 1/1/1
f 12/12/12 11/11/11 8/8/8
f 9/9/9 12/12/12 8/8/8
f 13/13/13 12/12/12 9/9/9
f 10/10/10 13/13/13 9/9/9
f 11/11/11 14/14/14 1/1/1
f 15/15/15 14/14/14 11/11/11
f 12/12/12 15/15/15 11/11/11
f 16/16/16 15/15/15 12/12/12
f 13/13/13 16/16/16 12/12/12
f 14/14/14 17/17/17 1/1/1
f 18/18/18 17/17/17 14/14/14
f 15/15/15 18/18/18 14/14/14
f 19/19/19 18/18/18 15/15/15
f 16/16/16 19/19/19 15/15/15
f 18/18/18 20/20/20 17/17/17
f 20/20/20 21/21/21 17/17/17
f 17/17/17 21/21/21 1/1/1
f 22/22/22 20/20/20 18/18/18
f 19/19/19 22/22/22 18/18/18
f 21/21/21 23/23/23 1/1/1
f 24/24/24 23/23/23 21/21/21
f 20/20/20 24/24/24 21/21/21
f 25/25/25 24/24/24 20/20/20
f 22/22/22 25/25/25 20/20/20
f 23/23/23 3/3/3 1/1/1
f 5/5/5 3/3/3 23/23/23
f 24/24/24 5/5/5 23/23/23
f 7/7/7 5/5/5 24/24/24
f 25/25/25 7/7/7 24/24/24
f 28/28/28 27/27/27 26/26/26
f 29/29/29 28/28/28 26/26/26
f 26/26/26 27/27/27 30/30/30
f 27/27/27 31/31/31 30/30/30
f 30/30/30 31/31/31 32/32/32
f 31/31/31 33/33/33 32/32/32
f 32/32/32 33/33/33 34/34/34
f 33/33/33 35/35/35 34/34/34
f 34/34/34 35/35/35 36/36/36
f 35/35/35 37/37/37 36/36/36
f 36/36/36 37/37/37 38/38/38
f 37/37/37 39/39/39 38/38/38
f 38/38/38 39/39/39 40/40/40
f 39/39/39 41/41/41 40/40/40
f 40/40/40 41/41/41 42/42/42
f 41/41/41 43/43/43 42/42/42
f 46/46/46 45/45/45 44/44/44
f 47/47/47 46/46/46 44/44/44
f 46/46/46 48/48/48 45/45/45
f 48/48/48 49/49/49 45/45/45
f 50/50/50 46/46/46 47/47/47
f 51/51/51 50/50/50 47/47/47
f 48/48/48 52/52/52 49/49/49
f 52/52/52 53/53/53 49/49/49
f 54/54/54 52/52/52 48/48/48
f 55/55/55 54/54/54 48/48/48
f 46/46/46 50/50/50 55/55/55
f 48/48/48 46/46/46 55/55/55
f 47/47/47 44/44/44 56/56/56
f 57/57/57 47/47/47 56/56/56
f 47/47/47 57/57/57 51/51/51
f 55/55/55 50/50/50 58/58/58
f 50/50/50 59/59/59 58/58/58
f 59/59/59 50/50/50 51/51/51
f 60/60/60 58/58/58 59/59/59
f 61/61/61 60/60/60 59/59/59
f 62/62/62 60/60/60 61/61/61
f 63/63/63 62/62/62 61/61/61
f 63/63/63 61/61/61 64/64/64
f 65/65/65 63/63/63 64/64/64
f 62/62/62 66/66/66 60/60/60
f 66/66/66 62/62/62 63/63/63
f 66/66/66 67/67/67 60/60/60
f 60/60/60 67/67/67 58/58/58
f 65/65/65 64/64/64 68/68/68
f 68/68/68 64/64/64 69/69/69
f 64/64/64 70/70/70 69/69/69
f 61/61/61 59/59/59 70/70/70
f 64/64/64 61/61/61 70/70/70
f 71/71/71 65/65/65 68/68/68
f 72/72/72 63/63/63 65/65/65
f 71/71/71 72/72/72 65/65/65
f 72/72/72 66/66/66 63/63/63
f 67/67/67 73/73/73 58/58/58
f 74/74/74 69/69/69 70/70/70
f 51/51/51 74/74/74 70/70/70
f 70/70/70 59/59/59 51/51/51
f 57/57/57 74/74/74 51/51/51
f 73/73/73 54/54/54 55/55/55
f 58/58/58 73/73/73 55/55/55
f 77/77/77 76/76/76 75/75/75
f 78/78/78 77/77/77 75/75/75
f 77/77/77 79/79/79 76/76/76
f 79/79/79 80/80/80 76/76/76
f 79/79/79 81/81/81 80/80/80
f 81/81/81 82/82/82 80/80/80
f 83/83/83 79/79/79 77/77/77
f 84/84/84 83/83/83 77/77/77
f 77/77/77 78/78/78 84/84/84
f 81/81/81 85/85/85 82/82/82
f 85/85/85 86/86/86 82/82/82
f 87/87/87 85/85/85 81/81/81
f 88/88/88 87/87/87 81/81/81
f 79/79/79 83/83/83 88/88/88
f 81/81/81 79/79/79 88/88/88
f 88/88/88 83/83/83 89/89/89
f 83/83/83 90/90/90 89/89/89
f 90/90/90 83/83/83 84/84/84
f 91/91/91 89/89/89 90/90/90
f 92/92/92 91/91/91 90/90/90
f 93/93/93 91/91/91 92/92/92
f 94/94/94 93/93/93 92/92/92
f 94/94/94 92/92/92 95/95/95
f 96/96/96 94/94/94 95/95/95
f 96/96/96 95/95/95 97/97/97
f 97/97/97 95/95/95 98/98/98
f 95/95/95 99/99/99 98/98/98
f 92/92/92 90/90/90 99/99/99
f 95/95/95 92/92/92 99/99/99
f 99/99/99 90/90/90 84/84/84
f 100/100/100 96/96/96 97/97/97
f 93/93/93 101/101/101 91/91/91
f 93/93/93 94/94/94 101/101/101
f 101/101/101 102/102/102 91/91/91
f 91/91/91 102/102/102 89/89/89
f 94/94/94 103/103/103 101/101/101
f 96/96/96 100/100/100 103/103/103
f 94/94/94 96/96/96 103/103/103
f 104/104/104 98/98/98 99/99/99
f 84/84/84 104/104/104 99/99/99
f 78/78/78 104/104/104 84/84/84
f 102/102/102 105/105/105 89/89/89
f 89/89/89 105/105/105 88/88/88
f 105/105/105 87/87/87 88/88/88
f 108/108/108 107/107/107 106/106/106
f 109/109/109 108/108/108 106/106/106
f 108/108/108 110/110/110 107/107/107
f 110/110/110 111/111/111 107/107/107
f 112/112/112 108/108/108 109/109/109
f 113/113/113 112/112/112 109/109/109
f 114/114/114 110/110/110 108/108/108
f 112/112/112 114/114/114 108/108/108
