g merge3d_element_fruit_3
v 0.06912103 0.5408093 -0.04236523
v -0.007853384 0.3484177 0.07704023
v -0.06775064 0.3456286 0.003017006
v 0.1424809 0.5317518 0.02493338
v 0.1972145 0.5949385 -0.08532902
v 0.2132524 0.5955658 -0.1843557
v 0.1152108 0.6092953 -0.1714863
v -0.004295578 0.548591 -0.1092894
v -0.05573194 0.3345558 -0.008744354
v 0.003863969 0.3366968 0.06559794
v 0.1501607 0.5167928 0.01470932
v 0.203637 0.5766186 -0.08884727
v 0.2154879 0.5775964 -0.1889805
v 0.1160392 0.5916668 -0.180394
v 0.003631964 0.5342777 -0.1198615
v 0.07703519 0.5252812 -0.05263504
v -0.05573194 0.3345558 -0.008744354
v 0.003863969 0.3366968 0.06559794
v 0.1501607 0.5167928 0.01470932
v 0.203637 0.5766186 -0.08884727
v 0.2154879 0.5775964 -0.1889805
v 0.1160392 0.5916668 -0.180394
v 0.003631964 0.5342777 -0.1198615
v -0.1138031 0.4120091 -0.05187725
v -0.002770295 0.3442551 -0.005692005
v -0.1132603 0.4120569 0.04172289
v -0.04888982 0.4121711 0.1054984
v 0.0447096 0.4122902 0.1049563
v -0.08252158 0.3812321 0.1483255
v 0.07869899 0.3814373 0.147311
v 0.08156484 0.3201371 0.19621
v -0.08455735 0.319925 0.1973121
v 0.2002532 0.3202279 0.07613638
v 0.1513368 0.3814934 0.07427261
v 0.259778 0.132272 0.1013233
v 0.1073167 0.1321551 0.2553622
v -0.1091303 0.1318797 0.2565741
v 0.1318055 -0.05734977 0.3130727
v -0.1326555 -0.05768717 0.3144083
v 0.1240397 -0.2438916 0.2941478
v -0.1246422 -0.2442071 0.2954268
v 0.09468638 -0.3929806 0.224021
v -0.09550043 -0.393223 0.2250467
v 0.05142075 -0.4311013 0.1211146
v -0.05333696 -0.4312352 0.1217431
v -0.001752453 -0.4535332 -0.005291901
v -0.1281996 -0.4313672 0.04789852
v -0.128549 -0.4314204 -0.05697678
v -0.2319178 -0.3935597 -0.09911217
v -0.2308936 -0.3934633 0.09107643
v -0.3028446 -0.2446476 -0.1280189
v -0.3012854 -0.2445216 0.120545
v -0.3221564 -0.05815394 -0.1358873
v -0.3205422 -0.05801933 0.1284551
v -0.2643803 0.1314963 -0.1123342
v -0.2631685 0.131607 0.1041144
v -0.2054533 0.3196284 -0.0876158
v -0.2046295 0.3197123 0.07862388
v -0.1565755 0.3810202 -0.08553281
v -0.1558395 0.3811019 0.07580566
v 0.2002532 0.3202279 0.07613638
v 0.1992681 0.3201435 -0.08970486
v 0.2584493 0.1321617 -0.1154027
v 0.259778 0.132272 0.1013233
v 0.3163071 -0.05734111 -0.1395535
v 0.317641 -0.05720694 0.1249067
v 0.12814 -0.05767409 -0.3253897
v 0.1045281 0.1318892 -0.2675853
v 0.120603 -0.2441972 -0.3062222
v 0.2975256 -0.2438833 -0.1314571
v -0.127962 -0.2445139 -0.3046639
v -0.1362039 -0.05801132 -0.3237754
v -0.0982286 -0.393457 -0.2343873
v 0.09223936 -0.3932142 -0.235529
v -0.2319178 -0.3935597 -0.09911217
v -0.3028446 -0.2446476 -0.1280189
v -0.128549 -0.4314204 -0.05697678
v -0.05498308 -0.4313641 -0.1317225
v -0.1121991 0.1316134 -0.2662555
v -0.3221564 -0.05815394 -0.1358873
v -0.2643803 0.1314963 -0.1123342
v 0.07919496 0.3199303 -0.2083943
v -0.08676458 0.3197197 -0.2076886
v 0.1502038 0.3814119 -0.08722857
v 0.1513368 0.3814934 0.07427261
v 0.07728362 0.3812817 -0.1595865
v 0.1079431 0.4122913 -0.05301365
v 0.1083679 0.4123389 0.04030552
v -0.002770295 0.3442551 -0.005692005
v -0.2054533 0.3196284 -0.0876158
v -0.08433401 0.381076 -0.1587328
v 0.04329283 0.4121778 -0.1166724
v -0.1565755 0.3810202 -0.08553281
v -0.05002733 0.4120585 -0.1162466
v -0.1138031 0.4120091 -0.05187725
v 0.1083679 0.4123389 0.04030552
v 0.317641 -0.05720694 0.1249067
v 0.2988046 -0.2437567 0.1172248
v 0.2286566 -0.3928778 0.0886285
v 0.1253839 -0.4310445 0.04653129
v 0.2988046 -0.2437567 0.1172248
v 0.2275143 -0.3929749 -0.1018393
v 0.2286566 -0.3928778 0.0886285
v 0.05017175 -0.4312299 -0.1321891
v 0.1246381 -0.4310979 -0.05850559
v -0.001752453 -0.4535332 -0.005291901
v 0.1253839 -0.4310445 0.04653129
vt 0.4965523 0.9004406
vt 0.5065163 0.8462376
vt 0.4853123 0.845633
vt 0.5195552 0.9004032
vt 0.5110048 0.9307854
vt 0.4970216 0.9486932
vt 0.481452 0.9323977
vt 0.4736036 0.899623
vt 0.4834671 0.8427855
vt 0.5080565 0.8435053
vt 0.523379 0.9004147
vt 0.5145693 0.93268
vt 0.4972143 0.9519173
vt 0.4780949 0.9343239
vt 0.4698147 0.8996374
vt 0.4394385 0.9023581
vt 0.4517807 0.8481607
vt 0.429621 0.8481692
vt 0.4159371 0.9019178
vt 0.4233074 0.9314362
vt 0.4380475 0.9496201
vt 0.455201 0.9337134
vt 0.4629802 0.9021333
vt 0.8993198 0.5899154
vt 0.8633437 0.5813274
vt 0.8860502 0.6064755
vt 0.8640203 0.6126164
vt 0.8422117 0.607388
vt 0.8608159 0.6249644
vt 0.8373635 0.6210086
vt 0.8261037 0.6354585
vt 0.8649068 0.6398923
vt 0.7919932 0.6183255
vt 0.8078623 0.5980916
vt 0.7649275 0.6672945
vt 0.8141066 0.6793864
vt 0.86548 0.6818106
vt 0.8089014 0.7235878
vt 0.866246 0.7216474
vt 0.8133698 0.7642308
vt 0.8669019 0.7579346
vt 0.8266046 0.7989836
vt 0.8674492 0.7908357
vt 0.8425114 0.8216041
vt 0.8678808 0.8145446
vt 0.8685057 0.8456293
vt 0.8935964 0.8206538
vt 0.909595 0.8390939
vt 0.9436653 0.8213447
vt 0.9086278 0.7975095
vt 0.9738979 0.7778631
vt 0.9205956 0.7622762
vt 0.9827247 0.7202021
vt 0.9235873 0.72146
vt 0.9654282 0.6636468
vt 0.9167693 0.6774144
vt 0.9370866 0.6156163
vt 0.90276 0.6339067
vt 0.9159806 0.6013105
vt 0.8978372 0.6166443
vt 0.6841599 0.6183255
vt 0.6500493 0.6354585
vt 0.662046 0.6793864
vt 0.7112253 0.6672945
vt 0.6672514 0.7235878
vt 0.7264266 0.7244543
vt 0.6099071 0.7216474
vt 0.6106731 0.6818106
vt 0.6092507 0.7579346
vt 0.662783 0.7642308
vt 0.5555571 0.7622762
vt 0.5525659 0.72146
vt 0.5675254 0.7975095
vt 0.608704 0.7908357
vt 0.5324875 0.8213447
vt 0.5022551 0.7778631
vt 0.5665579 0.8390939
vt 0.5825563 0.8206538
vt 0.5593835 0.6774144
vt 0.4934279 0.7202021
vt 0.5107253 0.6636468
vt 0.6112458 0.6398923
vt 0.5733926 0.6339067
vt 0.6387895 0.6210086
vt 0.6682907 0.5980916
vt 0.6153371 0.6249644
vt 0.633941 0.607388
vt 0.6488976 0.5914268
vt 0.6128091 0.5813274
vt 0.5390661 0.6156163
vt 0.5783158 0.6166443
vt 0.6121325 0.6126164
vt 0.5601722 0.6013105
vt 0.5901026 0.6064755
vt 0.576833 0.5899154
vt 0.827255 0.5914268
vt 0.7497262 0.7244543
vt 0.7606494 0.7817698
vt 0.792402 0.8241146
vt 0.8271084 0.8406025
vt 0.7155035 0.7817698
vt 0.6495484 0.7989836
vt 0.6837511 0.8241146
vt 0.6082718 0.8145446
vt 0.6336418 0.8216041
vt 0.6076469 0.8456293
vt 0.6490444 0.8406025
vn -0.4324448 0.7184041 0.5448734
vn -0.4520893 0.3630159 0.8147606
vn -0.8752094 0.3510384 0.3328373
vn -0.1326758 0.6153787 0.7769853
vn -0.05629799 0.9810922 0.1851719
vn 0.2169425 0.9759355 -0.0220426
vn -0.05508342 0.9797901 0.1922946
vn -0.687759 0.6631245 0.2953871
vn 0.2654655 -0.6830598 -0.6804096
vn 0.6836275 -0.7122803 -0.1590921
vn 0.719187 -0.6809184 -0.1382764
vn 0.6637433 -0.7445101 0.07176063
vn 0.3237402 -0.8198826 -0.4722126
vn -0.1894649 -0.6399572 -0.7446865
vn 0.03758733 -0.5580076 -0.8289841
vn 0.4332841 -0.7172053 -0.5457851
vn 0.2654655 -0.6830598 -0.6804096
vn 0.6836275 -0.7122803 -0.1590921
vn 0.719187 -0.6809184 -0.1382764
vn 0.6637433 -0.7445101 0.07176063
vn 0.3237402 -0.8198826 -0.4722126
vn -0.1894649 -0.6399572 -0.7446865
vn 0.03758733 -0.5580076 -0.8289841
vn -0.1627174 0.9863602 -0.02483087
vn -0.0009288192 0.9999994 -0.0005522072
vn -0.1620664 0.9864503 0.02550304
vn -0.02565821 0.9866198 0.1610056
vn 0.02494253 0.9866799 0.1607508
vn -0.2826841 0.6863307 0.6701044
vn 0.2884353 0.6866686 0.6673015
vn 0.3441695 0.38472 0.8564683
vn -0.3351461 0.383553 0.8605604
vn 0.8601754 0.3852841 0.3341474
vn 0.6696484 0.6869081 0.2823617
vn 0.8774608 0.3183374 0.3587809
vn 0.3683518 0.3180237 0.8736005
vn -0.3593635 0.3170398 0.8776922
vn 0.3859041 0.09873649 0.91724
vn -0.3763029 0.09796205 0.9213032
vn 0.3757944 -0.2500353 0.8923346
vn -0.3655853 -0.2511343 0.8962582
vn 0.3086073 -0.6076253 0.7318148
vn -0.2989615 -0.608524 0.7350649
vn 0.1137307 -0.9567152 0.2678831
vn -0.1083887 -0.9569529 0.2692453
vn 0.001216307 -0.9999992 0.0004763901
vn -0.266451 -0.9571896 0.1131015
vn -0.2677783 -0.9572758 -0.1091687
vn -0.7339177 -0.6098043 -0.2991716
vn -0.7305508 -0.6094207 0.3080618
vn -0.8959765 -0.252665 -0.3652211
vn -0.8918144 -0.2522174 0.3755707
vn -0.9216721 0.09684061 -0.3756891
vn -0.9173798 0.09718477 0.3859656
vn -0.8782468 0.3159506 -0.3589677
vn -0.8742366 0.3161518 0.368454
vn -0.8612933 0.3820469 -0.3349838
vn -0.8575526 0.3823438 0.3441173
vn -0.6712471 0.6853811 -0.2822766
vn -0.6681721 0.6858228 0.2884322
vn 0.8601754 0.3852841 0.3341474
vn 0.8562927 0.3848909 -0.3444153
vn 0.8732721 0.3181099 -0.3690554
vn 0.8774608 0.3183374 0.3587809
vn 0.9171646 0.09875964 -0.3860773
vn 0.9214611 0.0991215 0.375612
vn 0.3749973 0.09799716 -0.9218317
vn 0.3583837 0.3172481 -0.8780175
vn 0.3651581 -0.2511002 -0.8964419
vn 0.8925285 -0.2500117 -0.3753494
vn -0.3751231 -0.2521917 -0.8920102
vn -0.386141 0.09720808 -0.9173034
vn -0.3070033 -0.6094024 -0.7310115
vn 0.3001105 -0.6084995 -0.7346169
vn -0.7339177 -0.6098043 -0.2991716
vn -0.8959765 -0.252665 -0.3652211
vn -0.2677783 -0.9572758 -0.1091687
vn -0.1114406 -0.9571828 -0.2671742
vn -0.3691559 0.3162355 -0.8739102
vn -0.9216721 0.09684061 -0.3756891
vn -0.8782468 0.3159506 -0.3589677
vn 0.3339877 0.3837813 -0.8609089
vn -0.3443628 0.382513 -0.8573785
vn 0.6665611 0.6865647 -0.290388
vn 0.6696484 0.6869081 0.2823617
vn 0.281959 0.6859549 -0.6707944
vn 0.1606206 0.9866573 -0.0266138
vn 0.1598695 0.9868602 0.02342239
vn -0.0009288192 0.9999994 -0.0005522072
vn -0.8612933 0.3820469 -0.3349838
vn -0.2903747 0.685725 -0.6674308
vn 0.02259579 0.9866008 -0.1615804
vn -0.6712471 0.6853811 -0.2822766
vn -0.02718131 0.986427 -0.1619353
vn -0.1627174 0.9863602 -0.02483087
vn 0.1598695 0.9868602 0.02342239
vn 0.9214611 0.0991215 0.375612
vn 0.8967224 -0.2495684 0.3655193
vn 0.7357609 -0.6072192 0.2999013
vn 0.2697926 -0.95662 0.109956
vn 0.8967224 -0.2495684 0.3655193
vn 0.7322747 -0.6076068 -0.3075513
vn 0.7357609 -0.6072192 0.2999013
vn 0.1107355 -0.9569423 -0.2683264
vn 0.2686054 -0.9567086 -0.1120706
vn 0.001216307 -0.9999992 0.0004763901
vn 0.2697926 -0.95662 0.109956
g merge3d_element_fruit_3_0
f 3/3/3 2/2/2 1/1/1
f 2/2/2 4/4/4 1/1/1
f 5/5/5 1/1/1 4/4/4
f 6/6/6 1/1/1 5/5/5
f 6/6/6 7/7/7 1/1/1
f 8/8/8 1/1/1 7/7/7
f 3/3/3 1/1/1 8/8/8
f 2/2/2 3/3/3 9/9/9
f 10/10/10 2/2/2 9/9/9
f 4/4/4 2/2/2 10/10/10
f 11/11/11 4/4/4 10/10/10
f 5/5/5 4/4/4 11/11/11
f 12/12/12 5/5/5 11/11/11
f 6/6/6 5/5/5 12/12/12
f 13/13/13 6/6/6 12/12/12
f 7/7/7 6/6/6 13/13/13
f 14/14/14 7/7/7 13/13/13
f 8/8/8 7/7/7 14/14/14
f 15/15/15 8/8/8 14/14/14
f 3/3/3 8/8/8 15/15/15
f 9/9/9 3/3/3 15/15/15
f 18/18/18 17/17/17 16/16/16
f 19/19/19 18/18/18 16/16/16
f 16/16/16 20/20/20 19/19/19
f 16/16/16 21/21/21 20/20/20
f 22/22/22 21/21/21 16/16/16
f 16/16/16 23/23/23 22/22/22
f 16/16/16 17/17/17 23/23/23
f 26/26/26 25/25/25 24/24/24
f 27/27/27 25/25/25 26/26/26
f 27/27/27 28/28/28 25/25/25
f 27/27/27 29/29/29 28/28/28
f 29/29/29 30/30/30 28/28/28
f 30/30/30 29/29/29 31/31/31
f 29/29/29 32/32/32 31/31/31
f 31/31/31 33/33/33 30/30/30
f 33/33/33 34/34/34 30/30/30
f 33/33/33 31/31/31 35/35/35
f 31/31/31 36/36/36 35/35/35
f 36/36/36 31/31/31 32/32/32
f 37/37/37 36/36/36 32/32/32
f 38/38/38 36/36/36 37/37/37
f 39/39/39 38/38/38 37/37/37
f 40/40/40 38/38/38 39/39/39
f 41/41/41 40/40/40 39/39/39
f 42/42/42 40/40/40 41/41/41
f 43/43/43 42/42/42 41/41/41
f 44/44/44 42/42/42 43/43/43
f 45/45/45 44/44/44 43/43/43
f 44/44/44 45/45/45 46/46/46
f 46/46/46 45/45/45 47/47/47
f 46/46/46 47/47/47 48/48/48
f 48/48/48 47/47/47 49/49/49
f 47/47/47 50/50/50 49/49/49
f 45/45/45 43/43/43 50/50/50
f 47/47/47 45/45/45 50/50/50
f 49/49/49 50/50/50 51/51/51
f 50/50/50 52/52/52 51/51/51
f 43/43/43 41/41/41 52/52/52
f 50/50/50 43/43/43 52/52/52
f 51/51/51 52/52/52 53/53/53
f 52/52/52 54/54/54 53/53/53
f 41/41/41 39/39/39 54/54/54
f 52/52/52 41/41/41 54/54/54
f 53/53/53 54/54/54 55/55/55
f 54/54/54 56/56/56 55/55/55
f 54/54/54 39/39/39 56/56/56
f 39/39/39 37/37/37 56/56/56
f 55/55/55 56/56/56 57/57/57
f 56/56/56 58/58/58 57/57/57
f 56/56/56 37/37/37 58/58/58
f 57/57/57 58/58/58 59/59/59
f 58/58/58 60/60/60 59/59/59
f 37/37/37 32/32/32 58/58/58
f 58/58/58 32/32/32 60/60/60
f 32/32/32 29/29/29 60/60/60
f 60/60/60 26/26/26 59/59/59
f 26/26/26 24/24/24 59/59/59
f 27/27/27 26/26/26 60/60/60
f 29/29/29 27/27/27 60/60/60
f 63/63/63 62/62/62 61/61/61
f 64/64/64 63/63/63 61/61/61
f 63/63/63 64/64/64 65/65/65
f 64/64/64 66/66/66 65/65/65
f 65/65/65 67/67/67 63/63/63
f 67/67/67 68/68/68 63/63/63
f 63/63/63 68/68/68 62/62/62
f 67/67/67 65/65/65 69/69/69
f 65/65/65 70/70/70 69/69/69
f 65/65/65 66/66/66 70/70/70
f 69/69/69 71/71/71 67/67/67
f 71/71/71 72/72/72 67/67/67
f 67/67/67 72/72/72 68/68/68
f 71/71/71 69/69/69 73/73/73
f 69/69/69 74/74/74 73/73/73
f 69/69/69 70/70/70 74/74/74
f 73/73/73 75/75/75 71/71/71
f 75/75/75 76/76/76 71/71/71
f 71/71/71 76/76/76 72/72/72
f 75/75/75 73/73/73 77/77/77
f 73/73/73 78/78/78 77/77/77
f 73/73/73 74/74/74 78/78/78
f 72/72/72 79/79/79 68/68/68
f 76/76/76 80/80/80 72/72/72
f 72/72/72 80/80/80 79/79/79
f 80/80/80 81/81/81 79/79/79
f 68/68/68 79/79/79 82/82/82
f 68/68/68 82/82/82 62/62/62
f 79/79/79 83/83/83 82/82/82
f 79/79/79 81/81/81 83/83/83
f 62/62/62 82/82/82 84/84/84
f 62/62/62 84/84/84 85/85/85
f 61/61/61 62/62/62 85/85/85
f 82/82/82 86/86/86 84/84/84
f 82/82/82 83/83/83 86/86/86
f 84/84/84 87/87/87 85/85/85
f 87/87/87 88/88/88 85/85/85
f 89/89/89 88/88/88 87/87/87
f 81/81/81 90/90/90 83/83/83
f 83/83/83 91/91/91 86/86/86
f 83/83/83 90/90/90 91/91/91
f 92/92/92 87/87/87 84/84/84
f 86/86/86 92/92/92 84/84/84
f 89/89/89 87/87/87 92/92/92
f 90/90/90 93/93/93 91/91/91
f 94/94/94 92/92/92 86/86/86
f 91/91/91 94/94/94 86/86/86
f 89/89/89 92/92/92 94/94/94
f 94/94/94 95/95/95 89/89/89
f 91/91/91 93/93/93 95/95/95
f 94/94/94 91/91/91 95/95/95
f 28/28/28 96/96/96 25/25/25
f 28/28/28 30/30/30 96/96/96
f 30/30/30 34/34/34 96/96/96
f 36/36/36 38/38/38 97/97/97
f 35/35/35 36/36/36 97/97/97
f 97/97/97 38/38/38 98/98/98
f 38/38/38 40/40/40 98/98/98
f 98/98/98 40/40/40 99/99/99
f 40/40/40 42/42/42 99/99/99
f 99/99/99 42/42/42 100/100/100
f 42/42/42 44/44/44 100/100/100
f 100/100/100 44/44/44 46/46/46
f 66/66/66 101/101/101 70/70/70
f 70/70/70 101/101/101 102/102/102
f 70/70/70 102/102/102 74/74/74
f 101/101/101 103/103/103 102/102/102
f 74/74/74 102/102/102 104/104/104
f 74/74/74 104/104/104 78/78/78
f 102/102/102 105/105/105 104/104/104
f 102/102/102 103/103/103 105/105/105
f 106/106/106 78/78/78 104/104/104
f 106/106/106 104/104/104 105/105/105
f 106/106/106 77/77/77 78/78/78
f 103/103/103 107/107/107 105/105/105
f 106/106/106 105/105/105 107/107/107
