g TM_cube
v 0.4189919 -0.4189919 -0.492891
v 0.4187699 -0.4453279 -0.481403
v 0.4472329 -0.4472329 -0.467459
v 0.4453279 -0.4187699 -0.481403
v -0.4187699 -0.4453279 -0.481403
v -0.4189919 -0.4189919 -0.492891
v -0.4472329 -0.4472329 -0.467459
v -0.4453279 -0.4187699 -0.481403
v -0.4453279 0.4187699 -0.481403
v -0.4189919 0.4189919 -0.492891
v -0.4472329 0.4472329 -0.467459
v -0.4187699 0.4453279 -0.481403
v 0.4189919 0.4189919 -0.492891
v 0.4453279 0.4187699 -0.481403
v 0.4472329 0.4472329 -0.467459
v 0.4187699 0.4453279 -0.481403
v -0.4187699 0.4453279 -0.481403
v 0.4191909 -0.466164 -0.466164
v -0.4191909 -0.466164 -0.466164
v -0.466164 -0.4191909 -0.466164
v -0.466164 0.4191909 -0.466164
v 0.466164 0.4191909 -0.466164
v 0.466164 -0.4191909 -0.466164
v 0.4191909 0.466164 -0.466164
v -0.4191909 0.466164 -0.466164
v 0.4573981 -0.4472329 -0.4572938
v 0.457756 0.4472329 -0.4569358
v 0.4472329 0.467459 -0.4472329
v 0.4472329 -0.467459 -0.4472329
v -0.4472329 0.467459 -0.4472329
v -0.4573321 0.4472329 -0.4573598
v 0.4472329 -0.467459 -0.4472329
v 0.4187699 -0.481403 -0.4453279
v 0.4189919 -0.492891 -0.4189919
v 0.4453279 -0.481403 -0.4187699
v 0.4453279 -0.481403 0.4187699
v 0.4189919 -0.492891 0.4189919
v 0.4187699 -0.481403 0.4453279
v -0.4187699 -0.481403 0.4453279
v -0.4189919 -0.492891 0.4189919
v 0.4472329 -0.467459 0.4472329
v -0.4453279 -0.481403 0.4187699
v -0.4472329 -0.467459 0.4472329
v -0.4453279 -0.481403 -0.4187699
v -0.4189919 -0.492891 -0.4189919
v 0.4189919 -0.492891 -0.4189919
v -0.4187699 -0.481403 -0.4453279
v -0.4472329 -0.467459 -0.4472329
v 0.4191909 -0.466164 -0.466164
v -0.4191909 -0.466164 -0.466164
v -0.466164 -0.466164 0.4191909
v -0.466164 -0.466164 -0.4191909
v -0.4191909 -0.466164 0.466164
v 0.4191909 -0.466164 0.466164
v 0.466164 -0.466164 -0.4191909
v 0.466164 -0.466164 0.4191909
v -0.467459 -0.4472329 -0.4472329
v -0.466164 -0.466164 -0.4191909
v -0.481403 -0.4453279 -0.4187699
v -0.492891 -0.4189919 -0.4189919
v -0.481403 -0.4453279 0.4187699
v -0.492891 -0.4189919 0.4189919
v -0.467459 -0.4472329 0.4472329
v -0.481403 -0.4187699 0.4453279
v -0.481403 -0.4187699 -0.4453279
v -0.481403 0.4187699 0.4453279
v -0.492891 0.4189919 0.4189919
v -0.467459 0.4472329 0.4472329
v -0.481403 0.4453279 0.4187699
v -0.481403 0.4453279 -0.4187699
v -0.492891 0.4189919 -0.4189919
v -0.467459 0.4472329 -0.4472329
v -0.481403 0.4187699 -0.4453279
v -0.466164 -0.466164 0.4191909
v -0.4661649 0.4191909 0.4661649
v -0.466164 -0.4191909 0.466164
v -0.466164 0.466164 -0.4191909
v -0.4661649 0.4661649 0.4191909
v -0.466164 0.4191909 -0.466164
v -0.466164 -0.4191909 -0.466164
v -0.4472329 0.467459 0.4472329
v -0.4453279 0.481403 0.4187699
v -0.4189919 0.492891 0.4189919
v -0.4187699 0.481403 0.4453279
v 0.4187699 0.481403 0.4453279
v 0.4189919 0.492891 0.4189919
v 0.4472329 0.467459 0.4472329
v 0.4453279 0.481403 0.4187699
v -0.4189919 0.492891 -0.4189919
v -0.4453279 0.481403 -0.4187699
v -0.4472329 0.467459 -0.4472329
v -0.4187699 0.481403 -0.4453279
v 0.4453279 0.481403 -0.4187699
v 0.4189919 0.492891 -0.4189919
v 0.4472329 0.467459 -0.4472329
v 0.4187699 0.481403 -0.4453279
v 0.4189919 0.492891 -0.4189919
v 0.4189919 0.492891 0.4189919
v 0.4191909 0.4661649 0.4661649
v -0.4191909 0.4661649 0.4661649
v -0.466164 0.466164 -0.4191909
v 0.4661649 0.4661649 0.4191909
v 0.466164 0.466164 -0.4191909
v -0.4191909 0.466164 -0.466164
v 0.4191909 0.466164 -0.466164
v 0.467459 0.4472329 0.4472329
v 0.4573464 0.4472329 0.4573455
v 0.4661649 0.4191909 0.4661649
v 0.481403 0.4187699 0.4453279
v 0.492891 0.4189919 0.4189919
v 0.481403 0.4453279 0.4187699
v 0.481403 -0.4187699 0.4453279
v 0.492891 -0.4189919 0.4189919
v 0.467459 -0.4472329 0.4472329
v 0.481403 -0.4453279 0.4187699
v 0.481403 -0.4453279 -0.4187699
v 0.492891 -0.4189919 -0.4189919
v 0.467459 -0.4472329 -0.4472329
v 0.481403 -0.4187699 -0.4453279
v 0.492891 0.4189919 -0.4189919
v 0.481403 0.4453279 -0.4187699
v 0.467459 0.4472329 -0.4472329
v 0.481403 0.4187699 -0.4453279
v 0.466164 -0.466164 -0.4191909
v 0.466164 -0.466164 0.4191909
v 0.466164 -0.4191909 0.466164
v 0.466164 0.466164 -0.4191909
v 0.4661649 0.4661649 0.4191909
v 0.466164 0.4191909 -0.466164
v 0.466164 -0.4191909 -0.466164
v 0.4472329 0.467459 -0.4472329
v 0.457756 0.4472329 -0.4569358
v 0.4569038 -0.4472329 0.4577881
v 0.4472329 -0.467459 0.4472329
v -0.4189919 -0.4189919 0.492891
v 0.4189919 -0.4189919 0.492891
v 0.4187699 -0.4453279 0.481403
v -0.4187699 -0.4453279 0.481403
v 0.4472329 -0.4472329 0.467459
v 0.4453279 -0.4187699 0.481403
v -0.4472329 -0.4472329 0.467459
v -0.4453279 -0.4187699 0.481403
v 0.4453279 0.4187699 0.481403
v 0.4189919 0.4189919 0.492891
v 0.4472329 0.4472329 0.467459
v 0.4187699 0.4453279 0.481403
v -0.4187699 0.4453279 0.481403
v -0.4189919 0.4189919 0.492891
v -0.4453279 0.4187699 0.481403
v -0.4472329 0.4472329 0.467459
v 0.4191909 -0.466164 0.466164
v -0.4191909 -0.466164 0.466164
v 0.4661649 0.4191909 0.4661649
v 0.466164 -0.4191909 0.466164
v -0.4191909 0.4661649 0.4661649
v 0.4191909 0.4661649 0.4661649
v -0.466164 -0.4191909 0.466164
v -0.4661649 0.4191909 0.4661649
v -0.4575179 0.4472329 0.457174
v -0.4472329 0.467459 0.4472329
v 0.4472329 0.467459 0.4472329
v -0.4472329 -0.467459 0.4472329
v -0.4573861 -0.4472329 0.4573057
v 0.4472329 -0.467459 0.4472329
v 0.4569038 -0.4472329 0.4577881
v 0.4573464 0.4472329 0.4573455
v 0.492891 -0.4189919 0.4189919
v 0.492891 0.4189919 0.4189919
v 0.492891 0.4189919 -0.4189919
v 0.492891 -0.4189919 -0.4189919
v -0.4577142 -0.4472329 -0.4569777
v 0.466164 -0.4191909 -0.466164
v 0.467459 -0.4472329 -0.4472329
v 0.481403 -0.4187699 -0.4453279
v 0.4573981 -0.4472329 -0.4572938
v 0.4472329 -0.467459 -0.4472329
v -0.4472329 0.467459 -0.4472329
v -0.4573321 0.4472329 -0.4573598
v -0.4472329 -0.467459 0.4472329
v -0.4573861 -0.4472329 0.4573057
v 0.4472329 -0.467459 -0.4472329
v -0.4472329 -0.467459 -0.4472329
v -0.4577142 -0.4472329 -0.4569777
v -0.4189919 -0.492891 -0.4189919
v -0.4189919 -0.492891 0.4189919
v -0.4575179 0.4472329 0.457174
vt 0 0
vt 0 0
vt 0 0
vt 0 0
vt 1 0
vt 1 0
vt 1 0
vt 1 0
vt 1 1
vt 1 1
vt 1 1
vt 1 1
vt 0 1
vt 0 1
vt 0 1
vt 0 1
vt 1 1
vt 0 0
vt 1 0
vt 1 0
vt 1 1
vt 0 1
vt 0 0
vt 0 1
vt 1 0.9999999
vt 0 0
vt 0 1
vt 0 1
vt 0 0
vt 1 1
vt 1 1
vt 1 0
vt 1 0
vt 1 0
vt 1 0
vt 1 1
vt 1 1
vt 1 1
vt -2.980232E-08 1
vt -2.980232E-08 1
vt 1 1
vt 0 1
vt 0 1
vt 0 0
vt -2.980232E-08 0
vt 1 0
vt -2.980232E-08 0
vt 0 0
vt 1 0
vt -2.980232E-08 0
vt 2.980232E-08 1
vt 2.980232E-08 0
vt -2.980232E-08 1
vt 1 1
vt 1 0
vt 1 1
vt 0 0
vt 0 0
vt 0 0
vt 0 0
vt 1 0
vt 1 0
vt 1 0
vt 1 0
vt 0 0
vt 1 1
vt 1 1
vt 1 1
vt 1 1
vt 0 1
vt 0 1
vt 0 1
vt 0 1
vt 1 0
vt 1 1
vt 1 0
vt 0 1
vt 1 1
vt 0 1
vt 0 0
vt 1 1
vt 1 1
vt 1 1
vt 1 1
vt -4.097819E-08 1
vt -4.470348E-08 1
vt 1.862645E-09 1
vt -3.72529E-09 1
vt 1 0
vt 1 0
vt 1 0
vt 1 0
vt -3.72529E-09 0
vt -4.470348E-08 0
vt 1.862645E-09 0
vt -4.097819E-08 0
vt -4.470348E-08 0
vt -4.470348E-08 1
vt -4.097819E-08 1
vt 1 1
vt 1 0
vt 2.980232E-08 1
vt 2.980232E-08 0
vt 1 0
vt -4.097819E-08 0
vt 0 1
vt 5.960464E-08 1
vt 5.960464E-08 1
vt 0 1
vt -5.960464E-08 1
vt 0 1
vt 0 0
vt -2.980232E-08 0
vt 0 0
vt -2.980232E-08 0
vt 1 -5.587935E-09
vt 1 -1.490116E-08
vt 1 -3.72529E-09
vt 1 -1.490116E-08
vt 1 1
vt 1 1
vt 1 1
vt 1 1
vt 1 3.72529E-09
vt -2.980232E-08 0
vt 2.980232E-08 0
vt 1 1
vt 0 1
vt 1 0.9999999
vt 1 -1.315493E-08
vt 1 1
vt 1 1
vt 2.980232E-08 0
vt 2.980232E-08 0
vt 0 0
vt 1 0
vt 1 0
vt 0 0
vt 1 0
vt 1 0
vt 0 0
vt 0 0
vt 1 1
vt 1 1
vt 1 1
vt 1 1
vt 0 1
vt 0 1
vt 0 1
vt 0 1
vt 1 0
vt 0 0
vt 1 1
vt 1 0
vt 0 1
vt 1 1
vt 0 0
vt 0 1
vt 0 1
vt 0 1
vt 1 1
vt 0 0
vt 0 0
vt 1 0
vt 1 0
vt 1 1
vt -2.980232E-08 0
vt -5.960464E-08 1
vt 1 1
vt 1 -1.490116E-08
vt 0 0
vt 1 -1.315493E-08
vt 1 -3.72529E-09
vt 1 -1.490116E-08
vt 1 -2.677552E-09
vt 1 5.587935E-09
vt 0 1
vt 0 1
vt 1 0
vt 1 0
vt 1 5.587935E-09
vt 1 0
vt 1 0
vt -2.980232E-08 0
vt -2.980232E-08 1
vt 1 1
vn 0.01323149 -0.01323157 -0.9998249
vn 0.01041936 -0.4921772 -0.8704326
vn 0.4453259 -0.467797 -0.7634466
vn 0.4921765 -0.01041937 -0.870433
vn -0.01041937 -0.4921774 -0.8704326
vn -0.01323154 -0.01323157 -0.9998249
vn -0.4462712 -0.467928 -0.7628141
vn -0.4921774 -0.01041937 -0.8704326
vn -0.4921774 0.01041936 -0.8704326
vn -0.01323154 0.01323157 -0.9998249
vn -0.445128 0.4677688 -0.7635794
vn -0.01041937 0.4921773 -0.8704326
vn 0.01323149 0.01323157 -0.9998249
vn 0.4921765 0.01041936 -0.870433
vn 0.4463959 0.4679449 -0.7627307
vn 0.01041936 0.4921773 -0.8704326
vn -0.01041937 0.4921773 -0.8704326
vn 0.006527713 -0.7070916 -0.7070917
vn -0.006527714 -0.7070917 -0.7070917
vn -0.7070966 -0.005392665 -0.7070964
vn -0.7070965 0.005391054 -0.7070965
vn 0.7070965 0.00539306 -0.7070965
vn 0.7070966 -0.005391082 -0.7070964
vn 0.006527714 0.7070917 -0.7070917
vn -0.006527711 0.7070916 -0.7070917
vn 0.6183561 -0.4850466 -0.618357
vn 0.618358 0.4850418 -0.6183591
vn 0.4635551 0.7551379 -0.4635552
vn 0.4635401 -0.755156 -0.4635407
vn -0.4635402 0.7551562 -0.4635403
vn -0.6183563 0.4850461 -0.6183574
vn 0.4635401 -0.755156 -0.4635407
vn 0.01041936 -0.8704326 -0.4921774
vn 0.01323157 -0.9998249 -0.01323154
vn 0.4921773 -0.8704326 -0.01041937
vn 0.4921773 -0.8704326 0.01041936
vn 0.01323157 -0.9998249 0.01323149
vn 0.01041937 -0.870433 0.4921765
vn -0.01041938 -0.8704332 0.4921765
vn -0.01323157 -0.9998249 0.01323149
vn 0.4635575 -0.7551351 0.4635574
vn -0.4921773 -0.8704326 0.01041937
vn -0.4635403 -0.755156 0.4635406
vn -0.4921773 -0.8704326 -0.01041936
vn -0.01323157 -0.9998249 -0.01323154
vn 0.01323157 -0.9998249 -0.01323154
vn -0.01041936 -0.8704326 -0.4921774
vn -0.4635518 -0.7551418 -0.4635521
vn 0.006527713 -0.7070916 -0.7070917
vn -0.006527714 -0.7070917 -0.7070917
vn -0.7070916 -0.7070917 0.006527714
vn -0.7070917 -0.7070917 -0.006527714
vn -0.006527713 -0.7070916 0.7070917
vn 0.006527714 -0.7070917 0.7070917
vn 0.7070917 -0.7070917 -0.006527714
vn 0.7070917 -0.7070917 0.006527713
vn -0.7642963 -0.4676192 -0.4440535
vn -0.7070917 -0.7070917 -0.006527714
vn -0.8704326 -0.4921774 -0.01041936
vn -0.9998249 -0.01323154 -0.01323157
vn -0.8704326 -0.4921774 0.01041936
vn -0.9998249 -0.01323154 0.01323157
vn -0.7636324 -0.4677583 0.4450481
vn -0.8704385 -0.01041969 0.492167
vn -0.8704326 -0.01041937 -0.4921772
vn -0.8704386 0.01041912 0.4921668
vn -0.9998249 0.01323149 0.01323157
vn -0.7638982 0.4677012 0.4446518
vn -0.8704392 0.4921658 0.01041913
vn -0.8704389 0.492166 -0.01041968
vn -0.9998249 0.01323149 -0.01323157
vn -0.7635238 0.4677809 -0.4452108
vn -0.8704327 0.01041937 -0.4921772
vn -0.7070916 -0.7070917 0.006527714
vn -0.7070965 0.005390907 0.7070965
vn -0.7070966 -0.005391843 0.7070964
vn -0.7070916 0.7070918 -0.00652848
vn -0.7070917 0.7070917 0.006527329
vn -0.7070965 0.005391054 -0.7070965
vn -0.7070966 -0.005392665 -0.7070964
vn -0.4635432 0.7551522 0.4635438
vn -0.4921668 0.8704386 0.01041911
vn -0.01323157 0.9998249 0.01323154
vn -0.01041944 0.8704444 0.4921566
vn 0.01041943 0.8704444 0.4921566
vn 0.01323157 0.9998249 0.01323154
vn 0.4635405 0.7551553 0.4635415
vn 0.4921667 0.8704386 0.01041911
vn -0.01323157 0.9998249 -0.01323149
vn -0.492167 0.8704385 -0.01041969
vn -0.4635402 0.7551562 -0.4635403
vn -0.01041937 0.8704332 -0.4921765
vn 0.492167 0.8704385 -0.0104197
vn 0.01323157 0.9998249 -0.01323149
vn 0.4635551 0.7551379 -0.4635552
vn 0.01041937 0.870433 -0.4921765
vn 0.01323157 0.9998249 -0.01323149
vn 0.01323157 0.9998249 0.01323154
vn 0.006528089 0.7070917 0.7070917
vn -0.006528094 0.7070917 0.7070917
vn -0.7070916 0.7070918 -0.00652848
vn 0.7070917 0.7070917 0.006527311
vn 0.7070917 0.7070917 -0.006528491
vn -0.006527711 0.7070916 -0.7070917
vn 0.006527714 0.7070917 -0.7070917
vn 0.7635525 0.4677731 0.4451696
vn 0.6183507 0.4850641 0.6183488
vn 0.7070965 0.005390538 0.7070965
vn 0.8704386 0.01041911 0.4921667
vn 0.9998249 0.01323154 0.01323157
vn 0.8704386 0.4921665 0.01041912
vn 0.8704385 -0.01041969 0.492167
vn 0.9998249 -0.01323149 0.01323157
vn 0.7626674 -0.4679582 0.4464905
vn 0.870433 -0.4921765 0.01041936
vn 0.870433 -0.4921765 -0.01041936
vn 0.9998249 -0.01323149 -0.01323157
vn 0.7636569 -0.467753 -0.4450116
vn 0.8704326 -0.01041937 -0.4921772
vn 0.9998249 0.01323154 -0.01323157
vn 0.8704385 0.4921669 -0.01041969
vn 0.764381 0.4676016 -0.4439262
vn 0.8704326 0.01041936 -0.4921773
vn 0.7070917 -0.7070917 -0.006527714
vn 0.7070917 -0.7070917 0.006527713
vn 0.7070965 -0.005394157 0.7070965
vn 0.7070917 0.7070917 -0.006528491
vn 0.7070917 0.7070917 0.006527311
vn 0.7070965 0.00539306 -0.7070965
vn 0.7070966 -0.005391082 -0.7070964
vn 0.4635551 0.7551379 -0.4635552
vn 0.618358 0.4850418 -0.6183591
vn 0.6183584 -0.4850407 0.6183594
vn 0.4635575 -0.7551351 0.4635574
vn -0.01323149 -0.01323157 0.9998249
vn 0.01323154 -0.01323157 0.9998249
vn 0.01041937 -0.4921774 0.8704326
vn -0.01041936 -0.4921773 0.8704326
vn 0.4438284 -0.4675879 0.764446
vn 0.4921669 -0.01041969 0.8704385
vn -0.4452909 -0.4677916 0.7634703
vn -0.492166 -0.01041969 0.870439
vn 0.4921665 0.01041911 0.8704386
vn 0.01323154 0.01323157 0.9998249
vn 0.4451729 0.467772 0.7635512
vn 0.01041944 0.4921566 0.8704444
vn -0.01041944 0.4921567 0.8704444
vn -0.01323149 0.01323157 0.9998249
vn -0.4921658 0.01041913 0.8704392
vn -0.4456876 0.4678442 0.7632067
vn 0.006527714 -0.7070917 0.7070917
vn -0.006527713 -0.7070916 0.7070917
vn 0.7070965 0.005390538 0.7070965
vn 0.7070965 -0.005394157 0.7070965
vn -0.006528094 0.7070917 0.7070917
vn 0.006528089 0.7070917 0.7070917
vn -0.7070966 -0.005391843 0.7070964
vn -0.7070965 0.005390907 0.7070965
vn -0.6183512 0.4850639 0.6183485
vn -0.4635432 0.7551522 0.4635438
vn 0.4635405 0.7551553 0.4635415
vn -0.4635403 -0.755156 0.4635406
vn -0.6183563 -0.4850461 0.6183573
vn 0.4635575 -0.7551351 0.4635574
vn 0.6183584 -0.4850407 0.6183594
vn 0.6183507 0.4850641 0.6183488
vn 0.9998249 -0.01323149 0.01323157
vn 0.9998249 0.01323154 0.01323157
vn 0.9998249 0.01323154 -0.01323157
vn 0.9998249 -0.01323149 -0.01323157
vn -0.6183578 -0.4850423 -0.6183589
vn 0.7070966 -0.005391082 -0.7070964
vn 0.7636569 -0.467753 -0.4450116
vn 0.8704326 -0.01041937 -0.4921772
vn 0.6183561 -0.4850466 -0.618357
vn 0.4635401 -0.755156 -0.4635407
vn -0.4635402 0.7551562 -0.4635403
vn -0.6183563 0.4850461 -0.6183574
vn -0.4635403 -0.755156 0.4635406
vn -0.6183563 -0.4850461 0.6183573
vn 0.4635401 -0.755156 -0.4635407
vn -0.4635518 -0.7551418 -0.4635521
vn -0.6183578 -0.4850423 -0.6183589
vn -0.01323157 -0.9998249 -0.01323154
vn -0.01323157 -0.9998249 0.01323149
vn -0.6183512 0.4850639 0.6183485
g TM_cube_0
f 3/3/3 2/2/2 1/1/1
f 4/4/4 3/3/3 1/1/1
f 1/1/1 2/2/2 5/5/5
f 6/6/6 1/1/1 5/5/5
f 6/6/6 5/5/5 7/7/7
f 8/8/8 6/6/6 7/7/7
f 8/8/8 9/9/9 6/6/6
f 9/9/9 10/10/10 6/6/6
f 6/6/6 10/10/10 1/1/1
f 10/10/10 9/9/9 11/11/11
f 12/12/12 10/10/10 11/11/11
f 1/1/1 13/13/13 4/4/4
f 10/10/10 13/13/13 1/1/1
f 13/13/13 14/14/14 4/4/4
f 15/15/15 14/14/14 13/13/13
f 16/16/16 15/15/15 13/13/13
f 16/16/16 13/13/13 10/10/10
f 17/17/17 16/16/16 10/10/10
f 2/2/2 3/3/3 18/18/18
f 2/2/2 18/18/18 19/19/19
f 5/5/5 2/2/2 19/19/19
f 19/19/19 7/7/7 5/5/5
f 8/8/8 7/7/7 20/20/20
f 21/21/21 9/9/9 8/8/8
f 20/20/20 21/21/21 8/8/8
f 21/21/21 11/11/11 9/9/9
f 14/14/14 15/15/15 22/22/22
f 14/14/14 22/22/22 23/23/23
f 4/4/4 14/14/14 23/23/23
f 23/23/23 3/3/3 4/4/4
f 24/24/24 16/16/16 12/12/12
f 24/24/24 15/15/15 16/16/16
f 25/25/25 24/24/24 12/12/12
f 23/23/23 26/26/26 3/3/3
f 27/27/27 22/22/22 15/15/15
f 28/28/28 27/27/27 15/15/15
f 24/24/24 28/28/28 15/15/15
f 29/29/29 18/18/18 3/3/3
f 26/26/26 29/29/29 3/3/3
f 12/12/12 11/11/11 25/25/25
f 11/11/11 30/30/30 25/25/25
f 11/11/11 31/31/31 30/30/30
f 31/31/31 11/11/11 21/21/21
f 34/34/34 33/33/33 32/32/32
f 35/35/35 34/34/34 32/32/32
f 35/35/35 36/36/36 34/34/34
f 36/36/36 37/37/37 34/34/34
f 38/38/38 37/37/37 36/36/36
f 37/37/37 38/38/38 39/39/39
f 40/40/40 37/37/37 39/39/39
f 41/41/41 38/38/38 36/36/36
f 42/42/42 40/40/40 39/39/39
f 43/43/43 42/42/42 39/39/39
f 40/40/40 42/42/42 44/44/44
f 45/45/45 40/40/40 44/44/44
f 33/33/33 46/46/46 45/45/45
f 47/47/47 33/33/33 45/45/45
f 48/48/48 47/47/47 45/45/45
f 44/44/44 48/48/48 45/45/45
f 49/49/49 33/33/33 47/47/47
f 50/50/50 49/49/49 47/47/47
f 47/47/47 48/48/48 50/50/50
f 42/42/42 43/43/43 51/51/51
f 42/42/42 51/51/51 52/52/52
f 44/44/44 42/42/42 52/52/52
f 52/52/52 48/48/48 44/44/44
f 53/53/53 43/43/43 39/39/39
f 39/39/39 38/38/38 53/53/53
f 38/38/38 54/54/54 53/53/53
f 38/38/38 41/41/41 54/54/54
f 49/49/49 32/32/32 33/33/33
f 35/35/35 32/32/32 55/55/55
f 55/55/55 56/56/56 35/35/35
f 56/56/56 36/36/36 35/35/35
f 56/56/56 41/41/41 36/36/36
f 48/48/48 58/58/58 57/57/57
f 59/59/59 57/57/57 58/58/58
f 57/57/57 59/59/59 60/60/60
f 59/59/59 61/61/61 60/60/60
f 61/61/61 62/62/62 60/60/60
f 62/62/62 61/61/61 63/63/63
f 64/64/64 62/62/62 63/63/63
f 65/65/65 57/57/57 60/60/60
f 64/64/64 66/66/66 62/62/62
f 66/66/66 67/67/67 62/62/62
f 62/62/62 67/67/67 60/60/60
f 67/67/67 66/66/66 68/68/68
f 69/69/69 67/67/67 68/68/68
f 67/67/67 69/69/69 70/70/70
f 71/71/71 67/67/67 70/70/70
f 60/60/60 71/71/71 65/65/65
f 67/67/67 71/71/71 60/60/60
f 71/71/71 70/70/70 72/72/72
f 73/73/73 71/71/71 72/72/72
f 71/71/71 73/73/73 65/65/65
f 74/74/74 61/61/61 59/59/59
f 74/74/74 63/63/63 61/61/61
f 58/58/58 74/74/74 59/59/59
f 75/75/75 66/66/66 64/64/64
f 75/75/75 68/68/68 66/66/66
f 76/76/76 75/75/75 64/64/64
f 64/64/64 63/63/63 76/76/76
f 77/77/77 72/72/72 70/70/70
f 70/70/70 69/69/69 77/77/77
f 69/69/69 78/78/78 77/77/77
f 69/69/69 68/68/68 78/78/78
f 65/65/65 73/73/73 79/79/79
f 73/73/73 72/72/72 79/79/79
f 80/80/80 65/65/65 79/79/79
f 78/78/78 68/68/68 81/81/81
f 78/78/78 81/81/81 82/82/82
f 82/82/82 81/81/81 83/83/83
f 81/81/81 84/84/84 83/83/83
f 84/84/84 85/85/85 83/83/83
f 85/85/85 86/86/86 83/83/83
f 86/86/86 85/85/85 87/87/87
f 88/88/88 86/86/86 87/87/87
f 82/82/82 83/83/83 89/89/89
f 90/90/90 82/82/82 89/89/89
f 78/78/78 82/82/82 90/90/90
f 91/91/91 90/90/90 89/89/89
f 92/92/92 91/91/91 89/89/89
f 86/86/86 88/88/88 93/93/93
f 94/94/94 86/86/86 93/93/93
f 89/89/89 94/94/94 92/92/92
f 94/94/94 93/93/93 95/95/95
f 96/96/96 94/94/94 95/95/95
f 94/94/94 96/96/96 92/92/92
f 89/89/89 83/83/83 97/97/97
f 83/83/83 98/98/98 97/97/97
f 99/99/99 85/85/85 84/84/84
f 99/99/99 87/87/87 85/85/85
f 100/100/100 99/99/99 84/84/84
f 90/90/90 91/91/91 101/101/101
f 101/101/101 78/78/78 90/90/90
f 88/88/88 87/87/87 102/102/102
f 88/88/88 102/102/102 103/103/103
f 93/93/93 88/88/88 103/103/103
f 103/103/103 95/95/95 93/93/93
f 104/104/104 91/91/91 92/92/92
f 92/92/92 96/96/96 104/104/104
f 96/96/96 105/105/105 104/104/104
f 96/96/96 95/95/95 105/105/105
f 84/84/84 81/81/81 100/100/100
f 87/87/87 107/107/107 106/106/106
f 107/107/107 108/108/108 106/106/106
f 109/109/109 106/106/106 108/108/108
f 106/106/106 109/109/109 110/110/110
f 111/111/111 106/106/106 110/110/110
f 110/110/110 109/109/109 112/112/112
f 113/113/113 110/110/110 112/112/112
f 112/112/112 114/114/114 113/113/113
f 114/114/114 115/115/115 113/113/113
f 113/113/113 115/115/115 116/116/116
f 117/117/117 113/113/113 116/116/116
f 117/117/117 116/116/116 118/118/118
f 119/119/119 117/117/117 118/118/118
f 111/111/111 110/110/110 120/120/120
f 121/121/121 111/111/111 120/120/120
f 122/122/122 121/121/121 120/120/120
f 123/123/123 122/122/122 120/120/120
f 123/123/123 120/120/120 117/117/117
f 119/119/119 123/123/123 117/117/117
f 116/116/116 115/115/115 124/124/124
f 124/124/124 118/118/118 116/116/116
f 115/115/115 125/125/125 124/124/124
f 115/115/115 114/114/114 125/125/125
f 126/126/126 114/114/114 112/112/112
f 112/112/112 109/109/109 126/126/126
f 109/109/109 108/108/108 126/126/126
f 121/121/121 122/122/122 127/127/127
f 127/127/127 128/128/128 121/121/121
f 128/128/128 111/111/111 121/121/121
f 128/128/128 106/106/106 111/111/111
f 129/129/129 123/123/123 119/119/119
f 129/129/129 122/122/122 123/123/123
f 130/130/130 129/129/129 119/119/119
f 87/87/87 106/106/106 128/128/128
f 131/131/131 127/127/127 122/122/122
f 131/131/131 122/122/122 132/132/132
f 132/132/132 122/122/122 129/129/129
f 126/126/126 133/133/133 114/114/114
f 134/134/134 125/125/125 114/114/114
f 133/133/133 134/134/134 114/114/114
f 137/137/137 136/136/136 135/135/135
f 138/138/138 137/137/137 135/135/135
f 136/136/136 137/137/137 139/139/139
f 140/140/140 136/136/136 139/139/139
f 141/141/141 138/138/138 135/135/135
f 142/142/142 141/141/141 135/135/135
f 140/140/140 143/143/143 136/136/136
f 143/143/143 144/144/144 136/136/136
f 136/136/136 144/144/144 135/135/135
f 144/144/144 143/143/143 145/145/145
f 146/146/146 144/144/144 145/145/145
f 144/144/144 146/146/146 147/147/147
f 148/148/148 144/144/144 147/147/147
f 144/144/144 148/148/148 135/135/135
f 135/135/135 148/148/148 142/142/142
f 148/148/148 149/149/149 142/142/142
f 149/149/149 148/148/148 147/147/147
f 150/150/150 149/149/149 147/147/147
f 151/151/151 137/137/137 138/138/138
f 151/151/151 139/139/139 137/137/137
f 152/152/152 151/151/151 138/138/138
f 138/138/138 141/141/141 152/152/152
f 153/153/153 145/145/145 143/143/143
f 153/153/153 143/143/143 140/140/140
f 154/154/154 153/153/153 140/140/140
f 140/140/140 139/139/139 154/154/154
f 155/155/155 150/150/150 147/147/147
f 147/147/147 146/146/146 155/155/155
f 146/146/146 156/156/156 155/155/155
f 146/146/146 145/145/145 156/156/156
f 157/157/157 141/141/141 142/142/142
f 142/142/142 149/149/149 157/157/157
f 149/149/149 158/158/158 157/157/157
f 149/149/149 150/150/150 158/158/158
f 159/159/159 158/158/158 150/150/150
f 159/159/159 150/150/150 160/160/160
f 150/150/150 155/155/155 160/160/160
f 161/161/161 156/156/156 145/145/145
f 162/162/162 152/152/152 141/141/141
f 163/163/163 162/162/162 141/141/141
f 163/163/163 141/141/141 157/157/157
f 139/139/139 151/151/151 164/164/164
f 154/154/154 139/139/139 165/165/165
f 165/165/165 139/139/139 164/164/164
f 161/161/161 145/145/145 166/166/166
f 166/166/166 145/145/145 153/153/153
f 169/169/169 168/168/168 167/167/167
f 170/170/170 169/169/169 167/167/167
f 80/80/80 57/57/57 65/65/65
f 171/171/171 57/57/57 80/80/80
f 171/171/171 48/48/48 57/57/57
f 174/174/174 173/173/173 172/172/172
f 172/172/172 173/173/173 175/175/175
f 175/175/175 173/173/173 176/176/176
f 72/72/72 77/77/77 177/177/177
f 178/178/178 72/72/72 177/177/177
f 178/178/178 79/79/79 72/72/72
f 63/63/63 74/74/74 179/179/179
f 180/180/180 63/63/63 179/179/179
f 63/63/63 180/180/180 76/76/76
f 118/118/118 124/124/124 181/181/181
f 7/7/7 19/19/19 182/182/182
f 183/183/183 7/7/7 182/182/182
f 7/7/7 183/183/183 20/20/20
f 185/185/185 184/184/184 34/34/34
f 37/37/37 185/185/185 34/34/34
f 68/68/68 186/186/186 81/81/81
f 186/186/186 68/68/68 75/75/75
