g Treat_01
v 0 0.05174564 0.1244286
v 0 0.05174564 -0.1244549
v 0.1385777 0.05174564 -0.1244549
v 0.3802075 0.0601994 -0.06136907
v 0.3244297 0.0601994 -0.01172929
v 0.3244297 0.0601994 0.01172932
v 0.3802075 0.0601994 0.06136911
v 0.1385777 0.05174564 0.1244286
v 0.4033339 0.0601994 0.1311613
v 0.1860409 0.05870726 0.1726694
v 0.3802069 0.0601994 0.1866166
v 0.2498289 0.06566887 0.2108582
v 0.3118948 0.06715187 0.2208214
v 0.4033339 0.0601994 -0.1311612
v 0.1860409 0.05870726 -0.1726839
v 0.3802069 0.0601994 -0.1866166
v 0.2498289 0.06566887 -0.2108607
v 0.3118948 0.06715187 -0.2208213
v 0.3826006 -0.05869418 -0.1866166
v 0.3142885 -0.05174302 -0.2208213
v 0.2522226 -0.05322733 -0.2108607
v 0.1884346 -0.06018895 -0.1726839
v 0.4057276 -0.05869418 -0.1311612
v 0.1409714 -0.06715056 -0.1244549
v 0.3826006 -0.05869418 -0.06136907
v 0 -0.06715056 0.1244286
v 0 -0.06715056 -0.1244549
v 0.3268234 -0.05869418 -0.01172929
v 0.3268234 -0.05869418 0.01172933
v 0.3826006 -0.05869418 0.06136911
v 0.1409714 -0.06715056 0.1244286
v 0.4057276 -0.05869418 0.1311613
v 0.1884346 -0.06018895 0.1726695
v 0.3826006 -0.05869418 0.1866166
v 0.2522226 -0.05322733 0.2108582
v 0.3142885 -0.05174302 0.2208214
v -0.3826013 -0.05869418 -0.0613691
v -0.140972 -0.06715056 -0.124455
v -0.4057283 -0.05869418 -0.1311613
v -0.1884352 -0.06018895 -0.1726839
v -0.3826013 -0.05869418 -0.1866166
v -0.2522226 -0.05322733 -0.2108607
v -0.3142892 -0.05174302 -0.2208214
v -0.3268241 -0.05869418 -0.01172932
v -0.3268241 -0.05869418 0.0117293
v -0.3826013 -0.05869418 0.06136907
v -0.140972 -0.06715056 0.1244285
v -0.4057283 -0.05869418 0.1311612
v -0.1884352 -0.06018895 0.1726694
v -0.3826013 -0.05869418 0.1866166
v -0.2522226 -0.05322733 0.2108582
v -0.3142892 -0.05174302 0.2208213
v 0.3244297 0.0601994 0.01172932
v 0.3244297 0.0601994 -0.01172929
v 0.3268234 -0.05869418 -0.01172929
v 0.3268234 -0.05869418 0.01172933
v 0.3826006 -0.05869418 -0.06136907
v 0.3802075 0.0601994 -0.06136907
v 0.4057276 -0.05869418 -0.1311612
v 0.4033339 0.0601994 -0.1311612
v 0.3826006 -0.05869418 -0.1866166
v 0.3802069 0.0601994 -0.1866166
v 0.3802075 0.0601994 0.06136911
v 0.3826006 -0.05869418 0.06136911
v 0.4033339 0.0601994 0.1311613
v 0.4057276 -0.05869418 0.1311613
v 0.3802069 0.0601994 0.1866166
v 0.3826006 -0.05869418 0.1866166
v 0.3118948 0.06715187 0.2208214
v 0.3142885 -0.05174302 0.2208214
v 0.2498289 0.06566887 0.2108582
v 0.2522226 -0.05322733 0.2108582
v 0.1860409 0.05870726 0.1726694
v 0.1884346 -0.06018895 0.1726695
v 0.1385777 0.05174564 0.1244286
v 0.1409714 -0.06715056 0.1244286
v 0 0.05174564 0.1244286
v 0 -0.06715056 0.1244286
v -0.140972 -0.06715056 0.1244285
v -0.1385777 0.05174564 0.1244285
v -0.1884352 -0.06018895 0.1726694
v -0.1860415 0.05870726 0.1726694
v -0.2522226 -0.05322733 0.2108582
v -0.2498295 0.06566887 0.2108582
v -0.3142892 -0.05174302 0.2208213
v -0.3118948 0.06715187 0.2208213
v -0.3826013 -0.05869418 0.1866166
v -0.3802069 0.0601994 0.1866166
v -0.4057283 -0.05869418 0.1311612
v -0.4033345 0.0601994 0.1311612
v -0.3826013 -0.05869418 0.06136907
v -0.3802075 0.0601994 0.06136907
v -0.3268241 -0.05869418 0.0117293
v -0.3244304 0.0601994 0.01172929
v -0.3268241 -0.05869418 -0.01172932
v -0.3244304 0.0601994 -0.01172932
v -0.3826013 -0.05869418 -0.0613691
v -0.3802075 0.0601994 -0.0613691
v -0.4057283 -0.05869418 -0.1311613
v -0.4033345 0.0601994 -0.1311613
v -0.3826013 -0.05869418 -0.1866166
v -0.3802069 0.0601994 -0.1866166
v 0.3118948 0.06715187 -0.2208213
v 0.2498289 0.06566887 -0.2108607
v 0.2522226 -0.05322733 -0.2108607
v 0.3142885 -0.05174302 -0.2208213
v 0.3802069 0.0601994 -0.1866166
v 0.3826006 -0.05869418 -0.1866166
v 0.1884346 -0.06018895 -0.1726839
v 0.1860409 0.05870726 -0.1726839
v 0.1409714 -0.06715056 -0.1244549
v 0.1385777 0.05174564 -0.1244549
v 0 -0.06715056 -0.1244549
v 0 0.05174564 -0.1244549
v -0.1385777 0.05174564 -0.124455
v -0.140972 -0.06715056 -0.124455
v -0.1860415 0.05870726 -0.1726839
v -0.1884352 -0.06018895 -0.1726839
v -0.2498295 0.06566887 -0.2108607
v -0.2522226 -0.05322733 -0.2108607
v -0.3118948 0.06715187 -0.2208214
v -0.3142892 -0.05174302 -0.2208214
v -0.3802069 0.0601994 -0.1866166
v -0.3826013 -0.05869418 -0.1866166
v -0.4033345 0.0601994 0.1311612
v -0.3802075 0.0601994 0.06136907
v -0.1385777 0.05174564 0.1244285
v -0.1860415 0.05870726 0.1726694
v -0.3802069 0.0601994 0.1866166
v -0.2498295 0.06566887 0.2108582
v -0.3118948 0.06715187 0.2208213
v -0.3244304 0.0601994 0.01172929
v -0.3244304 0.0601994 -0.01172932
v -0.3802075 0.0601994 -0.0613691
v -0.1385777 0.05174564 -0.124455
v -0.4033345 0.0601994 -0.1311613
v -0.1860415 0.05870726 -0.1726839
v -0.3802069 0.0601994 -0.1866166
v -0.2498295 0.06566887 -0.2108607
v -0.3118948 0.06715187 -0.2208214
vt 0.7839565 0.974751
vt 0.7839659 0.974751
vt 0.7839659 0.9747458
vt 0.7839634 0.9747367
vt 0.7839617 0.9747388
vt 0.7839607 0.9747388
vt 0.7839589 0.9747367
vt 0.7839565 0.9747458
vt 0.7839563 0.9747358
vt 0.7839547 0.974744
vt 0.7839541 0.9747367
vt 0.7839532 0.9747416
vt 0.7839528 0.9747393
vt 0.7839661 0.9747358
vt 0.7839677 0.974744
vt 0.7839682 0.9747367
vt 0.7839692 0.9747416
vt 0.7839695 0.9747393
vt 0.7839372 0.9747367
vt 0.7839359 0.9747393
vt 0.7839363 0.9747416
vt 0.7839377 0.974744
vt 0.7839392 0.9747358
vt 0.7839395 0.9747458
vt 0.7839419 0.9747367
vt 0.7839489 0.9747511
vt 0.7839395 0.9747511
vt 0.7839438 0.9747388
vt 0.7839447 0.9747388
vt 0.7839466 0.9747367
vt 0.7839489 0.9747458
vt 0.7839491 0.9747358
vt 0.7839507 0.974744
vt 0.7839513 0.9747367
vt 0.7839522 0.9747416
vt 0.7839526 0.9747393
vt 0.7839419 0.9747655
vt 0.7839395 0.9747564
vt 0.7839392 0.9747664
vt 0.7839377 0.9747581
vt 0.7839372 0.9747655
vt 0.7839363 0.9747606
vt 0.7839359 0.9747629
vt 0.7839438 0.9747635
vt 0.7839447 0.9747635
vt 0.7839466 0.9747655
vt 0.7839489 0.9747564
vt 0.7839491 0.9747664
vt 0.7839507 0.9747581
vt 0.7839513 0.9747655
vt 0.7839522 0.9747606
vt 0.7839526 0.9747629
vt 0.7839832 0.9747674
vt 0.7839832 0.9747666
vt 0.7839788 0.9747666
vt 0.7839788 0.9747674
vt 0.7839788 0.9747646
vt 0.7839832 0.9747646
vt 0.7839788 0.974762
vt 0.7839832 0.974762
vt 0.7839788 0.9747599
vt 0.7839832 0.9747599
vt 0.7839832 0.9747693
vt 0.7839788 0.9747693
vt 0.7839832 0.9747719
vt 0.7839788 0.9747719
vt 0.7839832 0.974774
vt 0.7839788 0.974774
vt 0.7839749 0.9747385
vt 0.7839704 0.9747384
vt 0.7839749 0.9747408
vt 0.7839704 0.9747407
vt 0.7839746 0.9747432
vt 0.7839701 0.9747431
vt 0.7839743 0.974745
vt 0.7839699 0.9747449
vt 0.7839743 0.9747503
vt 0.7839699 0.9747503
vt 0.7839699 0.9747556
vt 0.7839743 0.9747555
vt 0.7839701 0.9747573
vt 0.7839746 0.9747573
vt 0.7839704 0.9747597
vt 0.7839749 0.9747596
vt 0.7839704 0.9747621
vt 0.7839749 0.974762
vt 0.7839741 0.9747649
vt 0.7839785 0.9747649
vt 0.7839741 0.9747669
vt 0.7839785 0.9747669
vt 0.7839741 0.9747696
vt 0.7839785 0.9747696
vt 0.7839741 0.9747714
vt 0.7839785 0.9747714
vt 0.7839741 0.9747723
vt 0.7839785 0.9747723
vt 0.7839741 0.9747742
vt 0.7839785 0.9747742
vt 0.7839741 0.9747769
vt 0.7839785 0.9747769
vt 0.7839741 0.974779
vt 0.7839785 0.974779
vt 0.7839752 0.9747385
vt 0.7839753 0.9747408
vt 0.7839798 0.9747407
vt 0.7839797 0.9747384
vt 0.7839755 0.9747359
vt 0.7839799 0.9747358
vt 0.78398 0.9747431
vt 0.7839755 0.9747432
vt 0.7839803 0.9747449
vt 0.7839758 0.974745
vt 0.7839803 0.9747502
vt 0.7839758 0.9747502
vt 0.7839758 0.9747555
vt 0.7839803 0.9747556
vt 0.7839755 0.9747573
vt 0.78398 0.9747573
vt 0.783969 0.9747664
vt 0.7839735 0.9747665
vt 0.7839689 0.9747688
vt 0.7839735 0.9747689
vt 0.7839693 0.9747713
vt 0.7839738 0.9747714
vt 0.7839563 0.9747662
vt 0.7839589 0.9747653
vt 0.7839565 0.9747562
vt 0.7839547 0.974758
vt 0.7839541 0.9747653
vt 0.7839532 0.9747604
vt 0.7839528 0.9747628
vt 0.7839607 0.9747633
vt 0.7839617 0.9747633
vt 0.7839634 0.9747653
vt 0.7839659 0.9747562
vt 0.7839661 0.9747662
vt 0.7839677 0.974758
vt 0.7839682 0.9747653
vt 0.7839692 0.9747604
vt 0.7839695 0.9747628
vn 0 1 0
vn 0 1 0
vn -0.02012932 0.9997974 0
vn -0.02012932 0.9997974 0
vn -0.02012932 0.9997974 0
vn -0.02012932 0.9997974 0
vn -0.02012932 0.9997974 0
vn -0.02012932 0.9997974 0
vn -0.02012932 0.9997974 0
vn -0.02012932 0.9997974 0
vn -0.02012932 0.9997974 0
vn -0.02012932 0.9997974 0
vn -0.02012932 0.9997974 0
vn -0.02012932 0.9997974 0
vn -0.02012932 0.9997974 0
vn -0.02012932 0.9997974 0
vn -0.02012932 0.9997974 0
vn -0.02012932 0.9997974 0
vn 0.02003499 -0.9997993 0
vn 0.02003499 -0.9997993 0
vn 0.02003499 -0.9997993 0
vn 0.02003499 -0.9997993 0
vn 0.02003499 -0.9997993 0
vn 0.02003499 -0.9997993 0
vn 0.02003499 -0.9997993 0
vn 0 -1 0
vn 0 -1 0
vn 0.02003499 -0.9997993 0
vn 0.02003499 -0.9997993 0
vn 0.02003499 -0.9997993 0
vn 0.02003499 -0.9997993 0
vn 0.02003499 -0.9997993 0
vn 0.02003499 -0.9997993 0
vn 0.02003499 -0.9997993 0
vn 0.02003499 -0.9997993 0
vn 0.02003499 -0.9997993 0
vn -0.02003499 -0.9997993 0
vn -0.02003499 -0.9997993 0
vn -0.02003499 -0.9997993 0
vn -0.02003499 -0.9997993 0
vn -0.02003499 -0.9997993 0
vn -0.02003499 -0.9997993 0
vn -0.02003499 -0.9997993 0
vn -0.02003499 -0.9997993 0
vn -0.02003499 -0.9997993 0
vn -0.02003499 -0.9997993 0
vn -0.02003499 -0.9997993 0
vn -0.02003499 -0.9997993 0
vn -0.02003499 -0.9997993 0
vn -0.02003499 -0.9997993 0
vn -0.02003499 -0.9997993 0
vn -0.02003499 -0.9997993 0
vn 0.9130794 0.01838326 -0.4073672
vn 0.9130794 0.01838332 0.4073672
vn 0.9113217 0.01834793 0.4112859
vn 0.9113217 0.01834788 -0.4112858
vn 0.8363694 0.01683907 0.5479074
vn 0.8343673 0.01679876 0.5509528
vn 0.9990987 0.0201155 -0.03738018
vn 0.999086 0.02011525 -0.0377167
vn 0.7409143 0.01491721 -0.6714339
vn 0.7221444 0.0145393 -0.6915895
vn 0.8343673 0.01679868 -0.5509527
vn 0.8363695 0.01683899 -0.5479075
vn 0.999086 0.02011505 0.03771679
vn 0.9990987 0.0201153 0.0373802
vn 0.7221442 0.01453908 0.6915897
vn 0.740914 0.01491698 0.6714342
vn 0.1413082 0.002844894 0.9899616
vn 0.1626503 0.003274577 0.9866784
vn -0.3370495 -0.00678596 0.9414624
vn -0.3462238 -0.006970669 0.938126
vn -0.6119346 -0.01232028 0.7908124
vn -0.6224329 -0.01253165 0.7825729
vn -0.393807 -0.007928669 0.919159
vn -0.3770257 -0.007590806 0.9261717
vn 0 0 1
vn 0 0 1
vn 0.3770257 -0.007590825 0.9261718
vn 0.393807 -0.007928685 0.919159
vn 0.6224328 -0.01253173 0.782573
vn 0.6119343 -0.01232036 0.7908126
vn 0.3462237 -0.006970733 0.9381261
vn 0.3370495 -0.006786024 0.9414625
vn -0.1626502 0.003274576 0.9866784
vn -0.1413081 0.002844894 0.9899616
vn -0.7409141 0.01491698 0.671434
vn -0.7221442 0.01453907 0.6915897
vn -0.9990987 0.02011534 0.0373802
vn -0.999086 0.02011509 0.03771679
vn -0.8363694 0.01683903 -0.5479074
vn -0.8343673 0.01679872 -0.5509527
vn -0.9113217 0.0183479 -0.4112859
vn -0.9130794 0.01838329 -0.4073672
vn -0.9113217 0.01834793 0.4112859
vn -0.9130794 0.01838332 0.4073672
vn -0.8363694 0.01683904 0.5479074
vn -0.8343673 0.01679873 0.5509527
vn -0.9990987 0.02011551 -0.03738019
vn -0.999086 0.02011525 -0.03771674
vn -0.7409143 0.01491721 -0.6714338
vn -0.7221444 0.01453929 -0.6915895
vn 0.1413289 0.002845377 -0.9899587
vn -0.3369668 -0.006784287 -0.9414921
vn -0.3461397 -0.006968969 -0.938157
vn 0.1626693 0.003275028 -0.9866752
vn 0.7221444 0.0145393 -0.6915895
vn 0.7409143 0.01491721 -0.6714339
vn -0.6223314 -0.01252962 -0.7826537
vn -0.6118302 -0.0123182 -0.7908931
vn -0.3769685 -0.007589603 -0.926195
vn -0.39375 -0.007927473 -0.9191835
vn 0 0 -1
vn 0 0 -1
vn 0.39375 -0.007927474 -0.9191834
vn 0.3769685 -0.007589604 -0.926195
vn 0.6118304 -0.01231815 -0.790893
vn 0.6223315 -0.01252958 -0.7826535
vn 0.3369673 -0.006784241 -0.9414919
vn 0.3461401 -0.00696892 -0.9381569
vn -0.1413287 0.002845376 -0.9899587
vn -0.1626692 0.003275028 -0.9866752
vn -0.7221444 0.01453929 -0.6915895
vn -0.7409143 0.01491721 -0.6714338
vn 0.02012933 0.9997974 0
vn 0.02012933 0.9997974 0
vn 0.02012933 0.9997974 0
vn 0.02012933 0.9997974 0
vn 0.02012933 0.9997974 0
vn 0.02012933 0.9997974 0
vn 0.02012933 0.9997974 0
vn 0.02012933 0.9997974 0
vn 0.02012933 0.9997974 0
vn 0.02012933 0.9997974 0
vn 0.02012933 0.9997974 0
vn 0.02012933 0.9997974 0
vn 0.02012933 0.9997974 0
vn 0.02012933 0.9997974 0
vn 0.02012933 0.9997974 0
vn 0.02012933 0.9997974 0
g Treat_01_0
f 3/3/3 2/2/2 1/1/1
f 1/1/1 4/4/4 3/3/3
f 1/1/1 5/5/5 4/4/4
f 1/1/1 6/6/6 5/5/5
f 1/1/1 7/7/7 6/6/6
f 1/1/1 8/8/8 7/7/7
f 8/8/8 9/9/9 7/7/7
f 8/8/8 10/10/10 9/9/9
f 10/10/10 11/11/11 9/9/9
f 10/10/10 12/12/12 11/11/11
f 12/12/12 13/13/13 11/11/11
f 3/3/3 4/4/4 14/14/14
f 15/15/15 3/3/3 14/14/14
f 15/15/15 14/14/14 16/16/16
f 17/17/17 15/15/15 16/16/16
f 16/16/16 18/18/18 17/17/17
f 21/21/21 20/20/20 19/19/19
f 19/19/19 22/22/22 21/21/21
f 19/19/19 23/23/23 22/22/22
f 23/23/23 24/24/24 22/22/22
f 23/23/23 25/25/25 24/24/24
f 24/24/24 25/25/25 26/26/26
f 26/26/26 27/27/27 24/24/24
f 25/25/25 28/28/28 26/26/26
f 28/28/28 29/29/29 26/26/26
f 29/29/29 30/30/30 26/26/26
f 30/30/30 31/31/31 26/26/26
f 30/30/30 32/32/32 31/31/31
f 32/32/32 33/33/33 31/31/31
f 32/32/32 34/34/34 33/33/33
f 34/34/34 35/35/35 33/33/33
f 34/34/34 36/36/36 35/35/35
f 27/27/27 26/26/26 37/37/37
f 38/38/38 27/27/27 37/37/37
f 38/38/38 37/37/37 39/39/39
f 40/40/40 38/38/38 39/39/39
f 40/40/40 39/39/39 41/41/41
f 42/42/42 40/40/40 41/41/41
f 41/41/41 43/43/43 42/42/42
f 26/26/26 44/44/44 37/37/37
f 26/26/26 45/45/45 44/44/44
f 26/26/26 46/46/46 45/45/45
f 26/26/26 47/47/47 46/46/46
f 48/48/48 46/46/46 47/47/47
f 47/47/47 49/49/49 48/48/48
f 49/49/49 50/50/50 48/48/48
f 49/49/49 51/51/51 50/50/50
f 51/51/51 52/52/52 50/50/50
f 55/55/55 54/54/54 53/53/53
f 56/56/56 55/55/55 53/53/53
f 55/55/55 57/57/57 54/54/54
f 57/57/57 58/58/58 54/54/54
f 57/57/57 59/59/59 58/58/58
f 59/59/59 60/60/60 58/58/58
f 59/59/59 61/61/61 60/60/60
f 61/61/61 62/62/62 60/60/60
f 56/56/56 53/53/53 63/63/63
f 64/64/64 56/56/56 63/63/63
f 64/64/64 63/63/63 65/65/65
f 66/66/66 64/64/64 65/65/65
f 66/66/66 65/65/65 67/67/67
f 68/68/68 66/66/66 67/67/67
f 68/68/68 67/67/67 69/69/69
f 70/70/70 68/68/68 69/69/69
f 70/70/70 69/69/69 71/71/71
f 72/72/72 70/70/70 71/71/71
f 72/72/72 71/71/71 73/73/73
f 74/74/74 72/72/72 73/73/73
f 74/74/74 73/73/73 75/75/75
f 76/76/76 74/74/74 75/75/75
f 76/76/76 75/75/75 77/77/77
f 78/78/78 76/76/76 77/77/77
f 79/79/79 78/78/78 77/77/77
f 80/80/80 79/79/79 77/77/77
f 81/81/81 79/79/79 80/80/80
f 82/82/82 81/81/81 80/80/80
f 83/83/83 81/81/81 82/82/82
f 84/84/84 83/83/83 82/82/82
f 85/85/85 83/83/83 84/84/84
f 86/86/86 85/85/85 84/84/84
f 87/87/87 85/85/85 86/86/86
f 88/88/88 87/87/87 86/86/86
f 89/89/89 87/87/87 88/88/88
f 90/90/90 89/89/89 88/88/88
f 91/91/91 89/89/89 90/90/90
f 92/92/92 91/91/91 90/90/90
f 93/93/93 91/91/91 92/92/92
f 94/94/94 93/93/93 92/92/92
f 95/95/95 93/93/93 94/94/94
f 96/96/96 95/95/95 94/94/94
f 97/97/97 95/95/95 96/96/96
f 98/98/98 97/97/97 96/96/96
f 99/99/99 97/97/97 98/98/98
f 100/100/100 99/99/99 98/98/98
f 101/101/101 99/99/99 100/100/100
f 102/102/102 101/101/101 100/100/100
f 105/105/105 104/104/104 103/103/103
f 106/106/106 105/105/105 103/103/103
f 106/106/106 103/103/103 107/107/107
f 108/108/108 106/106/106 107/107/107
f 105/105/105 109/109/109 104/104/104
f 109/109/109 110/110/110 104/104/104
f 109/109/109 111/111/111 110/110/110
f 111/111/111 112/112/112 110/110/110
f 111/111/111 113/113/113 112/112/112
f 113/113/113 114/114/114 112/112/112
f 114/114/114 113/113/113 115/115/115
f 113/113/113 116/116/116 115/115/115
f 115/115/115 116/116/116 117/117/117
f 116/116/116 118/118/118 117/117/117
f 117/117/117 118/118/118 119/119/119
f 118/118/118 120/120/120 119/119/119
f 119/119/119 120/120/120 121/121/121
f 120/120/120 122/122/122 121/121/121
f 121/121/121 122/122/122 123/123/123
f 122/122/122 124/124/124 123/123/123
f 127/127/127 126/126/126 125/125/125
f 125/125/125 128/128/128 127/127/127
f 125/125/125 129/129/129 128/128/128
f 129/129/129 130/130/130 128/128/128
f 129/129/129 131/131/131 130/130/130
f 126/126/126 127/127/127 1/1/1
f 132/132/132 126/126/126 1/1/1
f 133/133/133 132/132/132 1/1/1
f 134/134/134 133/133/133 1/1/1
f 134/134/134 1/1/1 2/2/2
f 134/134/134 2/2/2 135/135/135
f 136/136/136 134/134/134 135/135/135
f 136/136/136 135/135/135 137/137/137
f 138/138/138 136/136/136 137/137/137
f 138/138/138 137/137/137 139/139/139
f 139/139/139 140/140/140 138/138/138
